<svg xmlns="http://www.w3.org/2000/svg" xmlns:xlink="http://www.w3.org/1999/xlink" viewBox="0 0 106.37 104.88"><defs><style>.cls-1{fill:none;}.cls-2{opacity:0.8;}.cls-3{clip-path:url(#clip-path);}.cls-4{fill:#82bc3f;}.cls-5{fill:#80bb3f;}.cls-6{fill:#7eba3f;}.cls-7{fill:#7cba3f;}.cls-8{fill:#7ab93f;}.cls-9{fill:#78b83f;}.cls-10{fill:#76b740;}.cls-11{fill:#74b640;}.cls-12{fill:#72b640;}.cls-13{fill:#70b540;}.cls-14{fill:#6eb440;}.cls-15{fill:#6cb340;}.cls-16{fill:#6ab240;}.cls-17{fill:#68b240;}.cls-18{fill:#66b140;}.cls-19{fill:#65b040;}.cls-20{fill:#63af40;}.cls-21{fill:#61af41;}.cls-22{fill:#5fae41;}.cls-23{fill:#5dad41;}.cls-24{fill:#5cad41;}.cls-25{fill:#5aac41;}.cls-26{fill:#58ab41;}.cls-27{fill:#56ab41;}.cls-28{fill:#55aa41;}.cls-29{fill:#53a941;}.cls-30{fill:#51a941;}.cls-31{fill:#50a841;}.cls-32{fill:#4ea741;}.cls-33{fill:#4da741;}.cls-34{clip-path:url(#clip-path-2);}.cls-35{fill:#2c9a43;}.cls-36{fill:#2b9943;}.cls-37{fill:#2a9943;}.cls-38{fill:#299843;}.cls-39{fill:#289843;}.cls-40{fill:#279743;}.cls-41{fill:#269743;}.cls-42{fill:#249743;}.cls-43{fill:#239643;}.cls-44{fill:#229643;}.cls-45{fill:#219543;}.cls-46{fill:#209544;}.cls-47{fill:#1f9544;}.cls-48{fill:#1e9444;}.cls-49{fill:#1d9444;}.cls-50{fill:#1c9344;}.cls-51{fill:#1b9344;}.cls-52{fill:#1a9344;}.cls-53{fill:#1a9244;}.cls-54{fill:#199244;}.cls-55{fill:#189244;}.cls-56{fill:#003165;}.cls-57{clip-path:url(#clip-path-3);}.cls-58{fill:#4ba642;}.cls-59{fill:#49a542;}.cls-60{fill:#48a542;}.cls-61{fill:#46a442;}.cls-62{fill:#45a442;}.cls-63{fill:#43a342;}.cls-64{fill:#42a242;}.cls-65{fill:#40a242;}.cls-66{fill:#3fa142;}.cls-67{fill:#3da142;}.cls-68{fill:#3ca042;}.cls-69{fill:#3b9f42;}.cls-70{fill:#399f42;}.cls-71{fill:#389e42;}.cls-72{fill:#379e42;}.cls-73{fill:#359d43;}.cls-74{fill:#349d43;}.cls-75{fill:#339c43;}.cls-76{fill:#319c43;}.cls-77{fill:#309b43;}.cls-78{fill:#2f9b43;}.cls-79{fill:#2e9a43;}.cls-80{fill:#179144;}.cls-81{fill:#169144;}.cls-82{fill:#159144;}.cls-83{fill:#149044;}.cls-84{fill:#139044;}.cls-85{fill:#128f44;}.cls-86{fill:#118f44;}.cls-87{fill:#108e44;}.cls-88{fill:#0f8e44;}.cls-89{fill:#0e8e44;}.cls-90{fill:#0d8d44;}</style><clipPath id="clip-path" transform="translate(0.45)"><path class="cls-1" d="M1.62,85.87c10.84-.53,20.47-1.23,29.2-2a86.48,86.48,0,0,1,.75-22.63C23.21,56,14.32,50.15,4.94,43.76,1.19,55.08-.45,69,1.62,85.87Z"/></clipPath><clipPath id="clip-path-2" transform="translate(0.45)"><path class="cls-1" d="M73.2,100.94c19.24-4.87,27.24-9.1,32.72-17.82L93.09,76.3C82.91,85,78.65,88,57.82,90.86,63.58,90.07,67.59,97.72,73.2,100.94Z"/></clipPath><clipPath id="clip-path-3" transform="translate(0.45)"><path class="cls-1" d="M0,45.33A79.47,79.47,0,0,1,23.76,26.38C27.33,34,31,41.5,34.8,48.75A75.72,75.72,0,0,0,23.6,69.06C16.19,61.84,8.31,54,0,45.33Z"/></clipPath></defs><g id="Capa_2" data-name="Capa 2"><g id="Capa_1-2" data-name="Capa 1"><g class="cls-2"><g class="cls-3"><polygon class="cls-4" points="18.91 43.76 27.57 53.35 0 78.2 0 43.76 18.91 43.76"/><polygon class="cls-4" points="27.57 53.35 28.17 54.02 0 79.42 0 78.2 27.57 53.35"/><polygon class="cls-5" points="28.17 54.02 28.78 54.69 0 80.64 0 79.42 28.17 54.02"/><polygon class="cls-6" points="28.78 54.69 29.38 55.37 0 81.86 0 80.64 28.78 54.69"/><polygon class="cls-7" points="29.38 55.37 29.99 56.04 0 83.08 0 81.86 29.38 55.37"/><polygon class="cls-8" points="29.99 56.04 30.6 56.71 0 84.3 0 83.08 29.99 56.04"/><polygon class="cls-9" points="30.6 56.71 31.2 57.38 0 85.51 0 84.3 30.6 56.71"/><polygon class="cls-10" points="31.2 57.38 31.81 58.05 0.95 85.88 0 85.88 0 85.51 31.2 57.38"/><polygon class="cls-11" points="31.81 58.05 32.02 58.29 32.02 59.08 2.3 85.88 0.95 85.88 31.81 58.05"/><polygon class="cls-12" points="32.02 60.3 3.65 85.88 2.3 85.88 32.02 59.08 32.02 60.3"/><polygon class="cls-13" points="32.02 61.52 5.01 85.88 3.65 85.88 32.02 60.3 32.02 61.52"/><polygon class="cls-14" points="32.02 62.74 6.36 85.88 5.01 85.88 32.02 61.52 32.02 62.74"/><polygon class="cls-15" points="32.02 63.96 7.71 85.88 6.36 85.88 32.02 62.74 32.02 63.96"/><polygon class="cls-16" points="32.02 65.18 9.06 85.88 7.71 85.88 32.02 63.96 32.02 65.18"/><polygon class="cls-17" points="32.02 66.4 10.41 85.88 9.06 85.88 32.02 65.18 32.02 66.4"/><polygon class="cls-18" points="32.02 67.61 11.77 85.88 10.41 85.88 32.02 66.4 32.02 67.61"/><polygon class="cls-19" points="32.02 68.83 13.12 85.88 11.77 85.88 32.02 67.61 32.02 68.83"/><polygon class="cls-20" points="32.02 70.05 14.47 85.88 13.12 85.88 32.02 68.83 32.02 70.05"/><polygon class="cls-21" points="32.02 71.27 15.82 85.88 14.47 85.88 32.02 70.05 32.02 71.27"/><polygon class="cls-22" points="32.02 72.49 17.17 85.88 15.82 85.88 32.02 71.27 32.02 72.49"/><polygon class="cls-23" points="32.02 73.71 18.52 85.88 17.17 85.88 32.02 72.49 32.02 73.71"/><polygon class="cls-24" points="32.02 74.93 19.88 85.88 18.52 85.88 32.02 73.71 32.02 74.93"/><polygon class="cls-25" points="32.02 76.14 21.23 85.88 19.88 85.88 32.02 74.93 32.02 76.14"/><polygon class="cls-26" points="32.02 77.36 22.58 85.88 21.23 85.88 32.02 76.14 32.02 77.36"/><polygon class="cls-27" points="32.02 78.58 23.93 85.88 22.58 85.88 32.02 77.36 32.02 78.58"/><polygon class="cls-28" points="32.02 79.8 25.28 85.88 23.93 85.88 32.02 78.58 32.02 79.8"/><polygon class="cls-29" points="32.02 81.02 26.63 85.88 25.28 85.88 32.02 79.8 32.02 81.02"/><polygon class="cls-30" points="32.02 82.24 27.98 85.88 26.63 85.88 32.02 81.02 32.02 82.24"/><polygon class="cls-31" points="32.02 83.46 29.34 85.88 27.98 85.88 32.02 82.24 32.02 83.46"/><polygon class="cls-32" points="32.02 84.68 30.69 85.88 29.34 85.88 32.02 83.46 32.02 84.68"/><polygon class="cls-33" points="30.69 85.88 32.02 84.68 32.02 85.88 30.69 85.88"/></g></g><g class="cls-2"><g class="cls-34"><polygon class="cls-35" points="58.27 93.05 59.54 100.94 58.27 100.94 58.27 93.05"/><polygon class="cls-36" points="58.27 79.94 58.7 79.88 62.09 100.94 59.54 100.94 58.27 93.05 58.27 79.94"/><polygon class="cls-37" points="58.7 79.88 61.19 79.48 64.64 100.94 62.09 100.94 58.7 79.88"/><polygon class="cls-38" points="61.19 79.48 63.67 79.08 67.19 100.94 64.64 100.94 61.19 79.48"/><polygon class="cls-39" points="63.67 79.08 66.16 78.68 69.74 100.94 67.19 100.94 63.67 79.08"/><polygon class="cls-40" points="66.16 78.68 68.65 78.28 72.29 100.94 69.74 100.94 66.16 78.68"/><polygon class="cls-41" points="68.65 78.28 71.13 77.88 74.84 100.94 72.29 100.94 68.65 78.28"/><polygon class="cls-42" points="71.13 77.88 73.62 77.48 77.39 100.94 74.84 100.94 71.13 77.88"/><polygon class="cls-43" points="73.62 77.48 76.1 77.08 79.94 100.94 77.39 100.94 73.62 77.48"/><polygon class="cls-44" points="76.1 77.08 78.59 76.68 82.49 100.94 79.94 100.94 76.1 77.08"/><polygon class="cls-45" points="78.59 76.68 80.93 76.3 81.08 76.3 85.04 100.94 82.49 100.94 78.59 76.68"/><polygon class="cls-46" points="83.63 76.3 87.55 100.74 86.26 100.94 85.04 100.94 81.08 76.3 83.63 76.3"/><polygon class="cls-47" points="86.18 76.3 90.04 100.34 87.55 100.74 83.63 76.3 86.18 76.3"/><polygon class="cls-48" points="88.72 76.3 92.52 99.94 90.04 100.34 86.18 76.3 88.72 76.3"/><polygon class="cls-49" points="91.28 76.3 95.01 99.54 92.52 99.94 88.72 76.3 91.28 76.3"/><polygon class="cls-50" points="93.82 76.3 97.49 99.14 95.01 99.54 91.28 76.3 93.82 76.3"/><polygon class="cls-51" points="96.37 76.3 99.98 98.74 97.49 99.14 93.82 76.3 96.37 76.3"/><polygon class="cls-52" points="98.92 76.3 102.47 98.34 99.98 98.74 96.37 76.3 98.92 76.3"/><polygon class="cls-53" points="101.47 76.3 104.95 97.94 102.47 98.34 98.92 76.3 101.47 76.3"/><polygon class="cls-54" points="104.02 76.3 106.37 90.92 106.37 97.71 104.95 97.94 101.47 76.3 104.02 76.3"/><polygon class="cls-55" points="106.37 90.92 104.02 76.3 106.37 76.3 106.37 90.92"/></g></g><path class="cls-56" d="M9.23,18c1.64,1.42,1.23,1.68,1.23,1.68A28.19,28.19,0,0,1,7.38,18c-.68-.52-1.38-.59-1.6-.22S7.05,19,7.05,19c.55.39,1,.81,1.53,1.18a12.12,12.12,0,0,0,1.75.88s-.46.39-2.34-.42S6,20.48,6,20.48c-.21.63,3.28,1.46,4.22,1.77s.48.57.48.57c-2.51.48-2.4.81-2.4.81-.46.67,2.12.19,2.6.08a2,2,0,0,1,1.11.22,5.88,5.88,0,0,0,2.8,1.12c.63.06,3.17,2.49,3.17,2.49,6.18,4.83,9.24,5.92,10.33,6.22a18.19,18.19,0,0,0,5.16,0l2.21-.43A34,34,0,0,1,39.61,33a8.23,8.23,0,0,0,2-.73s.72.7.9.7a11.58,11.58,0,0,0,1.44-1.46c.18-.26,1.09,0,1.09,0a25.82,25.82,0,0,0,1.25,3.38,12.26,12.26,0,0,1,1.6,5.64c-.55.22-1.91,2.6-1.91,2.6-.3.42-.8.66-2.44,1.09a18,18,0,0,0-2.23.7,54.4,54.4,0,0,0-5.38,2.41,22.9,22.9,0,0,1-5.31,1,7.85,7.85,0,0,0-2.42.59,10.46,10.46,0,0,0-4,.11,8.67,8.67,0,0,1-1.9.42c-.42.13-.7-.18-1.2,0s.3.61.3.61l-.89.35a8.35,8.35,0,0,0-2.6,1.38c-.61.76.3.89.3.89A13.28,13.28,0,0,0,19.81,52c.37-.16,1.25-.46,1.33-.51s1-.32,1.05-.32a2.19,2.19,0,0,1-1.16.59,4.09,4.09,0,0,0-1.24.52,13.48,13.48,0,0,0-1.77.92c-.83.48-.24.94,0,1a7.23,7.23,0,0,0,2.05-.74,10.15,10.15,0,0,1,2-.79c.63-.08.26.35-.29.46a1.61,1.61,0,0,0-1,.48,4.11,4.11,0,0,1-.5.42c-1.4.63-1.27,1.07-1.27,1.07.09,1,1.94-.2,2.73-.68a5.34,5.34,0,0,1,1.2-.59c.75,0,.4.59.4.59a21.71,21.71,0,0,0-1.8,1.79c-.32,1,.57.66,1.05.38A8.72,8.72,0,0,0,24,55.27a4.59,4.59,0,0,1,2.16-1c1.11-.24,3-1.62,3.74-1.9s4.34-.22,5.5-.42,6.12-.63,7.93-1.09,4-.85,4.46-.94a1.08,1.08,0,0,0,.64-.46c-.07.15.41,2.06.39,2.67s-.2.61-.66,1.66S47,56.18,47,56.18l.42-.08a12,12,0,0,0-.86,1.9c-1.46,2.51-1.39,6.51-1.44,8.3a11.35,11.35,0,0,1-.3,2.67,7,7,0,0,0-.48,4.19,11.65,11.65,0,0,1,0,2.25c-.22.22-.31,1.64-.39,5.2s1.92,8,2.07,8.94,1.71,6.07,1.86,7.28a12.15,12.15,0,0,1,0,2.35,3.83,3.83,0,0,0-1.2,1.16,2.72,2.72,0,0,0-.06,2.12,1.27,1.27,0,0,0-.33,1.07c-.09,1.29,4.35,1.4,5.29,1.34s.8-.68.8-.68c.68-1.71,1-.35,1.16-.35a3.65,3.65,0,0,0,.59-.13,17,17,0,0,0-.52-3.19,15.21,15.21,0,0,0-1.38-2.23V98.2a3.8,3.8,0,0,0-.61-2.14c-.74-1.42-.15-5.79,0-7.41s.37-3.56.37-3.56c.24-4.06-.3-4.78-.83-7.17s-.37-2.14-.37-2.14c.18-.11-.09-.63-.09-.63a6.72,6.72,0,0,1,.64-2.49,42.82,42.82,0,0,1,3.93-6c1.16-1.42,3-3.34,3-3.34a1.43,1.43,0,0,0,.18,1.16c.15.32,0,1.29.13,1.42a.71.71,0,0,1,.19.37s-1,2.53-1.79,3.93a33.73,33.73,0,0,0-1.94,7.1,7.11,7.11,0,0,0,.15,3.06,6,6,0,0,1,.15,1.75c0,1.7,1.75,2.27,2.19,2.43s.52.48,1,1.17L59.29,87c-.52.2-.41,2-.41,2a4.93,4.93,0,0,0-.61,2.42c-.57.33-.24,1.31-.24,1.31a2.12,2.12,0,0,1-.33,1.51,4.5,4.5,0,0,0-.55,1.94A7.23,7.23,0,0,0,57,99.38c1.33,2.56,3.56.44,4.37-.26a8.13,8.13,0,0,0,1.46-1.86l.46.44-.21-.83c.17.15.3-.7.3-.7l.29-.39a6.3,6.3,0,0,0,.5-2.65,35,35,0,0,1,.85-4.3,2,2,0,0,0,.61-1.25A3.48,3.48,0,0,0,65,84.46a1.61,1.61,0,0,0-1.07-.68,5.19,5.19,0,0,0,.19-3.5c-.13-.54-1.44-1.63-1.44-1.63,0-.16,6-10.49,6-10.49l1.36-.77a3.58,3.58,0,0,1,.13-1.55c.26-.68.65-1.73.65-1.73a14.2,14.2,0,0,1,1-2.51,8.73,8.73,0,0,0,.89-2.66,2.72,2.72,0,0,1,.18-1.56,24.59,24.59,0,0,0,.55-3.71A4.3,4.3,0,0,0,74,52.23a7.47,7.47,0,0,0-.35-2.6c-.2-.72-.11-.81-.27-1.47s-.39-1.66-.59-2.33a4.9,4.9,0,0,1,0-1.91,2.69,2.69,0,0,0-.19-1.55,14,14,0,0,1-.59-2c-.18-.59-.29-2.23-.46-3.14s-.74-2-.94-2.76-.48-1.92-.48-1.92a11.29,11.29,0,0,0-.83-3,7.1,7.1,0,0,0-1.86-2.32,19.57,19.57,0,0,0-1.81-1.64c-.59-.63-1.49-1.05-2-1.73s-1.51-1.77-1.9-2.2-.64-.31-1-.57-.19-1.36-.19-1.36a1.22,1.22,0,0,0,1-.83.87.87,0,0,0,1.07-.45c.31-.55-.32-1-.32-1,.26.66-.18.75-.18.75-.52,0-.33-1.05-.33-1.05.51,0,.77-.77.77-.77-.39.61-.81.46-.81.46.72-.19.77-1.35.46-1.51s-.2-.43,0-.67,0-1.1,0-1.1l-.43.4a1.78,1.78,0,0,0,.41-1.23l-.33.46a13.56,13.56,0,0,1-.32-1.64,2,2,0,0,1,.06-1,1.61,1.61,0,0,0,0-1.12l-.17.55a3.09,3.09,0,0,0-.83-1.79,2.66,2.66,0,0,1-.81-1.25,1.84,1.84,0,0,0-.83-.83c-.35-.2-.77.13-1-.15s.11-.68.11-.68a.68.68,0,0,0-.63.44c.17-.83-.42-1-.42-1-.24,1-.54.55-.54.55l-.24-.5c-.07.94-.59.63-.59.63a.55.55,0,0,0-.81-.09c-.33.22-.48,0-.48,0C54,5,53.09,4.83,53.09,4.83l.61.35-.59-.13c-.72-.33-.94-.22-.94-.22.66.44.29.42-.24.31s-.65.15-.65.15l.24.53-1.64.06.26.29-.87.13.78.28s.7-.15.09,0a2.16,2.16,0,0,0-.94.55c0,.26-.57.87-.57.87a3.69,3.69,0,0,0-1.11,1.36c-.22.68.94,1.46.94,1.46s-.7,1.34-.92,1.71.2.52.2.78-.31.29-.31.29.31-.07.31-.07l.28.16a12.12,12.12,0,0,1-1.09,1.61c-.44.46.61.83.61.83l-.09,1c-.22,0-.06.27.18.55a2.59,2.59,0,0,1,.39.79c-.61.28-.09.65-.09.65a2.15,2.15,0,0,1-.15,1.29s-2.19.85-2.23,1.2a1.07,1.07,0,0,1-.44.62,15.78,15.78,0,0,0-4.3,2,.91.91,0,0,0-.59.15c-.35.64-.5.52-.5.52-.64,0-.72.4-.72.4-.81-.28-1.14.4-1.4.55a1.23,1.23,0,0,1-.55.15l.07.15c-1.31-.24-4.88,1.16-5.53,1.18a6.28,6.28,0,0,1-2.8-.67,34.18,34.18,0,0,0-4.89-1.51,10.06,10.06,0,0,1-3-.9,24.59,24.59,0,0,1-3.26-1.94c-.9-.57-.83-.66-.83-.66a3,3,0,0,0-.22-1.7,3.51,3.51,0,0,1-.22-.72,1.62,1.62,0,0,0-.33-1c-.5-.5-.35-1.24-.45-2.25s-.83-.65-.83-.65a2.49,2.49,0,0,0-.31,2.51,1,1,0,0,1-.09.83,1.43,1.43,0,0,1-1.53.35,14.66,14.66,0,0,1-2.28-1.31c2.79-1.32,3.72-6,2-10.62C10.88,2.16,7-.87,3.93.23S-.19,6.14,1.55,11C3.11,15.3,6.37,18.18,9.23,18Z" transform="translate(0.45)"/><g class="cls-2"><g class="cls-57"><polygon class="cls-4" points="26.53 26.38 30.2 33.87 0.45 48.41 0.45 26.38 26.53 26.38"/><polygon class="cls-4" points="30.2 33.87 30.36 34.21 0.45 48.84 0.45 48.41 30.2 33.87"/><polygon class="cls-5" points="30.36 34.21 30.53 34.56 0.45 49.27 0.45 48.84 30.36 34.21"/><polygon class="cls-6" points="30.53 34.56 30.7 34.91 0.45 49.7 0.45 49.27 30.53 34.56"/><polygon class="cls-7" points="30.7 34.91 30.87 35.25 0.55 50.08 0.45 49.88 0.45 49.7 30.7 34.91"/><rect class="cls-8" x="-1.53" y="42.65" width="33.76" height="0.39" transform="translate(-16.81 11.1) rotate(-26.06)"/><rect class="cls-9" x="-1.36" y="42.99" width="33.76" height="0.39" transform="translate(-16.95 11.21) rotate(-26.06)"/><rect class="cls-10" x="-1.2" y="43.34" width="33.76" height="0.39" transform="translate(-17.08 11.32) rotate(-26.06)"/><rect class="cls-11" x="-1.03" y="43.69" width="33.76" height="0.39" transform="translate(-17.22 11.43) rotate(-26.06)"/><rect class="cls-12" x="-0.86" y="44.03" width="33.76" height="0.39" transform="translate(-17.35 11.54) rotate(-26.06)"/><rect class="cls-13" x="-0.69" y="44.38" width="33.76" height="0.39" transform="translate(-17.49 11.65) rotate(-26.06)"/><rect class="cls-14" x="-0.52" y="44.73" width="33.76" height="0.39" transform="translate(-17.62 11.75) rotate(-26.06)"/><rect class="cls-15" x="-0.35" y="45.07" width="33.76" height="0.39" transform="translate(-17.76 11.86) rotate(-26.06)"/><rect class="cls-16" x="-0.18" y="45.42" width="33.76" height="0.39" transform="translate(-17.89 11.97) rotate(-26.06)"/><rect class="cls-17" x="-0.01" y="45.76" width="33.76" height="0.39" transform="translate(-18.03 12.08) rotate(-26.06)"/><rect class="cls-18" x="0.16" y="46.11" width="33.76" height="0.39" transform="translate(-18.16 12.19) rotate(-26.06)"/><rect class="cls-19" x="0.33" y="46.46" width="33.76" height="0.39" transform="translate(-18.3 12.3) rotate(-26.06)"/><rect class="cls-20" x="0.5" y="46.8" width="33.76" height="0.39" transform="translate(-18.43 12.41) rotate(-26.06)"/><rect class="cls-21" x="0.67" y="47.15" width="33.76" height="0.39" transform="translate(-18.57 12.52) rotate(-26.06)"/><rect class="cls-22" x="0.84" y="47.5" width="33.76" height="0.39" transform="translate(-18.7 12.63) rotate(-26.06)"/><rect class="cls-23" x="1.01" y="47.84" width="33.76" height="0.39" transform="translate(-18.84 12.74) rotate(-26.06)"/><rect class="cls-24" x="1.18" y="48.19" width="33.76" height="0.39" transform="translate(-18.97 12.85) rotate(-26.06)"/><rect class="cls-25" x="1.34" y="48.53" width="33.76" height="0.39" transform="translate(-19.11 12.96) rotate(-26.06)"/><rect class="cls-26" x="1.51" y="48.88" width="33.76" height="0.39" transform="translate(-19.24 13.07) rotate(-26.06)"/><rect class="cls-27" x="1.68" y="49.23" width="33.76" height="0.39" transform="translate(-19.38 13.18) rotate(-26.06)"/><rect class="cls-28" x="1.85" y="49.57" width="33.76" height="0.39" transform="translate(-19.51 13.29) rotate(-26.06)"/><rect class="cls-29" x="2.02" y="49.92" width="33.76" height="0.39" transform="translate(-19.65 13.4) rotate(-26.06)"/><rect class="cls-30" x="2.19" y="50.27" width="33.76" height="0.39" transform="translate(-19.78 13.51) rotate(-26.06)"/><rect class="cls-31" x="2.36" y="50.61" width="33.76" height="0.39" transform="translate(-19.92 13.62) rotate(-26.06)"/><rect class="cls-32" x="2.53" y="50.96" width="33.76" height="0.39" transform="translate(-20.05 13.73) rotate(-26.06)"/><polygon class="cls-33" points="35.11 43.91 35.25 44.2 35.25 44.27 4.95 59.09 4.78 58.74 35.11 43.91"/><polygon class="cls-58" points="35.25 44.7 5.12 59.43 4.95 59.09 35.25 44.27 35.25 44.7"/><polygon class="cls-59" points="35.25 45.13 5.29 59.78 5.12 59.43 35.25 44.7 35.25 45.13"/><polygon class="cls-60" points="35.25 45.56 5.46 60.13 5.29 59.78 35.25 45.13 35.25 45.56"/><polygon class="cls-61" points="35.25 45.99 5.63 60.47 5.46 60.13 35.25 45.56 35.25 45.99"/><polygon class="cls-62" points="35.25 46.41 5.8 60.82 5.63 60.47 35.25 45.99 35.25 46.41"/><polygon class="cls-63" points="35.25 46.84 5.96 61.16 5.8 60.82 35.25 46.41 35.25 46.84"/><polygon class="cls-64" points="35.25 47.27 6.13 61.51 5.96 61.16 35.25 46.84 35.25 47.27"/><polygon class="cls-65" points="35.25 47.7 6.3 61.86 6.13 61.51 35.25 47.27 35.25 47.7"/><polygon class="cls-66" points="35.25 48.13 6.47 62.2 6.3 61.86 35.25 47.7 35.25 48.13"/><polygon class="cls-67" points="35.25 48.56 6.64 62.55 6.47 62.2 35.25 48.13 35.25 48.56"/><polygon class="cls-68" points="35.25 48.99 6.81 62.9 6.64 62.55 35.25 48.56 35.25 48.99"/><polygon class="cls-69" points="35.25 49.42 6.98 63.24 6.81 62.9 35.25 48.99 35.25 49.42"/><polygon class="cls-70" points="35.25 49.85 7.15 63.59 6.98 63.24 35.25 49.42 35.25 49.85"/><polygon class="cls-71" points="35.25 50.28 7.32 63.94 7.15 63.59 35.25 49.85 35.25 50.28"/><polygon class="cls-72" points="35.25 50.71 7.49 64.28 7.32 63.94 35.25 50.28 35.25 50.71"/><polygon class="cls-73" points="35.25 51.13 7.66 64.63 7.49 64.28 35.25 50.71 35.25 51.13"/><polygon class="cls-74" points="35.25 51.56 7.83 64.97 7.66 64.63 35.25 51.13 35.25 51.56"/><polygon class="cls-75" points="35.25 51.99 8 65.32 7.83 64.97 35.25 51.56 35.25 51.99"/><polygon class="cls-76" points="35.25 52.42 8.17 65.67 8 65.32 35.25 51.99 35.25 52.42"/><polygon class="cls-77" points="35.25 52.85 8.34 66.01 8.17 65.67 35.25 52.42 35.25 52.85"/><polygon class="cls-78" points="35.25 53.28 8.51 66.36 8.34 66.01 35.25 52.85 35.25 53.28"/><polygon class="cls-79" points="35.25 53.71 8.68 66.7 8.51 66.36 35.25 53.28 35.25 53.71"/><polygon class="cls-35" points="35.25 54.14 8.84 67.05 8.68 66.7 35.25 53.71 35.25 54.14"/><polygon class="cls-36" points="35.25 54.57 9.01 67.4 8.84 67.05 35.25 54.14 35.25 54.57"/><polygon class="cls-37" points="35.25 55 9.18 67.74 9.01 67.4 35.25 54.57 35.25 55"/><polygon class="cls-38" points="35.25 55.43 9.35 68.09 9.18 67.74 35.25 55 35.25 55.43"/><polygon class="cls-39" points="35.25 55.85 9.52 68.44 9.35 68.09 35.25 55.43 35.25 55.85"/><polygon class="cls-40" points="35.25 56.28 9.69 68.78 9.52 68.44 35.25 55.85 35.25 56.28"/><polygon class="cls-41" points="35.25 56.71 10 69.06 9.83 69.06 9.69 68.78 35.25 56.28 35.25 56.71"/><polygon class="cls-42" points="35.25 57.14 10.88 69.06 10 69.06 35.25 56.71 35.25 57.14"/><polygon class="cls-43" points="35.25 57.57 11.76 69.06 10.88 69.06 35.25 57.14 35.25 57.57"/><polygon class="cls-44" points="35.25 58 12.63 69.06 11.76 69.06 35.25 57.57 35.25 58"/><polygon class="cls-45" points="35.25 58.43 13.51 69.06 12.63 69.06 35.25 58 35.25 58.43"/><polygon class="cls-46" points="35.25 58.86 14.39 69.06 13.51 69.06 35.25 58.43 35.25 58.86"/><polygon class="cls-47" points="35.25 59.29 15.27 69.06 14.39 69.06 35.25 58.86 35.25 59.29"/><polygon class="cls-48" points="35.25 59.72 16.14 69.06 15.27 69.06 35.25 59.29 35.25 59.72"/><polygon class="cls-49" points="35.25 60.15 17.02 69.06 16.14 69.06 35.25 59.72 35.25 60.15"/><polygon class="cls-50" points="35.25 60.58 17.9 69.06 17.02 69.06 35.25 60.15 35.25 60.58"/><polygon class="cls-51" points="35.25 61.01 18.77 69.06 17.9 69.06 35.25 60.58 35.25 61.01"/><polygon class="cls-52" points="35.25 61.43 19.65 69.06 18.77 69.06 35.25 61.01 35.25 61.43"/><polygon class="cls-53" points="35.25 61.86 20.53 69.06 19.65 69.06 35.25 61.43 35.25 61.86"/><polygon class="cls-54" points="35.25 62.29 21.41 69.06 20.53 69.06 35.25 61.86 35.25 62.29"/><polygon class="cls-55" points="35.25 62.72 22.29 69.06 21.41 69.06 35.25 62.29 35.25 62.72"/><polygon class="cls-80" points="35.25 63.15 23.16 69.06 22.29 69.06 35.25 62.72 35.25 63.15"/><polygon class="cls-81" points="35.25 63.58 24.04 69.06 23.16 69.06 35.25 63.15 35.25 63.58"/><polygon class="cls-82" points="35.25 64.01 24.92 69.06 24.04 69.06 35.25 63.58 35.25 64.01"/><polygon class="cls-83" points="35.25 64.44 25.8 69.06 24.92 69.06 35.25 64.01 35.25 64.44"/><polygon class="cls-83" points="35.25 64.87 26.67 69.06 25.8 69.06 35.25 64.44 35.25 64.87"/><polygon class="cls-84" points="35.25 65.3 27.55 69.06 26.67 69.06 35.25 64.87 35.25 65.3"/><polygon class="cls-85" points="35.25 65.72 28.43 69.06 27.55 69.06 35.25 65.3 35.25 65.72"/><polygon class="cls-86" points="35.25 66.15 29.3 69.06 28.43 69.06 35.25 65.72 35.25 66.15"/><polygon class="cls-86" points="35.25 66.58 30.18 69.06 29.3 69.06 35.25 66.15 35.25 66.58"/><polygon class="cls-87" points="35.25 67.01 31.06 69.06 30.18 69.06 35.25 66.58 35.25 67.01"/><polygon class="cls-88" points="35.25 67.44 31.94 69.06 31.06 69.06 35.25 67.01 35.25 67.44"/><polygon class="cls-88" points="35.25 67.87 32.81 69.06 31.94 69.06 35.25 67.44 35.25 67.87"/><polygon class="cls-89" points="35.25 68.3 33.69 69.06 32.81 69.06 35.25 67.87 35.25 68.3"/><polygon class="cls-90" points="35.25 68.73 34.57 69.06 33.69 69.06 35.25 68.3 35.25 68.73"/><polygon class="cls-90" points="34.57 69.06 35.25 68.73 35.25 69.06 34.57 69.06"/></g></g></g></g></svg>