<svg xmlns="http://www.w3.org/2000/svg" xmlns:xlink="http://www.w3.org/1999/xlink" viewBox="0 0 115.32 73.24"><defs><style>.cls-1{fill:none;}.cls-2{opacity:0.8;}.cls-3{clip-path:url(#clip-path);}.cls-4{fill:#82bc3f;}.cls-5{fill:#80bb3f;}.cls-6{fill:#7eba3f;}.cls-7{fill:#7cba3f;}.cls-8{fill:#7ab93f;}.cls-9{fill:#78b83f;}.cls-10{fill:#76b740;}.cls-11{fill:#74b640;}.cls-12{fill:#72b640;}.cls-13{fill:#70b540;}.cls-14{fill:#6eb440;}.cls-15{fill:#6cb340;}.cls-16{fill:#6ab240;}.cls-17{fill:#68b240;}.cls-18{fill:#66b140;}.cls-19{fill:#65b040;}.cls-20{fill:#63af40;}.cls-21{fill:#61af41;}.cls-22{fill:#5fae41;}.cls-23{fill:#5dad41;}.cls-24{fill:#5cad41;}.cls-25{fill:#5aac41;}.cls-26{fill:#58ab41;}.cls-27{fill:#56ab41;}.cls-28{fill:#55aa41;}.cls-29{fill:#53a941;}.cls-30{fill:#51a941;}.cls-31{fill:#50a841;}.cls-32{fill:#4ea741;}.cls-33{fill:#4da741;}.cls-34{fill:#4ba642;}.cls-35{fill:#49a542;}.cls-36{fill:#48a542;}.cls-37{fill:#46a442;}.cls-38{fill:#45a442;}.cls-39{fill:#43a342;}.cls-40{fill:#42a242;}.cls-41{fill:#40a242;}.cls-42{fill:#3fa142;}.cls-43{fill:#3da142;}.cls-44{fill:#3ca042;}.cls-45{fill:#3b9f42;}.cls-46{fill:#399f42;}.cls-47{fill:#389e42;}.cls-48{fill:#379e42;}.cls-49{fill:#359d43;}.cls-50{fill:#349d43;}.cls-51{fill:#339c43;}.cls-52{fill:#319c43;}.cls-53{fill:#309b43;}.cls-54{fill:#2f9b43;}.cls-55{fill:#2e9a43;}.cls-56{fill:#2c9a43;}.cls-57{fill:#2b9943;}.cls-58{fill:#2a9943;}.cls-59{fill:#299843;}.cls-60{fill:#289843;}.cls-61{fill:#279743;}.cls-62{fill:#269743;}.cls-63{fill:#249743;}.cls-64{fill:#239643;}.cls-65{fill:#229643;}.cls-66{fill:#219543;}.cls-67{fill:#209544;}.cls-68{fill:#1f9544;}.cls-69{fill:#1e9444;}.cls-70{fill:#1d9444;}.cls-71{fill:#1c9344;}.cls-72{fill:#1b9344;}.cls-73{fill:#1a9344;}.cls-74{fill:#1a9244;}.cls-75{fill:#199244;}.cls-76{fill:#189244;}.cls-77{fill:#179144;}.cls-78{fill:#169144;}.cls-79{fill:#159144;}.cls-80{fill:#149044;}.cls-81{fill:#139044;}.cls-82{fill:#128f44;}.cls-83{fill:#118f44;}.cls-84{fill:#108e44;}.cls-85{fill:#0f8e44;}.cls-86{fill:#0e8e44;}.cls-87{fill:#0d8d44;}.cls-88{fill:#0c8d44;}.cls-89{fill:#0b8d44;}.cls-90{fill:#0b8c45;}.cls-91{fill:#0a8c45;}.cls-92{fill:#098c45;}.cls-93{fill:#098b45;}.cls-94{fill:#088b45;}.cls-95{fill:#078b45;}.cls-96{fill:#068b45;}.cls-97{fill:#068a45;}.cls-98{fill:#058a45;}.cls-99{fill:#048a45;}.cls-100{fill:#048945;}.cls-101{fill:#038945;}.cls-102{fill:#028945;}.cls-103{fill:#018945;}.cls-104{fill:#018845;}.cls-105{fill:#008845;}.cls-106{clip-path:url(#clip-path-2);}.cls-107{fill:#043263;}.cls-108{clip-path:url(#clip-path-3);}</style><clipPath id="clip-path" transform="translate(0)"><path class="cls-1" d="M7.44,12.92C4.46,27.18.93,41.36,0,55.88c14.38,2.56,27.92,4.65,40.5,6.34a78.25,78.25,0,0,1,4.3-27.08A372.07,372.07,0,0,1,7.44,12.92Z"/></clipPath><clipPath id="clip-path-2" transform="translate(0)"><path class="cls-1" d="M15.06,70.07a79.53,79.53,0,0,1,6.15-29.76c7.64,3.61,15.26,7,22.8,10.15a75.16,75.16,0,0,0,4.37,22.78C38.06,72.43,27,71.4,15.06,70.07Z"/></clipPath><clipPath id="clip-path-3" transform="translate(0)"><path class="cls-1" d="M78.19,69.12Q97.89,71,115.32,72.21q-3.94-6.51-7-12.75-17.84-3.26-37.46-7.22A150.7,150.7,0,0,0,78.19,69.12Z"/></clipPath></defs><g id="Capa_2" data-name="Capa 2"><g id="Capa_1-2" data-name="Capa 1"><g class="cls-2"><g class="cls-3"><polygon class="cls-4" points="11.69 12.92 5.97 60.05 0 59.32 0 12.92 11.69 12.92"/><polygon class="cls-4" points="11.97 12.92 6.24 60.08 5.97 60.05 11.69 12.92 11.97 12.92"/><polygon class="cls-5" points="12.24 12.92 6.51 60.11 6.24 60.08 11.97 12.92 12.24 12.92"/><polygon class="cls-6" points="12.52 12.92 6.79 60.15 6.51 60.11 12.24 12.92 12.52 12.92"/><polygon class="cls-7" points="12.79 12.92 7.06 60.18 6.79 60.15 12.52 12.92 12.79 12.92"/><polygon class="cls-8" points="13.07 12.92 7.33 60.21 7.06 60.18 12.79 12.92 13.07 12.92"/><polygon class="cls-9" points="13.34 12.92 7.6 60.24 7.33 60.21 13.07 12.92 13.34 12.92"/><polygon class="cls-10" points="13.62 12.92 7.87 60.28 7.6 60.24 13.34 12.92 13.62 12.92"/><polygon class="cls-11" points="13.89 12.92 8.14 60.31 7.87 60.28 13.62 12.92 13.89 12.92"/><polygon class="cls-12" points="14.17 12.92 8.41 60.34 8.14 60.31 13.89 12.92 14.17 12.92"/><polygon class="cls-13" points="14.45 12.92 8.69 60.38 8.41 60.34 14.17 12.92 14.45 12.92"/><polygon class="cls-14" points="14.72 12.92 8.96 60.41 8.69 60.38 14.45 12.92 14.72 12.92"/><polygon class="cls-15" points="15 12.92 9.23 60.44 8.96 60.41 14.72 12.92 15 12.92"/><polygon class="cls-16" points="15.27 12.92 9.5 60.48 9.23 60.44 15 12.92 15.27 12.92"/><polygon class="cls-17" points="15.55 12.92 9.77 60.51 9.5 60.48 15.27 12.92 15.55 12.92"/><polygon class="cls-18" points="15.82 12.92 10.04 60.54 9.77 60.51 15.55 12.92 15.82 12.92"/><polygon class="cls-19" points="16.1 12.92 10.31 60.57 10.04 60.54 15.82 12.92 16.1 12.92"/><polygon class="cls-20" points="16.37 12.92 10.59 60.61 10.31 60.57 16.1 12.92 16.37 12.92"/><polygon class="cls-21" points="16.65 12.92 10.86 60.64 10.59 60.61 16.37 12.92 16.65 12.92"/><polygon class="cls-22" points="16.93 12.92 11.13 60.67 10.86 60.64 16.65 12.92 16.93 12.92"/><polygon class="cls-23" points="17.2 12.92 11.4 60.71 11.13 60.67 16.93 12.92 17.2 12.92"/><polygon class="cls-24" points="17.48 12.92 11.67 60.74 11.4 60.71 17.2 12.92 17.48 12.92"/><polygon class="cls-25" points="17.75 12.92 11.94 60.77 11.67 60.74 17.48 12.92 17.75 12.92"/><polygon class="cls-26" points="18.03 12.92 12.21 60.8 11.94 60.77 17.75 12.92 18.03 12.92"/><polygon class="cls-27" points="18.3 12.92 12.49 60.84 12.21 60.8 18.03 12.92 18.3 12.92"/><polygon class="cls-28" points="18.58 12.92 12.76 60.87 12.49 60.84 18.3 12.92 18.58 12.92"/><polygon class="cls-29" points="18.85 12.92 13.03 60.9 12.76 60.87 18.58 12.92 18.85 12.92"/><polygon class="cls-30" points="19.13 12.92 13.3 60.94 13.03 60.9 18.85 12.92 19.13 12.92"/><polygon class="cls-31" points="19.4 12.92 13.57 60.97 13.3 60.94 19.13 12.92 19.4 12.92"/><polygon class="cls-32" points="19.68 12.92 13.84 61 13.57 60.97 19.4 12.92 19.68 12.92"/><polygon class="cls-33" points="19.95 12.92 14.12 61.03 13.84 61 19.68 12.92 19.95 12.92"/><polygon class="cls-34" points="20.23 12.92 14.39 61.07 14.12 61.03 19.95 12.92 20.23 12.92"/><polygon class="cls-35" points="20.51 12.92 14.66 61.1 14.39 61.07 20.23 12.92 20.51 12.92"/><polygon class="cls-36" points="20.78 12.92 14.93 61.13 14.66 61.1 20.51 12.92 20.78 12.92"/><polygon class="cls-37" points="21.06 12.92 15.2 61.17 14.93 61.13 20.78 12.92 21.06 12.92"/><polygon class="cls-38" points="21.33 12.92 15.47 61.2 15.2 61.17 21.06 12.92 21.33 12.92"/><polygon class="cls-39" points="21.61 12.92 15.74 61.23 15.47 61.2 21.33 12.92 21.61 12.92"/><polygon class="cls-40" points="21.88 12.92 16.02 61.27 15.74 61.23 21.61 12.92 21.88 12.92"/><polygon class="cls-41" points="22.16 12.92 16.29 61.3 16.02 61.27 21.88 12.92 22.16 12.92"/><polygon class="cls-42" points="22.43 12.92 16.56 61.33 16.29 61.3 22.16 12.92 22.43 12.92"/><polygon class="cls-43" points="22.71 12.92 16.83 61.37 16.56 61.33 22.43 12.92 22.71 12.92"/><polygon class="cls-44" points="22.98 12.92 17.1 61.4 16.83 61.37 22.71 12.92 22.98 12.92"/><polygon class="cls-45" points="23.26 12.92 17.37 61.43 17.1 61.4 22.98 12.92 23.26 12.92"/><polygon class="cls-46" points="23.54 12.92 17.64 61.46 17.37 61.43 23.26 12.92 23.54 12.92"/><polygon class="cls-47" points="23.81 12.92 17.92 61.5 17.64 61.46 23.54 12.92 23.81 12.92"/><polygon class="cls-48" points="24.04 12.92 24.09 12.93 18.19 61.53 17.92 61.5 23.81 12.92 24.04 12.92"/><rect class="cls-49" x="-3.21" y="37.11" width="48.96" height="0.27" transform="translate(-18.26 53.87) rotate(-83.08)"/><rect class="cls-50" x="-2.94" y="37.14" width="48.96" height="0.27" transform="translate(-18.06 54.17) rotate(-83.08)"/><rect class="cls-51" x="-2.66" y="37.17" width="48.96" height="0.27" transform="translate(-17.85 54.47) rotate(-83.08)"/><rect class="cls-52" x="-2.39" y="37.21" width="48.96" height="0.27" transform="translate(-17.65 54.77) rotate(-83.08)"/><rect class="cls-53" x="-2.12" y="37.24" width="48.96" height="0.27" transform="translate(-17.44 55.07) rotate(-83.08)"/><rect class="cls-54" x="-1.85" y="37.27" width="48.96" height="0.27" transform="translate(-17.23 55.37) rotate(-83.08)"/><rect class="cls-55" x="-1.58" y="37.31" width="48.96" height="0.27" transform="translate(-17.03 55.67) rotate(-83.08)"/><rect class="cls-56" x="-1.31" y="37.34" width="48.96" height="0.27" transform="translate(-16.82 55.96) rotate(-83.08)"/><rect class="cls-57" x="-1.04" y="37.37" width="48.96" height="0.27" transform="translate(-16.62 56.26) rotate(-83.08)"/><rect class="cls-58" x="-0.76" y="37.4" width="48.96" height="0.27" transform="translate(-16.41 56.56) rotate(-83.08)"/><rect class="cls-59" x="-0.49" y="37.44" width="48.96" height="0.27" transform="translate(-16.2 56.86) rotate(-83.08)"/><rect class="cls-60" x="-0.22" y="37.47" width="48.96" height="0.27" transform="translate(-16 57.16) rotate(-83.08)"/><rect class="cls-61" x="0.05" y="37.5" width="48.96" height="0.27" transform="translate(-15.79 57.46) rotate(-83.08)"/><rect class="cls-62" x="0.32" y="37.54" width="48.96" height="0.27" transform="translate(-15.59 57.75) rotate(-83.08)"/><rect class="cls-63" x="0.59" y="37.57" width="48.96" height="0.27" transform="translate(-15.38 58.05) rotate(-83.08)"/><rect class="cls-64" x="0.86" y="37.6" width="48.96" height="0.27" transform="translate(-15.17 58.35) rotate(-83.08)"/><rect class="cls-65" x="1.14" y="37.63" width="48.96" height="0.27" transform="translate(-14.97 58.65) rotate(-83.08)"/><rect class="cls-66" x="1.41" y="37.67" width="48.96" height="0.27" transform="translate(-14.76 58.95) rotate(-83.08)"/><rect class="cls-67" x="1.68" y="37.7" width="48.96" height="0.27" transform="translate(-14.56 59.25) rotate(-83.08)"/><rect class="cls-68" x="1.95" y="37.73" width="48.96" height="0.27" transform="translate(-14.35 59.55) rotate(-83.08)"/><rect class="cls-69" x="2.22" y="37.77" width="48.96" height="0.27" transform="translate(-14.14 59.84) rotate(-83.08)"/><polygon class="cls-70" points="29.79 13.62 30.06 13.65 24.16 62.22 23.9 62.22 23.89 62.22 29.79 13.62"/><polygon class="cls-71" points="30.06 13.65 30.33 13.68 24.44 62.22 24.16 62.22 30.06 13.65"/><polygon class="cls-72" points="30.33 13.68 30.6 13.72 24.71 62.22 24.44 62.22 30.33 13.68"/><polygon class="cls-73" points="30.6 13.72 30.87 13.75 24.99 62.22 24.71 62.22 30.6 13.72"/><polygon class="cls-74" points="30.87 13.75 31.14 13.78 25.27 62.22 24.99 62.22 30.87 13.75"/><polygon class="cls-75" points="31.14 13.78 31.41 13.82 25.54 62.22 25.27 62.22 31.14 13.78"/><polygon class="cls-76" points="31.41 13.82 31.69 13.85 25.82 62.22 25.54 62.22 31.41 13.82"/><polygon class="cls-77" points="31.69 13.85 31.96 13.88 26.09 62.22 25.82 62.22 31.69 13.85"/><polygon class="cls-78" points="31.96 13.88 32.23 13.91 26.37 62.22 26.09 62.22 31.96 13.88"/><polygon class="cls-79" points="32.23 13.91 32.5 13.95 26.64 62.22 26.37 62.22 32.23 13.91"/><polygon class="cls-80" points="32.5 13.95 32.77 13.98 26.92 62.22 26.64 62.22 32.5 13.95"/><polygon class="cls-80" points="32.77 13.98 33.04 14.01 27.19 62.22 26.92 62.22 32.77 13.98"/><polygon class="cls-81" points="33.04 14.01 33.31 14.05 27.47 62.22 27.19 62.22 33.04 14.01"/><polygon class="cls-82" points="33.31 14.05 33.59 14.08 27.74 62.22 27.47 62.22 33.31 14.05"/><polygon class="cls-83" points="33.59 14.08 33.86 14.11 28.02 62.22 27.74 62.22 33.59 14.08"/><polygon class="cls-83" points="33.86 14.11 34.13 14.15 28.3 62.22 28.02 62.22 33.86 14.11"/><polygon class="cls-84" points="34.13 14.15 34.4 14.18 28.57 62.22 28.3 62.22 34.13 14.15"/><polygon class="cls-85" points="34.4 14.18 34.67 14.21 28.85 62.22 28.57 62.22 34.4 14.18"/><polygon class="cls-85" points="34.67 14.21 34.94 14.24 29.12 62.22 28.85 62.22 34.67 14.21"/><polygon class="cls-86" points="34.94 14.24 35.22 14.28 29.4 62.22 29.12 62.22 34.94 14.24"/><polygon class="cls-87" points="35.22 14.28 35.49 14.31 29.67 62.22 29.4 62.22 35.22 14.28"/><polygon class="cls-87" points="35.49 14.31 35.76 14.34 29.95 62.22 29.67 62.22 35.49 14.31"/><polygon class="cls-88" points="35.76 14.34 36.03 14.38 30.22 62.22 29.95 62.22 35.76 14.34"/><polygon class="cls-89" points="36.03 14.38 36.3 14.41 30.5 62.22 30.22 62.22 36.03 14.38"/><polygon class="cls-90" points="36.3 14.41 36.57 14.44 30.77 62.22 30.5 62.22 36.3 14.41"/><polygon class="cls-91" points="36.57 14.44 36.84 14.47 31.05 62.22 30.77 62.22 36.57 14.44"/><polygon class="cls-91" points="36.84 14.47 37.12 14.51 31.32 62.22 31.05 62.22 36.84 14.47"/><polygon class="cls-92" points="37.12 14.51 37.39 14.54 31.6 62.22 31.32 62.22 37.12 14.51"/><polygon class="cls-93" points="37.39 14.54 37.66 14.57 31.88 62.22 31.6 62.22 37.39 14.54"/><polygon class="cls-94" points="37.66 14.57 37.93 14.61 32.15 62.22 31.88 62.22 37.66 14.57"/><polygon class="cls-94" points="37.93 14.61 38.2 14.64 32.43 62.22 32.15 62.22 37.93 14.61"/><polygon class="cls-95" points="38.2 14.64 38.47 14.67 32.7 62.22 32.43 62.22 38.2 14.64"/><polygon class="cls-95" points="38.47 14.67 38.74 14.71 32.98 62.22 32.7 62.22 38.47 14.67"/><polygon class="cls-96" points="38.74 14.71 39.02 14.74 33.25 62.22 32.98 62.22 38.74 14.71"/><polygon class="cls-97" points="39.02 14.74 39.29 14.77 33.53 62.22 33.25 62.22 39.02 14.74"/><polygon class="cls-98" points="39.29 14.77 39.56 14.8 33.8 62.22 33.53 62.22 39.29 14.77"/><polygon class="cls-98" points="39.56 14.8 39.83 14.84 34.08 62.22 33.8 62.22 39.56 14.8"/><polygon class="cls-98" points="39.83 14.84 40.1 14.87 34.35 62.22 34.08 62.22 39.83 14.84"/><polygon class="cls-99" points="40.1 14.87 40.37 14.9 34.63 62.22 34.35 62.22 40.1 14.87"/><polygon class="cls-99" points="40.37 14.9 40.65 14.94 34.91 62.22 34.63 62.22 40.37 14.9"/><polygon class="cls-100" points="40.65 14.94 40.92 14.97 35.18 62.22 34.91 62.22 40.65 14.94"/><polygon class="cls-101" points="40.92 14.97 41.19 15 35.46 62.22 35.18 62.22 40.92 14.97"/><polygon class="cls-101" points="41.19 15 41.46 15.04 35.73 62.22 35.46 62.22 41.19 15"/><polygon class="cls-101" points="41.46 15.04 41.73 15.07 36.01 62.22 35.73 62.22 41.46 15.04"/><polygon class="cls-102" points="41.73 15.07 42 15.1 36.28 62.22 36.01 62.22 41.73 15.07"/><polygon class="cls-102" points="42 15.1 42.27 15.13 36.56 62.22 36.28 62.22 42 15.1"/><polygon class="cls-102" points="42.27 15.13 42.55 15.17 36.83 62.22 36.56 62.22 42.27 15.13"/><polygon class="cls-102" points="42.55 15.17 42.82 15.2 37.11 62.22 36.83 62.22 42.55 15.17"/><polygon class="cls-103" points="42.82 15.2 43.09 15.23 37.38 62.22 37.11 62.22 42.82 15.2"/><polygon class="cls-103" points="43.09 15.23 43.36 15.27 37.66 62.22 37.38 62.22 43.09 15.23"/><polygon class="cls-104" points="43.36 15.27 43.63 15.3 37.94 62.22 37.66 62.22 43.36 15.27"/><polygon class="cls-104" points="43.63 15.3 43.9 15.33 38.21 62.22 37.94 62.22 43.63 15.3"/><polygon class="cls-104" points="43.9 15.33 44.17 15.37 38.49 62.22 38.21 62.22 43.9 15.33"/><polygon class="cls-104" points="44.17 15.37 44.45 15.4 38.76 62.22 38.49 62.22 44.17 15.37"/><polygon class="cls-104" points="44.45 15.4 44.72 15.43 39.04 62.22 38.76 62.22 44.45 15.4"/><polygon class="cls-105" points="44.72 15.43 44.8 15.44 44.8 16.98 39.31 62.22 39.04 62.22 44.72 15.43"/><polygon class="cls-105" points="44.8 19.25 39.59 62.22 39.31 62.22 44.8 16.98 44.8 19.25"/><polygon class="cls-105" points="44.8 21.52 39.86 62.22 39.59 62.22 44.8 19.25 44.8 21.52"/><polygon class="cls-105" points="44.8 23.79 40.14 62.22 39.86 62.22 44.8 21.52 44.8 23.79"/><polygon class="cls-105" points="44.8 26.06 40.41 62.22 40.14 62.22 44.8 23.79 44.8 26.06"/><polygon class="cls-105" points="44.8 28.33 40.69 62.22 40.41 62.22 44.8 26.06 44.8 28.33"/><polygon class="cls-105" points="44.8 30.6 40.97 62.22 40.69 62.22 44.8 28.33 44.8 30.6"/><polygon class="cls-105" points="44.8 32.87 41.24 62.22 40.97 62.22 44.8 30.6 44.8 32.87"/><polygon class="cls-105" points="44.8 35.14 41.52 62.22 41.24 62.22 44.8 32.87 44.8 35.14"/><polygon class="cls-105" points="41.52 62.22 44.8 35.14 44.8 62.22 41.52 62.22"/></g></g><g class="cls-2"><g class="cls-106"><polygon class="cls-4" points="26.31 40.31 30.61 42.24 16.76 73.03 15.06 72.27 15.06 40.31 26.31 40.31"/><rect class="cls-4" x="6.98" y="57.53" width="33.76" height="0.39" transform="translate(-38.57 55.81) rotate(-65.79)"/><polygon class="cls-5" points="30.96 42.4 31.31 42.56 17.52 73.24 17.21 73.24 17.11 73.19 30.96 42.4"/><polygon class="cls-6" points="31.31 42.56 31.66 42.72 17.94 73.24 17.52 73.24 31.31 42.56"/><polygon class="cls-7" points="31.66 42.72 32.01 42.88 18.36 73.24 17.94 73.24 31.66 42.72"/><polygon class="cls-8" points="32.01 42.88 32.36 43.03 18.78 73.24 18.36 73.24 32.01 42.88"/><polygon class="cls-9" points="32.36 43.03 32.72 43.19 19.21 73.24 18.78 73.24 32.36 43.03"/><polygon class="cls-10" points="32.72 43.19 33.07 43.35 19.63 73.24 19.21 73.24 32.72 43.19"/><polygon class="cls-11" points="33.07 43.35 33.42 43.51 20.05 73.24 19.63 73.24 33.07 43.35"/><polygon class="cls-12" points="33.42 43.51 33.77 43.67 20.47 73.24 20.05 73.24 33.42 43.51"/><polygon class="cls-13" points="33.77 43.67 34.12 43.83 20.9 73.24 20.47 73.24 33.77 43.67"/><polygon class="cls-14" points="34.12 43.83 34.47 43.98 21.32 73.24 20.9 73.24 34.12 43.83"/><polygon class="cls-15" points="34.47 43.98 34.83 44.14 21.74 73.24 21.32 73.24 34.47 43.98"/><polygon class="cls-16" points="34.83 44.14 35.18 44.3 22.16 73.24 21.74 73.24 34.83 44.14"/><polygon class="cls-17" points="35.18 44.3 35.53 44.46 22.59 73.24 22.16 73.24 35.18 44.3"/><polygon class="cls-18" points="35.53 44.46 35.88 44.62 23.01 73.24 22.59 73.24 35.53 44.46"/><polygon class="cls-19" points="35.88 44.62 36.23 44.77 23.43 73.24 23.01 73.24 35.88 44.62"/><polygon class="cls-20" points="36.23 44.77 36.58 44.93 23.86 73.24 23.43 73.24 36.23 44.77"/><polygon class="cls-21" points="36.58 44.93 36.93 45.09 24.28 73.24 23.86 73.24 36.58 44.93"/><polygon class="cls-22" points="36.93 45.09 37.29 45.25 24.7 73.24 24.28 73.24 36.93 45.09"/><polygon class="cls-23" points="37.29 45.25 37.64 45.41 25.12 73.24 24.7 73.24 37.29 45.25"/><polygon class="cls-24" points="37.64 45.41 37.99 45.56 25.55 73.24 25.12 73.24 37.64 45.41"/><polygon class="cls-25" points="37.99 45.56 38.34 45.72 25.97 73.24 25.55 73.24 37.99 45.56"/><polygon class="cls-26" points="38.34 45.72 38.69 45.88 26.39 73.24 25.97 73.24 38.34 45.72"/><polygon class="cls-27" points="38.69 45.88 39.04 46.04 26.81 73.24 26.39 73.24 38.69 45.88"/><polygon class="cls-28" points="39.04 46.04 39.4 46.2 27.24 73.24 26.81 73.24 39.04 46.04"/><polygon class="cls-29" points="39.4 46.2 39.75 46.35 27.66 73.24 27.24 73.24 39.4 46.2"/><polygon class="cls-30" points="39.75 46.35 40.1 46.51 28.08 73.24 27.66 73.24 39.75 46.35"/><polygon class="cls-31" points="40.1 46.51 40.45 46.67 28.5 73.24 28.08 73.24 40.1 46.51"/><polygon class="cls-32" points="40.45 46.67 40.8 46.83 28.93 73.24 28.5 73.24 40.45 46.67"/><polygon class="cls-33" points="40.8 46.83 41.15 46.99 29.35 73.24 28.93 73.24 40.8 46.83"/><polygon class="cls-34" points="41.15 46.99 41.51 47.15 29.77 73.24 29.35 73.24 41.15 46.99"/><polygon class="cls-35" points="41.51 47.15 41.86 47.3 30.2 73.24 29.77 73.24 41.51 47.15"/><polygon class="cls-36" points="41.86 47.3 42.21 47.46 30.62 73.24 30.2 73.24 41.86 47.3"/><polygon class="cls-37" points="42.21 47.46 42.56 47.62 31.04 73.24 30.62 73.24 42.21 47.46"/><polygon class="cls-38" points="42.56 47.62 42.91 47.78 31.46 73.24 31.04 73.24 42.56 47.62"/><polygon class="cls-39" points="42.91 47.78 43.26 47.94 31.89 73.24 31.46 73.24 42.91 47.78"/><polygon class="cls-40" points="43.26 47.94 43.61 48.09 32.31 73.24 31.89 73.24 43.26 47.94"/><polygon class="cls-41" points="43.61 48.09 43.97 48.25 32.73 73.24 32.31 73.24 43.61 48.09"/><polygon class="cls-42" points="43.97 48.25 44.32 48.41 33.15 73.24 32.73 73.24 43.97 48.25"/><polygon class="cls-43" points="44.32 48.41 44.67 48.57 33.58 73.24 33.15 73.24 44.32 48.41"/><polygon class="cls-44" points="44.67 48.57 45.02 48.73 34 73.24 33.58 73.24 44.67 48.57"/><polygon class="cls-45" points="45.02 48.73 45.37 48.88 34.42 73.24 34 73.24 45.02 48.73"/><polygon class="cls-46" points="45.37 48.88 45.72 49.04 34.84 73.24 34.42 73.24 45.37 48.88"/><polygon class="cls-47" points="45.72 49.04 46.08 49.2 35.27 73.24 34.84 73.24 45.72 49.04"/><polygon class="cls-48" points="46.08 49.2 46.43 49.36 35.69 73.24 35.27 73.24 46.08 49.2"/><polygon class="cls-49" points="46.43 49.36 46.78 49.52 36.11 73.24 35.69 73.24 46.43 49.36"/><polygon class="cls-50" points="46.78 49.52 47.13 49.67 36.54 73.24 36.11 73.24 46.78 49.52"/><polygon class="cls-51" points="47.13 49.67 47.48 49.83 36.96 73.24 36.54 73.24 47.13 49.67"/><polygon class="cls-52" points="47.48 49.83 47.83 49.99 37.38 73.24 36.96 73.24 47.48 49.83"/><polygon class="cls-53" points="47.83 49.99 48.19 50.15 37.8 73.24 37.38 73.24 47.83 49.99"/><polygon class="cls-54" points="48.19 50.15 48.38 50.23 48.38 50.66 38.23 73.24 37.8 73.24 48.19 50.15"/><polygon class="cls-55" points="48.38 51.6 38.65 73.24 38.23 73.24 48.38 50.66 48.38 51.6"/><polygon class="cls-56" points="48.38 52.54 39.07 73.24 38.65 73.24 48.38 51.6 48.38 52.54"/><polygon class="cls-57" points="48.38 53.48 39.49 73.24 39.07 73.24 48.38 52.54 48.38 53.48"/><polygon class="cls-58" points="48.38 54.42 39.92 73.24 39.49 73.24 48.38 53.48 48.38 54.42"/><polygon class="cls-59" points="48.38 55.36 40.34 73.24 39.92 73.24 48.38 54.42 48.38 55.36"/><polygon class="cls-60" points="48.38 56.3 40.76 73.24 40.34 73.24 48.38 55.36 48.38 56.3"/><polygon class="cls-61" points="48.38 57.24 41.19 73.24 40.76 73.24 48.38 56.3 48.38 57.24"/><polygon class="cls-62" points="48.38 58.18 41.61 73.24 41.19 73.24 48.38 57.24 48.38 58.18"/><polygon class="cls-63" points="48.38 59.12 42.03 73.24 41.61 73.24 48.38 58.18 48.38 59.12"/><polygon class="cls-64" points="48.38 60.06 42.45 73.24 42.03 73.24 48.38 59.12 48.38 60.06"/><polygon class="cls-65" points="48.38 61 42.88 73.24 42.45 73.24 48.38 60.06 48.38 61"/><polygon class="cls-66" points="48.38 61.94 43.3 73.24 42.88 73.24 48.38 61 48.38 61.94"/><polygon class="cls-67" points="48.38 62.88 43.72 73.24 43.3 73.24 48.38 61.94 48.38 62.88"/><polygon class="cls-68" points="48.38 63.82 44.14 73.24 43.72 73.24 48.38 62.88 48.38 63.82"/><polygon class="cls-69" points="48.38 64.76 44.57 73.24 44.14 73.24 48.38 63.82 48.38 64.76"/><polygon class="cls-70" points="48.38 65.7 44.99 73.24 44.57 73.24 48.38 64.76 48.38 65.7"/><polygon class="cls-71" points="48.38 66.64 45.41 73.24 44.99 73.24 48.38 65.7 48.38 66.64"/><polygon class="cls-72" points="48.38 67.58 45.83 73.24 45.41 73.24 48.38 66.64 48.38 67.58"/><polygon class="cls-73" points="48.38 68.52 46.26 73.24 45.83 73.24 48.38 67.58 48.38 68.52"/><polygon class="cls-74" points="48.38 69.46 46.68 73.24 46.26 73.24 48.38 68.52 48.38 69.46"/><polygon class="cls-75" points="48.38 70.4 47.1 73.24 46.68 73.24 48.38 69.46 48.38 70.4"/><polygon class="cls-76" points="48.38 71.34 47.52 73.24 47.1 73.24 48.38 70.4 48.38 71.34"/><polygon class="cls-77" points="48.38 72.28 47.95 73.24 47.52 73.24 48.38 71.34 48.38 72.28"/><polygon class="cls-78" points="48.38 73.22 48.37 73.24 47.95 73.24 48.38 72.28 48.38 73.22"/><polygon class="cls-79" points="48.37 73.24 48.38 73.22 48.38 73.24 48.37 73.24"/></g></g><g id="uwvNDg"><path class="cls-107" d="M53.26,0h2.05c.13.06.27.13.41.18A4.88,4.88,0,0,1,59,3.94a9.69,9.69,0,0,1,.15,2.35c0,.52.2.72.72.71,1,0,2,0,3.06,0s.93,0,.93-.92a7.7,7.7,0,0,1,.48-3.19A5.18,5.18,0,0,1,67.71,0h2a5.11,5.11,0,0,1,3.7,3.7,9.07,9.07,0,0,1,.17,2.6c0,.53.2.71.71.7,1.11,0,2.22,0,3.32,0,.61,0,.78-.23.76-.79a9.21,9.21,0,0,1,.06-2.1A5,5,0,0,1,82.28,0h2a1.85,1.85,0,0,0,.29.13,4.91,4.91,0,0,1,3.48,4.64,13.19,13.19,0,0,1,0,1.4c0,.59.18.89.81.83A11,11,0,0,1,90.1,7a7.86,7.86,0,0,1,4.41,1.48,7.94,7.94,0,0,1,3.25,6.87q0,20.5,0,41c0,.72,0,1.44-.08,2.17a7.62,7.62,0,0,1-7.47,6.94H46.76a7.27,7.27,0,0,1-5-2,8,8,0,0,1-2.58-6.3q0-20.64,0-41.27c0-.62,0-1.24.08-1.85a7.68,7.68,0,0,1,6.61-7A20.3,20.3,0,0,1,48.69,7c.53,0,.71-.2.7-.72a11.13,11.13,0,0,1,.06-2.16A5,5,0,0,1,53.26,0ZM68.47,18.41H45c-1.17,0-1.17,0-1.17,1.14V57.12c0,.24,0,.47,0,.7a3,3,0,0,0,2.83,3,14.48,14.48,0,0,0,1.47.08H88.79c.56,0,1.11,0,1.66-.09a2.81,2.81,0,0,0,1.83-1,3.6,3.6,0,0,0,.82-2.55q0-18.91,0-37.82c0-1.08,0-1.08-1.12-1.08ZM52.25,9.3h0c0,1.56-.05,3.11,0,4.66a2,2,0,0,0,2.56,1.82,2.26,2.26,0,0,0,1.44-2.33c0-2.75,0-5.49,0-8.24a3.8,3.8,0,0,0-.16-1,2,2,0,0,0-3.23-.86A2.16,2.16,0,0,0,52.25,5Zm29,0h0v4.08a3.23,3.23,0,0,0,.12,1.07,2,2,0,0,0,2.15,1.34,2,2,0,0,0,1.75-2.12c0-2.93,0-5.87,0-8.81a2,2,0,0,0-1.34-2A1.94,1.94,0,0,0,81.3,4.69C81.23,6.24,81.28,7.79,81.28,9.35Zm-10.53,0c0-1.42,0-2.85,0-4.27a2,2,0,0,0-2-2.23,2.05,2.05,0,0,0-2,2.25q0,4.25,0,8.49a2.1,2.1,0,0,0,2,2.31,2.07,2.07,0,0,0,2-2.27C70.76,12.17,70.75,10.75,70.75,9.32Z" transform="translate(0)"/><path class="cls-107" d="M63,53.29c-1.15,0-2.3,0-3.45,0-.55,0-.8-.18-.8-.78,0-2,0-4,0-6,0-.54.19-.77.75-.77h7c.48,0,.69.19.69.68q0,3.1,0,6.19c0,.5-.23.68-.7.67Z" transform="translate(0)"/><path class="cls-107" d="M74,45.76c1.13,0,2.26,0,3.38,0,.56,0,.81.18.81.78q0,3,0,6c0,.6-.25.78-.81.78H70.52c-.53,0-.77-.19-.76-.74q0-3,0-6.07c0-.55.23-.75.76-.74C71.69,45.77,72.86,45.76,74,45.76Z" transform="translate(0)"/><path class="cls-107" d="M51.92,53.29c-1.15,0-2.3,0-3.45,0-.54,0-.75-.21-.74-.76q0-3,0-6.07c0-.52.2-.72.71-.72h7c.54,0,.73.2.73.76q0,3,0,6.07c0,.52-.18.72-.69.72C54.26,53.28,53.09,53.29,51.92,53.29Z" transform="translate(0)"/><path class="cls-107" d="M85.05,45.76c1.15,0,2.3,0,3.45,0,.51,0,.73.19.72.72,0,2,0,4.09,0,6.13,0,.5-.19.7-.68.69H81.45c-.44,0-.64-.17-.63-.65,0-2.06,0-4.13,0-6.19,0-.56.24-.7.73-.7Z" transform="translate(0)"/><path class="cls-107" d="M62.93,33.66c-1.17,0-2.34,0-3.51,0-.5,0-.68-.2-.68-.68q0-3.06,0-6.12c0-.53.22-.71.73-.71q3.51,0,7,0c.54,0,.72.22.72.72,0,2,0,4.05,0,6.07,0,.54-.21.74-.77.72C65.27,33.64,64.1,33.66,62.93,33.66Z" transform="translate(0)"/><path class="cls-107" d="M63,36c1.15,0,2.3,0,3.44,0,.51,0,.75.15.74.68q0,3.06,0,6.12c0,.52-.21.71-.73.7-2.34,0-4.67,0-7,0-.53,0-.72-.21-.71-.72q0-3,0-6.06c0-.56.23-.74.77-.72C60.67,36,61.84,36,63,36Z" transform="translate(0)"/><path class="cls-107" d="M74,33.66c-1.17,0-2.34,0-3.51,0-.5,0-.7-.18-.7-.66q0-3.07,0-6.13c0-.52.2-.72.73-.72q3.51,0,7,0c.49,0,.7.19.7.68q0,3.09,0,6.2c0,.46-.2.63-.66.63C76.36,33.65,75.16,33.66,74,33.66Z" transform="translate(0)"/><path class="cls-107" d="M74,43.49c-1.19,0-2.38,0-3.57,0-.5,0-.7-.2-.7-.67q0-3.1,0-6.2c0-.46.2-.63.66-.63q3.56,0,7.09,0c.49,0,.7.17.7.66,0,2.07,0,4.13,0,6.2,0,.46-.21.65-.66.64C76.38,43.48,75.21,43.49,74,43.49Z" transform="translate(0)"/><path class="cls-107" d="M51.92,33.66c-1.16,0-2.33,0-3.5,0-.5,0-.69-.18-.69-.67,0-2.06,0-4.13,0-6.19,0-.46.2-.64.66-.64h7.14c.43,0,.6.18.6.61q0,3.13,0,6.25c0,.47-.17.64-.63.64C54.31,33.65,53.12,33.66,51.92,33.66Z" transform="translate(0)"/><path class="cls-107" d="M85,33.66c-1.14,0-2.29,0-3.44,0-.51,0-.72-.15-.72-.69q0-3.06,0-6.12c0-.54.22-.7.72-.7q3.48,0,7,0c.56,0,.73.23.73.77,0,2,0,4,0,6,0,.55-.17.77-.74.75C87.31,33.64,86.14,33.66,85,33.66Z" transform="translate(0)"/><path class="cls-107" d="M52,36c1.17,0,2.35,0,3.52,0,.45,0,.64.15.64.63,0,2.09,0,4.17,0,6.26,0,.44-.18.61-.61.61-2.39,0-4.77,0-7.16,0-.42,0-.62-.17-.62-.61,0-2.08,0-4.17,0-6.26,0-.47.2-.64.65-.63C49.59,36,50.78,36,52,36Z" transform="translate(0)"/><path class="cls-107" d="M85,43.49c-1.15,0-2.3,0-3.44,0-.53,0-.71-.19-.71-.71,0-2,0-4.08,0-6.12,0-.5.17-.67.66-.67,2.36,0,4.72,0,7.08,0,.47,0,.66.17.65.64,0,2.06,0,4.12,0,6.18,0,.5-.2.69-.69.68C87.34,43.48,86.15,43.49,85,43.49Z" transform="translate(0)"/></g><g class="cls-2"><g class="cls-108"><polygon class="cls-57" points="73.26 52.24 70.88 57.53 70.88 52.24 73.26 52.24"/><polygon class="cls-58" points="76.02 52.24 70.88 63.67 70.88 57.53 73.26 52.24 76.02 52.24"/><polygon class="cls-59" points="78.78 52.24 71.55 68.32 70.88 68.02 70.88 63.67 76.02 52.24 78.78 52.24"/><polygon class="cls-60" points="81.54 52.24 73.84 69.36 71.55 68.32 78.78 52.24 81.54 52.24"/><polygon class="cls-61" points="84.3 52.24 76.14 70.39 73.84 69.36 81.54 52.24 84.3 52.24"/><polygon class="cls-62" points="87.06 52.24 78.43 71.42 76.14 70.39 84.3 52.24 87.06 52.24"/><polygon class="cls-63" points="89.82 52.24 80.84 72.21 80.18 72.21 78.43 71.42 87.06 52.24 89.82 52.24"/><polygon class="cls-64" points="92.58 52.24 83.6 72.21 80.84 72.21 89.82 52.24 92.58 52.24"/><polygon class="cls-65" points="95.34 52.24 86.36 72.21 83.6 72.21 92.58 52.24 95.34 52.24"/><polygon class="cls-66" points="97.16 52.24 97.94 52.59 89.12 72.21 86.36 72.21 95.34 52.24 97.16 52.24"/><polygon class="cls-67" points="97.94 52.59 100.24 53.62 91.88 72.21 89.12 72.21 97.94 52.59"/><polygon class="cls-68" points="100.24 53.62 102.53 54.66 94.64 72.21 91.88 72.21 100.24 53.62"/><polygon class="cls-69" points="102.53 54.66 104.83 55.69 97.4 72.21 94.64 72.21 102.53 54.66"/><polygon class="cls-70" points="104.83 55.69 107.12 56.72 100.16 72.21 97.4 72.21 104.83 55.69"/><polygon class="cls-71" points="107.12 56.72 109.42 57.75 102.92 72.21 100.16 72.21 107.12 56.72"/><polygon class="cls-72" points="109.42 57.75 111.72 58.78 105.68 72.21 102.92 72.21 109.42 57.75"/><polygon class="cls-73" points="111.72 58.78 114.01 59.82 108.44 72.21 105.68 72.21 111.72 58.78"/><polygon class="cls-74" points="114.01 59.82 115.32 60.41 115.32 63.05 111.2 72.21 108.44 72.21 114.01 59.82"/><polygon class="cls-75" points="115.32 69.19 113.96 72.21 111.2 72.21 115.32 63.05 115.32 69.19"/><polygon class="cls-76" points="113.96 72.21 115.32 69.19 115.32 72.21 113.96 72.21"/></g></g></g></g></svg>