<svg xmlns="http://www.w3.org/2000/svg" xmlns:xlink="http://www.w3.org/1999/xlink" viewBox="0 0 112.06 72.18"><defs><style>.cls-1{fill:none;}.cls-2{opacity:0.8;}.cls-3{clip-path:url(#clip-path);}.cls-4{fill:#379748;}.cls-5{fill:#369748;}.cls-6{fill:#359648;}.cls-7{fill:#349648;}.cls-8{fill:#339548;}.cls-9{fill:#329548;}.cls-10{fill:#319448;}.cls-11{fill:#309448;}.cls-12{fill:#2f9348;}.cls-13{fill:#2d9348;}.cls-14{fill:#2c9248;}.cls-15{fill:#2b9248;}.cls-16{fill:#2b9148;}.cls-17{fill:#2a9148;}.cls-18{fill:#299148;}.cls-19{fill:#289048;}.cls-20{fill:#279048;}.cls-21{fill:#268f48;}.cls-22{clip-path:url(#clip-path-2);}.cls-23{fill:#83b948;}.cls-24{fill:#81b848;}.cls-25{fill:#7fb748;}.cls-26{fill:#7db648;}.cls-27{fill:#7bb548;}.cls-28{fill:#79b448;}.cls-29{fill:#77b448;}.cls-30{fill:#75b348;}.cls-31{fill:#73b248;}.cls-32{fill:#71b148;}.cls-33{fill:#6fb048;}.cls-34{fill:#6daf48;}.cls-35{fill:#6bae48;}.cls-36{fill:#69ae48;}.cls-37{fill:#68ad48;}.cls-38{fill:#66ac48;}.cls-39{fill:#64ab48;}.cls-40{fill:#62aa48;}.cls-41{fill:#60aa48;}.cls-42{fill:#5fa948;}.cls-43{fill:#5da848;}.cls-44{fill:#5ba748;}.cls-45{fill:#5aa748;}.cls-46{fill:#58a648;}.cls-47{fill:#56a548;}.cls-48{fill:#55a448;}.cls-49{fill:#53a448;}.cls-50{fill:#52a348;}.cls-51{fill:#50a248;}.cls-52{fill:#4fa248;}.cls-53{fill:#4da148;}.cls-54{fill:#4ca048;}.cls-55{fill:#4aa048;}.cls-56{fill:#499f48;}.cls-57{fill:#479e48;}.cls-58{fill:#469e48;}.cls-59{fill:#449d48;}.cls-60{fill:#439c48;}.cls-61{fill:#429c48;}.cls-62{fill:#409b48;}.cls-63{fill:#3f9b48;}.cls-64{fill:#3e9a48;}.cls-65{fill:#3c9948;}.cls-66{fill:#3b9948;}.cls-67{fill:#3a9848;}.cls-68{fill:#399848;}.cls-69{fill:#258f48;}.cls-70{fill:#248f48;}.cls-71{fill:#238e48;}.cls-72{fill:#228e48;}.cls-73{fill:#218d48;}.cls-74{fill:#208d48;}.cls-75{fill:#1f8c48;}.cls-76{fill:#1e8c48;}.cls-77{fill:#1d8c48;}.cls-78{fill:#1d8b48;}.cls-79{fill:#1c8b48;}.cls-80{fill:#1b8a48;}.cls-81{fill:#1a8a48;}.cls-82{fill:#198a48;}.cls-83{fill:#198948;}.cls-84{fill:#188948;}.cls-85{fill:#178948;}.cls-86{fill:#168848;}.cls-87{fill:#158848;}.cls-88{fill:#148848;}.cls-89{fill:#148748;}.cls-90{fill:#138748;}.cls-91{fill:#128748;}.cls-92{fill:#128648;}.cls-93{fill:#118648;}.cls-94,.cls-95{fill:#043263;}.cls-94{fill-rule:evenodd;}.cls-96{clip-path:url(#clip-path-3);}</style><clipPath id="clip-path" transform="translate(0 0)"><path class="cls-1" d="M44.39,62.51Q64.1,64.34,81.52,65.6c-2.63-4.34-4.94-8.59-7-12.75Q56.7,49.6,37.08,45.63A152.57,152.57,0,0,0,44.39,62.51Z"/></clipPath><clipPath id="clip-path-2" transform="translate(0 0)"><path class="cls-1" d="M7.44,0C4.46,14.26.93,28.44,0,43c14.38,2.56,27.92,4.65,40.5,6.34a78.25,78.25,0,0,1,4.3-27.08A372.07,372.07,0,0,1,7.44,0Z"/></clipPath><clipPath id="clip-path-3" transform="translate(0 0)"><path class="cls-1" d="M13.91,68a79.74,79.74,0,0,1,6.16-29.77c7.64,3.62,15.26,7,22.79,10.15a75.72,75.72,0,0,0,4.37,22.78C36.92,70.31,25.82,69.29,13.91,68Z"/></clipPath></defs><g id="Capa_2" data-name="Capa 2"><g id="Capa_1-2" data-name="Capa 1"><g class="cls-2"><g class="cls-3"><polygon class="cls-4" points="38.35 45.63 37.08 48.44 37.08 45.63 38.35 45.63"/><polygon class="cls-5" points="41.5 45.63 37.08 55.44 37.08 48.44 38.35 45.63 41.5 45.63"/><polygon class="cls-6" points="44.64 45.63 37.47 61.59 37.08 61.41 37.08 55.44 41.5 45.63 44.64 45.63"/><polygon class="cls-7" points="47.79 45.63 40.09 62.77 37.47 61.59 44.64 45.63 47.79 45.63"/><polygon class="cls-8" points="50.94 45.63 42.7 63.94 40.09 62.77 47.79 45.63 50.94 45.63"/><polygon class="cls-9" points="54.09 45.63 45.32 65.12 42.7 63.94 50.94 45.63 54.09 45.63"/><polygon class="cls-10" points="57.23 45.63 48.26 65.6 46.38 65.6 45.32 65.12 54.09 45.63 57.23 45.63"/><polygon class="cls-11" points="60.38 45.63 51.4 65.6 48.26 65.6 57.23 45.63 60.38 45.63"/><polygon class="cls-12" points="63.36 45.63 63.5 45.69 54.55 65.6 51.4 65.6 60.38 45.63 63.36 45.63"/><polygon class="cls-13" points="63.5 45.69 66.12 46.87 57.7 65.6 54.55 65.6 63.5 45.69"/><polygon class="cls-14" points="66.12 46.87 68.74 48.05 60.84 65.6 57.7 65.6 66.12 46.87"/><polygon class="cls-15" points="68.74 48.05 71.35 49.22 63.99 65.6 60.84 65.6 68.74 48.05"/><polygon class="cls-16" points="71.35 49.22 73.97 50.4 67.14 65.6 63.99 65.6 71.35 49.22"/><polygon class="cls-17" points="73.97 50.4 76.59 51.58 70.29 65.6 67.14 65.6 73.97 50.4"/><polygon class="cls-18" points="76.59 51.58 79.21 52.76 73.44 65.6 70.29 65.6 76.59 51.58"/><polygon class="cls-19" points="79.21 52.76 81.52 53.8 81.52 54.61 76.58 65.6 73.44 65.6 79.21 52.76"/><polygon class="cls-20" points="81.52 61.61 79.73 65.6 76.58 65.6 81.52 54.61 81.52 61.61"/><polygon class="cls-21" points="79.73 65.6 81.52 61.61 81.52 65.6 79.73 65.6"/></g></g><g class="cls-2"><g class="cls-22"><polygon class="cls-23" points="11.69 0 5.97 47.13 0 46.4 0 0 11.69 0"/><polygon class="cls-23" points="12.01 0 6.28 47.16 5.97 47.13 11.69 0 12.01 0"/><polygon class="cls-24" points="12.32 0 6.59 47.2 6.28 47.16 12.01 0 12.32 0"/><polygon class="cls-25" points="12.63 0 6.9 47.24 6.59 47.2 12.32 0 12.63 0"/><polygon class="cls-26" points="12.95 0 7.21 47.28 6.9 47.24 12.63 0 12.95 0"/><polygon class="cls-27" points="13.26 0 7.52 47.31 7.21 47.28 12.95 0 13.26 0"/><polygon class="cls-28" points="13.58 0 7.83 47.35 7.52 47.31 13.26 0 13.58 0"/><polygon class="cls-29" points="13.89 0 8.14 47.39 7.83 47.35 13.58 0 13.89 0"/><polygon class="cls-30" points="14.2 0 8.45 47.43 8.14 47.39 13.89 0 14.2 0"/><polygon class="cls-31" points="14.52 0 8.76 47.46 8.45 47.43 14.2 0 14.52 0"/><polygon class="cls-32" points="14.83 0 9.07 47.5 8.76 47.46 14.52 0 14.83 0"/><polygon class="cls-33" points="15.15 0 9.38 47.54 9.07 47.5 14.83 0 15.15 0"/><polygon class="cls-34" points="15.46 0 9.69 47.58 9.38 47.54 15.15 0 15.46 0"/><polygon class="cls-35" points="15.77 0 10 47.62 9.69 47.58 15.46 0 15.77 0"/><polygon class="cls-36" points="16.09 0 10.3 47.65 10 47.62 15.77 0 16.09 0"/><polygon class="cls-37" points="16.4 0 10.62 47.69 10.3 47.65 16.09 0 16.4 0"/><polygon class="cls-38" points="16.72 0 10.92 47.73 10.62 47.69 16.4 0 16.72 0"/><polygon class="cls-39" points="17.03 0 11.23 47.77 10.92 47.73 16.72 0 17.03 0"/><polygon class="cls-40" points="17.34 0 11.54 47.8 11.23 47.77 17.03 0 17.34 0"/><polygon class="cls-41" points="17.66 0 11.85 47.84 11.54 47.8 17.34 0 17.66 0"/><polygon class="cls-42" points="17.97 0 12.16 47.88 11.85 47.84 17.66 0 17.97 0"/><polygon class="cls-43" points="18.29 0 12.47 47.91 12.16 47.88 17.97 0 18.29 0"/><polygon class="cls-44" points="18.6 0 12.78 47.95 12.47 47.91 18.29 0 18.6 0"/><polygon class="cls-45" points="18.92 0 13.09 47.99 12.78 47.95 18.6 0 18.92 0"/><polygon class="cls-46" points="19.23 0 13.4 48.03 13.09 47.99 18.92 0 19.23 0"/><polygon class="cls-47" points="19.54 0 13.71 48.06 13.4 48.03 19.23 0 19.54 0"/><polygon class="cls-48" points="19.86 0 14.02 48.1 13.71 48.06 19.54 0 19.86 0"/><polygon class="cls-49" points="20.17 0 14.33 48.14 14.02 48.1 19.86 0 20.17 0"/><polygon class="cls-50" points="20.49 0 14.64 48.18 14.33 48.14 20.17 0 20.49 0"/><polygon class="cls-51" points="20.8 0 14.95 48.22 14.64 48.18 20.49 0 20.8 0"/><polygon class="cls-52" points="21.11 0 15.26 48.25 14.95 48.22 20.8 0 21.11 0"/><polygon class="cls-53" points="21.43 0 15.57 48.29 15.26 48.25 21.11 0 21.43 0"/><polygon class="cls-54" points="21.74 0 15.88 48.33 15.57 48.29 21.43 0 21.74 0"/><polygon class="cls-55" points="22.06 0 16.19 48.37 15.88 48.33 21.74 0 22.06 0"/><polygon class="cls-56" points="22.37 0 16.5 48.4 16.19 48.37 22.06 0 22.37 0"/><polygon class="cls-57" points="22.68 0 16.81 48.44 16.5 48.4 22.37 0 22.68 0"/><polygon class="cls-58" points="23 0 17.11 48.48 16.81 48.44 22.68 0 23 0"/><polygon class="cls-59" points="23.31 0 17.43 48.52 17.11 48.48 23 0 23.31 0"/><polygon class="cls-60" points="23.63 0 17.73 48.55 17.43 48.52 23.31 0 23.63 0"/><polygon class="cls-61" points="23.94 0 18.04 48.59 17.73 48.55 23.63 0 23.94 0"/><polygon class="cls-62" points="24.04 0 24.25 0.03 18.35 48.63 18.04 48.59 23.94 0 24.04 0"/><rect class="cls-63" x="-3.02" y="24.19" width="48.96" height="0.31" transform="translate(-5.3 42.71) rotate(-83.08)"/><rect class="cls-64" x="-2.71" y="24.23" width="48.96" height="0.31" transform="translate(-5.06 43.05) rotate(-83.08)"/><rect class="cls-65" x="-2.4" y="24.27" width="48.96" height="0.31" transform="translate(-4.83 43.4) rotate(-83.08)"/><rect class="cls-66" x="-2.09" y="24.3" width="48.96" height="0.31" transform="translate(-4.59 43.74) rotate(-83.08)"/><rect class="cls-67" x="-1.78" y="24.34" width="48.96" height="0.31" transform="translate(-4.36 44.08) rotate(-83.08)"/><rect class="cls-68" x="-1.47" y="24.38" width="48.96" height="0.31" transform="translate(-4.12 44.42) rotate(-83.08)"/><rect class="cls-4" x="-1.16" y="24.42" width="48.96" height="0.31" transform="translate(-3.89 44.76) rotate(-83.08)"/><rect class="cls-5" x="-0.85" y="24.45" width="48.96" height="0.31" transform="translate(-3.65 45.1) rotate(-83.08)"/><rect class="cls-6" x="-0.55" y="24.49" width="48.96" height="0.31" transform="translate(-3.42 45.44) rotate(-83.08)"/><rect class="cls-7" x="-0.24" y="24.53" width="48.96" height="0.31" transform="translate(-3.18 45.78) rotate(-83.08)"/><rect class="cls-8" x="0.07" y="24.57" width="48.96" height="0.31" transform="translate(-2.95 46.12) rotate(-83.08)"/><rect class="cls-9" x="0.38" y="24.6" width="48.96" height="0.31" transform="translate(-2.71 46.46) rotate(-83.08)"/><rect class="cls-10" x="0.69" y="24.64" width="48.96" height="0.31" transform="translate(-2.48 46.8) rotate(-83.08)"/><rect class="cls-11" x="1" y="24.68" width="48.96" height="0.31" transform="translate(-2.24 47.14) rotate(-83.08)"/><rect class="cls-12" x="1.31" y="24.72" width="48.96" height="0.31" transform="translate(-2.01 47.48) rotate(-83.08)"/><rect class="cls-13" x="1.62" y="24.75" width="48.96" height="0.31" transform="translate(-1.77 47.82) rotate(-83.08)"/><rect class="cls-14" x="1.93" y="24.79" width="48.96" height="0.31" transform="translate(-1.54 48.16) rotate(-83.08)"/><polygon class="cls-15" points="29.52 0.67 29.82 0.7 23.93 49.3 23.9 49.3 23.62 49.27 29.52 0.67"/><polygon class="cls-16" points="29.82 0.7 30.13 0.74 24.24 49.3 23.93 49.3 29.82 0.7"/><polygon class="cls-17" points="30.13 0.74 30.44 0.78 24.55 49.3 24.24 49.3 30.13 0.74"/><polygon class="cls-18" points="30.44 0.78 30.75 0.81 24.87 49.3 24.55 49.3 30.44 0.78"/><polygon class="cls-19" points="30.75 0.81 31.06 0.85 25.18 49.3 24.87 49.3 30.75 0.81"/><polygon class="cls-20" points="31.06 0.85 31.37 0.89 25.5 49.3 25.18 49.3 31.06 0.85"/><polygon class="cls-21" points="31.37 0.89 31.68 0.93 25.81 49.3 25.5 49.3 31.37 0.89"/><polygon class="cls-69" points="31.68 0.93 31.99 0.96 26.13 49.3 25.81 49.3 31.68 0.93"/><polygon class="cls-70" points="31.99 0.96 32.3 1 26.44 49.3 26.13 49.3 31.99 0.96"/><polygon class="cls-71" points="32.3 1 32.61 1.04 26.75 49.3 26.44 49.3 32.3 1"/><polygon class="cls-71" points="32.61 1.04 32.92 1.08 27.07 49.3 26.75 49.3 32.61 1.04"/><polygon class="cls-72" points="32.92 1.08 33.23 1.12 27.38 49.3 27.07 49.3 32.92 1.08"/><polygon class="cls-73" points="33.23 1.12 33.54 1.15 27.7 49.3 27.38 49.3 33.23 1.12"/><polygon class="cls-74" points="33.54 1.15 33.85 1.19 28.01 49.3 27.7 49.3 33.54 1.15"/><polygon class="cls-74" points="33.85 1.19 34.16 1.23 28.32 49.3 28.01 49.3 33.85 1.19"/><polygon class="cls-75" points="34.16 1.23 34.47 1.27 28.64 49.3 28.32 49.3 34.16 1.23"/><polygon class="cls-76" points="34.47 1.27 34.78 1.3 28.95 49.3 28.64 49.3 34.47 1.27"/><polygon class="cls-77" points="34.78 1.3 35.09 1.34 29.27 49.3 28.95 49.3 34.78 1.3"/><polygon class="cls-78" points="35.09 1.34 35.4 1.38 29.58 49.3 29.27 49.3 35.09 1.34"/><polygon class="cls-79" points="35.4 1.38 35.71 1.42 29.89 49.3 29.58 49.3 35.4 1.38"/><polygon class="cls-79" points="35.71 1.42 36.02 1.45 30.21 49.3 29.89 49.3 35.71 1.42"/><polygon class="cls-80" points="36.02 1.45 36.33 1.49 30.52 49.3 30.21 49.3 36.02 1.45"/><polygon class="cls-81" points="36.33 1.49 36.63 1.53 30.84 49.3 30.52 49.3 36.33 1.49"/><polygon class="cls-81" points="36.63 1.53 36.94 1.57 31.15 49.3 30.84 49.3 36.63 1.53"/><polygon class="cls-82" points="36.94 1.57 37.25 1.6 31.46 49.3 31.15 49.3 36.94 1.57"/><polygon class="cls-83" points="37.25 1.6 37.56 1.64 31.78 49.3 31.46 49.3 37.25 1.6"/><polygon class="cls-84" points="37.56 1.64 37.87 1.68 32.09 49.3 31.78 49.3 37.56 1.64"/><polygon class="cls-84" points="37.87 1.68 38.18 1.72 32.41 49.3 32.09 49.3 37.87 1.68"/><polygon class="cls-85" points="38.18 1.72 38.49 1.75 32.72 49.3 32.41 49.3 38.18 1.72"/><polygon class="cls-85" points="38.49 1.75 38.8 1.79 33.04 49.3 32.72 49.3 38.49 1.75"/><polygon class="cls-86" points="38.8 1.79 39.11 1.83 33.35 49.3 33.04 49.3 38.8 1.79"/><polygon class="cls-86" points="39.11 1.83 39.42 1.87 33.66 49.3 33.35 49.3 39.11 1.83"/><polygon class="cls-86" points="39.42 1.87 39.73 1.91 33.98 49.3 33.66 49.3 39.42 1.87"/><polygon class="cls-87" points="39.73 1.91 40.04 1.94 34.29 49.3 33.98 49.3 39.73 1.91"/><polygon class="cls-87" points="40.04 1.94 40.35 1.98 34.61 49.3 34.29 49.3 40.04 1.94"/><polygon class="cls-88" points="40.35 1.98 40.66 2.02 34.92 49.3 34.61 49.3 40.35 1.98"/><polygon class="cls-89" points="40.66 2.02 40.97 2.06 35.23 49.3 34.92 49.3 40.66 2.02"/><polygon class="cls-89" points="40.97 2.06 41.28 2.09 35.55 49.3 35.23 49.3 40.97 2.06"/><polygon class="cls-89" points="41.28 2.09 41.59 2.13 35.86 49.3 35.55 49.3 41.28 2.09"/><polygon class="cls-90" points="41.59 2.13 41.9 2.17 36.18 49.3 35.86 49.3 41.59 2.13"/><polygon class="cls-90" points="41.9 2.17 42.21 2.21 36.49 49.3 36.18 49.3 41.9 2.17"/><polygon class="cls-90" points="42.21 2.21 42.52 2.24 36.8 49.3 36.49 49.3 42.21 2.21"/><polygon class="cls-91" points="42.52 2.24 42.83 2.28 37.12 49.3 36.8 49.3 42.52 2.24"/><polygon class="cls-91" points="42.83 2.28 43.14 2.32 37.43 49.3 37.12 49.3 42.83 2.28"/><polygon class="cls-92" points="43.14 2.32 43.45 2.36 37.75 49.3 37.43 49.3 43.14 2.32"/><polygon class="cls-92" points="43.45 2.36 43.76 2.39 38.06 49.3 37.75 49.3 43.45 2.36"/><polygon class="cls-92" points="43.76 2.39 44.06 2.43 38.38 49.3 38.06 49.3 43.76 2.39"/><polygon class="cls-92" points="44.06 2.43 44.37 2.47 38.69 49.3 38.38 49.3 44.06 2.43"/><polygon class="cls-93" points="44.37 2.47 44.68 2.51 39 49.3 38.69 49.3 44.37 2.47"/><polygon class="cls-93" points="44.68 2.51 44.8 2.52 44.8 4.1 39.32 49.3 39 49.3 44.68 2.51"/><polygon class="cls-93" points="44.8 6.69 39.63 49.3 39.32 49.3 44.8 4.1 44.8 6.69"/><polygon class="cls-93" points="44.8 9.28 39.95 49.3 39.63 49.3 44.8 6.69 44.8 9.28"/><polygon class="cls-93" points="44.8 11.87 40.26 49.3 39.95 49.3 44.8 9.28 44.8 11.87"/><polygon class="cls-93" points="44.8 14.46 40.58 49.3 40.26 49.3 44.8 11.87 44.8 14.46"/><polygon class="cls-93" points="44.8 17.04 40.89 49.3 40.58 49.3 44.8 14.46 44.8 17.04"/><polygon class="cls-93" points="44.8 19.63 41.2 49.3 40.89 49.3 44.8 17.04 44.8 19.63"/><polygon class="cls-93" points="44.8 22.22 41.52 49.3 41.2 49.3 44.8 19.63 44.8 22.22"/><polygon class="cls-93" points="41.52 49.3 44.8 22.22 44.8 49.3 41.52 49.3"/></g></g><path class="cls-94" d="M97.47,61.26c-.56,0-1.16,0-1.81,0-.91,0-1.71,0-2.52,0L94,65.78c0,.2.2.3.4.3h4a.4.4,0,0,0,.41-.3l.9-4.52H97.47Zm-.4-28.87c-1.56,0-1.41,4.68-4.68,5.84a12.69,12.69,0,0,1-4.48.8A7.75,7.75,0,0,1,83,37.67c-1.06-1,8.59-4.27,6.53-7.09L86.4,26.36a1,1,0,0,0-.85-.45,1,1,0,0,0-.65.2L74.29,33.9s-4.07,0-4.78,2.37h-.3c-.85,0-3.27.2-3.92,2.16,0,0-10.06,2-16,5.23s-15.14,3-15.14,8.09,8.1,8.55,14.53,8.55,38.67-1,43.2-1.25c1,0,1.86,0,2.71,0h3.27c3.42,0,5.18-.41,5.23-4.33.1-5.78.8-14.73-3.62-20.32-1.11-1.4-1.86-2-2.36-2ZM42.41,61.61l.9,4.88c0,.15.2.3.36.3h4c.15,0,.35-.15.35-.3l.85-4a24.77,24.77,0,0,1-6.38-1.15.37.37,0,0,0-.1.3Zm10,4.88a.45.45,0,0,0,.41.3h4a.44.44,0,0,0,.4-.3L58,62.36c-2.52,0-4.68.1-6.29.15Zm30.93-.66a.38.38,0,0,0,.35.35h4c.15,0,.3-.15.36-.35l.9-4.37c-1.76,0-4,.15-6.39.2Z" transform="translate(0 0)"/><path class="cls-95" d="M37.73,72.18a.8.8,0,0,1-.8-.8c0-5.12-6.23-6.33-6.5-6.38a.8.8,0,1,1,.29-1.57c2.7.49,7.81,2.78,7.81,7.95A.8.8,0,0,1,37.73,72.18Z" transform="translate(0 0)"/><path class="cls-95" d="M46.52,72.18a.8.8,0,0,1-.8-.8c0-1.53-.61-1.89-.81-2-1.49-.89-4.89.57-6,1.15a.8.8,0,0,1-.76-1.41c.51-.27,5-2.62,7.55-1.11a3.6,3.6,0,0,1,1.59,3.38A.8.8,0,0,1,46.52,72.18Z" transform="translate(0 0)"/><path class="cls-95" d="M52.91,72.18a.8.8,0,0,1-.8-.8c0-1.75-.37-2-.38-2-.27-.09-1.35.71-2.15,1.75a.8.8,0,1,1-1.26-1c.52-.67,2.35-2.82,3.93-2.27s1.46,2.78,1.46,3.53A.8.8,0,0,1,52.91,72.18Z" transform="translate(0 0)"/><path class="cls-95" d="M59.3,72.18a.8.8,0,0,1-.8-.8c0-1.75-.37-2-.37-2-.28-.09-1.36.71-2.16,1.75a.8.8,0,1,1-1.26-1c.52-.67,2.35-2.82,3.93-2.27s1.46,2.78,1.46,3.53A.8.8,0,0,1,59.3,72.18Z" transform="translate(0 0)"/><path class="cls-95" d="M64.9,72.18a.8.8,0,0,1-.8-.8c0-5.2-1.95-6.46-2-6.47a.81.81,0,0,1-.28-1.09.79.79,0,0,1,1.06-.3c.29.15,2.78,1.7,2.78,7.86A.79.79,0,0,1,64.9,72.18Z" transform="translate(0 0)"/><path class="cls-95" d="M70.49,72.18a.8.8,0,0,1-.8-.8c0-5.81,0-7.13,0-7.18a.8.8,0,0,1,1.6,0s0,1.36,0,7.14A.8.8,0,0,1,70.49,72.18Z" transform="translate(0 0)"/><path class="cls-95" d="M75.28,72.18a.8.8,0,0,1-.8-.8c0-6.33,3.58-7.84,3.73-7.9a.79.79,0,0,1,1,.44.8.8,0,0,1-.44,1c-.12.05-2.73,1.25-2.73,6.42A.8.8,0,0,1,75.28,72.18Z" transform="translate(0 0)"/><path class="cls-95" d="M88.86,72.18a.8.8,0,0,1-.8-.8c0-2.21.52-3.5,1.58-3.93,1.53-.63,3.22,1,3.55,1.3a.8.8,0,0,1-1.14,1.13c-.5-.5-1.43-1.11-1.8-1-.06,0-.59.31-.59,2.46A.8.8,0,0,1,88.86,72.18Z" transform="translate(0 0)"/><path class="cls-95" d="M81.67,72.18a.8.8,0,0,1-.8-.8c0-2.21.52-3.5,1.58-3.93,1.52-.63,3.22,1,3.55,1.3a.8.8,0,0,1-1.14,1.13c-.5-.5-1.43-1.11-1.8-1-.06,0-.59.31-.59,2.46A.8.8,0,0,1,81.67,72.18Z" transform="translate(0 0)"/><path class="cls-95" d="M95.25,72.18a.8.8,0,0,1-.8-.8c0-1.84.56-3.08,1.66-3.69,2.14-1.19,5.36.72,5.72,1A.8.8,0,0,1,101,70c-.71-.44-3-1.54-4.11-.91-.55.31-.83,1.08-.83,2.29A.8.8,0,0,1,95.25,72.18Z" transform="translate(0 0)"/><path class="cls-95" d="M103.24,72.18a.8.8,0,0,1-.8-.8c0-6.47,8.34-7.89,8.7-7.95a.8.8,0,0,1,.25,1.58c-.07,0-7.35,1.26-7.35,6.37A.8.8,0,0,1,103.24,72.18Z" transform="translate(0 0)"/><g class="cls-2"><g class="cls-96"><polygon class="cls-23" points="25.16 38.19 29.46 40.13 15.62 70.92 13.91 70.15 13.91 38.19 25.16 38.19"/><rect class="cls-23" x="5.86" y="55.39" width="33.76" height="0.44" transform="translate(-37.31 53.55) rotate(-65.79)"/><polygon class="cls-24" points="29.86 40.31 30.27 40.49 16.49 71.12 16.07 71.12 16.02 71.1 29.86 40.31"/><polygon class="cls-25" points="30.27 40.49 30.67 40.67 16.97 71.12 16.49 71.12 30.27 40.49"/><polygon class="cls-26" points="30.67 40.67 31.07 40.85 17.46 71.12 16.97 71.12 30.67 40.67"/><polygon class="cls-27" points="31.07 40.85 31.47 41.03 17.94 71.12 17.46 71.12 31.07 40.85"/><polygon class="cls-28" points="31.47 41.03 31.87 41.21 18.42 71.12 17.94 71.12 31.47 41.03"/><polygon class="cls-29" points="31.87 41.21 32.27 41.39 18.9 71.12 18.42 71.12 31.87 41.21"/><polygon class="cls-30" points="32.27 41.39 32.67 41.57 19.38 71.12 18.9 71.12 32.27 41.39"/><polygon class="cls-31" points="32.67 41.57 33.07 41.75 19.87 71.12 19.38 71.12 32.67 41.57"/><polygon class="cls-32" points="33.07 41.75 33.47 41.93 20.35 71.12 19.87 71.12 33.07 41.75"/><polygon class="cls-33" points="33.47 41.93 33.87 42.11 20.83 71.12 20.35 71.12 33.47 41.93"/><polygon class="cls-34" points="33.87 42.11 34.27 42.29 21.31 71.12 20.83 71.12 33.87 42.11"/><polygon class="cls-35" points="34.27 42.29 34.67 42.47 21.79 71.12 21.31 71.12 34.27 42.29"/><polygon class="cls-36" points="34.67 42.47 35.08 42.65 22.28 71.12 21.79 71.12 34.67 42.47"/><polygon class="cls-37" points="35.08 42.65 35.48 42.83 22.76 71.12 22.28 71.12 35.08 42.65"/><polygon class="cls-38" points="35.48 42.83 35.88 43.01 23.24 71.12 22.76 71.12 35.48 42.83"/><polygon class="cls-39" points="35.88 43.01 36.28 43.19 23.72 71.12 23.24 71.12 35.88 43.01"/><polygon class="cls-40" points="36.28 43.19 36.68 43.37 24.2 71.12 23.72 71.12 36.28 43.19"/><polygon class="cls-41" points="36.68 43.37 37.08 43.55 24.69 71.12 24.2 71.12 36.68 43.37"/><polygon class="cls-42" points="37.08 43.55 37.48 43.73 25.17 71.12 24.69 71.12 37.08 43.55"/><polygon class="cls-43" points="37.48 43.73 37.88 43.91 25.65 71.12 25.17 71.12 37.48 43.73"/><polygon class="cls-44" points="37.88 43.91 38.28 44.09 26.13 71.12 25.65 71.12 37.88 43.91"/><polygon class="cls-45" points="38.28 44.09 38.68 44.27 26.61 71.12 26.13 71.12 38.28 44.09"/><polygon class="cls-46" points="38.68 44.27 39.09 44.45 27.09 71.12 26.61 71.12 38.68 44.27"/><polygon class="cls-47" points="39.09 44.45 39.49 44.63 27.58 71.12 27.09 71.12 39.09 44.45"/><polygon class="cls-48" points="39.49 44.63 39.89 44.81 28.06 71.12 27.58 71.12 39.49 44.63"/><polygon class="cls-49" points="39.89 44.81 40.29 44.99 28.54 71.12 28.06 71.12 39.89 44.81"/><polygon class="cls-50" points="40.29 44.99 40.69 45.17 29.02 71.12 28.54 71.12 40.29 44.99"/><polygon class="cls-51" points="40.69 45.17 41.09 45.35 29.5 71.12 29.02 71.12 40.69 45.17"/><polygon class="cls-52" points="41.09 45.35 41.49 45.53 29.99 71.12 29.5 71.12 41.09 45.35"/><polygon class="cls-53" points="41.49 45.53 41.89 45.72 30.47 71.12 29.99 71.12 41.49 45.53"/><polygon class="cls-54" points="41.89 45.72 42.29 45.9 30.95 71.12 30.47 71.12 41.89 45.72"/><polygon class="cls-55" points="42.29 45.9 42.69 46.08 31.43 71.12 30.95 71.12 42.29 45.9"/><polygon class="cls-56" points="42.69 46.08 43.09 46.26 31.91 71.12 31.43 71.12 42.69 46.08"/><polygon class="cls-57" points="43.09 46.26 43.5 46.44 32.4 71.12 31.91 71.12 43.09 46.26"/><polygon class="cls-58" points="43.5 46.44 43.9 46.62 32.88 71.12 32.4 71.12 43.5 46.44"/><polygon class="cls-59" points="43.9 46.62 44.3 46.8 33.36 71.12 32.88 71.12 43.9 46.62"/><polygon class="cls-60" points="44.3 46.8 44.7 46.98 33.84 71.12 33.36 71.12 44.3 46.8"/><polygon class="cls-61" points="44.7 46.98 45.1 47.16 34.33 71.12 33.84 71.12 44.7 46.98"/><polygon class="cls-62" points="45.1 47.16 45.5 47.34 34.81 71.12 34.33 71.12 45.1 47.16"/><polygon class="cls-63" points="45.5 47.34 45.9 47.52 35.29 71.12 34.81 71.12 45.5 47.34"/><polygon class="cls-64" points="45.9 47.52 46.3 47.7 35.77 71.12 35.29 71.12 45.9 47.52"/><polygon class="cls-65" points="46.3 47.7 46.7 47.88 36.25 71.12 35.77 71.12 46.3 47.7"/><polygon class="cls-66" points="46.7 47.88 47.1 48.06 36.73 71.12 36.25 71.12 46.7 47.88"/><polygon class="cls-67" points="47.1 48.06 47.23 48.12 47.23 48.84 37.22 71.12 36.73 71.12 47.1 48.06"/><polygon class="cls-68" points="47.23 49.91 37.7 71.12 37.22 71.12 47.23 48.84 47.23 49.91"/><polygon class="cls-4" points="47.23 50.98 38.18 71.12 37.7 71.12 47.23 49.91 47.23 50.98"/><polygon class="cls-5" points="47.23 52.06 38.66 71.12 38.18 71.12 47.23 50.98 47.23 52.06"/><polygon class="cls-6" points="47.23 53.13 39.15 71.12 38.66 71.12 47.23 52.06 47.23 53.13"/><polygon class="cls-7" points="47.23 54.2 39.63 71.12 39.15 71.12 47.23 53.13 47.23 54.2"/><polygon class="cls-8" points="47.23 55.27 40.11 71.12 39.63 71.12 47.23 54.2 47.23 55.27"/><polygon class="cls-9" points="47.23 56.34 40.59 71.12 40.11 71.12 47.23 55.27 47.23 56.34"/><polygon class="cls-10" points="47.23 57.42 41.07 71.12 40.59 71.12 47.23 56.34 47.23 57.42"/><polygon class="cls-11" points="47.23 58.49 41.55 71.12 41.07 71.12 47.23 57.42 47.23 58.49"/><polygon class="cls-12" points="47.23 59.56 42.04 71.12 41.55 71.12 47.23 58.49 47.23 59.56"/><polygon class="cls-13" points="47.23 60.63 42.52 71.12 42.04 71.12 47.23 59.56 47.23 60.63"/><polygon class="cls-14" points="47.23 61.7 43 71.12 42.52 71.12 47.23 60.63 47.23 61.7"/><polygon class="cls-15" points="47.23 62.78 43.48 71.12 43 71.12 47.23 61.7 47.23 62.78"/><polygon class="cls-16" points="47.23 63.85 43.97 71.12 43.48 71.12 47.23 62.78 47.23 63.85"/><polygon class="cls-17" points="47.23 64.92 44.45 71.12 43.97 71.12 47.23 63.85 47.23 64.92"/><polygon class="cls-18" points="47.23 65.99 44.93 71.12 44.45 71.12 47.23 64.92 47.23 65.99"/><polygon class="cls-19" points="47.23 67.06 45.41 71.12 44.93 71.12 47.23 65.99 47.23 67.06"/><polygon class="cls-20" points="47.23 68.14 45.89 71.12 45.41 71.12 47.23 67.06 47.23 68.14"/><polygon class="cls-21" points="47.23 69.21 46.38 71.12 45.89 71.12 47.23 68.14 47.23 69.21"/><polygon class="cls-69" points="47.23 70.28 46.86 71.12 46.38 71.12 47.23 69.21 47.23 70.28"/><polygon class="cls-70" points="46.86 71.12 47.23 70.28 47.23 71.12 46.86 71.12"/></g></g></g></g></svg>