<svg xmlns="http://www.w3.org/2000/svg" xmlns:xlink="http://www.w3.org/1999/xlink" viewBox="0 0 94.54 72.19"><defs><style>.cls-1{fill:none;}.cls-2{opacity:0.8;}.cls-3{clip-path:url(#clip-path);}.cls-4{fill:#2b9943;}.cls-5{fill:#2a9943;}.cls-6{fill:#299843;}.cls-7{fill:#289843;}.cls-8{fill:#279743;}.cls-9{fill:#269743;}.cls-10{fill:#249743;}.cls-11{fill:#239643;}.cls-12{fill:#229643;}.cls-13{fill:#219543;}.cls-14{fill:#209544;}.cls-15{fill:#1f9544;}.cls-16{fill:#1e9444;}.cls-17{fill:#1d9444;}.cls-18{fill:#1c9344;}.cls-19{fill:#1b9344;}.cls-20{fill:#1a9344;}.cls-21{fill:#1a9244;}.cls-22{fill:#199244;}.cls-23{fill:#189244;}.cls-24{fill:#003165;}.cls-25{clip-path:url(#clip-path-2);}.cls-26{fill:#82bc3f;}.cls-27{fill:#80bb3f;}.cls-28{fill:#7eba3f;}.cls-29{fill:#7cba3f;}.cls-30{fill:#7ab93f;}.cls-31{fill:#78b83f;}.cls-32{fill:#76b740;}.cls-33{fill:#74b640;}.cls-34{fill:#72b640;}.cls-35{fill:#70b540;}.cls-36{fill:#6eb440;}.cls-37{fill:#6cb340;}.cls-38{fill:#6ab240;}.cls-39{fill:#68b240;}.cls-40{fill:#66b140;}.cls-41{fill:#65b040;}.cls-42{fill:#63af40;}.cls-43{fill:#61af41;}.cls-44{fill:#5fae41;}.cls-45{fill:#5dad41;}.cls-46{fill:#5cad41;}.cls-47{fill:#5aac41;}.cls-48{fill:#58ab41;}.cls-49{fill:#56ab41;}.cls-50{fill:#55aa41;}.cls-51{fill:#53a941;}.cls-52{fill:#51a941;}.cls-53{fill:#50a841;}.cls-54{fill:#4ea741;}.cls-55{fill:#4da741;}.cls-56{fill:#4ba642;}.cls-57{fill:#49a542;}.cls-58{fill:#48a542;}.cls-59{fill:#46a442;}.cls-60{fill:#45a442;}.cls-61{fill:#43a342;}.cls-62{fill:#42a242;}.cls-63{fill:#40a242;}.cls-64{fill:#3fa142;}.cls-65{fill:#3da142;}.cls-66{fill:#3ca042;}.cls-67{fill:#3b9f42;}.cls-68{fill:#399f42;}.cls-69{fill:#389e42;}.cls-70{fill:#379e42;}.cls-71{fill:#359d43;}.cls-72{fill:#349d43;}.cls-73{fill:#339c43;}.cls-74{fill:#319c43;}.cls-75{fill:#309b43;}.cls-76{fill:#2f9b43;}.cls-77{fill:#2e9a43;}.cls-78{fill:#2c9a43;}.cls-79{fill:#179144;}.cls-80{fill:#169144;}.cls-81{fill:#159144;}.cls-82{fill:#149044;}.cls-83{fill:#139044;}.cls-84{fill:#128f44;}.cls-85{fill:#118f44;}.cls-86{fill:#108e44;}.cls-87{fill:#0f8e44;}.cls-88{fill:#0e8e44;}.cls-89{fill:#0d8d44;}.cls-90{fill:#0c8d44;}.cls-91{fill:#0b8d44;}.cls-92{fill:#0b8c45;}.cls-93{fill:#0a8c45;}.cls-94{fill:#098c45;}.cls-95{fill:#098b45;}.cls-96{fill:#088b45;}.cls-97{fill:#078b45;}.cls-98{fill:#068b45;}.cls-99{fill:#068a45;}.cls-100{fill:#058a45;}.cls-101{fill:#048a45;}.cls-102{fill:#048945;}.cls-103{fill:#038945;}.cls-104{fill:#028945;}.cls-105{fill:#018945;}.cls-106{fill:#018845;}.cls-107{fill:#008845;}.cls-108{clip-path:url(#clip-path-3);}</style><clipPath id="clip-path" transform="translate(0 0)"><path class="cls-1" d="M37.13,64.37Q17.42,66.2,0,67.46,3.95,61,7,54.71q17.85-3.26,37.47-7.22A150.7,150.7,0,0,1,37.13,64.37Z"/></clipPath><clipPath id="clip-path-2" transform="translate(0 0)"><path class="cls-1" d="M87.11,0c3,14.26,6.5,28.44,7.43,43-14.37,2.56-27.92,4.65-40.49,6.34a78.24,78.24,0,0,0-4.31-27.08A373.33,373.33,0,0,0,87.11,0Z"/></clipPath><clipPath id="clip-path-3" transform="translate(0 0)"><path class="cls-1" d="M77.76,69A79.54,79.54,0,0,0,71.6,39.26c-7.64,3.62-15.26,7-22.79,10.15a75.41,75.41,0,0,1-4.37,22.78C54.76,71.38,65.85,70.36,77.76,69Z"/></clipPath></defs><g id="Capa_2" data-name="Capa 2"><g id="Capa_1-2" data-name="Capa 1"><g class="cls-2"><g class="cls-3"><polygon class="cls-4" points="44.44 52.78 42.06 47.49 44.44 47.49 44.44 52.78"/><polygon class="cls-5" points="44.44 58.92 39.3 47.49 42.06 47.49 44.44 52.78 44.44 58.92"/><polygon class="cls-6" points="44.44 63.27 43.77 63.57 36.54 47.49 39.3 47.49 44.44 58.92 44.44 63.27"/><polygon class="cls-7" points="43.77 63.57 41.48 64.61 33.78 47.49 36.54 47.49 43.77 63.57"/><polygon class="cls-8" points="41.48 64.61 39.18 65.64 31.02 47.49 33.78 47.49 41.48 64.61"/><polygon class="cls-9" points="39.18 65.64 36.88 66.67 28.26 47.49 31.02 47.49 39.18 65.64"/><polygon class="cls-10" points="36.88 66.67 35.14 67.46 34.48 67.46 25.5 47.49 28.26 47.49 36.88 66.67"/><polygon class="cls-11" points="31.72 67.46 22.74 47.49 25.5 47.49 34.48 67.46 31.72 67.46"/><polygon class="cls-12" points="28.96 67.46 19.98 47.49 22.74 47.49 31.72 67.46 28.96 67.46"/><polygon class="cls-13" points="26.2 67.46 17.38 47.84 18.16 47.49 19.98 47.49 28.96 67.46 26.2 67.46"/><polygon class="cls-14" points="23.44 67.46 15.08 48.87 17.38 47.84 26.2 67.46 23.44 67.46"/><polygon class="cls-15" points="20.68 67.46 12.79 49.91 15.08 48.87 23.44 67.46 20.68 67.46"/><polygon class="cls-16" points="17.92 67.46 10.49 50.94 12.79 49.91 20.68 67.46 17.92 67.46"/><polygon class="cls-17" points="15.16 67.46 8.2 51.97 10.49 50.94 17.92 67.46 15.16 67.46"/><polygon class="cls-18" points="12.4 67.46 5.9 53 8.2 51.97 15.16 67.46 12.4 67.46"/><polygon class="cls-19" points="9.64 67.46 3.6 54.03 5.9 53 12.4 67.46 9.64 67.46"/><polygon class="cls-20" points="6.88 67.46 1.31 55.07 3.6 54.03 9.64 67.46 6.88 67.46"/><polygon class="cls-21" points="4.12 67.46 0 58.3 0 55.66 1.31 55.07 6.88 67.46 4.12 67.46"/><polygon class="cls-22" points="1.36 67.46 0 64.44 0 58.3 4.12 67.46 1.36 67.46"/><polygon class="cls-23" points="0 64.44 1.36 67.46 0 67.46 0 64.44"/></g></g><path class="cls-24" d="M32.52,29.56a2.55,2.55,0,0,0,.93,2.1,7.22,7.22,0,0,0,2.67,1.26V26.13a4.52,4.52,0,0,0-2.7,1.18A3.12,3.12,0,0,0,32.52,29.56Z" transform="translate(0 0)"/><path class="cls-24" d="M40.71,37.72a9,9,0,0,0-2.79-1.31v6.76a4.62,4.62,0,0,0,2.82-1.08,3,3,0,0,0,.94-2.25A2.49,2.49,0,0,0,40.71,37.72Z" transform="translate(0 0)"/><path class="cls-24" d="M36.86,13.91A20.91,20.91,0,1,0,57.77,34.82,20.91,20.91,0,0,0,36.86,13.91Zm5.91,30a7.45,7.45,0,0,1-4.85,2v3.55h-1.8V45.88a12.17,12.17,0,0,1-3.9-.87,8.31,8.31,0,0,1-2.94-1.87l1-2.45a8.08,8.08,0,0,0,2.56,1.71,9.77,9.77,0,0,0,3.24.81v-7.3a19.42,19.42,0,0,1-3.28-1.16,5.75,5.75,0,0,1-2.19-1.86,5.37,5.37,0,0,1-.89-3.21,5.93,5.93,0,0,1,1.62-4.21,7.09,7.09,0,0,1,4.74-2V19.87h1.8v3.55A10.88,10.88,0,0,1,41,24a8.64,8.64,0,0,1,2.6,1.35l-.92,2.52a9.19,9.19,0,0,0-4.78-1.76v7.32a23.77,23.77,0,0,1,3.37,1.18,5.89,5.89,0,0,1,2.24,1.83,5.28,5.28,0,0,1,.91,3.22A5.87,5.87,0,0,1,42.77,43.87Z" transform="translate(0 0)"/><g class="cls-2"><g class="cls-25"><polygon class="cls-26" points="94.54 46.4 88.57 47.13 82.85 0 94.54 0 94.54 46.4"/><polygon class="cls-26" points="88.57 47.13 88.3 47.16 82.58 0 82.85 0 88.57 47.13"/><polygon class="cls-27" points="88.3 47.16 88.03 47.19 82.3 0 82.58 0 88.3 47.16"/><polygon class="cls-28" points="88.03 47.19 87.76 47.23 82.03 0 82.3 0 88.03 47.19"/><polygon class="cls-29" points="87.76 47.23 87.49 47.26 81.75 0 82.03 0 87.76 47.23"/><polygon class="cls-30" points="87.49 47.26 87.21 47.29 81.47 0 81.75 0 87.49 47.26"/><polygon class="cls-31" points="87.21 47.29 86.94 47.32 81.2 0 81.47 0 87.21 47.29"/><polygon class="cls-32" points="86.94 47.32 86.67 47.36 80.92 0 81.2 0 86.94 47.32"/><polygon class="cls-33" points="86.67 47.36 86.4 47.39 80.65 0 80.92 0 86.67 47.36"/><polygon class="cls-34" points="86.4 47.39 86.13 47.42 80.37 0 80.65 0 86.4 47.39"/><polygon class="cls-35" points="86.13 47.42 85.86 47.46 80.1 0 80.37 0 86.13 47.42"/><polygon class="cls-36" points="85.86 47.46 85.58 47.49 79.82 0 80.1 0 85.86 47.46"/><polygon class="cls-37" points="85.58 47.49 85.31 47.52 79.55 0 79.82 0 85.58 47.49"/><polygon class="cls-38" points="85.31 47.52 85.04 47.55 79.27 0 79.55 0 85.31 47.52"/><polygon class="cls-39" points="85.04 47.55 84.77 47.59 79 0 79.27 0 85.04 47.55"/><polygon class="cls-40" points="84.77 47.59 84.5 47.62 78.72 0 79 0 84.77 47.59"/><polygon class="cls-41" points="84.5 47.62 84.23 47.65 78.44 0 78.72 0 84.5 47.62"/><polygon class="cls-42" points="84.23 47.65 83.96 47.69 78.17 0 78.44 0 84.23 47.65"/><polygon class="cls-43" points="83.96 47.69 83.69 47.72 77.89 0 78.17 0 83.96 47.69"/><polygon class="cls-44" points="83.69 47.72 83.41 47.75 77.62 0 77.89 0 83.69 47.72"/><polygon class="cls-45" points="83.41 47.75 83.14 47.78 77.34 0 77.62 0 83.41 47.75"/><polygon class="cls-46" points="83.14 47.78 82.87 47.82 77.07 0 77.34 0 83.14 47.78"/><polygon class="cls-47" points="82.87 47.82 82.6 47.85 76.79 0 77.07 0 82.87 47.82"/><polygon class="cls-48" points="82.6 47.85 82.33 47.88 76.52 0 76.79 0 82.6 47.85"/><polygon class="cls-49" points="82.33 47.88 82.06 47.92 76.24 0 76.52 0 82.33 47.88"/><polygon class="cls-50" points="82.06 47.92 81.78 47.95 75.97 0 76.24 0 82.06 47.92"/><polygon class="cls-51" points="81.78 47.95 81.51 47.98 75.69 0 75.97 0 81.78 47.95"/><polygon class="cls-52" points="81.51 47.98 81.24 48.02 75.42 0 75.69 0 81.51 47.98"/><polygon class="cls-53" points="81.24 48.02 80.97 48.05 75.14 0 75.42 0 81.24 48.02"/><polygon class="cls-54" points="80.97 48.05 80.7 48.08 74.86 0 75.14 0 80.97 48.05"/><polygon class="cls-55" points="80.7 48.08 80.43 48.12 74.59 0 74.86 0 80.7 48.08"/><polygon class="cls-56" points="80.43 48.12 80.16 48.15 74.31 0 74.59 0 80.43 48.12"/><polygon class="cls-57" points="80.16 48.15 79.89 48.18 74.04 0 74.31 0 80.16 48.15"/><polygon class="cls-58" points="79.89 48.18 79.61 48.21 73.76 0 74.04 0 79.89 48.18"/><polygon class="cls-59" points="79.61 48.21 79.34 48.25 73.49 0 73.76 0 79.61 48.21"/><polygon class="cls-60" points="79.34 48.25 79.07 48.28 73.21 0 73.49 0 79.34 48.25"/><polygon class="cls-61" points="79.07 48.28 78.8 48.31 72.94 0 73.21 0 79.07 48.28"/><polygon class="cls-62" points="78.8 48.31 78.53 48.34 72.66 0 72.94 0 78.8 48.31"/><polygon class="cls-63" points="78.53 48.34 78.26 48.38 72.38 0 72.66 0 78.53 48.34"/><polygon class="cls-64" points="78.26 48.38 77.98 48.41 72.11 0 72.38 0 78.26 48.38"/><polygon class="cls-65" points="77.98 48.41 77.71 48.44 71.83 0 72.11 0 77.98 48.41"/><polygon class="cls-66" points="77.71 48.44 77.44 48.48 71.56 0 71.83 0 77.71 48.44"/><polygon class="cls-67" points="77.44 48.48 77.17 48.51 71.28 0 71.56 0 77.44 48.48"/><polygon class="cls-68" points="77.17 48.51 76.9 48.54 71.01 0 71.28 0 77.17 48.51"/><polygon class="cls-69" points="76.9 48.54 76.63 48.58 70.73 0 71.01 0 76.9 48.54"/><polygon class="cls-70" points="76.63 48.58 76.36 48.61 70.46 0.01 70.51 0 70.73 0 76.63 48.58"/><rect class="cls-71" x="73.13" y="-0.16" width="0.27" height="48.96" transform="translate(-2.4 9.01) rotate(-6.92)"/><rect class="cls-72" x="72.86" y="-0.12" width="0.27" height="48.96" transform="translate(-2.4 8.97) rotate(-6.92)"/><rect class="cls-73" x="72.59" y="-0.09" width="0.27" height="48.96" transform="translate(-2.41 8.94) rotate(-6.92)"/><rect class="cls-74" x="72.32" y="-0.06" width="0.27" height="48.96" transform="translate(-2.41 8.91) rotate(-6.92)"/><rect class="cls-75" x="72.05" y="-0.02" width="0.27" height="48.96" transform="translate(-2.42 8.88) rotate(-6.92)"/><rect class="cls-76" x="71.78" y="0.01" width="0.27" height="48.96" transform="translate(-2.43 8.84) rotate(-6.92)"/><rect class="cls-77" x="71.51" y="0.04" width="0.27" height="48.96" transform="translate(-2.43 8.81) rotate(-6.92)"/><rect class="cls-78" x="71.23" y="0.07" width="0.27" height="48.96" transform="translate(-2.44 8.78) rotate(-6.92)"/><rect class="cls-4" x="70.96" y="0.11" width="0.27" height="48.96" transform="translate(-2.44 8.75) rotate(-6.92)"/><rect class="cls-5" x="70.69" y="0.14" width="0.27" height="48.96" transform="translate(-2.45 8.71) rotate(-6.92)"/><rect class="cls-6" x="70.42" y="0.17" width="0.27" height="48.96" transform="translate(-2.46 8.68) rotate(-6.92)"/><rect class="cls-7" x="70.15" y="0.21" width="0.27" height="48.96" transform="translate(-2.46 8.65) rotate(-6.92)"/><rect class="cls-8" x="69.88" y="0.24" width="0.27" height="48.96" transform="translate(-2.47 8.62) rotate(-6.92)"/><rect class="cls-9" x="69.6" y="0.27" width="0.27" height="48.96" transform="translate(-2.47 8.58) rotate(-6.92)"/><rect class="cls-10" x="69.33" y="0.31" width="0.27" height="48.96" transform="translate(-2.48 8.55) rotate(-6.92)"/><rect class="cls-11" x="69.06" y="0.34" width="0.27" height="48.96" transform="translate(-2.49 8.52) rotate(-6.92)"/><rect class="cls-12" x="68.79" y="0.37" width="0.27" height="48.96" transform="translate(-2.49 8.49) rotate(-6.92)"/><rect class="cls-13" x="68.52" y="0.4" width="0.27" height="48.96" transform="translate(-2.5 8.45) rotate(-6.92)"/><rect class="cls-14" x="68.25" y="0.44" width="0.27" height="48.96" transform="translate(-2.5 8.42) rotate(-6.92)"/><rect class="cls-15" x="67.98" y="0.47" width="0.27" height="48.96" transform="translate(-2.51 8.39) rotate(-6.92)"/><rect class="cls-16" x="67.7" y="0.5" width="0.27" height="48.96" transform="translate(-2.52 8.36) rotate(-6.92)"/><polygon class="cls-17" points="70.66 49.3 70.65 49.3 70.38 49.3 64.48 0.73 64.76 0.7 70.66 49.3"/><polygon class="cls-18" points="70.1 49.3 64.21 0.76 64.48 0.73 70.38 49.3 70.1 49.3"/><polygon class="cls-19" points="69.83 49.3 63.94 0.8 64.21 0.76 70.1 49.3 69.83 49.3"/><polygon class="cls-20" points="69.55 49.3 63.67 0.83 63.94 0.8 69.83 49.3 69.55 49.3"/><polygon class="cls-21" points="69.28 49.3 63.4 0.86 63.67 0.83 69.55 49.3 69.28 49.3"/><polygon class="cls-22" points="69 49.3 63.13 0.9 63.4 0.86 69.28 49.3 69 49.3"/><polygon class="cls-23" points="68.73 49.3 62.86 0.93 63.13 0.9 69 49.3 68.73 49.3"/><polygon class="cls-79" points="68.45 49.3 62.59 0.96 62.86 0.93 68.73 49.3 68.45 49.3"/><polygon class="cls-80" points="68.18 49.3 62.31 0.99 62.59 0.96 68.45 49.3 68.18 49.3"/><polygon class="cls-81" points="67.9 49.3 62.04 1.03 62.31 0.99 68.18 49.3 67.9 49.3"/><polygon class="cls-82" points="67.63 49.3 61.77 1.06 62.04 1.03 67.9 49.3 67.63 49.3"/><polygon class="cls-82" points="67.35 49.3 61.5 1.09 61.77 1.06 67.63 49.3 67.35 49.3"/><polygon class="cls-83" points="67.07 49.3 61.23 1.13 61.5 1.09 67.35 49.3 67.07 49.3"/><polygon class="cls-84" points="66.8 49.3 60.96 1.16 61.23 1.13 67.07 49.3 66.8 49.3"/><polygon class="cls-85" points="66.52 49.3 60.68 1.19 60.96 1.16 66.8 49.3 66.52 49.3"/><polygon class="cls-85" points="66.25 49.3 60.41 1.23 60.68 1.19 66.52 49.3 66.25 49.3"/><polygon class="cls-86" points="65.97 49.3 60.14 1.26 60.41 1.23 66.25 49.3 65.97 49.3"/><polygon class="cls-87" points="65.7 49.3 59.87 1.29 60.14 1.26 65.97 49.3 65.7 49.3"/><polygon class="cls-87" points="65.42 49.3 59.6 1.32 59.87 1.29 65.7 49.3 65.42 49.3"/><polygon class="cls-88" points="65.15 49.3 59.33 1.36 59.6 1.32 65.42 49.3 65.15 49.3"/><polygon class="cls-89" points="64.87 49.3 59.06 1.39 59.33 1.36 65.15 49.3 64.87 49.3"/><polygon class="cls-89" points="64.59 49.3 58.78 1.42 59.06 1.39 64.87 49.3 64.59 49.3"/><polygon class="cls-90" points="64.32 49.3 58.51 1.46 58.78 1.42 64.59 49.3 64.32 49.3"/><polygon class="cls-91" points="64.04 49.3 58.24 1.49 58.51 1.46 64.32 49.3 64.04 49.3"/><polygon class="cls-92" points="63.77 49.3 57.97 1.52 58.24 1.49 64.04 49.3 63.77 49.3"/><polygon class="cls-93" points="63.49 49.3 57.7 1.55 57.97 1.52 63.77 49.3 63.49 49.3"/><polygon class="cls-93" points="63.22 49.3 57.43 1.59 57.7 1.55 63.49 49.3 63.22 49.3"/><polygon class="cls-94" points="62.94 49.3 57.16 1.62 57.43 1.59 63.22 49.3 62.94 49.3"/><polygon class="cls-95" points="62.67 49.3 56.88 1.65 57.16 1.62 62.94 49.3 62.67 49.3"/><polygon class="cls-96" points="62.39 49.3 56.61 1.69 56.88 1.65 62.67 49.3 62.39 49.3"/><polygon class="cls-96" points="62.12 49.3 56.34 1.72 56.61 1.69 62.39 49.3 62.12 49.3"/><polygon class="cls-97" points="61.84 49.3 56.07 1.75 56.34 1.72 62.12 49.3 61.84 49.3"/><polygon class="cls-97" points="61.56 49.3 55.8 1.78 56.07 1.75 61.84 49.3 61.56 49.3"/><polygon class="cls-98" points="61.29 49.3 55.53 1.82 55.8 1.78 61.56 49.3 61.29 49.3"/><polygon class="cls-99" points="61.01 49.3 55.26 1.85 55.53 1.82 61.29 49.3 61.01 49.3"/><polygon class="cls-100" points="60.74 49.3 54.98 1.88 55.26 1.85 61.01 49.3 60.74 49.3"/><polygon class="cls-100" points="60.46 49.3 54.71 1.92 54.98 1.88 60.74 49.3 60.46 49.3"/><polygon class="cls-100" points="60.19 49.3 54.44 1.95 54.71 1.92 60.46 49.3 60.19 49.3"/><polygon class="cls-101" points="59.91 49.3 54.17 1.98 54.44 1.95 60.19 49.3 59.91 49.3"/><polygon class="cls-101" points="59.64 49.3 53.9 2.02 54.17 1.98 59.91 49.3 59.64 49.3"/><polygon class="cls-102" points="59.36 49.3 53.63 2.05 53.9 2.02 59.64 49.3 59.36 49.3"/><polygon class="cls-103" points="59.09 49.3 53.35 2.08 53.63 2.05 59.36 49.3 59.09 49.3"/><polygon class="cls-103" points="58.81 49.3 53.08 2.12 53.35 2.08 59.09 49.3 58.81 49.3"/><polygon class="cls-103" points="58.53 49.3 52.81 2.15 53.08 2.12 58.81 49.3 58.53 49.3"/><polygon class="cls-104" points="58.26 49.3 52.54 2.18 52.81 2.15 58.53 49.3 58.26 49.3"/><polygon class="cls-104" points="57.98 49.3 52.27 2.21 52.54 2.18 58.26 49.3 57.98 49.3"/><polygon class="cls-104" points="57.71 49.3 52 2.25 52.27 2.21 57.98 49.3 57.71 49.3"/><polygon class="cls-104" points="57.43 49.3 51.73 2.28 52 2.25 57.71 49.3 57.43 49.3"/><polygon class="cls-105" points="57.16 49.3 51.45 2.31 51.73 2.28 57.43 49.3 57.16 49.3"/><polygon class="cls-105" points="56.88 49.3 51.18 2.35 51.45 2.31 57.16 49.3 56.88 49.3"/><polygon class="cls-106" points="56.61 49.3 50.91 2.38 51.18 2.35 56.88 49.3 56.61 49.3"/><polygon class="cls-106" points="56.33 49.3 50.64 2.41 50.91 2.38 56.61 49.3 56.33 49.3"/><polygon class="cls-106" points="56.06 49.3 50.37 2.44 50.64 2.41 56.33 49.3 56.06 49.3"/><polygon class="cls-106" points="55.78 49.3 50.1 2.48 50.37 2.44 56.06 49.3 55.78 49.3"/><polygon class="cls-106" points="55.51 49.3 49.83 2.51 50.1 2.48 55.78 49.3 55.51 49.3"/><polygon class="cls-107" points="55.23 49.3 49.74 4.06 49.74 2.52 49.83 2.51 55.51 49.3 55.23 49.3"/><polygon class="cls-107" points="54.95 49.3 49.74 6.33 49.74 4.06 55.23 49.3 54.95 49.3"/><polygon class="cls-107" points="54.68 49.3 49.74 8.6 49.74 6.33 54.95 49.3 54.68 49.3"/><polygon class="cls-107" points="54.4 49.3 49.74 10.87 49.74 8.6 54.68 49.3 54.4 49.3"/><polygon class="cls-107" points="54.13 49.3 49.74 13.14 49.74 10.87 54.4 49.3 54.13 49.3"/><polygon class="cls-107" points="53.85 49.3 49.74 15.41 49.74 13.14 54.13 49.3 53.85 49.3"/><polygon class="cls-107" points="53.58 49.3 49.74 17.68 49.74 15.41 53.85 49.3 53.58 49.3"/><polygon class="cls-107" points="53.3 49.3 49.74 19.95 49.74 17.68 53.58 49.3 53.3 49.3"/><polygon class="cls-107" points="53.03 49.3 49.74 22.22 49.74 19.95 53.3 49.3 53.03 49.3"/><polygon class="cls-107" points="49.74 22.22 53.03 49.3 49.74 49.3 49.74 22.22"/></g></g><g class="cls-2"><g class="cls-108"><polygon class="cls-26" points="77.76 71.22 76.05 71.99 62.21 41.2 66.51 39.26 77.76 39.26 77.76 71.22"/><rect class="cls-26" x="68.76" y="39.79" width="0.39" height="33.76" transform="translate(-17.17 33.26) rotate(-24.21)"/><polygon class="cls-27" points="75.7 72.14 75.6 72.19 75.3 72.19 61.51 41.51 61.86 41.35 75.7 72.14"/><polygon class="cls-28" points="74.88 72.19 61.16 41.67 61.51 41.51 75.3 72.19 74.88 72.19"/><polygon class="cls-29" points="74.45 72.19 60.8 41.83 61.16 41.67 74.88 72.19 74.45 72.19"/><polygon class="cls-30" points="74.03 72.19 60.45 41.99 60.8 41.83 74.45 72.19 74.03 72.19"/><polygon class="cls-31" points="73.61 72.19 60.1 42.15 60.45 41.99 74.03 72.19 73.61 72.19"/><polygon class="cls-32" points="73.19 72.19 59.75 42.3 60.1 42.15 73.61 72.19 73.19 72.19"/><polygon class="cls-33" points="72.76 72.19 59.4 42.46 59.75 42.3 73.19 72.19 72.76 72.19"/><polygon class="cls-34" points="72.34 72.19 59.05 42.62 59.4 42.46 72.76 72.19 72.34 72.19"/><polygon class="cls-35" points="71.92 72.19 58.69 42.78 59.05 42.62 72.34 72.19 71.92 72.19"/><polygon class="cls-36" points="71.5 72.19 58.34 42.94 58.69 42.78 71.92 72.19 71.5 72.19"/><polygon class="cls-37" points="71.07 72.19 57.99 43.09 58.34 42.94 71.5 72.19 71.07 72.19"/><polygon class="cls-38" points="70.65 72.19 57.64 43.25 57.99 43.09 71.07 72.19 70.65 72.19"/><polygon class="cls-39" points="70.23 72.19 57.29 43.41 57.64 43.25 70.65 72.19 70.23 72.19"/><polygon class="cls-40" points="69.81 72.19 56.94 43.57 57.29 43.41 70.23 72.19 69.81 72.19"/><polygon class="cls-41" points="69.38 72.19 56.58 43.73 56.94 43.57 69.81 72.19 69.38 72.19"/><polygon class="cls-42" points="68.96 72.19 56.23 43.88 56.58 43.73 69.38 72.19 68.96 72.19"/><polygon class="cls-43" points="68.54 72.19 55.88 44.04 56.23 43.88 68.96 72.19 68.54 72.19"/><polygon class="cls-44" points="68.11 72.19 55.53 44.2 55.88 44.04 68.54 72.19 68.11 72.19"/><polygon class="cls-45" points="67.69 72.19 55.18 44.36 55.53 44.2 68.11 72.19 67.69 72.19"/><polygon class="cls-46" points="67.27 72.19 54.83 44.52 55.18 44.36 67.69 72.19 67.27 72.19"/><polygon class="cls-47" points="66.85 72.19 54.48 44.67 54.83 44.52 67.27 72.19 66.85 72.19"/><polygon class="cls-48" points="66.42 72.19 54.12 44.83 54.48 44.67 66.85 72.19 66.42 72.19"/><polygon class="cls-49" points="66 72.19 53.77 44.99 54.12 44.83 66.42 72.19 66 72.19"/><polygon class="cls-50" points="65.58 72.19 53.42 45.15 53.77 44.99 66 72.19 65.58 72.19"/><polygon class="cls-51" points="65.16 72.19 53.07 45.31 53.42 45.15 65.58 72.19 65.16 72.19"/><polygon class="cls-52" points="64.73 72.19 52.72 45.47 53.07 45.31 65.16 72.19 64.73 72.19"/><polygon class="cls-53" points="64.31 72.19 52.37 45.62 52.72 45.47 64.73 72.19 64.31 72.19"/><polygon class="cls-54" points="63.89 72.19 52.01 45.78 52.37 45.62 64.31 72.19 63.89 72.19"/><polygon class="cls-55" points="63.47 72.19 51.66 45.94 52.01 45.78 63.89 72.19 63.47 72.19"/><polygon class="cls-56" points="63.04 72.19 51.31 46.1 51.66 45.94 63.47 72.19 63.04 72.19"/><polygon class="cls-57" points="62.62 72.19 50.96 46.26 51.31 46.1 63.04 72.19 62.62 72.19"/><polygon class="cls-58" points="62.2 72.19 50.61 46.41 50.96 46.26 62.62 72.19 62.2 72.19"/><polygon class="cls-59" points="61.77 72.19 50.26 46.57 50.61 46.41 62.2 72.19 61.77 72.19"/><polygon class="cls-60" points="61.35 72.19 49.9 46.73 50.26 46.57 61.77 72.19 61.35 72.19"/><polygon class="cls-61" points="60.93 72.19 49.55 46.89 49.9 46.73 61.35 72.19 60.93 72.19"/><polygon class="cls-62" points="60.51 72.19 49.2 47.05 49.55 46.89 60.93 72.19 60.51 72.19"/><polygon class="cls-63" points="60.08 72.19 48.85 47.2 49.2 47.05 60.51 72.19 60.08 72.19"/><polygon class="cls-64" points="59.66 72.19 48.5 47.36 48.85 47.2 60.08 72.19 59.66 72.19"/><polygon class="cls-65" points="59.24 72.19 48.15 47.52 48.5 47.36 59.66 72.19 59.24 72.19"/><polygon class="cls-66" points="58.82 72.19 47.8 47.68 48.15 47.52 59.24 72.19 58.82 72.19"/><polygon class="cls-67" points="58.39 72.19 47.44 47.84 47.8 47.68 58.82 72.19 58.39 72.19"/><polygon class="cls-68" points="57.97 72.19 47.09 47.99 47.44 47.84 58.39 72.19 57.97 72.19"/><polygon class="cls-69" points="57.55 72.19 46.74 48.15 47.09 47.99 57.97 72.19 57.55 72.19"/><polygon class="cls-70" points="57.13 72.19 46.39 48.31 46.74 48.15 57.55 72.19 57.13 72.19"/><polygon class="cls-71" points="56.7 72.19 46.04 48.47 46.39 48.31 57.13 72.19 56.7 72.19"/><polygon class="cls-72" points="56.28 72.19 45.69 48.63 46.04 48.47 56.7 72.19 56.28 72.19"/><polygon class="cls-73" points="55.86 72.19 45.33 48.78 45.69 48.63 56.28 72.19 55.86 72.19"/><polygon class="cls-74" points="55.43 72.19 44.98 48.94 45.33 48.78 55.86 72.19 55.43 72.19"/><polygon class="cls-75" points="55.01 72.19 44.63 49.1 44.98 48.94 55.43 72.19 55.01 72.19"/><polygon class="cls-76" points="54.59 72.19 44.44 49.62 44.44 49.19 44.63 49.1 55.01 72.19 54.59 72.19"/><polygon class="cls-77" points="54.17 72.19 44.44 50.55 44.44 49.62 54.59 72.19 54.17 72.19"/><polygon class="cls-78" points="53.74 72.19 44.44 51.49 44.44 50.55 54.17 72.19 53.74 72.19"/><polygon class="cls-4" points="53.32 72.19 44.44 52.44 44.44 51.49 53.74 72.19 53.32 72.19"/><polygon class="cls-5" points="52.9 72.19 44.44 53.38 44.44 52.44 53.32 72.19 52.9 72.19"/><polygon class="cls-6" points="52.48 72.19 44.44 54.31 44.44 53.38 52.9 72.19 52.48 72.19"/><polygon class="cls-7" points="52.05 72.19 44.44 55.26 44.44 54.31 52.48 72.19 52.05 72.19"/><polygon class="cls-8" points="51.63 72.19 44.44 56.2 44.44 55.26 52.05 72.19 51.63 72.19"/><polygon class="cls-9" points="51.21 72.19 44.44 57.13 44.44 56.2 51.63 72.19 51.21 72.19"/><polygon class="cls-10" points="50.78 72.19 44.44 58.08 44.44 57.13 51.21 72.19 50.78 72.19"/><polygon class="cls-11" points="50.36 72.19 44.44 59.02 44.44 58.08 50.78 72.19 50.36 72.19"/><polygon class="cls-12" points="49.94 72.19 44.44 59.95 44.44 59.02 50.36 72.19 49.94 72.19"/><polygon class="cls-13" points="49.52 72.19 44.44 60.9 44.44 59.95 49.94 72.19 49.52 72.19"/><polygon class="cls-14" points="49.09 72.19 44.44 61.84 44.44 60.9 49.52 72.19 49.09 72.19"/><polygon class="cls-15" points="48.67 72.19 44.44 62.78 44.44 61.84 49.09 72.19 48.67 72.19"/><polygon class="cls-16" points="48.25 72.19 44.44 63.72 44.44 62.78 48.67 72.19 48.25 72.19"/><polygon class="cls-17" points="47.83 72.19 44.44 64.66 44.44 63.72 48.25 72.19 47.83 72.19"/><polygon class="cls-18" points="47.4 72.19 44.44 65.6 44.44 64.66 47.83 72.19 47.4 72.19"/><polygon class="cls-19" points="46.98 72.19 44.44 66.54 44.44 65.6 47.4 72.19 46.98 72.19"/><polygon class="cls-20" points="46.56 72.19 44.44 67.48 44.44 66.54 46.98 72.19 46.56 72.19"/><polygon class="cls-21" points="46.14 72.19 44.44 68.42 44.44 67.48 46.56 72.19 46.14 72.19"/><polygon class="cls-22" points="45.71 72.19 44.44 69.36 44.44 68.42 46.14 72.19 45.71 72.19"/><polygon class="cls-23" points="45.29 72.19 44.44 70.3 44.44 69.36 45.71 72.19 45.29 72.19"/><polygon class="cls-79" points="44.87 72.19 44.44 71.24 44.44 70.3 45.29 72.19 44.87 72.19"/><polygon class="cls-80" points="44.45 72.19 44.44 72.18 44.44 71.24 44.87 72.19 44.45 72.19"/><polygon class="cls-81" points="44.44 72.18 44.45 72.19 44.44 72.19 44.44 72.18"/></g></g></g></g></svg>