<svg xmlns="http://www.w3.org/2000/svg" xmlns:xlink="http://www.w3.org/1999/xlink" viewBox="0 0 112.06 72.18"><defs><style>.cls-1{fill:none;}.cls-2{opacity:0.8;}.cls-3{clip-path:url(#clip-path);}.cls-4{fill:#2b9943;}.cls-5{fill:#2a9943;}.cls-6{fill:#299843;}.cls-7{fill:#289843;}.cls-8{fill:#279743;}.cls-9{fill:#269743;}.cls-10{fill:#249743;}.cls-11{fill:#239643;}.cls-12{fill:#229643;}.cls-13{fill:#219543;}.cls-14{fill:#209544;}.cls-15{fill:#1f9544;}.cls-16{fill:#1e9444;}.cls-17{fill:#1d9444;}.cls-18{fill:#1c9344;}.cls-19{fill:#1b9344;}.cls-20{fill:#1a9344;}.cls-21{fill:#1a9244;}.cls-22{fill:#199244;}.cls-23{fill:#189244;}.cls-24{clip-path:url(#clip-path-2);}.cls-25{fill:#82bc3f;}.cls-26{fill:#80bb3f;}.cls-27{fill:#7eba3f;}.cls-28{fill:#7cba3f;}.cls-29{fill:#7ab93f;}.cls-30{fill:#78b83f;}.cls-31{fill:#76b740;}.cls-32{fill:#74b640;}.cls-33{fill:#72b640;}.cls-34{fill:#70b540;}.cls-35{fill:#6eb440;}.cls-36{fill:#6cb340;}.cls-37{fill:#6ab240;}.cls-38{fill:#68b240;}.cls-39{fill:#66b140;}.cls-40{fill:#65b040;}.cls-41{fill:#63af40;}.cls-42{fill:#61af41;}.cls-43{fill:#5fae41;}.cls-44{fill:#5dad41;}.cls-45{fill:#5cad41;}.cls-46{fill:#5aac41;}.cls-47{fill:#58ab41;}.cls-48{fill:#56ab41;}.cls-49{fill:#55aa41;}.cls-50{fill:#53a941;}.cls-51{fill:#51a941;}.cls-52{fill:#50a841;}.cls-53{fill:#4ea741;}.cls-54{fill:#4da741;}.cls-55{fill:#4ba642;}.cls-56{fill:#49a542;}.cls-57{fill:#48a542;}.cls-58{fill:#46a442;}.cls-59{fill:#45a442;}.cls-60{fill:#43a342;}.cls-61{fill:#42a242;}.cls-62{fill:#40a242;}.cls-63{fill:#3fa142;}.cls-64{fill:#3da142;}.cls-65{fill:#3ca042;}.cls-66{fill:#3b9f42;}.cls-67{fill:#399f42;}.cls-68{fill:#389e42;}.cls-69{fill:#379e42;}.cls-70{fill:#359d43;}.cls-71{fill:#349d43;}.cls-72{fill:#339c43;}.cls-73{fill:#319c43;}.cls-74{fill:#309b43;}.cls-75{fill:#2f9b43;}.cls-76{fill:#2e9a43;}.cls-77{fill:#2c9a43;}.cls-78{fill:#179144;}.cls-79{fill:#169144;}.cls-80{fill:#159144;}.cls-81{fill:#149044;}.cls-82{fill:#139044;}.cls-83{fill:#128f44;}.cls-84{fill:#118f44;}.cls-85{fill:#108e44;}.cls-86{fill:#0f8e44;}.cls-87{fill:#0e8e44;}.cls-88{fill:#0d8d44;}.cls-89{fill:#0c8d44;}.cls-90{fill:#0b8d44;}.cls-91{fill:#0b8c45;}.cls-92{fill:#0a8c45;}.cls-93{fill:#098c45;}.cls-94{fill:#098b45;}.cls-95{fill:#088b45;}.cls-96{fill:#078b45;}.cls-97{fill:#068b45;}.cls-98{fill:#068a45;}.cls-99{fill:#058a45;}.cls-100{fill:#048a45;}.cls-101{fill:#048945;}.cls-102{fill:#038945;}.cls-103{fill:#028945;}.cls-104{fill:#018945;}.cls-105{fill:#018845;}.cls-106{fill:#008845;}.cls-107{fill:#003165;}.cls-108{clip-path:url(#clip-path-3);}</style><clipPath id="clip-path" transform="translate(0 0)"><path class="cls-1" d="M44.39,62.51Q64.1,64.34,81.52,65.6c-2.63-4.34-4.94-8.59-7-12.75Q56.7,49.6,37.08,45.63A152.57,152.57,0,0,0,44.39,62.51Z"/></clipPath><clipPath id="clip-path-2" transform="translate(0 0)"><path class="cls-1" d="M7.44,0C4.46,14.26.93,28.44,0,43c14.38,2.56,27.92,4.65,40.5,6.34a78.25,78.25,0,0,1,4.3-27.08A372.07,372.07,0,0,1,7.44,0Z"/></clipPath><clipPath id="clip-path-3" transform="translate(0 0)"><path class="cls-1" d="M13.91,68a79.74,79.74,0,0,1,6.16-29.77c7.64,3.62,15.26,7,22.79,10.15a75.72,75.72,0,0,0,4.37,22.78C36.92,70.31,25.82,69.29,13.91,68Z"/></clipPath></defs><g id="Capa_2" data-name="Capa 2"><g id="Capa_1-2" data-name="Capa 1"><g class="cls-2"><g class="cls-3"><polygon class="cls-4" points="39.46 45.63 37.08 50.92 37.08 45.63 39.46 45.63"/><polygon class="cls-5" points="42.22 45.63 37.08 57.06 37.08 50.92 39.46 45.63 42.22 45.63"/><polygon class="cls-6" points="44.98 45.63 37.75 61.72 37.08 61.41 37.08 57.06 42.22 45.63 44.98 45.63"/><polygon class="cls-7" points="47.74 45.63 40.05 62.75 37.75 61.72 44.98 45.63 47.74 45.63"/><polygon class="cls-8" points="50.5 45.63 42.34 63.78 40.05 62.75 47.74 45.63 50.5 45.63"/><polygon class="cls-9" points="53.26 45.63 44.64 64.81 42.34 63.78 50.5 45.63 53.26 45.63"/><polygon class="cls-10" points="56.02 45.63 47.05 65.6 46.38 65.6 44.64 64.81 53.26 45.63 56.02 45.63"/><polygon class="cls-11" points="58.78 45.63 49.8 65.6 47.05 65.6 56.02 45.63 58.78 45.63"/><polygon class="cls-12" points="61.54 45.63 52.56 65.6 49.8 65.6 58.78 45.63 61.54 45.63"/><polygon class="cls-13" points="63.36 45.63 64.14 45.98 55.33 65.6 52.56 65.6 61.54 45.63 63.36 45.63"/><polygon class="cls-14" points="64.14 45.98 66.44 47.01 58.09 65.6 55.33 65.6 64.14 45.98"/><polygon class="cls-15" points="66.44 47.01 68.74 48.05 60.84 65.6 58.09 65.6 66.44 47.01"/><polygon class="cls-16" points="68.74 48.05 71.03 49.08 63.6 65.6 60.84 65.6 68.74 48.05"/><polygon class="cls-17" points="71.03 49.08 73.33 50.11 66.36 65.6 63.6 65.6 71.03 49.08"/><polygon class="cls-18" points="73.33 50.11 75.62 51.14 69.13 65.6 66.36 65.6 73.33 50.11"/><polygon class="cls-19" points="75.62 51.14 77.92 52.18 71.89 65.6 69.13 65.6 75.62 51.14"/><polygon class="cls-20" points="77.92 52.18 80.22 53.21 74.64 65.6 71.89 65.6 77.92 52.18"/><polygon class="cls-21" points="80.22 53.21 81.52 53.8 81.52 56.44 77.41 65.6 74.64 65.6 80.22 53.21"/><polygon class="cls-22" points="81.52 62.58 80.17 65.6 77.41 65.6 81.52 56.44 81.52 62.58"/><polygon class="cls-23" points="80.17 65.6 81.52 62.58 81.52 65.6 80.17 65.6"/></g></g><g class="cls-2"><g class="cls-24"><polygon class="cls-25" points="11.69 0 5.97 47.13 0 46.4 0 0 11.69 0"/><polygon class="cls-25" points="11.97 0 6.24 47.16 5.97 47.13 11.69 0 11.97 0"/><polygon class="cls-26" points="12.24 0 6.51 47.19 6.24 47.16 11.97 0 12.24 0"/><polygon class="cls-27" points="12.52 0 6.79 47.23 6.51 47.19 12.24 0 12.52 0"/><polygon class="cls-28" points="12.79 0 7.06 47.26 6.79 47.23 12.52 0 12.79 0"/><polygon class="cls-29" points="13.07 0 7.33 47.29 7.06 47.26 12.79 0 13.07 0"/><polygon class="cls-30" points="13.34 0 7.6 47.32 7.33 47.29 13.07 0 13.34 0"/><polygon class="cls-31" points="13.62 0 7.87 47.36 7.6 47.32 13.34 0 13.62 0"/><polygon class="cls-32" points="13.89 0 8.14 47.39 7.87 47.36 13.62 0 13.89 0"/><polygon class="cls-33" points="14.17 0 8.41 47.42 8.14 47.39 13.89 0 14.17 0"/><polygon class="cls-34" points="14.45 0 8.69 47.46 8.41 47.42 14.17 0 14.45 0"/><polygon class="cls-35" points="14.72 0 8.96 47.49 8.69 47.46 14.45 0 14.72 0"/><polygon class="cls-36" points="15 0 9.23 47.52 8.96 47.49 14.72 0 15 0"/><polygon class="cls-37" points="15.27 0 9.5 47.55 9.23 47.52 15 0 15.27 0"/><polygon class="cls-38" points="15.55 0 9.77 47.59 9.5 47.55 15.27 0 15.55 0"/><polygon class="cls-39" points="15.82 0 10.04 47.62 9.77 47.59 15.55 0 15.82 0"/><polygon class="cls-40" points="16.1 0 10.31 47.65 10.04 47.62 15.82 0 16.1 0"/><polygon class="cls-41" points="16.37 0 10.59 47.69 10.31 47.65 16.1 0 16.37 0"/><polygon class="cls-42" points="16.65 0 10.86 47.72 10.59 47.69 16.37 0 16.65 0"/><polygon class="cls-43" points="16.93 0 11.13 47.75 10.86 47.72 16.65 0 16.93 0"/><polygon class="cls-44" points="17.2 0 11.4 47.78 11.13 47.75 16.93 0 17.2 0"/><polygon class="cls-45" points="17.48 0 11.67 47.82 11.4 47.78 17.2 0 17.48 0"/><polygon class="cls-46" points="17.75 0 11.94 47.85 11.67 47.82 17.48 0 17.75 0"/><polygon class="cls-47" points="18.03 0 12.21 47.88 11.94 47.85 17.75 0 18.03 0"/><polygon class="cls-48" points="18.3 0 12.49 47.92 12.21 47.88 18.03 0 18.3 0"/><polygon class="cls-49" points="18.58 0 12.76 47.95 12.49 47.92 18.3 0 18.58 0"/><polygon class="cls-50" points="18.85 0 13.03 47.98 12.76 47.95 18.58 0 18.85 0"/><polygon class="cls-51" points="19.13 0 13.3 48.02 13.03 47.98 18.85 0 19.13 0"/><polygon class="cls-52" points="19.4 0 13.57 48.05 13.3 48.02 19.13 0 19.4 0"/><polygon class="cls-53" points="19.68 0 13.84 48.08 13.57 48.05 19.4 0 19.68 0"/><polygon class="cls-54" points="19.95 0 14.12 48.12 13.84 48.08 19.68 0 19.95 0"/><polygon class="cls-55" points="20.23 0 14.39 48.15 14.12 48.12 19.95 0 20.23 0"/><polygon class="cls-56" points="20.51 0 14.66 48.18 14.39 48.15 20.23 0 20.51 0"/><polygon class="cls-57" points="20.78 0 14.93 48.21 14.66 48.18 20.51 0 20.78 0"/><polygon class="cls-58" points="21.06 0 15.2 48.25 14.93 48.21 20.78 0 21.06 0"/><polygon class="cls-59" points="21.33 0 15.47 48.28 15.2 48.25 21.06 0 21.33 0"/><polygon class="cls-60" points="21.61 0 15.74 48.31 15.47 48.28 21.33 0 21.61 0"/><polygon class="cls-61" points="21.88 0 16.02 48.34 15.74 48.31 21.61 0 21.88 0"/><polygon class="cls-62" points="22.16 0 16.29 48.38 16.02 48.34 21.88 0 22.16 0"/><polygon class="cls-63" points="22.43 0 16.56 48.41 16.29 48.38 22.16 0 22.43 0"/><polygon class="cls-64" points="22.71 0 16.83 48.44 16.56 48.41 22.43 0 22.71 0"/><polygon class="cls-65" points="22.98 0 17.1 48.48 16.83 48.44 22.71 0 22.98 0"/><polygon class="cls-66" points="23.26 0 17.37 48.51 17.1 48.48 22.98 0 23.26 0"/><polygon class="cls-67" points="23.54 0 17.64 48.54 17.37 48.51 23.26 0 23.54 0"/><polygon class="cls-68" points="23.81 0 17.92 48.58 17.64 48.54 23.54 0 23.81 0"/><polygon class="cls-69" points="24.04 0 24.09 0.01 18.19 48.61 17.92 48.58 23.81 0 24.04 0"/><rect class="cls-70" x="-3.21" y="24.19" width="48.96" height="0.27" transform="translate(-5.44 42.51) rotate(-83.08)"/><rect class="cls-71" x="-2.94" y="24.22" width="48.96" height="0.27" transform="translate(-5.23 42.81) rotate(-83.08)"/><rect class="cls-72" x="-2.66" y="24.25" width="48.96" height="0.27" transform="translate(-5.03 43.11) rotate(-83.08)"/><rect class="cls-73" x="-2.39" y="24.29" width="48.96" height="0.27" transform="translate(-4.82 43.41) rotate(-83.08)"/><rect class="cls-74" x="-2.12" y="24.32" width="48.96" height="0.27" transform="translate(-4.61 43.7) rotate(-83.08)"/><rect class="cls-75" x="-1.85" y="24.35" width="48.96" height="0.27" transform="translate(-4.41 44) rotate(-83.08)"/><rect class="cls-76" x="-1.58" y="24.38" width="48.96" height="0.27" transform="translate(-4.2 44.3) rotate(-83.08)"/><rect class="cls-77" x="-1.31" y="24.42" width="48.96" height="0.27" transform="translate(-4 44.6) rotate(-83.08)"/><rect class="cls-4" x="-1.04" y="24.45" width="48.96" height="0.27" transform="translate(-3.79 44.9) rotate(-83.08)"/><rect class="cls-5" x="-0.76" y="24.48" width="48.96" height="0.27" transform="translate(-3.58 45.2) rotate(-83.08)"/><rect class="cls-6" x="-0.49" y="24.52" width="48.96" height="0.27" transform="matrix(0.12, -0.99, 0.99, 0.12, -3.38, 45.49)"/><rect class="cls-7" x="-0.22" y="24.55" width="48.96" height="0.27" transform="translate(-3.17 45.79) rotate(-83.08)"/><rect class="cls-8" x="0.05" y="24.58" width="48.96" height="0.27" transform="translate(-2.96 46.09) rotate(-83.08)"/><rect class="cls-9" x="0.32" y="24.62" width="48.96" height="0.27" transform="translate(-2.76 46.39) rotate(-83.08)"/><rect class="cls-10" x="0.59" y="24.65" width="48.96" height="0.27" transform="translate(-2.55 46.69) rotate(-83.08)"/><rect class="cls-11" x="0.86" y="24.68" width="48.96" height="0.27" transform="translate(-2.35 46.99) rotate(-83.08)"/><rect class="cls-12" x="1.14" y="24.71" width="48.96" height="0.27" transform="translate(-2.14 47.29) rotate(-83.08)"/><rect class="cls-13" x="1.41" y="24.75" width="48.96" height="0.27" transform="translate(-1.93 47.58) rotate(-83.08)"/><rect class="cls-14" x="1.68" y="24.78" width="48.96" height="0.27" transform="translate(-1.73 47.88) rotate(-83.08)"/><rect class="cls-15" x="1.95" y="24.81" width="48.96" height="0.27" transform="translate(-1.52 48.18) rotate(-83.08)"/><rect class="cls-16" x="2.22" y="24.85" width="48.96" height="0.27" transform="translate(-1.32 48.48) rotate(-83.08)"/><polygon class="cls-17" points="29.79 0.7 30.06 0.73 24.16 49.3 23.9 49.3 23.89 49.3 29.79 0.7"/><polygon class="cls-18" points="30.06 0.73 30.33 0.76 24.44 49.3 24.16 49.3 30.06 0.73"/><polygon class="cls-19" points="30.33 0.76 30.6 0.8 24.71 49.3 24.44 49.3 30.33 0.76"/><polygon class="cls-20" points="30.6 0.8 30.87 0.83 24.99 49.3 24.71 49.3 30.6 0.8"/><polygon class="cls-21" points="30.87 0.83 31.14 0.86 25.27 49.3 24.99 49.3 30.87 0.83"/><polygon class="cls-22" points="31.14 0.86 31.41 0.9 25.54 49.3 25.27 49.3 31.14 0.86"/><polygon class="cls-23" points="31.41 0.9 31.69 0.93 25.82 49.3 25.54 49.3 31.41 0.9"/><polygon class="cls-78" points="31.69 0.93 31.96 0.96 26.09 49.3 25.82 49.3 31.69 0.93"/><polygon class="cls-79" points="31.96 0.96 32.23 0.99 26.37 49.3 26.09 49.3 31.96 0.96"/><polygon class="cls-80" points="32.23 0.99 32.5 1.03 26.64 49.3 26.37 49.3 32.23 0.99"/><polygon class="cls-81" points="32.5 1.03 32.77 1.06 26.92 49.3 26.64 49.3 32.5 1.03"/><polygon class="cls-81" points="32.77 1.06 33.04 1.09 27.19 49.3 26.92 49.3 32.77 1.06"/><polygon class="cls-82" points="33.04 1.09 33.31 1.13 27.47 49.3 27.19 49.3 33.04 1.09"/><polygon class="cls-83" points="33.31 1.13 33.59 1.16 27.74 49.3 27.47 49.3 33.31 1.13"/><polygon class="cls-84" points="33.59 1.16 33.86 1.19 28.02 49.3 27.74 49.3 33.59 1.16"/><polygon class="cls-84" points="33.86 1.19 34.13 1.23 28.3 49.3 28.02 49.3 33.86 1.19"/><polygon class="cls-85" points="34.13 1.23 34.4 1.26 28.57 49.3 28.3 49.3 34.13 1.23"/><polygon class="cls-86" points="34.4 1.26 34.67 1.29 28.85 49.3 28.57 49.3 34.4 1.26"/><polygon class="cls-86" points="34.67 1.29 34.94 1.32 29.12 49.3 28.85 49.3 34.67 1.29"/><polygon class="cls-87" points="34.94 1.32 35.22 1.36 29.4 49.3 29.12 49.3 34.94 1.32"/><polygon class="cls-88" points="35.22 1.36 35.49 1.39 29.67 49.3 29.4 49.3 35.22 1.36"/><polygon class="cls-88" points="35.49 1.39 35.76 1.42 29.95 49.3 29.67 49.3 35.49 1.39"/><polygon class="cls-89" points="35.76 1.42 36.03 1.46 30.22 49.3 29.95 49.3 35.76 1.42"/><polygon class="cls-90" points="36.03 1.46 36.3 1.49 30.5 49.3 30.22 49.3 36.03 1.46"/><polygon class="cls-91" points="36.3 1.49 36.57 1.52 30.77 49.3 30.5 49.3 36.3 1.49"/><polygon class="cls-92" points="36.57 1.52 36.84 1.55 31.05 49.3 30.77 49.3 36.57 1.52"/><polygon class="cls-92" points="36.84 1.55 37.12 1.59 31.32 49.3 31.05 49.3 36.84 1.55"/><polygon class="cls-93" points="37.12 1.59 37.39 1.62 31.6 49.3 31.32 49.3 37.12 1.59"/><polygon class="cls-94" points="37.39 1.62 37.66 1.65 31.88 49.3 31.6 49.3 37.39 1.62"/><polygon class="cls-95" points="37.66 1.65 37.93 1.69 32.15 49.3 31.88 49.3 37.66 1.65"/><polygon class="cls-95" points="37.93 1.69 38.2 1.72 32.43 49.3 32.15 49.3 37.93 1.69"/><polygon class="cls-96" points="38.2 1.72 38.47 1.75 32.7 49.3 32.43 49.3 38.2 1.72"/><polygon class="cls-96" points="38.47 1.75 38.74 1.78 32.98 49.3 32.7 49.3 38.47 1.75"/><polygon class="cls-97" points="38.74 1.78 39.02 1.82 33.25 49.3 32.98 49.3 38.74 1.78"/><polygon class="cls-98" points="39.02 1.82 39.29 1.85 33.53 49.3 33.25 49.3 39.02 1.82"/><polygon class="cls-99" points="39.29 1.85 39.56 1.88 33.8 49.3 33.53 49.3 39.29 1.85"/><polygon class="cls-99" points="39.56 1.88 39.83 1.92 34.08 49.3 33.8 49.3 39.56 1.88"/><polygon class="cls-99" points="39.83 1.92 40.1 1.95 34.35 49.3 34.08 49.3 39.83 1.92"/><polygon class="cls-100" points="40.1 1.95 40.37 1.98 34.63 49.3 34.35 49.3 40.1 1.95"/><polygon class="cls-100" points="40.37 1.98 40.65 2.02 34.91 49.3 34.63 49.3 40.37 1.98"/><polygon class="cls-101" points="40.65 2.02 40.92 2.05 35.18 49.3 34.91 49.3 40.65 2.02"/><polygon class="cls-102" points="40.92 2.05 41.19 2.08 35.46 49.3 35.18 49.3 40.92 2.05"/><polygon class="cls-102" points="41.19 2.08 41.46 2.12 35.73 49.3 35.46 49.3 41.19 2.08"/><polygon class="cls-102" points="41.46 2.12 41.73 2.15 36.01 49.3 35.73 49.3 41.46 2.12"/><polygon class="cls-103" points="41.73 2.15 42 2.18 36.28 49.3 36.01 49.3 41.73 2.15"/><polygon class="cls-103" points="42 2.18 42.27 2.21 36.56 49.3 36.28 49.3 42 2.18"/><polygon class="cls-103" points="42.27 2.21 42.55 2.25 36.83 49.3 36.56 49.3 42.27 2.21"/><polygon class="cls-103" points="42.55 2.25 42.82 2.28 37.11 49.3 36.83 49.3 42.55 2.25"/><polygon class="cls-104" points="42.82 2.28 43.09 2.31 37.38 49.3 37.11 49.3 42.82 2.28"/><polygon class="cls-104" points="43.09 2.31 43.36 2.35 37.66 49.3 37.38 49.3 43.09 2.31"/><polygon class="cls-105" points="43.36 2.35 43.63 2.38 37.94 49.3 37.66 49.3 43.36 2.35"/><polygon class="cls-105" points="43.63 2.38 43.9 2.41 38.21 49.3 37.94 49.3 43.63 2.38"/><polygon class="cls-105" points="43.9 2.41 44.17 2.44 38.49 49.3 38.21 49.3 43.9 2.41"/><polygon class="cls-105" points="44.17 2.44 44.45 2.48 38.76 49.3 38.49 49.3 44.17 2.44"/><polygon class="cls-105" points="44.45 2.48 44.72 2.51 39.04 49.3 38.76 49.3 44.45 2.48"/><polygon class="cls-106" points="44.72 2.51 44.8 2.52 44.8 4.06 39.31 49.3 39.04 49.3 44.72 2.51"/><polygon class="cls-106" points="44.8 6.33 39.59 49.3 39.31 49.3 44.8 4.06 44.8 6.33"/><polygon class="cls-106" points="44.8 8.6 39.86 49.3 39.59 49.3 44.8 6.33 44.8 8.6"/><polygon class="cls-106" points="44.8 10.87 40.14 49.3 39.86 49.3 44.8 8.6 44.8 10.87"/><polygon class="cls-106" points="44.8 13.14 40.41 49.3 40.14 49.3 44.8 10.87 44.8 13.14"/><polygon class="cls-106" points="44.8 15.41 40.69 49.3 40.41 49.3 44.8 13.14 44.8 15.41"/><polygon class="cls-106" points="44.8 17.68 40.97 49.3 40.69 49.3 44.8 15.41 44.8 17.68"/><polygon class="cls-106" points="44.8 19.95 41.24 49.3 40.97 49.3 44.8 17.68 44.8 19.95"/><polygon class="cls-106" points="44.8 22.22 41.52 49.3 41.24 49.3 44.8 19.95 44.8 22.22"/><polygon class="cls-106" points="41.52 49.3 44.8 22.22 44.8 49.3 41.52 49.3"/></g></g><path class="cls-107" d="M102.25,16.68a13,13,0,0,0-2.86-4.4A13.38,13.38,0,0,0,92.9,8.76C67.88,18.5,58,38.78,54.53,49a13,13,0,0,0,3.1,5A13.45,13.45,0,0,0,64.3,57.6C89.58,47.44,99.09,26.47,102.25,16.68Z" transform="translate(0 0)"/><path class="cls-107" d="M92.4,8.26c-8.06-1.91-19.11,2.08-27.91,10.88C55.15,28.48,51.22,40.37,54,48.52,57.53,38.28,67.38,18,92.4,8.26Z" transform="translate(0 0)"/><path class="cls-107" d="M64.8,58.1c8,1.81,19-2.19,27.73-10.92,9.58-9.59,13.47-21.84,10.22-30C99.59,27,90.07,47.94,64.8,58.1Z" transform="translate(0 0)"/><path class="cls-107" d="M37.73,72.18a.8.8,0,0,1-.8-.8c0-5.14-6.43-6.36-6.5-6.38a.79.79,0,0,1-.64-.92.8.8,0,0,1,.93-.65c2.7.49,7.81,2.78,7.81,7.95A.8.8,0,0,1,37.73,72.18Z" transform="translate(0 0)"/><path class="cls-107" d="M46.52,72.18a.8.8,0,0,1-.8-.8,3.86,3.86,0,0,0-1.17-2.94c-2-1.94-5.92-1.83-6-1.83a.79.79,0,0,1-.83-.76.8.8,0,0,1,.77-.83c.19,0,4.62-.15,7.13,2.26a5.47,5.47,0,0,1,1.66,4.1A.8.8,0,0,1,46.52,72.18Z" transform="translate(0 0)"/><path class="cls-107" d="M52.91,72.18a.8.8,0,0,1-.8-.8c0-1.81-.4-3.07-1.17-3.65a2.28,2.28,0,0,0-1.78-.35.8.8,0,0,1-1-.55.79.79,0,0,1,.55-1,3.9,3.9,0,0,1,3.18.61c1.19.91,1.8,2.56,1.8,4.92A.8.8,0,0,1,52.91,72.18Z" transform="translate(0 0)"/><path class="cls-107" d="M59.3,72.18a.8.8,0,0,1-.8-.8c0-1.81-.4-3.07-1.17-3.65a2.27,2.27,0,0,0-1.78-.35.8.8,0,0,1-1-.55.79.79,0,0,1,.56-1,3.88,3.88,0,0,1,3.17.61c1.2.91,1.8,2.56,1.8,4.92A.8.8,0,0,1,59.3,72.18Z" transform="translate(0 0)"/><path class="cls-107" d="M64.9,72.18a.8.8,0,0,1-.8-.8c0-5.2-1.95-6.46-2-6.47a.81.81,0,0,1-.28-1.09.78.78,0,0,1,1.06-.3c.29.15,2.78,1.7,2.78,7.86A.79.79,0,0,1,64.9,72.18Z" transform="translate(0 0)"/><path class="cls-107" d="M70.49,72.18a.8.8,0,0,1-.8-.8c0-5.81,0-7.13,0-7.18a.8.8,0,0,1,1.6,0s0,1.37,0,7.14A.8.8,0,0,1,70.49,72.18Z" transform="translate(0 0)"/><path class="cls-107" d="M75.28,72.18a.8.8,0,0,1-.8-.8c0-6.33,3.58-7.84,3.73-7.9a.79.79,0,0,1,1,.44.8.8,0,0,1-.44,1c-.12.05-2.73,1.25-2.73,6.42A.8.8,0,0,1,75.28,72.18Z" transform="translate(0 0)"/><path class="cls-107" d="M88.86,72.18a.8.8,0,0,1-.8-.8c0-2.42.61-4.13,1.8-5.1a3.75,3.75,0,0,1,2.92-.75.8.8,0,0,1-.32,1.57,2.1,2.1,0,0,0-1.61.44c-.78.64-1.19,2-1.19,3.84A.8.8,0,0,1,88.86,72.18Z" transform="translate(0 0)"/><path class="cls-107" d="M81.67,72.18a.8.8,0,0,1-.8-.8c0-2.42.61-4.13,1.8-5.1a3.75,3.75,0,0,1,2.92-.75.8.8,0,0,1-.32,1.57,2.1,2.1,0,0,0-1.61.44c-.78.64-1.19,2-1.19,3.84A.8.8,0,0,1,81.67,72.18Z" transform="translate(0 0)"/><path class="cls-107" d="M95.25,72.18a.79.79,0,0,1-.79-.8,5.62,5.62,0,0,1,1.76-4.44,7.43,7.43,0,0,1,5.29-1.42.8.8,0,1,1-.21,1.59,5.82,5.82,0,0,0-4,1,4.09,4.09,0,0,0-1.22,3.23A.8.8,0,0,1,95.25,72.18Z" transform="translate(0 0)"/><path class="cls-107" d="M103.24,72.18a.8.8,0,0,1-.8-.8c0-6.47,8.34-7.89,8.7-7.95a.8.8,0,0,1,.25,1.58c-.07,0-7.35,1.26-7.35,6.37A.8.8,0,0,1,103.24,72.18Z" transform="translate(0 0)"/><g class="cls-2"><g class="cls-108"><polygon class="cls-25" points="25.16 38.19 29.46 40.13 15.62 70.92 13.91 70.15 13.91 38.19 25.16 38.19"/><rect class="cls-25" x="5.84" y="55.41" width="33.76" height="0.39" transform="translate(-37.31 53.52) rotate(-65.79)"/><polygon class="cls-26" points="29.82 40.28 30.17 40.44 16.37 71.12 16.07 71.12 15.97 71.08 29.82 40.28"/><polygon class="cls-27" points="30.17 40.44 30.52 40.6 16.8 71.12 16.37 71.12 30.17 40.44"/><polygon class="cls-28" points="30.52 40.6 30.87 40.76 17.22 71.12 16.8 71.12 30.52 40.6"/><polygon class="cls-29" points="30.87 40.76 31.22 40.92 17.64 71.12 17.22 71.12 30.87 40.76"/><polygon class="cls-30" points="31.22 40.92 31.57 41.08 18.06 71.12 17.64 71.12 31.22 40.92"/><polygon class="cls-31" points="31.57 41.08 31.92 41.23 18.49 71.12 18.06 71.12 31.57 41.08"/><polygon class="cls-32" points="31.92 41.23 32.28 41.39 18.91 71.12 18.49 71.12 31.92 41.23"/><polygon class="cls-33" points="32.28 41.39 32.63 41.55 19.33 71.12 18.91 71.12 32.28 41.39"/><polygon class="cls-34" points="32.63 41.55 32.98 41.71 19.75 71.12 19.33 71.12 32.63 41.55"/><polygon class="cls-35" points="32.98 41.71 33.33 41.87 20.18 71.12 19.75 71.12 32.98 41.71"/><polygon class="cls-36" points="33.33 41.87 33.68 42.02 20.6 71.12 20.18 71.12 33.33 41.87"/><polygon class="cls-37" points="33.68 42.02 34.03 42.18 21.02 71.12 20.6 71.12 33.68 42.02"/><polygon class="cls-38" points="34.03 42.18 34.38 42.34 21.45 71.12 21.02 71.12 34.03 42.18"/><polygon class="cls-39" points="34.38 42.34 34.74 42.5 21.87 71.12 21.45 71.12 34.38 42.34"/><polygon class="cls-40" points="34.74 42.5 35.09 42.66 22.29 71.12 21.87 71.12 34.74 42.5"/><polygon class="cls-41" points="35.09 42.66 35.44 42.81 22.71 71.12 22.29 71.12 35.09 42.66"/><polygon class="cls-42" points="35.44 42.81 35.79 42.97 23.14 71.12 22.71 71.12 35.44 42.81"/><polygon class="cls-43" points="35.79 42.97 36.14 43.13 23.56 71.12 23.14 71.12 35.79 42.97"/><polygon class="cls-44" points="36.14 43.13 36.49 43.29 23.98 71.12 23.56 71.12 36.14 43.13"/><polygon class="cls-45" points="36.49 43.29 36.85 43.45 24.4 71.12 23.98 71.12 36.49 43.29"/><polygon class="cls-46" points="36.85 43.45 37.2 43.6 24.83 71.12 24.4 71.12 36.85 43.45"/><polygon class="cls-47" points="37.2 43.6 37.55 43.76 25.25 71.12 24.83 71.12 37.2 43.6"/><polygon class="cls-48" points="37.55 43.76 37.9 43.92 25.67 71.12 25.25 71.12 37.55 43.76"/><polygon class="cls-49" points="37.9 43.92 38.25 44.08 26.09 71.12 25.67 71.12 37.9 43.92"/><polygon class="cls-50" points="38.25 44.08 38.6 44.24 26.52 71.12 26.09 71.12 38.25 44.08"/><polygon class="cls-51" points="38.6 44.24 38.96 44.4 26.94 71.12 26.52 71.12 38.6 44.24"/><polygon class="cls-52" points="38.96 44.4 39.31 44.55 27.36 71.12 26.94 71.12 38.96 44.4"/><polygon class="cls-53" points="39.31 44.55 39.66 44.71 27.79 71.12 27.36 71.12 39.31 44.55"/><polygon class="cls-54" points="39.66 44.71 40.01 44.87 28.21 71.12 27.79 71.12 39.66 44.71"/><polygon class="cls-55" points="40.01 44.87 40.36 45.03 28.63 71.12 28.21 71.12 40.01 44.87"/><polygon class="cls-56" points="40.36 45.03 40.71 45.19 29.05 71.12 28.63 71.12 40.36 45.03"/><polygon class="cls-57" points="40.71 45.19 41.06 45.34 29.48 71.12 29.05 71.12 40.71 45.19"/><polygon class="cls-58" points="41.06 45.34 41.42 45.5 29.9 71.12 29.48 71.12 41.06 45.34"/><polygon class="cls-59" points="41.42 45.5 41.77 45.66 30.32 71.12 29.9 71.12 41.42 45.5"/><polygon class="cls-60" points="41.77 45.66 42.12 45.82 30.74 71.12 30.32 71.12 41.77 45.66"/><polygon class="cls-61" points="42.12 45.82 42.47 45.98 31.17 71.12 30.74 71.12 42.12 45.82"/><polygon class="cls-62" points="42.47 45.98 42.82 46.13 31.59 71.12 31.17 71.12 42.47 45.98"/><polygon class="cls-63" points="42.82 46.13 43.17 46.29 32.01 71.12 31.59 71.12 42.82 46.13"/><polygon class="cls-64" points="43.17 46.29 43.53 46.45 32.43 71.12 32.01 71.12 43.17 46.29"/><polygon class="cls-65" points="43.53 46.45 43.88 46.61 32.86 71.12 32.43 71.12 43.53 46.45"/><polygon class="cls-66" points="43.88 46.61 44.23 46.77 33.28 71.12 32.86 71.12 43.88 46.61"/><polygon class="cls-67" points="44.23 46.77 44.58 46.92 33.7 71.12 33.28 71.12 44.23 46.77"/><polygon class="cls-68" points="44.58 46.92 44.93 47.08 34.13 71.12 33.7 71.12 44.58 46.92"/><polygon class="cls-69" points="44.93 47.08 45.28 47.24 34.55 71.12 34.13 71.12 44.93 47.08"/><polygon class="cls-70" points="45.28 47.24 45.64 47.4 34.97 71.12 34.55 71.12 45.28 47.24"/><polygon class="cls-71" points="45.64 47.4 45.99 47.56 35.39 71.12 34.97 71.12 45.64 47.4"/><polygon class="cls-72" points="45.99 47.56 46.34 47.72 35.82 71.12 35.39 71.12 45.99 47.56"/><polygon class="cls-73" points="46.34 47.72 46.69 47.87 36.24 71.12 35.82 71.12 46.34 47.72"/><polygon class="cls-74" points="46.69 47.87 47.04 48.03 36.66 71.12 36.24 71.12 46.69 47.87"/><polygon class="cls-75" points="47.04 48.03 47.23 48.12 47.23 48.55 37.08 71.12 36.66 71.12 47.04 48.03"/><polygon class="cls-76" points="47.23 49.48 37.51 71.12 37.08 71.12 47.23 48.55 47.23 49.48"/><polygon class="cls-77" points="47.23 50.42 37.93 71.12 37.51 71.12 47.23 49.48 47.23 50.42"/><polygon class="cls-4" points="47.23 51.37 38.35 71.12 37.93 71.12 47.23 50.42 47.23 51.37"/><polygon class="cls-5" points="47.23 52.3 38.77 71.12 38.35 71.12 47.23 51.37 47.23 52.3"/><polygon class="cls-6" points="47.23 53.24 39.2 71.12 38.77 71.12 47.23 52.3 47.23 53.24"/><polygon class="cls-7" points="47.23 54.19 39.62 71.12 39.2 71.12 47.23 53.24 47.23 54.19"/><polygon class="cls-8" points="47.23 55.13 40.04 71.12 39.62 71.12 47.23 54.19 47.23 55.13"/><polygon class="cls-9" points="47.23 56.06 40.47 71.12 40.04 71.12 47.23 55.13 47.23 56.06"/><polygon class="cls-10" points="47.23 57.01 40.89 71.12 40.47 71.12 47.23 56.06 47.23 57.01"/><polygon class="cls-11" points="47.23 57.95 41.31 71.12 40.89 71.12 47.23 57.01 47.23 57.95"/><polygon class="cls-12" points="47.23 58.88 41.73 71.12 41.31 71.12 47.23 57.95 47.23 58.88"/><polygon class="cls-13" points="47.23 59.83 42.16 71.12 41.73 71.12 47.23 58.88 47.23 59.83"/><polygon class="cls-14" points="47.23 60.77 42.58 71.12 42.16 71.12 47.23 59.83 47.23 60.77"/><polygon class="cls-15" points="47.23 61.7 43 71.12 42.58 71.12 47.23 60.77 47.23 61.7"/><polygon class="cls-16" points="47.23 62.65 43.42 71.12 43 71.12 47.23 61.7 47.23 62.65"/><polygon class="cls-17" points="47.23 63.59 43.85 71.12 43.42 71.12 47.23 62.65 47.23 63.59"/><polygon class="cls-18" points="47.23 64.53 44.27 71.12 43.85 71.12 47.23 63.59 47.23 64.53"/><polygon class="cls-19" points="47.23 65.47 44.69 71.12 44.27 71.12 47.23 64.53 47.23 65.47"/><polygon class="cls-20" points="47.23 66.41 45.11 71.12 44.69 71.12 47.23 65.47 47.23 66.41"/><polygon class="cls-21" points="47.23 67.34 45.54 71.12 45.11 71.12 47.23 66.41 47.23 67.34"/><polygon class="cls-22" points="47.23 68.29 45.96 71.12 45.54 71.12 47.23 67.34 47.23 68.29"/><polygon class="cls-23" points="47.23 69.23 46.38 71.12 45.96 71.12 47.23 68.29 47.23 69.23"/><polygon class="cls-78" points="47.23 70.17 46.8 71.12 46.38 71.12 47.23 69.23 47.23 70.17"/><polygon class="cls-79" points="47.23 71.11 47.23 71.12 46.8 71.12 47.23 70.17 47.23 71.11"/><polygon class="cls-80" points="47.23 71.12 47.23 71.11 47.23 71.12 47.23 71.12"/></g></g></g></g></svg>