<svg xmlns="http://www.w3.org/2000/svg" xmlns:xlink="http://www.w3.org/1999/xlink" viewBox="0 0 686.76 281.86"><defs><style>.cls-1{isolation:isolate;}.cls-11,.cls-2,.cls-3,.cls-6,.cls-8{opacity:0.8;}.cls-2{fill:url(#linear-gradient);}.cls-3{fill:url(#linear-gradient-2);}.cls-13,.cls-14,.cls-17,.cls-18,.cls-19,.cls-21,.cls-23,.cls-24,.cls-26,.cls-27,.cls-28,.cls-4,.cls-5{mix-blend-mode:multiply;}.cls-4{fill:url(#linear-gradient-3);}.cls-19,.cls-26,.cls-27,.cls-5{opacity:0.7;}.cls-5{fill:url(#linear-gradient-4);}.cls-6{fill:url(#linear-gradient-5);}.cls-7{fill:#001443;}.cls-8{fill:url(#linear-gradient-6);}.cls-15,.cls-20,.cls-22,.cls-9{opacity:0.4;}.cls-15,.cls-16,.cls-20,.cls-22,.cls-9{mix-blend-mode:screen;}.cls-9{fill:url(#linear-gradient-7);}.cls-10{fill:url(#linear-gradient-8);}.cls-11{fill:url(#linear-gradient-9);}.cls-12{fill:url(#linear-gradient-10);}.cls-13,.cls-18{opacity:0.2;}.cls-14{fill:url(#linear-gradient-11);}.cls-15{fill:url(#linear-gradient-12);}.cls-16{opacity:0.3;fill:url(#linear-gradient-13);}.cls-17{fill:url(#linear-gradient-14);}.cls-18{fill:url(#linear-gradient-15);}.cls-19{fill:url(#linear-gradient-16);}.cls-20{fill:url(#linear-gradient-17);}.cls-21{fill:url(#linear-gradient-18);}.cls-22{fill:url(#linear-gradient-19);}.cls-23{fill:url(#linear-gradient-20);}.cls-24{fill:url(#linear-gradient-21);}.cls-25{fill:url(#linear-gradient-22);}.cls-26{fill:url(#linear-gradient-23);}.cls-27{fill:url(#linear-gradient-24);}.cls-28{fill:url(#linear-gradient-25);}</style><linearGradient id="linear-gradient" x1="-2867.84" y1="7623.28" x2="-2291.15" y2="7623.28" gradientTransform="matrix(0.71, 0.32, 0.41, -0.91, -991.69, 7964.37)" gradientUnits="userSpaceOnUse"><stop offset="0.16" stop-color="#82bc3f" stop-opacity="0.8"/><stop offset="0.19" stop-color="#78b83f" stop-opacity="0.81"/><stop offset="0.34" stop-color="#4da741" stop-opacity="0.84"/><stop offset="0.5" stop-color="#2b9943" stop-opacity="0.87"/><stop offset="0.66" stop-color="#139044" stop-opacity="0.89"/><stop offset="0.83" stop-color="#058a45" stop-opacity="0.9"/><stop offset="1" stop-color="#008845" stop-opacity="0.9"/></linearGradient><linearGradient id="linear-gradient-2" x1="284.7" y1="2090.75" x2="365.49" y2="2090.75" gradientTransform="translate(108.95 -1990.61) rotate(6.92)" xlink:href="#linear-gradient"/><linearGradient id="linear-gradient-3" x1="-1194.32" y1="10983.02" x2="-1081.99" y2="10983.02" gradientTransform="matrix(0.98, 0.22, 0.22, -0.98, -1075.2, 11058.5)" gradientUnits="userSpaceOnUse"><stop offset="0.16" stop-color="#1173be" stop-opacity="0.9"/><stop offset="1" stop-color="#17a8e2" stop-opacity="0.8"/></linearGradient><linearGradient id="linear-gradient-4" x1="-294.45" y1="7660.76" x2="-162.36" y2="7660.76" gradientTransform="matrix(0.91, 0.41, 0.41, -0.91, -2567.98, 7255.62)" xlink:href="#linear-gradient-3"/><linearGradient id="linear-gradient-5" x1="1206.1" y1="3071.29" x2="1473.52" y2="3071.29" gradientTransform="matrix(0.67, 0.74, 0.74, -0.67, -2896.42, 1300.2)" xlink:href="#linear-gradient"/><linearGradient id="linear-gradient-6" x1="-358.14" y1="7619.49" x2="-244.24" y2="7619.49" gradientTransform="matrix(0.91, 0.41, 0.41, -0.91, -2567.98, 7255.62)" xlink:href="#linear-gradient"/><linearGradient id="linear-gradient-7" x1="-367.71" y1="7675.14" x2="-181.45" y2="7675.14" gradientTransform="matrix(0.91, 0.41, 0.41, -0.91, -2567.98, 7255.62)" xlink:href="#linear-gradient-3"/><linearGradient id="linear-gradient-8" x1="4209.89" y1="-2789.39" x2="4375.08" y2="-2789.39" gradientTransform="matrix(-0.17, 0.99, 0.99, 0.17, 3884.81, -3445.6)" xlink:href="#linear-gradient"/><linearGradient id="linear-gradient-9" x1="5150.66" y1="15751.66" x2="5251.71" y2="15751.66" gradientTransform="translate(17087.26 413.98) rotate(109.38)" xlink:href="#linear-gradient"/><linearGradient id="linear-gradient-10" x1="419.62" y1="185.73" x2="487.18" y2="185.73" gradientTransform="matrix(1, 0, 0, 1, 0, 0)" xlink:href="#linear-gradient"/><linearGradient id="linear-gradient-11" x1="11690.84" y1="-4812.41" x2="12043.21" y2="-4812.41" gradientTransform="matrix(-0.73, 0.68, 0.68, 0.73, 12269.52, -4397.83)" xlink:href="#linear-gradient-3"/><linearGradient id="linear-gradient-12" x1="4130.21" y1="-2848.56" x2="4272.66" y2="-2848.56" gradientTransform="matrix(-0.17, 0.99, 0.99, 0.17, 3884.81, -3445.6)" xlink:href="#linear-gradient-3"/><linearGradient id="linear-gradient-13" x1="13015.06" y1="13991.9" x2="13656.71" y2="13991.9" gradientTransform="matrix(-0.67, 0.39, -0.51, -0.86, 16567.24, 7026.45)" gradientUnits="userSpaceOnUse"><stop offset="0.16" stop-color="#1374ad" stop-opacity="0.8"/><stop offset="1" stop-color="#1173be" stop-opacity="0.9"/></linearGradient><linearGradient id="linear-gradient-14" x1="12029.67" y1="14047.03" x2="12236.92" y2="14047.03" gradientTransform="translate(18057.01 6150.33) rotate(149.54)" gradientUnits="userSpaceOnUse"><stop offset="0.16" stop-color="#e98500"/><stop offset="0.34" stop-color="#ec9200"/><stop offset="0.68" stop-color="#f5b500"/><stop offset="1" stop-color="#fedb00"/></linearGradient><linearGradient id="linear-gradient-15" x1="12197.51" y1="14789.04" x2="12407.62" y2="14789.04" gradientTransform="translate(16987.07 10093.11) rotate(160.97)" xlink:href="#linear-gradient-14"/><linearGradient id="linear-gradient-16" x1="12111.19" y1="14031.03" x2="12258.15" y2="14031.03" xlink:href="#linear-gradient-14"/><linearGradient id="linear-gradient-17" x1="9985.89" y1="13889.94" x2="10283.43" y2="13889.94" gradientTransform="translate(17735.21 194.54) rotate(125.79)" xlink:href="#linear-gradient-3"/><linearGradient id="linear-gradient-18" x1="14010.83" y1="-307.89" x2="14100.72" y2="-307.89" gradientTransform="matrix(-0.97, 0.23, 0.23, 0.97, 14389.47, -2749.55)" xlink:href="#linear-gradient-3"/><linearGradient id="linear-gradient-19" x1="12040.33" y1="13985.11" x2="12167.05" y2="13985.11" gradientTransform="translate(18057.01 6150.33) rotate(149.54)" xlink:href="#linear-gradient-3"/><linearGradient id="linear-gradient-20" x1="-3013.15" y1="7544.94" x2="-2436.46" y2="7544.94" gradientTransform="matrix(0.71, 0.32, 0.41, -0.91, -991.69, 7964.37)" xlink:href="#linear-gradient-14"/><linearGradient id="linear-gradient-21" x1="153.49" y1="2131.96" x2="234.28" y2="2131.96" gradientTransform="translate(108.95 -1990.61) rotate(6.92)" xlink:href="#linear-gradient-14"/><linearGradient id="linear-gradient-22" x1="-471.17" y1="7541.15" x2="-357.27" y2="7541.15" gradientTransform="matrix(0.91, 0.41, 0.41, -0.91, -2567.98, 7255.62)" xlink:href="#linear-gradient-14"/><linearGradient id="linear-gradient-23" x1="-1320.64" y1="10928.64" x2="-1208.31" y2="10928.64" gradientTransform="matrix(0.98, 0.22, 0.22, -0.98, -1075.2, 11058.5)" xlink:href="#linear-gradient-14"/><linearGradient id="linear-gradient-24" x1="-420.35" y1="7580.58" x2="-288.27" y2="7580.58" gradientTransform="matrix(0.91, 0.41, 0.41, -0.91, -2567.98, 7255.62)" xlink:href="#linear-gradient-3"/><linearGradient id="linear-gradient-25" x1="1134.2" y1="2954.06" x2="1401.61" y2="2954.06" gradientTransform="matrix(0.67, 0.74, 0.74, -0.67, -2896.42, 1300.2)" xlink:href="#linear-gradient-14"/></defs><g class="cls-1"><g id="Layer_1" data-name="Layer 1"><path class="cls-2" d="M314.46,206.71c15.18,1.42,29.46,2.58,42.89,3.57-3-5-5.71-9.92-8.06-14.72q-20.61-3.76-43.27-8.34A175.45,175.45,0,0,0,314.46,206.71Z"/><path class="cls-3" d="M149.46,77c-5.7,27.31-12.46,54.47-14.24,82.27,27.53,4.89,53.47,8.9,77.55,12.14A149.6,149.6,0,0,1,221,119.59,715,715,0,0,1,149.46,77Z"/><path class="cls-4" d="M224.58,114.94a338.41,338.41,0,0,1-36.32-27.28,122.31,122.31,0,0,1,6.65-26.22,178.79,178.79,0,0,0,32.2,44.69C226.17,109,225.32,112,224.58,114.94Z"/><path class="cls-5" d="M307.31,162.05q12.6,4,24.77,7.71a113.67,113.67,0,0,1,.21-22.5q-11.21-4.72-22.62-9.79A118.81,118.81,0,0,0,307.31,162.05Z"/><path class="cls-6" d="M202,205.52c20.75-1,39.19-2.35,55.9-3.79a166.18,166.18,0,0,1,1.45-43.32c-16-10.17-33-21.3-51-33.55C201.11,146.54,198,173.19,202,205.52Z"/><path class="cls-7" d="M334.06,193.4c-.82-2.39-4.17-4.19-7.22-4.53-.79-.09-1.55.17-2.37.11A20.9,20.9,0,0,1,321,187.9a21.93,21.93,0,0,1-3.45-1.19,19.29,19.29,0,0,1-1.61-1.18c-.49-.35-1.46-.7-1.73-1.08a9,9,0,0,1-.54-3,40.35,40.35,0,0,1,.22-5.82c.4-5.59,1.62-10.57,2.05-16.07a70.44,70.44,0,0,0,.32-11.54c-.16-1.85-.52-3.59-.65-5.39-.22-3,.57-6.85-.32-9.38-.25-.7-1.19-1.26-1.4-1.83s0-1.11-.11-1.62a8.49,8.49,0,0,0-.76-1.84c-1-1.77-2.87-3.16-3.55-5.07-.26-.7-.29-1.57-.54-2.37-.48-1.5-.93-2.92-1.51-4.31a9.73,9.73,0,0,1-.86-2c-.07-.62.31-1.22.32-1.72a7.4,7.4,0,0,0-2.05-4.86c-.46-.47-1.08-.75-1.51-1.18-.65-.66-1.18-1.58-1.83-2.38s-1.3-1.53-1.95-2.26a25.66,25.66,0,0,0-5.6-5.07,10.2,10.2,0,0,0,1.29-4.85c.34-.24.58.38,1.19.22.79-2.26,1.9-4.1,2.05-6.69a85.24,85.24,0,0,1,.64-8.84c.43-2.66,1.11-5.21,1.73-7.88A66.09,66.09,0,0,0,303,56.56c.07-1.5.21-3,.32-4.53A29.92,29.92,0,0,0,302,41.78c.8.34,2.35.4,2.38-.64-.76-.79-2.77-.33-2.91-1.73.78,0,1.84-.21,3.12-.11.95.08,3,.51,2.59-.86-.16-.5-1.43-.52-2.16-.65a11,11,0,0,1-2.37-.54c.78-.69,2.12-.52,3.45-.64.38,0,.74-.21,1.08-.22.64,0,1.27.29,1.83.11s.81-.43,1-1.19a6.57,6.57,0,0,0-3.12-.54c.07-.4.53-.4.43-1,1.5,0,2.88-.5,2.8-1.72-3.22-.29-5.25.92-7.76,1.18-.37,0-.72,0-1.08,0s-1,.48-1.51.33c-.69-.23-1-1.79-1.29-2.27s-.68-.86-1.08-1.4-1.08-1.06-1.08-1.4.64-.85.86-1.29c.4-.81.68-1.9,1-2.38.41-.67,1.14-1.17,1.51-1.83a11.29,11.29,0,0,0,.44-1.18c.08-.2.12-.83.53-.65-.3-1,.29-1.46.54-2.27.07-.23.13-.46.18-.68a1.45,1.45,0,0,0,.17.26,1.53,1.53,0,0,1-.07-.66l0-.14a3.69,3.69,0,0,0,1,.37,4.27,4.27,0,0,1-.91-.71,0,0,0,0,1,0,0,1.32,1.32,0,0,0,.63.3,1.67,1.67,0,0,1-.55-.54c.09-.24.17-.48.24-.71a1.93,1.93,0,0,0,.81.79,2.72,2.72,0,0,1-.64-1.32,0,0,0,0,0,0,0l0,.12c0,.07,0,.13.08.15a2.1,2.1,0,0,0,.88,1,2.68,2.68,0,0,1-.58-1.24c0-.17-.08-.34-.12-.51a.23.23,0,0,1,.14.07l0,0,.16.39a.72.72,0,0,0,.11.3,9.15,9.15,0,0,0,.58,1.28c-.11-.6-.15-1.2-.26-1.82a4.2,4.2,0,0,0-.31-1v0l0,0a4.64,4.64,0,0,0,1.14,2,6.44,6.44,0,0,1-.57-1.72.3.3,0,0,1,.11,0,1.85,1.85,0,0,0,.61.66,3.7,3.7,0,0,0,1.85.44,5,5,0,0,1-1.55-.83,1.33,1.33,0,0,1-.39-.63,3.23,3.23,0,0,1,0-.47,2.14,2.14,0,0,0,.13.19,2.44,2.44,0,0,0,1.15.95,2.13,2.13,0,0,0,1.41,0,2.17,2.17,0,0,1-1.23-.35,2.33,2.33,0,0,1-.71-.94,1.89,1.89,0,0,0-.11-.25c-.13-.31-.24-.65-.36-1h0c.09.12.18.23.28.34a2.49,2.49,0,0,1,.08.32l.27.19a6.87,6.87,0,0,0,.45.65,1.76,1.76,0,0,0,1.1.81,1.78,1.78,0,0,1-.75-1c-.1-.23-.17-.46-.27-.7a2.17,2.17,0,0,0,.52.38,1.52,1.52,0,0,0,1.42,0,1.38,1.38,0,0,1-1.18-.38,2.62,2.62,0,0,1-.63-1c-.08-.22-.1-.37-.2-.64s-.13-.42-.2-.64a4.19,4.19,0,0,0-.66-1.37,2.9,2.9,0,0,0-.52-.53,5.25,5.25,0,0,1,2.36.22,3.17,3.17,0,0,0-2.1-.69,2,2,0,0,1-.55-.43,3.9,3.9,0,0,0,.46.12,2.33,2.33,0,0,0,1.52-.13,2.57,2.57,0,0,1-.92-.08l0,0a6.22,6.22,0,0,1-2-1c-.89-.7.86-.21,1-.23a.23.23,0,0,0-.07-.14.73.73,0,0,0,.25,0,2.5,2.5,0,0,0,.9-.43,1.94,1.94,0,0,1-1.74-.13,4.34,4.34,0,0,0-1.78-1l-.25,0a1.79,1.79,0,0,0-.22-.25.37.37,0,0,1,.2-.11l.24,0a2.1,2.1,0,0,1,.58.32c0-.06,0-.16-.09-.26a5.52,5.52,0,0,0,1.52,0,8,8,0,0,1-1.25-.35h0A1.74,1.74,0,0,0,303.45,4a1.81,1.81,0,0,1-1.14.13c-.12-.07-.06-.19,0-.33-.21,0-.49-.08-.78-.15A2.45,2.45,0,0,0,303,3a3,3,0,0,1-2.21.1c-.28-.07-.56-.16-.84-.26a1.32,1.32,0,0,0-.65-.46,4.74,4.74,0,0,1-.84-.23c-.17,0,0-.24-.19-.29a5.91,5.91,0,0,1-1.63-.65,2,2,0,0,0-1.34-.55,1,1,0,0,1-.65-.08c-.19-.09-.22.13-.37.15a2.36,2.36,0,0,1-.74-.38l0,0h0a1.19,1.19,0,0,1-.23-.31,1.07,1.07,0,0,0,.11.33,3.58,3.58,0,0,0-.42.25,1.1,1.1,0,0,0-.57,0,.92.92,0,0,1-.28,0,1,1,0,0,1-.34-.32.67.67,0,0,0,.1.23.6.6,0,0,1-.33.3c-.24.1-.45.15-.58.34a3,3,0,0,0-.94,0,4,4,0,0,0-2.26,1.32l-.21.21c-.28,0-.24.17-.51.34s-.2.12-.2.16c-.28.09-.58-.21-.74-.55a1.4,1.4,0,0,0,.21.6.65.65,0,0,0,.28.23,9,9,0,0,0-2.26,3.77,6.09,6.09,0,0,0-.25.83c0,.09-.05.18-.07.28a4.8,4.8,0,0,1-.33,1,5.71,5.71,0,0,0-.53,1.52,4,4,0,0,1-.47,1.63l-.06.06a3,3,0,0,0-1,1.59,3.05,3.05,0,0,0-.32,1.19h.07a6.64,6.64,0,0,0-.05,1c0,.54.38,1.11.32,1.61-.07.65-1.24,1.83-1.72,2.16-.3.2-.67.21-1,.43-.73.53-1.31,1.33-2,1.94a25.23,25.23,0,0,0-2.16,1.94c-2.66,2.8-5.75,5.23-7.65,8.52a15,15,0,0,0-1.62,4.53c-.12.54-.14,1.16-.32,1.73-.51,1.55-1.55,1.87-2.59,2.8-.85.75-1.6,1.82-2.48,2.7a27.35,27.35,0,0,0-2.48,2.69c-1.57,2-2.53,4.58-4.1,6.36-.5.57-1.94,1.45-2,2s.23.9.22,1.18c-1.38,1.15-1.93,2.62-3.24,3.67-1.16.92-2.6,1.5-3.66,2.58-.31.32-.63.84-1,1.3a11.26,11.26,0,0,0-1.61,3.34,10.33,10.33,0,0,0-.76,3.67,109.21,109.21,0,0,0,1,14.12c.19,1.49.42,3,.54,4.53a32.54,32.54,0,0,1,.43,4.64,19.32,19.32,0,0,1-1.18,3.45,17.25,17.25,0,0,0-.87,3.78,31.89,31.89,0,0,1,0,3.66c-.16.78-.53.72-.75,1.51a13.43,13.43,0,0,1-.22,1.62c-.22.81-1.87,4.4-.32,4.53,1.17.1,1.05-2.41,1.73-3.13.92.55.48,1.14.1,1.73s-1,1.17-1.29,1.72c-.52,1-.77,2-1.29,2.81a29.13,29.13,0,0,1-2.05,2.26,61.08,61.08,0,0,0-4.1,4.75c-.52.69-1.45,2.32-1.94,2.48a6.11,6.11,0,0,1-1.4-.11c-.53,0-1.1.07-1.51,0a16.31,16.31,0,0,1-2.27-1,11.39,11.39,0,0,0-2.69-.65,11.86,11.86,0,0,0-7,1.73c-.57.32-.93.92-1.51,1.29s-1.12.5-1.62.75a74,74,0,0,1-12,5.18c-1.78-2.17-4.91-2.11-7.12-.86a14.55,14.55,0,0,0-2.8,2.58,72.28,72.28,0,0,1-5.39,5.4,20.32,20.32,0,0,1-3.13,2.37c-.6.31-1.43.42-1.83.65-1.08.6-1.85,2.07-2.7,3.34-.63.94-2.14,2.59-2.37,3.67a14.26,14.26,0,0,0,.11,2c0,.78-.18,1.48-.11,2.05a6.74,6.74,0,0,0,4.64,5.4c1.49.48,4.21-.31,5.5-.87a15.3,15.3,0,0,0,3.77-2.48,26.29,26.29,0,0,0,5.07-5.82,3.89,3.89,0,0,1,1.4-1.62c.25-.19.52-.5.76-.65.39-.24.89-.26,1.29-.53,1.14-.78,1.72-2.17,2.37-2.59a12.24,12.24,0,0,1,2.91-.87,69.67,69.67,0,0,1,9.49-2c3.45-.43,7.36-.36,10.46-1a31.61,31.61,0,0,1,3.13-.75A19,19,0,0,1,230,141c4.11.31,7.49-1.17,8.74-3.77a3.78,3.78,0,0,1,1.4-1.62c.35-.28.75-.57,1.08-.86,2.07-1.87,4.12-3.69,6-5.61s3.67-3.94,5.6-6c.55-.59,1.64-2,1.94-2s1.25.93,1.62,1.19c.62.43,1.25,1,1.83,1,1.1-.09,1.43-1.75,1.94-2.7a23.54,23.54,0,0,1,2.48-3c2.44-3,5-6.58,7.23-9.27.6,1.57,2,2.52,3,3.67,2.23,2.38,3.54,5.45,5.39,8.08a35.35,35.35,0,0,1,2.91,3.88c.24.47.26,1.08.54,1.51,1.6,2.48,6,2.65,9.28,2a9.65,9.65,0,0,1,2.48-.54c.62.08,1.37,1,1.94,1.72,1.27,1.57,2.3,2.39,3.55,3.78a6.81,6.81,0,0,1,1.51,2.26c0,.23-.21.69-.21,1,0,.72.28,1.6.32,2.48a20.24,20.24,0,0,1-1,7.87c-.24.8-.4,1.66-.65,2.48s-.68,1.53-.86,2.27c-1.08,4.73.11,9.33.86,13.37,1.3,6.9,2.75,14.79,2.06,22.75-1.85,0-1.09,1.4-1.3,3.13a5.53,5.53,0,0,1-.32,1.29c-.23.56-.83.91-1.08,1.62a18.16,18.16,0,0,0-.43,3c-.08.52-.17,1-.22,1.51s.07,1.23,0,1.62-.68.93-.54,1.29c.08.2.76.41.86.43,1.1.27,1.88.23,2.38.76s.39,1.14.65,1.4c.51.52,3.38,1,4.53.65.93-.27.88-1.24,1.93-1.08.81.12.58.76,1.41.86a1.71,1.71,0,0,0,1.61-.54c.33-.28.39-.42.76-.54a12.34,12.34,0,0,1,2.26-.21,7.52,7.52,0,0,1,2.38-.11,1.75,1.75,0,0,1,.64.43,3.14,3.14,0,0,0,2.59.54c.49-.13.68-.73,1.3-.86a3.49,3.49,0,0,1,1.5.11c.29.13.27.45.44.64a4.59,4.59,0,0,0,3.34.54c.62-.15.94-.92,1.51-1,.76-.07.9.59,1.61.43s.64-1,1.3-1.29c.39-.15,1,.13,1.29,0,.58-.24.49-.81,1-1.3.24-.24.66-.27.86-.43,1.09-.85.22-1.32.32-2.26,0-.33.35-.53.43-.76A6.1,6.1,0,0,0,334.06,193.4ZM303.42,8.73V9a1.46,1.46,0,0,1-.07-.19ZM266.45,64a37.93,37.93,0,0,1-3.23,8.62c-.76,1.41-1.39,2.84-2.05,3.89-.34.53-1.34,1.31-1.3,1.83s.48.39.54.75c-1.16,1.33-1.62,3.33-2.37,5.18-.24.59-.58,1.13-.76,1.72s-.12,1.34-.32,2-.67,1-.86,1.51-.11,1.17-.33,1.72c-.72,1.9-3.1,3-4.63,4.21a82.73,82.73,0,0,1-.86-20.92,20.19,20.19,0,0,1,.32-3.56,6.13,6.13,0,0,1,1.72-2.05c1.72-1.49,3.36-2.09,5.5-3.45.36-.23.82-.74,1-.76.4,0,.91.47,1.3.44.6-.06,1.3-1.06,1.83-1.73,1.15-1.44,2.21-2.54,3.34-3.77.75-.82,1.29-1.46,1.84-2.16a8.9,8.9,0,0,1,.75,1.94C267.92,60.52,266.85,62.49,266.45,64Z"/><path class="cls-8" d="M229.76,190.66a152.13,152.13,0,0,1,11.79-57c14.62,6.92,29.22,13.39,43.65,19.44a144.33,144.33,0,0,0,8.37,43.62C273.81,195.17,252.56,193.21,229.76,190.66Z"/><path class="cls-7" d="M264.88,189a13.73,13.73,0,0,0-3.56-9.4h0l-.06-.06h0a13.63,13.63,0,0,0-9.06-4.39h-.12a13.76,13.76,0,0,0-2.13,0l-.32,0a12.11,12.11,0,0,0-2.08.39l-.26.08a13.52,13.52,0,0,0-2,.76l-.11.06a13.08,13.08,0,0,0-1.87,1.1s-.08,0-.11.07h0a13.67,13.67,0,0,0-4.43,5.29,14,14,0,0,0-.62,1.58.13.13,0,0,1,0-.06c0,.14-.07.27-.11.4-.1.31-.19.62-.26.94s-.07.38-.11.57-.1.58-.13.88c0,.09,0,.18-.05.27l0-.05a13.77,13.77,0,0,0,1.71,8.12l0,0,.06.1a13.56,13.56,0,0,0,1,1.45c.07.1.16.2.24.3a12.32,12.32,0,0,0,1,1.14,2.5,2.5,0,0,0,.23.23,12.94,12.94,0,0,0,1.39,1.16l.31.2a13.32,13.32,0,0,0,1.42.85l.18.11h0l.25.13a13.71,13.71,0,0,0,10.55.5h0l.07,0h0a13.64,13.64,0,0,0,7.28-6.28h0c.13-.24.25-.48.37-.73a14.15,14.15,0,0,0,.55-1.35c.06-.16.1-.33.15-.49s.18-.59.25-.89a5.54,5.54,0,0,0,.11-.56c.06-.28.11-.56.15-.83s0-.39.05-.58.05-.55.05-.82a1.11,1.11,0,0,1,0-.19Z"/><path class="cls-9" d="M237,120.41c25.15,14.65,51,27.8,76.67,39.78a116.78,116.78,0,0,1,3.57-22.55,515.19,515.19,0,0,1-56.88-49.52A198.56,198.56,0,0,0,237,120.41Z"/><path class="cls-10" d="M418.35,249.44q-.9,16.55-1.5,32.42A142.1,142.1,0,0,1,444.14,275q2.17-15,4.7-30.46A149.5,149.5,0,0,0,418.35,249.44Z"/><path class="cls-11" d="M567.85,68.4C536,54.07,504.69,38.49,471.23,28.81c-13.41,32.29-25.3,62.89-35.77,91.43a187,187,0,0,1,61.11,24.07A893.76,893.76,0,0,1,567.85,68.4Z"/><path class="cls-12" d="M435.46,133.05c-9.77,35.08-9.47,70.5-15.84,105.36A146.36,146.36,0,0,1,448,235.59c12.55-30.33,23.68-53.92,39.14-79.75C472.83,148.61,463.62,140,435.46,133.05Z"/><g class="cls-13"><path class="cls-14" d="M347,60.44c1.78,27.31,3.93,51.58,6.18,73.57a218.69,218.69,0,0,1,57.1,1c13.07-21.29,27.38-44,43.13-67.89C424.68,58.09,389.51,54.53,347,60.44Z"/></g><path class="cls-7" d="M405.27,152.43a38.62,38.62,0,0,1,6.84,2.07,14.36,14.36,0,0,0,7.42,9c8.76,4.07,20.56-2.75,26.36-15.24s3.4-25.91-5.35-30a14,14,0,0,0-10.39-.35l-1.5.67c-.23-.59-.7-.24-1.64-.12s-2.24-.47-4.7-5.64-6.82-9.28-9.64-12.46S408,90,407.27,87.45s.47-8.58.58-12.34-3.4-8.22-3.4-8.22c-.12-2,1.76-10.7,1.76-10.7,1.17-4.34-.12-10.34-.12-10.34,5.41-2.7,6.58-6.58,3.41-9.87s-13.63-6.34-13.63-6.34c-7.87-2.82-14.69-.35-16.45,1.64s-2.59,2.12-2.59,2.12c-4.34,1.29-2.11,8-2.11,10.93s.59,8.69.59,8.69c-3.76-1.41-3.29,4.7-3.29,4.7-6,.08-17.71,15.43-17.71,15.43-3.13,4.7-10.18,14.42-13.16,21.47a137.1,137.1,0,0,0-7.21,24.91,93,93,0,0,0-1.41,15c-6.11,7.36-4.54,21.78-4.54,21.78-3.76,1.56-2.35,7.67-3,12.37s3.29,5.49,3.29,5.49,1.41,9.55,2.82,14.57,2.67,2.66,2.67,2.66c-.94,3.6,1.68,11,1.68,11a8.27,8.27,0,0,0-6.46,2.59c-2.59,2.94-7.29,3.64-7.29,3.64s-.23-3.05-1.52-4.23-8.11-3.52-11.05,3.29c0,0-.35,1.29.71,7,0,0,.47,8.23-.24,9.75s-2.23,6.47,1.29,13.52,6.23,7.75,9,8c0,0,6.46.23,6.7-5.53,0,0,.24-12.1.35-14.57a10.08,10.08,0,0,1,4.47.47c2.7.83,7.28,1.3,10.57-.58a22.82,22.82,0,0,1,6.7.82c2.7.94,8.22,1.29,10.57-2.7a9.78,9.78,0,0,0,4.35-6.23c.82-4.23.35-4.23,1.41-8.81l.36-16.22s3.76.94,4.93-1.64,1.29-8,1.29-8,1.65,2.46,6.82,4.34c0,0,6.7,3.29,9.87,5.17,0,0,8.81,5.53,10.46,8.23s2.7,3.76,2.7,8.93.35,15.63,7.17,24.44a73,73,0,0,1,4.11,9.63c.94,3.41,5.29,9.64,5.52,14a31.81,31.81,0,0,0,1.41,7.75,25.31,25.31,0,0,0-.12,6.58c.47,2.7-2,8.23,7.52,5.88a2.35,2.35,0,0,1,2.59,1.88s1.41,2.47,6.93-2.23c0,0,5.05-3.18,10-1.06a2.11,2.11,0,0,0-.47-2.59c-1.29-1.05-4-2.23-6.82-5.64s-6.81-7.87-6.81-7.87,5.05-4.93.12-.94c0,0-.94,1.06-1.88-.59s-2.12-.23-2.24-5.28-.23-14.22-.7-17.75-.59-10.34-1.88-17.27-2.35-13.87-8.23-20.8a69.93,69.93,0,0,0-2.35-11.63c-1.76-5.88-.82-12.34-6.58-20.8S399,153.72,399,153.72v-1.17A16.9,16.9,0,0,1,405.27,152.43Zm-10.38-13-5.48.16v-2.66l-2.2.15.94-9.24c-.47-5.17,3.61-9.24,4.55-12.38l1.88-6.26a61.77,61.77,0,0,0,6.73,7.83s5.8,6.74,8.46,7.68,8,2.72,8,2.72a36,36,0,0,0-3.61,6.09s-5.5,3.41-7.07,5.13-4.07-.31-4.07-.31A9,9,0,0,1,394.89,139.42Z"/><path class="cls-15" d="M351.75,163.37a190.29,190.29,0,0,1,72.7-3.75c-3.74,19.88-6.95,39.58-9.72,59A180.45,180.45,0,0,0,364.6,242.5C360.23,218.1,355.89,191.77,351.75,163.37Z"/><path class="cls-16" d="M524,245.51q-24.93,5.1-47,9.14c2.76-5.91,5.12-11.67,7.13-17.26q22.34-6.66,46.85-14.47A195.69,195.69,0,0,1,524,245.51Z"/><path class="cls-17" d="M576.66,156.54c-26,19.25-53,36.92-80,53.27A130.45,130.45,0,0,0,490,185.3a573.54,573.54,0,0,0,56.92-61.65A221.08,221.08,0,0,1,576.66,156.54Z"/><path class="cls-18" d="M574.92,154.09a634.25,634.25,0,0,0,62-58.11,228.75,228.75,0,0,0-17.71-47.4c-10.56,28.34-26.34,58.3-50.78,89.64C570.76,143.39,572.94,148.68,574.92,154.09Z"/><path class="cls-19" d="M504,211.1q-13.45,6-26.46,11.53a127.37,127.37,0,0,0-2.95-24.86q11.81-6.59,23.83-13.57A133.45,133.45,0,0,1,504,211.1Z"/><path class="cls-20" d="M625.75,246.42c-23.07,1.39-43.63,2.15-62.29,2.58a184.63,184.63,0,0,0-6.85-47.74C573.08,188.07,590.56,173.7,609,158,619.53,181.09,626.22,210.18,625.75,246.42Z"/><path class="cls-7" d="M557.58,79.09a6,6,0,0,0,1.83-.84S558.71,78.61,557.58,79.09ZM600.4,227.52c-10,1.55-18.94-12.37-18.94-12.37-5-12-15.47-13.92-15.47-13.92l19.72-22.43a13.7,13.7,0,0,1,9.67-6.19c-1.55-5.41,9.28-5,9.28-5-1.94-17.78-15.47-33.25-15.47-33.25-5-4.26-14.31-24-14.31-24-6.57-13.15-24.75-12.76-24.75-12.76,2.31-10.37-2.69-14.52-5.38-16,3.82,1,9.83-1.25,12.83-2.54-5,1.3-9-5.48-9-5.48-5.81-9.28-11.22-7-11.22-7-7.35,0-1.93,10.83-1.93,10.83-3.48,0-8.9,7-8.9,7-4.25,8.51,1.94,10.06,1.94,10.06l1.93,3.86c1.16,6.19,3.87,7.74,3.87,7.74-5,1.16-4.26,9.28-4.26,9.28.78,8.12.78,24.75.78,24.75-2.32,1.54-5.8,17-5.8,17-2.71.78-4.64,3.87-4.64,3.87l-66.13-20.88c-3.87-.78-1.55-3.1-1.55-3.1,9.28-8.5-3.86-5.8-3.86-5.8-9.67,10.83,6.18,15.08,6.18,15.08l63,19.34c.77,5,8.89,4.25,8.89,4.25,9.28,9.67,15.47,3.1,15.47,3.1l8.89,2.32-3.87,24c-1.54,8.51,5,11.22,5,11.22l-1.93,25.13c-4.64,10.45-17.79,10.83-17.79,10.83-6.57,1.55-3.87,6.19-3.87,6.19,7,8.12,20.11.39,20.11.39a20.57,20.57,0,0,0,9.28-3.48c5-1.94,1.16-10.83,1.16-10.83,3.1-3.87,7.74-18.18,7.74-18.18,12.37,5.8,19.72,16.63,19.72,16.63-.39,5,3.87,9.67,3.87,9.67l-1.16,7.35c-1.16,5.8,3.86,4.25,3.86,4.25,7.35-3.09,7-15.08,7-15.08C609.3,227.14,600.4,227.52,600.4,227.52Zm-47.95-56.46-7-1.54-.38-4.64,9.28-6.58Zm-3.09-19.72s-5.8,6.58-10.44,8.9l-7.74,3.48-.38-3.87s10.05-10,8.5-17.4l.78-17s6.18,7,12,9.28l5.8,6.58Zm-48.41,91a5.48,5.48,0,1,1-5.47-5.47A5.47,5.47,0,0,1,501,242.31Z"/><path class="cls-21" d="M661.05,97.29c9.61,29.52,20.37,58.73,25.71,89.26-29.85,8.75-58.06,16.32-84.3,22.83A166.66,166.66,0,0,0,587.05,153,793.85,793.85,0,0,0,661.05,97.29Z"/><path class="cls-22" d="M593.19,233.36a169.32,169.32,0,0,0-19.94-61.62c-15.34,9.42-30.7,18.34-45.92,26.79a160.83,160.83,0,0,1-4,49.25C545,243.68,568.28,238.93,593.19,233.36Z"/><path class="cls-23" d="M179.24,231.81c15.18,1.42,29.46,2.58,42.89,3.57-3-5-5.71-9.92-8-14.72q-20.61-3.76-43.28-8.34A177.35,177.35,0,0,0,179.24,231.81Z"/><path class="cls-24" d="M14.24,102.14C8.55,129.45,1.78,156.61,0,184.41c27.53,4.89,53.47,8.9,77.55,12.14a149.84,149.84,0,0,1,8.25-51.86A716.14,716.14,0,0,1,14.24,102.14Z"/><path class="cls-25" d="M94.54,215.76a152.33,152.33,0,0,1,11.79-57C121,165.68,135.55,172.14,150,178.2a144.64,144.64,0,0,0,8.37,43.62C138.59,220.27,117.34,218.31,94.54,215.76Z"/><path class="cls-7" d="M169,116.28l-.22-1.94-1.5,1.72.43-2.58c-.43,2.58-2.8.22-2.8.22-3.44-5.16-10.75-4.3-10.32-5.38l-1.27,1.08-.51-1v1.83c-4.3-1.08-8.46,4.95-8.46,4.95-4.51,5.37-1.56,12.48-1.56,12.48a2.61,2.61,0,0,1-2.68-.85c-39.14-20.43-62.82,3.47-62.82,3.47l-8.47,6.4c-8.6,12.9-2,20.21-2,20.21,2.15,2.36,6.45,7.74,6.45,7.74,3.22,6.67,20,23.44,20,23.44,4.73,3.65-.65,3.22-.65,3.22C87.31,189.39,77,192.61,77,192.61c-5.16,2.15-17.21,3.87-17.21,3.87l.22.87-5.59.86A10.39,10.39,0,0,0,51,197.13c-3.44.86-8.6-1.5-8.6-1.5-7.75,1.07-1.3,14.4-1.3,14.4a7.49,7.49,0,0,1,1.3,6.45c3.65,12.9,9.89,12.69,9.89,12.69,6.66,1.29,3-3.44,3-3.44a8.06,8.06,0,0,0-1.29-3c-1.72-5.16,4.94-10.54,4.94-10.54,3-1.93,2.37-3.66,2.37-3.66l8.81-1.28c.86,4.51,9.68,10.1,9.68,10.1,3,.65,5,7.31,5,7.31,4.3,6.67,12.25.86,12.25.86-.86-5.37-4.94-4.3-4.94-4.3-3.66-9.89,2.36-15.48,2.36-15.48,1.94.22,8.39-.22,8.39-.22l9.89-3.86c2.79-1.73,2.58-8.18,2.58-8.18l11.83-6.23c.21,7.95,6,21.28,6,21.28a29.75,29.75,0,0,1,2.79,8.39,5.53,5.53,0,0,0,2.58,6.24,7.68,7.68,0,0,1,1.94,7.31l1.29.21.64,1.08c2.8,4.3,1.94-1.72,1.94-1.72-.43-6.45,7.53,1.29,7.53,1.29,2.79,2.15,4.51.21,4.51.21,3.23.86,3.23-.64,3.23-.64l-6.24-4.52.86-.86,5.16.22c1.94-.43.22-1.51.22-1.51-2.15-.21-7.74-5.59-7.74-5.59-1.72-2.36-6.46-5.59-6.46-5.59-3-2.15-3.22-14.19-3.22-14.19-.86-3-.65-11-.65-11,.65-3.22-.64-10.53-.64-10.53,1.29-4.3-.43-15.7-.43-15.7,1.5-3.23,3.87-11,3.87-11,1.5-2.58-1.08-6.88-1.08-6.88l6-.64c4.52-.43,4.52-1.51,4.52-1.51,2.15-2.58,4.95-.43,4.95-.43l4.51,1.08c2.37.86,2.37-2.58,2.37-2.58-.43-1.29,1.29-1.29,1.29-1.29l.64-1.72c-.43-.65.43-1.94.43-1.94,3.44.43.86-4.3.86-4.3a4.17,4.17,0,0,1,1.08-4.3c.43-1.29-1.08-5.38-1.08-5.38C171.81,120.15,170.31,115.42,169,116.28Zm-59.78,63.65-2.58-6.24s7.53,1.51,8.81,3Zm17.63-15.49s-13.12-9.67-15.7-11.18l1.94-1.07s11.4,3.65,13.76,3C126.87,155.2,125.58,162.29,126.87,164.44Z"/><path class="cls-26" d="M89.36,140A339.42,339.42,0,0,1,53,112.76a122.31,122.31,0,0,1,6.65-26.22A178.6,178.6,0,0,0,91.9,131.23Q90.48,135.55,89.36,140Z"/><path class="cls-27" d="M159.6,183.54q12.61,4,24.77,7.71a113.58,113.58,0,0,1,.21-22.49Q173.38,164,162,159A120.34,120.34,0,0,0,159.6,183.54Z"/><path class="cls-28" d="M66.73,230.62c20.75-1,39.19-2.35,55.91-3.79a166.21,166.21,0,0,1,1.44-43.32c-16-10.17-33-21.3-51-33.55C65.9,171.64,62.76,198.29,66.73,230.62Z"/></g></g></svg>