<svg xmlns="http://www.w3.org/2000/svg" xmlns:xlink="http://www.w3.org/1999/xlink" viewBox="0 0 748.44 517.17"><defs><style>.cls-1{isolation:isolate;}.cls-2,.cls-6,.cls-7{mix-blend-mode:multiply;}.cls-2{fill:url(#linear-gradient);}.cls-3{fill:#a68d6e;}.cls-10,.cls-4,.cls-5,.cls-8{opacity:0.8;}.cls-4{fill:url(#linear-gradient-2);}.cls-5{fill:url(#linear-gradient-3);}.cls-6{fill:url(#linear-gradient-4);}.cls-7{opacity:0.7;fill:url(#linear-gradient-5);}.cls-8{fill:url(#linear-gradient-6);}.cls-9{fill:#001443;}.cls-10{fill:url(#linear-gradient-7);}.cls-11{opacity:0.4;mix-blend-mode:screen;fill:url(#linear-gradient-8);}</style><linearGradient id="linear-gradient" x1="16251.13" y1="8206.03" x2="17295.36" y2="8206.03" gradientTransform="translate(5745.98 17892.68) rotate(-132.99)" gradientUnits="userSpaceOnUse"><stop offset="0.16" stop-color="#1173be" stop-opacity="0.9"/><stop offset="0.22" stop-color="#1381c8" stop-opacity="0.69"/><stop offset="0.28" stop-color="#148dd0" stop-opacity="0.51"/><stop offset="0.34" stop-color="#1597d6" stop-opacity="0.36"/><stop offset="0.41" stop-color="#169edc" stop-opacity="0.24"/><stop offset="0.49" stop-color="#17a4df" stop-opacity="0.16"/><stop offset="0.58" stop-color="#17a7e1" stop-opacity="0.11"/><stop offset="0.72" stop-color="#17a8e2" stop-opacity="0.1"/></linearGradient><linearGradient id="linear-gradient-2" x1="-2386.74" y1="5096.97" x2="-968.42" y2="5096.97" gradientTransform="matrix(0.71, 0.32, 0.41, -0.91, -483.83, 5648.09)" gradientUnits="userSpaceOnUse"><stop offset="0.16" stop-color="#82bc3f" stop-opacity="0.8"/><stop offset="0.19" stop-color="#78b83f" stop-opacity="0.81"/><stop offset="0.34" stop-color="#4da741" stop-opacity="0.84"/><stop offset="0.5" stop-color="#2b9943" stop-opacity="0.87"/><stop offset="0.66" stop-color="#139044" stop-opacity="0.89"/><stop offset="0.83" stop-color="#058a45" stop-opacity="0.9"/><stop offset="1" stop-color="#008845" stop-opacity="0.9"/></linearGradient><linearGradient id="linear-gradient-3" x1="323.21" y1="2276.22" x2="521.91" y2="2276.22" gradientTransform="translate(-35.63 -2005.39) rotate(6.92)" xlink:href="#linear-gradient-2"/><linearGradient id="linear-gradient-4" x1="-955.78" y1="8464.2" x2="-679.52" y2="8464.2" gradientTransform="matrix(0.98, 0.22, 0.22, -0.98, -807.92, 8671.08)" gradientUnits="userSpaceOnUse"><stop offset="0.16" stop-color="#1173be" stop-opacity="0.9"/><stop offset="1" stop-color="#17a8e2" stop-opacity="0.8"/></linearGradient><linearGradient id="linear-gradient-5" x1="394.46" y1="5189.07" x2="719.3" y2="5189.07" gradientTransform="matrix(0.91, 0.41, 0.41, -0.91, -2070.23, 4934.8)" xlink:href="#linear-gradient-4"/><linearGradient id="linear-gradient-6" x1="2232.36" y1="850.65" x2="2890.04" y2="850.65" gradientTransform="matrix(0.67, 0.74, 0.74, -0.67, -1986.41, -745.57)" xlink:href="#linear-gradient-2"/><linearGradient id="linear-gradient-7" x1="237.82" y1="5087.57" x2="517.94" y2="5087.57" gradientTransform="matrix(0.91, 0.41, 0.41, -0.91, -2070.23, 4934.8)" xlink:href="#linear-gradient-2"/><linearGradient id="linear-gradient-8" x1="214.27" y1="5224.43" x2="672.38" y2="5224.43" gradientTransform="matrix(0.91, 0.41, 0.41, -0.91, -2070.23, 4934.8)" xlink:href="#linear-gradient-4"/></defs><g class="cls-1"><g id="Layer_1" data-name="Layer 1"><path class="cls-2" d="M688.74,79.62C371.65,66.06,303.21,136.83,36.58,84.84L138.16,192.32c242.33,51.62,465.51-11,610.28,61.13C709.83,202,695.79,128.4,688.74,79.62Z"/><g id="BC97Aj"><path class="cls-3" d="M554.23,205.26c0,.07.23,1.36,1.08.81a20.86,20.86,0,0,0,7.4-8.14c2.89-5.57,24.57-54.64,27.31-60.89.46-1,1-2.09,1.45-3.14a1.74,1.74,0,0,1,.14-.27c.29-.46.59-1.07,1.16-1.07s.65.69.82,1.14c1.9,4.72,21.7,61.78,22.55,64.25a20.42,20.42,0,0,0,4.47,7.15,20.55,20.55,0,0,1,1.68,1.93,1.49,1.49,0,0,1-1.14,2.35c-.23,0-.45,0-.68,0q-10.5,0-21,0c-1.83,0-3.66-.08-5.49-.12-.36,0-.72-.05-.89-.44a1,1,0,0,1,.19-1.06,5.53,5.53,0,0,1,1.14-1,10.81,10.81,0,0,0,4.26-8.6c0-2.6-1.11-5-2.27-7.26-.2-.41-.59-.33-.93-.33-3.11,0-17,0-20.84,0a1.35,1.35,0,0,0-1.36.71,30.32,30.32,0,0,0-2.74,5.68c-1.64,4.86,1.3,8.42,5.65,9.52a6.41,6.41,0,0,1,1.72.5,1.72,1.72,0,0,1,.92,1.82,1.45,1.45,0,0,1-1.62,1c-5.89,0-11.79,0-17.68,0-1.58,0-3.16.08-4.74.1-.51,0-.72.19-.71.71,0,1.41,0,2.81,0,4.22a1.29,1.29,0,0,0,.44,1,30.32,30.32,0,0,1,5.26,7c1.73,3.06,4.49,4.39,7.7,5.08a19,19,0,0,0,4.27.32,17,17,0,0,1,2.85.16c1.3.22,1.76,1.06,1.15,2.23a11.8,11.8,0,0,1-3.4,3.77A29.13,29.13,0,0,1,562,239.63c-5.28,1.39-10,.07-14.26-3.25a30,30,0,0,1-4.18-4.1,16,16,0,0,0-7.88-5.37c-3.43-1-6.89-1.82-10.29-2.88a7.31,7.31,0,0,1-1-.39c-.78-.37-.87-.78-.36-1.49a3.75,3.75,0,0,1,.8-.79c1.55-1.17,3.33-2,5-3a10,10,0,0,0,4.5-6.24c.07-.31.1-59.47.11-88.72,0-1.06,0-1-1.07-1-6.16.52-12.31.78-18.36-.94a27.89,27.89,0,0,1-10.55-5.91A37.85,37.85,0,0,1,494.47,103a15.94,15.94,0,0,1-1.62-5.22,2.78,2.78,0,0,1,.27-1.61,1,1,0,0,1,1.6-.39,39.28,39.28,0,0,1,3,2.58A58.32,58.32,0,0,0,509.33,106c3.57,1.75,7.46,2.28,11.34,2.79a58.26,58.26,0,0,0,7.59.17q20.7,0,41.39,0a21.72,21.72,0,0,0,11.59-3.43,21,21,0,0,1,1.89-1.09c1.34-.64,2.14-.35,2.71,1,.69,1.61,1.33,3.25,1.94,4.89,2.08,5.57,4.11,11.16,5.93,16.82a6.55,6.55,0,0,1,.4,1.75c0,.61-.26.84-.84.7a12.62,12.62,0,0,1-2.5-1c-3.52-1.69-6.95-3.6-10.71-4.77A35.08,35.08,0,0,0,568.53,122c-4.48.14-9,.36-13.42.87-.57.07-.76.33-.76.88q0,9,0,17.91c0,.54.19.78.75.76a11.07,11.07,0,0,0,4.5-1c2-1,2.71-2.71,2.87-4.79.07-.94.2-1.89.33-2.83a4.33,4.33,0,0,1,1.7-2.75,1.8,1.8,0,0,1,2.8.4,4.66,4.66,0,0,1,.74,2.87c0,8.3,0,16.6,0,24.91a11.66,11.66,0,0,1-.61,4.37c-.74,1.85-2.4,2.1-3.64.51a7.49,7.49,0,0,1-1.3-3.65c-.12-.82-.22-1.64-.34-2.46a4.71,4.71,0,0,0-3.27-3.95,16,16,0,0,0-3.83-.72c-.72-.08-1,.18-.95.91C554.1,159.18,554.18,200.17,554.23,205.26Zm32-42.54c-.23.44-.37.67-.49.92q-4.23,9.06-8.45,18.13c-.36.76-.26.92.69.92,5,0,10,0,15,0,.8,0,.89-.16.61-.9q-2.89-7.56-5.77-15.11C587.29,165.42,586.79,164.17,586.22,162.72Z"/><path class="cls-3" d="M475.17,208.33H462.83a7,7,0,0,1-1.12-.08.93.93,0,0,1-.84-1,1,1,0,0,1,.73-1.16A3.15,3.15,0,0,1,462,206c4.69-.79,8-3.56,10.38-7.5,2.25-3.69,24.84-54.52,29-64a9.92,9.92,0,0,1,1.58-2.89c.75-.82,1.33-.73,1.72.32.89,2.42,25.14,69.66,27.11,71.83.42.46.85.92,1.25,1.41,1,1.28.49,2.57-1.15,2.8a5.71,5.71,0,0,1-.83,0c-3.91,0-7.82.07-11.73,0-4.59-.13-9.18,0-13.77-.11l-.52,0a1.1,1.1,0,0,1-1.06-.71,1,1,0,0,1,.53-1.14,10.31,10.31,0,0,0,2.63-2.34,10.6,10.6,0,0,0,1.64-11c-.35-.86-.7-1.72-1-2.6a.9.9,0,0,0-1-.7c-.7,0-14.89-.06-21.28-.12a1.34,1.34,0,0,0-1.45.87,56.11,56.11,0,0,0-2.4,5.44c-1.1,3.36-.39,5.7,2.33,7.95a8.05,8.05,0,0,0,3.4,1.68,12.62,12.62,0,0,1,1.6.44,1.42,1.42,0,0,1,.92,1.42c0,.65-.47,1-1,1.17a3.73,3.73,0,0,1-1.33.15H475.17Zm22.13-47a1.34,1.34,0,0,0-.5.73q-1.2,2.52-2.37,5-3,6.51-6,13c-.44,1-.39,1,.62,1q7.47,0,15,0c1,0,1,0,.65-1l-5.55-14.38C498.49,164.36,497.89,162.88,497.3,161.38Z"/><path class="cls-3" d="M578.14,39.52c.23.68.43,1.29.63,1.9,1.8,5.56,3.62,11.12,5.4,16.68a1.09,1.09,0,0,0,1.22.9c6.15,0,12.29,0,18.44,0a1.74,1.74,0,0,1,.95.11c-.11.36-.41.48-.64.65q-7.44,5.43-14.91,10.84a1.13,1.13,0,0,0-.48,1.5c1.89,5.79,3.74,11.6,5.6,17.4a2.34,2.34,0,0,1,.21.94c-.32.13-.48-.12-.67-.25l-14.8-10.72c-1.2-.86-.85-.86-2.1,0L562.06,90.33a.72.72,0,0,1-.56.25c-.13-.33.07-.62.17-.91q2.82-8.85,5.67-17.7a1,1,0,0,0-.47-1.36q-7.51-5.42-15-10.88c-.12-.09-.24-.18-.35-.28s-.23-.15-.16-.29.2-.13.32-.14h.68c6.09,0,12.19,0,18.28,0a1.13,1.13,0,0,0,1.29-.92c1.88-5.9,3.81-11.79,5.73-17.68A1.54,1.54,0,0,1,578.14,39.52Z"/><path class="cls-3" d="M519.65,90c-.87-.61-1.76-1.22-2.62-1.84q-6.51-4.68-13-9.39a1.23,1.23,0,0,0-1.75,0q-7.21,5.3-14.49,10.51c-.36.26-.74.5-1.16.78a1.09,1.09,0,0,1,.11-.83c1.92-5.94,3.83-11.89,5.78-17.82a1.07,1.07,0,0,0-.48-1.42q-7.51-5.42-15-10.88c-.23-.17-.53-.28-.64-.61.28-.2.59-.11.88-.11,6.14,0,12.29,0,18.43,0a1.19,1.19,0,0,0,1.37-1c1.89-5.9,3.82-11.78,5.75-17.67.06-.2.07-.45.34-.59a1.59,1.59,0,0,1,.39.85c1.91,5.81,3.83,11.62,5.7,17.45a1.17,1.17,0,0,0,1.33,1c6.14,0,12.28,0,18.43,0a1.37,1.37,0,0,1,.9.12c-.12.34-.44.47-.69.65Q522,64.52,514.63,69.85c-1,.72-1,.71-.61,1.84l5.4,16.84c.14.44.25.89.37,1.34Z"/></g><path class="cls-4" d="M440.83,508.39q56,5.22,105.48,8.78-11.2-18.5-19.81-36.21-50.69-9.27-106.43-20.51A431.32,431.32,0,0,0,440.83,508.39Z"/><path class="cls-5" d="M35,189.46C21,256.64,4.39,323.43,0,391.8c67.71,12,131.5,21.88,190.73,29.87A368.33,368.33,0,0,1,211,294.12C151.59,263.12,91.94,228.24,35,189.46Z"/><path class="cls-6" d="M219.78,282.68a833.11,833.11,0,0,1-89.33-67.08,301.21,301.21,0,0,1,16.35-64.49C164.66,186.64,189.58,223.54,226,261Q222.52,271.63,219.78,282.68Z"/><path class="cls-7" d="M423.24,398.54q31,9.93,60.93,19a279.45,279.45,0,0,1,.5-55.32Q457.13,350.56,429,338.09A294.33,294.33,0,0,0,423.24,398.54Z"/><path class="cls-8" d="M164.12,505.46c51-2.5,96.38-5.79,137.49-9.32-3.56-39.8-1.89-75.17,3.55-106.54-39.35-25-81.22-52.4-125.4-82.52C162.07,360.41,154.36,425.94,164.12,505.46Z"/><path class="cls-9" d="M465.44,464.77c-2.28-.42-5.52-1.72-8.49-2.65s-6.35-1.75-8.49-2.92a45,45,0,0,1-4-2.92c-1.2-.84-3.6-1.7-4.25-2.64-.82-1.21-1.12-4.74-1.33-7.43-.35-4.69.2-9.69.54-14.32,1-13.75,4-26,5-39.52.71-9.32,1.62-18.89.79-28.38-.4-4.54-1.27-8.84-1.59-13.26-.54-7.38,1.41-16.85-.79-23.07-.61-1.71-2.93-3.08-3.45-4.51-.44-1.19,0-2.71-.27-4a19.58,19.58,0,0,0-1.86-4.5c-2.42-4.37-7.07-7.78-8.75-12.47-.61-1.73-.69-3.87-1.32-5.84-1.18-3.69-2.27-7.19-3.71-10.61-.72-1.69-2-3.72-2.12-5-.16-1.52.76-3,.79-4.25.11-4.67-2.58-9.37-5-11.93-1.12-1.16-2.64-1.84-3.71-2.91-1.61-1.62-2.9-3.88-4.51-5.85-1.51-1.82-3.19-3.77-4.78-5.56-4-4.52-8.88-9.6-13.78-12.47a25.2,25.2,0,0,0,3.18-11.93c.84-.58,1.42.93,2.92.53,1.95-5.55,4.68-10.07,5-16.45.42-7.59.46-14.74,1.59-21.74,1.06-6.54,2.73-12.81,4.24-19.36,2.26-9.68,4.82-19.32,5.31-29.7.18-3.68.53-7.35.8-11.14.65-9.14-1.1-17.74-3.19-25.2,2,.84,5.78,1,5.84-1.59-1.87-1.93-6.81-.8-7.16-4.24,1.92.1,4.53-.52,7.69-.27,2.34.19,7.46,1.25,6.36-2.12-.39-1.22-3.51-1.29-5.3-1.59a26.85,26.85,0,0,1-5.84-1.33c1.91-1.7,5.22-1.29,8.49-1.59.92-.08,1.83-.52,2.65-.53,1.56,0,3.12.7,4.51.27s2-1.06,2.39-2.92a16.09,16.09,0,0,0-7.69-1.33c.17-1,1.3-1,1.06-2.38,3.68,0,7.07-1.23,6.9-4.25-7.93-.72-12.93,2.27-19.1,2.92-.9.1-1.77-.13-2.65,0s-2.58,1.17-3.71.8c-1.7-.56-2.44-4.41-3.19-5.58-.57-.89-1.66-2.11-2.65-3.44-.78-1-2.64-2.6-2.65-3.45s1.57-2.08,2.12-3.18c1-2,1.67-4.66,2.39-5.83,1-1.66,2.8-2.9,3.71-4.51a26.91,26.91,0,0,0,1.06-2.92c.2-.48.3-2,1.33-1.59-.74-2.56.69-3.58,1.32-5.57.18-.57.32-1.13.45-1.69a2.77,2.77,0,0,0,.4.66,3.74,3.74,0,0,1-.16-1.64c0-.11.05-.23.08-.33a8.35,8.35,0,0,0,2.5.9,10.66,10.66,0,0,1-2.25-1.75.36.36,0,0,0,0-.07,3.44,3.44,0,0,0,1.55.74A4,4,0,0,1,409.4,42c.21-.59.41-1.16.6-1.73a4.6,4.6,0,0,0,2,2A7,7,0,0,1,410.41,39a.32.32,0,0,0,0-.09l.12.29c0,.18,0,.34.2.38A5.17,5.17,0,0,0,412.91,42,6.9,6.9,0,0,1,411.48,39c-.1-.41-.2-.82-.29-1.24a.58.58,0,0,1,.35.17l0,0c.14.31.26.63.4,1a1.46,1.46,0,0,0,.29.74,23.3,23.3,0,0,0,1.41,3.16c-.27-1.49-.36-3-.65-4.48a10,10,0,0,0-.76-2.49s0,0,0,0l.1.07c.64,1.75,1.27,3.74,2.79,5a16.17,16.17,0,0,1-1.39-4.25,1.77,1.77,0,0,1,.28.11,4.39,4.39,0,0,0,1.49,1.62,9.25,9.25,0,0,0,4.56,1.09,12.9,12.9,0,0,1-3.83-2,3.37,3.37,0,0,1-.94-1.56,6.36,6.36,0,0,1-.14-1.17l.32.49a6.23,6.23,0,0,0,2.82,2.34,5.28,5.28,0,0,0,3.47-.06,5.32,5.32,0,0,1-3-.85,5.49,5.49,0,0,1-1.74-2.32l-.27-.61c-.32-.78-.6-1.6-.91-2.44l.05,0,.69.84a3.25,3.25,0,0,1,.2.77c.22.14.44.3.66.46.35.55.71,1.1,1.11,1.62a4.39,4.39,0,0,0,2.71,2,4.32,4.32,0,0,1-1.84-2.47c-.24-.57-.43-1.14-.65-1.74a5.58,5.58,0,0,0,1.25,1,3.77,3.77,0,0,0,3.51.09,3.49,3.49,0,0,1-2.91-.93,6.72,6.72,0,0,1-1.54-2.59c-.2-.53-.24-.9-.5-1.58-.17-.51-.33-1-.5-1.56a10,10,0,0,0-1.61-3.37,7.51,7.51,0,0,0-1.28-1.3c2-.09,3.89-.27,5.79.53a7.77,7.77,0,0,0-5.15-1.7c-.46-.35-1.07-.58-1.35-1,.37.11.75.2,1.14.29a5.74,5.74,0,0,0,3.73-.32,6.27,6.27,0,0,1-2.26-.2l.06-.11a14.56,14.56,0,0,1-4.83-2.35c-2.2-1.71,2.1-.51,2.53-.56a.54.54,0,0,0-.18-.34,4.09,4.09,0,0,0,.61-.1,6.26,6.26,0,0,0,2.23-1.08,4.82,4.82,0,0,1-4.29-.3c-1.15-.74-2.38-2.19-4.37-2.48-.21,0-.42,0-.62,0a3.7,3.7,0,0,0-.54-.62.86.86,0,0,1,.5-.27c.19,0,.39,0,.58.06a5,5,0,0,1,1.43.77c.05-.14-.12-.39-.22-.64a13.31,13.31,0,0,0,3.73,0,20.19,20.19,0,0,1-3.08-.86h0a4.24,4.24,0,0,0,3.06-1.18,4.49,4.49,0,0,1-2.8.33c-.3-.17-.16-.47.06-.82a16.76,16.76,0,0,1-1.91-.36,6,6,0,0,0,3.63-1.72,7.54,7.54,0,0,1-5.42.25c-.69-.18-1.39-.4-2.07-.65a3.32,3.32,0,0,0-1.61-1.13,11.7,11.7,0,0,1-2.05-.56c-.42-.11-.1-.59-.47-.73a14.46,14.46,0,0,1-4-1.58c-.88-.64-2.15-1.55-3.29-1.37a2.42,2.42,0,0,1-1.61-.19c-.47-.22-.53.33-.89.38a6.21,6.21,0,0,1-1.83-.94l-.05-.09h-.05a2.75,2.75,0,0,1-.57-.75,2.8,2.8,0,0,0,.27.8,8.23,8.23,0,0,0-1,.63,2.6,2.6,0,0,0-1.41.1,2.14,2.14,0,0,1-.7.07,2.78,2.78,0,0,1-.83-.78,3.46,3.46,0,0,0,.24.57,1.36,1.36,0,0,1-.8.72,2.67,2.67,0,0,0-1.41.84,7.35,7.35,0,0,0-2.34,0,9.89,9.89,0,0,0-5.56,3.26l-.5.5c-.68.14-.59.44-1.25.85-.37.2-.5.29-.51.4-.68.21-1.41-.52-1.81-1.37a3.51,3.51,0,0,0,.52,1.48,1.44,1.44,0,0,0,.69.56,22.36,22.36,0,0,0-5.57,9.3,16.16,16.16,0,0,0-.61,2c-.06.22-.11.45-.16.68a12.56,12.56,0,0,1-.81,2.45,14.59,14.59,0,0,0-1.32,3.74c-.24,1.31-.34,2.92-1.16,4a1.83,1.83,0,0,1-.13.16,7.2,7.2,0,0,0-2.54,3.89,7.94,7.94,0,0,0-.79,2.94l.17,0a18.42,18.42,0,0,0-.12,2.41c0,1.34.93,2.73.8,4-.18,1.61-3.06,4.5-4.24,5.3-.75.51-1.66.53-2.39,1.07-1.79,1.29-3.23,3.27-5,4.77a59.27,59.27,0,0,0-5.3,4.77C336.64,67,329,72.91,324.35,81a37,37,0,0,0-4,11.14,42.15,42.15,0,0,1-.8,4.25c-1.23,3.83-3.81,4.61-6.36,6.9-2.08,1.84-3.94,4.46-6.1,6.63a66.72,66.72,0,0,0-6.1,6.62c-3.85,5-6.21,11.26-10.08,15.65-1.22,1.39-4.76,3.57-5,4.78s.56,2.22.53,2.91c-3.37,2.82-4.73,6.45-7.95,9-2.86,2.28-6.41,3.7-9,6.36-.75.78-1.54,2.06-2.39,3.19-2,2.6-2.8,4.86-4,8.22a25.32,25.32,0,0,0-1.86,9,267.4,267.4,0,0,0,2.39,34.74c.46,3.64,1,7.4,1.32,11.14.33,3.95,1.35,8.15,1.06,11.4-.24,2.71-2,5.58-2.91,8.48a41.2,41.2,0,0,0-2.13,9.29c-.23,3.05.56,6.33,0,9-.4,1.9-1.3,1.77-1.85,3.71a31,31,0,0,1-.54,4c-.55,2-4.6,10.81-.79,11.14,2.87.24,2.59-5.92,4.24-7.7,2.27,1.36,1.19,2.82.27,4.25s-2.43,2.89-3.18,4.24c-1.29,2.32-1.9,5-3.19,6.9s-3.35,3.68-5,5.56c-3.78,4.21-6.58,7-10.08,11.68-1.28,1.7-3.58,5.73-4.77,6.1-.83.25-2.21-.21-3.46-.27s-2.7.19-3.71,0c-2.09-.39-3.81-1.79-5.57-2.39a29.1,29.1,0,0,0-6.63-1.59c-7.21-.66-13.2,1.95-17.24,4.25-1.4.79-2.28,2.26-3.71,3.17-1.09.71-2.75,1.25-4,1.87-9.65,4.84-18.74,9.45-29.44,12.72-4.39-5.32-12.09-5.17-17.51-2.11-2.39,1.34-4.74,4.12-6.9,6.35-4.49,4.68-8.39,9.16-13.26,13.27-2.51,2.12-5.34,4.62-7.69,5.83-1.48.77-3.52,1-4.51,1.6-2.65,1.49-4.53,5.08-6.62,8.22-1.55,2.3-5.28,6.37-5.84,9-.27,1.29.27,3.15.26,5s-.43,3.64-.26,5c.83,6.69,6,11.51,11.41,13.26,3.66,1.19,10.35-.76,13.52-2.13a37.67,37.67,0,0,0,9.28-6.09,64.62,64.62,0,0,0,12.47-14.32c1.4-2.31,1.38-2.42,3.44-4,.62-.46,1.29-1.23,1.86-1.59,1-.6,2.2-.66,3.18-1.33,2.81-1.9,4.23-5.32,5.84-6.37s4.43-1.39,7.16-2.12c7.56-2,15.17-4,23.34-5,8.48-1,18.1-.87,25.73-2.39,2.82-.57,5.35-1.68,7.68-1.85,3.08-.25,5.53.85,8.22,1.05,10.1.77,18.42-2.87,21.49-9.28,1-2.07,1.64-2.5,3.44-4,.86-.7,1.86-1.41,2.66-2.12,5.1-4.6,10.13-9.08,14.85-13.8s9.05-9.69,13.79-14.85c1.33-1.45,4-5,4.77-5s3.07,2.27,4,2.92c1.53,1.07,3.07,2.51,4.51,2.38,2.69-.22,3.51-4.31,4.77-6.63,1.42-2.61,4-4.83,6.1-7.42,6-7.32,12.25-16.2,17.77-22.81,1.49,3.86,4.81,6.21,7.43,9,5.48,5.87,8.71,13.41,13.26,19.89,2.28,3.26,5.46,6.14,7.16,9.54.58,1.16.63,2.64,1.33,3.72,3.92,6.09,14.76,6.5,22.8,4.77,1.85-.39,4.52-1.55,6.1-1.32s3.38,2.53,4.78,4.24c3.13,3.85,5.66,5.87,8.75,9.29,1.31,1.44,3.48,4.18,3.71,5.56.09.56-.54,1.69-.53,2.39,0,1.75.69,3.93.8,6.1a50.21,50.21,0,0,1-2.39,19.36c-.6,2-1,4.08-1.59,6.1s-1.7,3.74-2.12,5.57c-2.67,11.63.25,22.94,2.12,32.89,3.19,17,6.75,36.38,5,55.95-4.54-.09-2.66,3.44-3.18,7.69a13.32,13.32,0,0,1-.8,3.19c-.57,1.37-2.05,2.23-2.65,4-.76,2.17-.7,5.05-1.06,7.43-.2,1.27-.42,2.47-.53,3.72s.17,3,0,4-1.69,2.3-1.33,3.18c.2.5,1.87,1,2.12,1.07,2.7.66,36.28,3.32,38.19,3.17,2.06-.15,4.17-.72,5.84-.26.75.2,39.38-3.06,40.57-4.25.61-.59,1.63-.67,2.13-1.05,2.68-2.09,1.64-6.86,1.85-7.43C489.83,481.51,489.07,469.18,465.44,464.77ZM413.68,21.48V22a2.64,2.64,0,0,1-.17-.47A.64.64,0,0,1,413.68,21.48ZM322.76,157.39a93.46,93.46,0,0,1-8,21.22c-1.85,3.47-3.41,7-5,9.55-.83,1.31-3.3,3.23-3.19,4.5s1.19,1,1.34,1.87c-2.86,3.25-4,8.17-5.84,12.73-.59,1.45-1.43,2.78-1.86,4.24s-.29,3.28-.79,4.77-1.65,2.43-2.12,3.71-.28,2.9-.8,4.24c-1.79,4.67-7.63,7.46-11.41,10.35A204.11,204.11,0,0,1,283,183.12c.3-3.17.09-6.68.79-8.75.57-1.7,2.75-3.74,4.24-5,4.22-3.66,8.27-5.14,13.53-8.49.88-.56,2-1.81,2.39-1.85,1-.12,2.23,1.15,3.18,1.06,1.49-.15,3.19-2.59,4.51-4.24,2.82-3.56,5.44-6.25,8.22-9.29,1.84-2,3.16-3.58,4.51-5.3.36.83,1.78,3.6,1.86,4.78C326.38,148.85,323.73,153.69,322.76,157.39Z"/><path class="cls-10" d="M232.51,468.92a374.45,374.45,0,0,1,29-140.19c36,17,71.86,32.91,107.35,47.81,1,33,7.13,68.79,20.58,107.27C340.85,480,288.6,475.17,232.51,468.92Z"/><path class="cls-9" d="M318.9,464.84a33.86,33.86,0,0,0-8.75-23.14h0l-.13-.15v0a33.44,33.44,0,0,0-22.27-10.8v0h-.32a33.8,33.8,0,0,0-5.23.06l-.79.08a33.87,33.87,0,0,0-5.11,1l-.65.2a32.81,32.81,0,0,0-5,1.88l-.26.13a34,34,0,0,0-4.61,2.72c-.08.06-.18.1-.27.16h0a33.48,33.48,0,0,0-10.89,13,34.09,34.09,0,0,0-1.52,3.87.49.49,0,0,1,0-.12c-.11.32-.17.65-.27,1-.23.76-.45,1.52-.63,2.29-.1.47-.18.94-.27,1.42-.13.71-.24,1.43-.33,2.15,0,.23-.08.46-.1.68,0,0,0-.08,0-.13a33.77,33.77,0,0,0,4.22,20l0,0c0,.08.11.15.15.23a32.49,32.49,0,0,0,2.37,3.57c.19.25.4.49.59.74a33.72,33.72,0,0,0,2.54,2.81c.19.19.36.39.56.57a33.48,33.48,0,0,0,3.43,2.83c.25.18.51.34.76.51a34.62,34.62,0,0,0,3.49,2.09c.16.08.29.18.44.26v0c.21.1.4.22.61.32a33.65,33.65,0,0,0,25.94,1.24h0l.18-.07h0a33.62,33.62,0,0,0,17.91-15.45l0,0c.32-.59.62-1.19.91-1.8a32.61,32.61,0,0,0,1.36-3.32c.14-.4.24-.8.36-1.21.23-.72.46-1.45.63-2.18.11-.46.18-.92.27-1.38.13-.68.26-1.37.35-2,.06-.48.09-1,.13-1.42.06-.68.11-1.35.13-2,0-.15,0-.31,0-.46Z"/><path class="cls-11" d="M250.34,296.14c61.87,36,125.42,68.38,188.57,97.82a287.84,287.84,0,0,1,8.77-55.46c-51.46-39-98.42-79.51-139.88-121.78A490,490,0,0,0,250.34,296.14Z"/></g></g></svg>