<svg xmlns="http://www.w3.org/2000/svg" xmlns:xlink="http://www.w3.org/1999/xlink" viewBox="0 0 112.67 103.73"><defs><style>.cls-1{isolation:isolate;}.cls-2,.cls-3,.cls-5,.cls-7,.cls-8,.cls-9{mix-blend-mode:multiply;}.cls-2{fill:url(#linear-gradient);}.cls-3{fill:url(#linear-gradient-2);}.cls-4{fill:url(#linear-gradient-3);}.cls-5{fill:url(#linear-gradient-4);}.cls-6{fill:#001443;}.cls-7,.cls-8{opacity:0.7;}.cls-7{fill:url(#linear-gradient-5);}.cls-8{fill:url(#linear-gradient-6);}.cls-9{fill:url(#linear-gradient-7);}.cls-10{font-size:13.49px;fill:#232323;font-family:Antonio-Bold, Antonio;font-weight:700;letter-spacing:-0.05em;}.cls-11{letter-spacing:-0.04em;}</style><linearGradient id="linear-gradient" x1="-3274.51" y1="8534.21" x2="-2982" y2="8534.21" gradientTransform="matrix(0.71, 0.32, 0.41, -0.91, -1194.52, 8846.02)" gradientUnits="userSpaceOnUse"><stop offset="0.16" stop-color="#e98500"/><stop offset="0.34" stop-color="#ec9200"/><stop offset="0.68" stop-color="#f5b500"/><stop offset="1" stop-color="#fedb00"/></linearGradient><linearGradient id="linear-gradient-2" x1="82.69" y1="2013.88" x2="123.67" y2="2013.88" gradientTransform="translate(162.82 -1979.87) rotate(6.92)" xlink:href="#linear-gradient"/><linearGradient id="linear-gradient-3" x1="-759.34" y1="8532.31" x2="-701.57" y2="8532.31" gradientTransform="matrix(0.91, 0.41, 0.41, -0.91, -2758.27, 8142.91)" xlink:href="#linear-gradient"/><linearGradient id="linear-gradient-4" x1="-764.2" y1="8560.54" x2="-669.72" y2="8560.54" gradientTransform="matrix(0.91, 0.41, 0.41, -0.91, -2758.27, 8142.91)" gradientUnits="userSpaceOnUse"><stop offset="0.16" stop-color="#1374ad" stop-opacity="0.8"/><stop offset="1" stop-color="#1173be" stop-opacity="0.9"/></linearGradient><linearGradient id="linear-gradient-5" x1="-1469.12" y1="11921.88" x2="-1412.14" y2="11921.88" gradientTransform="matrix(0.98, 0.22, 0.22, -0.98, -1176.41, 11962.58)" xlink:href="#linear-gradient"/><linearGradient id="linear-gradient-6" x1="-727.04" y1="8553.25" x2="-660.04" y2="8553.25" gradientTransform="matrix(0.91, 0.41, 0.41, -0.91, -2758.27, 8142.91)" gradientUnits="userSpaceOnUse"><stop offset="0.16" stop-color="#1173be" stop-opacity="0.9"/><stop offset="1" stop-color="#17a8e2" stop-opacity="0.8"/></linearGradient><linearGradient id="linear-gradient-7" x1="667.35" y1="3815.46" x2="802.99" y2="3815.46" gradientTransform="matrix(0.67, 0.74, 0.74, -0.67, -3251.66, 2098.79)" xlink:href="#linear-gradient"/></defs><g class="cls-1"><g id="Layer_1" data-name="Layer 1"><path class="cls-2" d="M90.92,73.69c7.7.71,14.94,1.3,21.75,1.81q-2.31-3.82-4.08-7.47c-7-1.28-14.29-2.67-22-4.23A88.3,88.3,0,0,0,90.92,73.69Z"/><path class="cls-3" d="M7.22,7.91C4.33,21.76.91,35.54,0,49.64c14,2.48,27.12,4.51,39.34,6.16a75.91,75.91,0,0,1,4.18-26.31A360.65,360.65,0,0,1,7.22,7.91Z"/><path class="cls-4" d="M48,65.54a77.28,77.28,0,0,1,6-28.91c7.42,3.51,14.82,6.79,22.14,9.86a73.48,73.48,0,0,0,4.25,22.13C70.3,67.83,59.52,66.83,48,65.54Z"/><path class="cls-5" d="M51.63,29.91C64.39,37.34,77.5,44,90.52,50.09a58.82,58.82,0,0,1,1.81-11.44A261.69,261.69,0,0,1,63.48,13.53,101.13,101.13,0,0,0,51.63,29.91Z"/><path class="cls-6" d="M85.73,15.08l-.11-1-.76.87.22-1.31c-.22,1.31-1.42.11-1.42.11-1.75-2.61-5.46-2.18-5.24-2.72l-.64.54-.26-.49V12c-2.18-.55-4.29,2.51-4.29,2.51-2.29,2.73-.79,6.33-.79,6.33a1.31,1.31,0,0,1-1.36-.43C51.23,10.08,39.21,22.2,39.21,22.2l-4.29,3.24c-4.36,6.55-1,10.26-1,10.26,1.09,1.2,3.27,3.92,3.27,3.92C38.83,43,47.34,51.51,47.34,51.51c2.4,1.86-.33,1.64-.33,1.64-2.72-1-8,.65-8,.65-2.62,1.09-8.73,2-8.73,2l.11.43-2.83.44a5.24,5.24,0,0,0-1.75-.55c-1.74.44-4.36-.76-4.36-.76-3.93.55-.66,7.31-.66,7.31a3.8,3.8,0,0,1,.66,3.27c1.85,6.54,5,6.43,5,6.43C29.89,73,28,70.6,28,70.6a4.1,4.1,0,0,0-.65-1.53c-.87-2.62,2.51-5.34,2.51-5.34,1.52-1,1.2-1.86,1.2-1.86l4.47-.65c.44,2.29,4.91,5.13,4.91,5.13,1.52.32,2.51,3.7,2.51,3.7,2.18,3.38,6.21.44,6.21.44-.43-2.73-2.51-2.18-2.51-2.18-1.85-5,1.2-7.85,1.2-7.85,1,.1,4.26-.11,4.26-.11l5-2c1.42-.87,1.31-4.14,1.31-4.14l6-3.16c.11,4,3.06,10.79,3.06,10.79a15.06,15.06,0,0,1,1.41,4.26,2.8,2.8,0,0,0,1.31,3.16,3.89,3.89,0,0,1,1,3.71l.66.11.33.54c1.41,2.18,1-.87,1-.87-.22-3.27,3.82.65,3.82.65,1.41,1.1,2.29.11,2.29.11,1.63.44,1.63-.32,1.63-.32l-3.16-2.29.43-.44,2.62.11c1-.22.11-.76.11-.76C79.84,69.73,77,67,77,67a17.83,17.83,0,0,0-3.28-2.84C72.21,63.07,72.1,57,72.1,57a28.41,28.41,0,0,1-.33-5.56,21.16,21.16,0,0,0-.33-5.34c.66-2.18-.22-8-.22-8,.77-1.64,2-5.57,2-5.57C74,31.22,72.64,29,72.64,29l3.06-.32C78,28.5,78,28,78,28a1.8,1.8,0,0,1,2.5-.22l2.3.55C84,28.72,84,27,84,27c-.22-.65.65-.65.65-.65l.33-.88c-.22-.32.21-1,.21-1,1.75.22.44-2.18.44-2.18a2.1,2.1,0,0,1,.55-2.18,7.6,7.6,0,0,0-.55-2.73C87.15,17.05,86.38,14.65,85.73,15.08ZM55.41,47.37,54.1,44.2s3.82.77,4.47,1.53Zm8.94-7.86s-6.65-4.9-8-5.67l1-.54s5.78,1.85,7,1.52C64.35,34.82,63.7,38.42,64.35,39.51Z"/><path class="cls-7" d="M45.33,27.13A171.38,171.38,0,0,1,26.9,13.3,61.9,61.9,0,0,1,30.28,0,90.65,90.65,0,0,0,46.61,22.67C46.13,24.13,45.7,25.62,45.33,27.13Z"/><path class="cls-8" d="M87.29,51c4.26,1.36,8.46,2.67,12.56,3.91A58.46,58.46,0,0,1,100,43.53q-5.68-2.4-11.47-5A60.8,60.8,0,0,0,87.29,51Z"/><path class="cls-9" d="M33.85,73.08c10.52-.51,19.88-1.19,28.35-1.92a84.09,84.09,0,0,1,.74-22c-8.12-5.17-16.75-10.81-25.87-17C33.43,43.17,31.84,56.68,33.85,73.08Z"/><text class="cls-10" transform="matrix(0.89, 0, -0.45, 0.89, 30.18, 99.43)">A<tspan class="cls-11" x="5.76" y="0">TLETISMO</tspan></text></g></g></svg>