<svg id="Layer_1" data-name="Layer 1" xmlns="http://www.w3.org/2000/svg" xmlns:xlink="http://www.w3.org/1999/xlink" viewBox="0 0 1071.08 875.45"><defs><style>.cls-1,.cls-3{fill:#232323;}.cls-1{opacity:0.97;}.cls-2{fill:#fff;}.cls-4{fill:#757575;}.cls-5{opacity:0.8;fill:url(#linear-gradient);}.cls-6{opacity:0.9;fill:url(#linear-gradient-2);}.cls-7{fill:url(#linear-gradient-3);}</style><linearGradient id="linear-gradient" x1="-1285.47" y1="10086.99" x2="-922.56" y2="10086.99" gradientTransform="matrix(0.96, 0.28, 0.28, -0.96, -1682.18, 10801.78)" gradientUnits="userSpaceOnUse"><stop offset="0.16" stop-color="#4592e9"/><stop offset="1" stop-color="#fff"/></linearGradient><linearGradient id="linear-gradient-2" x1="3331.12" y1="18376.92" x2="3634.05" y2="18376.92" gradientTransform="matrix(0.77, -0.63, -0.63, -0.77, 9181.33, 17230.09)" gradientUnits="userSpaceOnUse"><stop offset="0.16" stop-color="#e98500"/><stop offset="0.34" stop-color="#ec9200"/><stop offset="0.68" stop-color="#f5b500"/><stop offset="1" stop-color="#fedb00"/></linearGradient><linearGradient id="linear-gradient-3" x1="13721.88" y1="-9228.7" x2="14013.18" y2="-9228.7" gradientTransform="matrix(-1.22, 0.95, -0.28, 1.19, 15177.46, -1300.16)" gradientUnits="userSpaceOnUse"><stop offset="0.16" stop-color="#82bc3f" stop-opacity="0.8"/><stop offset="0.19" stop-color="#78b83f" stop-opacity="0.81"/><stop offset="0.34" stop-color="#4da741" stop-opacity="0.84"/><stop offset="0.5" stop-color="#2b9943" stop-opacity="0.87"/><stop offset="0.66" stop-color="#139044" stop-opacity="0.89"/><stop offset="0.83" stop-color="#058a45" stop-opacity="0.9"/><stop offset="1" stop-color="#008845" stop-opacity="0.9"/></linearGradient></defs><path class="cls-1" d="M971.45,799.09c-17.05-20.3-898,39.15-898,39.15C135,405.25,52.59,0,52.59,0L971.45,46.31C1031.68,319,971.45,799.09,971.45,799.09Z"/><rect class="cls-2" x="456.21" y="178.39" width="120.23" height="2.17"/><path class="cls-2" d="M405.17,110.21a40.23,40.23,0,1,0,40.23,40.22,40.22,40.22,0,0,0-40.23-40.22"/><path class="cls-3" d="M405.17,116.66A33.78,33.78,0,1,0,439,150.43a33.77,33.77,0,0,0-33.78-33.77"/><polygon class="cls-2" points="381.81 138.02 371.32 163.68 391.61 170.32 401.35 132.86 381.81 138.02"/><polygon class="cls-2" points="407.88 131.17 397.66 172.27 423.21 180.64 431.91 124.8 407.88 131.17"/><path class="cls-4" d="M405.17,106.39a44,44,0,1,0,44.05,44,44,44,0,0,0-44.05-44m0,5a39.05,39.05,0,1,1-39.05,39.05,39.05,39.05,0,0,1,39.05-39.05"/><path class="cls-2" d="M752.24,135.61a4.39,4.39,0,1,0,4.43,4.35,4.35,4.35,0,0,0-4.43-4.35m0,8.16a3.77,3.77,0,1,1,3.81-3.81,3.76,3.76,0,0,1-3.81,3.81"/><path class="cls-2" d="M754.19,141.29c0-1-.18-1.07-.53-1.24a1.2,1.2,0,0,0,.7-1.16,1.39,1.39,0,0,0-1.5-1.42h-2.49v4.88h1v-1.86h1.06c.8,0,.8.27.8.89a2.44,2.44,0,0,0,.09,1h1.15v-.09c-.26-.09-.26-.26-.26-1m-1.6-1.69h-1.24v-1.24h1.24c.62,0,.71.35.71.62,0,.44-.18.62-.71.62"/><path class="cls-2" d="M456.25,165.78h21.58a6.18,6.18,0,0,1-.52-2.6,16.59,16.59,0,0,1,.52-4l6-23.56h14.84l1.86-7.26H485.72l1-3.84c.52-2.07,1.25-2.38,5.4-2.38h5.5a10.78,10.78,0,0,1,5.81,1.24l1.14-8.51H483.54c-5.09,0-7.89.52-10.07,1.87-3,1.76-3.94,3.42-5.5,9.65l-.62,2h-8.3l-1.87,7.26h8.3L460,157.06c-1.25,4.67-1.87,6-3.74,8.72"/><path class="cls-2" d="M547.87,156.13l3.52-13.8A15.06,15.06,0,0,0,552,138a10.73,10.73,0,0,0-2-6.12c-2.07-2.6-4.46-3.53-9.33-3.53H518c-5.08,0-7.67.31-9.85,1.25a10.89,10.89,0,0,0-5.71,7.16l-4.25,16.6a12.43,12.43,0,0,0-.42,3.21,9.09,9.09,0,0,0,3.32,7.26c2.08,1.77,3.22,2,9.13,2h22.62c5.92,0,8.41-.52,10.69-2.18s3.21-3.43,4.36-7.47m-14.53-15.36L529.6,155.4c-.62,2.7-1.34,3.22-4.66,3.22h-5.5c-2.39,0-3.53-.62-3.53-2.18a10,10,0,0,1,.41-2.18l3.95-15.46c.72-2.49,1.55-3.22,4.67-3.22H530c2.7,0,3.94.73,3.94,2.6a8.72,8.72,0,0,1-.62,2.59"/><path class="cls-2" d="M592.58,140.56l3.22-12.24H585.32c-5.6,0-7.78,1.35-10.48,6.33l.31-2v-2.59l.21-1.77H558.14a7,7,0,0,1,.52,2.7,18.13,18.13,0,0,1-.52,4l-5.71,22c-1.24,4.56-1.76,6-3.73,8.72h21.58a5.88,5.88,0,0,1-.42-2.6,22.71,22.71,0,0,1,.42-4l4.46-17.33c.62-2.39,1.87-3.22,5.08-3.22h6.43a9.24,9.24,0,0,1,6.33,2"/><path class="cls-2" d="M634.71,128.32H623.92a8.29,8.29,0,0,0-3.74.52,4.38,4.38,0,0,0-1.66,1.45l1.66-6.53,2.29-8.93H602.34a6.18,6.18,0,0,1,.52,2.6,23.23,23.23,0,0,1-.52,4l-9.13,35.69c-1.25,4.47-1.87,5.92-3.74,8.62h19.82l.83-3.43c.93,2.7,2.28,3.43,6.64,3.43h13.69c6.54,0,10.07-2.8,11.83-9.65l3.43-13.49a21.59,21.59,0,0,0,.72-4.88,8.61,8.61,0,0,0-3.32-6.95c-2.38-1.87-4.25-2.49-8.4-2.49m-6.75,12-3.42,13.28c-1,4-1.56,4.87-4.36,5h-4.87c-2.29,0-3.43-.83-3.43-2.18a9,9,0,0,1,.31-2l3.95-15.15c.83-3.11,1.45-3.74,4-3.74h4.57c2.59,0,3.73.83,3.73,2.39a9.27,9.27,0,0,1-.52,2.39"/><path class="cls-2" d="M687.73,158.62H669.67a21.05,21.05,0,0,1-3.42-.21,2.49,2.49,0,0,1-1.56-2.18c0-.31.21-1.35.31-2.07l.94-3.53h30.92l2.38-9.24a16.36,16.36,0,0,0,.52-3.73,8.67,8.67,0,0,0-2.9-6.75c-2.08-2-4.57-2.59-10.07-2.59H663.24c-6.64,0-10.48,2.7-11.93,8.41L647,153.33a17.2,17.2,0,0,0-.31,3.11,9.34,9.34,0,0,0,3.11,6.74c1.87,1.77,4.67,2.6,8.61,2.6h32.79l3.22-8a18.49,18.49,0,0,1-6.64.83M669,139.11c.83-3,1.45-3.53,4.35-3.53H679c1.87,0,2.8.52,2.8,1.87,0,.21-.21.94-.31,1.66l-1.14,4.36H667.91Z"/><path class="cls-2" d="M722.69,160.59c1.77,3.21,1.77,3.42,1.77,5.19H747.7a34.81,34.81,0,0,1-5-6.64l-8.09-13.8,22.72-17H744.07c-.32.83-1.25,1.87-3.74,3.94L730.78,139l-2.59-4.57a12.07,12.07,0,0,1-2-6.12H703c1.45,1.14,1.66,1.45,3.53,4.67l9.75,16.81-21.58,16h13.17c.32-1,.83-1.56,2.81-3.12l9.23-7"/><path class="cls-2" d="M592.51,171.42a2.67,2.67,0,0,0-1.79-.48h-4.06c-.58,0-.75.07-.91.36a5,5,0,0,0-.24.94c0,.3.21.44.69.44h3.53a1.82,1.82,0,0,1,1.36.38,1.46,1.46,0,0,1,.5,1.16,2.65,2.65,0,0,1-.15.91l-.77,3c-.35,1.29-.52,1.57-1.11,2s-1,.52-2.78.52h-7.65l.33-2.35c.64.4.83.44,2.07.44h3.79c.62,0,.73-.05.88-.35a2.91,2.91,0,0,0,.23-.9c0-.3-.21-.42-.66-.42h-3.29c-1.42,0-2.17-.54-2.17-1.6a5,5,0,0,1,.24-1.34l.7-2.68a2.6,2.6,0,0,1,1.25-1.89,3.67,3.67,0,0,1,2.1-.5h8.17"/><path class="cls-2" d="M603.13,181.26c-.36,1.43-.5,1.72-1,2.12a3.19,3.19,0,0,1-2.17.49h-8.36l.17-1.84a4.86,4.86,0,0,0,1.49.19h4.54c.78,0,1-.14,1.15-.82l.34-1.32c-.38.47-.57.54-1.52.54h-2.13a8.73,8.73,0,0,1-1-.09,2.13,2.13,0,0,1-1.84-2.14,4.68,4.68,0,0,1,.21-1.23l.92-3.53a6.44,6.44,0,0,0,.11-.92,1.34,1.34,0,0,0-.13-.61h4.57L597,178c-.12.4-.12.4-.12.51,0,.29.28.45.82.45h1.06c.68,0,.88-.18,1.08-.94l1.14-4.4a5.27,5.27,0,0,0,.11-.92,1.46,1.46,0,0,0-.12-.61h4.57"/><path class="cls-2" d="M611.53,172.88c.36-.67.55-.78,1.42-.78h2.82a2.26,2.26,0,0,1,1.84.73,2.49,2.49,0,0,1,.54,1.46,6.19,6.19,0,0,1-.21,1.36l-.89,3.44a5.18,5.18,0,0,0-.1.92,1.73,1.73,0,0,0,.1.61h-4.9a4.87,4.87,0,0,0,.85-2l1-3.78a2.74,2.74,0,0,0,.14-.67.46.46,0,0,0-.4-.42,1.6,1.6,0,0,0-.42,0h-1c-.68,0-.87.14-1,.82l-1.17,4.52a5.18,5.18,0,0,0-.1.92,1.53,1.53,0,0,0,.1.61h-4.9a5,5,0,0,0,.85-2l1.29-5a4,4,0,0,0,.12-.92,1.46,1.46,0,0,0-.12-.61h4.4"/><path class="cls-2" d="M629,173.75H625.6l-1.11,4.31a.8.8,0,0,0,0,.26c0,.46.35.65,1.16.65h1.11a3.92,3.92,0,0,0,1.46-.26l-.5,1.91h-4.24c-.33,0-.94,0-1.34-.07a2,2,0,0,1-1.82-2.05,3.67,3.67,0,0,1,.08-.7l1.06-4.05h-1.75l.43-1.65h1.74l.43-1.61,4.23-.26L626,172.1h3.37"/><path class="cls-2" d="M635.2,172.59a1.66,1.66,0,0,1,1.44-.49h2.19c1.13,0,1.57.12,2,.58a2.35,2.35,0,0,1,.73,1.61,4.1,4.1,0,0,1-.15,1l-1,3.82a4.38,4.38,0,0,0-.11.92,1.61,1.61,0,0,0,.11.61h-4.91a5,5,0,0,0,.86-2l1-3.74a3,3,0,0,0,.08-.54c0-.42-.27-.61-.86-.61h-.84c-.73,0-.92.18-1.13,1l-1.13,4.35a5.18,5.18,0,0,0-.1.92,1.73,1.73,0,0,0,.1.61h-4.9a5.15,5.15,0,0,0,.85-2l2.09-8.08a5.1,5.1,0,0,0,.1-.93,1.56,1.56,0,0,0-.1-.6h4.57"/><path class="cls-2" d="M652.88,180.62h-7.43a2.67,2.67,0,0,1-2-.61,2.12,2.12,0,0,1-.71-1.53,3.48,3.48,0,0,1,.08-.69l1-3.76a2.45,2.45,0,0,1,2.71-1.93h5.33c1.27,0,1.83.14,2.3.59a2,2,0,0,1,.66,1.53,3.28,3.28,0,0,1-.12.85l-.54,2.13h-7l-.2.78a2.43,2.43,0,0,0-.07.47.51.51,0,0,0,.34.47,3.13,3.13,0,0,0,.77.05h4.1a4.3,4.3,0,0,0,1.51-.18m-3.2-3.25.27-1c0-.17.06-.33.06-.38,0-.3-.2-.44-.62-.44h-1.31c-.64,0-.8.12-1,.82l-.24,1Z"/><path class="cls-2" d="M665.13,173.75h-3.37l-1.12,4.31a.8.8,0,0,0,0,.26c0,.46.35.65,1.16.65h1.12a4,4,0,0,0,1.46-.26l-.51,1.91H659.6c-.33,0-.94,0-1.34-.07a2,2,0,0,1-1.82-2.05,3.67,3.67,0,0,1,.08-.7l1.06-4.05h-1.75l.43-1.65H658l.44-1.61,4.22-.26-.49,1.87h3.38"/><path class="cls-2" d="M669.79,179.09a4.38,4.38,0,0,0-.11.92,1.55,1.55,0,0,0,.11.61h-4.91a5,5,0,0,0,.86-2l1.28-5a4,4,0,0,0,.12-.92,1.32,1.32,0,0,0-.12-.61h4.57m.21-.81h-4.17l.59-2.26h4.17Z"/><path class="cls-2" d="M682.59,174a2.56,2.56,0,0,0-1.33-.28h-2.85c-.8,0-1,.14-1.19.87l-.85,3.34a1.48,1.48,0,0,0-.08.45c0,.4.33.56,1.16.56h2.42a3.59,3.59,0,0,0,1.49-.21l-.76,1.86h-5.67a3,3,0,0,1-2.07-.52,1.9,1.9,0,0,1-.75-1.5,3.8,3.8,0,0,1,.16-.95l.92-3.55a2.54,2.54,0,0,1,1.1-1.63,3.32,3.32,0,0,1,2-.37h6.5"/><path class="cls-2" d="M701.66,173.79a5.24,5.24,0,0,0-.83,2l-.87,3.32a5.27,5.27,0,0,0-.11.92,1.55,1.55,0,0,0,.11.61h-3.67l0-1.08a1.38,1.38,0,0,1-1.6,1.08h-3.65c-1.22,0-1.74-.1-2.17-.45a2.17,2.17,0,0,1-.84-1.67,4.22,4.22,0,0,1,.21-1.18l1.48-5.77a2.79,2.79,0,0,1,1.53-2.11c.88-.4.92-.4,3.34-.41h7.57l-.19,2.2a5.15,5.15,0,0,0-2-.29h-4.45c-.95,0-1.21.17-1.4.92l-1.52,5.84a1.16,1.16,0,0,0-.08.43c0,.39.26.58.8.58h1.47c.68,0,.82-.14,1.08-1.12l.49-1.89h-1.11a3.63,3.63,0,0,0-1.39.21l.55-2.12"/><path class="cls-2" d="M707.48,172.5v.59l-.06.46a2.24,2.24,0,0,1,2.39-1.45h2.36l-.73,2.78a2.16,2.16,0,0,0-1.43-.43h-1.46c-.74,0-1,.17-1.16.73l-1,3.91a5.18,5.18,0,0,0-.1.92,1.73,1.73,0,0,0,.1.61h-4.9a5.15,5.15,0,0,0,.85-2l1.29-5a4,4,0,0,0,.12-.92,1.46,1.46,0,0,0-.12-.61h3.91"/><path class="cls-2" d="M721.35,172.1a2,2,0,0,1,1.55.51,2.41,2.41,0,0,1,.73,1.63,5.87,5.87,0,0,1-.17,1.17l-1,3.68a4.07,4.07,0,0,0-.12.92,1.46,1.46,0,0,0,.12.61h-4.12a1.51,1.51,0,0,1-.1-.64v-.19a1.63,1.63,0,0,1-1.65.83h-2.47a2.6,2.6,0,0,1-1.84-.56,1.92,1.92,0,0,1-.73-1.51,2.77,2.77,0,0,1,.12-.8l.21-.82a2.46,2.46,0,0,1,1-1.68,2.91,2.91,0,0,1,1.74-.33h4c.43,0,.45,0,.59-.11a.9.9,0,0,0,.22-.59c0-.36-.2-.47-.9-.47h-4.14a3.73,3.73,0,0,0-1.8.33l.92-2m3.37,4.45c-.7,0-.8.09-1,.7l-.22.87a1,1,0,0,0-.07.34c0,.39.19.51.81.51h1c.73,0,.8-.05,1-.61l.46-1.81Z"/><path class="cls-2" d="M735.92,174.07a4.51,4.51,0,0,0-2.09-.32h-3.58c-.4,0-.59.14-.59.45s.11.3.66.3h3a1.74,1.74,0,0,1,1.39.49,1.81,1.81,0,0,1,.54,1.21,4.28,4.28,0,0,1-.13.86l-.34,1.32a2.67,2.67,0,0,1-1,1.68,3.42,3.42,0,0,1-2.42.56h-7.21l.19-1.91a3.28,3.28,0,0,0,.88.21l.72,0,.73,0h3.35a.55.55,0,0,0,.63-.61c0-.23-.09-.28-.44-.28h-2.52a3,3,0,0,1-1.91-.36,1.74,1.74,0,0,1-.71-1.46,1.43,1.43,0,0,1,.07-.51l.43-1.74a2.7,2.7,0,0,1,1.06-1.56,3.49,3.49,0,0,1,1.79-.35H736"/><path class="cls-2" d="M747.63,174.07a4.46,4.46,0,0,0-2.08-.32H742c-.4,0-.59.14-.59.45s.1.3.66.3h3a1.74,1.74,0,0,1,1.39.49,1.81,1.81,0,0,1,.54,1.21,4.2,4.2,0,0,1-.12.86l-.35,1.32a2.67,2.67,0,0,1-1,1.68,3.4,3.4,0,0,1-2.42.56H735.9l.19-1.91a3.42,3.42,0,0,0,.89.21l.71,0,.73,0h3.35a.55.55,0,0,0,.63-.61c0-.23-.09-.28-.43-.28h-2.52a3.1,3.1,0,0,1-1.92-.36,1.76,1.76,0,0,1-.71-1.46,1.7,1.7,0,0,1,.07-.51l.43-1.74a2.72,2.72,0,0,1,1.07-1.56,3.49,3.49,0,0,1,1.79-.35h7.54"/><path class="cls-5" d="M113.32,752.32q-56.74,0-113.32-.87c17.22,38.79,44.33,80.41,105.91,124,5.21-13,13.21-25.06,22.83-36.36C114.48,807.16,112.88,778.6,113.32,752.32Z"/><path class="cls-6" d="M230.53,873.55C173,880,117.9,869.74,72.19,846c42.76,22.23,65.08-15.28,82.87-26.42,0,0,45.94,21.22,157.94,12.79C285.88,834.39,262,859.27,230.53,873.55Z"/><path class="cls-7" d="M832.74,809.66C916,758.73,934.63,731.14,958.91,704.81L1071.08,724C1015.23,792.91,936.9,828.62,936.9,828.62S875.15,830.36,832.74,809.66Z"/></svg>