<svg xmlns="http://www.w3.org/2000/svg" xmlns:xlink="http://www.w3.org/1999/xlink" viewBox="0 0 81.05 155.01"><defs><style>.cls-1{isolation:isolate;}.cls-2{opacity:0.4;mix-blend-mode:screen;fill:url(#linear-gradient);}.cls-3{fill:#001443;}.cls-4,.cls-5,.cls-6,.cls-7{mix-blend-mode:multiply;}.cls-4{fill:url(#linear-gradient-2);}.cls-5{opacity:0.5;fill:url(#linear-gradient-3);}.cls-6{fill:url(#linear-gradient-4);}.cls-7{opacity:0.7;fill:url(#linear-gradient-5);}.cls-8{font-size:13.49px;fill:#232323;font-family:Antonio-Bold, Antonio;font-weight:700;letter-spacing:-0.04em;}</style><linearGradient id="linear-gradient" x1="14347.8" y1="-2488.09" x2="14405.57" y2="-2488.09" gradientTransform="translate(1836.91 14527.76) rotate(-87.3)" gradientUnits="userSpaceOnUse"><stop offset="0.16" stop-color="#1173be" stop-opacity="0.9"/><stop offset="1" stop-color="#17a8e2" stop-opacity="0.8"/></linearGradient><linearGradient id="linear-gradient-2" x1="11212.9" y1="17173.75" x2="11253.88" y2="17173.75" gradientTransform="matrix(0.34, -0.94, -0.94, -0.34, 12324.29, 16532.75)" gradientUnits="userSpaceOnUse"><stop offset="0.16" stop-color="#e98500"/><stop offset="0.34" stop-color="#ec9200"/><stop offset="0.68" stop-color="#f5b500"/><stop offset="1" stop-color="#fedb00"/></linearGradient><linearGradient id="linear-gradient-3" x1="14352.92" y1="-2467.42" x2="14468.66" y2="-2467.42" gradientTransform="translate(1836.91 14527.76) rotate(-87.3)" gradientUnits="userSpaceOnUse"><stop offset="0.16" stop-color="#1374ad" stop-opacity="0.8"/><stop offset="1" stop-color="#1173be" stop-opacity="0.9"/></linearGradient><linearGradient id="linear-gradient-4" x1="13748.01" y1="-2929.19" x2="13815" y2="-2929.19" gradientTransform="matrix(0.13, -0.99, 0.99, 0.13, 1217.49, 14024.91)" xlink:href="#linear-gradient"/><linearGradient id="linear-gradient-5" x1="20012.96" y1="7215.47" x2="20155.87" y2="7215.47" gradientTransform="translate(14724.38 15542.73) rotate(-153.34)" xlink:href="#linear-gradient-2"/></defs><g class="cls-1"><g id="Layer_1" data-name="Layer 1"><path class="cls-2" d="M14.06,71.73a77.19,77.19,0,0,0,28.49,7.76q.35-12.31,1.22-24.21A73.15,73.15,0,0,1,26,41.48Q20.21,55.42,14.06,71.73Z"/><path class="cls-3" d="M62.44,106.4a5.76,5.76,0,0,1-.73-3.46,3.48,3.48,0,0,0-1.64-3.19c-1-.58-2.81.14-2.81.14a4.48,4.48,0,0,0-1.62.1,19.92,19.92,0,0,0-2.92,1.62s-7.48-3.39-8-3.85-.59-5.34-.51-6.07.12-3.61.12-3.61,3.46-3.77,4.06-7.79a8.87,8.87,0,0,0-2.15-6.91,6,6,0,0,0-.63-2.93,4.11,4.11,0,0,1,1.14-2.13,14.91,14.91,0,0,0,1.79-2.61c.14-.34.77-1.38.94-1.65s.68-.7.68-1.06,1.18-.22,1.79-.8a37.69,37.69,0,0,0,4.52-8.37c1.31-3.49-2.9-5.49-2.9-5.49l4.06-.49c1.43-.17,3.15-2.25,3.8-4.47s-2.15-6.22-2.95-7a3.09,3.09,0,0,0-2.22-.6,4.09,4.09,0,0,0-1.92-.32,8.38,8.38,0,0,0-2.61,1.43,3.7,3.7,0,0,0-1.38-.12c-.34.15-.58,1.28-.58,1.28s-.72-.17-.92,0a12.29,12.29,0,0,0-2,3c-.5,1.2.78,3.28.78,3.28L45.46,47a4.49,4.49,0,0,0-4.19-.1A11.68,11.68,0,0,0,33,45.53s-2.66-1.19-4.26-1.94a6.33,6.33,0,0,0-3.34-.46s-2.76-3-3.58-4.16-4.81-5.49-5.83-6.7A4.42,4.42,0,0,1,15.05,29a4,4,0,0,0,0-1.67c-.14-.56,1.07-1.77,1.07-1.77h0a7.46,7.46,0,1,0-8.29-6.39,2.31,2.31,0,0,0-.34.9,8.07,8.07,0,0,0,1.14,3.24c.46.53,1.18,3.14,1.59,3.87a19.39,19.39,0,0,1,1.48,3.36,8.25,8.25,0,0,0,1.4,2.69c.61.8,2.06,5.1,3,6.8s4,4.47,4.55,5.46a5.59,5.59,0,0,0,3.12,2.13c1,.27,2.8,1.55,5.05,2.86a16.06,16.06,0,0,0,6,1.5l-.39,1s-2.3-.05-3.63-.12-7.38.7-8.63.6a17.39,17.39,0,0,0-3.56.24c-.29.07-3.22.53-4.23.75A20.33,20.33,0,0,0,11,55.84c-.32.14-2.08,2.32-1.6,2.51s1.55-1.11,1.55-1.11-.36.87-.48,1.33-.25,1.47.16,1.62a.52.52,0,0,0,.63-.22s-.12,1.26.29,1.24.56-.71.51-1.26a5.9,5.9,0,0,1,1.33-2.74c.66-.79,2.62-.62,3.08-.24s-.42.78-.73,1.19a1,1,0,0,0,.17,1.47c.48.29,1.62-.58,2-1a10.33,10.33,0,0,1,2.1-1.89,16.92,16.92,0,0,1,6.12,1.38c2,1,5.79.78,5.79.78s-.71,3.63-1.19,7.23a34.08,34.08,0,0,0,.27,8.25s.31,2.06.29,2.52a37.42,37.42,0,0,1-1.74,3.77,16,16,0,0,0-.85,3.51s-.9,1.48-1.16,2a76.1,76.1,0,0,0-2,8.06c-.37,2.18-.56,7.45-.75,8.13a2.06,2.06,0,0,0,.43,1.5A4.19,4.19,0,0,0,27.51,107c1.52.65,9.07.22,10.83.17s6.49-.75,8-1,3.79,0,4.13.39a18.79,18.79,0,0,0,2.21,1.72A8.34,8.34,0,0,0,54,109s0,.82,0,1.28a3.36,3.36,0,0,0,.9,1.86,5.47,5.47,0,0,0,1,.49,9.06,9.06,0,0,1,1,3c0,.51.68,1.87,1.47,2s.51-1.43.51-1.43,1,1.86,2.47,1.94A1.74,1.74,0,0,0,63,117c1.6-.94,1.74-3.36,1.57-5.49A12,12,0,0,0,62.44,106.4Z"/><path class="cls-4" d="M40.48,129.15C26.82,125.46,13,122.28,0,116.7c4.11-13.57,8.25-26.22,12.31-37.86A76.08,76.08,0,0,0,37.66,87,362.9,362.9,0,0,0,40.48,129.15Z"/><path class="cls-5" d="M39,74.19c-1-18.06-1.06-36.07-.47-53.67A72.8,72.8,0,0,0,52,24.89c2.89,16,5.8,28.68,10.58,42.85C54.84,69.73,47.52,73.74,39,74.19Z"/><path class="cls-6" d="M39.51,12.76Q41.1,6.24,42.73,0a57.58,57.58,0,0,0,9.79,5.86Q51.6,12,50.77,18.24A61,61,0,0,1,39.51,12.76Z"/><path class="cls-7" d="M40.39,120.18c-2.41-10.83-4.34-20.52-6-29.34A88.77,88.77,0,0,0,56.54,84Q67.8,94.17,81.05,105.47C70.9,112.25,57.62,117.64,40.39,120.18Z"/><text class="cls-8" transform="matrix(0.89, 0, -0.45, 0.89, 13.67, 150.72)">BASQUET</text></g></g></svg>