<svg xmlns="http://www.w3.org/2000/svg" xmlns:xlink="http://www.w3.org/1999/xlink" viewBox="0 0 1435.71 253.74"><defs><style>.cls-1{isolation:isolate;}.cls-2{fill:url(#linear-gradient);}.cls-3,.cls-6{mix-blend-mode:multiply;}.cls-3{fill:url(#linear-gradient-2);}.cls-4,.cls-5,.cls-7{opacity:0.8;}.cls-4{fill:url(#linear-gradient-3);}.cls-5{fill:url(#linear-gradient-4);}.cls-6{fill:url(#linear-gradient-5);}.cls-7{fill:url(#linear-gradient-6);}</style><linearGradient id="linear-gradient" x1="-1379.03" y1="163.38" x2="-1230.86" y2="163.38" gradientTransform="matrix(0.98, -0.22, -0.22, -0.98, 2235.99, 447.6)" gradientUnits="userSpaceOnUse"><stop offset="0.16" stop-color="#1374ae" stop-opacity="0.8"/><stop offset="1" stop-color="#1173be" stop-opacity="0.9"/></linearGradient><linearGradient id="linear-gradient-2" x1="1138.87" y1="6281.1" x2="2183.1" y2="6281.1" gradientTransform="translate(-3034.03 5865.85) rotate(-132.99)" gradientUnits="userSpaceOnUse"><stop offset="0.16" stop-color="#1173be" stop-opacity="0.9"/><stop offset="0.22" stop-color="#1381c8" stop-opacity="0.69"/><stop offset="0.28" stop-color="#148dd0" stop-opacity="0.51"/><stop offset="0.34" stop-color="#1597d6" stop-opacity="0.36"/><stop offset="0.41" stop-color="#169edc" stop-opacity="0.24"/><stop offset="0.49" stop-color="#17a4df" stop-opacity="0.16"/><stop offset="0.58" stop-color="#17a7e1" stop-opacity="0.11"/><stop offset="0.72" stop-color="#17a8e2" stop-opacity="0.1"/></linearGradient><linearGradient id="linear-gradient-3" x1="1117.15" y1="407.82" x2="1218.87" y2="724.89" gradientUnits="userSpaceOnUse"><stop offset="0.16" stop-color="#82bc3f" stop-opacity="0.8"/><stop offset="0.23" stop-color="#67b140" stop-opacity="0.82"/><stop offset="0.36" stop-color="#42a242" stop-opacity="0.85"/><stop offset="0.49" stop-color="#259743" stop-opacity="0.87"/><stop offset="0.64" stop-color="#108e44" stop-opacity="0.89"/><stop offset="0.8" stop-color="#048a45" stop-opacity="0.9"/><stop offset="1" stop-color="#008845" stop-opacity="0.9"/></linearGradient><linearGradient id="linear-gradient-4" x1="2736.45" y1="1920.15" x2="4154.76" y2="1920.15" gradientTransform="matrix(0.79, 0.2, 0, -0.7, -1786.02, 1247.75)" gradientUnits="userSpaceOnUse"><stop offset="0.16" stop-color="#82bc3f" stop-opacity="0.8"/><stop offset="0.19" stop-color="#78b83f" stop-opacity="0.81"/><stop offset="0.34" stop-color="#4da741" stop-opacity="0.84"/><stop offset="0.5" stop-color="#2b9943" stop-opacity="0.87"/><stop offset="0.66" stop-color="#139044" stop-opacity="0.89"/><stop offset="0.83" stop-color="#058a45" stop-opacity="0.9"/><stop offset="1" stop-color="#008845" stop-opacity="0.9"/></linearGradient><linearGradient id="linear-gradient-5" x1="11762.9" y1="24.83" x2="12420.58" y2="24.83" gradientTransform="matrix(-0.67, -0.74, -0.74, 0.67, 9544.22, 9445.51)" xlink:href="#linear-gradient-2"/><linearGradient id="linear-gradient-6" x1="1241.08" y1="-37.1" x2="1521.2" y2="-37.1" gradientTransform="matrix(0.91, 0.41, 0.41, -0.91, -1003.5, -39.53)" xlink:href="#linear-gradient-4"/></defs><g class="cls-1"><g id="Capa_1" data-name="Capa 1"><path class="cls-2" d="M975.07,615.8c-17.53-.58-42.81-3.84-79.82-14.14-27-27.36-42.55-49-52.4-65.7,40.69,27.17,76.86,35.66,106.46,48.08C956.31,590.67,965.48,607.94,975.07,615.8Z" transform="translate(-112.77 -418.05)"/><path class="cls-3" d="M804.68,419.81C487.59,406.25,419.15,477,152.53,425L254.1,532.52c242.34,51.61,465.52-11,610.28,61.13C825.78,542.23,811.73,468.59,804.68,419.81Z" transform="translate(-112.77 -418.05)"/><path class="cls-4" d="M1473.64,544.06c7.92-58.61,23.39-94.53,37.12-108.55-73.73,14.95-278,33.11-644.41-10.82-19,26.43-63.22,59.83-103.8,77.09,195.76,62.27,474.82,47.05,707.8,97.23C1470.07,588.45,1472.26,554.29,1473.64,544.06Z" transform="translate(-112.77 -418.05)"/><path class="cls-5" d="M962,607.21q53.73.66,100.79.45-18-13.12-33.22-25.82-50.52-4-106.51-9.15Q940.4,589.57,962,607.21Z" transform="translate(-112.77 -418.05)"/><path class="cls-6" d="M1544.21,473.41c-51,2.5-96.38,5.79-137.49,9.33,3.56,39.8,1.89,75.17-3.55,106.54,39.35,25,81.23,52.4,125.4,82.51C1546.26,618.46,1554,552.93,1544.21,473.41Z" transform="translate(-112.77 -418.05)"/><path class="cls-7" d="M112.77,579.88a374.4,374.4,0,0,1,29-140.18c36,17,71.86,32.91,107.35,47.81,1,33,7.13,68.79,20.58,107.27C221.11,591,168.86,586.14,112.77,579.88Z" transform="translate(-112.77 -418.05)"/></g></g></svg>