<svg xmlns="http://www.w3.org/2000/svg" xmlns:xlink="http://www.w3.org/1999/xlink" viewBox="0 0 1370.12 431.43"><defs><style>.cls-1,.cls-2,.cls-3,.cls-4{opacity:0.8;}.cls-1{fill:url(#linear-gradient);}.cls-2{fill:url(#linear-gradient-2);}.cls-3{fill:url(#linear-gradient-3);}.cls-4{fill:url(#linear-gradient-4);}</style><linearGradient id="linear-gradient" x1="786.24" y1="1201.89" x2="1030.16" y2="1201.89" gradientTransform="translate(-622.23 -1160.52) rotate(6.92)" gradientUnits="userSpaceOnUse"><stop offset="0.16" stop-color="#82bc3f" stop-opacity="0.8"/><stop offset="0.19" stop-color="#78b83f" stop-opacity="0.81"/><stop offset="0.34" stop-color="#4da741" stop-opacity="0.84"/><stop offset="0.5" stop-color="#2b9943" stop-opacity="0.87"/><stop offset="0.66" stop-color="#139044" stop-opacity="0.89"/><stop offset="0.83" stop-color="#058a45" stop-opacity="0.9"/><stop offset="1" stop-color="#008845" stop-opacity="0.9"/></linearGradient><linearGradient id="linear-gradient-2" x1="1209.45" y1="-329.45" x2="1553.31" y2="-329.45" gradientTransform="matrix(0.91, 0.41, 0.41, -0.91, -894.59, -547.37)" xlink:href="#linear-gradient"/><linearGradient id="linear-gradient-3" x1="-101.76" y1="513.85" x2="2634.79" y2="513.85" gradientTransform="matrix(0.74, 0.22, 0.29, -0.96, 16.47, 561.64)" xlink:href="#linear-gradient"/><linearGradient id="linear-gradient-4" x1="1044.37" y1="544.13" x2="1388.24" y2="544.13" gradientTransform="matrix(0.96, 0.29, 0.29, -0.96, -100.56, 526.29)" xlink:href="#linear-gradient"/></defs><g id="Capa_2" data-name="Capa 2"><g id="Capa_1-2" data-name="Capa 1"><path class="cls-1" d="M43,0C25.8,82.47,5.39,164.46,0,248.39c83.12,14.78,161.43,26.86,234.15,36.67a451.9,451.9,0,0,1,24.9-156.59C186.09,90.42,112.86,47.6,43,0Z"/><path class="cls-2" d="M72.84,343.15a459.88,459.88,0,0,1,35.6-172.09c44.17,20.88,88.22,40.4,131.78,58.69,1.2,40.54,8.76,84.45,25.28,131.69C205.84,356.75,141.7,350.83,72.84,343.15Z"/><path class="cls-3" d="M1166.12,431.43q108.42-4.05,204-9.67-26.07-32.56-47-64.29c-66.21-3.35-135.79-7.41-208.75-12.55A832.62,832.62,0,0,0,1166.12,431.43Z"/><path class="cls-4" d="M1068,399.35a459.57,459.57,0,0,1,12.93-175.26c46.5,15,92.71,28.58,138.29,41,6.46,40.05,19.66,82.59,42.18,127.28C1201.61,395.54,1137.23,398,1068,399.35Z"/></g></g></svg>