<svg xmlns="http://www.w3.org/2000/svg" xmlns:xlink="http://www.w3.org/1999/xlink" viewBox="0 0 536.68 131.26"><defs><style>.cls-1{isolation:isolate;}.cls-2,.cls-4,.cls-5{mix-blend-mode:multiply;}.cls-2{fill:url(#linear-gradient);}.cls-3{fill:url(#linear-gradient-2);}.cls-4{fill:url(#linear-gradient-3);}.cls-5{fill:url(#linear-gradient-4);}.cls-6{fill:url(#linear-gradient-5);}.cls-7{fill:url(#linear-gradient-6);}.cls-8{fill:url(#linear-gradient-7);}.cls-9{fill:url(#linear-gradient-8);}.cls-10{fill:url(#linear-gradient-9);}</style><linearGradient id="linear-gradient" x1="15635.72" y1="9130.82" x2="15767.47" y2="9130.82" gradientTransform="translate(16932.33 7707.99) rotate(174.84)" gradientUnits="userSpaceOnUse"><stop offset="0.16" stop-color="#4592e9"/><stop offset="1" stop-color="#fff"/></linearGradient><linearGradient id="linear-gradient-2" x1="15643.12" y1="9092.2" x2="15777.84" y2="9092.2" gradientTransform="translate(16932.33 7707.99) rotate(174.84)" gradientUnits="userSpaceOnUse"><stop offset="0.16" stop-color="#82bc3f" stop-opacity="0.8"/><stop offset="0.19" stop-color="#78b83f" stop-opacity="0.81"/><stop offset="0.34" stop-color="#4da741" stop-opacity="0.84"/><stop offset="0.5" stop-color="#2b9943" stop-opacity="0.87"/><stop offset="0.66" stop-color="#139044" stop-opacity="0.89"/><stop offset="0.83" stop-color="#058a45" stop-opacity="0.9"/><stop offset="1" stop-color="#008845" stop-opacity="0.9"/></linearGradient><linearGradient id="linear-gradient-3" x1="15661.65" y1="9105.83" x2="15716.02" y2="9105.83" xlink:href="#linear-gradient"/><linearGradient id="linear-gradient-4" x1="15712.75" y1="9108.24" x2="15791.79" y2="9108.24" gradientTransform="translate(16932.33 7707.99) rotate(174.84)" gradientUnits="userSpaceOnUse"><stop offset="0.16" stop-color="#1374ae" stop-opacity="0.8"/><stop offset="1" stop-color="#1173be" stop-opacity="0.9"/></linearGradient><linearGradient id="linear-gradient-5" x1="15712.74" y1="9087.15" x2="15803.11" y2="9087.15" xlink:href="#linear-gradient-2"/><linearGradient id="linear-gradient-6" x1="106.52" y1="59.08" x2="444.03" y2="59.08" gradientUnits="userSpaceOnUse"><stop offset="0.16" stop-color="#e98500"/><stop offset="0.34" stop-color="#ec9200"/><stop offset="0.68" stop-color="#f5b500"/><stop offset="1" stop-color="#fedb00"/></linearGradient><linearGradient id="linear-gradient-7" x1="4444.38" y1="12823.32" x2="4592.54" y2="12823.32" gradientTransform="matrix(0.75, -0.66, -0.66, -0.75, 5119.34, 12721.98)" xlink:href="#linear-gradient-4"/><linearGradient id="linear-gradient-8" x1="4858.97" y1="12935.65" x2="4993.71" y2="12935.65" gradientTransform="matrix(0.71, -0.71, -0.71, -0.71, 5792.87, 12711.1)" gradientUnits="userSpaceOnUse"><stop offset="0.16" stop-color="#1173be" stop-opacity="0.9"/><stop offset="1" stop-color="#17a8e2" stop-opacity="0.8"/></linearGradient><linearGradient id="linear-gradient-9" x1="4857.89" y1="12967.18" x2="4947.98" y2="12967.18" xlink:href="#linear-gradient-8"/></defs><g class="cls-1"><g id="Layer_1" data-name="Layer 1"><path class="cls-2" d="M478.73,0q19.68,3.95,39.38,7.49C509,21.88,496.29,36.73,471.44,50a56.48,56.48,0,0,0-5-16.19C473.94,22,476.78,10.59,478.73,0Z"/><path class="cls-3" d="M536.68,68.69c-20.8,1.38-41.79,1.92-62.45,2A38.66,38.66,0,0,0,476,59.42a436.13,436.13,0,0,0,50.17-10.73A97.19,97.19,0,0,1,536.68,68.69Z"/><path class="cls-4" d="M516.28,48.8q-12.9,3.91-27.35,7.08a47.93,47.93,0,0,0-.81-7.86q13.42-3.87,25.14-8.42A69.2,69.2,0,0,1,516.28,48.8Z"/><path class="cls-5" d="M437.19,61.51a250.59,250.59,0,0,0,28.1-9.24,48.87,48.87,0,0,0-3.69-13.83c-6,6.32-14.22,12.58-25.87,18.39C436.29,58.37,436.78,59.94,437.19,61.51Z"/><path class="cls-6" d="M463.4,76.69q-9.79-.84-19.19-1.75a38.39,38.39,0,0,0,4.17-10.48q8.92.23,18.05.32A39.65,39.65,0,0,1,463.4,76.69Z"/><rect class="cls-7" x="106.52" y="18.12" width="337.52" height="81.91" rx="40.95"/><path class="cls-8" d="M154.3,105.52c-15.67,7.87-39.44,17.09-76.87,25.74C40.69,120.11,16.63,108.55,0,98.6a639.88,639.88,0,0,0,122.16-.36C131.47,100.73,142.12,103.2,154.3,105.52Z"/><path class="cls-9" d="M74.76,81c24.42,2.29,47.84,6.19,68.3,5.58,7.5,2.69,16.37,5.5,27.09,8.29-25.5,4.76-60.12,8.83-101.81,9.27C72.43,97.44,74,87.56,74.76,81Z"/><path class="cls-10" d="M62.13,80.09a10.48,10.48,0,0,0-1-5.3C70.41,76.35,80,77.91,89.9,79.4c5.18,2.28,11.16,4.91,18.56,7.8-15-.66-30.7-1.92-46.67-4A28.24,28.24,0,0,0,62.13,80.09Z"/></g></g></svg>