<svg id="Layer_1" data-name="Layer 1" xmlns="http://www.w3.org/2000/svg" xmlns:xlink="http://www.w3.org/1999/xlink" viewBox="0 0 748.21 266.87"><defs><style>.cls-1{opacity:0.8;fill:url(#linear-gradient);}.cls-2{fill:#065a9c;}.cls-3{fill:#e8b41e;}.cls-4{fill:#f8ffff;}</style><linearGradient id="linear-gradient" x1="354.59" y1="75.68" x2="456.32" y2="392.74" gradientUnits="userSpaceOnUse"><stop offset="0.16" stop-color="#82bc3f" stop-opacity="0.8"/><stop offset="0.23" stop-color="#67b140" stop-opacity="0.82"/><stop offset="0.36" stop-color="#42a242" stop-opacity="0.85"/><stop offset="0.49" stop-color="#259743" stop-opacity="0.87"/><stop offset="0.64" stop-color="#108e44" stop-opacity="0.89"/><stop offset="0.8" stop-color="#048a45" stop-opacity="0.9"/><stop offset="1" stop-color="#008845" stop-opacity="0.9"/></linearGradient></defs><path class="cls-1" d="M711.09,211.92c7.91-58.61,23.39-94.53,37.12-108.55-73.73,14.95-278,33.11-644.42-10.83C84.85,119,40.58,152.38,0,169.63c195.75,62.27,474.82,47.06,707.8,97.24C707.52,256.31,709.71,222.15,711.09,211.92Z"/><g id="pOSeen"><path class="cls-2" d="M188.48,97c.65-12.46,4.07-24,11.11-34.43A65.7,65.7,0,0,1,237.3,35.35a63.21,63.21,0,0,1,10.84-2A66.07,66.07,0,0,1,317.37,79.1,64.33,64.33,0,0,1,320,91.22a68.27,68.27,0,0,1,.38,8.21,62.5,62.5,0,0,1-9.56,33.34A65.44,65.44,0,0,1,272,162.06a60.74,60.74,0,0,1-10.53,2,61.81,61.81,0,0,1-9.52.32,65.19,65.19,0,0,1-44.18-19.46,64.49,64.49,0,0,1-17.31-30.71,60.13,60.13,0,0,1-1.59-9.71c-.07-.87-.14-1.75-.22-2.62,0-.14,0-.3-.14-.39Zm2,1.81a63.83,63.83,0,0,0,1.38,13.15,64,64,0,0,0,71.4,50A61.2,61.2,0,0,0,278,158a63.66,63.66,0,0,0,31.61-27,62.3,62.3,0,0,0,8.8-30,63.1,63.1,0,0,0-1.08-14A62.3,62.3,0,0,0,309,65.49,64,64,0,0,0,282.66,41.6a64,64,0,0,0-92.19,57.17Z"/><path class="cls-3" d="M255.16,0c0,.38,0,.75,0,1.13s.07.4.35.37.29,0,.44,0c.57,0,.57,0,.57.59,0,.74.07.68-.67.68h-.19c-.49,0-.49,0-.5.47v.57a1.19,1.19,0,0,0,1,1.09,17.07,17.07,0,0,1,4.19.75,15.22,15.22,0,0,1,6.9,4.27c.11.12.21.25.33.37.31.31.43.83.85,1a5.51,5.51,0,0,0,1.3.15,23.55,23.55,0,0,1,5.38,1.14,13.72,13.72,0,0,1,4.91,2.83,10.15,10.15,0,0,1,3.24,6.08,8.85,8.85,0,0,1-.86,5.72,11.91,11.91,0,0,1-3.66,3.91c-.28.2-.51.09-.76,0-2.24-.81-4.5-1.53-6.81-2.13a67.33,67.33,0,0,0-8.68-1.62c-2.56-.31-5.12-.46-7.69-.56a33.16,33.16,0,0,0-3.45.13c-1.25.08-2.5.21-3.75.32a59.71,59.71,0,0,0-8.71,1.44,70.66,70.66,0,0,0-8,2.43.8.8,0,0,1-.85-.11,11.9,11.9,0,0,1-3.23-3.29,8.68,8.68,0,0,1-1.1-6.57,10.58,10.58,0,0,1,5.55-7.44,18.91,18.91,0,0,1,6-2c1-.17,2-.3,3-.37a.6.6,0,0,0,.51-.29,15.24,15.24,0,0,1,9.95-5.88,14.15,14.15,0,0,1,2.05-.24,1.22,1.22,0,0,0,1-1.07s0-.05,0-.07c0-.3.13-.68-.08-.91s-.55-.08-.84-.07-.43-.1-.44-.43c0-.84,0-.84.83-.85.53,0,.53,0,.53-.56,0-.31,0-.63,0-.94Zm-1.93,17.28a1.72,1.72,0,0,0-.17-.19,1.71,1.71,0,0,1,.21-2.74,1.81,1.81,0,0,0,.34-.28c.38-.39.37-.69-.06-1a3.1,3.1,0,0,1-.88-1.21,6.43,6.43,0,0,1-.42-1.5c-.08-.6-.11-.62-.72-.52a20.22,20.22,0,0,0-2.86.7,10.56,10.56,0,0,0-5.26,3.56,12,12,0,0,0-2.17,5c-.1.47-.13.44.41.64A3.29,3.29,0,0,1,244,23.19a2.59,2.59,0,0,1-.41,1.3c-.18.28-.1.44.13.63a1.79,1.79,0,0,0,2.52-.31.43.43,0,0,0,0-.61,1.68,1.68,0,0,1-.29-.75,2,2,0,0,1,1-2.06,2.49,2.49,0,0,1,2.61.11,2.07,2.07,0,0,1,.72,2.24c-.18.67,0,.93.66,1a2.06,2.06,0,0,0,1.87-.65c-1.65-1.26-2.22-2.42-1.94-4.1A3.17,3.17,0,0,1,253.23,17.28Zm3.1,6.84a1.87,1.87,0,0,0,2,.58c.45-.17.53-.38.4-.88a2.14,2.14,0,0,1,.16-1.7A2.27,2.27,0,0,1,262,21.4a2,2,0,0,1,.73,2.81c-.12.17-.19.3,0,.5a1.77,1.77,0,0,0,2.33.57c.54-.3.58-.4.3-1a3.13,3.13,0,0,1,.55-3.6,4,4,0,0,1,1.71-1c.32-.07.4-.23.33-.54a17.83,17.83,0,0,0-.74-2.46,10.17,10.17,0,0,0-3.3-4.42,13.18,13.18,0,0,0-5.26-2.25l-1.29-.25c-.24,0-.42,0-.42.31a1.07,1.07,0,0,1,0,.25,4.22,4.22,0,0,1-1.46,2.82.59.59,0,0,0,0,.84,3.38,3.38,0,0,0,.59.47,1.7,1.7,0,0,1,.15,2.55c-.07.08-.22.11-.2.27C258.62,18.1,259.35,22.29,256.33,24.12ZM239.15,15a6.6,6.6,0,0,0-1.84.38,11.19,11.19,0,0,0-5.59,3.52,9.55,9.55,0,0,0-1.91,4c-.05.23-.13.45.15.66a2.46,2.46,0,0,1,.78,3.46,8.22,8.22,0,0,0-.43.9.93.93,0,0,0,.35,1.16,1.55,1.55,0,0,0,2.24-.46.48.48,0,0,0-.08-.7,1.59,1.59,0,0,1-.37-1.9,2,2,0,0,1,2.17-1.1,1.75,1.75,0,0,1,1.45,1.79c0,.1,0,.21,0,.31a.77.77,0,0,0,.64.86,1.64,1.64,0,0,0,.93,0,1.61,1.61,0,0,0,1.07-1.21c.15-.62-.28-.82-.69-1.09a3.17,3.17,0,0,1-1.32-3.4,3.3,3.3,0,0,1,1.44-2,.7.7,0,0,0,.34-.61c0-.69.14-1.37.19-2.06A19,19,0,0,1,239.15,15Zm30.74.14a.39.39,0,0,0,0,.14,16.24,16.24,0,0,1,.62,4.33.8.8,0,0,0,.4.71,3.13,3.13,0,0,1,1.49,2.67,3.24,3.24,0,0,1-1.69,2.89.7.7,0,0,0-.38.94,1.62,1.62,0,0,0,1.79,1.14c.63-.07.85-.34.8-1a1.83,1.83,0,0,1,1.16-1.9,2,2,0,0,1,2.3.69,1.63,1.63,0,0,1-.22,2.27.45.45,0,0,0-.08.61,1.57,1.57,0,0,0,2.11.63,1,1,0,0,0,.47-1.38c-.16-.36-.35-.71-.52-1.07a2.39,2.39,0,0,1,.86-3.09.45.45,0,0,0,.25-.55,9.46,9.46,0,0,0-3.32-5.54,12.7,12.7,0,0,0-5.12-2.4A1.54,1.54,0,0,0,269.89,15.09ZM254.3,22.77a2.09,2.09,0,0,0,2.19-1.9,2.18,2.18,0,0,0-1.39-2.28,1.88,1.88,0,0,0-2,.56,2.15,2.15,0,0,0-.35,2.4A1.85,1.85,0,0,0,254.3,22.77Zm14.13-6c0-.14,0-.18,0-.22a2.13,2.13,0,0,0,0-.25,11.39,11.39,0,0,0-3-5.68A13.46,13.46,0,0,0,258.63,7a7.45,7.45,0,0,0-1.82-.3c0,.69,0,.69.61.81a17.9,17.9,0,0,1,5.35,1.9,11.46,11.46,0,0,1,5.14,5.86C268.09,15.76,268.24,16.21,268.43,16.76ZM252.19,6.7a15.43,15.43,0,0,0-2.86.6,12,12,0,0,0-8.25,7.17,7.24,7.24,0,0,0-.55,2.31c0-.11.08-.2.11-.3l.12-.36a11.51,11.51,0,0,1,5.33-6.62,17.15,17.15,0,0,1,5.4-1.95C252.11,7.43,252.11,7.43,252.19,6.7Zm-24.52,17c.62-.13,1-.39.88-1a1,1,0,0,1,0-.37,9.68,9.68,0,0,1,3.6-5.85A14.16,14.16,0,0,1,237,14.07a19.77,19.77,0,0,1,2.53-.59c-.18,0-.37,0-.55,0a17.85,17.85,0,0,0-3.54.75,11.93,11.93,0,0,0-5.7,3.71A9,9,0,0,0,227.67,23.65Zm53.61,0c0-.16,0-.28,0-.4a8.53,8.53,0,0,0-2.42-5.76A12.64,12.64,0,0,0,272.57,14a7.87,7.87,0,0,0-2.22-.36c.82.23,1.65.43,2.45.72a12.16,12.16,0,0,1,5,3,8.78,8.78,0,0,1,2.59,5.31C280.47,23.19,280.64,23.52,281.28,23.66Zm-12.7-2.18A1.52,1.52,0,0,0,267,23a1.57,1.57,0,1,0,1.55-1.48Zm-29.74,1.46A1.57,1.57,0,0,0,242,23a1.55,1.55,0,0,0-1.57-1.53A1.52,1.52,0,0,0,238.84,22.94Zm29.68-5.85v0Z"/><path class="cls-3" d="M231.13,31.88a67.53,67.53,0,0,1,46.53,0,1,1,0,0,1-.34.52l-1.47,1.71c-.36.43-.36.44-.89.27q-2.19-.69-4.41-1.23a66.39,66.39,0,0,0-9.5-1.62,65.17,65.17,0,0,0-7.39-.34,67.91,67.91,0,0,0-7.94.58,66.54,66.54,0,0,0-11.91,2.65.57.57,0,0,1-.74-.22A22.94,22.94,0,0,0,231.13,31.88Zm32.72-1.94,0,.1c.34.18.7.33,1,.53a3.34,3.34,0,0,0,2.72.58.55.55,0,0,1,.18,0L269,31c-.7-.45-1.41-.8-2.11-1.16a.94.94,0,0,0-.36-.08Zm-23.83,1,0,.14,2.61.19a.49.49,0,0,0,.24,0l2.29-1.16c-1-.2-1.84-.13-2.7-.26a.56.56,0,0,0-.36.07C241.43,30.23,240.72,30.58,240,30.94Zm19.26-1.29a.94.94,0,0,0,.88,1,1,1,0,0,0,.9-.88,1,1,0,0,0-.82-.94A.94.94,0,0,0,259.28,29.65Zm-9.49,0a.84.84,0,0,0-.81-.85,1,1,0,0,0-1,.87.9.9,0,0,0,.82.93A1,1,0,0,0,249.79,29.64ZM236.66,31a.85.85,0,1,0,0,1.69.85.85,0,0,0,0-1.69Zm35.68,1.68a.84.84,0,0,0,0-1.67.89.89,0,0,0-.82.87A.85.85,0,0,0,272.34,32.72Zm-18.88-2.43a14.74,14.74,0,0,0,2,0,16,16,0,0,0-1-1.63Z"/><path class="cls-4" d="M190.47,98.77A64,64,0,0,1,282.66,41.6,64,64,0,0,1,309,65.49a62.3,62.3,0,0,1,8.34,21.44,63.1,63.1,0,0,1,1.08,14,62.3,62.3,0,0,1-8.8,30A63.66,63.66,0,0,1,278,158a61.2,61.2,0,0,1-14.76,3.88,64.08,64.08,0,0,1-71.4-50A63.83,63.83,0,0,1,190.47,98.77Zm18.16,0a46.14,46.14,0,0,0,42.06,46,44.2,44.2,0,0,0,12.68-.71,46.23,46.23,0,0,0,36.9-48.19,43.66,43.66,0,0,0-1.62-9.56A45.75,45.75,0,0,0,282,61.92a44.91,44.91,0,0,0-24.11-9.15,45.62,45.62,0,0,0-9.77.33,44.89,44.89,0,0,0-12.59,3.68A46.2,46.2,0,0,0,208.63,98.72Zm99.73,7.62a.45.45,0,0,1-.22-.31,3,3,0,0,0-5.09-.46,5.78,5.78,0,0,0-.8,1.9L300.84,114c-.09.45-.09.46.37.56l4.77,1,6.74,1.44c.47.1.48.09.56-.31.5-2.26,1-4.53,1.47-6.8a4.78,4.78,0,0,0-.21-2.72A3.72,3.72,0,0,0,310.1,105,3.17,3.17,0,0,0,308.36,106.34ZM226.44,139c-2,3.68-4.07,7.35-6.12,11.07l3.2,1.78a.23.23,0,0,0,.36-.11l.18-.33c.54-1,1.09-2,1.62-3,.14-.27.27-.32.53-.16.5.29,1,.55,1.53.85a1.46,1.46,0,0,1,.75,1.81,8.39,8.39,0,0,1-.38,1.06c-.22.54-.45,1.08-.62,1.64-.08.25,0,.38.19.5.39.2.77.42,1.15.64l2,1.07a20.07,20.07,0,0,1,1.13-2.9,4.08,4.08,0,0,0,.27-2.21,5.56,5.56,0,0,0-.4-1.07c.34-.08.65-.05,1-.12a3.65,3.65,0,0,0,2-5.44,5,5,0,0,0-1.82-1.6l-6.1-3.33Zm-3.4-77-.23-.31c-.76-.94-1.52-1.89-2.29-2.82-.18-.23-.2-.37,0-.56.47-.35.9-.74,1.37-1.09a1.42,1.42,0,0,1,1.9,0,7,7,0,0,1,1.06,1,12,12,0,0,0,1.1,1,.36.36,0,0,0,.54,0c.44-.38.91-.73,1.37-1.1l1.39-1.12a5.09,5.09,0,0,1-1-.78c-.29-.3-.58-.6-.86-.91A6.13,6.13,0,0,0,226,54a2.79,2.79,0,0,0-1.81-.39c-.09,0-.2,0-.28,0a2.81,2.81,0,0,0,.19-2,3.61,3.61,0,0,0-4.26-2.78,5.34,5.34,0,0,0-2.26,1.18l-4.79,3.86a5.14,5.14,0,0,0-.75.65,1.81,1.81,0,0,0,.37.52c1.5,1.88,3,3.75,4.52,5.63L219.73,64c.12.16.21.38.48.16C221.13,63.42,222.07,62.68,223,61.9Zm68.1-3.46a3.1,3.1,0,0,0,1.21,0,3.85,3.85,0,0,0,2.86-2.72,2.61,2.61,0,0,0,0-1.54,4.66,4.66,0,0,0-1.78-2.58L288,47.37c-.44-.35-.39-.32-.71.1l-5.53,7.05c-.58.75-1.16,1.49-1.75,2.22-.16.21-.17.34.05.51l2.75,2.15a1.61,1.61,0,0,0,.49-.52l2.06-2.61c.12-.14.21-.33.44-.14.54.44,1.1.84,1.62,1.3a1.31,1.31,0,0,1,.38,1.53,5.87,5.87,0,0,1-.54,1.06c-.29.51-.6,1-.88,1.52s-.24.49.16.81l1.33,1,1.31,1a10.88,10.88,0,0,1,1.27-2.22A3.91,3.91,0,0,0,291.14,58.44Zm18.13,31.49v0c-.52,0-1,.1-1.56.12-.29,0-.36.14-.33.39s.05.75.08,1.13c.1,1.35.19,2.71.3,4.06,0,.31,0,.48-.39.47a6.35,6.35,0,0,0-.87,0,.25.25,0,0,1-.31-.23l0-.43c-.14-1.82-.28-3.63-.41-5.45,0-.44,0-.44-.5-.4l-2.31.18c-.46,0-.48,0-.44.52.07,1.08.16,2.17.24,3.25.17,2.11.33,4.21.49,6.32,0,.43,0,.43.5.39l7.82-.58c1.29-.09,2.59-.19,3.88-.3.51,0,.51-.06.47-.56-.21-2.75-.41-5.51-.62-8.26L315.16,89c0-.22-.06-.35-.33-.33l-2.68.23c-.19,0-.26.1-.25.28s0,.33,0,.5c.12,1.65.26,3.29.36,4.94,0,.35.25.79,0,1s-.72.12-1.09.17-.41-.07-.42-.37c0-.65-.08-1.3-.13-1.94-.08-1.11-.17-2.22-.24-3.32,0-.28-.11-.37-.39-.32S309.52,89.9,309.27,89.93ZM259,152.18h0l-2,.13c-.56,0-.56,0-.6-.55l0-.5c0-.5,0-.5.43-.53l2.75-.15,3.07-.2c.23,0,.33-.1.31-.35-.08-.85-.14-1.71-.19-2.56,0-.26-.1-.37-.39-.34-.58.06-1.16.07-1.75.11l-7.51.47c-1,.06-.85,0-.8.87.16,3,.34,5.93.52,8.89.06.88.13,1.75.18,2.63,0,.23.08.36.34.32.1,0,.21,0,.31,0L261,160c.75-.05,1.5-.09,2.25-.16.47,0,.48-.05.46-.51,0-.75-.08-1.5-.12-2.25,0-.51,0-.51-.55-.48-1.73.11-3.46.21-5.2.3-1.17.06-1.16,0-1.16-1.14,0-.26.06-.37.33-.38.61,0,1.22-.07,1.82-.11,1.15-.07,2.29-.16,3.44-.22.27,0,.36-.1.34-.37-.05-.76-.1-1.51-.12-2.26,0-.33-.13-.43-.45-.4ZM270.2,47.57c.21-1,.41-1.82.61-2.69,0-.18,0-.28-.19-.31l-.37-.1L266,43.55c-1-.21-1-.21-.75-1.14.15-.71.14-.64.7-.48.14,0,.28.06.43.09,1.69.36,3.39.71,5.08,1.09.29.06.4,0,.46-.28.15-.8.35-1.6.52-2.39.09-.41.08-.42-.35-.52l-6.25-1.36c-1.06-.23-2.12-.45-3.18-.7-.28-.07-.44,0-.46.29a2.37,2.37,0,0,1-.09.36c-.54,2.43-1.07,4.86-1.61,7.28-.29,1.31-.57,2.61-.86,3.92-.11.49-.1.49.41.61l2.26.48,7.17,1.55c.54.12.54.11.65-.41.16-.71.32-1.42.47-2.14.11-.49.11-.5-.39-.62l-5-1.1c-1.23-.27-1.23-.26-.86-1.47a.13.13,0,0,0,0-.06c0-.2.16-.23.32-.2l.3.08ZM202.54,98.83h0c0,.19,0,.38,0,.57,0,.4,0,.41.38.44l2.32.17c.49,0,.51,0,.55-.46.1-1.06.18-2.12.27-3.19q.26-3.21.52-6.44c0-.28-.07-.36-.34-.38-.56,0-1.13-.08-1.69-.12l-6-.46-4.14-.29c-.44,0-.45,0-.48.41-.28,3.27-.55,6.55-.82,9.82,0,.39,0,.4.4.43l2.19.16c.61,0,.63.05.69-.59q.22-2.81.44-5.63c0-.49,0-.49.51-.48l.63,0c.48,0,.49.05.45.52,0,.1,0,.21,0,.31-.13,1.63-.26,3.26-.4,4.88,0,.27.09.32.31.34l2.37.22c.24,0,.36-.06.37-.3s0-.33,0-.5c.11-1.4.21-2.8.34-4.19,0-.31-.1-.71.15-.89s.61,0,.92,0c.54,0,.55,0,.51.58C202.82,95.45,202.68,97.14,202.54,98.83Zm97.51-37.57a7.54,7.54,0,0,0-6.56,4.31,5.1,5.1,0,0,0-.5,2.93,6.93,6.93,0,0,0,3,5,5.51,5.51,0,0,0,4,1,7.56,7.56,0,0,0,5.2-3.05A5.41,5.41,0,0,0,306.37,68a6.77,6.77,0,0,0-3.82-6.16A5.22,5.22,0,0,0,300.05,61.26Zm-78.37,75.53a6.59,6.59,0,0,0-3.11-5.44,5.63,5.63,0,0,0-5.25-.73,7.31,7.31,0,0,0-4.68,4.64,5.19,5.19,0,0,0-.24,2.84,6.79,6.79,0,0,0,4.36,5.18,4.93,4.93,0,0,0,2.76.33,7.34,7.34,0,0,0,5.74-4.62A5.17,5.17,0,0,0,221.68,136.79Zm74.17-12.53-1.61,2.9c-.26.47-.25.48.22.74l6.33,3.58a7.09,7.09,0,0,0,1.32.59,4.54,4.54,0,0,0,2,.24,4.34,4.34,0,0,0,2.71-1.46,9.86,9.86,0,0,0,2.3-4.19,4.09,4.09,0,0,0-.87-3.93,6.41,6.41,0,0,0-1.67-1.31l-2-1.14c-1.52-.85-3-1.69-4.54-2.55-.26-.15-.41-.19-.58.13-.5.94-1,1.87-1.55,2.8-.11.2-.12.34.11.44s.26.15.38.22l5.58,3.14a5.37,5.37,0,0,1,1.18.81,1.81,1.81,0,0,1-1.72,3,7.29,7.29,0,0,1-1.65-.77l-5.3-3A1.38,1.38,0,0,0,295.85,124.26ZM234.24,41a2.79,2.79,0,0,0,.27.8q1.11,2.9,2.25,5.79a8.64,8.64,0,0,1,.41,1.31,1.6,1.6,0,0,1-1,1.93,1.69,1.69,0,0,1-2.23-.54,4.84,4.84,0,0,1-.62-1.22c-.83-2.11-1.66-4.2-2.46-6.31-.12-.31-.23-.39-.54-.26-.95.39-1.91.75-2.86,1.12-.41.17-.41.17-.25.58q1.37,3.51,2.74,7a6.93,6.93,0,0,0,.81,1.49,3.92,3.92,0,0,0,3.43,1.74,9,9,0,0,0,5.62-2.18,3.75,3.75,0,0,0,.44-.45,4,4,0,0,0,.92-3.21,8,8,0,0,0-.53-1.93c-.79-2-1.58-4-2.36-6-.11-.27-.22-.54-.32-.82s-.15-.22-.34-.15Zm16.08,6.06c.12-.17.25-.36.39-.53,1.37-1.77,2.72-3.56,4.14-5.28a2.5,2.5,0,0,0,.72-2.38,6.09,6.09,0,0,1-.07-1.06c-.05-.5-.06-.5-.58-.46l-6.63.48-3.19.23c-.21,0-.37.05-.34.32.07.89.14,1.79.2,2.69,0,.18.08.27.27.25l.5,0,4.13-.31a.84.84,0,0,1,.57.06l-.64.81-4.4,5.49a.87.87,0,0,0-.29.66c.08.81.14,1.62.19,2.43,0,.33.15.41.48.38,2.65-.21,5.3-.39,7.94-.59l2.63-.2c.24,0,.33-.11.31-.35-.07-.84-.12-1.67-.2-2.51,0-.42-.05-.42-.49-.39l-5.2.36C250.63,47.13,250.48,47.2,250.32,47.05ZM194,108.89a8.8,8.8,0,0,0,1.33,4.69,3.87,3.87,0,0,0,4.08,1.84,3.11,3.11,0,0,0,2.6-2,5,5,0,0,0,.29-1,19.11,19.11,0,0,0,.26-2.93,5.16,5.16,0,0,1,.28-1.66.68.68,0,0,1,1.3-.09,2.33,2.33,0,0,1,.27,1.75,1,1,0,0,1-.69.83.3.3,0,0,0-.25.41c.2,1,.38,1.92.57,2.88.08.39.11.4.51.28a3.68,3.68,0,0,0,2.65-2.84,7.52,7.52,0,0,0-.27-4,5.36,5.36,0,0,0-1.4-2.34,3.77,3.77,0,0,0-3.9-.85,3.11,3.11,0,0,0-2.09,2.72.15.15,0,0,0,0,.07,17.38,17.38,0,0,0-.24,2,16,16,0,0,1-.26,2.18.85.85,0,0,1-.6.73,1,1,0,0,1-1.07-.33,2,2,0,0,1-.32-.54,3.66,3.66,0,0,1-.18-.92,1.43,1.43,0,0,1,1.07-1.74c.23-.06.33-.16.28-.44-.21-1.07-.39-2.14-.57-3.21,0-.29-.18-.31-.44-.24a4,4,0,0,0-2.71,2.24A5.71,5.71,0,0,0,194,108.89Zm13.72,19.76a4.63,4.63,0,0,0,4.7-4,4.68,4.68,0,0,0-.56-2.6c-.92-1.86-1.86-3.7-2.79-5.55-.21-.39-.22-.4-.61-.2l-2.68,1.36L198,121.59c-.46.23-.47.24-.25.68.45.9.91,1.79,1.34,2.7.14.31.28.33.56.19.89-.47,1.8-.89,2.69-1.36.3-.15.43-.1.57.19.3.62.63,1.23,1,1.84a6.26,6.26,0,0,0,1.17,1.62A3.71,3.71,0,0,0,207.71,128.65Zm6-64.79-.14.11-1.66,2.43c-.37.56-.37.56,0,1.09a2,2,0,0,1-.35,3,2,2,0,0,1-1.72.35,5.45,5.45,0,0,1-3.6-2.51,1.92,1.92,0,0,1-.25-1.57,2,2,0,0,1,2.6-1.5.53.53,0,0,0,.71-.27c.19-.35.44-.66.65-1,.36-.58.79-1.12,1.1-1.72a4.9,4.9,0,0,0-6.24.66A7.73,7.73,0,0,0,203,65.63a5.7,5.7,0,0,0,.84,5.91A8,8,0,0,0,208,74.31a5.36,5.36,0,0,0,3,.09,6.53,6.53,0,0,0,4.79-4.9,4.92,4.92,0,0,0,0-2.61A5.13,5.13,0,0,0,213.68,63.86Zm73.23,81.44c-.08,0-.13,0-.16,0l-2.53,1.39c-.64.36-.64.36-.5,1.07a1.88,1.88,0,0,1-1.08,2.23,2.13,2.13,0,0,1-2.49-.42,5.89,5.89,0,0,1-1.77-3,3.31,3.31,0,0,1-.1-.94,2.1,2.1,0,0,1,1.36-1.87,1.9,1.9,0,0,1,2.09.37.86.86,0,0,1,.14.13c.18.24.36.21.59.07.86-.51,1.74-1,2.61-1.5a.51.51,0,0,0,.23-.23,6.22,6.22,0,0,0-1.29-1.42,4.47,4.47,0,0,0-3.77-1,7.35,7.35,0,0,0-4.29,2.4,5.35,5.35,0,0,0-1.42,4.28,7.71,7.71,0,0,0,3.37,5.76,5.38,5.38,0,0,0,3.25,1,6.86,6.86,0,0,0,4.16-1.55,5.48,5.48,0,0,0,2.2-4.06A4.62,4.62,0,0,0,286.91,145.3Zm-48.15-.09c-.21.95-.39,1.87-.62,2.78-.09.35,0,.42.34.48.86.18,1.72.38,2.57.58.48.11.49.12.39.57l-.66,3c-.38,1.75-.77,3.5-1.15,5.26-.11.5-.1.51.4.62l2.82.62c.51.11.52.1.62-.37.51-2.35,1-4.7,1.53-7a8.45,8.45,0,0,1,.42-1.7l.65.13,2.38.53c.17,0,.38.14.44-.16.19-.9.4-1.8.6-2.69,0-.15,0-.25-.17-.28l-.43-.1-6.6-1.46Zm62.41-6.4-2-1.95c-.34-.34-.35-.34-.71,0l-3.2,3.2c-.44.44-.37.46-.81,0s-1.06-1.07-1.6-1.6c-1.46-1.47-2.93-2.93-4.38-4.4-.23-.23-.37-.25-.6,0-.58.61-1.18,1.18-1.77,1.78a4.58,4.58,0,0,0-.67.72l.19.21,8.4,8.47c.31.32.32.32.67,0l4.61-4.62ZM276.55,55.52c.11-.22.21-.4.3-.59l3.33-7.1c.53-1.13,1.06-2.27,1.6-3.4.13-.27.18-.43-.17-.58-1-.41-1.9-.85-2.84-1.31-.3-.14-.42-.06-.52.21a1.43,1.43,0,0,1-.13.28q-2.31,4.94-4.63,9.88c-.15.31-.49.65-.36,1s.59.35.91.5C274.86,54.75,275.7,55.13,276.55,55.52Z"/><path class="cls-4" d="M253.23,17.28A3.17,3.17,0,0,0,250.91,20c-.28,1.68.29,2.84,1.94,4.1a2.06,2.06,0,0,1-1.87.65c-.68-.08-.84-.34-.66-1a2.07,2.07,0,0,0-.72-2.24,2.49,2.49,0,0,0-2.61-.11,2,2,0,0,0-1,2.06,1.68,1.68,0,0,0,.29.75.43.43,0,0,1,0,.61,1.79,1.79,0,0,1-2.52.31c-.23-.19-.31-.35-.13-.63a2.59,2.59,0,0,0,.41-1.3,3.29,3.29,0,0,0-2.35-3.46c-.54-.2-.51-.17-.41-.64a12,12,0,0,1,2.17-5,10.56,10.56,0,0,1,5.26-3.56,20.22,20.22,0,0,1,2.86-.7c.61-.1.64-.08.72.52a6.43,6.43,0,0,0,.42,1.5,3.1,3.1,0,0,0,.88,1.21c.43.34.44.64.06,1a1.81,1.81,0,0,1-.34.28,1.71,1.71,0,0,0-.21,2.74A1.72,1.72,0,0,1,253.23,17.28Z"/><path class="cls-4" d="M256.33,24.12c3-1.83,2.29-6-.35-6.81,0-.16.13-.19.2-.27a1.7,1.7,0,0,0-.15-2.55,3.38,3.38,0,0,1-.59-.47.59.59,0,0,1,0-.84,4.22,4.22,0,0,0,1.46-2.82,1.07,1.07,0,0,0,0-.25c0-.3.18-.35.42-.31l1.29.25a13.18,13.18,0,0,1,5.26,2.25,10.17,10.17,0,0,1,3.3,4.42,17.83,17.83,0,0,1,.74,2.46c.07.31,0,.47-.33.54a4,4,0,0,0-1.71,1,3.13,3.13,0,0,0-.55,3.6c.28.55.24.65-.3,1a1.77,1.77,0,0,1-2.33-.57c-.14-.2-.07-.33,0-.5A2,2,0,0,0,262,21.4a2.27,2.27,0,0,0-3.14.72,2.14,2.14,0,0,0-.16,1.7c.13.5.05.71-.4.88A1.87,1.87,0,0,1,256.33,24.12Z"/><path class="cls-4" d="M239.15,15a19,19,0,0,0-.48,2.53c0,.69-.15,1.37-.19,2.06a.7.7,0,0,1-.34.61,3.3,3.3,0,0,0-1.44,2,3.17,3.17,0,0,0,1.32,3.4c.41.27.84.47.69,1.09a1.61,1.61,0,0,1-1.07,1.21,1.64,1.64,0,0,1-.93,0,.77.77,0,0,1-.64-.86c0-.1,0-.21,0-.31a1.75,1.75,0,0,0-1.45-1.79,2,2,0,0,0-2.17,1.1,1.59,1.59,0,0,0,.37,1.9.48.48,0,0,1,.08.7,1.55,1.55,0,0,1-2.24.46.93.93,0,0,1-.35-1.16,8.22,8.22,0,0,1,.43-.9,2.46,2.46,0,0,0-.78-3.46c-.28-.21-.2-.43-.15-.66a9.55,9.55,0,0,1,1.91-4,11.19,11.19,0,0,1,5.59-3.52A6.6,6.6,0,0,1,239.15,15Z"/><path class="cls-4" d="M269.89,15.09a1.54,1.54,0,0,1,.9.11,12.7,12.7,0,0,1,5.12,2.4,9.46,9.46,0,0,1,3.32,5.54.45.45,0,0,1-.25.55,2.39,2.39,0,0,0-.86,3.09c.17.36.36.71.52,1.07a1,1,0,0,1-.47,1.38,1.57,1.57,0,0,1-2.11-.63.45.45,0,0,1,.08-.61,1.63,1.63,0,0,0,.22-2.27,2,2,0,0,0-2.3-.69,1.83,1.83,0,0,0-1.16,1.9c.05.64-.17.91-.8,1a1.62,1.62,0,0,1-1.79-1.14.7.7,0,0,1,.38-.94,3.24,3.24,0,0,0,1.69-2.89,3.13,3.13,0,0,0-1.49-2.67.8.8,0,0,1-.4-.71,16.24,16.24,0,0,0-.62-4.33A.39.39,0,0,1,269.89,15.09Z"/><path class="cls-4" d="M254.3,22.77a1.85,1.85,0,0,1-1.6-1.22,2.15,2.15,0,0,1,.35-2.4,1.88,1.88,0,0,1,2-.56,2.18,2.18,0,0,1,1.39,2.28A2.09,2.09,0,0,1,254.3,22.77Z"/><path class="cls-4" d="M268.43,16.76c-.19-.55-.34-1-.52-1.45a11.46,11.46,0,0,0-5.14-5.86,17.9,17.9,0,0,0-5.35-1.9c-.6-.12-.6-.12-.61-.81a7.45,7.45,0,0,1,1.82.3,13.46,13.46,0,0,1,6.78,3.57,11.39,11.39,0,0,1,3,5.68,2.13,2.13,0,0,1,0,.25S268.44,16.62,268.43,16.76Z"/><path class="cls-4" d="M252.19,6.7c-.08.73-.08.73-.7.85a17.15,17.15,0,0,0-5.4,2,11.51,11.51,0,0,0-5.33,6.62l-.12.36c0,.1-.07.19-.11.3a7.24,7.24,0,0,1,.55-2.31,12,12,0,0,1,8.25-7.17A15.43,15.43,0,0,1,252.19,6.7Z"/><path class="cls-4" d="M227.67,23.65A9,9,0,0,1,229.75,18a11.93,11.93,0,0,1,5.7-3.71A17.85,17.85,0,0,1,239,13.5c.18,0,.37,0,.55,0a19.77,19.77,0,0,0-2.53.59,14.16,14.16,0,0,0-4.81,2.34,9.68,9.68,0,0,0-3.6,5.85,1,1,0,0,0,0,.37C228.64,23.26,228.29,23.52,227.67,23.65Z"/><path class="cls-4" d="M281.28,23.66c-.64-.14-.81-.47-.87-1.06a8.78,8.78,0,0,0-2.59-5.31,12.16,12.16,0,0,0-5-3c-.8-.29-1.63-.49-2.45-.72a7.87,7.87,0,0,1,2.22.36,12.64,12.64,0,0,1,6.31,3.54,8.53,8.53,0,0,1,2.42,5.76C281.3,23.38,281.29,23.5,281.28,23.66Z"/><path class="cls-4" d="M268.58,21.48A1.5,1.5,0,1,1,267,23,1.52,1.52,0,0,1,268.58,21.48Z"/><path class="cls-4" d="M238.84,22.94a1.52,1.52,0,0,1,1.56-1.46A1.55,1.55,0,0,1,242,23a1.57,1.57,0,0,1-3.13-.07Z"/><polygon class="cls-4" points="268.52 17.09 268.55 17.09 268.53 17.04 268.52 17.09"/><path class="cls-4" d="M263.85,29.94l2.66-.17a.94.94,0,0,1,.36.08c.7.36,1.41.71,2.11,1.16l-1.25.13a.55.55,0,0,0-.18,0,3.34,3.34,0,0,1-2.72-.58c-.32-.2-.68-.35-1-.53Z"/><path class="cls-4" d="M240,30.94c.7-.36,1.41-.71,2.12-1.06a.56.56,0,0,1,.36-.07c.86.13,1.74.06,2.7.26l-2.29,1.16a.49.49,0,0,1-.24,0l-2.61-.19Z"/><path class="cls-4" d="M259.28,29.65a.94.94,0,0,1,1-.86,1,1,0,0,1,.82.94,1,1,0,0,1-.9.88A.94.94,0,0,1,259.28,29.65Z"/><path class="cls-4" d="M249.79,29.64a1,1,0,0,1-.95.95.9.9,0,0,1-.82-.93,1,1,0,0,1,1-.87A.84.84,0,0,1,249.79,29.64Z"/><path class="cls-4" d="M236.66,31a.85.85,0,0,1,0,1.69.85.85,0,1,1,0-1.69Z"/><path class="cls-4" d="M272.34,32.72a.85.85,0,0,1-.87-.8.89.89,0,0,1,.82-.87.84.84,0,0,1,0,1.67Z"/><path class="cls-4" d="M253.46,30.29l1-1.67a16,16,0,0,1,1,1.63A14.74,14.74,0,0,1,253.46,30.29Z"/><path class="cls-2" d="M208.63,98.72a46.2,46.2,0,0,1,26.92-41.94,44.89,44.89,0,0,1,12.59-3.68,45.62,45.62,0,0,1,9.77-.33A44.91,44.91,0,0,1,282,61.92a45.75,45.75,0,0,1,16.63,24.33,43.66,43.66,0,0,1,1.62,9.56A46.23,46.23,0,0,1,263.37,144a44.2,44.2,0,0,1-12.68.71,46.14,46.14,0,0,1-42.06-46ZM262,66.06l-.05-.12c-1.72,0-3.43,0-5.15,0a.56.56,0,0,1-.65-.48c-.44-1.42-.9-2.83-1.37-4.24-.07-.2-.07-.46-.3-.64-.07.19-.13.36-.18.53-.48,1.47-1,2.94-1.43,4.41a.5.5,0,0,1-.57.42c-1.52,0-3.05,0-4.58,0H247l.58.47,3.65,2.66c.42.31.42.31.25.82L250,74.35c0,.13-.16.25,0,.41l.31-.22,3.8-2.76c.43-.31.44-.31.85,0q1.89,1.39,3.8,2.77a.89.89,0,0,0,.44.24c-.07-.24-.13-.42-.18-.59-.47-1.45-.94-2.91-1.42-4.35a.51.51,0,0,1,.22-.72c1.06-.75,2.1-1.52,3.15-2.29ZM233.86,97.24l.07-.08-.06-.23c-.52-1.55-1-3.1-1.55-4.64a.53.53,0,0,1,.23-.72c1.25-.89,2.47-1.79,3.71-2.69l.59-.47h-.75c-1.51,0-3,0-4.52,0-.49,0-.45.11-.64-.47-.48-1.45-.94-2.9-1.41-4.35l-.18-.5c-.21.07-.18.22-.21.33-.49,1.49-1,3-1.46,4.47-.21.63-.16.52-.74.52-1.51,0-3,0-4.52,0h-.58a1.56,1.56,0,0,0,.51.47l3.54,2.6c.48.36.48.36.3.91-.45,1.41-.91,2.82-1.36,4.24a1.21,1.21,0,0,0-.14.6,1.44,1.44,0,0,0,.53-.33l3.62-2.6c.54-.4.48-.33.9,0l.87.62Zm17.19,38.92a1.48,1.48,0,0,0,.54-.33l3.59-2.63c.55-.41.4-.37.89,0l3.65,2.66a1.35,1.35,0,0,0,.58.32c-.07-.22-.13-.41-.2-.61-.44-1.39-.89-2.78-1.34-4.17-.22-.72-.28-.58.31-1l3.61-2.61c.15-.1.28-.22.53-.41H258c-.57,0-.54.14-.76-.57-.47-1.45-.95-2.9-1.42-4.35,0-.14,0-.34-.25-.4-.53,1.63-1.06,3.25-1.57,4.89a.53.53,0,0,1-.62.44c-1.57,0-3.14,0-4.71,0-.15,0-.33-.08-.45.09l.09.1,3.87,2.79c.56.41.56.41.36,1-.45,1.39-.9,2.78-1.34,4.18A1.33,1.33,0,0,0,251.05,136.16ZM272.93,89l.47.35L277.05,92c.46.34.46.34.29.86-.26.81-.53,1.63-.8,2.44s-.5,1.58-.77,2.41a1.33,1.33,0,0,0,.63-.36c1.22-.89,2.44-1.77,3.64-2.68a.5.5,0,0,1,.71,0c1.27.95,2.56,1.87,3.85,2.81a1,1,0,0,0,.39.23c.06-.18,0-.29-.07-.41-.46-1.45-.93-2.9-1.4-4.35-.2-.61-.2-.61.34-1,1.23-.9,2.47-1.79,3.7-2.7.1-.07.28-.1.24-.33h-5.08c-.53,0-.53,0-.69-.5-.49-1.49-1-3-1.46-4.47,0-.12,0-.31-.23-.34a2.09,2.09,0,0,0-.08.23l-1.5,4.59c-.16.49-.16.49-.69.49h-4.46A1.4,1.4,0,0,0,272.93,89Zm-14.35,16,.09.06c1-.72,2-1.43,3-2.16a.5.5,0,0,1,.7,0c.89.67,1.79,1.31,2.69,2,.11.07.21.19.4.17,0-.12,0-.2-.08-.28-.35-1.07-.69-2.14-1.07-3.21a.52.52,0,0,1,.24-.71c.91-.64,1.8-1.3,2.69-2,.1-.07.29-.1.23-.33-1.23,0-2.47,0-3.7,0a.49.49,0,0,1-.57-.41c-.3-1-.62-2-.95-3-.06-.19-.07-.42-.26-.57-.07.18-.13.36-.19.54-.33,1-.67,2-1,3-.1.33-.24.48-.61.46-.75,0-1.51,0-2.26,0h-1.55l.53.43,2.48,1.81c.48.34.46.3.27.87C259.31,102.71,259,103.84,258.58,105Z"/><path class="cls-2" d="M308.36,106.34A3.17,3.17,0,0,1,310.1,105a3.72,3.72,0,0,1,4.44,2.23,4.78,4.78,0,0,1,.21,2.72c-.46,2.27-1,4.54-1.47,6.8-.08.4-.09.41-.56.31L306,115.61l-4.77-1c-.46-.1-.46-.11-.37-.56l1.41-6.55a5.78,5.78,0,0,1,.8-1.9,3,3,0,0,1,5.09.46A.45.45,0,0,0,308.36,106.34Zm3.21,3.69c0-.8-.27-1.16-.94-1.3a1,1,0,0,0-1.29.68,22.38,22.38,0,0,0-.58,2.55.24.24,0,0,0,.21.32l1.83.37a.21.21,0,0,0,.28-.17C311.26,111.63,311.48,110.78,311.57,110Zm-4.64-.77a1.1,1.1,0,0,0-.29-.81.85.85,0,0,0-1.47.28,13.45,13.45,0,0,0-.58,2.37c0,.16.05.23.18.26l1.35.29c.17,0,.29,0,.33-.18Z"/><path class="cls-2" d="M226.44,139l.38.18,6.1,3.33a5,5,0,0,1,1.82,1.6,3.65,3.65,0,0,1-2,5.44c-.3.07-.61,0-1,.12a5.56,5.56,0,0,1,.4,1.07,4.08,4.08,0,0,1-.27,2.21,20.07,20.07,0,0,0-1.13,2.9l-2-1.07c-.38-.22-.76-.44-1.15-.64-.23-.12-.27-.25-.19-.5.17-.56.4-1.1.62-1.64a8.39,8.39,0,0,0,.38-1.06,1.46,1.46,0,0,0-.75-1.81c-.5-.3-1-.56-1.53-.85-.26-.16-.39-.11-.53.16-.53,1-1.08,2-1.62,3l-.18.33a.23.23,0,0,1-.36.11l-3.2-1.78C222.37,146.3,224.4,142.63,226.44,139Zm2,4.46-1.08,2c-.08.15-.09.27.08.36a19.26,19.26,0,0,0,2.21,1.15,1.11,1.11,0,0,0,1.48-.56,1.08,1.08,0,0,0-.28-1.5,2.94,2.94,0,0,0-.5-.37Z"/><path class="cls-2" d="M223,61.9c-1,.78-1.91,1.52-2.83,2.27-.27.22-.36,0-.48-.16L217,60.59c-1.51-1.88-3-3.75-4.52-5.63a1.81,1.81,0,0,1-.37-.52,5.14,5.14,0,0,1,.75-.65l4.79-3.86a5.34,5.34,0,0,1,2.26-1.18,3.61,3.61,0,0,1,4.26,2.78,2.81,2.81,0,0,1-.19,2c.08.09.19.06.28,0A2.79,2.79,0,0,1,226,54a6.13,6.13,0,0,1,1.44,1.2c.28.31.57.61.86.91a5.09,5.09,0,0,0,1,.78L227.91,58c-.46.37-.93.72-1.37,1.1a.36.36,0,0,1-.54,0,12,12,0,0,1-1.1-1,7,7,0,0,0-1.06-1,1.42,1.42,0,0,0-1.9,0c-.47.35-.9.74-1.37,1.09-.25.19-.23.33,0,.56.77.93,1.53,1.88,2.29,2.82Zm-6-7.57,1.42,1.81c.09.12.19.17.31.07a15.41,15.41,0,0,0,2-1.69,1.11,1.11,0,0,0,0-1.54,1.08,1.08,0,0,0-1.44-.32,3.42,3.42,0,0,0-.64.39C218.1,53.45,217.58,53.87,217,54.33Z"/><path class="cls-2" d="M291.14,58.44a3.91,3.91,0,0,1-.67,3.75,10.88,10.88,0,0,0-1.27,2.22l-1.31-1-1.33-1c-.4-.32-.42-.33-.16-.81s.59-1,.88-1.52a5.87,5.87,0,0,0,.54-1.06,1.31,1.31,0,0,0-.38-1.53c-.52-.46-1.08-.86-1.62-1.3-.23-.19-.32,0-.44.14l-2.06,2.61a1.61,1.61,0,0,1-.49.52l-2.75-2.15c-.22-.17-.21-.3-.05-.51.59-.73,1.17-1.47,1.75-2.22l5.53-7.05c.32-.42.27-.45.71-.1l5.43,4.26a4.66,4.66,0,0,1,1.78,2.58,2.61,2.61,0,0,1,0,1.54,3.85,3.85,0,0,1-2.86,2.72A3.1,3.1,0,0,1,291.14,58.44Zm-3.85-4.57,2,1.51a1.67,1.67,0,0,0,.44.23,1.11,1.11,0,0,0,1.37-.44,1.06,1.06,0,0,0,0-1.38,3.31,3.31,0,0,0-.61-.63c-.41-.34-.85-.67-1.26-1-.24-.2-.39-.22-.6.06C288.23,52.74,287.78,53.27,287.29,53.87Z"/><path class="cls-2" d="M309.27,89.93c.25,0,.51,0,.75-.07s.37,0,.39.32c.07,1.1.16,2.21.24,3.32.05.64.11,1.29.13,1.94,0,.3.12.41.42.37s.83,0,1.09-.17,0-.66,0-1c-.1-1.65-.24-3.29-.36-4.94,0-.17,0-.34,0-.5s.06-.27.25-.28l2.68-.23c.27,0,.32.11.33.33l.12,1.57c.21,2.75.41,5.51.62,8.26,0,.5,0,.52-.47.56-1.29.11-2.59.21-3.88.3l-7.82.58c-.45,0-.46,0-.5-.39-.16-2.11-.32-4.21-.49-6.32-.08-1.08-.17-2.17-.24-3.25,0-.49,0-.49.44-.52l2.31-.18c.46,0,.46,0,.5.4.13,1.82.27,3.63.41,5.45l0,.43a.25.25,0,0,0,.31.23,6.35,6.35,0,0,1,.87,0c.36,0,.42-.16.39-.47-.11-1.35-.2-2.71-.3-4.06,0-.38,0-.76-.08-1.13s0-.38.33-.39c.52,0,1-.08,1.56-.12Z"/><path class="cls-2" d="M259,152.18l3-.2c.32,0,.44.07.45.4,0,.75.07,1.5.12,2.26,0,.27-.07.36-.34.37-1.15.06-2.29.15-3.44.22-.6,0-1.21.09-1.82.11-.27,0-.33.12-.33.38,0,1.19,0,1.2,1.16,1.14,1.74-.09,3.47-.19,5.2-.3.52,0,.52,0,.55.48,0,.75.09,1.5.12,2.25,0,.46,0,.47-.46.51-.75.07-1.5.11-2.25.16l-7.33.43c-.1,0-.21,0-.31,0-.26,0-.33-.09-.34-.32-.05-.88-.12-1.75-.18-2.63-.18-3-.36-5.93-.52-8.89,0-.87-.23-.81.8-.87l7.51-.47c.59,0,1.17,0,1.75-.11.29,0,.37.08.39.34.05.85.11,1.71.19,2.56,0,.25-.08.33-.31.35l-3.07.2-2.75.15c-.47,0-.47,0-.43.53l0,.5c0,.59,0,.59.6.55l2-.13Z"/><path class="cls-2" d="M270.2,47.57l-5.27-1.14-.3-.08c-.16,0-.3,0-.32.2a.13.13,0,0,1,0,.06c-.37,1.21-.37,1.2.86,1.47l5,1.1c.5.12.5.13.39.62-.15.72-.31,1.43-.47,2.14-.11.52-.11.53-.65.41l-7.17-1.55L260,50.32c-.51-.12-.52-.12-.41-.61.29-1.31.57-2.61.86-3.92.54-2.42,1.07-4.85,1.61-7.28a2.37,2.37,0,0,0,.09-.36c0-.32.18-.36.46-.29,1.06.25,2.12.47,3.18.7l6.25,1.36c.43.1.44.11.35.52-.17.79-.37,1.59-.52,2.39-.06.31-.17.34-.46.28-1.69-.38-3.39-.73-5.08-1.09-.15,0-.29-.05-.43-.09-.56-.16-.55-.23-.7.48-.21.93-.2.93.75,1.14l4.28.92.37.1c.18,0,.23.13.19.31C270.61,45.75,270.41,46.62,270.2,47.57Z"/><path class="cls-2" d="M202.54,98.83c.14-1.69.28-3.38.41-5.06,0-.55,0-.56-.51-.58-.31,0-.68-.16-.92,0s-.13.58-.15.89c-.13,1.39-.23,2.79-.34,4.19,0,.17,0,.33,0,.5s-.13.32-.37.3l-2.37-.22c-.22,0-.33-.07-.31-.34.14-1.62.27-3.25.4-4.88,0-.1,0-.21,0-.31,0-.47,0-.48-.45-.52l-.63,0c-.47,0-.47,0-.51.48q-.21,2.82-.44,5.63c-.06.64-.08.63-.69.59l-2.19-.16c-.43,0-.43,0-.4-.43.27-3.27.54-6.55.82-9.82,0-.43,0-.44.48-.41l4.14.29,6,.46c.56,0,1.13.1,1.69.12.27,0,.37.1.34.38q-.27,3.22-.52,6.44c-.09,1.07-.17,2.13-.27,3.19,0,.5-.06.5-.55.46l-2.32-.17c-.41,0-.41,0-.38-.44,0-.19,0-.38,0-.57Z"/><path class="cls-2" d="M300.05,61.26a5.22,5.22,0,0,1,2.5.6A6.77,6.77,0,0,1,306.37,68a5.41,5.41,0,0,1-1.19,3.44,7.56,7.56,0,0,1-5.2,3.05,5.51,5.51,0,0,1-4-1,6.93,6.93,0,0,1-3-5,5.1,5.1,0,0,1,.5-2.93A7.54,7.54,0,0,1,300.05,61.26Zm-1.27,9.65.25,0a5.3,5.3,0,0,0,3.52-2.29,2.13,2.13,0,0,0,.25-.5A2.29,2.29,0,0,0,300.29,65a5.32,5.32,0,0,0-3.41,2.14,2.64,2.64,0,0,0-.34.67A2.32,2.32,0,0,0,298.78,70.91Z"/><path class="cls-2" d="M221.68,136.79a5.17,5.17,0,0,1-.42,2.2,7.34,7.34,0,0,1-5.74,4.62,4.93,4.93,0,0,1-2.76-.33,6.79,6.79,0,0,1-4.36-5.18,5.19,5.19,0,0,1,.24-2.84,7.31,7.31,0,0,1,4.68-4.64,5.63,5.63,0,0,1,5.25.73A6.59,6.59,0,0,1,221.68,136.79Zm-5.82-2.91a2.37,2.37,0,0,0-1.18.29,5.69,5.69,0,0,0-2.49,2.39,2.8,2.8,0,0,0-.26.7,2.28,2.28,0,0,0,2.56,2.81,5.21,5.21,0,0,0,3.62-3.32A2.3,2.3,0,0,0,215.86,133.88Z"/><path class="cls-2" d="M295.85,124.26a1.38,1.38,0,0,1,.59.26l5.3,3a7.29,7.29,0,0,0,1.65.77,1.81,1.81,0,0,0,1.72-3,5.37,5.37,0,0,0-1.18-.81l-5.58-3.14c-.12-.07-.25-.16-.38-.22s-.22-.24-.11-.44c.53-.93,1.05-1.86,1.55-2.8.17-.32.32-.28.58-.13,1.51.86,3,1.7,4.54,2.55l2,1.14a6.41,6.41,0,0,1,1.67,1.31,4.09,4.09,0,0,1,.87,3.93,9.86,9.86,0,0,1-2.3,4.19,4.34,4.34,0,0,1-2.71,1.46,4.54,4.54,0,0,1-2-.24,7.09,7.09,0,0,1-1.32-.59l-6.33-3.58c-.47-.26-.48-.27-.22-.74Z"/><path class="cls-2" d="M234.24,41l3.37-1.32c.19-.07.28,0,.34.15s.21.55.32.82c.78,2,1.57,4,2.36,6a8,8,0,0,1,.53,1.93,4,4,0,0,1-.92,3.21,3.75,3.75,0,0,1-.44.45,9,9,0,0,1-5.62,2.18,3.92,3.92,0,0,1-3.43-1.74,6.93,6.93,0,0,1-.81-1.49q-1.38-3.49-2.74-7c-.16-.41-.16-.41.25-.58,1-.37,1.91-.73,2.86-1.12.31-.13.42-.05.54.26.8,2.11,1.63,4.2,2.46,6.31a4.84,4.84,0,0,0,.62,1.22,1.69,1.69,0,0,0,2.23.54,1.6,1.6,0,0,0,1-1.93,8.64,8.64,0,0,0-.41-1.31q-1.14-2.89-2.25-5.79A2.79,2.79,0,0,1,234.24,41Z"/><path class="cls-2" d="M250.32,47.05c.16.15.31.08.44.07l5.2-.36c.44,0,.45,0,.49.39.08.84.13,1.67.2,2.51,0,.24-.07.33-.31.35l-2.63.2c-2.64.2-5.29.38-7.94.59-.33,0-.45,0-.48-.38,0-.81-.11-1.62-.19-2.43a.87.87,0,0,1,.29-.66l4.4-5.49.64-.81a.84.84,0,0,0-.57-.06l-4.13.31-.5,0c-.19,0-.26-.07-.27-.25-.06-.9-.13-1.8-.2-2.69,0-.27.13-.3.34-.32l3.19-.23,6.63-.48c.52,0,.53,0,.58.46a6.09,6.09,0,0,0,.07,1.06,2.5,2.5,0,0,1-.72,2.38c-1.42,1.72-2.77,3.51-4.14,5.28C250.57,46.69,250.44,46.88,250.32,47.05Z"/><path class="cls-2" d="M194,108.89a5.71,5.71,0,0,1,.49-2.45,4,4,0,0,1,2.71-2.24c.26-.07.39,0,.44.24.18,1.07.36,2.14.57,3.21.05.28,0,.38-.28.44a1.43,1.43,0,0,0-1.07,1.74,3.66,3.66,0,0,0,.18.92,2,2,0,0,0,.32.54,1,1,0,0,0,1.07.33.85.85,0,0,0,.6-.73,16,16,0,0,0,.26-2.18,17.38,17.38,0,0,1,.24-2,.15.15,0,0,1,0-.07,3.11,3.11,0,0,1,2.09-2.72,3.77,3.77,0,0,1,3.9.85,5.36,5.36,0,0,1,1.4,2.34,7.52,7.52,0,0,1,.27,4,3.68,3.68,0,0,1-2.65,2.84c-.4.12-.43.11-.51-.28-.19-1-.37-1.92-.57-2.88a.3.3,0,0,1,.25-.41,1,1,0,0,0,.69-.83,2.33,2.33,0,0,0-.27-1.75.68.68,0,0,0-1.3.09,5.16,5.16,0,0,0-.28,1.66,19.11,19.11,0,0,1-.26,2.93,5,5,0,0,1-.29,1,3.11,3.11,0,0,1-2.6,2,3.87,3.87,0,0,1-4.08-1.84A8.8,8.8,0,0,1,194,108.89Z"/><path class="cls-2" d="M207.71,128.65a3.71,3.71,0,0,1-2.68-1.2,6.26,6.26,0,0,1-1.17-1.62c-.32-.61-.65-1.22-1-1.84-.14-.29-.27-.34-.57-.19-.89.47-1.8.89-2.69,1.36-.28.14-.42.12-.56-.19-.43-.91-.89-1.8-1.34-2.7-.22-.44-.21-.45.25-.68l7.77-3.93,2.68-1.36c.39-.2.4-.19.61.2.93,1.85,1.87,3.69,2.79,5.55a4.68,4.68,0,0,1,.56,2.6A4.63,4.63,0,0,1,207.71,128.65Zm1.2-4.87c0-.06,0-.16-.06-.26a14.73,14.73,0,0,0-1.08-2.31c-.1-.2-.24-.11-.37,0-.58.3-1.15.59-1.73.87-.21.11-.28.21-.15.44.32.56.61,1.13.92,1.7a1.76,1.76,0,0,0,.49.56,1.13,1.13,0,0,0,1.29.05A1.1,1.1,0,0,0,208.91,123.78Z"/><path class="cls-2" d="M213.68,63.86a5.13,5.13,0,0,1,2,3,4.92,4.92,0,0,1,0,2.61,6.53,6.53,0,0,1-4.79,4.9,5.36,5.36,0,0,1-3-.09,8,8,0,0,1-4.15-2.77,5.7,5.7,0,0,1-.84-5.91,7.73,7.73,0,0,1,1.85-2.73,4.9,4.9,0,0,1,6.24-.66c-.31.6-.74,1.14-1.1,1.72-.21.34-.46.65-.65,1a.53.53,0,0,1-.71.27,2,2,0,0,0-2.6,1.5,1.92,1.92,0,0,0,.25,1.57,5.45,5.45,0,0,0,3.6,2.51,2,2,0,0,0,1.72-.35,2,2,0,0,0,.35-3c-.41-.53-.41-.53,0-1.09L213.54,64Z"/><path class="cls-2" d="M286.91,145.3a4.62,4.62,0,0,1,.6,2.7,5.48,5.48,0,0,1-2.2,4.06,6.86,6.86,0,0,1-4.16,1.55,5.38,5.38,0,0,1-3.25-1,7.71,7.71,0,0,1-3.37-5.76A5.35,5.35,0,0,1,276,142.6a7.35,7.35,0,0,1,4.29-2.4,4.47,4.47,0,0,1,3.77,1,6.22,6.22,0,0,1,1.29,1.42.51.51,0,0,1-.23.23c-.87.49-1.75,1-2.61,1.5-.23.14-.41.17-.59-.07a.86.86,0,0,0-.14-.13,1.9,1.9,0,0,0-2.09-.37,2.1,2.1,0,0,0-1.36,1.87,3.31,3.31,0,0,0,.1.94,5.89,5.89,0,0,0,1.77,3,2.13,2.13,0,0,0,2.49.42,1.88,1.88,0,0,0,1.08-2.23c-.14-.71-.14-.71.5-1.07l2.53-1.39S286.83,145.32,286.91,145.3Z"/><path class="cls-2" d="M238.76,145.21l3.53.77,6.6,1.46.43.1c.16,0,.2.13.17.28-.2.89-.41,1.79-.6,2.69-.06.3-.27.2-.44.16l-2.38-.53-.65-.13a8.45,8.45,0,0,0-.42,1.7c-.52,2.34-1,4.69-1.53,7-.1.47-.11.48-.62.37L240,158.5c-.5-.11-.51-.12-.4-.62.38-1.76.77-3.51,1.15-5.26l.66-3c.1-.45.09-.46-.39-.57-.85-.2-1.71-.4-2.57-.58-.3-.06-.43-.13-.34-.48C238.37,147.08,238.55,146.16,238.76,145.21Z"/><path class="cls-2" d="M301.17,138.81l-1.86,1.83-4.61,4.62c-.35.34-.36.34-.67,0l-8.4-8.47-.19-.21a4.58,4.58,0,0,1,.67-.72c.59-.6,1.19-1.17,1.77-1.78.23-.25.37-.23.6,0,1.45,1.47,2.92,2.93,4.38,4.4.54.53,1.07,1.06,1.6,1.6s.37.42.81,0l3.2-3.2c.36-.36.37-.36.71,0Z"/><path class="cls-2" d="M276.55,55.52c-.85-.39-1.69-.77-2.51-1.16-.32-.15-.78-.2-.91-.5s.21-.64.36-1Q275.8,48,278.12,43a1.43,1.43,0,0,0,.13-.28c.1-.27.22-.35.52-.21.94.46,1.88.9,2.84,1.31.35.15.3.31.17.58-.54,1.13-1.07,2.27-1.6,3.4l-3.33,7.1C276.76,55.12,276.66,55.3,276.55,55.52Z"/><path class="cls-4" d="M262,66.06l-1.05.76c-1.05.77-2.09,1.54-3.15,2.29a.51.51,0,0,0-.22.72c.48,1.44.95,2.9,1.42,4.35,0,.17.11.35.18.59a.89.89,0,0,1-.44-.24q-1.91-1.38-3.8-2.77c-.41-.29-.42-.29-.85,0l-3.8,2.76-.31.22c-.15-.16,0-.28,0-.41l1.47-4.46c.17-.51.17-.51-.25-.82l-3.65-2.66-.58-.47h.74c1.53,0,3.06,0,4.58,0a.5.5,0,0,0,.57-.42c.47-1.47,1-2.94,1.43-4.41.05-.17.11-.34.18-.53.23.18.23.44.3.64.47,1.41.93,2.82,1.37,4.24a.56.56,0,0,0,.65.48c1.72,0,3.43,0,5.15,0Z"/><path class="cls-4" d="M233.86,97.24l-3.25-2.34-.87-.62c-.42-.31-.36-.38-.9,0l-3.62,2.6a1.44,1.44,0,0,1-.53.33,1.21,1.21,0,0,1,.14-.6c.45-1.42.91-2.83,1.36-4.24.18-.55.18-.55-.3-.91l-3.54-2.6a1.56,1.56,0,0,1-.51-.47h.58c1.51,0,3,0,4.52,0,.58,0,.53.11.74-.52.48-1.49,1-3,1.46-4.47,0-.11,0-.26.21-.33l.18.5c.47,1.45.93,2.9,1.41,4.35.19.58.15.47.64.47,1.51,0,3,0,4.52,0h.75l-.59.47c-1.24.9-2.46,1.8-3.71,2.69a.53.53,0,0,0-.23.72c.53,1.54,1,3.09,1.55,4.64l.06.23Z"/><path class="cls-4" d="M251.05,136.16a1.33,1.33,0,0,1,.15-.6c.44-1.4.89-2.79,1.34-4.18.2-.64.2-.64-.36-1l-3.87-2.79-.09-.1c.12-.17.3-.09.45-.09,1.57,0,3.14,0,4.71,0a.53.53,0,0,0,.62-.44c.51-1.64,1-3.26,1.57-4.89.22.06.2.26.25.4.47,1.45.95,2.9,1.42,4.35.22.71.19.57.76.57h5.21c-.25.19-.38.31-.53.41l-3.61,2.61c-.59.43-.53.29-.31,1,.45,1.39.9,2.78,1.34,4.17.07.2.13.39.2.61a1.35,1.35,0,0,1-.58-.32l-3.65-2.66c-.49-.35-.34-.39-.89,0l-3.59,2.63A1.48,1.48,0,0,1,251.05,136.16Z"/><path class="cls-4" d="M272.93,89a1.4,1.4,0,0,1,.68-.07h4.46c.53,0,.53,0,.69-.49l1.5-4.59a2.09,2.09,0,0,1,.08-.23c.22,0,.19.22.23.34.49,1.49,1,3,1.46,4.47.16.5.16.5.69.5h5.08c0,.23-.14.26-.24.33-1.23.91-2.47,1.8-3.7,2.7-.54.4-.54.4-.34,1,.47,1.45.94,2.9,1.4,4.35,0,.12.13.23.07.41a1,1,0,0,1-.39-.23c-1.29-.94-2.58-1.86-3.85-2.81a.5.5,0,0,0-.71,0c-1.2.91-2.42,1.79-3.64,2.68a1.33,1.33,0,0,1-.63.36c.27-.83.52-1.62.77-2.41s.54-1.63.8-2.44c.17-.52.17-.52-.29-.86l-3.65-2.66Z"/><path class="cls-4" d="M258.58,105c.37-1.13.73-2.26,1.11-3.38.19-.57.21-.53-.27-.87l-2.48-1.81-.53-.43H258c.75,0,1.51,0,2.26,0,.37,0,.51-.13.61-.46.3-1,.64-2,1-3,.06-.18.12-.36.19-.54.19.15.2.38.26.57.33,1,.65,2,.95,3a.49.49,0,0,0,.57.41c1.23,0,2.47,0,3.7,0,.06.23-.13.26-.23.33-.89.66-1.78,1.32-2.69,2a.52.52,0,0,0-.24.71c.38,1.07.72,2.14,1.07,3.21,0,.08,0,.16.08.28-.19,0-.29-.1-.4-.17-.9-.64-1.8-1.28-2.69-2a.5.5,0,0,0-.7,0c-1,.73-2,1.44-3,2.16Z"/><path class="cls-4" d="M311.57,110c-.09.75-.31,1.6-.49,2.45a.21.21,0,0,1-.28.17l-1.83-.37a.24.24,0,0,1-.21-.32,22.38,22.38,0,0,1,.58-2.55,1,1,0,0,1,1.29-.68C311.3,108.87,311.58,109.23,311.57,110Z"/><path class="cls-4" d="M306.93,109.26l-.48,2.21c0,.18-.16.22-.33.18l-1.35-.29c-.13,0-.22-.1-.18-.26a13.45,13.45,0,0,1,.58-2.37.85.85,0,0,1,1.47-.28A1.1,1.1,0,0,1,306.93,109.26Z"/><path class="cls-4" d="M228.43,143.41l1.91,1.07a2.94,2.94,0,0,1,.5.37,1.08,1.08,0,0,1,.28,1.5,1.11,1.11,0,0,1-1.48.56,19.26,19.26,0,0,1-2.21-1.15c-.17-.09-.16-.21-.08-.36Z"/><path class="cls-4" d="M217,54.33c.59-.46,1.11-.88,1.64-1.28a3.42,3.42,0,0,1,.64-.39,1.08,1.08,0,0,1,1.44.32,1.11,1.11,0,0,1,0,1.54,15.41,15.41,0,0,1-2,1.69c-.12.1-.22,0-.31-.07Z"/><path class="cls-4" d="M287.29,53.87c.49-.6.94-1.13,1.35-1.67.21-.28.36-.26.6-.06.41.35.85.68,1.26,1a3.31,3.31,0,0,1,.61.63,1.06,1.06,0,0,1,0,1.38,1.11,1.11,0,0,1-1.37.44,1.67,1.67,0,0,1-.44-.23Z"/><path class="cls-4" d="M298.78,70.91a2.32,2.32,0,0,1-2.24-3.1,2.64,2.64,0,0,1,.34-.67A5.32,5.32,0,0,1,300.29,65a2.29,2.29,0,0,1,2.51,3.09,2.13,2.13,0,0,1-.25.5A5.3,5.3,0,0,1,299,70.88Z"/><path class="cls-4" d="M215.86,133.88a2.3,2.3,0,0,1,2.25,2.87,5.21,5.21,0,0,1-3.62,3.32,2.28,2.28,0,0,1-2.56-2.81,2.8,2.8,0,0,1,.26-.7,5.69,5.69,0,0,1,2.49-2.39A2.37,2.37,0,0,1,215.86,133.88Z"/><path class="cls-4" d="M208.91,123.78a1.1,1.1,0,0,1-.69,1,1.13,1.13,0,0,1-1.29-.05,1.76,1.76,0,0,1-.49-.56c-.31-.57-.6-1.14-.92-1.7-.13-.23-.06-.33.15-.44.58-.28,1.15-.57,1.73-.87.13-.07.27-.16.37,0a14.73,14.73,0,0,1,1.08,2.31C208.88,123.62,208.89,123.72,208.91,123.78Z"/></g></svg>