<svg id="Capa_1" data-name="Capa 1" xmlns="http://www.w3.org/2000/svg" xmlns:xlink="http://www.w3.org/1999/xlink" viewBox="0 0 328.61 211.1"><defs><style>.cls-1,.cls-2,.cls-5{opacity:0.8;}.cls-1{fill:url(#linear-gradient);}.cls-2{fill:url(#linear-gradient-2);}.cls-3{fill:#003165;}.cls-3,.cls-4{fill-rule:evenodd;}.cls-4{fill:none;stroke:#003165;stroke-linecap:round;stroke-linejoin:round;stroke-width:1.6px;}.cls-5{fill:url(#linear-gradient-3);}</style><linearGradient id="linear-gradient" x1="1380.22" y1="280.9" x2="2851.21" y2="280.9" gradientTransform="matrix(0.71, 0.32, 0.41, -0.91, -836.44, 35.75)" gradientUnits="userSpaceOnUse"><stop offset="0.16" stop-color="#82bc3f" stop-opacity="0.8"/><stop offset="0.19" stop-color="#78b83f" stop-opacity="0.81"/><stop offset="0.34" stop-color="#4da741" stop-opacity="0.84"/><stop offset="0.5" stop-color="#2b9943" stop-opacity="0.87"/><stop offset="0.66" stop-color="#139044" stop-opacity="0.89"/><stop offset="0.83" stop-color="#058a45" stop-opacity="0.9"/><stop offset="1" stop-color="#008845" stop-opacity="0.9"/></linearGradient><linearGradient id="linear-gradient-2" x1="1442.73" y1="1408.56" x2="1567.02" y2="1408.56" gradientTransform="translate(-581.14 -1191.23) rotate(6.92)" xlink:href="#linear-gradient"/><linearGradient id="linear-gradient-3" x1="1776.33" y1="241.9" x2="1951.56" y2="241.9" gradientTransform="matrix(0.91, 0.41, 0.41, -0.91, -1003.5, -39.53)" xlink:href="#linear-gradient"/></defs><path class="cls-1" d="M805.29,500.16c38.71,3.62,75.16,6.59,109.41,9.11q-11.62-19.18-20.55-37.55-52.57-9.62-110.38-21.28A446.88,446.88,0,0,0,805.29,500.16Z" transform="translate(-674.51 -316)"/><path class="cls-2" d="M696.42,316c-8.76,42-19.17,83.8-21.91,126.57,42.35,7.53,82.26,13.69,119.31,18.69a230.33,230.33,0,0,1,12.69-79.79A1096.09,1096.09,0,0,1,696.42,316Z" transform="translate(-674.51 -316)"/><path class="cls-3" d="M961.68,482.67c-1.63-.15-3.41-.15-5.34-.15-2.66,0-5,.15-7.4.15L951.31,496c0,.6.59.89,1.18.89h11.7a1.12,1.12,0,0,0,1.19-.89l2.67-13.33h-6.37Zm-1.19-85c-4.59,0-4.15,13.78-13.78,17.18a36.83,36.83,0,0,1-13.18,2.38c-7,0-12.3-2.07-14.37-4-3.11-3,25.33-12.59,19.26-20.89l-9.34-12.44a3.1,3.1,0,0,0-2.51-1.34,3,3,0,0,0-1.93.59l-31.26,23s-12,0-14.07,7h-.89c-2.52,0-9.64.59-11.56,6.37,0,0-29.62,5.93-47.26,15.41S775,439.71,775,454.67s23.85,25.18,42.82,25.18,113.92-3,127.26-3.69c2.81-.15,5.48-.15,8-.15h9.63c10.07,0,15.25-1.19,15.4-12.75.3-17,2.37-43.41-10.67-59.85-3.26-4.15-5.48-5.78-7-5.78Zm-161,86.08,2.66,14.37c0,.44.59.89,1,.89H815c.45,0,1-.45,1-.89l2.52-11.86a72.79,72.79,0,0,1-18.82-3.4,1.1,1.1,0,0,0-.29.89Zm29.47,14.37a1.31,1.31,0,0,0,1.19.89h11.71a1.3,1.3,0,0,0,1.18-.89l2.37-12.15c-7.41.14-13.78.29-18.52.44Zm91.12-1.93a1.12,1.12,0,0,0,1,1h11.85a1.25,1.25,0,0,0,1-1l2.67-12.89c-5.18.15-11.7.45-18.82.6Z" transform="translate(-674.51 -316)"/><path class="cls-4" d="M764.59,505.21s21.09,3.81,21.09,21.09" transform="translate(-674.51 -316)"/><path class="cls-4" d="M788.12,509.91s23.45-.89,23.45,16.39" transform="translate(-674.51 -316)"/><path class="cls-4" d="M818.72,512.27s11.68-3.25,11.68,14" transform="translate(-674.51 -316)"/><path class="cls-4" d="M837.55,512.27s11.68-3.25,11.68,14" transform="translate(-674.51 -316)"/><path class="cls-4" d="M858.74,505.21s7,3.81,7,21.09" transform="translate(-674.51 -316)"/><path class="cls-4" d="M882.28,505.21s-.09,3.81-.09,21.09" transform="translate(-674.51 -316)"/><path class="cls-4" d="M905.82,505.21s-9.51,3.81-9.51,21.09" transform="translate(-674.51 -316)"/><path class="cls-4" d="M947.38,511.39S936.32,509,936.32,526.3" transform="translate(-674.51 -316)"/><path class="cls-4" d="M926.2,511.39S915.14,509,915.14,526.3" transform="translate(-674.51 -316)"/><path class="cls-4" d="M973.28,511.39S955.15,509,955.15,526.3" transform="translate(-674.51 -316)"/><path class="cls-4" d="M1002.32,505.21S978.69,509,978.69,526.3" transform="translate(-674.51 -316)"/><path class="cls-5" d="M715.5,516.22a234.46,234.46,0,0,1,18.14-87.69c22.51,10.64,45,20.59,67.15,29.91.62,20.66,4.47,43,12.88,67.1C783.27,523.15,750.59,520.13,715.5,516.22Z" transform="translate(-674.51 -316)"/></svg>