<svg id="Layer_1" data-name="Layer 1" xmlns="http://www.w3.org/2000/svg" viewBox="0 0 389.2 79.79"><defs><style>.cls-1{fill:#fff;}</style></defs><rect class="cls-1" x="90.51" y="67.62" width="119.25" height="2.16"/><path class="cls-1" d="M39.9,0A39.9,39.9,0,1,0,79.79,39.9,39.9,39.9,0,0,0,39.9,0Zm0,73.4A33.51,33.51,0,1,1,73.4,39.9,33.5,33.5,0,0,1,39.9,73.4Z"/><polygon class="cls-1" points="16.71 27.59 6.32 53.03 26.43 59.62 36.1 22.46 16.71 27.59"/><polygon class="cls-1" points="42.58 20.79 32.44 61.55 57.79 69.86 66.41 14.47 42.58 20.79"/><path class="cls-1" d="M384.13,25.19a4.36,4.36,0,1,0,4.4,4.31,4.32,4.32,0,0,0-4.4-4.31m0,8.1a3.74,3.74,0,1,1,3.79-3.79,3.74,3.74,0,0,1-3.79,3.79"/><path class="cls-1" d="M386.07,30.82c0-1-.18-1.05-.53-1.23a1.19,1.19,0,0,0,.71-1.14,1.39,1.39,0,0,0-1.5-1.41h-2.46v4.84h1V30h1.06c.79,0,.79.27.79.88a2.44,2.44,0,0,0,.09,1h1.14v-.09c-.26-.09-.26-.26-.26-1m-1.59-1.67h-1.23V27.92h1.23c.62,0,.71.35.71.62,0,.43-.18.61-.71.61"/><path class="cls-1" d="M90.56,55.11H112a6,6,0,0,1-.51-2.57,16.35,16.35,0,0,1,.51-4l6-23.36h14.72L134.5,18H119.78l1-3.81c.52-2.05,1.23-2.36,5.35-2.36h5.46A10.71,10.71,0,0,1,137.38,13l1.13-8.43H117.62c-5,0-7.82.51-10,1.85-3,1.75-3.91,3.39-5.46,9.57L101.57,18H93.33l-1.85,7.21h8.23l-5.45,21.3c-1.23,4.63-1.85,6-3.7,8.64"/><path class="cls-1" d="M181.43,45.54l3.49-13.69a14.71,14.71,0,0,0,.62-4.32,10.72,10.72,0,0,0-1.95-6.07c-2.06-2.57-4.43-3.5-9.27-3.5H151.79c-5,0-7.62.31-9.78,1.24a10.79,10.79,0,0,0-5.66,7.1l-4.22,16.47a12.19,12.19,0,0,0-.41,3.19,9,9,0,0,0,3.29,7.2c2.06,1.75,3.19,2,9.06,2H166.5c5.87,0,8.34-.51,10.6-2.16s3.19-3.39,4.33-7.41M167,30.31l-3.71,14.51C162.7,47.5,162,48,158.68,48h-5.45c-2.37,0-3.5-.61-3.5-2.16a10,10,0,0,1,.41-2.16l3.91-15.33c.72-2.47,1.55-3.19,4.63-3.19h5c2.68,0,3.92.72,3.92,2.57a8.94,8.94,0,0,1-.62,2.57"/><path class="cls-1" d="M225.78,30.11,229,18H218.58c-5.56,0-7.72,1.34-10.4,6.28l.31-1.95V19.71L208.7,18H191.61a6.67,6.67,0,0,1,.52,2.68,17.79,17.79,0,0,1-.52,4L186,46.47c-1.23,4.53-1.75,6-3.7,8.64h21.4a5.88,5.88,0,0,1-.41-2.57,23.47,23.47,0,0,1,.41-4l4.43-17.19c.62-2.37,1.85-3.19,5-3.19h6.38a9.18,9.18,0,0,1,6.28,2"/><path class="cls-1" d="M267.56,18h-10.7a8.34,8.34,0,0,0-3.71.52,4.3,4.3,0,0,0-1.64,1.44l1.64-6.48,2.27-8.85h-20A5.88,5.88,0,0,1,236,7.16a22,22,0,0,1-.52,4l-9,35.4c-1.24,4.43-1.85,5.87-3.71,8.54h19.66l.82-3.39c.93,2.67,2.27,3.39,6.59,3.39h13.58c6.49,0,10-2.78,11.73-9.57l3.4-13.37a21.34,21.34,0,0,0,.72-4.84,8.58,8.58,0,0,0-3.29-6.9c-2.37-1.85-4.22-2.47-8.34-2.47M260.87,29.9l-3.39,13.17c-1,4-1.55,4.84-4.33,4.94h-4.83c-2.27,0-3.4-.82-3.4-2.16a8.88,8.88,0,0,1,.31-2l3.91-15c.82-3.09,1.44-3.7,4-3.7h4.53c2.58,0,3.71.82,3.71,2.36a9.08,9.08,0,0,1-.52,2.37"/><path class="cls-1" d="M320.15,48H302.24a20.07,20.07,0,0,1-3.39-.2,2.48,2.48,0,0,1-1.55-2.16c0-.31.21-1.34.31-2.06l.93-3.5H329.2l2.37-9.16a16.76,16.76,0,0,0,.52-3.7,8.61,8.61,0,0,0-2.89-6.7c-2.05-2-4.52-2.57-10-2.57H295.86c-6.58,0-10.39,2.68-11.83,8.34l-4.32,16.46a17.08,17.08,0,0,0-.31,3.09,9.25,9.25,0,0,0,3.09,6.69c1.85,1.75,4.62,2.57,8.54,2.57h32.52l3.19-7.92a18.29,18.29,0,0,1-6.59.82M301.52,28.66c.83-3,1.44-3.49,4.32-3.49h5.67c1.85,0,2.77.51,2.77,1.85,0,.21-.2.93-.31,1.64L312.84,33H300.49Z"/><path class="cls-1" d="M354.83,50c1.75,3.19,1.75,3.39,1.75,5.14h23.05a34.31,34.31,0,0,1-4.94-6.58l-8-13.69L389.2,18H376c-.31.83-1.23,1.86-3.7,3.91l-9.47,6.69L360.29,24a12,12,0,0,1-2-6.07H335.28c1.44,1.13,1.64,1.44,3.5,4.63l9.67,16.68L327,55.11h13.07c.31-1,.83-1.54,2.78-3.08l9.16-7"/><path class="cls-1" d="M225.71,60.72a2.59,2.59,0,0,0-1.78-.49h-4c-.57,0-.74.07-.9.36a5,5,0,0,0-.24.94c0,.29.21.43.69.43H223a1.79,1.79,0,0,1,1.35.38,1.43,1.43,0,0,1,.5,1.15,2.49,2.49,0,0,1-.16.9l-.76,2.93c-.34,1.27-.51,1.55-1.1,2s-1,.52-2.76.52h-7.58l.32-2.33a2.93,2.93,0,0,0,2.05.43h3.76c.62,0,.73,0,.88-.35a2.79,2.79,0,0,0,.23-.89c0-.3-.21-.42-.66-.42h-3.26c-1.41,0-2.15-.53-2.15-1.58a4.54,4.54,0,0,1,.24-1.33l.69-2.65a2.55,2.55,0,0,1,1.24-1.88,3.64,3.64,0,0,1,2.09-.5H226"/><path class="cls-1" d="M236.24,70.47c-.36,1.42-.5,1.71-1,2.11a3.24,3.24,0,0,1-2.16.48h-8.29l.17-1.83a4.75,4.75,0,0,0,1.48.19h4.5c.78,0,1-.14,1.14-.81l.35-1.31c-.38.47-.57.54-1.52.54h-2.1a8.55,8.55,0,0,1-1-.09A2.11,2.11,0,0,1,226,67.63a4.37,4.37,0,0,1,.2-1.22l.92-3.51a7.91,7.91,0,0,0,.1-.91,1.42,1.42,0,0,0-.12-.6h4.53l-1.5,5.86c-.12.4-.12.4-.12.5,0,.29.28.45.81.45h1.05c.68,0,.88-.18,1.07-.93l1.14-4.37a5,5,0,0,0,.11-.91,1.3,1.3,0,0,0-.13-.6h4.54"/><path class="cls-1" d="M244.57,62.16c.36-.67.55-.77,1.41-.77h2.8a2.22,2.22,0,0,1,1.82.72,2.46,2.46,0,0,1,.54,1.45,6.11,6.11,0,0,1-.21,1.35l-.88,3.41a5.07,5.07,0,0,0-.1.91,1.73,1.73,0,0,0,.1.61h-4.86a5,5,0,0,0,.84-2l1-3.74a2.74,2.74,0,0,0,.14-.67.47.47,0,0,0-.4-.42h-1.39c-.68,0-.87.13-1,.81l-1.15,4.48a4.28,4.28,0,0,0-.11.91,1.55,1.55,0,0,0,.11.61h-4.87a5,5,0,0,0,.85-2l1.28-5a4.53,4.53,0,0,0,.12-.91,1.45,1.45,0,0,0-.12-.6h4.36"/><path class="cls-1" d="M261.88,63h-3.35l-1.1,4.28a.59.59,0,0,0,0,.26c0,.45.35.64,1.16.64h1.1a3.9,3.9,0,0,0,1.45-.26l-.5,1.9h-4.2c-.33,0-.94,0-1.33-.07a2,2,0,0,1-1.81-2,3.57,3.57,0,0,1,.08-.69l1-4h-1.73l.43-1.63h1.72l.43-1.61,4.19-.25L259,61.39h3.34"/><path class="cls-1" d="M268.05,61.87a1.62,1.62,0,0,1,1.43-.48h2.17c1.12,0,1.55.12,2,.57a2.36,2.36,0,0,1,.72,1.6,4.11,4.11,0,0,1-.15,1l-1,3.79a5.07,5.07,0,0,0-.1.91,1.8,1.8,0,0,0,.1.61h-4.86a5.11,5.11,0,0,0,.85-2l1-3.7a3.46,3.46,0,0,0,.09-.54c0-.41-.28-.61-.86-.61h-.83c-.73,0-.92.18-1.12,1l-1.12,4.31a4.28,4.28,0,0,0-.11.91,1.55,1.55,0,0,0,.11.61h-4.87a5,5,0,0,0,.85-2l2.07-8a4.87,4.87,0,0,0,.1-.91,1.75,1.75,0,0,0-.1-.6H269"/><path class="cls-1" d="M285.58,69.84h-7.36a2.64,2.64,0,0,1-2-.61,2.08,2.08,0,0,1-.71-1.52,3.54,3.54,0,0,1,.09-.68l1-3.73a2.43,2.43,0,0,1,2.69-1.91h5.29c1.26,0,1.81.14,2.27.59a1.92,1.92,0,0,1,.66,1.51,3.34,3.34,0,0,1-.12.85l-.54,2.1h-6.94l-.21.78a3.46,3.46,0,0,0-.07.46.52.52,0,0,0,.34.47,3.08,3.08,0,0,0,.76,0h4.07a4.27,4.27,0,0,0,1.5-.18m-3.17-3.22.26-1c0-.18.07-.33.07-.38,0-.3-.21-.44-.62-.44h-1.3c-.63,0-.79.13-1,.82l-.24,1Z"/><path class="cls-1" d="M297.73,63h-3.34l-1.1,4.28a.59.59,0,0,0,0,.26c0,.45.35.64,1.16.64h1.1a3.9,3.9,0,0,0,1.45-.26l-.5,1.9h-4.21c-.33,0-.93,0-1.32-.07a2,2,0,0,1-1.82-2,3.63,3.63,0,0,1,.09-.69l1.05-4h-1.74l.43-1.63h1.73l.43-1.61,4.19-.25-.49,1.86h3.35"/><path class="cls-1" d="M302.35,68.32a5.07,5.07,0,0,0-.1.91,1.73,1.73,0,0,0,.1.61h-4.86a5.11,5.11,0,0,0,.85-2l1.27-5a3.91,3.91,0,0,0,.12-.91,1.28,1.28,0,0,0-.12-.6h4.54m.2-.81h-4.13l.58-2.24h4.14Z"/><path class="cls-1" d="M315.06,63.3a2.56,2.56,0,0,0-1.33-.28H310.9c-.79,0-1,.14-1.17.87l-.84,3.31a1.55,1.55,0,0,0-.09.45c0,.39.33.55,1.16.55h2.39a3.51,3.51,0,0,0,1.48-.21l-.75,1.85h-5.62a2.92,2.92,0,0,1-2.06-.52,1.91,1.91,0,0,1-.74-1.48,3.73,3.73,0,0,1,.16-1l.91-3.52a2.51,2.51,0,0,1,1.09-1.62,3.37,3.37,0,0,1,2-.36h6.44"/><path class="cls-1" d="M334,63.06a5.18,5.18,0,0,0-.83,2l-.86,3.29a5.28,5.28,0,0,0-.1.91,1.73,1.73,0,0,0,.1.61h-3.64l0-1.07a1.37,1.37,0,0,1-1.58,1.07h-3.63a3.2,3.2,0,0,1-2.15-.45,2.14,2.14,0,0,1-.83-1.66,4.22,4.22,0,0,1,.21-1.17l1.46-5.72a2.79,2.79,0,0,1,1.52-2.09c.88-.4.92-.4,3.31-.41h7.52l-.19,2.19a5.05,5.05,0,0,0-2-.3H327.9c-.94,0-1.2.18-1.39.92L325,66.94a1,1,0,0,0-.09.43c0,.38.26.57.79.57h1.47c.67,0,.81-.14,1.07-1.1l.48-1.88h-1.1a3.61,3.61,0,0,0-1.38.2l.55-2.1"/><path class="cls-1" d="M339.75,61.78l0,.59-.05.45A2.2,2.2,0,0,1,342,61.39h2.34l-.72,2.76a2.05,2.05,0,0,0-1.41-.43H340.8c-.74,0-1,.17-1.16.72l-1,3.88a5.07,5.07,0,0,0-.1.91,1.73,1.73,0,0,0,.1.61h-4.86a5,5,0,0,0,.84-2l1.28-5A3.91,3.91,0,0,0,336,62a1.42,1.42,0,0,0-.12-.6h3.88"/><path class="cls-1" d="M353.5,61.39a2,2,0,0,1,1.54.5,2.37,2.37,0,0,1,.72,1.62,5.6,5.6,0,0,1-.17,1.15l-.95,3.66a3.91,3.91,0,0,0-.12.91,1.46,1.46,0,0,0,.12.61h-4.08a1.52,1.52,0,0,1-.11-.64V69a1.61,1.61,0,0,1-1.64.83h-2.44a2.64,2.64,0,0,1-1.83-.56,1.91,1.91,0,0,1-.73-1.5,2.76,2.76,0,0,1,.13-.79l.2-.81a2.47,2.47,0,0,1,1-1.67,2.85,2.85,0,0,1,1.72-.33h4c.43,0,.45,0,.58-.1a.88.88,0,0,0,.23-.59c0-.36-.21-.46-.9-.46h-4.1a3.68,3.68,0,0,0-1.79.32l.91-2m3.34,4.41c-.68,0-.79.09-.94.69l-.23.86a1,1,0,0,0-.07.35c0,.38.19.5.81.5h1c.72,0,.79,0,1-.6l.46-1.8Z"/><path class="cls-1" d="M368,63.34a4.41,4.41,0,0,0-2.07-.32h-3.55c-.4,0-.59.14-.59.45s.11.3.66.3h3a1.76,1.76,0,0,1,1.38.48,1.83,1.83,0,0,1,.53,1.21,4.12,4.12,0,0,1-.12.84l-.34,1.31a2.64,2.64,0,0,1-1,1.67,3.4,3.4,0,0,1-2.39.56h-7.16l.19-1.9a3.36,3.36,0,0,0,.88.21l.71,0,.72,0h3.33a.55.55,0,0,0,.62-.61c0-.22-.09-.27-.43-.27h-2.5a3,3,0,0,1-1.9-.36,1.75,1.75,0,0,1-.7-1.45,1.63,1.63,0,0,1,.06-.5l.43-1.73a2.72,2.72,0,0,1,1.06-1.55,3.42,3.42,0,0,1,1.77-.34H368"/><path class="cls-1" d="M379.57,63.34A4.44,4.44,0,0,0,377.5,63H374c-.4,0-.59.14-.59.45s.11.3.66.3h3a1.76,1.76,0,0,1,1.38.48,1.83,1.83,0,0,1,.53,1.21,4.12,4.12,0,0,1-.12.84l-.34,1.31a2.64,2.64,0,0,1-1,1.67,3.4,3.4,0,0,1-2.39.56h-7.16l.19-1.9a3.28,3.28,0,0,0,.88.21l.71,0,.72,0h3.33a.55.55,0,0,0,.62-.61c0-.22-.09-.27-.43-.27h-2.5a3,3,0,0,1-1.9-.36,1.76,1.76,0,0,1-.71-1.45,1.63,1.63,0,0,1,.07-.5l.43-1.73a2.72,2.72,0,0,1,1.06-1.55,3.42,3.42,0,0,1,1.77-.34h7.48"/></svg>