<svg id="Layer_1" data-name="Layer 1" xmlns="http://www.w3.org/2000/svg" viewBox="0 0 279.19 56.54"><defs><style>.cls-1{fill:#fff;}.cls-2{fill:#003165;stroke:#fff;stroke-miterlimit:10;}.cls-3{fill:#008e55;}</style></defs><rect class="cls-1" x="63.47" y="51.43" width="86.12" height="1.56"/><path class="cls-2" d="M28.27.5A27.77,27.77,0,1,0,56,28.27,27.77,27.77,0,0,0,28.27.5"/><path class="cls-1" d="M28.27,4.47a23.81,23.81,0,1,0,23.8,23.8,23.79,23.79,0,0,0-23.8-23.8"/><path class="cls-3" d="M28.27,8.28a20,20,0,1,0,20,20,20,20,0,0,0-20-20"/><polygon class="cls-1" points="14.44 20.93 8.23 36.11 20.24 40.04 26.01 17.87 14.44 20.93"/><polygon class="cls-1" points="29.87 16.87 23.82 41.19 38.95 46.15 44.09 13.1 29.87 16.87"/><path class="cls-1" d="M275.53,20.79a3.15,3.15,0,0,0,0,6.29,3.15,3.15,0,1,0,0-6.29m0,5.84a2.7,2.7,0,1,1,2.73-2.73,2.7,2.7,0,0,1-2.73,2.73"/><path class="cls-1" d="M276.93,24.85c0-.7-.13-.76-.38-.89a.84.84,0,0,0,.5-.82,1,1,0,0,0-1.08-1H274.2v3.5h.69V24.28h.77c.57,0,.57.19.57.64a1.91,1.91,0,0,0,.06.7h.83v-.07c-.19-.06-.19-.19-.19-.7m-1.15-1.2h-.89v-.89h.89c.45,0,.51.25.51.44s-.12.45-.51.45"/><path class="cls-1" d="M63.5,42.39H79a4.27,4.27,0,0,1-.37-1.85,12,12,0,0,1,.37-2.9l4.31-16.87H93.9l1.34-5.2H84.61l.74-2.76c.38-1.48.89-1.71,3.87-1.71h3.94a7.67,7.67,0,0,1,4.16.9l.82-6.1H83.05c-3.64,0-5.65.37-7.21,1.34C73.68,8.5,73,9.69,71.9,14.15l-.45,1.42H65.51l-1.34,5.2h6L66.18,36.15c-.89,3.35-1.34,4.31-2.68,6.24"/><path class="cls-1" d="M129.13,35.48l2.53-9.88a10.81,10.81,0,0,0,.44-3.12,7.72,7.72,0,0,0-1.41-4.39c-1.48-1.86-3.19-2.52-6.69-2.52H107.73c-3.65,0-5.5.22-7.07.89a7.8,7.8,0,0,0-4.08,5.12l-3,11.9a9,9,0,0,0-.3,2.3A6.52,6.52,0,0,0,95.61,41c1.49,1.27,2.3,1.41,6.54,1.41h16.2c4.24,0,6-.37,7.66-1.56s2.3-2.45,3.12-5.35m-10.4-11L116.05,35c-.45,1.94-1,2.31-3.34,2.31h-3.94c-1.71,0-2.53-.45-2.53-1.56a7,7,0,0,1,.3-1.56l2.82-11.08c.52-1.78,1.12-2.3,3.35-2.3h3.64c1.93,0,2.82.52,2.82,1.86a6.26,6.26,0,0,1-.44,1.85"/><path class="cls-1" d="M161.16,24.33l2.31-8.77H156c-4,0-5.57,1-7.51,4.54l.23-1.41V16.83l.15-1.27H136.49a4.9,4.9,0,0,1,.37,1.94,13.17,13.17,0,0,1-.37,2.9L132.4,36.15c-.89,3.27-1.26,4.31-2.68,6.24h15.46a4.31,4.31,0,0,1-.29-1.85,17.43,17.43,0,0,1,.29-2.9l3.2-12.41c.45-1.71,1.34-2.31,3.64-2.31h4.61a6.63,6.63,0,0,1,4.53,1.41"/><path class="cls-1" d="M191.34,15.57h-7.73a6,6,0,0,0-2.68.37,3.17,3.17,0,0,0-1.19,1l1.19-4.69,1.64-6.39H168.15a4.34,4.34,0,0,1,.37,1.86,16.12,16.12,0,0,1-.37,2.9l-6.54,25.57a16.42,16.42,0,0,1-2.68,6.16h14.2l.59-2.45c.67,1.94,1.64,2.45,4.76,2.45h9.81c4.69,0,7.21-2,8.48-6.91l2.45-9.66a15.14,15.14,0,0,0,.52-3.49,6.16,6.16,0,0,0-2.38-5c-1.71-1.34-3.05-1.78-6-1.78m-4.83,8.62-2.45,9.51c-.75,2.9-1.12,3.49-3.13,3.57h-3.49c-1.63,0-2.45-.6-2.45-1.56a6.58,6.58,0,0,1,.22-1.42L178,23.44c.59-2.23,1-2.67,2.89-2.67h3.28c1.85,0,2.67.59,2.67,1.71a6.78,6.78,0,0,1-.37,1.71"/><path class="cls-1" d="M229.32,37.27H216.39a15.91,15.91,0,0,1-2.46-.15,1.79,1.79,0,0,1-1.11-1.56c0-.22.15-1,.22-1.49l.67-2.53h22.15l1.71-6.61a12.37,12.37,0,0,0,.37-2.68,6.22,6.22,0,0,0-2.08-4.83c-1.49-1.41-3.27-1.85-7.21-1.85H211.78c-4.76,0-7.51,1.93-8.55,6l-3.12,11.89a12.34,12.34,0,0,0-.22,2.23,6.67,6.67,0,0,0,2.23,4.83c1.33,1.26,3.34,1.85,6.17,1.85h23.48l2.31-5.72a13.11,13.11,0,0,1-4.76.6m-13.45-14c.59-2.15,1-2.52,3.12-2.52h4.09c1.33,0,2,.37,2,1.33,0,.15-.15.67-.22,1.19L224,26.42h-8.92Z"/><path class="cls-1" d="M254.37,38.68c1.26,2.3,1.26,2.45,1.26,3.71h16.65a24.81,24.81,0,0,1-3.57-4.75l-5.8-9.89,16.28-12.18h-9.51c-.23.59-.89,1.33-2.68,2.82l-6.84,4.83L258.31,20a8.72,8.72,0,0,1-1.42-4.38H240.25c1,.81,1.18,1,2.52,3.34l7,12L234.3,42.39h9.44c.22-.74.59-1.11,2-2.22l6.62-5.06"/><path class="cls-1" d="M161.11,46.44a1.9,1.9,0,0,0-1.28-.35h-2.91c-.41,0-.54,0-.65.26a3.76,3.76,0,0,0-.17.68c0,.21.14.31.49.31h2.53a1.28,1.28,0,0,1,1,.27,1.05,1.05,0,0,1,.36.84,1.81,1.81,0,0,1-.11.64l-.55,2.12c-.25.92-.37,1.12-.79,1.44s-.75.38-2,.38h-5.47l.23-1.68a2.12,2.12,0,0,0,1.48.31H156c.45,0,.52,0,.63-.25a2,2,0,0,0,.17-.65c0-.21-.15-.3-.48-.3h-2.35c-1,0-1.56-.38-1.56-1.14a3.42,3.42,0,0,1,.18-1l.5-1.92a1.86,1.86,0,0,1,.89-1.36,2.64,2.64,0,0,1,1.51-.36h5.85"/><path class="cls-1" d="M168.72,53.49c-.26,1-.36,1.23-.73,1.52a2.32,2.32,0,0,1-1.56.35h-6l.13-1.32a3.45,3.45,0,0,0,1.07.13h3.25c.56,0,.69-.1.82-.58l.25-1c-.28.34-.41.39-1.1.39h-1.52a6.94,6.94,0,0,1-.71-.07,1.52,1.52,0,0,1-1.32-1.53,3.45,3.45,0,0,1,.15-.88l.66-2.53a4.41,4.41,0,0,0,.08-.66,1,1,0,0,0-.09-.43h3.27l-1.08,4.23c-.09.29-.09.29-.09.36s.2.33.59.33h.76c.48,0,.63-.13.77-.68l.82-3.15a3.41,3.41,0,0,0,.08-.66,1,1,0,0,0-.09-.43h3.27"/><path class="cls-1" d="M174.73,47.49c.27-.49.4-.56,1-.56h2a1.61,1.61,0,0,1,1.32.52,1.74,1.74,0,0,1,.39,1,4.18,4.18,0,0,1-.15,1l-.64,2.46a4.45,4.45,0,0,0-.07.66,1.22,1.22,0,0,0,.07.44h-3.51a3.62,3.62,0,0,0,.61-1.42l.7-2.7a1.93,1.93,0,0,0,.1-.49.33.33,0,0,0-.29-.3h-1c-.49,0-.63.1-.75.58l-.84,3.24a4.45,4.45,0,0,0-.07.66,1.22,1.22,0,0,0,.07.44H170.2a3.62,3.62,0,0,0,.61-1.42l.92-3.59a2.84,2.84,0,0,0,.09-.66.9.9,0,0,0-.09-.43h3.15"/><path class="cls-1" d="M187.23,48.11h-2.41L184,51.2a.55.55,0,0,0,0,.18c0,.33.25.47.83.47h.8a2.7,2.7,0,0,0,1-.19L186.31,53h-3c-.24,0-.68,0-1-.05A1.47,1.47,0,0,1,181,51.51a2.27,2.27,0,0,1,.06-.5l.76-2.9h-1.26l.31-1.18h1.25l.31-1.16,3-.19-.35,1.35h2.41"/><path class="cls-1" d="M191.69,47.27a1.2,1.2,0,0,1,1-.34h1.57c.81,0,1.12.08,1.47.41a1.67,1.67,0,0,1,.53,1.16,2.62,2.62,0,0,1-.12.69l-.71,2.74a4.45,4.45,0,0,0-.07.66,1.25,1.25,0,0,0,.07.44H192a3.69,3.69,0,0,0,.61-1.42l.7-2.68a1.85,1.85,0,0,0,.06-.39c0-.29-.2-.43-.62-.43h-.6c-.52,0-.66.12-.81.71l-.81,3.11a4.45,4.45,0,0,0-.07.66,1.22,1.22,0,0,0,.07.44H187a3.76,3.76,0,0,0,.61-1.42l1.5-5.79a4.31,4.31,0,0,0,.07-.66,1.25,1.25,0,0,0-.07-.44h3.27"/><path class="cls-1" d="M204.35,53H199a1.92,1.92,0,0,1-1.41-.44,1.51,1.51,0,0,1-.51-1.09,2.27,2.27,0,0,1,.06-.5l.7-2.69a1.75,1.75,0,0,1,1.94-1.38h3.82c.91,0,1.31.1,1.65.42a1.42,1.42,0,0,1,.47,1.1,2,2,0,0,1-.09.61l-.38,1.52h-5l-.15.56a3,3,0,0,0-.05.33.37.37,0,0,0,.25.34,2.36,2.36,0,0,0,.55,0h2.94a3.1,3.1,0,0,0,1.08-.13m-2.29-2.33.18-.7a1.6,1.6,0,0,0,.05-.27c0-.21-.14-.31-.44-.31h-.94c-.46,0-.57.09-.69.58l-.18.7Z"/><path class="cls-1" d="M213.13,48.11h-2.41l-.8,3.09a.38.38,0,0,0,0,.18c0,.33.25.47.84.47h.79a2.78,2.78,0,0,0,1-.19L212.21,53h-3c-.24,0-.67,0-1-.05a1.47,1.47,0,0,1-1.3-1.47A2.27,2.27,0,0,1,207,51l.76-2.9h-1.26l.31-1.18H208l.31-1.16,3-.19L211,46.93h2.42"/><path class="cls-1" d="M216.47,51.93a3.41,3.41,0,0,0-.08.66,1.06,1.06,0,0,0,.08.44H213a3.69,3.69,0,0,0,.61-1.42l.92-3.59a2.84,2.84,0,0,0,.08-.66,1,1,0,0,0-.08-.43h3.27m.15-.59h-3l.43-1.62h3Z"/><path class="cls-1" d="M225.64,48.31a1.78,1.78,0,0,0-1-.2h-2c-.57,0-.71.1-.84.62l-.61,2.39a1.27,1.27,0,0,0-.07.33c0,.28.24.4.84.4h1.73a2.67,2.67,0,0,0,1.07-.15L224.21,53h-4.06a2.06,2.06,0,0,1-1.48-.38,1.35,1.35,0,0,1-.53-1.07,2.53,2.53,0,0,1,.11-.68l.66-2.54a1.85,1.85,0,0,1,.78-1.17,2.46,2.46,0,0,1,1.46-.26h4.65"/><path class="cls-1" d="M239.3,48.14a3.64,3.64,0,0,0-.6,1.41l-.62,2.38a3.51,3.51,0,0,0-.07.66,1.22,1.22,0,0,0,.07.44h-2.63l0-.77a1,1,0,0,1-1.15.77h-2.61a2.3,2.3,0,0,1-1.56-.33,1.53,1.53,0,0,1-.6-1.19,3.27,3.27,0,0,1,.15-.85l1.06-4.13a2,2,0,0,1,1.1-1.51c.63-.28.66-.28,2.39-.3h5.43l-.14,1.58a3.69,3.69,0,0,0-1.43-.21h-3.19c-.69,0-.87.13-1,.66l-1.08,4.19a.71.71,0,0,0-.07.31c0,.27.19.41.58.41h1.06c.48,0,.58-.1.77-.8l.35-1.36h-.8a2.69,2.69,0,0,0-1,.15l.4-1.51"/><path class="cls-1" d="M243.47,47.21v.43l0,.32a1.59,1.59,0,0,1,1.71-1h1.69l-.52,2a1.52,1.52,0,0,0-1-.31h-1.05c-.53,0-.72.12-.83.52l-.72,2.8a3.41,3.41,0,0,0-.08.66,1.06,1.06,0,0,0,.08.44h-3.52a3.61,3.61,0,0,0,.61-1.42L240.7,48a2.84,2.84,0,0,0,.08-.66,1,1,0,0,0-.08-.43h2.8"/><path class="cls-1" d="M253.41,46.93a1.43,1.43,0,0,1,1.11.36,1.73,1.73,0,0,1,.52,1.17,3.68,3.68,0,0,1-.13.83l-.68,2.64a2.92,2.92,0,0,0-.09.66,1.11,1.11,0,0,0,.09.44h-2.95a1.17,1.17,0,0,1-.08-.46v-.14A1.16,1.16,0,0,1,250,53h-1.77a2,2,0,0,1-1.32-.4,1.37,1.37,0,0,1-.52-1.08,2.22,2.22,0,0,1,.09-.58l.15-.58a1.78,1.78,0,0,1,.74-1.21,2.08,2.08,0,0,1,1.25-.24h2.85c.31,0,.32,0,.42-.07a.64.64,0,0,0,.17-.42c0-.27-.15-.34-.65-.34h-3a2.62,2.62,0,0,0-1.3.24l.66-1.42m2.41,3.19c-.49,0-.57.06-.68.49l-.16.62a.74.74,0,0,0-.05.25c0,.28.14.37.58.37h.74c.52,0,.57,0,.68-.44l.34-1.29Z"/><path class="cls-1" d="M263.84,48.33a3.35,3.35,0,0,0-1.49-.22h-2.57c-.28,0-.42.1-.42.32s.07.21.47.21H262a1.26,1.26,0,0,1,1,.35,1.31,1.31,0,0,1,.39.87,3.09,3.09,0,0,1-.09.62l-.25.94a1.85,1.85,0,0,1-.71,1.21,2.46,2.46,0,0,1-1.73.4h-5.16l.13-1.37a2.27,2.27,0,0,0,.64.15l.51,0,.52,0h2.41a.39.39,0,0,0,.44-.44c0-.16-.06-.2-.31-.2H258c-.78,0-1.11-.06-1.37-.26a1.24,1.24,0,0,1-.51-1.05,1.08,1.08,0,0,1,0-.36l.31-1.24a1.84,1.84,0,0,1,.76-1.12,2.39,2.39,0,0,1,1.28-.25h5.4"/><path class="cls-1" d="M272.23,48.33a3.35,3.35,0,0,0-1.49-.22h-2.57c-.28,0-.42.1-.42.32s.08.21.47.21h2.17a1.3,1.3,0,0,1,1,.35,1.34,1.34,0,0,1,.38.87,3.09,3.09,0,0,1-.09.62l-.24.94a1.94,1.94,0,0,1-.71,1.21A2.47,2.47,0,0,1,269,53h-5.17l.14-1.37a2.14,2.14,0,0,0,.63.15l.51,0,.52,0H268a.39.39,0,0,0,.45-.44c0-.16-.07-.2-.32-.2h-1.8A2.15,2.15,0,0,1,265,51a1.24,1.24,0,0,1-.51-1.05,1.08,1.08,0,0,1,.05-.36l.31-1.24a1.84,1.84,0,0,1,.76-1.12,2.41,2.41,0,0,1,1.28-.25h5.4"/></svg>