<svg xmlns="http://www.w3.org/2000/svg" xmlns:xlink="http://www.w3.org/1999/xlink" viewBox="0 0 670.65 634.87"><defs><style>.cls-1{isolation:isolate;}.cls-2,.cls-3,.cls-6,.cls-8{opacity:0.8;}.cls-2{fill:url(#linear-gradient);}.cls-3{fill:url(#linear-gradient-2);}.cls-4,.cls-5{mix-blend-mode:multiply;}.cls-4{fill:url(#linear-gradient-3);}.cls-5{opacity:0.7;fill:url(#linear-gradient-4);}.cls-6{fill:url(#linear-gradient-5);}.cls-7{fill:#001443;}.cls-8{fill:url(#linear-gradient-6);}.cls-9{opacity:0.4;mix-blend-mode:screen;fill:url(#linear-gradient-7);}</style><linearGradient id="linear-gradient" x1="-2309.46" y1="12543.95" x2="-568.35" y2="12543.95" gradientTransform="matrix(0.71, 0.32, 0.41, -0.91, -3612.24, 12469.56)" gradientUnits="userSpaceOnUse"><stop offset="0.16" stop-color="#82bc3f" stop-opacity="0.8"/><stop offset="0.19" stop-color="#78b83f" stop-opacity="0.81"/><stop offset="0.34" stop-color="#4da741" stop-opacity="0.84"/><stop offset="0.5" stop-color="#2b9943" stop-opacity="0.87"/><stop offset="0.66" stop-color="#139044" stop-opacity="0.89"/><stop offset="0.83" stop-color="#058a45" stop-opacity="0.9"/><stop offset="1" stop-color="#008845" stop-opacity="0.9"/></linearGradient><linearGradient id="linear-gradient-2" x1="-0.03" y1="1455.81" x2="243.89" y2="1455.81" gradientTransform="translate(188.9 -1085.27) rotate(6.92)" xlink:href="#linear-gradient"/><linearGradient id="linear-gradient-3" x1="-1614.07" y1="14659.58" x2="-1274.93" y2="14659.58" gradientTransform="matrix(0.98, 0.22, 0.22, -0.98, -1505.96, 14905.26)" gradientUnits="userSpaceOnUse"><stop offset="0.16" stop-color="#1173be" stop-opacity="0.9"/><stop offset="1" stop-color="#17a8e2" stop-opacity="0.8"/></linearGradient><linearGradient id="linear-gradient-4" x1="-1094.29" y1="12656.85" x2="-695.51" y2="12656.85" gradientTransform="matrix(0.91, 0.41, 0.41, -0.91, -3679.77, 12439.02)" xlink:href="#linear-gradient-3"/><linearGradient id="linear-gradient-5" x1="-1885.8" y1="10258.43" x2="-1078.43" y2="10258.43" gradientTransform="matrix(0.67, 0.74, 0.74, -0.67, -6183.97, 8690.54)" xlink:href="#linear-gradient"/><linearGradient id="linear-gradient-6" x1="-1286.57" y1="12532.25" x2="-942.71" y2="12532.25" gradientTransform="matrix(0.91, 0.41, 0.41, -0.91, -3679.77, 12439.02)" xlink:href="#linear-gradient"/><linearGradient id="linear-gradient-7" x1="-1315.48" y1="12700.27" x2="-753.12" y2="12700.27" gradientTransform="matrix(0.91, 0.41, 0.41, -0.91, -3679.77, 12439.02)" xlink:href="#linear-gradient-3"/></defs><g class="cls-1"><g id="Layer_1" data-name="Layer 1"><path class="cls-2" d="M541.16,624.1q68.73,6.4,129.49,10.77-13.75-22.7-24.32-44.44Q584.1,579,515.68,565.24A529.5,529.5,0,0,0,541.16,624.1Z"/><path class="cls-3" d="M43,232.58C25.8,315.05,5.39,397,0,481c83.12,14.78,161.43,26.87,234.15,36.67a451.85,451.85,0,0,1,24.9-156.58C186.09,323,112.86,280.19,43,232.58Z"/><path class="cls-4" d="M269.8,347a1020.24,1020.24,0,0,1-109.66-82.34,369.21,369.21,0,0,1,20.08-79.16c21.92,43.61,52.51,88.91,97.23,134.91Q273.16,333.46,269.8,347Z"/><path class="cls-5" d="M519.57,489.25q38.07,12.18,74.79,23.27a343.67,343.67,0,0,1,.62-67.91Q561.17,430.33,526.69,415A361.86,361.86,0,0,0,519.57,489.25Z"/><path class="cls-6" d="M201.47,620.5c62.65-3.06,118.32-7.11,168.79-11.44-4.37-48.86-2.32-92.28,4.36-130.79-48.31-30.72-99.72-64.33-154-101.29C199,442.44,189.5,522.89,201.47,620.5Z"/><path class="cls-7" d="M600.34,583.9c-2.48-7.23-12.58-12.64-21.81-13.67-2.37-.27-4.68.52-7.16.32-2.84-.23-6.78-2.11-10.42-3.26s-7.79-2.14-10.42-3.58a55.4,55.4,0,0,1-4.88-3.58c-1.47-1-4.41-2.09-5.21-3.25-1-1.48-1.37-5.81-1.63-9.11-.44-5.76.24-11.91.66-17.59,1.21-16.87,4.9-31.91,6.18-48.51.88-11.44,2-23.19,1-34.83-.5-5.59-1.56-10.86-2-16.28-.66-9.07,1.73-20.69-1-28.32-.75-2.1-3.59-3.79-4.23-5.54-.54-1.46,0-3.33-.33-4.88a24.56,24.56,0,0,0-2.28-5.54c-3-5.35-8.69-9.54-10.74-15.31-.76-2.11-.85-4.74-1.63-7.16-1.45-4.53-2.79-8.83-4.56-13-.88-2.07-2.45-4.58-2.6-6.18-.19-1.87.94-3.67,1-5.21.12-5.74-3.17-11.51-6.2-14.65-1.37-1.43-3.24-2.26-4.55-3.58-2-2-3.56-4.76-5.54-7.17-1.84-2.24-3.91-4.64-5.86-6.83-4.91-5.54-10.9-11.78-16.92-15.31a30.68,30.68,0,0,0,3.9-14.65c1-.71,1.75,1.15,3.58.66,2.41-6.82,5.76-12.37,6.19-20.19.51-9.33.55-18.1,1.95-26.7,1.3-8,3.34-15.72,5.21-23.77,2.77-11.88,5.91-23.71,6.51-36.45.22-4.52.65-9,1-13.68.8-11.21-1.35-21.77-3.91-30.93,2.4,1,7.09,1.19,7.17-2-2.3-2.36-8.36-1-8.8-5.2,2.36.12,5.56-.64,9.45-.33,2.86.23,9.15,1.53,7.8-2.6-.48-1.5-4.31-1.58-6.51-2a33.82,33.82,0,0,1-7.16-1.62c2.34-2.09,6.4-1.59,10.42-2,1.14-.1,2.24-.64,3.25-.65,1.92,0,3.83.86,5.54.33s2.44-1.3,2.93-3.59c-2.41-1.27-5.67-1.7-9.43-1.62.2-1.21,1.6-1.22,1.29-2.93,4.53,0,8.69-1.51,8.47-5.21-9.73-.88-15.86,2.78-23.44,3.58-1.1.12-2.17-.15-3.26,0s-3.16,1.43-4.55,1c-2.09-.69-3-5.41-3.91-6.84-.71-1.1-2.05-2.6-3.25-4.23-1-1.28-3.26-3.2-3.26-4.23s1.93-2.56,2.6-3.91c1.2-2.43,2.05-5.72,2.93-7.16,1.23-2,3.44-3.55,4.56-5.54a30.64,30.64,0,0,0,1.3-3.57c.25-.6.37-2.49,1.63-2-.91-3.14.85-4.39,1.63-6.84.21-.69.39-1.39.54-2.07a3.76,3.76,0,0,0,.5.81,4.44,4.44,0,0,1-.2-2c0-.14.07-.27.1-.4a10.32,10.32,0,0,0,3.06,1.1,12.8,12.8,0,0,1-2.75-2.14.47.47,0,0,0,0-.09,4.3,4.3,0,0,0,1.9.91,5,5,0,0,1-1.65-1.64c.26-.73.5-1.43.73-2.13a5.74,5.74,0,0,0,2.44,2.39,8.61,8.61,0,0,1-1.93-4s0-.06,0-.1a3.65,3.65,0,0,0,.14.35c0,.22.05.41.24.47a6.39,6.39,0,0,0,2.65,3,8.3,8.3,0,0,1-1.75-3.75c-.13-.5-.25-1-.37-1.52a.61.61,0,0,1,.43.21l.06,0,.48,1.18a1.84,1.84,0,0,0,.36.91,28.39,28.39,0,0,0,1.73,3.88c-.33-1.83-.45-3.64-.79-5.5a12.91,12.91,0,0,0-.94-3,.09.09,0,0,0,0-.05l.12.08c.8,2.15,1.56,4.6,3.44,6.2A19.4,19.4,0,0,1,508,45a1.81,1.81,0,0,1,.35.14,5.3,5.3,0,0,0,1.82,2c1.81,1.15,3.77,1.19,5.6,1.33-1.7-.74-3.53-1.36-4.69-2.5a4,4,0,0,1-1.16-1.91,7.28,7.28,0,0,1-.17-1.43l.4.59a7.56,7.56,0,0,0,3.46,2.87,6.43,6.43,0,0,0,4.25-.07,6.46,6.46,0,0,1-3.7-1A6.75,6.75,0,0,1,512,42.11q-.15-.37-.33-.75c-.39-.94-.73-2-1.12-3l.07,0c.28.35.56.69.85,1a3.94,3.94,0,0,1,.23,1,8.63,8.63,0,0,1,.82.57c.43.66.87,1.35,1.36,2,.83,1.06,1.91,2.27,3.32,2.43a5.38,5.38,0,0,1-2.25-3.05c-.29-.69-.53-1.39-.81-2.12a6.5,6.5,0,0,0,1.55,1.15,4.62,4.62,0,0,0,4.3.12,4.23,4.23,0,0,1-3.57-1.15,8,8,0,0,1-1.89-3.18c-.25-.64-.29-1.09-.61-1.93-.21-.63-.41-1.26-.62-1.92a12.48,12.48,0,0,0-2-4.14,9.51,9.51,0,0,0-1.58-1.59c2.44-.1,4.79-.33,7.12.65-1.68-1.57-4.1-2-6.33-2.09-.56-.42-1.31-.71-1.66-1.27.46.13.93.25,1.4.35a7,7,0,0,0,4.58-.39,7.48,7.48,0,0,1-2.77-.25s0-.08.07-.13a17.86,17.86,0,0,1-5.93-2.88c-2.7-2.1,2.58-.63,3.11-.69a.71.71,0,0,0-.22-.42,3.78,3.78,0,0,0,.75-.12A7.79,7.79,0,0,0,512.58,19c-1.91.6-3.85.65-5.26-.38s-2.92-2.68-5.37-3l-.76-.06a4.56,4.56,0,0,0-.66-.76,1,1,0,0,1,.61-.33l.72.06a7,7,0,0,1,1.75.95c.06-.17-.14-.48-.27-.78a16.33,16.33,0,0,0,4.58,0,24.39,24.39,0,0,1-3.78-1l0,0a5.17,5.17,0,0,0,3.76-1.46,5.45,5.45,0,0,1-3.44.42c-.37-.21-.19-.58.08-1a17.73,17.73,0,0,1-2.35-.44A7.31,7.31,0,0,0,506.68,9a9.25,9.25,0,0,1-6.66.31,26.54,26.54,0,0,1-2.54-.79,4,4,0,0,0-2-1.39A15.26,15.26,0,0,1,493,6.47c-.52-.14-.12-.72-.58-.9-1.73-.59-3.43-.86-4.93-1.93-1.08-.79-2.64-1.91-4-1.68a3,3,0,0,1-2-.24c-.57-.27-.65.4-1.09.46A7.53,7.53,0,0,1,478.13,1a.41.41,0,0,1-.07-.11H478a3.46,3.46,0,0,1-.69-.92,3,3,0,0,0,.33,1,8.17,8.17,0,0,0-1.26.77,3.28,3.28,0,0,0-1.73.11,2.32,2.32,0,0,1-.86.09,3.27,3.27,0,0,1-1-.95,3.44,3.44,0,0,0,.3.69,1.72,1.72,0,0,1-1,.9,3.25,3.25,0,0,0-1.73,1,8.64,8.64,0,0,0-2.87,0,12.07,12.07,0,0,0-6.82,4l-.62.62c-.83.16-.73.54-1.54,1-.45.26-.6.37-.62.51-.83.24-1.72-.64-2.22-1.69a4,4,0,0,0,.64,1.81,1.88,1.88,0,0,0,.84.7A27.33,27.33,0,0,0,450.31,22a20.31,20.31,0,0,0-.75,2.49c-.07.27-.14.56-.2.84a15.54,15.54,0,0,1-1,3,18.06,18.06,0,0,0-1.61,4.6c-.29,1.6-.42,3.58-1.43,4.9l-.15.2A8.86,8.86,0,0,0,442,42.8a9.82,9.82,0,0,0-1,3.61l.21,0a21.59,21.59,0,0,0-.15,3c0,1.65,1.14,3.36,1,4.88-.22,2-3.76,5.52-5.21,6.51-.91.62-2,.65-2.93,1.3-2.19,1.6-4,4-6.18,5.87a70.46,70.46,0,0,0-6.52,5.85c-8,8.46-17.38,15.78-23.11,25.72a45.6,45.6,0,0,0-4.89,13.68,51,51,0,0,1-1,5.21c-1.51,4.7-4.67,5.66-7.8,8.47-2.55,2.26-4.85,5.48-7.49,8.14a79.62,79.62,0,0,0-7.49,8.13c-4.72,6.18-7.62,13.82-12.37,19.21-1.5,1.71-5.85,4.38-6.19,5.86s.68,2.74.65,3.58c-4.14,3.46-5.81,7.92-9.77,11.07-3.5,2.8-7.86,4.54-11.06,7.81a46.63,46.63,0,0,0-2.94,3.91c-2.41,3.2-3.43,6-4.87,10.09a30.91,30.91,0,0,0-2.29,11.07,330.33,330.33,0,0,0,2.93,42.65c.57,4.48,1.25,9.09,1.63,13.68.4,4.85,1.66,10,1.31,14-.31,3.32-2.45,6.84-3.58,10.41a51,51,0,0,0-2.62,11.4c-.28,3.74.7,7.77,0,11.07-.49,2.34-1.59,2.17-2.27,4.55a38.76,38.76,0,0,1-.66,4.89c-.67,2.46-5.65,13.27-1,13.67,3.52.31,3.18-7.26,5.21-9.44,2.78,1.66,1.46,3.45.33,5.21s-3,3.55-3.91,5.21c-1.58,2.85-2.33,6.15-3.91,8.47s-4.11,4.52-6.18,6.83c-4.63,5.16-8.08,8.62-12.38,14.33-1.57,2.09-4.38,7-5.85,7.49-1,.31-2.71-.26-4.24-.33s-3.32.23-4.56,0c-2.56-.48-4.67-2.19-6.84-2.93a35.52,35.52,0,0,0-8.14-2c-8.85-.81-16.2,2.39-21.16,5.22-1.72,1-2.8,2.77-4.56,3.9-1.33.87-3.38,1.52-4.87,2.28-11.85,6-23,11.61-36.14,15.63-5.39-6.54-14.84-6.36-21.49-2.6-2.93,1.65-5.82,5.06-8.47,7.8-5.52,5.74-10.3,11.25-16.28,16.29-3.08,2.6-6.56,5.67-9.44,7.16-1.82.94-4.33,1.27-5.53,1.95-3.26,1.84-5.57,6.25-8.14,10.1-1.9,2.83-6.48,7.82-7.16,11.07-.34,1.58.33,3.86.32,6.18s-.53,4.46-.32,6.18c1,8.22,7.39,14.13,14,16.29,4.49,1.46,12.71-.94,16.6-2.62a46.16,46.16,0,0,0,11.39-7.48A79.18,79.18,0,0,0,180,454.65c1.72-2.84,1.69-3,4.23-4.88.75-.57,1.58-1.52,2.28-2,1.18-.74,2.7-.8,3.9-1.62,3.44-2.34,5.2-6.53,7.17-7.82s5.43-1.72,8.79-2.6c9.28-2.45,18.62-5,28.65-6.19,10.41-1.28,22.22-1.07,31.58-2.93,3.47-.69,6.58-2.06,9.43-2.27,3.79-.31,6.79,1.05,10.1,1.29,12.39.94,22.61-3.52,26.38-11.39,1.21-2.54,2-3.07,4.22-4.88,1.05-.86,2.29-1.73,3.26-2.61,6.26-5.64,12.44-11.14,18.23-16.93s11.11-11.9,16.94-18.23c1.63-1.78,4.94-6.14,5.85-6.18s3.76,2.78,4.89,3.58c1.87,1.31,3.77,3.08,5.53,2.92,3.31-.27,4.31-5.29,5.86-8.14,1.74-3.2,4.88-5.92,7.49-9.11,7.34-9,15-19.88,21.81-28,1.82,4.73,5.91,7.61,9.12,11.06,6.73,7.21,10.69,16.46,16.27,24.42,2.81,4,6.71,7.54,8.8,11.72.7,1.41.77,3.23,1.63,4.55,4.81,7.48,18.12,8,28,5.87,2.27-.49,5.55-1.9,7.49-1.63s4.14,3.11,5.86,5.21c3.85,4.72,6.95,7.2,10.74,11.4,1.61,1.77,4.28,5.13,4.56,6.83.12.69-.66,2.07-.65,2.93,0,2.15.85,4.82,1,7.49a61.66,61.66,0,0,1-2.93,23.76c-.73,2.42-1.21,5-2,7.49s-2.08,4.6-2.6,6.84c-3.28,14.28.31,28.17,2.6,40.37,3.92,20.84,8.3,44.66,6.2,68.69-5.58-.11-3.27,4.23-3.91,9.45a16.6,16.6,0,0,1-1,3.91c-.7,1.68-2.51,2.74-3.26,4.87-.92,2.67-.85,6.2-1.3,9.13-.24,1.55-.51,3-.65,4.55-.16,1.68.21,3.7,0,4.88s-2.07,2.82-1.63,3.91c.24.61,2.29,1.22,2.6,1.31,3.32.81,5.67.69,7.17,2.27,1.18,1.25,1.18,3.46,2,4.24,1.55,1.57,10.22,2.92,13.67,1.94,2.83-.79,2.66-3.74,5.85-3.25,2.43.38,1.74,2.29,4.24,2.6a5.16,5.16,0,0,0,4.88-1.62c1-.86,1.17-1.26,2.28-1.63,1.71-.56,4.49-.47,6.84-.65,2.52-.2,5.12-.89,7.16-.32a5.31,5.31,0,0,1,2,1.29,9.45,9.45,0,0,0,7.8,1.64c1.47-.39,2.07-2.22,3.91-2.61a10.9,10.9,0,0,1,4.56.33c.87.4.79,1.36,1.31,1.95,1.37,1.54,7,2.41,10.09,1.62,1.86-.46,2.83-2.77,4.56-2.93,2.29-.2,2.73,1.8,4.87,1.31,1.73-.39,1.92-3.17,3.91-3.91,1.19-.44,2.93.41,3.91,0,1.74-.73,1.47-2.45,2.93-3.91.74-.73,2-.83,2.61-1.29,3.29-2.57.68-4,1-6.85.1-1,1.05-1.58,1.3-2.27C601.32,591.09,601.11,586.13,600.34,583.9ZM507.83,26.37V27a5,5,0,0,1-.21-.58ZM396.21,193.21c-2.63,10-5.47,18-9.76,26-2.27,4.26-4.18,8.56-6.19,11.72-1,1.62-4.05,4-3.91,5.53.13,1.4,1.46,1.2,1.63,2.29-3.5,4-4.88,10-7.16,15.63a55.9,55.9,0,0,0-2.28,5.2c-.54,1.86-.36,4-1,5.87-.54,1.66-2,3-2.6,4.55s-.34,3.56-1,5.21c-2.2,5.72-9.37,9.15-14,12.7a250.85,250.85,0,0,1-2.6-63.16c.37-3.89.12-8.2,1-10.74.7-2.09,3.37-4.59,5.2-6.19,5.18-4.5,10.15-6.32,16.61-10.42,1.08-.69,2.47-2.23,2.93-2.28,1.19-.14,2.74,1.41,3.91,1.3,1.82-.18,3.91-3.17,5.53-5.2,3.46-4.37,6.68-7.67,10.09-11.4,2.27-2.47,3.89-4.4,5.54-6.51.45,1,2.19,4.42,2.28,5.86C400.66,182.73,397.41,188.67,396.21,193.21Z"/><path class="cls-8" d="M285.43,575.64A459.69,459.69,0,0,1,321,403.55c44.16,20.88,88.21,40.4,131.78,58.69,1.2,40.54,8.76,84.45,25.27,131.69C418.43,589.24,354.28,583.32,285.43,575.64Z"/><path class="cls-7" d="M391.48,570.63a41.57,41.57,0,0,0-10.75-28.4v0l-.16-.18v0a41.06,41.06,0,0,0-27.34-13.26v0h-.39a41.67,41.67,0,0,0-6.42.08l-1,.1a42.67,42.67,0,0,0-6.28,1.18l-.79.25a41.15,41.15,0,0,0-6.16,2.31l-.31.16a42.45,42.45,0,0,0-5.66,3.34c-.1.07-.23.12-.34.2h0a40.69,40.69,0,0,0-15.24,20.73c0-.05,0-.1,0-.16-.14.4-.21.81-.33,1.21-.28.94-.56,1.87-.77,2.81-.13.58-.23,1.16-.33,1.74-.17.88-.31,1.76-.41,2.65,0,.28-.1.56-.13.84,0-.06.05-.1.07-.16a41.55,41.55,0,0,0,5.17,24.5l-.06,0c.06.1.14.19.19.29a42,42,0,0,0,2.91,4.37c.23.31.49.61.73.91a40.52,40.52,0,0,0,3.11,3.45c.23.23.45.48.69.7a40.52,40.52,0,0,0,4.21,3.48c.31.22.62.41.93.62a39.82,39.82,0,0,0,4.29,2.56c.19.1.35.23.54.32v0c.26.12.49.28.75.4a41.32,41.32,0,0,0,31.84,1.51h0l.22-.09h0a41.24,41.24,0,0,0,22-19l0,0c.39-.72.76-1.46,1.12-2.21a40.66,40.66,0,0,0,1.67-4.08c.17-.49.29-1,.44-1.48.28-.89.56-1.78.77-2.68.13-.56.22-1.13.33-1.69.16-.84.32-1.68.43-2.52.08-.58.11-1.16.16-1.74.07-.83.14-1.66.16-2.49,0-.19,0-.38,0-.57Z"/><path class="cls-9" d="M307.32,363.54c75.95,44.23,154,83.94,231.48,120.09a354.62,354.62,0,0,1,10.77-68.09c-63.17-47.84-120.82-97.6-171.72-149.49C352.21,295.16,328.08,327.44,307.32,363.54Z"/></g></g></svg>