<svg xmlns="http://www.w3.org/2000/svg" xmlns:xlink="http://www.w3.org/1999/xlink" viewBox="0 0 112.67 129.19"><defs><style>.cls-1{isolation:isolate;}.cls-10,.cls-2,.cls-3,.cls-6{opacity:0.8;}.cls-2{fill:url(#linear-gradient);}.cls-3{fill:url(#linear-gradient-2);}.cls-4,.cls-5{mix-blend-mode:multiply;}.cls-4{fill:url(#linear-gradient-3);}.cls-5{opacity:0.7;fill:url(#linear-gradient-4);}.cls-6{fill:url(#linear-gradient-5);}.cls-7{font-size:13.49px;fill:#232323;font-family:Antonio-Bold, Antonio;font-weight:700;letter-spacing:-0.04em;}.cls-8{font-family:Antonio-Light, Antonio;font-weight:300;letter-spacing:-0.04em;}.cls-9{fill:#001443;}.cls-10{fill:url(#linear-gradient-6);}.cls-11{opacity:0.4;mix-blend-mode:screen;fill:url(#linear-gradient-7);}</style><linearGradient id="linear-gradient" x1="-3477.53" y1="9311.77" x2="-3185.02" y2="9311.77" gradientTransform="matrix(0.71, 0.32, 0.41, -0.91, -1369.35, 9651.11)" gradientUnits="userSpaceOnUse"><stop offset="0.16" stop-color="#82bc3f" stop-opacity="0.8"/><stop offset="0.19" stop-color="#78b83f" stop-opacity="0.81"/><stop offset="0.34" stop-color="#4da741" stop-opacity="0.84"/><stop offset="0.5" stop-color="#2b9943" stop-opacity="0.87"/><stop offset="0.66" stop-color="#139044" stop-opacity="0.89"/><stop offset="0.83" stop-color="#058a45" stop-opacity="0.9"/><stop offset="1" stop-color="#008845" stop-opacity="0.9"/></linearGradient><linearGradient id="linear-gradient-2" x1="35.84" y1="2046.7" x2="76.82" y2="2046.7" gradientTransform="translate(213.28 -1975.64) rotate(6.92)" xlink:href="#linear-gradient"/><linearGradient id="linear-gradient-3" x1="-1555.22" y1="12722.13" x2="-1498.24" y2="12722.13" gradientTransform="matrix(0.98, 0.22, 0.22, -0.98, -1269.41, 12793.22)" gradientUnits="userSpaceOnUse"><stop offset="0.16" stop-color="#1173be" stop-opacity="0.9"/><stop offset="1" stop-color="#17a8e2" stop-opacity="0.8"/></linearGradient><linearGradient id="linear-gradient-4" x1="-887.12" y1="9330.81" x2="-820.12" y2="9330.81" gradientTransform="matrix(0.91, 0.41, 0.41, -0.91, -2931.13, 8948.88)" xlink:href="#linear-gradient-3"/><linearGradient id="linear-gradient-5" x1="375.76" y1="4502.13" x2="511.4" y2="4502.13" gradientTransform="matrix(0.67, 0.74, 0.74, -0.67, -3566.38, 2806.31)" xlink:href="#linear-gradient"/><linearGradient id="linear-gradient-6" x1="-919.42" y1="9309.87" x2="-861.65" y2="9309.87" gradientTransform="matrix(0.91, 0.41, 0.41, -0.91, -2931.13, 8948.88)" xlink:href="#linear-gradient"/><linearGradient id="linear-gradient-7" x1="-924.28" y1="9338.1" x2="-829.8" y2="9338.1" gradientTransform="matrix(0.91, 0.41, 0.41, -0.91, -2931.13, 8948.88)" xlink:href="#linear-gradient-3"/></defs><g class="cls-1"><g id="Layer_1" data-name="Layer 1"><path class="cls-2" d="M90.92,104.85c7.7.72,14.94,1.31,21.75,1.81q-2.31-3.81-4.08-7.47-10.45-1.91-22-4.23A86.74,86.74,0,0,0,90.92,104.85Z"/><path class="cls-3" d="M7.22,39.08C4.33,52.93.91,66.7,0,80.81,14,83.29,27.12,85.32,39.34,87a75.91,75.91,0,0,1,4.18-26.31A362.54,362.54,0,0,1,7.22,39.08Z"/><path class="cls-4" d="M45.33,58.3A172.72,172.72,0,0,1,26.9,44.47a61.75,61.75,0,0,1,3.38-13.3A90.8,90.8,0,0,0,46.61,53.83C46.13,55.29,45.7,56.78,45.33,58.3Z"/><path class="cls-5" d="M87.29,82.2c4.26,1.36,8.46,2.66,12.56,3.91A58.44,58.44,0,0,1,100,74.7q-5.68-2.4-11.47-5A60.8,60.8,0,0,0,87.29,82.2Z"/><path class="cls-6" d="M33.85,104.25c10.52-.52,19.88-1.2,28.35-1.93a84.11,84.11,0,0,1,.74-22q-12.18-7.74-25.87-17C33.43,74.33,31.84,87.85,33.85,104.25Z"/><text class="cls-7" transform="matrix(0.89, 0, -0.45, 0.89, 37.61, 124.89)">FÚTBOL <tspan class="cls-8" x="33.38" y="0">PRO</tspan></text><path class="cls-9" d="M100.86,98.1c-.42-1.22-2.11-2.13-3.66-2.3-.4,0-.79.09-1.21.06a11.05,11.05,0,0,1-1.75-.55,11.12,11.12,0,0,1-1.75-.6,8.26,8.26,0,0,1-.82-.61c-.25-.17-.74-.35-.87-.54A4.64,4.64,0,0,1,90.52,92a20.88,20.88,0,0,1,.11-3c.21-2.83.83-5.36,1-8.15a35.62,35.62,0,0,0,.17-5.85c-.09-.94-.27-1.82-.33-2.73-.11-1.53.29-3.48-.17-4.76-.12-.36-.6-.64-.71-.93s0-.56,0-.82a3.66,3.66,0,0,0-.39-.93c-.5-.9-1.46-1.61-1.8-2.57-.13-.36-.14-.8-.27-1.21-.25-.76-.47-1.48-.77-2.19a5,5,0,0,1-.44-1c0-.32.16-.62.17-.88a3.74,3.74,0,0,0-1-2.46c-.23-.24-.55-.38-.77-.6s-.6-.8-.93-1.21-.65-.78-1-1.14A13,13,0,0,0,80.51,49a5.1,5.1,0,0,0,.66-2.46c.17-.12.29.19.6.11a11.16,11.16,0,0,0,1-3.39,42.28,42.28,0,0,1,.33-4.48c.22-1.35.56-2.64.87-4a33.06,33.06,0,0,0,1.1-6.12c0-.76.11-1.52.16-2.3a15.15,15.15,0,0,0-.66-5.2c.41.18,1.2.2,1.21-.32-.39-.4-1.4-.17-1.48-.88.4,0,.94-.11,1.59,0,.48,0,1.54.25,1.31-.44-.08-.25-.72-.27-1.09-.33a6.09,6.09,0,0,1-1.21-.27c.4-.35,1.08-.27,1.75-.33.19,0,.38-.11.55-.11.32,0,.64.14.93.05s.41-.21.49-.6a3.37,3.37,0,0,0-1.58-.27c0-.2.27-.21.22-.49.76,0,1.45-.26,1.42-.88-1.64-.15-2.67.47-3.94.6-.18,0-.36,0-.55,0s-.53.24-.76.17-.51-.91-.66-1.15-.34-.44-.55-.71-.54-.54-.54-.71.32-.43.43-.66c.21-.41.35-1,.5-1.2s.57-.6.76-.93a5.51,5.51,0,0,0,.22-.6c0-.1.06-.42.27-.33-.15-.53.15-.74.28-1.15l.09-.35a1,1,0,0,0,.08.14.8.8,0,0,1,0-.34.64.64,0,0,1,0-.07,2,2,0,0,0,.51.19,2.41,2.41,0,0,1-.46-.37h0a.85.85,0,0,0,.32.15.78.78,0,0,1-.27-.27l.12-.36a.93.93,0,0,0,.41.4A1.51,1.51,0,0,1,84.64,8V8a.14.14,0,0,1,0,.06s0,.07,0,.08a1.12,1.12,0,0,0,.45.51,1.53,1.53,0,0,1-.3-.63l-.06-.26a.12.12,0,0,1,.08,0h0A1.67,1.67,0,0,0,85,8a.31.31,0,0,0,.06.16,4.63,4.63,0,0,0,.29.65c-.06-.31-.08-.61-.14-.93A2,2,0,0,0,85,7.39h0l0,0a2.29,2.29,0,0,0,.58,1,3,3,0,0,1-.29-.88l.06,0a.9.9,0,0,0,.3.34,1.93,1.93,0,0,0,.94.22,2.7,2.7,0,0,1-.79-.42.67.67,0,0,1-.19-.32,1.57,1.57,0,0,1,0-.24l.07.1a1.25,1.25,0,0,0,.58.48,1.08,1.08,0,0,0,.71,0,1.08,1.08,0,0,1-.62-.18A1.14,1.14,0,0,1,86,7.08.5.5,0,0,0,86,7c-.07-.16-.12-.33-.19-.5h0l.15.18a.94.94,0,0,1,0,.16l.13.09.23.34a.91.91,0,0,0,.56.4.85.85,0,0,1-.38-.51c-.05-.11-.09-.23-.14-.36a1.21,1.21,0,0,0,.26.2.79.79,0,0,0,.73,0,.72.72,0,0,1-.6-.19,1.41,1.41,0,0,1-.32-.54c0-.11,0-.18-.1-.32s-.07-.21-.11-.33a2.07,2.07,0,0,0-.33-.69,2.23,2.23,0,0,0-.26-.27,2.66,2.66,0,0,1,1.19.11,1.61,1.61,0,0,0-1.06-.35c-.09-.07-.22-.12-.28-.21l.24.06a1.23,1.23,0,0,0,.76-.07,1.18,1.18,0,0,1-.46,0v0a3.06,3.06,0,0,1-1-.49c-.46-.35.43-.1.52-.11s0-.06,0-.07l.13,0a1.53,1.53,0,0,0,.46-.23,1,1,0,0,1-.89-.06,2.22,2.22,0,0,0-.9-.51H84.2a.69.69,0,0,0-.11-.13.14.14,0,0,1,.1,0h.12a.94.94,0,0,1,.3.16s0-.08,0-.14a2.48,2.48,0,0,0,.77,0,3.73,3.73,0,0,1-.63-.18h0a.88.88,0,0,0,.63-.24.88.88,0,0,1-.57.07c-.07,0,0-.1,0-.17a3.88,3.88,0,0,1-.39-.08,1.23,1.23,0,0,0,.74-.35A1.58,1.58,0,0,1,84,1.57l-.43-.13a.66.66,0,0,0-.33-.24,2.09,2.09,0,0,1-.43-.11c-.08,0,0-.12-.09-.15A3,3,0,0,1,81.9.61a1,1,0,0,0-.68-.28.47.47,0,0,1-.33,0c-.1,0-.11.07-.19.08a1.46,1.46,0,0,1-.37-.2h0A.61.61,0,0,1,80.19,0a1.09,1.09,0,0,0,0,.17c-.07,0-.13.09-.21.12a.71.71,0,0,0-.29,0,.36.36,0,0,1-.14,0,.52.52,0,0,1-.17-.16.61.61,0,0,0,0,.12.28.28,0,0,1-.17.15c-.12,0-.23.07-.29.17a1.29,1.29,0,0,0-.48,0,2,2,0,0,0-1.15.67l-.1.1c-.14,0-.12.09-.26.18s-.1.06-.1.08-.29-.11-.38-.28a.68.68,0,0,0,.11.3.33.33,0,0,0,.14.12A4.61,4.61,0,0,0,75.65,3.7a2.77,2.77,0,0,0-.12.41.57.57,0,0,1,0,.14,2.5,2.5,0,0,1-.16.51,2.93,2.93,0,0,0-.27.77,1.91,1.91,0,0,1-.24.82l0,0a1.39,1.39,0,0,0-.52.8,1.59,1.59,0,0,0-.17.61h0a4.32,4.32,0,0,0,0,.5c0,.27.2.56.17.82a2.53,2.53,0,0,1-.88,1.09c-.15.1-.34.11-.49.22-.37.27-.67.67-1,1a10.34,10.34,0,0,0-1.09,1c-1.35,1.42-2.92,2.65-3.89,4.32a7.61,7.61,0,0,0-.82,2.3c-.06.27-.07.59-.16.87-.26.79-.79.95-1.31,1.42s-.82.92-1.26,1.37A13.54,13.54,0,0,0,62.08,24c-.79,1-1.28,2.32-2.08,3.23-.25.28-1,.73-1,1s.12.46.11.6c-.69.58-1,1.33-1.64,1.86A18.33,18.33,0,0,0,55.57,32c-.15.16-.32.43-.49.66a5.37,5.37,0,0,0-.82,1.7,5.13,5.13,0,0,0-.38,1.86,55.27,55.27,0,0,0,.49,7.16c.09.75.21,1.53.27,2.3a15.94,15.94,0,0,1,.22,2.35,9.56,9.56,0,0,1-.6,1.75,8.88,8.88,0,0,0-.44,1.91,16.47,16.47,0,0,1,0,1.86c-.08.4-.27.37-.38.77a8.24,8.24,0,0,1-.11.82c-.12.41-.95,2.23-.16,2.3.59,0,.53-1.22.87-1.59.47.28.25.58.06.88s-.51.59-.66.87c-.27.48-.39,1-.66,1.42a11.88,11.88,0,0,1-1,1.15c-.77.87-1.35,1.45-2.08,2.41-.26.35-.73,1.18-1,1.26A3.22,3.22,0,0,1,48,63.8a6.57,6.57,0,0,1-.77,0,8.64,8.64,0,0,1-1.15-.49A6.29,6.29,0,0,0,44.69,63a6.05,6.05,0,0,0-3.56.88c-.29.16-.47.46-.76.65s-.57.26-.82.39a37.52,37.52,0,0,1-6.08,2.62,2.84,2.84,0,0,0-3.61-.43,7.48,7.48,0,0,0-1.42,1.31,37,37,0,0,1-2.73,2.73,10.47,10.47,0,0,1-1.59,1.21c-.3.15-.73.21-.93.32a5.35,5.35,0,0,0-1.37,1.7,8,8,0,0,0-1.2,1.86,8.2,8.2,0,0,0,.05,1c0,.39-.08.75-.05,1A3.39,3.39,0,0,0,23,81a4.93,4.93,0,0,0,2.79-.44,7.78,7.78,0,0,0,1.92-1.25,13.54,13.54,0,0,0,2.57-3,2,2,0,0,1,.71-.82c.12-.09.26-.25.38-.33s.45-.13.66-.27c.58-.39.87-1.1,1.2-1.31a6.12,6.12,0,0,1,1.48-.44,36.59,36.59,0,0,1,4.81-1c1.75-.21,3.73-.18,5.31-.49a13.7,13.7,0,0,1,1.58-.38,9.88,9.88,0,0,1,1.7.21c2.08.16,3.8-.59,4.43-1.91a1.88,1.88,0,0,1,.71-.82c.18-.14.38-.29.55-.44,1-.94,2.09-1.87,3.06-2.84s1.87-2,2.84-3.06c.28-.3.83-1,1-1s.63.46.82.6.63.52.93.49c.55-.05.72-.89,1-1.37a12.12,12.12,0,0,1,1.26-1.53c1.23-1.51,2.53-3.34,3.67-4.7a6.13,6.13,0,0,0,1.53,1.86,35.18,35.18,0,0,1,2.73,4.1,17.78,17.78,0,0,1,1.48,2c.12.24.13.54.27.76.81,1.26,3,1.34,4.71,1a4.77,4.77,0,0,1,1.25-.27c.32,0,.7.52,1,.87.65.79,1.17,1.21,1.8,1.92a3.58,3.58,0,0,1,.77,1.14c0,.12-.11.35-.11.5,0,.36.14.81.16,1.25a10.27,10.27,0,0,1-.49,4c-.12.4-.2.84-.33,1.25s-.35.78-.43,1.15c-.55,2.4,0,4.74.43,6.79a42.21,42.21,0,0,1,1,11.54c-.93,0-.55.71-.65,1.58a2.67,2.67,0,0,1-.17.66c-.11.28-.42.46-.54.82a8.42,8.42,0,0,0-.22,1.53c0,.26-.09.51-.11.77s0,.62,0,.82-.35.47-.28.65.39.21.44.22c.56.14,1,.12,1.21.39s.19.58.32.71a3.89,3.89,0,0,0,2.3.32c.48-.13.45-.63,1-.54s.3.38.72.43a.85.85,0,0,0,.82-.27c.16-.14.19-.21.38-.27a5.54,5.54,0,0,1,1.15-.11,4.16,4.16,0,0,1,1.2-.06,1,1,0,0,1,.33.22,1.59,1.59,0,0,0,1.31.28c.25-.07.35-.38.66-.44a1.78,1.78,0,0,1,.76,0c.15.07.14.23.22.33a2.3,2.3,0,0,0,1.7.27c.31-.07.48-.46.77-.49s.45.3.81.22.33-.53.66-.65.49.06.66,0,.24-.42.49-.66.34-.14.44-.22c.55-.43.11-.67.16-1.15,0-.16.18-.26.22-.38A3.14,3.14,0,0,0,100.86,98.1ZM85.32,4.43v.11a.42.42,0,0,1,0-.1Zm-18.75,28a19.64,19.64,0,0,1-1.64,4.38c-.39.71-.71,1.43-1,2-.18.27-.68.66-.66.93s.24.2.27.38a9.29,9.29,0,0,0-1.2,2.62,9.35,9.35,0,0,0-.38.88c-.09.31-.07.68-.17,1s-.34.5-.44.77-.05.6-.16.87c-.37,1-1.57,1.54-2.35,2.14a41.84,41.84,0,0,1-.44-10.61A9.85,9.85,0,0,1,58.53,36a3,3,0,0,1,.87-1,21.56,21.56,0,0,1,2.79-1.75c.18-.11.42-.37.49-.38s.46.24.66.22.66-.54.93-.88c.58-.73,1.12-1.29,1.69-1.91.38-.42.66-.74.93-1.09a4.55,4.55,0,0,1,.39,1A11.72,11.72,0,0,1,66.57,32.46Z"/><path class="cls-10" d="M48,96.71a77.19,77.19,0,0,1,6-28.91c7.42,3.51,14.82,6.79,22.14,9.86a73.36,73.36,0,0,0,4.25,22.12C70.3,99,59.52,98,48,96.71Z"/><path class="cls-9" d="M65.77,95.87A7,7,0,0,0,64,91.1h0l0,0h0a7,7,0,0,0-2.15-1.59,7,7,0,0,0-2.45-.64h0s-.05,0-.07,0a7.79,7.79,0,0,0-1.08,0H58a7.62,7.62,0,0,0-1.06.2l-.13,0a7.52,7.52,0,0,0-1,.39l-.06,0a7.63,7.63,0,0,0-.95.56l-.05,0h0a7.07,7.07,0,0,0-2.25,2.69,7.77,7.77,0,0,0-.31.8v0c0,.07,0,.14-.05.2s-.09.32-.13.48l-.06.29c0,.15-.05.29-.06.44l0,.14v0a7,7,0,0,0,.87,4.11h0l0,0a7.2,7.2,0,0,0,.48.74l.13.15a5.67,5.67,0,0,0,.52.58l.11.12a7.81,7.81,0,0,0,.71.58l.16.11c.23.15.47.3.72.43l.09.05h0l.13.07a7,7,0,0,0,5.35.25h0a6.92,6.92,0,0,0,3.7-3.18h0l.18-.37c.11-.22.2-.45.29-.68a2.33,2.33,0,0,1,.07-.25c.05-.15.09-.3.13-.45a2.93,2.93,0,0,0,0-.29c0-.14.06-.28.08-.42a2.83,2.83,0,0,0,0-.29,3,3,0,0,0,0-.42s0-.06,0-.1Z"/><path class="cls-11" d="M51.63,61.08c12.76,7.43,25.87,14.1,38.89,20.17a59.06,59.06,0,0,1,1.81-11.44A261.63,261.63,0,0,1,63.48,44.7,100.7,100.7,0,0,0,51.63,61.08Z"/></g></g></svg>