<svg xmlns="http://www.w3.org/2000/svg" xmlns:xlink="http://www.w3.org/1999/xlink" viewBox="0 0 670.65 634.87"><defs><style>.cls-1{isolation:isolate;}.cls-2,.cls-3,.cls-6,.cls-8{opacity:0.8;}.cls-2{fill:url(#linear-gradient);}.cls-3{fill:url(#linear-gradient-2);}.cls-4,.cls-5{mix-blend-mode:multiply;}.cls-4{fill:url(#linear-gradient-3);}.cls-5{opacity:0.7;fill:url(#linear-gradient-4);}.cls-6{fill:url(#linear-gradient-5);}.cls-7{fill:#001443;}.cls-8{fill:url(#linear-gradient-6);}.cls-9{opacity:0.4;mix-blend-mode:screen;fill:url(#linear-gradient-7);}</style><linearGradient id="linear-gradient" x1="1550.83" y1="16.89" x2="3291.95" y2="16.89" gradientTransform="matrix(0.71, 0.32, 0.41, -0.91, -836.44, 35.75)" gradientUnits="userSpaceOnUse"><stop offset="0.16" stop-color="#82bc3f" stop-opacity="0.8"/><stop offset="0.19" stop-color="#78b83f" stop-opacity="0.81"/><stop offset="0.34" stop-color="#4da741" stop-opacity="0.84"/><stop offset="0.5" stop-color="#2b9943" stop-opacity="0.87"/><stop offset="0.66" stop-color="#139044" stop-opacity="0.89"/><stop offset="0.83" stop-color="#058a45" stop-opacity="0.9"/><stop offset="1" stop-color="#008845" stop-opacity="0.9"/></linearGradient><linearGradient id="linear-gradient-2" x1="1178.68" y1="1643.89" x2="1422.6" y2="1643.89" gradientTransform="translate(-581.14 -1191.23) rotate(6.92)" xlink:href="#linear-gradient"/><linearGradient id="linear-gradient-3" x1="235.35" y1="1734.13" x2="574.48" y2="1734.13" gradientTransform="matrix(0.98, 0.22, 0.22, -0.98, -73.92, 2113.78)" gradientUnits="userSpaceOnUse"><stop offset="0.16" stop-color="#1173be" stop-opacity="0.9"/><stop offset="1" stop-color="#17a8e2" stop-opacity="0.8"/></linearGradient><linearGradient id="linear-gradient-4" x1="2017.63" y1="129.73" x2="2416.41" y2="129.73" gradientTransform="matrix(0.91, 0.41, 0.41, -0.91, -1003.5, -39.53)" xlink:href="#linear-gradient-3"/><linearGradient id="linear-gradient-5" x1="3463.59" y1="-695.93" x2="4270.96" y2="-695.93" gradientTransform="matrix(0.67, 0.74, 0.74, -0.67, -1252.89, -2394.84)" xlink:href="#linear-gradient"/><linearGradient id="linear-gradient-6" x1="1825.34" y1="5.13" x2="2169.21" y2="5.13" gradientTransform="matrix(0.91, 0.41, 0.41, -0.91, -1003.5, -39.53)" xlink:href="#linear-gradient"/><linearGradient id="linear-gradient-7" x1="1796.43" y1="173.15" x2="2358.8" y2="173.15" gradientTransform="matrix(0.91, 0.41, 0.41, -0.91, -1003.5, -39.53)" xlink:href="#linear-gradient-3"/></defs><g class="cls-1"><g id="Capa_1" data-name="Capa 1"><path class="cls-2" d="M918.58,846.86q68.74,6.4,129.5,10.77-13.75-22.7-24.32-44.44Q961.53,801.81,893.11,788A529.37,529.37,0,0,0,918.58,846.86Z" transform="translate(-377.43 -222.76)"/><path class="cls-3" d="M420.42,455.34c-17.19,82.47-37.61,164.46-43,248.39,83.11,14.78,161.43,26.87,234.14,36.67a452.28,452.28,0,0,1,24.9-156.58C563.51,545.76,490.29,503,420.42,455.34Z" transform="translate(-377.43 -222.76)"/><path class="cls-4" d="M647.23,569.77a1020.41,1020.41,0,0,1-109.67-82.34,370,370,0,0,1,20.08-79.17c21.92,43.62,52.51,88.91,97.23,134.92Q650.6,556.22,647.23,569.77Z" transform="translate(-377.43 -222.76)"/><path class="cls-5" d="M897,712q38.06,12.18,74.79,23.27a343.67,343.67,0,0,1,.62-67.91q-33.82-14.28-68.29-29.58A361.16,361.16,0,0,0,897,712Z" transform="translate(-377.43 -222.76)"/><path class="cls-6" d="M578.9,843.26c62.65-3.07,118.31-7.11,168.78-11.44C743.32,783,745.36,739.54,752,701c-48.3-30.72-99.71-64.33-153.94-101.3C576.38,665.2,566.92,745.64,578.9,843.26Z" transform="translate(-377.43 -222.76)"/><path class="cls-7" d="M977.77,806.66C975.28,799.43,965.18,794,956,793c-2.38-.26-4.69.53-7.16.33-2.84-.24-6.78-2.11-10.43-3.26s-7.79-2.14-10.42-3.58a56.84,56.84,0,0,1-4.87-3.58c-1.47-1-4.41-2.09-5.22-3.25-1-1.48-1.37-5.81-1.62-9.11-.44-5.76.23-11.91.65-17.59,1.22-16.87,4.91-31.91,6.19-48.51.87-11.45,2-23.19,1-34.84-.49-5.58-1.56-10.85-1.95-16.27-.67-9.07,1.73-20.69-1-28.32-.75-2.1-3.59-3.79-4.23-5.54-.53-1.46,0-3.33-.33-4.88a24.1,24.1,0,0,0-2.28-5.54c-3-5.35-8.68-9.54-10.74-15.31-.76-2.12-.85-4.74-1.62-7.16-1.46-4.53-2.79-8.83-4.56-13-.89-2.07-2.45-4.58-2.6-6.18-.2-1.87.94-3.67,1-5.21.13-5.74-3.17-11.51-6.19-14.65-1.38-1.43-3.24-2.27-4.56-3.58-2-2-3.55-4.76-5.53-7.17-1.85-2.24-3.91-4.64-5.87-6.83-4.91-5.55-10.89-11.78-16.92-15.31A30.79,30.79,0,0,0,860.57,500c1-.71,1.74,1.14,3.58.66,2.4-6.82,5.75-12.37,6.18-20.19.51-9.33.56-18.1,2-26.7,1.29-8,3.34-15.72,5.2-23.77,2.77-11.88,5.91-23.71,6.52-36.46.21-4.52.64-9,1-13.67.81-11.21-1.35-21.77-3.91-30.93,2.41,1,7.09,1.19,7.17-2-2.3-2.36-8.35-1-8.79-5.2,2.35.12,5.56-.64,9.44-.33,2.87.23,9.15,1.53,7.81-2.6-.48-1.5-4.31-1.59-6.51-2a33,33,0,0,1-7.16-1.63c2.34-2.08,6.4-1.58,10.42-2,1.13-.1,2.24-.64,3.25-.65,1.92,0,3.83.86,5.54.33s2.43-1.3,2.93-3.59c-2.42-1.28-5.67-1.7-9.44-1.62.2-1.21,1.6-1.22,1.3-2.93,4.52,0,8.68-1.51,8.47-5.21-9.73-.89-15.87,2.78-23.45,3.58-1.1.12-2.16-.16-3.25,0s-3.16,1.43-4.56,1c-2.08-.69-3-5.41-3.91-6.84-.7-1.1-2-2.6-3.25-4.23-1-1.28-3.25-3.2-3.26-4.23s1.94-2.56,2.6-3.91c1.21-2.43,2.06-5.72,2.94-7.16,1.23-2,3.44-3.55,4.55-5.54a32.07,32.07,0,0,0,1.31-3.58c.24-.59.36-2.48,1.63-1.95-.91-3.14.84-4.39,1.62-6.84.22-.7.39-1.39.55-2.07a3.72,3.72,0,0,0,.49.81,4.58,4.58,0,0,1-.19-2l.09-.4a10.48,10.48,0,0,0,3.07,1.1,13.12,13.12,0,0,1-2.76-2.14s0-.07,0-.09a4.2,4.2,0,0,0,1.9.91,5,5,0,0,1-1.66-1.65c.26-.72.51-1.42.74-2.12a5.72,5.72,0,0,0,2.43,2.39,8.59,8.59,0,0,1-1.92-4,.29.29,0,0,1,0-.1l.15.35c0,.22,0,.41.24.47a6.34,6.34,0,0,0,2.65,3,8.32,8.32,0,0,1-1.76-3.75c-.13-.5-.24-1-.36-1.53a.74.74,0,0,1,.43.21l0,.05c.17.38.32.78.49,1.18a1.83,1.83,0,0,0,.35.91,27.29,27.29,0,0,0,1.74,3.88c-.33-1.83-.45-3.64-.8-5.5a12.3,12.3,0,0,0-.93-3.05.09.09,0,0,0,0-.05l.12.08c.79,2.15,1.56,4.6,3.43,6.19a19.57,19.57,0,0,1-1.72-5.21,1.59,1.59,0,0,1,.35.14,5.41,5.41,0,0,0,1.83,2c1.81,1.15,3.76,1.19,5.6,1.33-1.7-.74-3.54-1.36-4.7-2.5a4.19,4.19,0,0,1-1.16-1.91,7.44,7.44,0,0,1-.16-1.44l.39.6a7.56,7.56,0,0,0,3.46,2.87,6.46,6.46,0,0,0,4.26-.07,6.54,6.54,0,0,1-3.7-1,6.75,6.75,0,0,1-2.14-2.85q-.15-.37-.33-.75c-.39-.95-.73-1.95-1.11-3l.06,0,.85,1a4.56,4.56,0,0,1,.24.95c.27.17.55.36.81.56.43.67.87,1.35,1.36,2,.84,1.07,1.91,2.28,3.33,2.43a5.34,5.34,0,0,1-2.26-3c-.29-.69-.53-1.4-.8-2.13a6.7,6.7,0,0,0,1.54,1.16,4.59,4.59,0,0,0,4.3.11,4.2,4.2,0,0,1-3.57-1.14,8.24,8.24,0,0,1-1.89-3.18c-.24-.64-.29-1.09-.61-1.93-.21-.63-.4-1.26-.61-1.92a12.48,12.48,0,0,0-2-4.14,9.91,9.91,0,0,0-1.58-1.59c2.43-.11,4.78-.33,7.11.65-1.67-1.57-4.09-2-6.33-2.09-.55-.42-1.3-.71-1.65-1.27.46.13.92.25,1.4.35a7,7,0,0,0,4.57-.39,7.72,7.72,0,0,1-2.77-.25l.08-.13a17.86,17.86,0,0,1-5.93-2.88c-2.7-2.11,2.58-.64,3.11-.69a.71.71,0,0,0-.22-.42,4.57,4.57,0,0,0,.74-.12,7.84,7.84,0,0,0,2.74-1.32c-1.91.6-3.86.64-5.27-.38s-2.92-2.68-5.37-3l-.75-.06a4.18,4.18,0,0,0-.67-.76,1,1,0,0,1,.61-.33l.72.06a6.88,6.88,0,0,1,1.76,1c.05-.17-.15-.48-.28-.78a16.4,16.4,0,0,0,4.59,0,24.43,24.43,0,0,1-3.78-1.05h0a5.2,5.2,0,0,0,3.77-1.46,5.4,5.4,0,0,1-3.45.41c-.36-.21-.19-.57.09-1a17.73,17.73,0,0,1-2.35-.44,7.39,7.39,0,0,0,4.46-2.11,9.25,9.25,0,0,1-6.66.31c-.85-.22-1.7-.49-2.54-.79a4,4,0,0,0-2-1.39,15.66,15.66,0,0,1-2.52-.69c-.52-.14-.11-.73-.57-.9-1.74-.59-3.43-.87-4.93-1.94-1.09-.78-2.64-1.9-4-1.68a3,3,0,0,1-2-.23c-.58-.27-.66.4-1.1.46a7.48,7.48,0,0,1-2.23-1.15,1,1,0,0,1-.08-.11h-.05a3.29,3.29,0,0,1-.7-.92,3.61,3.61,0,0,0,.33,1,10.28,10.28,0,0,0-1.26.76,3.35,3.35,0,0,0-1.72.12,2.6,2.6,0,0,1-.86.09,3.22,3.22,0,0,1-1-1,3.93,3.93,0,0,0,.31.7,1.7,1.7,0,0,1-1,.89,3.4,3.4,0,0,0-1.74,1,8.58,8.58,0,0,0-2.86,0,12.13,12.13,0,0,0-6.83,4l-.62.62c-.83.16-.72.54-1.53,1-.45.26-.61.37-.62.5-.83.25-1.73-.64-2.22-1.68a3.92,3.92,0,0,0,.64,1.81,1.78,1.78,0,0,0,.84.7,27.33,27.33,0,0,0-6.83,11.4,19.8,19.8,0,0,0-.75,2.49c-.08.27-.14.55-.2.84a15.77,15.77,0,0,1-1,3,18,18,0,0,0-1.62,4.6c-.29,1.59-.42,3.58-1.42,4.9-.06.06-.1.14-.16.2a8.84,8.84,0,0,0-3.12,4.78,9.83,9.83,0,0,0-1,3.61l.21,0a21.53,21.53,0,0,0-.14,2.95c0,1.65,1.14,3.36,1,4.88-.22,2-3.75,5.52-5.2,6.51-.92.62-2,.65-2.94,1.3-2.19,1.59-4,4-6.18,5.87a71.64,71.64,0,0,0-6.51,5.85c-8,8.46-17.38,15.78-23.12,25.72a45.52,45.52,0,0,0-4.88,13.67c-.36,1.64-.43,3.52-1,5.22-1.51,4.7-4.68,5.66-7.81,8.47-2.55,2.26-4.84,5.48-7.49,8.13a83.21,83.21,0,0,0-7.49,8.14c-4.72,6.17-7.61,13.82-12.36,19.21-1.51,1.71-5.86,4.37-6.2,5.86s.69,2.73.65,3.58c-4.14,3.46-5.81,7.92-9.76,11.07-3.51,2.8-7.87,4.54-11.07,7.81-.92.95-1.89,2.53-2.93,3.91-2.41,3.2-3.44,6-4.88,10.09a31.08,31.08,0,0,0-2.28,11.07A330.45,330.45,0,0,0,701,481.09c.57,4.48,1.24,9.09,1.63,13.68.4,4.85,1.66,10,1.3,14-.3,3.32-2.45,6.84-3.58,10.41a51.46,51.46,0,0,0-2.61,11.4c-.28,3.74.69,7.77,0,11.07-.49,2.33-1.6,2.17-2.27,4.55a38.76,38.76,0,0,1-.66,4.89c-.68,2.46-5.66,13.27-1,13.67,3.51.3,3.18-7.26,5.21-9.44,2.77,1.66,1.46,3.45.32,5.21s-3,3.55-3.9,5.21c-1.59,2.85-2.33,6.15-3.91,8.47s-4.11,4.52-6.19,6.83c-4.63,5.16-8.07,8.62-12.37,14.33-1.57,2.09-4.39,7-5.86,7.49-1,.31-2.7-.26-4.24-.33s-3.31.23-4.55,0c-2.57-.48-4.68-2.19-6.84-2.93a35.52,35.52,0,0,0-8.14-2c-8.85-.81-16.2,2.39-21.16,5.22-1.72,1-2.81,2.77-4.56,3.9-1.33.86-3.38,1.52-4.88,2.28-11.84,6-23,11.61-36.14,15.63-5.39-6.54-14.84-6.36-21.49-2.6-2.93,1.65-5.82,5-8.46,7.8-5.52,5.74-10.31,11.24-16.28,16.29-3.09,2.6-6.57,5.67-9.44,7.16-1.82.94-4.33,1.27-5.54,1.95-3.25,1.84-5.56,6.25-8.14,10.09-1.9,2.84-6.47,7.83-7.16,11.07-.34,1.58.33,3.87.32,6.19s-.53,4.46-.32,6.18c1,8.22,7.39,14.13,14,16.28,4.5,1.47,12.72-.93,16.61-2.61A46.16,46.16,0,0,0,542.16,695a79.44,79.44,0,0,0,15.31-17.58c1.71-2.84,1.68-3,4.22-4.89.75-.56,1.58-1.51,2.29-1.95,1.18-.74,2.69-.8,3.9-1.63,3.44-2.33,5.19-6.52,7.17-7.81s5.43-1.72,8.78-2.61c9.28-2.44,18.62-5,28.65-6.18,10.42-1.28,22.23-1.07,31.59-2.93,3.47-.69,6.57-2.06,9.43-2.28,3.78-.3,6.79,1.06,10.09,1.3,12.4.94,22.62-3.52,26.38-11.4,1.21-2.54,2-3.06,4.23-4.87,1-.86,2.28-1.73,3.26-2.61,6.25-5.64,12.44-11.14,18.23-16.93s11.11-11.9,16.93-18.23c1.64-1.78,4.94-6.14,5.86-6.18s3.76,2.78,4.88,3.58c1.87,1.31,3.77,3.08,5.54,2.92,3.3-.27,4.31-5.29,5.85-8.14,1.75-3.2,4.89-5.92,7.49-9.11,7.34-9,15-19.89,21.82-28,1.82,4.74,5.9,7.62,9.11,11.07,6.74,7.21,10.7,16.46,16.28,24.42,2.8,4,6.7,7.54,8.8,11.72.7,1.41.76,3.23,1.62,4.55,4.82,7.48,18.12,8,28,5.87,2.27-.49,5.55-1.9,7.48-1.63s4.15,3.11,5.87,5.21c3.84,4.72,6.95,7.2,10.74,11.4,1.61,1.77,4.27,5.13,4.56,6.83.11.69-.66,2.07-.65,2.93,0,2.15.85,4.82,1,7.49a61.66,61.66,0,0,1-2.94,23.76c-.73,2.42-1.2,5-1.95,7.49s-2.08,4.59-2.6,6.84c-3.28,14.28.31,28.17,2.6,40.37,3.92,20.84,8.29,44.66,6.19,68.69-5.57-.11-3.27,4.23-3.91,9.45a15.91,15.91,0,0,1-1,3.9c-.71,1.68-2.52,2.74-3.26,4.88-.93,2.67-.86,6.2-1.3,9.13-.24,1.55-.51,3-.65,4.55s.21,3.7,0,4.88-2.07,2.82-1.64,3.91c.25.61,2.3,1.22,2.61,1.31,3.31.81,5.67.69,7.17,2.27,1.17,1.25,1.17,3.46,1.95,4.24,1.55,1.57,10.22,2.92,13.67,1.94,2.83-.79,2.67-3.74,5.86-3.25,2.43.38,1.73,2.29,4.24,2.6a5.14,5.14,0,0,0,4.87-1.62c1-.86,1.17-1.26,2.29-1.63,1.7-.56,4.49-.47,6.84-.66,2.52-.19,5.11-.88,7.16-.32a5.4,5.4,0,0,1,1.95,1.3,9.47,9.47,0,0,0,7.81,1.64c1.47-.4,2.07-2.22,3.91-2.62a11.07,11.07,0,0,1,4.56.33c.87.41.78,1.37,1.3,2,1.37,1.54,7,2.41,10.09,1.62,1.87-.46,2.84-2.77,4.56-2.93,2.29-.2,2.73,1.79,4.88,1.31,1.73-.39,1.92-3.17,3.91-3.91,1.19-.44,2.92.41,3.91,0,1.73-.73,1.47-2.45,2.93-3.91.74-.73,2-.83,2.6-1.3,3.3-2.56.69-4,1-6.84.1-1,1-1.58,1.3-2.27C978.74,813.85,978.53,808.88,977.77,806.66ZM885.26,249.13v.64a3.1,3.1,0,0,1-.21-.58A.61.61,0,0,1,885.26,249.13ZM773.64,416c-2.63,10-5.47,18-9.76,26-2.28,4.26-4.19,8.56-6.2,11.72-1,1.62-4,4-3.91,5.53.13,1.4,1.47,1.2,1.64,2.29-3.51,4-4.89,10-7.16,15.62a56.07,56.07,0,0,0-2.28,5.21c-.54,1.85-.37,4-1,5.86-.55,1.66-2,3-2.6,4.56s-.34,3.56-1,5.21c-2.2,5.72-9.37,9.15-14,12.7a250.85,250.85,0,0,1-2.61-63.16c.38-3.89.12-8.21,1-10.74.7-2.09,3.37-4.59,5.21-6.19,5.18-4.5,10.14-6.32,16.6-10.42,1.09-.69,2.48-2.23,2.93-2.28,1.2-.14,2.74,1.41,3.91,1.3,1.83-.18,3.92-3.17,5.54-5.2,3.46-4.37,6.67-7.67,10.09-11.4,2.26-2.48,3.88-4.4,5.53-6.51.45,1,2.2,4.42,2.29,5.86C778.09,405.49,774.84,411.42,773.64,416Z" transform="translate(-377.43 -222.76)"/><path class="cls-8" d="M662.85,798.4a459.84,459.84,0,0,1,35.6-172.09c44.17,20.88,88.22,40.4,131.78,58.69,1.2,40.54,8.76,84.45,25.28,131.68C795.85,812,731.71,806.08,662.85,798.4Z" transform="translate(-377.43 -222.76)"/><path class="cls-7" d="M768.9,793.39A41.52,41.52,0,0,0,758.16,765v0c-.06-.05-.11-.12-.17-.18v0a41,41,0,0,0-27.34-13.26l0,0h-.39a41.64,41.64,0,0,0-6.42.08l-1,.1a41.5,41.5,0,0,0-6.27,1.18c-.27.07-.53.17-.8.24a41.08,41.08,0,0,0-6.15,2.32l-.32.16a41.29,41.29,0,0,0-5.65,3.34c-.11.07-.23.12-.34.2h0a40.69,40.69,0,0,0-15.24,20.73s0-.1,0-.16c-.13.4-.2.81-.33,1.21-.28.93-.55,1.87-.76,2.81-.14.58-.23,1.16-.34,1.74-.16.88-.3,1.76-.4,2.65,0,.28-.1.56-.13.83l.06-.15a41.55,41.55,0,0,0,5.18,24.5l-.06,0c0,.1.13.18.19.29a41.88,41.88,0,0,0,2.9,4.37c.24.31.49.61.73.91a44,44,0,0,0,3.11,3.45c.24.23.45.48.69.7a43.1,43.1,0,0,0,4.22,3.48l.93.62a41.52,41.52,0,0,0,4.29,2.56c.19.1.35.23.54.32v0c.25.12.49.27.74.4a41.35,41.35,0,0,0,31.85,1.51h0l.22-.08h0a41.27,41.27,0,0,0,22-19l0,0c.39-.72.77-1.46,1.13-2.21.63-1.35,1.18-2.71,1.66-4.08.18-.49.29-1,.45-1.48.27-.89.55-1.78.77-2.68.13-.56.21-1.13.32-1.69.17-.84.33-1.68.44-2.52.07-.59.11-1.16.16-1.74.07-.83.14-1.66.16-2.49,0-.19,0-.38,0-.57Z" transform="translate(-377.43 -222.76)"/><path class="cls-9" d="M684.75,586.3c76,44.23,154,83.94,231.48,120.09A353.72,353.72,0,0,1,927,638.3c-63.17-47.84-120.83-97.6-171.72-149.49C729.64,517.92,705.51,550.2,684.75,586.3Z" transform="translate(-377.43 -222.76)"/></g></g></svg>