<svg xmlns="http://www.w3.org/2000/svg" xmlns:xlink="http://www.w3.org/1999/xlink" viewBox="0 0 91.26 125.02"><defs><style>.cls-1{isolation:isolate;}.cls-2,.cls-3,.cls-4,.cls-7{mix-blend-mode:multiply;}.cls-2{fill:url(#linear-gradient);}.cls-3{fill:url(#linear-gradient-2);}.cls-4{fill:url(#linear-gradient-3);}.cls-5{font-size:13.49px;fill:#232323;font-family:Antonio-Bold, Antonio;font-weight:700;letter-spacing:-0.04em;}.cls-6{fill:#001443;}.cls-7{fill:url(#linear-gradient-4);}.cls-8{opacity:0.4;mix-blend-mode:screen;fill:url(#linear-gradient-5);}</style><linearGradient id="linear-gradient" x1="2900.74" y1="-2219.25" x2="2958.51" y2="-2219.25" gradientTransform="matrix(-0.17, 0.99, 0.99, 0.17, 2696.42, -2440.72)" gradientUnits="userSpaceOnUse"><stop offset="0.16" stop-color="#1173be" stop-opacity="0.9"/><stop offset="1" stop-color="#17a8e2" stop-opacity="0.8"/></linearGradient><linearGradient id="linear-gradient-2" x1="2934.27" y1="-2214.01" x2="3001.27" y2="-2214.01" gradientTransform="matrix(-0.17, 0.99, 0.99, 0.17, 2696.42, -2440.72)" gradientUnits="userSpaceOnUse"><stop offset="0.16" stop-color="#82bc3f" stop-opacity="0.8"/><stop offset="0.19" stop-color="#78b83f" stop-opacity="0.81"/><stop offset="0.34" stop-color="#4da741" stop-opacity="0.84"/><stop offset="0.5" stop-color="#2b9943" stop-opacity="0.87"/><stop offset="0.66" stop-color="#139044" stop-opacity="0.89"/><stop offset="0.83" stop-color="#058a45" stop-opacity="0.9"/><stop offset="1" stop-color="#008845" stop-opacity="0.9"/></linearGradient><linearGradient id="linear-gradient-3" x1="15588.86" y1="-3052.8" x2="15731.77" y2="-3052.8" gradientTransform="matrix(-0.97, 0.25, 0.25, 0.97, 15946.66, -894.65)" xlink:href="#linear-gradient"/><linearGradient id="linear-gradient-4" x1="2891.3" y1="-2199.82" x2="2985.78" y2="-2199.82" xlink:href="#linear-gradient"/><linearGradient id="linear-gradient-5" x1="260.53" y1="14264.02" x2="301.51" y2="14264.02" gradientTransform="matrix(0.13, 0.99, -0.99, 0.13, 14128.17, -2159.13)" xlink:href="#linear-gradient"/></defs><g class="cls-1"><g id="Layer_1" data-name="Layer 1"><path class="cls-2" d="M10.68,54.74a77.28,77.28,0,0,1,29.49-1.53c-1.52,8.07-2.82,16.06-3.94,23.92a73.2,73.2,0,0,0-20.34,9.7C14.12,76.93,12.36,66.25,10.68,54.74Z"/><path class="cls-3" d="M19,87.73q-.36,6.7-.61,13.14a58.26,58.26,0,0,1,11.07-2.78q.89-6.11,1.91-12.36A60.52,60.52,0,0,0,19,87.73Z"/><path class="cls-4" d="M54.65,9.9C50,20,46.05,29,42.58,37.3A88.92,88.92,0,0,1,62.73,48.73c8.78-5,18.28-10.35,28.53-15.82C82.78,24.13,70.94,16,54.65,9.9Z"/><text class="cls-5" transform="matrix(0.89, 0, -0.45, 0.89, 11.89, 120.72)">FUTSAL</text><path class="cls-6" d="M36.21,91.75a5.65,5.65,0,1,1-7.51,2.69A5.65,5.65,0,0,1,36.21,91.75Z"/><path class="cls-6" d="M32.5,96.14a14.2,14.2,0,0,1,2.4-.78h0v0a13.88,13.88,0,0,0-2.4.78h0l0,0Z"/><path class="cls-6" d="M36.61,97h0a9.86,9.86,0,0,1-.6,2.5h0a9.78,9.78,0,0,0,.6-2.49Z"/><path class="cls-6" d="M38.16,96h0l0,0a3.81,3.81,0,0,1,1,1.14h0a4,4,0,0,0-1-1.12Z"/><path class="cls-6" d="M33.85,92.08v0a3.77,3.77,0,0,1,1.66,1.36h0a3.7,3.7,0,0,0-1.64-1.35Z"/><path class="cls-6" d="M31.52,92.7h0a7.41,7.41,0,0,0-.62,2.13h0a7.37,7.37,0,0,1,.62-2.14Z"/><path class="cls-6" d="M28.43,95.71v0a3,3,0,0,0,.48.28h0a2.3,2.3,0,0,0,.5.18h0v0a2.3,2.3,0,0,1-.5-.18h0a2.36,2.36,0,0,1-.48-.29Z"/><path class="cls-6" d="M30,98.39h0a3.7,3.7,0,0,0-.29,1.66h0A3.72,3.72,0,0,1,30,98.39Zm0,0Z"/><path class="cls-6" d="M32,98.43h0l0,0a8,8,0,0,0,1.83,1.71h0l0,0A8,8,0,0,1,32,98.43Z"/><path class="cls-6" d="M31.36,101.64a2.93,2.93,0,0,0,2.15,0h0v0a2.93,2.93,0,0,1-2.17,0h0v0Z"/><path class="cls-6" d="M37,100.59a4.56,4.56,0,0,0,1.62-1.13h0l0,0A4.5,4.5,0,0,1,37,100.62h0v0Z"/><path class="cls-6" d="M28.44,95.06a5.65,5.65,0,0,0-.26,1.26c.08-.22.16-.43.25-.62A2,2,0,0,1,28.44,95.06Z"/><path class="cls-6" d="M29.69,100a1.89,1.89,0,0,1-.81-.41,5.61,5.61,0,0,0,2.4,2.27l.08-.25A4.87,4.87,0,0,1,29.69,100Z"/><path class="cls-6" d="M31.53,92.73a4.15,4.15,0,0,1,2.36-.63,5,5,0,0,0,.34-.88,5.72,5.72,0,0,0-3.72,1A2.06,2.06,0,0,1,31.53,92.73Z"/><path class="cls-6" d="M38.64,99.47l.11.1.15-.3a5.64,5.64,0,0,0,.54-2.35l-.29.17A5.7,5.7,0,0,1,38.64,99.47Z"/><path class="cls-6" d="M37.51,93.9l0,0a3.64,3.64,0,0,0,.3-.54,2.84,2.84,0,0,0,.14-.32l0,0a2.92,2.92,0,0,1-.13.34A6,6,0,0,1,37.51,93.9Z"/><path class="cls-6" d="M35.64,101.92l.08.24h0l-.08-.24Z"/><path class="cls-6" d="M37.05,100.59a4.71,4.71,0,0,1-1.39,1.34,3.33,3.33,0,0,1-2.17-.28c.12-.52.22-1,.29-1.55h0c-.07.51-.17,1-.29,1.55a3.33,3.33,0,0,0,2.17.28,4.71,4.71,0,0,0,1.39-1.34Z"/><path class="cls-6" d="M38.21,96a5.34,5.34,0,0,0-.67-2.13,5.76,5.76,0,0,0-2-.46c-.17.62-.38,1.27-.62,1.95A11,11,0,0,1,36.62,97C37.25,96.65,37.78,96.31,38.21,96Z"/><path class="cls-6" d="M30.92,94.81a3.87,3.87,0,0,0-1.52,1.35A4.18,4.18,0,0,0,30,98.42a17.6,17.6,0,0,0,2,0c.19-.91.36-1.68.53-2.31A16.61,16.61,0,0,0,30.92,94.81Z"/><path class="cls-6" d="M36,99.42c.27.3.61.69,1,1.17h0c-.4-.48-.74-.87-1-1.17a7.42,7.42,0,0,1-2.26.68h0A7.42,7.42,0,0,0,36,99.42Z"/><path class="cls-6" d="M35.66,101.93a4.71,4.71,0,0,0,1.39-1.34c-.4-.48-.74-.87-1-1.17a7.42,7.42,0,0,1-2.26.68c-.07.51-.17,1-.29,1.55A3.33,3.33,0,0,0,35.66,101.93Z"/><path class="cls-6" d="M35.66,101.93a4.71,4.71,0,0,0,1.39-1.34c-.4-.48-.74-.87-1-1.17a7.42,7.42,0,0,1-2.26.68c-.07.51-.17,1-.29,1.55A3.33,3.33,0,0,0,35.66,101.93Z"/><path class="cls-6" d="M42.58,43.17c0-.31-.41-.58-.43-.92,0-.16.13-.23.16-.32.2-.68-.53-.8-.86-1.14,0,0-.05-.17-.11-.22s-.36-.1-.49-.21a7.22,7.22,0,0,1-.7-.92,3.65,3.65,0,0,1-.38-.65c-.27-.65-.35-1.44-.65-2-.11-.24-.35-.43-.48-.71s-.34-.87-.54-1.29a8,8,0,0,1-.65-1.25,8.12,8.12,0,0,1-.11-1.67c0-.17.3-.29.32-.54.05-.42-.27-.68-.32-1-.22-1.54.26-3.14.32-4.65A15.94,15.94,0,0,0,37.29,20a5.55,5.55,0,0,0-.71-1.35c-1.23-1.82-3-3-4.43-4.6a10.64,10.64,0,0,0,1.46-2.32,10,10,0,0,0,.92-1.89c.07-.27,0-.56.11-.86s.26-.44.32-.71a2,2,0,0,0,0-.6.75.75,0,0,1,.16-.15.44.44,0,0,1,0-.39V7a4,4,0,0,0,.16-.49l.06-.12a8.14,8.14,0,0,0,0-1.21c0-.2.12-.29.18-.43,0-.32.11-.44,0-.7h0a.66.66,0,0,0,.24.28,1.14,1.14,0,0,1-.19-.47.15.15,0,0,0,0-.08,1.15,1.15,0,0,1-.11-.62c.06-.23.3-.27.38-.48a3.43,3.43,0,0,0,.48-.53l-.53.34c-.06,0-.13,0-.15-.08a.3.3,0,0,1,0-.1A2.92,2.92,0,0,0,36.26,2a1.15,1.15,0,0,0,.39-.74,1.27,1.27,0,0,1-.41.5.85.85,0,0,0,.13-.22s-.08.11-.23.27h0a1,1,0,0,0,.22-.33,2,2,0,0,1-.28.36h0a1.52,1.52,0,0,0,.29-.41,2.53,2.53,0,0,1-.34.43,1.58,1.58,0,0,0,.36-.52,2.61,2.61,0,0,1-.28.38,1.73,1.73,0,0,0,.2-.29,3.77,3.77,0,0,1-.39.45,1,1,0,0,0-.25.1c-.15.05-.26.22-.4.11s0,0,0,0,.26-.17.39-.28a.86.86,0,0,0,.3-.45,1.11,1.11,0,0,1-.42.36.3.3,0,0,0,.06-.14,1.25,1.25,0,0,0,.32-.73c-.26.59-.79.77-1.32,1l0,0a4.16,4.16,0,0,0,.7-.81l-.67.52v0h0a1.84,1.84,0,0,0,.51-.91,2.34,2.34,0,0,1-1.34,1l0,0-.2-.11a5.82,5.82,0,0,1-1-.72,2.28,2.28,0,0,0,.42.56l-.11,0a5.75,5.75,0,0,1-.86-.6,1.41,1.41,0,0,0,.33.43l-.22.1-.07,0h0A2.67,2.67,0,0,0,31.77,1L31.3.88A1.63,1.63,0,0,0,30.56.5s0,0,0,.05v0a1.07,1.07,0,0,1-.18-.45,1.07,1.07,0,0,0,.05.53.16.16,0,0,0,0,.07l0,0a.87.87,0,0,1-.75-.37.67.67,0,0,0,.17.32l-.12,0A.76.76,0,0,1,29.23,0a1,1,0,0,0,0,.47s0,0,0,0,0,.21,0,.23h0A.84.84,0,0,1,28.8.51.55.55,0,0,0,29,.73h0c-.15,0-.16.17-.25.23a5.73,5.73,0,0,0-.87.08h0V1l-.26.18a4,4,0,0,1-.72.42c-.25.11-.53.18-.81.27a3.18,3.18,0,0,0,.87,0h0q-.27.17-.54.36c-.16.1-.29.23-.44.34a.06.06,0,0,1,0,0,2.3,2.3,0,0,0-.63,1.14.71.71,0,0,1,.12-.18c-.07.16-.12.34-.2.48v0c0,.09-.07.17-.11.25a3,3,0,0,0-.36.69L25,4.75a9,9,0,0,1-.35,1.15,1.84,1.84,0,0,0,.17-.22c0,.27,0,.54-.09.8a2.9,2.9,0,0,0,.24-.7A1,1,0,0,1,25,6a1.29,1.29,0,0,0-.18.53A1.79,1.79,0,0,1,25,6.12l0,.08c0,.13-.05.14,0,.27a.28.28,0,0,0,.08.2.38.38,0,0,1-.33.32.39.39,0,0,0,.34-.08l.06-.07c0,.22.11.31.11.52h0a4.17,4.17,0,0,0,0,.79c.05.54.55,1.23.54,1.46a2.16,2.16,0,0,1-.49.76,2.51,2.51,0,0,1-1.29.81c-.7.23-1.53.25-2.33.43-.48.11-.95.26-1.4.38s-1,.23-1.51.32a10,10,0,0,0-6.6,4.11,36.89,36.89,0,0,0-2.7,4.11,9.67,9.67,0,0,1-1.24,2.16c-.32.34-.72.41-.87.92,0,.11.07.31,0,.59s-.31.33-.48.54-.31.48-.43.6c-.62.6-1.51.87-2.06,1.4a7.48,7.48,0,0,0-.59.76,5.37,5.37,0,0,0-.92,1.78,16.84,16.84,0,0,0-.81,3.13c-.13.75-.18,1.54-.27,2.33a23.74,23.74,0,0,1-.27,2.38A8.86,8.86,0,0,0,1,38.68c0,.41.07.87.05,1.3a12.34,12.34,0,0,1-.59,2.65c-.08.27-.27.51-.33.75s0,.37,0,.54-.17.35-.16.49a3.49,3.49,0,0,0,.76,1.24c.12.1.35.1.54.22s.27.29.48.32a2.91,2.91,0,0,0,.76,0c.64-.09.89,0,.92-.76.55,0,.69-.4.59-.92a.64.64,0,0,0,.27-1c.84-.86,1.59-2.24.81-3.46-.19-.31-.68-.49-.86-.81a3.53,3.53,0,0,1-.16-.49,2.49,2.49,0,0,1,.38-2.1c.25-.51.54-1,.75-1.41.58-1,1-1.9,1.46-2.87a9.22,9.22,0,0,1,1.57-2.7c.31-.3.72-.59,1.19-1a5.47,5.47,0,0,1,1.29-.86c.1,0,.31.09.44.11,1,.08,1-.47,1.45-1,.64-.77,1.69-1.58,2.27-2.16a31.18,31.18,0,0,1-.16,4.54c-.15,1.82-.12,3.52-.21,5.24a8.6,8.6,0,0,1-.87,3.08c-.24.62-.41,1.3-.65,1.79-.16.33-.41.53-.54.8a4.86,4.86,0,0,0-.16,1.52,7.39,7.39,0,0,1-.54,1.51,12.83,12.83,0,0,0-.86,3.24,16.88,16.88,0,0,0-.27,1.79c0,.67.16,1.42.21,2.16.12,1.57,0,3.2.27,4.59a16.38,16.38,0,0,1,.43,2c0,.43-.16.64-.16,1a8.07,8.07,0,0,0,.11,1.08,4.47,4.47,0,0,0,2,3.08c.15.1,1,.34,1.08.49s0,.88,0,1.24a15.33,15.33,0,0,0,.65,4.27.68.68,0,0,0-.43.37,11.35,11.35,0,0,0-.44,2.6c0,.22-.16.42-.21.65s-.05.55-.11.81a23,23,0,0,0-.65,2.86,33.18,33.18,0,0,0,.7,7.73c.35,2.38.58,4.52.71,6.64a8.47,8.47,0,0,1,.1,1.46c0,.31-.3.46-.32.82s.21.56.22.86-.14.5-.17.76a13.08,13.08,0,0,0-.05,1.67,4.94,4.94,0,0,1,.11.92c0,.14-.2.23-.27.38a3,3,0,0,0-.38,1.62c0,.28.32.75.32.92s-.2.36-.1.54.46.12.64.27.23.45.44.54a1.26,1.26,0,0,0,.54,0c.28.46.92.22,1.62.27a6.71,6.71,0,0,0,1.84.06c.28-.06.57-.21.86-.27s.63,0,.81-.11.27-.55.43-.76.59-.34.65-.59-.12-.47-.11-.65.27-.61.33-.92a4.44,4.44,0,0,0-.54-2.59c-.18-.33-.45-.59-.6-.92A3.27,3.27,0,0,1,20.81,93c0-.26.2-.48.16-.7-.11-.55-.9-.58-1.14-1a5,5,0,0,1-.11-1.89,34.91,34.91,0,0,1,.54-7.24c.34-1.64.94-3.13,1.25-4.65a6,6,0,0,0,1.08,1.67,1.47,1.47,0,0,0,.86.6c.14,0,.26.17.38.22,1.61.65,2.63-.54,2.81-1.84,0-.22,0-.42,0-.65,0-.46.19-.92.22-1.35a6,6,0,0,0-.17-1.73,5.48,5.48,0,0,1-.27-.92,7.47,7.47,0,0,1,.22-.81c.08-.32.11-.81.16-.92s.27-.15.44-.27a8.79,8.79,0,0,1,3.89-1.24c.62-.09,1.33-.11,2-.22.47-.07,1.4-.44,1.78-.43s.87.33,1.24.38a4.27,4.27,0,0,0,.7,0A3.49,3.49,0,0,0,40,66.46a4.23,4.23,0,0,0-.7-1.62c-.12-.23-.16-.51-.27-.71s-.5-.55-.71-.86a6,6,0,0,1-.59-1,10,10,0,0,1-.27-1.84,17.29,17.29,0,0,0-1.08-3.13,7.48,7.48,0,0,1-.65-1.46,2.25,2.25,0,0,1,.22-.44c.47-1-.46-1.7-.92-2.27-.84-1-1.59-2.45-2.6-3.78-.39-.52-.88-1.15-1.4-1.78-.25-.3-1.48-1.38-1.51-1.68a11.25,11.25,0,0,1,.32-1.19c.13-.19.52-.28.65-.43a3.6,3.6,0,0,0,.43-1.19,7.87,7.87,0,0,0,.59-1.73c.16-1.53-.53-3.19-.37-4.86a16.85,16.85,0,0,1,.64-3.08c.09-.3.07-.7.38-.86a13.22,13.22,0,0,1,1.62,4.7A4.58,4.58,0,0,0,34.21,39a4.93,4.93,0,0,0,.91,1.24A22.43,22.43,0,0,0,38,42.09c.63.42,1,.54.92,1.56,0,.16-.19.32-.22.49s.08.32.05.49-.13.27-.16.37c-.11.51.27.73.87.71-.09.23.09.31.27.43a1.48,1.48,0,0,0,2-.32.8.8,0,0,0,.05-.65c.36-.17.78-.81.38-1.25C42.32,43.7,42.59,43.54,42.58,43.17ZM2.7,44.46a1.61,1.61,0,0,1-.54-1C2.33,43.76,3.05,44.13,2.7,44.46Zm.54-1.62c-.49-.18-.18-.82.33-.75C3.79,42.16,3.24,42.54,3.24,42.84ZM30.42,62.35a3.32,3.32,0,0,1,.6.49c0,.16-1.35.86-1.51,1-1.36.89-2.33,1.6-3.79,2.38-.29.15-.65.41-.75.43s-.44-.14-.65-.16-.66,0-.87,0a5.85,5.85,0,0,0-1.78-.33c0-.86-.05-1.51-.11-2.38a4.17,4.17,0,0,1,0-1.35c.06-.19.45-.42.65-.65a4.94,4.94,0,0,0,1.24-4.32,7.67,7.67,0,0,1,1.35,2.33,2.42,2.42,0,0,0,1,1.35,4.21,4.21,0,0,0,1.73.11,4.46,4.46,0,0,1,.91-.22,2.16,2.16,0,0,1,.71.43C29.61,61.77,29.88,61.94,30.42,62.35Z"/><path class="cls-7" d="M38.57,43.38C34.6,57.6,31.46,72,28.88,86.1A60.34,60.34,0,0,1,40.4,85,233.8,233.8,0,0,1,56.28,52.62C50.46,49.69,45.32,45.22,38.57,43.38Z"/><path class="cls-8" d="M50.52,15.41c-14.14.71-28.33.87-42.2,3.56,1.12,14.14,2.49,27.38,4,39.62A75.8,75.8,0,0,1,38.81,56,362.45,362.45,0,0,1,50.52,15.41Z"/></g></g></svg>