<svg id="Layer_1" data-name="Layer 1" xmlns="http://www.w3.org/2000/svg" viewBox="0 0 301.86 50.88"><defs><style>.cls-1{fill:#fff;}.cls-2{fill:#98c23a;}.cls-3{fill:#80aa9a;}.cls-4{fill:#006b35;}</style></defs><path class="cls-1" d="M244.81,31.39l-15.73,2.25c.53,3.84,2.48,5.74,6.33,5.74A15.2,15.2,0,0,0,242.23,38L244,42.69a20.14,20.14,0,0,1-9.45,1.9c-8,0-12.66-5.3-12.66-13.68s4.29-13.54,11.84-13.54,11.15,5.06,11.15,13c0,.34-.05.73-.05,1.07m-11.4-9.54c-3.07,0-5.06,2.68-4.82,8.13l9.16-1.46c0-4.62-1.51-6.67-4.34-6.67"/><path class="cls-1" d="M291.88,44.61a14.67,14.67,0,0,1-7.7-1.9l1.95-4.82a7.94,7.94,0,0,0,4.68,1.51,3,3,0,0,0,3.26-2.87c0-1.76-.93-2.73-3.36-3.7-4.83-1.9-5.9-4.58-5.9-7.31,0-4.48,3.51-8.09,8.77-8.09a13.47,13.47,0,0,1,7.55,1.9l-1.85,4.34a6.64,6.64,0,0,0-4-1.36,2.69,2.69,0,0,0-3,2.72c0,1.76,1.31,2.73,3.36,3.61,5.06,2.14,6.23,4.62,6.23,7.69,0,4.58-3.75,8.28-10,8.28"/><path class="cls-1" d="M248.05,13.15v31h7.59V6.24s-7.59,0-7.59,6.91"/><path class="cls-1" d="M274.22,13.3V18a16.29,16.29,0,0,0-3.84-.43c-6.78,0-11.55,5.16-11.55,13.58,0,8.77,5,13.45,12.91,13.45,4.53,0,7.65-.69,10-2V6.41c-.49,0-7.54.22-7.55,6.89m0,26.12a5.06,5.06,0,0,1-2.34.39c-3.84,0-5.55-3.27-5.55-9,0-5.4,1.61-9,5.8-9a7.13,7.13,0,0,1,2.09.29v17.3Z"/><path class="cls-1" d="M92.17,20.15s-7.6,0-7.6,6.9V39.28a8.5,8.5,0,0,1-3.32.55c-4.93,0-10.33-4.62-10.34-14,0-9.89,5.33-14,11.6-14.07a12.28,12.28,0,0,1,6.26,1.36l.48.29,2.54-5.22L91.37,8C89.13,6.67,86,5.83,81.68,5.83a18.76,18.76,0,0,0-13.21,5.25,19.76,19.76,0,0,0-5.68,14.46c0,6.44,2.07,11.5,5.47,14.93a18.32,18.32,0,0,0,13.25,5.22h.06c5,0,7.86-.79,10.29-2.21l.26-.15V43h0V20.15Z"/><path class="cls-1" d="M109.3,22.71a6.61,6.61,0,0,0-5.1-.14V44.16H96.54v-25c2.95-1.42,7.07-2.21,14.19-1.86l-1.43,5.39Z"/><path class="cls-1" d="M133.44,31.35l-15.85,2.26c.54,3.87,2.51,5.79,6.38,5.79A15.39,15.39,0,0,0,130.84,38l1.77,4.76a20.55,20.55,0,0,1-9.52,1.91c-8.1,0-12.76-5.35-12.76-13.79s4.32-13.64,11.92-13.64,11.24,5.1,11.24,13.05c0,.34-.05.74-.05,1.08M122,21.73c-3.09,0-5.1,2.7-4.86,8.2l9.23-1.48c0-4.66-1.52-6.72-4.37-6.72"/><path class="cls-1" d="M158.57,31.35l-15.85,2.26c.54,3.87,2.5,5.79,6.38,5.79A15.43,15.43,0,0,0,156,38l1.76,4.76a20.52,20.52,0,0,1-9.52,1.91c-8.09,0-12.75-5.35-12.75-13.79s4.31-13.64,11.92-13.64,11.24,5.1,11.24,13.05c0,.34-.05.74-.05,1.08m-11.48-9.62c-3.1,0-5.11,2.7-4.86,8.2l9.22-1.48c0-4.66-1.52-6.72-4.36-6.72"/><path class="cls-1" d="M176.33,44.16V25.66c0-1.87-.83-3.68-3.92-3.68a8.89,8.89,0,0,0-3.24.54V44.16h-7.66v-25a27.69,27.69,0,0,1,11.09-2C181,17.22,184,20.8,184,25.61V44.16Z"/><path class="cls-1" d="M218.5,17.43a21,21,0,0,0-7.65,1.82v24.9h7.65V17.43Z"/><path class="cls-1" d="M197.2,11.83H211l2.58-5.59H197.17c-.27,0-7.57.11-7.68,6.91v6h-2v5.31h2V44.12h0v0h7.66V37.86c0-.21,0-.42,0-.65V24.51h10.3V19.25H197.2V11.83Z"/><path class="cls-2" d="M50.88,25.44A25.44,25.44,0,1,1,25.44,0,25.44,25.44,0,0,1,50.88,25.44Z"/><polygon class="cls-3" points="25.45 2.8 24.66 43.87 21.1 43.87 25.45 2.8 25.45 2.8 25.45 2.8"/><polygon class="cls-3" points="30.72 43.87 37.1 8.14 27.98 41.47 28.17 43.87 30.72 43.87 30.72 43.87 30.72 43.87"/><polygon class="cls-3" points="18.63 43.87 15.65 7.14 15.61 43.87 18.63 43.87 18.63 43.87 18.63 43.87"/><polygon class="cls-3" points="6.67 15.33 13.8 43.86 11.26 43.86 6.67 15.33 6.67 15.33 6.67 15.33"/><polygon class="cls-3" points="34.23 41.48 45.25 14.46 36.06 43.88 34.08 43.88 34.23 41.48 34.23 41.48 34.23 41.48"/><polygon class="cls-4" points="25.46 2.82 24.66 43.87 28.17 43.87 27.98 41.45 25.46 2.82 25.46 2.82 25.46 2.82"/><polygon class="cls-4" points="30.73 43.87 34.07 43.87 34.21 41.77 37.09 8.18 30.73 43.87 30.73 43.87 30.73 43.87"/><polygon class="cls-4" points="18.63 43.87 21.1 43.87 21.34 41.7 15.67 7.11 18.63 43.87 18.63 43.87 18.63 43.87"/><polygon class="cls-4" points="45.17 14.61 36.04 43.87 38.45 43.87 45.2 14.61 45.17 14.61 45.17 14.61"/><polygon class="cls-4" points="15.61 41.77 6.68 15.36 13.79 43.87 15.61 43.87 15.61 41.77 15.61 41.77 15.61 41.77"/></svg>