<svg xmlns="http://www.w3.org/2000/svg" xmlns:xlink="http://www.w3.org/1999/xlink" viewBox="0 0 107.4 132.8"><defs><style>.cls-1{isolation:isolate;}.cls-2,.cls-8{opacity:0.4;mix-blend-mode:screen;}.cls-2{fill:url(#linear-gradient);}.cls-3{fill:#001443;}.cls-4,.cls-5,.cls-6,.cls-7{mix-blend-mode:multiply;}.cls-5{fill:url(#linear-gradient-2);}.cls-6{opacity:0.7;fill:url(#linear-gradient-3);}.cls-7{fill:url(#linear-gradient-4);}.cls-8{fill:url(#linear-gradient-5);}.cls-9{font-size:13.49px;fill:#232323;font-family:Antonio-Bold, Antonio;font-weight:700;letter-spacing:-0.04em;}</style><linearGradient id="linear-gradient" x1="511.99" y1="478.24" x2="662.91" y2="478.24" gradientTransform="matrix(0.97, 0.26, -0.26, 0.97, -330.88, -563.31)" gradientUnits="userSpaceOnUse"><stop offset="0.16" stop-color="#1173be" stop-opacity="0.9"/><stop offset="1" stop-color="#17a8e2" stop-opacity="0.8"/></linearGradient><linearGradient id="linear-gradient-2" x1="-2185.74" y1="5552.88" x2="-2080.61" y2="5552.88" gradientTransform="matrix(0.78, 0.62, -0.62, 0.78, 5196.86, -2917.76)" gradientUnits="userSpaceOnUse"><stop offset="0.16" stop-color="#e98500"/><stop offset="0.34" stop-color="#ec9200"/><stop offset="0.68" stop-color="#f5b500"/><stop offset="1" stop-color="#fedb00"/></linearGradient><linearGradient id="linear-gradient-3" x1="-2135.81" y1="5545.63" x2="-2061.26" y2="5545.63" xlink:href="#linear-gradient-2"/><linearGradient id="linear-gradient-4" x1="-2098.42" y1="4087.79" x2="-2052.82" y2="4087.79" gradientTransform="matrix(0.56, 0.83, 0.83, -0.56, -2189.98, 4041.88)" xlink:href="#linear-gradient"/><linearGradient id="linear-gradient-5" x1="-2161.42" y1="5520.46" x2="-2097.14" y2="5520.46" gradientTransform="matrix(0.78, 0.62, -0.62, 0.78, 5196.86, -2917.76)" xlink:href="#linear-gradient"/></defs><g class="cls-1"><g id="Layer_1" data-name="Layer 1"><path class="cls-2" d="M77.05,18.06c4.84,10.68,8.92,20.28,12.51,29A94.07,94.07,0,0,0,68.18,59C59,53.59,49,47.91,38.2,42,47.23,32.84,59.8,24.4,77.05,18.06Z"/><path class="cls-3" d="M106.08,56.46s.86.37,1,0-1.46-1.93-2.26-2.29-2.5-1-2.5-1,.48-1,.2-1.2-1.27.44-1.27.44a6.6,6.6,0,0,0-3.24-1,39.51,39.51,0,0,1-4.27-3.25c-1.18-1.18-2-2.91-4.18-3.16,0,0-4.28-3-4.48-3.68s-.37-4.83-5.4-5.34c0,0-4.08-4.22-6.24-5L74.8,27c.08-.24,1-.35,1.17-1.36s1.73-4.75-1.61-7c-4.16-2.75-5.46-.16-5.46-.16s-2.5.85-2.68,4.61a8.23,8.23,0,0,0-.58,2.58,14,14,0,0,1,.19,3.16c-.14.07-2,.13-2.62.16a5.94,5.94,0,0,0-1.73.57,11.17,11.17,0,0,0-4.8-2,10.5,10.5,0,0,0-4.79.33,61.73,61.73,0,0,1-7.1-2.73c-1.28-.83-4.32-2.86-6.52-4l-.66-.36v0a41.36,41.36,0,0,1-4.17-3.39,6.52,6.52,0,0,0-1.78-2.89s.4-1.12.13-1.34-1,.39-1.1.46c-.12-.16-.24-.32-.37-.47-.37-.5-.92-1.25-1.26-1.69-.54-.7-2.44-1.84-2.76-1.66s.24.93.24.93-2.4-1-2.59-.69.16.64.16.64-.79-.25-.91,0a.7.7,0,0,0,.08.64,6.4,6.4,0,1,0,7.46,9.65c1.35,1.37,3.21,3.19,4.72,4.48A24.59,24.59,0,0,0,43.11,30c1.17.24,3.65,1.67,5.71,2.45a41.46,41.46,0,0,0,6.92,1.3,9.76,9.76,0,0,1,1,7.29c-.93,4.56-2,8.55-2,9s0,2.35,0,2.35-1.76-.53-3.23,2.81a25.36,25.36,0,0,0-2.16,13.37,6.48,6.48,0,0,0-3.87.19l-3.91,1.49L40,70.06s.07-.43-.64-.62a7,7,0,0,0-2.36.22s-1.88-.45-2.4.72a20.19,20.19,0,0,1-1.09,2.82C33,74,29.62,77.1,30,80.09s1.89,5,3.52,4.35,3.81-6.15,4.65-7.17a14,14,0,0,1,2.11-1.73c.13-.22,1-.33,1.37-.87a7.19,7.19,0,0,0,2.1.78s-.38,2.57,3.6,5.25c0,0-5.53,1.43-6.58,4.08,0,0-4.94,4.86-7.75,5a6.27,6.27,0,0,0-1.54-.45c-.53,0-1.5-.09-1.63-.3s-.55-.58-1.31-.14A3,3,0,0,0,27,91.58,5.48,5.48,0,0,1,26.45,95c-.69,1-1.54,1.66-1.92,2.89s-1,5.8.68,6.46,3.54-2.89,4.48-4.55a28.33,28.33,0,0,1,3.18-4L33,97.42l.47,0L33.93,96a3.12,3.12,0,0,0,1.52.14,1.42,1.42,0,0,0,1.44-1.55c-.1-.66-2.06-.95-2.06-.95l1.28-.85s4.54-1.7,6.79-2.46,5.89-3.67,5.89-3.67,3.07-.47,3.78-1.37c0,0,.44.28.57,0A11.09,11.09,0,0,1,56,81.61a40.61,40.61,0,0,0,7.56-9.15c2.27-3.87,3.9-6.44,3.48-9.07a14.21,14.21,0,0,1,2.46-4.1c1.45-1.47,3.88-3.48,4.9-8s2.6-7.65,3.82-8.44,1.81-1.38,2.73-.08,5,5.32,5,5.32a6.29,6.29,0,0,0,3.24,3.25,50,50,0,0,0,7.63,2.32,4.46,4.46,0,0,0,2,2.28A23.52,23.52,0,0,0,102,57.33a25.86,25.86,0,0,0,1.83,2.09c.41.32.85.52,1.1.4s.42-.29-.1-.78-2-2.35-2-2.35l2.81,2.69c.56.54,1,.49,1.25.31s-.21-.88-.21-.88.43.25.66,0S106.08,56.46,106.08,56.46Z"/><g class="cls-4"><path class="cls-5" d="M29.78,49.59C43.62,58.44,56.88,68,69.51,77.83a66.16,66.16,0,0,0-10.4,7.6A290.72,290.72,0,0,0,19.59,69.64,112,112,0,0,1,29.78,49.59Z"/><path class="cls-6" d="M75,80.18q5.28,5.29,10.26,10.45A64,64,0,0,0,74,96.53q-5.26-4.41-10.75-8.83A67.54,67.54,0,0,1,75,80.18Z"/></g><path class="cls-7" d="M0,28.36C12.25,18.46,24.14,8.06,37.63,0c9.56,12.56,18.25,24.55,26.09,35.81A84.21,84.21,0,0,0,39.81,53.32,401.06,401.06,0,0,0,0,28.36Z"/><path class="cls-8" d="M78.59,38.84A86.17,86.17,0,0,0,53,59.45Q63.89,67.8,74,76.36a81.39,81.39,0,0,1,24-7C92.21,59.8,85.75,49.64,78.59,38.84Z"/><text class="cls-9" transform="matrix(0.89, 0, -0.45, 0.89, 20.23, 128.5)">HÁNDBOL</text></g></g></svg>