<svg xmlns="http://www.w3.org/2000/svg" xmlns:xlink="http://www.w3.org/1999/xlink" viewBox="0 0 119.07 128.82"><defs><style>.cls-1{isolation:isolate;}.cls-2{opacity:0.5;fill:url(#linear-gradient);}.cls-2,.cls-3,.cls-4,.cls-5,.cls-8{mix-blend-mode:multiply;}.cls-3{fill:url(#linear-gradient-2);}.cls-4{opacity:0.2;fill:url(#linear-gradient-3);}.cls-5{opacity:0.7;fill:url(#linear-gradient-4);}.cls-6{opacity:0.4;mix-blend-mode:screen;fill:url(#linear-gradient-5);}.cls-7{fill:#001443;}.cls-8{fill:url(#linear-gradient-6);}.cls-9{font-size:13.13px;fill:#232323;font-family:Antonio-Bold, Antonio;font-weight:700;letter-spacing:-0.04em;}</style><linearGradient id="linear-gradient" x1="12676.25" y1="15497.08" x2="12993.19" y2="15497.08" gradientTransform="matrix(-0.67, 0.39, -0.51, -0.86, 16504.39, 8383.92)" gradientUnits="userSpaceOnUse"><stop offset="0.16" stop-color="#1173be" stop-opacity="0.9"/><stop offset="1" stop-color="#17a8e2" stop-opacity="0.8"/></linearGradient><linearGradient id="linear-gradient-2" x1="11622.33" y1="15524.18" x2="11724.7" y2="15524.18" gradientTransform="translate(17947.59 7535.18) rotate(149.54)" gradientUnits="userSpaceOnUse"><stop offset="0.16" stop-color="#e98500"/><stop offset="0.34" stop-color="#ec9200"/><stop offset="0.68" stop-color="#f5b500"/><stop offset="1" stop-color="#fedb00"/></linearGradient><linearGradient id="linear-gradient-3" x1="11993.08" y1="16269.25" x2="12096.87" y2="16269.25" gradientTransform="translate(16734.77 11490.44) rotate(160.97)" xlink:href="#linear-gradient-2"/><linearGradient id="linear-gradient-4" x1="11662.59" y1="15516.28" x2="11735.18" y2="15516.28" xlink:href="#linear-gradient-2"/><linearGradient id="linear-gradient-5" x1="9275.46" y1="15267.95" x2="9422.43" y2="15267.95" gradientTransform="translate(17899.35 1465.59) rotate(125.79)" xlink:href="#linear-gradient"/><linearGradient id="linear-gradient-6" x1="13902.42" y1="-456.57" x2="13946.83" y2="-456.57" gradientTransform="matrix(-0.97, 0.23, 0.23, 0.97, 13755.06, -2676.32)" xlink:href="#linear-gradient"/></defs><g class="cls-1"><g id="Layer_1" data-name="Layer 1"><path class="cls-2" d="M38.66,97.27c-8.2,1.68-15.94,3.17-23.21,4.52C16.81,98.87,18,96,19,93.26Q30,90,42.11,86.12A97.73,97.73,0,0,1,38.66,97.27Z"/><path class="cls-3" d="M64.69,53.33c-12.86,9.5-26.19,18.23-39.5,26.31a64.82,64.82,0,0,0-3.3-12.1A283.38,283.38,0,0,0,50,37.08,109.23,109.23,0,0,1,64.69,53.33Z"/><path class="cls-4" d="M63.83,52.12A311.74,311.74,0,0,0,94.45,23.41,112.87,112.87,0,0,0,85.7,0,165,165,0,0,1,60.62,44.28Q62.36,48.11,63.83,52.12Z"/><path class="cls-5" d="M28.78,80.28q-6.64,3-13.07,5.69a62.67,62.67,0,0,0-1.46-12.28Q20.09,70.45,26,67A66.39,66.39,0,0,1,28.78,80.28Z"/><path class="cls-6" d="M88.94,97.72c-11.4.69-21.55,1.06-30.77,1.28a91.47,91.47,0,0,0-3.38-23.58C62.92,68.9,71.56,61.8,80.64,54,85.86,65.45,89.17,79.82,88.94,97.72Z"/><path class="cls-7" d="M55.27,15.07a3,3,0,0,0,.9-.41S55.82,14.83,55.27,15.07ZM76.42,88.39c-5,.76-9.36-6.11-9.36-6.11a11.28,11.28,0,0,0-7.64-6.88l9.74-11.08a6.75,6.75,0,0,1,4.77-3c-.76-2.68,4.59-2.49,4.59-2.49-1-8.78-7.64-16.42-7.64-16.42-2.48-2.11-7.07-11.85-7.07-11.85-3.25-6.49-12.22-6.3-12.22-6.3,1.14-5.12-1.33-7.17-2.66-7.88,1.89.47,4.85-.62,6.34-1.26-2.47.64-4.45-2.7-4.45-2.7C48,7.78,45.28,8.93,45.28,8.93c-3.63,0-1,5.35-1,5.35-1.72,0-4.39,3.44-4.39,3.44-2.11,4.2,1,5,1,5l1,1.91c.57,3.06,1.91,3.82,1.91,3.82C41.27,29,41.65,33,41.65,33,42,37,42,45.22,42,45.22c-1.15.76-2.87,8.41-2.87,8.41a4.83,4.83,0,0,0-2.29,1.91L4.22,45.22c-1.91-.38-.77-1.53-.77-1.53,4.59-4.2-1.91-2.86-1.91-2.86-4.77,5.35,3.06,7.45,3.06,7.45l31.13,9.55c.39,2.48,4.4,2.1,4.4,2.1,4.58,4.77,7.64,1.53,7.64,1.53l4.39,1.14L50.25,74.45c-.76,4.2,2.48,5.53,2.48,5.53L51.78,92.4C49.49,97.56,43,97.75,43,97.75c-3.25.76-1.91,3-1.91,3,3.44,4,9.93.2,9.93.2a10.26,10.26,0,0,0,4.59-1.72c2.48-1,.57-5.35.57-5.35C57.7,92,60,85,60,85a26.89,26.89,0,0,1,9.74,8.21c-.19,2.49,1.91,4.78,1.91,4.78l-.57,3.63c-.57,2.86,1.91,2.1,1.91,2.1,3.63-1.53,3.44-7.45,3.44-7.45C80.81,88.2,76.42,88.39,76.42,88.39ZM52.73,60.5l-3.44-.76-.19-2.29,4.59-3.25ZM51.2,50.76S48.34,54,46.05,55.15l-3.82,1.72L42,55s5-5,4.2-8.59L46.62,38s3.06,3.44,5.92,4.59l2.87,3.24ZM27.3,95.69A2.71,2.71,0,1,1,24.59,93,2.71,2.71,0,0,1,27.3,95.69Z"/><path class="cls-8" d="M106.37,24.06c4.75,14.58,10.07,29,12.7,44.09-14.74,4.32-28.67,8.06-41.64,11.28a82,82,0,0,0-7.61-27.84A391.28,391.28,0,0,0,106.37,24.06Z"/><text class="cls-9" transform="matrix(0.89, 0, -0.45, 0.89, 38.94, 124.64)">HOCKEY</text></g></g></svg>