<svg id="Layer_1" data-name="Layer 1" xmlns="http://www.w3.org/2000/svg" xmlns:xlink="http://www.w3.org/1999/xlink" viewBox="0 0 265.5 361.44"><defs><style>.cls-1,.cls-2{opacity:0.8;}.cls-1{fill:url(#linear-gradient);}.cls-2{fill:url(#linear-gradient-2);}</style><linearGradient id="linear-gradient" x1="584.15" y1="1443" x2="828.07" y2="1443" gradientTransform="translate(-392.56 -1375.53) rotate(6.92)" gradientUnits="userSpaceOnUse"><stop offset="0.16" stop-color="#82bc3f" stop-opacity="0.8"/><stop offset="0.19" stop-color="#78b83f" stop-opacity="0.81"/><stop offset="0.34" stop-color="#4da741" stop-opacity="0.84"/><stop offset="0.5" stop-color="#2b9943" stop-opacity="0.87"/><stop offset="0.66" stop-color="#139044" stop-opacity="0.89"/><stop offset="0.83" stop-color="#058a45" stop-opacity="0.9"/><stop offset="1" stop-color="#008845" stop-opacity="0.9"/></linearGradient><linearGradient id="linear-gradient-2" x1="641.11" y1="2320.35" x2="984.98" y2="2320.35" gradientTransform="matrix(0.91, 0.41, 0.41, -0.91, -1462.85, 2102.4)" xlink:href="#linear-gradient"/></defs><path class="cls-1" d="M43,0C25.8,82.47,5.39,164.46,0,248.39c83.12,14.78,161.43,26.86,234.15,36.67a451.9,451.9,0,0,1,24.9-156.59C186.09,90.42,112.86,47.6,43,0Z"/><path class="cls-2" d="M72.84,343.15a459.88,459.88,0,0,1,35.6-172.09c44.17,20.88,88.22,40.4,131.78,58.69,1.2,40.54,8.76,84.45,25.28,131.69C205.84,356.75,141.7,350.83,72.84,343.15Z"/></svg>