<svg xmlns="http://www.w3.org/2000/svg" xmlns:xlink="http://www.w3.org/1999/xlink" viewBox="0 0 180 138"><defs><style>.cls-1{isolation:isolate;}.cls-2,.cls-3,.cls-6,.cls-7{opacity:0.8;}.cls-2{fill:url(#linear-gradient);}.cls-3{fill:url(#linear-gradient-2);}.cls-4,.cls-5{mix-blend-mode:multiply;}.cls-4{fill:url(#linear-gradient-3);}.cls-5{opacity:0.7;fill:url(#linear-gradient-4);}.cls-6{fill:url(#linear-gradient-5);}.cls-7{fill:url(#linear-gradient-6);}.cls-8{font-size:109.8px;fill:#001443;font-family:Antonio-Regular, Antonio;letter-spacing:-0.04em;}.cls-9{opacity:0.4;mix-blend-mode:screen;fill:url(#linear-gradient-7);}</style><linearGradient id="linear-gradient" x1="753.05" y1="10919.98" x2="1174.19" y2="10919.98" gradientTransform="matrix(0.77, -0.07, -0.09, -1, 345.7, 11014.53)" gradientUnits="userSpaceOnUse"><stop offset="0.16" stop-color="#82bc3f" stop-opacity="0.8"/><stop offset="0.19" stop-color="#78b83f" stop-opacity="0.81"/><stop offset="0.34" stop-color="#4da741" stop-opacity="0.84"/><stop offset="0.5" stop-color="#2b9943" stop-opacity="0.87"/><stop offset="0.66" stop-color="#139044" stop-opacity="0.89"/><stop offset="0.83" stop-color="#058a45" stop-opacity="0.9"/><stop offset="1" stop-color="#008845" stop-opacity="0.9"/></linearGradient><linearGradient id="linear-gradient-2" x1="4002.91" y1="-1326.21" x2="4061.91" y2="-1326.21" gradientTransform="matrix(0.93, -0.38, 0.38, 0.93, -3191.46, 2831.37)" xlink:href="#linear-gradient"/><linearGradient id="linear-gradient-3" x1="2205.96" y1="13560.5" x2="2287.99" y2="13560.5" gradientTransform="matrix(0.96, -0.28, -0.28, -0.96, 1750.47, 13675.14)" gradientUnits="userSpaceOnUse"><stop offset="0.16" stop-color="#1173be" stop-opacity="0.9"/><stop offset="1" stop-color="#17a8e2" stop-opacity="0.8"/></linearGradient><linearGradient id="linear-gradient-4" x1="2359.1" y1="10947.28" x2="2455.56" y2="10947.28" gradientTransform="matrix(1, -0.09, -0.09, -1, -1269.5, 11156.12)" xlink:href="#linear-gradient-3"/><linearGradient id="linear-gradient-5" x1="2042.52" y1="7310.54" x2="2237.81" y2="7310.54" gradientTransform="matrix(0.95, 0.32, 0.32, -0.95, -4233.54, 6346.08)" xlink:href="#linear-gradient"/><linearGradient id="linear-gradient-6" x1="2312.59" y1="10917.14" x2="2395.77" y2="10917.14" gradientTransform="matrix(1, -0.09, -0.09, -1, -1269.5, 11156.12)" xlink:href="#linear-gradient"/><linearGradient id="linear-gradient-7" x1="2305.6" y1="10957.78" x2="2441.62" y2="10957.78" gradientTransform="matrix(1, -0.09, -0.09, -1, -1269.5, 11156.12)" xlink:href="#linear-gradient-3"/></defs><g class="cls-1"><g id="Layer_1" data-name="Layer 1"><path class="cls-2" d="M151.39,78.84q15.27-6.77,28.61-13c-3.72-2.11-7.18-4.29-10.38-6.51q-14.49,4.95-30.56,10.11A131.38,131.38,0,0,0,151.39,78.84Z"/><path class="cls-3" d="M0,55c6.11,19.44,11.48,39.16,20.25,57.51C39.54,105.83,57.5,99.13,74,92.61a109.33,109.33,0,0,1-13.23-36A521.09,521.09,0,0,1,0,55Z"/><path class="cls-4" d="M61.39,52.38A247.68,247.68,0,0,1,28.52,48a89.07,89.07,0,0,1-5.11-19.08,130.53,130.53,0,0,0,36.45,17C60.29,48,60.79,50.21,61.39,52.38Z"/><path class="cls-5" d="M130.91,52.92Q140.39,51,149.45,49a83.11,83.11,0,0,1-7.89-14.41q-8.82,1-17.91,1.82A87.48,87.48,0,0,0,130.91,52.92Z"/><path class="cls-6" d="M79.26,118.19c12.86-8,24.14-15.48,34.28-22.35A121.76,121.76,0,0,1,99,67.72c-13.82-.78-28.64-1.81-44.45-3.21C57.7,80.89,65.2,99,79.26,118.19Z"/><path class="cls-7" d="M91.68,98.8a111.23,111.23,0,0,1-12.8-40.53c11.79-.81,23.39-1.89,34.75-3.17a105.49,105.49,0,0,0,20.88,24.81C121.37,86,107.13,92.29,91.68,98.8Z"/><text class="cls-8" transform="translate(17.32 102.08)">+30</text><path class="cls-9" d="M71.26,51.44c21.26.37,42.41-.46,63.05-2a85.71,85.71,0,0,1-5.77-15.64,375.64,375.64,0,0,1-53.9-11.29A145.09,145.09,0,0,0,71.26,51.44Z"/></g></g></svg>