<svg xmlns="http://www.w3.org/2000/svg" xmlns:xlink="http://www.w3.org/1999/xlink" viewBox="0 0 457.44 361.33"><defs><style>.cls-1{isolation:isolate;}.cls-2,.cls-3,.cls-6{opacity:0.8;}.cls-2{fill:url(#linear-gradient);}.cls-3{fill:url(#linear-gradient-2);}.cls-4,.cls-5{mix-blend-mode:multiply;}.cls-4{fill:url(#linear-gradient-3);}.cls-5{opacity:0.7;fill:url(#linear-gradient-4);}.cls-6{fill:url(#linear-gradient-5);}.cls-7{fill:#003165;}</style><linearGradient id="linear-gradient" x1="2148.37" y1="290" x2="3132.06" y2="290" gradientTransform="matrix(0.77, -0.07, -0.09, -1, -1667.28, 732.55)" gradientUnits="userSpaceOnUse"><stop offset="0.16" stop-color="#82bc3f" stop-opacity="0.8"/><stop offset="0.19" stop-color="#78b83f" stop-opacity="0.81"/><stop offset="0.34" stop-color="#4da741" stop-opacity="0.84"/><stop offset="0.5" stop-color="#2b9943" stop-opacity="0.87"/><stop offset="0.66" stop-color="#139044" stop-opacity="0.89"/><stop offset="0.83" stop-color="#058a45" stop-opacity="0.9"/><stop offset="1" stop-color="#008845" stop-opacity="0.9"/></linearGradient><linearGradient id="linear-gradient-2" x1="1543.13" y1="1177.61" x2="1680.94" y2="1177.61" gradientTransform="matrix(0.93, -0.38, 0.38, 0.93, -1854.01, -206.03)" xlink:href="#linear-gradient"/><linearGradient id="linear-gradient-3" x1="534.62" y1="1772.58" x2="726.23" y2="1772.58" gradientTransform="matrix(0.96, -0.28, -0.28, -0.96, 72.15, 2061.32)" gradientUnits="userSpaceOnUse"><stop offset="0.16" stop-color="#1173be" stop-opacity="0.9"/><stop offset="1" stop-color="#17a8e2" stop-opacity="0.8"/></linearGradient><linearGradient id="linear-gradient-4" x1="2097.01" y1="338.4" x2="2322.31" y2="338.4" gradientTransform="matrix(1, -0.09, -0.09, -1, -1725.47, 737.49)" xlink:href="#linear-gradient-3"/><linearGradient id="linear-gradient-5" x1="2088.69" y1="268.94" x2="2282.97" y2="268.94" gradientTransform="matrix(1, -0.09, -0.09, -1, -1725.47, 737.49)" xlink:href="#linear-gradient"/></defs><g class="cls-1"><g id="Capa_2" data-name="Capa 2"><g id="Capa_1-2" data-name="Capa 1"><path class="cls-2" d="M383.1,282.65q35.65-15.79,66.82-30.4-13.05-7.4-24.25-15.21-33.82,11.55-71.37,23.62A300,300,0,0,0,383.1,282.65Z"/><path class="cls-3" d="M0,227c14.27,45.41,26.81,91.46,47.3,134.33,45.07-15.63,87-31.27,125.57-46.49A255.57,255.57,0,0,1,142,230.76,1216.88,1216.88,0,0,1,0,227Z"/><path class="cls-4" d="M162.66,227a576,576,0,0,1-76.78-10.36A208.85,208.85,0,0,1,74,172.07c22.84,15.46,50.41,29.36,85.15,39.71Q160.59,219.39,162.66,227Z"/><path class="cls-5" d="M349.18,236.21q22.13-4.49,43.29-9.15a194,194,0,0,1-18.42-33.66q-20.61,2.29-41.83,4.26A204.24,204.24,0,0,0,349.18,236.21Z"/><path class="cls-6" d="M357.41,333.69A259.46,259.46,0,0,1,327.5,239c27.53-1.89,54.64-4.41,81.16-7.41,11.78,19.66,27.61,39.22,48.78,58C426.74,303.71,393.48,318.49,357.41,333.69Z"/><path class="cls-7" d="M347.59,289c0-1.29.82-31.8-18.4-49.4a5.32,5.32,0,0,0-6.78-.3c-.85.64-21.06,15.61-40.16.05a5.3,5.3,0,0,0-6.81.11,46.43,46.43,0,0,0-5.82,6.57,65.7,65.7,0,0,0-10.7-12.74,5.31,5.31,0,0,0-6.79-.3c-1.27,1-31.52,23.46-60.28,0a5.29,5.29,0,0,0-6.81.1c-1.09.95-26.82,23.83-27.47,68.85a5.31,5.31,0,0,0,5.29,5.37l116.36,0a5.28,5.28,0,0,0,5.28-5.11c0-.45.09-3.45-.21-8.09h58A5.29,5.29,0,0,0,347.59,289Zm-179.23,7.77c1.87-28.22,14.79-45.91,20.7-52.61,27.48,19.15,55.51,5.86,65.59-.21,15.6,16.76,18.61,42,19.16,52.8ZM283.12,283.5a106.05,106.05,0,0,0-7.83-27.08,51.74,51.74,0,0,1,4.26-6c17,11,35.12,5.89,45.34-.11,9.06,10.51,11.37,25.44,11.94,33.2Z"/><path class="cls-7" d="M292.8,102H251.57v13a11.77,11.77,0,0,0,11.76,11.77H300l10.42,12a4,4,0,0,0,3,1.37,3.71,3.71,0,0,0,1.52-.32,4,4,0,0,0,2.43-4l-.72-9.08h18.85A11.78,11.78,0,0,0,347.27,115V68.48a11.78,11.78,0,0,0-11.76-11.76H309.83V85A17,17,0,0,1,292.8,102Zm18-16.8V64.65h24.73a3.84,3.84,0,0,1,3.83,3.83V115a3.84,3.84,0,0,1-3.83,3.84H312.37a4,4,0,0,0-3.95,4.28l.1,1.36-3.71-4.28a4,4,0,0,0-3-1.36H263.33A3.84,3.84,0,0,1,259.5,115V102.6h33.89A17.41,17.41,0,0,0,310.78,85.2Z"/><path class="cls-7" d="M149.62,85a17,17,0,0,0,17,17h45.77l-1.29,16.41a4.56,4.56,0,0,0,8,3.35L236.32,102H292.8a17,17,0,0,0,17-17V17a17,17,0,0,0-17-17H166.65a17,17,0,0,0-17,17ZM158.76,17a7.9,7.9,0,0,1,7.89-7.9H292.8a7.9,7.9,0,0,1,7.9,7.9V85a7.9,7.9,0,0,1-7.9,7.89H234.24a4.54,4.54,0,0,0-3.45,1.57l-9.47,10.89.59-7.53a4.56,4.56,0,0,0-4.55-4.93H166.65A7.9,7.9,0,0,1,158.76,85Z"/><path class="cls-7" d="M301.65,239.22h0A36.44,36.44,0,1,0,270.59,184q.24-2.46.24-5A49.79,49.79,0,1,0,221,228.81h0a49.44,49.44,0,0,0,35.18-14.6,50,50,0,0,0,9.07-12.46c0,.37-.05.73-.05,1.1A36.43,36.43,0,0,0,301.65,239.22ZM283.4,184.6a25.8,25.8,0,1,1,18.26,44h0a25.79,25.79,0,0,1-18.25-44Zm-34.65,22.13a38.89,38.89,0,0,1-27.69,11.49h0a39.25,39.25,0,1,1,27.71-11.49Z"/></g></g></g></svg>