<svg id="Layer_1" data-name="Layer 1" xmlns="http://www.w3.org/2000/svg" xmlns:xlink="http://www.w3.org/1999/xlink" viewBox="0 0 94.54 72.19"><defs><style>.cls-1,.cls-3,.cls-4{opacity:0.8;}.cls-1{fill:url(#linear-gradient);}.cls-2{fill:#003165;}.cls-3{fill:url(#linear-gradient-2);}.cls-4{fill:url(#linear-gradient-3);}</style><linearGradient id="linear-gradient" x1="2097" y1="12728.6" x2="2596.26" y2="12728.6" gradientTransform="matrix(-0.71, 0.32, -0.41, -0.91, 6930.24, 10909.24)" gradientUnits="userSpaceOnUse"><stop offset="0.16" stop-color="#82bc3f" stop-opacity="0.8"/><stop offset="0.19" stop-color="#78b83f" stop-opacity="0.81"/><stop offset="0.34" stop-color="#4da741" stop-opacity="0.84"/><stop offset="0.5" stop-color="#2b9943" stop-opacity="0.87"/><stop offset="0.66" stop-color="#139044" stop-opacity="0.89"/><stop offset="0.83" stop-color="#058a45" stop-opacity="0.9"/><stop offset="1" stop-color="#008845" stop-opacity="0.9"/></linearGradient><linearGradient id="linear-gradient-2" x1="3353.11" y1="583.97" x2="3395.3" y2="583.97" gradientTransform="matrix(-0.99, 0.12, 0.12, 0.99, 3350.54, -961.69)" xlink:href="#linear-gradient"/><linearGradient id="linear-gradient-3" x1="1630.78" y1="12711.76" x2="1690.25" y2="12711.76" gradientTransform="translate(6777.74 10977.61) rotate(155.79)" xlink:href="#linear-gradient"/></defs><path class="cls-1" d="M37.13,64.37Q17.42,66.2,0,67.46,3.95,61,7,54.71q17.85-3.26,37.47-7.22A150.7,150.7,0,0,1,37.13,64.37Z"/><path class="cls-2" d="M32.52,29.56a2.55,2.55,0,0,0,.93,2.1,7.22,7.22,0,0,0,2.67,1.26V26.13a4.52,4.52,0,0,0-2.7,1.18A3.12,3.12,0,0,0,32.52,29.56Z"/><path class="cls-2" d="M40.71,37.72a9,9,0,0,0-2.79-1.31v6.76a4.62,4.62,0,0,0,2.82-1.08,3,3,0,0,0,.94-2.25A2.49,2.49,0,0,0,40.71,37.72Z"/><path class="cls-2" d="M36.86,13.91A20.91,20.91,0,1,0,57.77,34.82,20.91,20.91,0,0,0,36.86,13.91Zm5.91,30a7.45,7.45,0,0,1-4.85,2v3.55h-1.8V45.88a12.17,12.17,0,0,1-3.9-.87,8.31,8.31,0,0,1-2.94-1.87l1-2.45a8.08,8.08,0,0,0,2.56,1.71,9.77,9.77,0,0,0,3.24.81v-7.3a19.42,19.42,0,0,1-3.28-1.16,5.75,5.75,0,0,1-2.19-1.86,5.37,5.37,0,0,1-.89-3.21,5.93,5.93,0,0,1,1.62-4.21,7.09,7.09,0,0,1,4.74-2V19.87h1.8v3.55A10.88,10.88,0,0,1,41,24a8.64,8.64,0,0,1,2.6,1.35l-.92,2.52a9.19,9.19,0,0,0-4.78-1.76v7.32a23.77,23.77,0,0,1,3.37,1.18,5.89,5.89,0,0,1,2.24,1.83,5.28,5.28,0,0,1,.91,3.22A5.87,5.87,0,0,1,42.77,43.87Z"/><path class="cls-3" d="M87.11,0c3,14.26,6.5,28.44,7.43,43-14.37,2.56-27.92,4.65-40.49,6.34a78.24,78.24,0,0,0-4.31-27.08A373.33,373.33,0,0,0,87.11,0Z"/><path class="cls-4" d="M77.76,69A79.54,79.54,0,0,0,71.6,39.26c-7.64,3.62-15.26,7-22.79,10.15a75.41,75.41,0,0,1-4.37,22.78C54.76,71.38,65.85,70.36,77.76,69Z"/></svg>