<svg xmlns="http://www.w3.org/2000/svg" xmlns:xlink="http://www.w3.org/1999/xlink" viewBox="0 0 123.3 128.36"><defs><style>.cls-1{isolation:isolate;}.cls-10,.cls-2,.cls-3,.cls-4,.cls-6,.cls-9{mix-blend-mode:multiply;}.cls-3{fill:url(#linear-gradient);}.cls-10,.cls-4{opacity:0.6;}.cls-4{fill:url(#linear-gradient-2);}.cls-11,.cls-12,.cls-5,.cls-8{opacity:0.4;mix-blend-mode:screen;}.cls-5{fill:url(#linear-gradient-3);}.cls-6{opacity:0.9;fill:url(#linear-gradient-4);}.cls-7{fill:#001443;}.cls-8{fill:url(#linear-gradient-5);}.cls-9{fill:url(#linear-gradient-6);}.cls-10{fill:url(#linear-gradient-7);}.cls-11{fill:url(#linear-gradient-8);}.cls-12{fill:url(#linear-gradient-9);}</style><linearGradient id="linear-gradient" x1="5673.05" y1="-3044.7" x2="5725.72" y2="-3044.7" gradientTransform="matrix(-0.34, 0.94, 0.94, 0.34, 4899.5, -4283.43)" gradientUnits="userSpaceOnUse"><stop offset="0.16" stop-color="#e98500"/><stop offset="0.34" stop-color="#ec9200"/><stop offset="0.68" stop-color="#f5b500"/><stop offset="1" stop-color="#fedb00"/></linearGradient><linearGradient id="linear-gradient-2" x1="3376.68" y1="13065.16" x2="3498.12" y2="13065.16" gradientTransform="translate(13260.05 -2705.27) rotate(92.7)" xlink:href="#linear-gradient"/><linearGradient id="linear-gradient-3" x1="3430.76" y1="13052.22" x2="3516.88" y2="13052.22" gradientTransform="translate(13260.05 -2705.27) rotate(92.7)" gradientUnits="userSpaceOnUse"><stop offset="0.16" stop-color="#1173be" stop-opacity="0.9"/><stop offset="1" stop-color="#17a8e2" stop-opacity="0.8"/></linearGradient><linearGradient id="linear-gradient-4" x1="483.4" y1="2688.07" x2="667.09" y2="2688.07" gradientTransform="translate(780.62 -2610.28) rotate(26.66)" xlink:href="#linear-gradient"/><linearGradient id="linear-gradient-5" x1="3388.13" y1="13027.91" x2="3462.38" y2="13027.91" xlink:href="#linear-gradient-3"/><linearGradient id="linear-gradient-6" x1="5691.84" y1="-3037.86" x2="5744.51" y2="-3037.86" xlink:href="#linear-gradient"/><linearGradient id="linear-gradient-7" x1="3396.66" y1="13064.21" x2="3518.1" y2="13064.21" gradientTransform="translate(13260.05 -2705.27) rotate(92.7)" xlink:href="#linear-gradient"/><linearGradient id="linear-gradient-8" x1="3450.74" y1="13051.27" x2="3536.86" y2="13051.27" xlink:href="#linear-gradient-3"/><linearGradient id="linear-gradient-9" x1="3408.1" y1="13026.96" x2="3482.36" y2="13026.96" xlink:href="#linear-gradient-3"/></defs><g class="cls-1"><g id="Layer_1" data-name="Layer 1"><g class="cls-2"><path class="cls-3" d="M71.27,0c17.56,4.75,35.34,8.83,52,16C118,33.45,112.69,49.71,107.47,64.67A97.61,97.61,0,0,0,74.89,54.16,467.48,467.48,0,0,0,71.27,0Z"/><path class="cls-4" d="M61,52c1.09,18.95,1.11,37.85.49,56.31a76.16,76.16,0,0,0-14.16-4.58c-3-16.84-6.09-30.09-11.11-45C44.36,56.7,52,52.49,61,52Z"/><path class="cls-5" d="M68.25,111.68q-1.38,8.52-2.83,16.68a73.93,73.93,0,0,0-13.14-6.52q.57-7.91,1-16A77.37,77.37,0,0,1,68.25,111.68Z"/></g><path class="cls-6" d="M52.26,3.31C55.37,17.24,57.84,29.69,59.94,41a114.24,114.24,0,0,0-28.43,8.85C21.86,41.13,11.38,31.88,0,22.22,13.05,13.5,30.13,6.57,52.26,3.31Z"/><path class="cls-7" d="M100,60s0-.05-.07-.07l-17.24-17L94,25a3.54,3.54,0,0,0-.6-.15h0l-.1,0a3.88,3.88,0,0,0-.7,0,2.67,2.67,0,0,0-.75.12,6.53,6.53,0,0,0-1.74.45c-4.81,1.34-17.91,5.68-18.17,5.78s-6.63-11.53-7.19-11.87-2,.94-2,.94c-1.37.12-4.87,20.25-5.62,20.49L56,41.19c-3.21,1.43-12.67,5.68-14.13,7-.84.76-.8,1-.8,1l16.46,5.19c.53,3.43,1.77,11.46,3.12,19.2v0c.46,2.86.92,5.31,1.36,7.44.66,3.45,1.3,6.43,1.83,8.38a17.65,17.65,0,0,0-9,3.65c-.6.53-1.18.43-1.18,1.26v2.59h-7L43,104v15.77H89.66V104l-3.6-7H79.52V94h0v0c-.06-.68-.51-.65-1-1.07-1.43-1.37-4.66-2.88-8.79-3.43L73.7,71.7l3.12-13.79s19.39,3,20.51,3.2c1,.2,2.25-.76,2.6-1C100,60,100,60,100,60Z"/><path class="cls-8" d="M105.23,73.8a99.34,99.34,0,0,0-36.62-10C68.32,74.38,67.77,84.77,67,95a94,94,0,0,1,22.89,17.74C94.85,100.74,100,87.81,105.23,73.8Z"/><g class="cls-2"><path class="cls-9" d="M71.27,20c17.56,4.75,35.34,8.83,52,16C118,53.45,112.69,69.71,107.47,84.67A97.61,97.61,0,0,0,74.89,74.16,467.48,467.48,0,0,0,71.27,20Z"/><path class="cls-10" d="M61,72c1.09,19,1.11,37.85.49,56.31a76.16,76.16,0,0,0-14.16-4.58c-3-16.84-6.09-30.09-11.11-45C44.36,76.7,52,72.49,61,72Z"/><path class="cls-11" d="M68.25,131.68q-1.38,8.52-2.83,16.68a73.93,73.93,0,0,0-13.14-6.52q.57-7.91,1-16A77.37,77.37,0,0,1,68.25,131.68Z"/></g><path class="cls-12" d="M105.23,93.8a99.34,99.34,0,0,0-36.62-10C68.32,94.38,67.77,104.77,67,115a94,94,0,0,1,22.89,17.74C94.85,120.74,100,107.81,105.23,93.8Z"/></g></g></svg>