<svg xmlns="http://www.w3.org/2000/svg" xmlns:xlink="http://www.w3.org/1999/xlink" viewBox="0 0 145.61 117.41"><defs><style>.cls-1{isolation:isolate;}.cls-2{fill:#003165;}.cls-3,.cls-4,.cls-6,.cls-8{mix-blend-mode:multiply;}.cls-3{fill:url(#linear-gradient);}.cls-4{fill:url(#linear-gradient-2);}.cls-5,.cls-7{opacity:0.4;mix-blend-mode:screen;}.cls-6{fill:url(#linear-gradient-3);}.cls-7{fill:url(#linear-gradient-4);}.cls-8{fill:url(#linear-gradient-5);}</style><linearGradient id="linear-gradient" x1="2906.42" y1="10475.1" x2="3059.91" y2="10475.1" gradientTransform="matrix(0.97, -0.25, -0.25, -0.97, -209.39, 10973.33)" gradientUnits="userSpaceOnUse"><stop offset="0.16" stop-color="#1173be" stop-opacity="0.9"/><stop offset="1" stop-color="#17a8e2" stop-opacity="0.8"/></linearGradient><linearGradient id="linear-gradient-2" x1="8409.7" y1="-2146.24" x2="8563.19" y2="-2146.24" gradientTransform="matrix(-0.97, 0.25, 0.25, 0.97, 8817.98, 5.06)" xlink:href="#linear-gradient"/><linearGradient id="linear-gradient-3" x1="1289.26" y1="-894.39" x2="1445.36" y2="-894.39" gradientTransform="matrix(-0.14, 0.99, 0.99, 0.14, 1101.77, -1156.76)" xlink:href="#linear-gradient"/><linearGradient id="linear-gradient-4" x1="12654.54" y1="6740.13" x2="12799.86" y2="6740.13" gradientTransform="matrix(-0.23, -0.97, -0.97, 0.23, 9616.32, 10858.53)" xlink:href="#linear-gradient"/><linearGradient id="linear-gradient-5" x1="1330.28" y1="9531.69" x2="1441.02" y2="9531.69" gradientTransform="matrix(1, 0.02, 0.02, -1, -1492.98, 9587.9)" xlink:href="#linear-gradient"/></defs><g class="cls-1"><g id="Layer_1" data-name="Layer 1"><path class="cls-2" d="M94.46,34.32l-6.59,6.59c-.33,0-.66-.08-1-.1-2.36-1-6.56-1.63-11.49,2.16l-.12.11L73.66,44.7c-6.09-4.13-10.93-1.58-12.29-.69L55.3,38,36.18,57.07l7.25,7.25a18.49,18.49,0,0,0,3.46,9.94,25.45,25.45,0,0,0,3.17,3.85c1.49,1.52,3,3,4.51,4.52-1.63,2.37-.93,4.34.77,6.11s3.39,2.05,5.78,1.36c0,0,.05,0,.06,0,1.72,2.57,3.3,3.82,5,3.95.7.69,1.41,1.39,2.12,2.07a6.62,6.62,0,0,0,7.87,1,4.5,4.5,0,0,0,1.85-2c4.3,3.61,7.17,3.68,10.56-1.39a0,0,0,0,1,0,0c2.4.69,4,.47,5.79-1.36s2.48-4,.47-6.53c0,0-.53-.69-.51-.69a4,4,0,0,0,3.19-1.67c1.67-2.16,1.56-4.42-.22-6.64.78-.79,1.57-1.56,2.35-2.35a26.48,26.48,0,0,0,3.17-3.85,18.55,18.55,0,0,0,3.46-10l7.25-7.25Zm-43.24,41a17.64,17.64,0,0,1-4.57-7.8,14.65,14.65,0,0,1-.34-2,13.84,13.84,0,0,1-.05-1.71l-7.35-7.35,15.8-15.81,5.07,5.07.33.33,0,.06,2.45.2.16-.4c1-.65,5-2.88,10.32,1.2l7.08,7.11a1.91,1.91,0,0,1,.55,1.34,1.86,1.86,0,0,1-.56,1.34l-.46.47a1.91,1.91,0,0,1-2.69,0L69.7,50.11l-1.76,1.23,2,2.29.85.86L68.25,57a1.55,1.55,0,0,0-.38.66l-.12.13q-7.3,7.31-14.6,14.62A7.42,7.42,0,0,0,51.22,75.34ZM74.69,95.06a2.44,2.44,0,0,1-2,.79,4.18,4.18,0,0,1-2.52-1.53l-1-1a16.21,16.21,0,0,0,2.56-1.8,4.4,4.4,0,0,0,1.85,2,6.05,6.05,0,0,0,1.54.64A1.93,1.93,0,0,1,74.69,95.06Zm10.43-1C84,95.35,82.79,95.46,81.21,94l-.73-.69a7.13,7.13,0,0,0,1-.78l2.71-2.65.29.29C86,91.66,86.15,92.87,85.12,94.08Zm7.57-4c-1.1,1.5-2.78,1.53-4.28,0-.75-.75-1.49-1.5-2.24-2.24l3.69-3.6,2.08,2.07C93.28,87.73,93.51,89,92.69,90.12Zm3.06-8.86a2.54,2.54,0,0,1-3.53,1.33,2.92,2.92,0,0,1-.37-.24C93,81.18,94.2,80,95.38,78.81A2.3,2.3,0,0,1,95.75,81.26Zm7.76-21.05a12.11,12.11,0,0,1-.06,1.71,12.91,12.91,0,0,1-.33,2,17.69,17.69,0,0,1-4.6,7.83c-3,3.16-6.15,6.18-9.23,9.27-3.24,3.23-6.46,6.48-9.72,9.69a4.21,4.21,0,0,1-2.52,1.52,2.4,2.4,0,0,1-2-.79A2.88,2.88,0,0,1,74.61,89a5.58,5.58,0,0,1,1.56-2.2c1.47-1.51,3-3,4.46-4.48.73-.73,1.45-1.46,2.16-2.2s3-2.44,1.74-3.61-2.78,1-3.47,1.69l-2.19,2.17c-3.42,3.34-6.8,6.74-10.31,10-1.59,1.47-2.83,1.36-3.91.08s-.84-2.42.66-3.91L77,74.89c.54-.55,1-.9,1.11-1.73.08-.62-.15-1.16-.78-1.26a2.27,2.27,0,0,0-2.22.93q-6.86,6.86-13.7,13.7c-1.5,1.5-3.18,1.46-4.28,0-.82-1.12-.59-2.39.74-3.73q7-7,13.93-13.93c.76-.75,1.36-1.6.43-2.47s-1.65-.1-2.33.59Q64.5,72.33,59.11,77.69A7.94,7.94,0,0,1,57.55,79,2.54,2.54,0,0,1,54,77.64c-.57-1.43.16-2.34,1.07-3.24Q64,65.52,72.85,56.6L75.28,59a4.24,4.24,0,0,0,6,0l.47-.46a4.25,4.25,0,0,0,.14-5.85L76.5,47.3h0l-1.06-1.07,1.44-1.44a10.06,10.06,0,0,1,11.51-1.08L90,42.12l5.06-5.07,15.81,15.8Z"/><path class="cls-3" d="M39.32,117.41c5-10.82,9.24-20.55,13-29.43A95.47,95.47,0,0,1,30.64,75.7C21.21,81.13,11,86.82,0,92.69,9.11,102.12,21.82,110.81,39.32,117.41Z"/><path class="cls-4" d="M102.63,3.05c-5,10.82-9.24,20.55-13,29.43a95.47,95.47,0,0,1,21.64,12.28c9.43-5.43,19.63-11.12,30.64-17C132.84,18.34,120.13,9.64,102.63,3.05Z"/><g class="cls-5"><path class="cls-6" d="M11.68,25c9,9.73,17.29,18.2,24.88,25.79A106.45,106.45,0,0,1,58.36,33.6c-1.62-12-2.65-19.77-4.06-33.6C54.3,0,21.9,5.41,11.68,25Z"/></g><path class="cls-7" d="M145.61,77.56c-12-5.79-22.72-10.69-32.54-15A106.16,106.16,0,0,1,99,86.42c5.86,10.62,7.9,14.14,14.23,26.52C113.2,112.94,137.92,96.93,145.61,77.56Z"/><path class="cls-8" d="M35.11,98.2c5.56-6.56,10.37-12.52,14.66-18A68.77,68.77,0,0,1,37.08,67.53c-7.6,2-15.78,4-24.57,5.93C17,81.77,24.21,90.25,35.11,98.2Z"/></g></g></svg>