<svg xmlns="http://www.w3.org/2000/svg" xmlns:xlink="http://www.w3.org/1999/xlink" viewBox="0 0 140.09 146.63"><defs><style>.cls-1{isolation:isolate;}.cls-2,.cls-4,.cls-5,.cls-6,.cls-9{mix-blend-mode:multiply;}.cls-2{fill:url(#linear-gradient);}.cls-3,.cls-7{opacity:0.4;mix-blend-mode:screen;}.cls-3{fill:url(#linear-gradient-2);}.cls-4{fill:url(#linear-gradient-3);}.cls-5{fill:url(#linear-gradient-4);}.cls-6{fill:url(#linear-gradient-5);}.cls-7{fill:url(#linear-gradient-6);}.cls-8{font-size:103.63px;fill:#001443;font-family:Antonio-Regular, Antonio;letter-spacing:-0.04em;}.cls-9{fill:url(#linear-gradient-7);}</style><linearGradient id="linear-gradient" x1="3192.79" y1="12628.59" x2="3346.28" y2="12628.59" gradientTransform="matrix(0.97, -0.25, -0.25, -0.97, 63.43, 13134.4)" gradientUnits="userSpaceOnUse"><stop offset="0.16" stop-color="#1173be" stop-opacity="0.9"/><stop offset="1" stop-color="#17a8e2" stop-opacity="0.8"/></linearGradient><linearGradient id="linear-gradient-2" x1="16191.96" y1="-1881.16" x2="16235.97" y2="-1881.16" gradientTransform="matrix(-0.13, -0.99, 0.99, -0.13, 4122.63, 15907.09)" xlink:href="#linear-gradient"/><linearGradient id="linear-gradient-3" x1="15923.67" y1="-3096.91" x2="16077.16" y2="-3096.91" gradientTransform="matrix(-0.97, 0.25, 0.25, 0.97, 16330.54, -943.13)" xlink:href="#linear-gradient"/><linearGradient id="linear-gradient-4" x1="3368.1" y1="-3290.33" x2="3524.2" y2="-3290.33" gradientTransform="matrix(0.01, 1, 1, -0.01, 3286.5, -3411.16)" xlink:href="#linear-gradient"/><linearGradient id="linear-gradient-5" x1="15758.62" y1="12822.26" x2="15903.94" y2="12822.26" gradientTransform="matrix(-0.01, -1, -1, 0.01, 13134.98, 15714.83)" xlink:href="#linear-gradient"/><linearGradient id="linear-gradient-6" x1="2058.11" y1="12598.59" x2="2102.13" y2="12598.59" gradientTransform="matrix(0.13, 0.99, -0.99, 0.13, 12271.34, -3715.81)" xlink:href="#linear-gradient"/><linearGradient id="linear-gradient-7" x1="1334.93" y1="10669.17" x2="1445.66" y2="10669.17" gradientTransform="matrix(1, 0.02, 0.02, -1, -1503.42, 10729.09)" xlink:href="#linear-gradient"/></defs><g class="cls-1"><g id="Layer_1" data-name="Layer 1"><path class="cls-2" d="M54.44,121.41c5-10.82,9.24-20.55,13-29.44A95.46,95.46,0,0,1,45.76,79.7c-9.43,5.43-19.63,11.12-30.64,17C24.23,106.12,36.94,114.81,54.44,121.41Z"/><path class="cls-3" d="M58.88,115.49c15.18-.76,30.43-.94,45.33-3.83-1.21-15.18-2.68-29.4-4.28-42.55a81.48,81.48,0,0,1-28.48,2.8A388.44,388.44,0,0,1,58.88,115.49Z"/><path class="cls-4" d="M100.77,1c-5,10.82-9.24,20.55-13,29.43a95.46,95.46,0,0,1,21.64,12.27c9.43-5.42,19.63-11.11,30.64-17C131,16.29,118.27,7.6,100.77,1Z"/><path class="cls-5" d="M17.85,31.06c10.4,8.27,19.83,15.41,28.47,21.77a105.82,105.82,0,0,1,19-20.21C61.9,21,59.72,13.47,56.25,0,56.25,0,25,10.21,17.85,31.06Z"/><path class="cls-6" d="M128.5,100.56C118.1,92.29,108.67,85.15,100,78.79A106.11,106.11,0,0,1,81.06,99c3.39,11.65,4.62,15.53,8.08,29C89.14,128,116.77,117.77,128.5,100.56Z"/><path class="cls-7" d="M87.21,16.13C72,16.89,56.79,17.07,41.89,20c1.21,15.19,2.67,29.41,4.28,42.56a81.42,81.42,0,0,1,28.47-2.8A388.44,388.44,0,0,1,87.21,16.13Z"/><text class="cls-8" transform="translate(0 112.72)">+30</text><path class="cls-9" d="M50.23,102.19c5.56-6.56,10.37-12.51,14.67-18A68.77,68.77,0,0,1,52.21,71.53c-7.61,2-15.79,4-24.57,5.92C32.16,85.76,39.33,94.25,50.23,102.19Z"/></g></g></svg>