<svg id="Layer_1" data-name="Layer 1" xmlns="http://www.w3.org/2000/svg" xmlns:xlink="http://www.w3.org/1999/xlink" viewBox="0 0 33.75 33.67"><defs><style>.cls-1{fill:#d2d3d7;}.cls-2{fill:url(#Degradado_sin_nombre_25);}.cls-3{fill:none;}.cls-4{fill:url(#Degradado_sin_nombre_13);}</style><linearGradient id="Degradado_sin_nombre_25" x1="29.49" y1="-1.21" x2="3.19" y2="36.54" gradientUnits="userSpaceOnUse"><stop offset="0" stop-color="#f1f1f2"/><stop offset="1" stop-color="#fff"/></linearGradient><linearGradient id="Degradado_sin_nombre_13" x1="24.77" y1="6.63" x2="5.29" y2="31.95" gradientUnits="userSpaceOnUse"><stop offset="0" stop-color="#232323"/><stop offset="1" stop-color="#444242"/></linearGradient></defs><path class="cls-1" d="M16.83,33.67a16.76,16.76,0,0,1-8.39-2.26L1.88,33.67l1.35-7A16.58,16.58,0,0,1,0,16.83,16.84,16.84,0,1,1,16.83,33.67Z"/><path class="cls-2" d="M16.92,33.67a16.7,16.7,0,0,1-8.39-2.26L2,33.67l1.34-7A16.64,16.64,0,0,1,.09,16.83,16.83,16.83,0,1,1,16.92,33.67Z"/><path class="cls-3" d="M16.92,6.65a10.17,10.17,0,0,0-8,16.44L8.22,26.6l3.31-1.14A10.18,10.18,0,1,0,16.92,6.65Z"/><path class="cls-4" d="M16.92,27.83a10.91,10.91,0,0,1-5.48-1.48L7.15,27.83,8,23.29a10.86,10.86,0,0,1-2.11-6.46,11,11,0,1,1,11,11Zm-5.29-3.27.34.2a9.26,9.26,0,0,0,5,1.43,9.38,9.38,0,1,0-7.37-3.6l.23.29L9.3,25.36Zm-.38-9.31c.32,1.42,1.69,3,3.22,4.51a10.1,10.1,0,0,0,5.63,2.52,3.34,3.34,0,0,0,2.3-1.12,2.72,2.72,0,0,0,.41-1.42.41.41,0,0,0-.23-.42s-1.88-.94-2.32-1.14a.58.58,0,0,0-.69.14s-.82,1-1,1.17a.52.52,0,0,1-.39.12,8.4,8.4,0,0,1-2.51-1.47,13.46,13.46,0,0,1-1.55-1.9.59.59,0,0,1,0-.71,5.88,5.88,0,0,0,.7-.82.76.76,0,0,0,.08-.67s-.82-2-1-2.35-.86-.34-1.39-.27-1.17,1.19-1.17,1.19C11,13.19,10.93,13.83,11.25,15.25Z"/></svg>