<svg id="Layer_1" data-name="Layer 1" xmlns="http://www.w3.org/2000/svg" xmlns:xlink="http://www.w3.org/1999/xlink" viewBox="0 0 33.75 33.67"><defs><style>.cls-1{fill:#d2d3d7;}.cls-2{fill:url(#Degradado_sin_nombre_25);}.cls-3,.cls-4,.cls-5,.cls-6{fill:none;}.cls-4{stroke-miterlimit:10;stroke:url(#Degradado_sin_nombre_13);}.cls-4,.cls-5,.cls-6{stroke-width:1.5px;}.cls-5,.cls-6{stroke-linecap:round;stroke-linejoin:round;}.cls-5{stroke:url(#Degradado_sin_nombre_13-2);}.cls-6{stroke:url(#Degradado_sin_nombre_13-3);}</style><linearGradient id="Degradado_sin_nombre_25" x1="29.49" y1="-1.21" x2="3.19" y2="36.54" gradientUnits="userSpaceOnUse"><stop offset="0" stop-color="#f1f1f2"/><stop offset="1" stop-color="#fff"/></linearGradient><linearGradient id="Degradado_sin_nombre_13" x1="24.23" y1="7.39" x2="9.62" y2="26.39" gradientUnits="userSpaceOnUse"><stop offset="0" stop-color="#232323"/><stop offset="1" stop-color="#444242"/></linearGradient><linearGradient id="Degradado_sin_nombre_13-2" x1="25.8" y1="9.26" x2="18.13" y2="19.23" xlink:href="#Degradado_sin_nombre_13"/><linearGradient id="Degradado_sin_nombre_13-3" x1="12.5" y1="13.01" x2="11.07" y2="14.87" xlink:href="#Degradado_sin_nombre_13"/></defs><path class="cls-1" d="M16.83,33.67a16.76,16.76,0,0,1-8.39-2.26L1.88,33.67l1.35-7A16.58,16.58,0,0,1,0,16.83,16.84,16.84,0,1,1,16.83,33.67Z"/><path class="cls-2" d="M16.92,33.67a16.7,16.7,0,0,1-8.39-2.26L2,33.67l1.34-7A16.64,16.64,0,0,1,.09,16.83,16.83,16.83,0,1,1,16.92,33.67Z"/><path class="cls-3" d="M16.92,6.65a10.17,10.17,0,0,0-8,16.44L8.22,26.6l3.31-1.14A10.18,10.18,0,1,0,16.92,6.65Z"/><rect class="cls-4" x="5.92" y="10.41" width="21.99" height="12.96" rx="1.51"/><line class="cls-5" x1="16.83" y1="17.29" x2="27.1" y2="11.21"/><line class="cls-6" x1="16.83" y1="17.29" x2="6.74" y2="10.59"/></svg>