<svg id="Layer_1" data-name="Layer 1" xmlns="http://www.w3.org/2000/svg" xmlns:xlink="http://www.w3.org/1999/xlink" viewBox="0 0 105.92 76.4"><defs><style>.cls-1,.cls-2,.cls-5{opacity:0.8;}.cls-1{fill:url(#linear-gradient);}.cls-2{fill:url(#linear-gradient-2);}.cls-3{fill:#003165;}.cls-3,.cls-4{fill-rule:evenodd;}.cls-4{fill:none;stroke:#003165;stroke-linecap:round;stroke-linejoin:round;stroke-width:2px;}.cls-5{fill:url(#linear-gradient-3);}</style><linearGradient id="linear-gradient" x1="-1724.53" y1="9105.45" x2="-1584.9" y2="9105.45" gradientTransform="matrix(0.67, 0.74, 0.74, -0.67, -5611.2, 7402.89)" gradientUnits="userSpaceOnUse"><stop offset="0.16" stop-color="#82bc3f" stop-opacity="0.8"/><stop offset="0.19" stop-color="#78b83f" stop-opacity="0.81"/><stop offset="0.34" stop-color="#4da741" stop-opacity="0.84"/><stop offset="0.5" stop-color="#2b9943" stop-opacity="0.87"/><stop offset="0.66" stop-color="#139044" stop-opacity="0.89"/><stop offset="0.83" stop-color="#058a45" stop-opacity="0.9"/><stop offset="1" stop-color="#008845" stop-opacity="0.9"/></linearGradient><linearGradient id="linear-gradient-2" x1="-2187.72" y1="12156.57" x2="-1688.46" y2="12156.57" gradientTransform="matrix(0.77, -0.12, -0.16, -0.99, 3474.6, 11829.64)" xlink:href="#linear-gradient"/><linearGradient id="linear-gradient-3" x1="-460.76" y1="10384.75" x2="-401.28" y2="10384.75" gradientTransform="matrix(0.44, 0.9, 0.9, -0.44, -9115.93, 4982.55)" xlink:href="#linear-gradient"/></defs><path class="cls-1" d="M1.62,59.5c10.84-.53,20.47-1.23,29.2-2a86.4,86.4,0,0,1,.75-22.62C23.21,29.58,14.32,23.77,4.94,17.38,1.19,28.7-.45,42.61,1.62,59.5Z"/><path class="cls-2" d="M73.2,74.57c19.24-4.87,27.24-9.11,32.72-17.83L93.09,49.93C82.91,58.58,78.65,61.62,57.82,64.48,63.58,63.69,67.59,71.34,73.2,74.57Z"/><path class="cls-3" d="M74.46,23.49a26.12,26.12,0,0,0-8-5.25,25.76,25.76,0,0,0-27.7,5.25,23.92,23.92,0,0,0-5.41,7.83,23.69,23.69,0,0,0,0,19.1,23.31,23.31,0,0,0,5.41,7.78,24.82,24.82,0,0,0,8,5.25,25.66,25.66,0,0,0,19.67,0,24.87,24.87,0,0,0,8-5.25,24.13,24.13,0,0,0,7.41-17.36,23.37,23.37,0,0,0-2-9.52,24.7,24.7,0,0,0-5.41-7.83ZM42.58,21.84a5.58,5.58,0,0,0,.72-.51,20.16,20.16,0,0,1,4-2.06,24.89,24.89,0,0,1,9.32-1.8,24.36,24.36,0,0,1,6.39.82,12.69,12.69,0,0,0-3.51,2.31,23.24,23.24,0,0,0-4.17-.05,26,26,0,0,0-5.51,1.19A20.63,20.63,0,0,0,46,23.44c-1.34-.47-3-1-3.86-1.29.1.05.36-.21.46-.31ZM65.6,28,61.28,39.45,50.92,41.36c-5.87-5.87-11.48-8-5.25-15.91a20.88,20.88,0,0,1,4.69-2.27,22.12,22.12,0,0,1,5.1-1.08,23.24,23.24,0,0,1,4.17,0ZM33.42,40a19.27,19.27,0,0,0-.21,5.15c-.21-.41-.36-.72-.51-1a23.5,23.5,0,0,1,1.95-13,25.55,25.55,0,0,0,0,4.38A18.71,18.71,0,0,0,33.42,40Zm2.06,9a26.39,26.39,0,0,1-.67-3.66,20.6,20.6,0,0,1,.15-5.1,18.48,18.48,0,0,1,1-3.6c6.38-5.25,8.6.57,13.75,5.77l-.88,9.21c-7.57,2.48-8.29,4.49-13.33-2.62ZM52.11,63.86a24.58,24.58,0,0,1-6-1.9,24,24,0,0,1-4.64-2.89c2.32-4-3.4-2.37,8.09-6.07l9.57,4c1.75,7.11,2,6.54-7,6.85Zm24.3-9.68a22,22,0,0,1-5.19,5.3c-7.16,4.9-9.07,2.89-10.51-2.88l6.75-6.85c7.72-.67,8.8-2.83,9.37,3.86a4.87,4.87,0,0,0-.42.57Zm-8.85-6-4.79-8.14,4.32-11.48,6.13.41a21.31,21.31,0,0,1,3.4,3.45,18.81,18.81,0,0,1,2.83,5.2c-1.34,11.53-1.85,9.68-11.89,10.56ZM79.71,34.35a20.49,20.49,0,0,0-1.8-2.83A23.33,23.33,0,0,0,74,27.61a11.46,11.46,0,0,0-3-5.51s0,0,.1,0,.26.2.36.31A22.14,22.14,0,0,1,75.23,26a23.25,23.25,0,0,1,4.53,8.29,0,0,0,0,0-.05.05Z"/><path class="cls-4" d="M56.59,67.71s-2,.35-2,7.69"/><path class="cls-4" d="M62.59,67.71s-2,.35-2,7.69"/><path class="cls-4" d="M68.59,66.44s-2,1.62-2,9"/><path class="cls-4" d="M74.59,66.44s-2,1.62-2,9"/><path class="cls-4" d="M80.59,66.44s-2,1.62-2,9"/><path class="cls-4" d="M86.59,66.44s-2,1.62-2,9"/><path class="cls-4" d="M26.59,66.44s-2,1.62-2,9"/><path class="cls-4" d="M32.59,66.44s-2,1.62-2,9"/><path class="cls-4" d="M38.59,66.44s-2,1.62-2,9"/><path class="cls-4" d="M44.59,66.44s-2,1.62-2,9"/><path class="cls-4" d="M50.59,67.71s-2,.35-2,7.69"/><path class="cls-5" d="M0,19A79.47,79.47,0,0,1,23.76,0c3.57,7.66,7.27,15.13,11,22.37A75.72,75.72,0,0,0,23.6,42.68C16.19,35.47,8.31,27.59,0,19Z"/></svg>