<svg xmlns="http://www.w3.org/2000/svg" xmlns:xlink="http://www.w3.org/1999/xlink" viewBox="0 0 79.68 131.68"><defs><style>.cls-1{isolation:isolate;}.cls-2{fill:#003165;}.cls-3,.cls-4,.cls-6{mix-blend-mode:multiply;}.cls-4{fill:url(#linear-gradient);}.cls-5,.cls-7{opacity:0.4;mix-blend-mode:screen;}.cls-5{fill:url(#linear-gradient-2);}.cls-6{opacity:0.9;fill:url(#linear-gradient-3);}.cls-7{fill:url(#linear-gradient-4);}</style><linearGradient id="linear-gradient" x1="2124.63" y1="-586.73" x2="2159.5" y2="-586.73" gradientTransform="matrix(-0.34, 0.94, 0.94, 0.34, 1341.16, -1791.51)" gradientUnits="userSpaceOnUse"><stop offset="0.16" stop-color="#e98500"/><stop offset="0.34" stop-color="#ec9200"/><stop offset="0.68" stop-color="#f5b500"/><stop offset="1" stop-color="#fedb00"/></linearGradient><linearGradient id="linear-gradient-2" x1="894" y1="8732.92" x2="951.01" y2="8732.92" gradientTransform="translate(8835.35 -387.27) rotate(92.7)" gradientUnits="userSpaceOnUse"><stop offset="0.16" stop-color="#1173be" stop-opacity="0.9"/><stop offset="1" stop-color="#17a8e2" stop-opacity="0.8"/></linearGradient><linearGradient id="linear-gradient-3" x1="561.32" y1="1102.47" x2="682.93" y2="1102.47" gradientTransform="translate(1.11 -1222.87) rotate(26.66)" xlink:href="#linear-gradient"/><linearGradient id="linear-gradient-4" x1="900.75" y1="8748.79" x2="949.91" y2="8748.79" xlink:href="#linear-gradient-2"/></defs><g class="cls-1"><g id="Layer_1" data-name="Layer 1"><path class="cls-2" d="M21.3,69.83A21.3,21.3,0,1,0,41.4,98.14c1.44.06,2.75.08,3.83.08,6.54,0,21.75-.69,21.75-7.1V82.46a2.88,2.88,0,0,0,.06-.59,2.51,2.51,0,0,0-.06-.55v-7a2.88,2.88,0,0,0,.06-.59,2.51,2.51,0,0,0-.06-.55V65.3a2.81,2.81,0,0,0,.06-.59,3,3,0,0,0-.17-.95,4.15,4.15,0,0,0,.11-.88V54.21a2.78,2.78,0,0,0,.06-.58,2.6,2.6,0,0,0-.06-.56V45.24a2.88,2.88,0,0,0,.06-.59,3,3,0,0,0-.18-1,2.68,2.68,0,0,0-1.15-1.55c-4.45-3.77-18.6-3.9-20.48-3.9s-16,.13-20.48,3.9a2.66,2.66,0,0,0-1.14,1.55,2.72,2.72,0,0,0-.19,1,2.88,2.88,0,0,0,.06.59v7.83a2.6,2.6,0,0,0-.06.56,2.78,2.78,0,0,0,.06.58v8.67a4.15,4.15,0,0,0,.11.88,3,3,0,0,0-.17.95,2.81,2.81,0,0,0,.06.59v4.64A19.77,19.77,0,0,0,21.3,69.83ZM64.5,91a.76.76,0,0,0,0,.15v.07c-.12,2.39-8.71,4.32-19.26,4.32-1,0-2.07,0-3.08-.06a21.07,21.07,0,0,0,.44-4.31c0-.37,0-.75,0-1.12,1,0,1.89,0,2.67,0,4.9,0,14.68-.39,19.27-3.28Zm0-8.18a.76.76,0,0,0,0,.15V83c-.12,2.39-8.71,4.32-19.26,4.32-1,0-2,0-3,0A21.27,21.27,0,0,0,40,80.91c2,.12,3.83.16,5.25.16,4.9,0,14.68-.39,19.27-3.29Zm0-20.07a.92.92,0,0,0,0,.16v.07c-.12,2.39-8.71,4.32-19.26,4.32S26.08,65.32,26,62.93a.71.71,0,0,0,0-.14.31.31,0,0,0,0-.09v-5C30.54,60.61,40.33,61,45.23,61s14.68-.39,19.27-3.28ZM45.23,41.35c10.94,0,17.71,2,18.86,3.3C63,45.92,56.17,48,45.23,48s-17.72-2-18.86-3.3C27.51,43.38,34.29,41.35,45.23,41.35Zm0,9.74C47,51.09,59.12,51,64.5,48v5.72a.76.76,0,0,0,0,.15V54c-.12,2.39-8.71,4.32-19.26,4.32S26.08,56.34,26,54a.62.62,0,0,0,0-.13.38.38,0,0,0,0-.1V48C31.33,51,43.5,51.09,45.23,51.09Zm0,20.06c1.73,0,13.89-.11,19.27-3.08v5.72a.86.86,0,0,0,0,.16V74c-.12,2.38-8.71,4.32-19.26,4.32-2.53,0-4.95-.12-7.16-.32A21.29,21.29,0,0,0,26,70.35V68.07C31.33,71,43.5,71.15,45.23,71.15Zm-5.36,20A18.57,18.57,0,1,1,21.3,72.55,18.59,18.59,0,0,1,39.87,91.12Z"/><path class="cls-2" d="M7,91.12A14.35,14.35,0,1,0,21.3,76.77,14.36,14.36,0,0,0,7,91.12Zm26.88,0A12.53,12.53,0,1,1,21.3,78.59,12.55,12.55,0,0,1,33.83,91.12Z"/><path class="cls-2" d="M19.54,82.07v1.54a5.06,5.06,0,0,0-1.91,1.26,4.58,4.58,0,0,0-1.25,3.19,4.42,4.42,0,0,0,.36,1.78,4.85,4.85,0,0,0,1.66,2A10.77,10.77,0,0,0,20.72,93a3.8,3.8,0,0,1,1.28.72.67.67,0,0,1,.16.22.5.5,0,0,1,0,.22.46.46,0,0,1-.18.4,1.44,1.44,0,0,1-.9.25,3.83,3.83,0,0,1-2.22-.67l-.54-.35a.9.9,0,0,0-1.36.45l-.85,2.36a.91.91,0,0,0,.33,1l.31.22a6,6,0,0,0,1.84.86c.25.07.51.13.76.18v1.35a.91.91,0,0,0,.91.91h2.33a.91.91,0,0,0,.91-.91v-1.6a5.26,5.26,0,0,0,2.11-1.44A4.8,4.8,0,0,0,26.84,94a5.08,5.08,0,0,0-.28-1.74,4.87,4.87,0,0,0-1.5-2.08,9,9,0,0,0-2.29-1.3l-.09,0a6.15,6.15,0,0,1-1.54-.8.47.47,0,0,1-.12-.14.5.5,0,0,1,0-.11.29.29,0,0,1,.08-.2,1.07,1.07,0,0,1,.72-.19,3.65,3.65,0,0,1,1.21.19,3.82,3.82,0,0,1,.72.33l.52.3a.9.9,0,0,0,1.3-.47l.88-2.33a.92.92,0,0,0-.39-1.11l-.36-.21a6.66,6.66,0,0,0-2-.77V82.07a.91.91,0,0,0-.91-.91H20.45A.91.91,0,0,0,19.54,82.07Zm1.82,2.21V83h.49v1.15a.91.91,0,0,0,.82.91,5.09,5.09,0,0,1,1.79.49l-.23.61a4.86,4.86,0,0,0-.63-.25,5.55,5.55,0,0,0-1.79-.29,2.78,2.78,0,0,0-2,.7,2.12,2.12,0,0,0-.63,1.51,1.94,1.94,0,0,0,.19.89,2,2,0,0,0,.56.72A7.64,7.64,0,0,0,22,90.56h0a7.06,7.06,0,0,1,1.87,1,3,3,0,0,1,1,1.28A3.57,3.57,0,0,1,25,94a3,3,0,0,1-.75,2h0a3.59,3.59,0,0,1-1.86,1.09.91.91,0,0,0-.7.88v1.36h-.51V98.11a.92.92,0,0,0-.83-.91A5.77,5.77,0,0,1,19.14,97a4.52,4.52,0,0,1-1-.43l.23-.63a6,6,0,0,0,2.78.7,3,3,0,0,0,2.08-.67A2.31,2.31,0,0,0,24,94.16a2.19,2.19,0,0,0-.19-.94,2.35,2.35,0,0,0-.53-.78,5.69,5.69,0,0,0-1.9-1.14,9.18,9.18,0,0,1-1.95-1,3,3,0,0,1-1-1.2,2.57,2.57,0,0,1-.21-1.06A2.81,2.81,0,0,1,19,86.12a3.43,3.43,0,0,1,1.72-1A.9.9,0,0,0,21.36,84.28Z"/><g class="cls-3"><path class="cls-4" d="M45.23,0c11.63,3.14,23.4,5.85,34.45,10.59-3.5,11.55-7,22.32-10.48,32.22a64.82,64.82,0,0,0-21.57-7A307.3,307.3,0,0,0,45.23,0Z"/><path class="cls-5" d="M75.07,97.59q-.91,5.64-1.88,11a49.39,49.39,0,0,0-8.69-4.31q.36-5.24.65-10.62A51.85,51.85,0,0,1,75.07,97.59Z"/><path class="cls-6" d="M38.34,10.52c2.06,9.23,3.7,17.47,5.08,25a75.6,75.6,0,0,0-18.81,5.86C18.21,35.56,11.28,29.44,3.74,23,12.38,17.27,23.69,12.69,38.34,10.52Z"/></g><path class="cls-7" d="M66,105.94a65.7,65.7,0,0,0-24.24-6.6c-.2,7-.56,13.86-1,20.6a62.2,62.2,0,0,1,15.15,11.74C59.1,123.77,62.49,115.21,66,105.94Z"/></g></g></svg>