<svg xmlns="http://www.w3.org/2000/svg" xmlns:xlink="http://www.w3.org/1999/xlink" viewBox="0 0 132.67 95.14"><defs><style>.cls-1{isolation:isolate;}.cls-2{fill:#003165;}.cls-3,.cls-7{opacity:0.4;mix-blend-mode:screen;}.cls-3{fill:url(#linear-gradient);}.cls-4,.cls-5,.cls-6,.cls-8{mix-blend-mode:multiply;}.cls-5{fill:url(#linear-gradient-2);}.cls-6{opacity:0.7;fill:url(#linear-gradient-3);}.cls-7{fill:url(#linear-gradient-4);}.cls-8{fill:url(#linear-gradient-5);}</style><linearGradient id="linear-gradient" x1="10636.9" y1="6932.54" x2="10670.78" y2="6932.54" gradientTransform="matrix(-0.82, -0.57, 0.57, -0.82, 4871.87, 11776.28)" gradientUnits="userSpaceOnUse"><stop offset="0.16" stop-color="#1173be" stop-opacity="0.9"/><stop offset="1" stop-color="#17a8e2" stop-opacity="0.8"/></linearGradient><linearGradient id="linear-gradient-2" x1="10555.14" y1="6979.36" x2="10634.44" y2="6979.36" gradientTransform="matrix(-0.82, -0.57, 0.57, -0.82, 4871.87, 11776.28)" gradientUnits="userSpaceOnUse"><stop offset="0.16" stop-color="#e98500"/><stop offset="0.34" stop-color="#ec9200"/><stop offset="0.68" stop-color="#f5b500"/><stop offset="1" stop-color="#fedb00"/></linearGradient><linearGradient id="linear-gradient-3" x1="10646.84" y1="6946.34" x2="10703.08" y2="6946.34" xlink:href="#linear-gradient-2"/><linearGradient id="linear-gradient-4" x1="10496.75" y1="8560.82" x2="10610.6" y2="8560.82" gradientTransform="translate(8803.17 10438.9) rotate(-169.32)" xlink:href="#linear-gradient"/><linearGradient id="linear-gradient-5" x1="10846.39" y1="4230.33" x2="10880.79" y2="4230.33" gradientTransform="matrix(-0.62, -0.79, -0.79, 0.62, 10159.09, 5979.26)" xlink:href="#linear-gradient"/></defs><g class="cls-1"><g id="Layer_1" data-name="Layer 1"><path class="cls-2" d="M42.18,26.78a1.29,1.29,0,0,0,.8.9,1.27,1.27,0,0,0,1.19-.2l3.27-2.59v16h-4.1a1.23,1.23,0,0,0-1.24,1.24v4a1.23,1.23,0,0,0,1.24,1.24H60.16A1.23,1.23,0,0,0,61,47a1.2,1.2,0,0,0,.37-.88v-4a1.25,1.25,0,0,0-.36-.88,1.27,1.27,0,0,0-.89-.36H56.09V16.73a1.21,1.21,0,0,0-.36-.87,1.22,1.22,0,0,0-.89-.37H49.56a1.27,1.27,0,0,0-.71.22l-7.21,5A1.23,1.23,0,0,0,41.13,22Zm7.42-9.91h5.1V42.25H60V46H43.48V42.25h5.34V22l-5.34,4.22-1-4.48Z"/><path class="cls-2" d="M9.35,63.66a1.19,1.19,0,0,0,1,.8l10.52.86.33,9.77A1.21,1.21,0,0,0,22,76.15a1.27,1.27,0,0,0,.47.09,1.15,1.15,0,0,0,.8-.31L42.82,58.27l.94,2.58a2.72,2.72,0,0,0,2.49,2,3,3,0,0,0,2.24-1.2L52,57.39a1.54,1.54,0,0,1,1.16-.56,1.46,1.46,0,0,1,1,.4l4.07,3.7a3.12,3.12,0,0,0,2,.88,2.39,2.39,0,0,0,1.47-.51L75.89,77a1.2,1.2,0,0,0,.88.39,1.42,1.42,0,0,0,.36-.05,1.22,1.22,0,0,0,.83-1l1.12-9.56,10.49-1a1.19,1.19,0,0,0,.77-2L72.93,44.52a.52.52,0,0,1,.06-.13,1.49,1.49,0,0,1,1-.7l5.36-1.25a2.6,2.6,0,0,0,1.36-4.6l-3.81-4A1.47,1.47,0,0,1,77,31.71l4.16-3.59a2.82,2.82,0,0,0,1.09-2.67,2.81,2.81,0,0,0-2-2L75,21.66a1.46,1.46,0,0,1-.91-2l2-5.11a2.86,2.86,0,0,0-.16-2.72,2.7,2.7,0,0,0-2.85-1l-5.43.88a1.47,1.47,0,0,1-1.72-1.31L65.31,5A2.62,2.62,0,0,0,62.8,2.34a3.16,3.16,0,0,0-1.89.7l-4.4,3.3A1.51,1.51,0,0,1,54.37,6L51.31,1.42A2.86,2.86,0,0,0,49,0a2.75,2.75,0,0,0-2.44,1.77l-2.36,5a1.5,1.5,0,0,1-2.06.67L37.27,4.8a2.71,2.71,0,0,0-3.33.28,3,3,0,0,0-.75,2.26l.22,5.49a1.47,1.47,0,0,1-.41,1.1,1.49,1.49,0,0,1-1.1.45l-5.55-.06a2.8,2.8,0,0,0-2.54,1.27A2.84,2.84,0,0,0,24,18.46l2.75,4.76a1.51,1.51,0,0,1,.14,1.17,1.49,1.49,0,0,1-.76.91l-4.9,2.49a2.85,2.85,0,0,0-1.71,2.33A2.85,2.85,0,0,0,21,32.59l4.64,2.94a1.47,1.47,0,0,1,.68,1,1.49,1.49,0,0,1-.26,1.15l-3.18,4.49a2.6,2.6,0,0,0,2,4.35l2.22.18L9.68,62.39A1.21,1.21,0,0,0,9.35,63.66ZM73.29,54.2,73.5,54a2.55,2.55,0,0,0,.54-.5,2.94,2.94,0,0,0,.34-2.61l-.5-1.7L87,63.66l-9.09.84a1.19,1.19,0,0,0-1.07,1l-.93,7.9L62.86,59l1-5a1.63,1.63,0,0,1,.2-.49,1.44,1.44,0,0,1,1.06-.12l5.32,1.38h0A2.85,2.85,0,0,0,73.29,54.2Zm-48.2-10a.91.91,0,0,1-.53-.16v0h0a1.08,1.08,0,0,1,.22-.46L28,39a5.17,5.17,0,0,0,.39-.68A3.87,3.87,0,0,0,28.6,36a3.82,3.82,0,0,0-1.72-2.48l-4.65-3a1,1,0,0,1-.3-.25h0a.34.34,0,0,1-.08-.13s.1-.19.43-.36l2.52-1.28,2.38-1.21a3.82,3.82,0,0,0,1.94-2.32,3.76,3.76,0,0,0-.3-2.88l-.06-.12L26,17.29a1,1,0,0,1-.17-.48v0l.05,0a1.23,1.23,0,0,1,.49-.08l1.42,0,4.13,0a3.83,3.83,0,0,0,2.77-1.17,3.9,3.9,0,0,0,.81-1.29s0-.1,0-.14a4,4,0,0,0,.2-1.38l-.22-5.49c0-.37.08-.53.15-.56a1.1,1.1,0,0,1,.48.16l4,2.15.86.47.18.08a3.84,3.84,0,0,0,1.66.38,3.76,3.76,0,0,0,2.59-1,4,4,0,0,0,.85-1.16l2.36-5a2.09,2.09,0,0,1,.13-.23,1.56,1.56,0,0,1,.17-.2l0,0,.09,0a.19.19,0,0,1,.07.06,1,1,0,0,1,.25.28l2.08,3.09,1,1.47A3.86,3.86,0,0,0,55.6,9a4.53,4.53,0,0,0,.74-.07,4,4,0,0,0,1.57-.7l1.8-1.35,2.6-1.95a1,1,0,0,1,.46-.23h0A.87.87,0,0,1,63,5.2l.59,5.47a3.87,3.87,0,0,0,.92,2.1,3.39,3.39,0,0,0,.63.57A3.76,3.76,0,0,0,68,14l5.43-.88a1.17,1.17,0,0,1,.55,0,.1.1,0,0,1,0,0,1.11,1.11,0,0,1-.09.51l-2,5.12a2.29,2.29,0,0,0-.12.37h0a.29.29,0,0,0,0,.09,3.65,3.65,0,0,0,.06,2.12,2.65,2.65,0,0,0,.17.44,3.15,3.15,0,0,0,.3.5,3.8,3.8,0,0,0,2,1.51l3.89,1.3,1.32.44a1.44,1.44,0,0,1,.43.22l0,.06a.58.58,0,0,1-.12.23,1,1,0,0,1-.21.22L77,28.61,75.43,30a3.8,3.8,0,0,0-.26,5.54l3.81,4a.91.91,0,0,1,.29.47h0l0,0v0h0a1.11,1.11,0,0,1-.47.2l-5.35,1.25A3.78,3.78,0,0,0,71,43.21a3.87,3.87,0,0,0-.29.62v0a3.76,3.76,0,0,0-.17.66h0A2.58,2.58,0,0,0,70,46.73L71.53,52h0l-5.25-1.36a4.63,4.63,0,0,0-.65-.1l-.33,0h0a3.81,3.81,0,0,0-.59,0l-.13,0a3.92,3.92,0,0,0-.49.13l-.2.07-.3.14-.37.22-.12.08a3.67,3.67,0,0,0-.52.44h0a3.75,3.75,0,0,0-1.6,2.4l-1,4.63a1.15,1.15,0,0,0,.08.73h0L60,59.36h0l-.19-.15L55.7,55.5a4.09,4.09,0,0,0-1-.65,3.9,3.9,0,0,0-1.57-.35,3.74,3.74,0,0,0-1.86.49,3.73,3.73,0,0,0-1.1.92l-3.48,4.26-.14.15a.6.6,0,0,1-.14.11h0a.56.56,0,0,1-.14.07h0s0,0,0,0h0a1,1,0,0,1-.25-.43l-1.27-3.48A1.19,1.19,0,0,0,45,55.33l-.09-.24a3.79,3.79,0,0,0-2.08-2.22,4.07,4.07,0,0,0-1-.28h0a3.22,3.22,0,0,0-.61-.16h0a3.68,3.68,0,0,0-.66-.06,4,4,0,0,0-.77.08h0a4,4,0,0,0-.74.23h0l-4.86,2.06a.66.66,0,0,1,0-.14l.73-5.45h0a3.85,3.85,0,0,0-.81-2.93,3.78,3.78,0,0,0-2.48-1.37h0l-.4-.12a4,4,0,0,0-.6-.11l-1.85-.15Zm4.83,3.19,1.21-.15a1.58,1.58,0,0,1,.3.28,1.44,1.44,0,0,1,.31,1.14L31,54.07a3,3,0,0,0,.61,2.4,2.38,2.38,0,0,0,1.44.77,3,3,0,0,0,2.56,0l5.06-2.15a1.52,1.52,0,0,1,.59-.12,1.49,1.49,0,0,1,.61.74l.06.17L23.54,72.44l-.28-8.26A1.19,1.19,0,0,0,22.17,63l-8.84-.72Z"/><path class="cls-3" d="M11.42,48.65A45.44,45.44,0,0,0,24.08,36.83c-4-2.64-7.93-5.35-11.7-8.08A43.28,43.28,0,0,1,0,33.38C3.45,38.16,7.24,43.25,11.42,48.65Z"/><g class="cls-4"><path class="cls-5" d="M109.1,57.4C98.2,51.5,87.7,45,77.66,38.33A50,50,0,0,0,85.07,32a218.23,218.23,0,0,0,30.6,9.71A84.62,84.62,0,0,1,109.1,57.4Z"/><path class="cls-6" d="M13.27,29Q9,25.34,5,21.73a47.72,47.72,0,0,0,8.13-5.06q4.2,3,8.58,6A51.09,51.09,0,0,1,13.27,29Z"/></g><path class="cls-7" d="M49.39,91.77C45.16,84,41.56,77,38.38,70.6A71,71,0,0,0,53.81,60.48Q64.67,65.83,77.3,71.59C71,79,62,86.05,49.39,91.77Z"/><path class="cls-8" d="M132.67,71.73c-8.67,8.13-17,16.6-26.75,23.41C98,86.21,90.84,77.67,84.32,69.63a63.58,63.58,0,0,0,17-14.49A302.57,302.57,0,0,0,132.67,71.73Z"/></g></g></svg>