<svg xmlns="http://www.w3.org/2000/svg" xmlns:xlink="http://www.w3.org/1999/xlink" viewBox="0 0 128.27 117.67"><defs><style>.cls-1{isolation:isolate;}.cls-2,.cls-7{opacity:0.4;mix-blend-mode:screen;}.cls-2{fill:url(#linear-gradient);}.cls-3,.cls-4,.cls-5,.cls-8{mix-blend-mode:multiply;}.cls-4{fill:url(#linear-gradient-2);}.cls-5{opacity:0.7;fill:url(#linear-gradient-3);}.cls-6{fill:#001443;fill-rule:evenodd;}.cls-7{fill:url(#linear-gradient-4);}.cls-8{fill:url(#linear-gradient-5);}</style><linearGradient id="linear-gradient" x1="19141.96" y1="5524.8" x2="19198.42" y2="5524.8" gradientTransform="matrix(-0.82, -0.57, 0.57, -0.82, 12695.3, 15426.6)" gradientUnits="userSpaceOnUse"><stop offset="0.16" stop-color="#1173be" stop-opacity="0.9"/><stop offset="1" stop-color="#17a8e2" stop-opacity="0.8"/></linearGradient><linearGradient id="linear-gradient-2" x1="19089.95" y1="5561.58" x2="19222.08" y2="5561.58" gradientTransform="matrix(-0.82, -0.57, 0.57, -0.82, 12695.3, 15426.6)" gradientUnits="userSpaceOnUse"><stop offset="0.16" stop-color="#e98500"/><stop offset="0.34" stop-color="#ec9200"/><stop offset="0.68" stop-color="#f5b500"/><stop offset="1" stop-color="#fedb00"/></linearGradient><linearGradient id="linear-gradient-3" x1="19152.71" y1="5552.46" x2="19246.4" y2="5552.46" xlink:href="#linear-gradient-2"/><linearGradient id="linear-gradient-4" x1="19486.95" y1="8946.69" x2="19676.64" y2="8946.69" gradientTransform="translate(17566.58 12484.21) rotate(-169.32)" xlink:href="#linear-gradient"/><linearGradient id="linear-gradient-5" x1="18574.3" y1="7998.54" x2="18631.61" y2="7998.54" gradientTransform="matrix(-0.62, -0.79, -0.79, 0.62, 17891.04, 9727.5)" xlink:href="#linear-gradient"/></defs><g class="cls-1"><g id="Layer_1" data-name="Layer 1"><path class="cls-2" d="M19,53.83A75.38,75.38,0,0,0,40.11,34.14c-6.7-4.41-13.2-8.92-19.49-13.46A71.75,71.75,0,0,1,0,28.38C5.75,36.35,12.06,44.84,19,53.83Z"/><g class="cls-3"><path class="cls-4" d="M89,54.8C70.84,45,53.34,34.17,36.61,23A83,83,0,0,0,49,12.55a365.85,365.85,0,0,0,51,16.18A141.24,141.24,0,0,1,89,54.8Z"/><path class="cls-5" d="M29.55,20.59q-7.1-6.15-13.81-12.16A81.12,81.12,0,0,0,29.29,0q7,5,14.28,10.09A84.59,84.59,0,0,1,29.55,20.59Z"/></g><path class="cls-6" d="M40.76,10s1.44-.46,2.16.46a13.83,13.83,0,0,1,1.64,4.13c.27,1.05,0,3.78.8,4.28,1.23.79-.12,2.19.94,2.49a2.92,2.92,0,0,1,1.61,1.5s2.23-.39,2.63.79-.07,4.4-.14,5.45-1.7,6.17-1.77,7.09a2.69,2.69,0,0,1-1,1.64,11.45,11.45,0,0,0,.52,2.76,13.51,13.51,0,0,1,.53,1.83s.65,3.22,1,4.6.33,1.51-.46,1.84S48,49.81,48,51.25s.79,6.59.26,11.59-.66,9.88-.66,9.88h-.66a24.35,24.35,0,0,1-.65,7.12A50.94,50.94,0,0,0,44.51,87,5.12,5.12,0,0,0,44.65,89a2.94,2.94,0,0,1,.14,2.62,6.39,6.39,0,0,0-.69,2.76c0,.69-2,1.45-3.59,1.38s-1.44-1.18-1-1.87A10.76,10.76,0,0,0,40.93,91c.34-1.24.14-2.14.48-3.38A17.7,17.7,0,0,0,42,82.05V75.5a21.14,21.14,0,0,0-.14-2.89l-4.48-.35s.35,1.66.62,2.9a34.75,34.75,0,0,1,0,6.69c-.14,2.62-.27,5.24.14,5.72a3.76,3.76,0,0,1,.76,3,10.9,10.9,0,0,0-.62,3.11c.07.62-.14.69-.14.69h-.76a9.65,9.65,0,0,0,.28-1.73,1.21,1.21,0,0,0-.21-.83,16.17,16.17,0,0,0-1,1.87c-.21.55,0,1.65-1.8,1.72s-3,.21-3.17-.41.21-1,1.17-1.66a8.44,8.44,0,0,0,2-2.76A5.91,5.91,0,0,0,35,86.54c-.35-1.66-2.07-8.48-2.14-10.62s.07-3.93.07-3.93-1.17-.07-1.52-.07,0-3.59,0-6.21.21-12.13.42-13.58a19.53,19.53,0,0,0,.2-2.41s-.69.34-.55-.55a54.28,54.28,0,0,0,.9-5.38c0-1.17-.14-2.42-.14-2.42s-2.34-.27-2.34-1.65a4.09,4.09,0,0,0-.21-1.86,2,2,0,0,1,0-1.59A19.65,19.65,0,0,0,31,32.34c.48-2.27,1.38-4.82,1.38-5.79s.34-1.17,1.45-1.65.09-.86,1.22-2-.74-1.74.13-3.64.09-4.73.37-6.24S37.48,8.76,40.76,10Z"/><path class="cls-6" d="M89.3,10.2c.68.05,1.46.52,2,2a4.69,4.69,0,0,1,.1,3.65,13,13,0,0,0-.68,2.92c-.21,1-.88,2.6-1.35,2.71s-.32.42-.32.88a3.07,3.07,0,0,0,.32,1.1,11.77,11.77,0,0,0,2.6,1c1.31.31,3.29,1.77,3.44,3.6a4.9,4.9,0,0,0,2.09,3.59c1.09,1,2.19.94,2.55,2.66s.57,4.07-.52,4.54a11.45,11.45,0,0,1-3.75.26,2.46,2.46,0,0,1-.47,1.35,4.42,4.42,0,0,1-1.1.73,39.45,39.45,0,0,1,1.09,5.31c.22,2.15.5,6.66.72,7.73s.36,2-.07,2.36a2,2,0,0,1-.72.43s-.2,4.86-.63,7.85-1.17,6.33-1.75,9.82-1.09,9.17-1.31,10.92-.29,1.89,0,2.62,2.33,2.26,2,2.48l-.37.21s1.46,2,2.69,2,2.7.36,2.7,1.31-3.71.36-5,.36a8.33,8.33,0,0,1-3.2-.94c-.66-.29-.59.29-.59.29A19.69,19.69,0,0,1,87,93.85c-1.17-.14-1.68-.14-1.68-.8v-.94a30.85,30.85,0,0,1,.29-3.86,112.1,112.1,0,0,0,0-12.3c-.14-2.4-.36-4.8-.36-4.8S82.87,79.44,81.56,84s-2.84,9.53-3.2,9.75-.29.51-.29.51A6.52,6.52,0,0,1,79.52,97c.07,1.1.37,1.46-.73,1.61a9.13,9.13,0,0,1-4.58-1.17c-.88-.65-.95-1.31-1.38-1.6a1.25,1.25,0,0,1-.44-1.53,4.24,4.24,0,0,0,.22-.94s-.37-.22.07-2.77,2.4-16.16,3.71-22.27a77.67,77.67,0,0,0,1.68-12c0-.8-.22-.73-.73-1s.51-3.57.65-5.31a32.3,32.3,0,0,0,.25-4.12A11.22,11.22,0,0,1,78.82,43a12,12,0,0,0-.26-5.35c-.71-2.06-1.42-4.5-1.74-5s0-1.93.2-3.86.64-3.93,2.57-5,2.77-1.35,3.28-2.19.18-.93.46-1.1a1.36,1.36,0,0,0,.35-.25s0-.75-.09-1.09-.4-.37-.54-.74a5.43,5.43,0,0,1-.37-2.09c.08-.66.23-.77.23-.77S82.59,12,84,11,87.88,9.15,89.3,10.2Z"/><path class="cls-6" d="M77.53,18.81a3.6,3.6,0,0,1,1.57,2.54c.45,2.38,2.89,10.38,4.1,12.59s1.36,5.2.15,7.05-4.08,6.36-4.5,7-.56,1.09-1.2,1h-.12V38.67c.57-.87,1.18-1.61,1-2.07-.36-.69-.65-.74-1-1.25ZM68,.66c.52.45,1.19,1.34,1.71,1s.37,1.12,1,1.12S72,4.9,71.88,6a19.73,19.73,0,0,1-.45,2.68c-.07.45-.29,2.31-.67,2.31a1.36,1.36,0,0,0-.52.07,10.42,10.42,0,0,0-.44,2.53c0,1.12.15,1.12.15,1.12l.67,1A37.08,37.08,0,0,0,75.53,18a7.3,7.3,0,0,1,2,.81V35.35a6.73,6.73,0,0,1-.62-1.84c0,2.14-.71,5.3-.19,7.38a4,4,0,0,1,.81-2.22V49a4.19,4.19,0,0,0-.94,0,3.48,3.48,0,0,1-.79,1.57c-.49.35-1.13,1.56-1.28,1.14s-.56,3.12-1,5.05S71,72.07,71,74s-.76,3.89-.68,5.26-.23,4.94-.31,6.92-1.9,4-1.9,5.48.46,2.14.23,3A2.25,2.25,0,0,0,69.14,97a3.62,3.62,0,0,1,1.22,2.66c-.08.76-.31,1.07-2.13,1.14s-3.58-.45-3.58-.91-.61-.61-1.14-.61-.46-.53-.23-1.6,1-2.51.53-2.36S63,95.21,63,93.69s-.22-2,.46-2.89.53-2.59.38-4-.61-2.36-.23-4a12.12,12.12,0,0,0,.23-4.56,2.76,2.76,0,0,1,.54-2.52C65,75,64,73.82,64,73.06a48.65,48.65,0,0,0-.15-7.16c-.38-3.19-.46-5.63-.53-6.47s-.54-.45-1.68,2.74-4,13.17-4.57,15.38c-.45,1.9-2,8.85-2.71,12V40.05c.15-.21,0-1.91.43-3.15a22.77,22.77,0,0,0,.68-5.79,29.26,29.26,0,0,1-1.11,3.25V17.55A9.77,9.77,0,0,1,57,17a14.15,14.15,0,0,0,5.56-1.68,6.17,6.17,0,0,0,.89-.84c.19-.2.54-.61.22-.64-.71-.06-.84-2.76-1.2-3.54a2.43,2.43,0,0,1,0-2.06c.25-.71-.23-1.75.38-2.89s-.23-2.51.61-2.67S64,1.5,64.8,1.5,65.72.36,66.55.74,67.39-.17,68,.66ZM54.4,89.53l-.26,1.19c-.38,1.9-.83,5.71-1.37,5.71s-.38.38-.45,1.45-1.14,1.21-1.75,1.44a.54.54,0,0,1-.76-.38s-1,2.06-2.75,2.29-5.1.91-5.1.07A2.58,2.58,0,0,1,43.49,99c1.14-.69,2-2.51,2.43-3s-.15-.31.23-1.22a69.72,69.72,0,0,0,1.75-8.07c.23-1.75.08-7.76.92-10.58s3.42-11.87,3.8-14.39a63.84,63.84,0,0,0,.92-6.39,8.4,8.4,0,0,1,.53-3.27A4.16,4.16,0,0,0,54,49.77s-1,.76-1.6,1.29-.61-.31-.3-1.52.08-1.91-.23-1.53-.53-2-1.29-3.42-2.44-4.42-2.06-6.09.53-4.64,1-6.09.91-4,1.45-5.63a36.84,36.84,0,0,1,1.14-4,17.36,17.36,0,0,0,1.45-4.19c0-.43.19-.78.86-1.08V34.36c-.23.52-.46.9-.64.94-.61.15-.68,1,0,1.37s.23,3,.54,3.35c0,0,.07.06.1,0Z"/><path class="cls-7" d="M32.63,98.65c-7-13-13-24.61-18.34-35.27A117.53,117.53,0,0,0,40,46.52C52.07,52.46,65.1,58.66,79.14,65,68.66,77.38,53.68,89.12,32.63,98.65Z"/><path class="cls-8" d="M128.27,78.68c-14.44,13.54-28.39,27.65-44.57,39-13.13-14.86-25.13-29.1-36-42.49A106.15,106.15,0,0,0,76.09,51,503.22,503.22,0,0,0,128.27,78.68Z"/></g></g></svg>