<svg xmlns="http://www.w3.org/2000/svg" xmlns:xlink="http://www.w3.org/1999/xlink" viewBox="0 0 112.67 119.95"><defs><style>.cls-1{isolation:isolate;}.cls-2,.cls-3,.cls-4,.cls-5,.cls-6,.cls-7{mix-blend-mode:multiply;}.cls-2{fill:url(#linear-gradient);}.cls-3{fill:url(#linear-gradient-2);}.cls-4{opacity:0.7;fill:url(#linear-gradient-3);}.cls-5{fill:url(#linear-gradient-4);}.cls-6{fill:url(#linear-gradient-5);}.cls-7{fill:url(#linear-gradient-6);}.cls-8{font-size:13.49px;fill:#232323;font-family:Antonio-Light, Antonio;font-weight:300;letter-spacing:-0.04em;}.cls-9{font-family:Antonio-Bold, Antonio;font-weight:700;letter-spacing:-0.04em;}.cls-10{fill:#001443;}.cls-11{opacity:0.4;mix-blend-mode:screen;fill:url(#linear-gradient-7);}</style><linearGradient id="linear-gradient" x1="13459.73" y1="15370.28" x2="13752.24" y2="15370.28" gradientTransform="matrix(-0.71, 0.32, -0.41, -0.91, 15982.32, 9765.51)" gradientUnits="userSpaceOnUse"><stop offset="0.16" stop-color="#82bc3f" stop-opacity="0.8"/><stop offset="0.19" stop-color="#78b83f" stop-opacity="0.81"/><stop offset="0.34" stop-color="#4da741" stop-opacity="0.84"/><stop offset="0.5" stop-color="#2b9943" stop-opacity="0.87"/><stop offset="0.66" stop-color="#139044" stop-opacity="0.89"/><stop offset="0.83" stop-color="#058a45" stop-opacity="0.9"/><stop offset="1" stop-color="#008845" stop-opacity="0.9"/></linearGradient><linearGradient id="linear-gradient-2" x1="14317.42" y1="258.08" x2="14358.4" y2="258.08" gradientTransform="matrix(-0.99, 0.12, 0.12, 0.99, 14292.44, -1928.97)" gradientUnits="userSpaceOnUse"><stop offset="0.16" stop-color="#1173be" stop-opacity="0.9"/><stop offset="1" stop-color="#17a8e2" stop-opacity="0.8"/></linearGradient><linearGradient id="linear-gradient-3" x1="12169.36" y1="15368.06" x2="12227.13" y2="15368.06" gradientTransform="translate(17465.55 9098.59) rotate(155.79)" xlink:href="#linear-gradient-2"/><linearGradient id="linear-gradient-4" x1="12468.05" y1="15988.4" x2="12525.02" y2="15988.4" gradientTransform="translate(15780.25 12869.37) rotate(167.22)" xlink:href="#linear-gradient-2"/><linearGradient id="linear-gradient-5" x1="12201.67" y1="15388.99" x2="12268.66" y2="15388.99" gradientTransform="translate(17465.55 9098.59) rotate(155.79)" xlink:href="#linear-gradient-2"/><linearGradient id="linear-gradient-6" x1="13201.62" y1="35548.57" x2="13337.26" y2="35548.57" gradientTransform="matrix(-0.86, 0.51, -0.18, -0.3, 17729.75, 4012.08)" xlink:href="#linear-gradient"/><linearGradient id="linear-gradient-7" x1="12164.51" y1="15396.28" x2="12258.99" y2="15396.28" gradientTransform="translate(17465.55 9098.59) rotate(155.79)" xlink:href="#linear-gradient-2"/></defs><g class="cls-1"><g id="Layer_1" data-name="Layer 1"><path class="cls-2" d="M21.76,96.62c-7.7.72-15,1.31-21.76,1.81Q2.31,94.62,4.09,91q10.46-1.9,22-4.23A92.15,92.15,0,0,1,21.76,96.62Z"/><path class="cls-3" d="M105.45,30.84c2.89,13.86,6.32,27.63,7.22,41.73-14,2.49-27.12,4.52-39.33,6.16a76.12,76.12,0,0,0-4.19-26.3A362.64,362.64,0,0,0,105.45,30.84Z"/><path class="cls-4" d="M64.72,88.48a77.19,77.19,0,0,0-6-28.91c-7.42,3.5-14.82,6.78-22.14,9.86a73.11,73.11,0,0,1-4.25,22.12C42.38,90.76,53.15,89.77,64.72,88.48Z"/><path class="cls-5" d="M67.34,50.07A171.73,171.73,0,0,0,85.77,36.23a62.63,62.63,0,0,0-3.37-13.3A91,91,0,0,1,66.06,45.6C66.54,47.06,67,48.55,67.34,50.07Z"/><path class="cls-6" d="M25.38,74Q19,76,12.82,77.87a57.69,57.69,0,0,0-.11-11.41q5.68-2.4,11.48-5A60.81,60.81,0,0,1,25.38,74Z"/><path class="cls-7" d="M62.8,92.48c-7.18.94-20.95.48-26.58,1.06A105.6,105.6,0,0,0,47.16,80.92Q59.81,75,74.34,68C71.19,74,72.77,82.76,62.8,92.48Z"/><text class="cls-8" transform="matrix(0.89, 0, -0.45, 0.89, 18.03, 115.66)">MINI <tspan class="cls-9" x="20.44" y="0">FÚTBOL</tspan></text><path class="cls-10" d="M21.83,83.47a6.22,6.22,0,1,1-8.29,3A6.22,6.22,0,0,1,21.83,83.47Z"/><path class="cls-10" d="M17.74,88.31a15,15,0,0,1,2.65-.85h0v0a16.92,16.92,0,0,0-2.65.85h0v0Z"/><path class="cls-10" d="M22.27,89.24h0A11.1,11.1,0,0,1,21.64,92h0a11,11,0,0,0,.65-2.74Z"/><path class="cls-10" d="M24,88.15h0l0,0a4.19,4.19,0,0,1,1.1,1.25h0A4.37,4.37,0,0,0,24,88.15Z"/><path class="cls-10" d="M19.22,83.84v0a4.13,4.13,0,0,1,1.83,1.5h0l0,0a4.2,4.2,0,0,0-1.82-1.49Z"/><path class="cls-10" d="M16.65,84.52h0A8.56,8.56,0,0,0,16,86.88h0a8.52,8.52,0,0,1,.68-2.36Z"/><path class="cls-10" d="M13.24,87.84l0,0a3.25,3.25,0,0,0,.53.32h0a2.67,2.67,0,0,0,.54.19h0v0a2.84,2.84,0,0,1-.56-.19h0a3.25,3.25,0,0,1-.53-.32Z"/><path class="cls-10" d="M14.92,90.79h0a4.2,4.2,0,0,0-.32,1.83h0a4.24,4.24,0,0,1,.32-1.84Zm0,0Z"/><path class="cls-10" d="M17.15,90.84h0l0,0a8.17,8.17,0,0,0,2,1.89h0l0,0a8.62,8.62,0,0,1-2-1.89Z"/><path class="cls-10" d="M16.48,94.38a3.15,3.15,0,0,0,2.37,0h0v0a3.21,3.21,0,0,1-2.39,0h0v0Z"/><path class="cls-10" d="M22.7,93.22A4.88,4.88,0,0,0,24.49,92h0l0,0a5.12,5.12,0,0,1-1.8,1.25h0l0,0Z"/><path class="cls-10" d="M13.26,87.12A6.26,6.26,0,0,0,13,88.51c.09-.25.18-.47.28-.69A2.36,2.36,0,0,1,13.26,87.12Z"/><path class="cls-10" d="M14.63,92.61a2,2,0,0,1-.88-.45,6.11,6.11,0,0,0,2.64,2.51l.09-.29A5.24,5.24,0,0,1,14.63,92.61Z"/><path class="cls-10" d="M16.66,84.55a4.67,4.67,0,0,1,2.61-.7,5.43,5.43,0,0,0,.37-1A6.3,6.3,0,0,0,15.54,84,2.25,2.25,0,0,1,16.66,84.55Z"/><path class="cls-10" d="M24.51,92l.11.12a3.59,3.59,0,0,0,.17-.34,6.13,6.13,0,0,0,.6-2.59l-.33.18A6.52,6.52,0,0,1,24.51,92Z"/><path class="cls-10" d="M23.26,85.85h0a5.21,5.21,0,0,0,.34-.59c.05-.12.1-.24.14-.36l0,0a3,3,0,0,1-.15.38A4.63,4.63,0,0,1,23.26,85.85Z"/><path class="cls-10" d="M21.2,94.69l.08.26h0l-.08-.26Z"/><path class="cls-10" d="M22.75,93.22a5.3,5.3,0,0,1-1.53,1.48,3.72,3.72,0,0,1-2.4-.31q.21-.87.33-1.71h0q-.12.84-.33,1.71a3.72,3.72,0,0,0,2.4.31,5.3,5.3,0,0,0,1.53-1.48Z"/><path class="cls-10" d="M24,88.18a6,6,0,0,0-.74-2.35,6.25,6.25,0,0,0-2.24-.51c-.19.69-.42,1.41-.68,2.16a11.11,11.11,0,0,1,1.91,1.8C23,88.87,23.56,88.5,24,88.18Z"/><path class="cls-10" d="M16,86.85a4.18,4.18,0,0,0-1.67,1.48,4.54,4.54,0,0,0,.61,2.49,19.27,19.27,0,0,0,2.26,0c.2-1,.39-1.86.58-2.55A17.1,17.1,0,0,0,16,86.85Z"/><path class="cls-10" d="M21.64,91.93q.45.5,1.11,1.29h0q-.66-.8-1.11-1.29a8.45,8.45,0,0,1-2.49.75h0A8.45,8.45,0,0,0,21.64,91.93Z"/><path class="cls-10" d="M21.22,94.7a5.3,5.3,0,0,0,1.53-1.48q-.66-.8-1.11-1.29a8.45,8.45,0,0,1-2.49.75q-.12.84-.33,1.71A3.72,3.72,0,0,0,21.22,94.7Z"/><path class="cls-10" d="M21.22,94.7a5.3,5.3,0,0,0,1.53-1.48q-.66-.8-1.11-1.29a8.45,8.45,0,0,1-2.49.75q-.12.84-.33,1.71A3.72,3.72,0,0,0,21.22,94.7Z"/><path class="cls-10" d="M72.05,70.28c0-.23-.56-.46-.52-.72s.44-.25.52-.46a2.4,2.4,0,0,0-.21-1.6c-.16-.1-.51.1-.72,0s-.44-.39-.62-.46a5.1,5.1,0,0,0-2.16-.16,6,6,0,0,1-1.45.21c-.46-.06-.64-.46-1-.16-.12.11-.1.1-.21.11a5.11,5.11,0,0,1-1.49-.41,70.61,70.61,0,0,1-6.7-2.94c-.42-.2-.86-.39-1.29-.62s-.91-.42-1.29-.67-.55-.52-.83-.72a6.28,6.28,0,0,0-1-.62c-2.12-1-4.17-.18-6.91-.46a9,9,0,0,0,.48-1.25c.34-.67.54-.33,1.09-.14a3.7,3.7,0,0,0,.88.09,5,5,0,0,1,.85.21,2.25,2.25,0,0,1,.68.16,2.06,2.06,0,0,1,.31-1.14A3.08,3.08,0,0,0,51,57.42c.21-.81.35-1.62.54-2.42s.55-1.61.72-2.44c.09-.43.14-.91.21-1.34a8.3,8.3,0,0,1,.2-1.39c.08-.23.33-.42.47-.67.29-.52.45-1.13.72-1.6.14-.25.38-.43.51-.67s.05-.29.11-.41.17-.22.2-.31a9.52,9.52,0,0,0-.15-3.92c-.13-.64-.44-1.24-.52-1.8s0-1,0-1.55-.13-.78-.15-1.13a6.33,6.33,0,0,1,.36-2.53c.62-2.41,1.4-4.47,2.06-6.75A21,21,0,0,0,57,25.66c0-.32,0-.69,0-1a9.09,9.09,0,0,0,.16-.93c0-1-.77-1.35-1.4-1.86a18.73,18.73,0,0,0-2.26-1.75,27.11,27.11,0,0,0-3.09-1.49c.28-.77-.84-1-1.39-1.24-1.49-.75-2.73-1.7-4-2.42-.46-.27-.92-.48-1.34-.77s-.77-.63-1.24-.93a28.68,28.68,0,0,0-2.47-1.81,20.47,20.47,0,0,0-3.51-.72c-.38-.08-.76-.2-1.13-.25s-.93,0-1.34-.11a5.93,5.93,0,0,1-.62-.31,3.13,3.13,0,0,1-1.34-.87,7.49,7.49,0,0,1-.57-.72c-.19-.29-.3-.67-.51-.93s-.54-.43-.67-.67h.24c0-.22.08-.33,0-.56l.08.06a.46.46,0,0,0,.38,0,.42.42,0,0,1-.42-.27.26.26,0,0,0,.05-.22c0-.13-.09-.13-.09-.27a.32.32,0,0,0,0-.09,1.63,1.63,0,0,1,.3.34,1.08,1.08,0,0,0-.29-.51c0-.06,0-.12,0-.18a3,3,0,0,0,.39.67c-.1-.26-.15-.53-.24-.8l.22.19a10.76,10.76,0,0,1-.58-1.12l.32.25a3.17,3.17,0,0,0-.52-.63l-.16-.24v0a4.66,4.66,0,0,1-.3-.47,1.29,1.29,0,0,1,.16.17,2.29,2.29,0,0,0-.9-1l0,0a5.44,5.44,0,0,0-.54-.27l-.19-.08a2.83,2.83,0,0,0-.28-.2,4.19,4.19,0,0,0,.79-.12,7.09,7.09,0,0,1-.94-.13A3.73,3.73,0,0,1,27,.94L26.67.8v0h0l-.49,0a3.69,3.69,0,0,0-.58,0h0a.24.24,0,0,0-.21-.11h0a.44.44,0,0,0,.16-.26A1,1,0,0,1,25,.76C25,.75,25,.61,25,.54a.09.09,0,0,1,0-.05.9.9,0,0,0,0-.49.77.77,0,0,1-.39.73L24.4.79a.6.6,0,0,0,.14-.36,1,1,0,0,1-.76.52l0,0a.24.24,0,0,0,0-.08,1.06,1.06,0,0,0,0-.56,1.15,1.15,0,0,1-.12.5s0,0,0,0l-.06,0a1.87,1.87,0,0,0-.76.52,5.27,5.27,0,0,0-.51.19,2,2,0,0,0-.37.21l0,.05h0a1.14,1.14,0,0,1-.33-.07,1.4,1.4,0,0,0,.29-.5,6.19,6.19,0,0,1-.84.77L20.89,2a2.84,2.84,0,0,0,.38-.65,6.72,6.72,0,0,1-1,.92l-.2.15,0,0a2.74,2.74,0,0,1-1.66-.8,1.83,1.83,0,0,0,.72.84h0v0c-.27-.15-.55-.29-.83-.42a4.41,4.41,0,0,0,.91.7l.06,0a2.43,2.43,0,0,1-1.64-.8,1.35,1.35,0,0,0,.48.7.23.23,0,0,0,.1.12,1.11,1.11,0,0,1-.53-.29.84.84,0,0,0,.4.41c.17.09.33.15.48.22v0c-.14.14-.29,0-.46,0a1.59,1.59,0,0,0-.3-.06,3.43,3.43,0,0,1-.5-.39,1.06,1.06,0,0,0,.27.27,3.83,3.83,0,0,1-.38-.34,2.07,2.07,0,0,0,.49.46,2.24,2.24,0,0,1-.45-.38,1.41,1.41,0,0,0,.39.37h0a3.88,3.88,0,0,1-.38-.32,1.29,1.29,0,0,0,.31.3h0c-.19-.14-.29-.25-.3-.24a1.09,1.09,0,0,0,.19.2,1.36,1.36,0,0,1-.55-.44,1.21,1.21,0,0,0,.57.69,4.38,4.38,0,0,0,.62.24.3.3,0,0,1,0,.1c0,.07-.08.08-.15.11l-.64-.26A2.85,2.85,0,0,0,18,4c.12.2.39.2.5.42a1.12,1.12,0,0,1,0,.66.12.12,0,0,0,0,.09,1.08,1.08,0,0,1-.13.52.74.74,0,0,0,.22-.34c0,.28.15.37.16.71.1.14.23.21.28.41a9.66,9.66,0,0,0,.2,1.24c.11.14.22.26.32.41l.06.36a.41.41,0,0,1,.1.39.8.8,0,0,1,.28.2L20,9a1.34,1.34,0,0,0,.69.86c-.09.09-.24.14-.31.26.28.08.42-.23.57-.11-.06.89-.89,2.72.67,2.37,0,.64.08,1.05.57,1.29a.56.56,0,0,0,.25.62c.32.16.57-.09.83.1s.2.48.31.62a1.19,1.19,0,0,0,1.44.41c.75-.27,1.2-1.24,2.06-1.08.34.06.77.58.93.93.07.16,0,.32.1.46.15.33.47.52.57.83a7.51,7.51,0,0,1,.05,1.6c.2,3.2.62,6.61,1.8,9A15.87,15.87,0,0,0,32.63,30a11.78,11.78,0,0,1,1,1.44,6.94,6.94,0,0,1,.82,1.65c0,.15-.34.4-.51.62s-.36.46-.52.67a20.06,20.06,0,0,1-2.89,2.93c-.2.19-.36.47-.56.62s-.47.21-.67.36a11.12,11.12,0,0,1-1.8,1.4c-.18.07-.4,0-.57.1a5.47,5.47,0,0,0-1,.67c-.36.23-.79.39-1.09.62a8.94,8.94,0,0,0-.61.72c-.25.26-.57.48-.62.72s.31.65.41,1c.05.2,0,.42,0,.62a5.11,5.11,0,0,0,.31.62c.27.54.36.69,1,.67,0,.43.18.57.46.67s.32-.08.52-.05.15.13.2.15a2.09,2.09,0,0,0,1.34-.46c.2-.26.09-.77.26-1,.06-.1.28-.15.42-.26a7.7,7.7,0,0,0,1.59-1.75c.17-.27.22-.62.41-.93a5.49,5.49,0,0,1,1.29-1.09A31.38,31.38,0,0,1,36,37.87a5.66,5.66,0,0,0,1.29,2.73,5.66,5.66,0,0,1,.67.72c.13.25.11.56.31.78H39c.1.32.17.74.31,1.23a6.11,6.11,0,0,1,.35,1.24c-.05.23-.83.67-1.13.93-1.18,1-2.08,2.28-3.19,3.14a7,7,0,0,0-1,1l0-.18a2,2,0,0,0-.55.82l0,0c-.22.27-.44.52-.67.77-.39.44-1.17.88-1.34,1.46-.89.28.07,1,.42,1.34l.16.14c-.25.3-.49.59-.66.84-.73,1-1.17,2.3-1.91,3.2-.34.41-.83.72-1.08,1a5.65,5.65,0,0,0-1.19,3.45c0,.19-.33-.17-.31.1a3.84,3.84,0,0,0-.1,2.38,9.81,9.81,0,0,0,1.08,2.31,11.36,11.36,0,0,1,1.14,2.32c.27.9.43,1.87.67,2.79.95,3.67,2.33,6.89,3.19,10.61a17.17,17.17,0,0,1,.57,2.89c0,.5-.1,1.46-.36,1.59-.1.05-.7-.06-1,0-.52.1-1,.75-1.6,1.09a8.63,8.63,0,0,1-1.7.77c-.08,0-.31,0-.41,0-.3.05-.68.25-1.08.36-1.45.39-3.44.4-3.51,1.86,0,.8.58,1.36.36,2a1.44,1.44,0,0,1,.36.47c.09.19.05.44.16.62.34.54,1.4.42,2.32.61a3.32,3.32,0,0,0,1.39.21c.28-.1.37-.67.77-.51.17.06.18.45.36.56a1,1,0,0,0,.77.1c.27-.07.28-.41.57-.46.06.53.81.57,1.19.36s.23-.57.51-.62a.88.88,0,0,0,.57.31c.75.08.77-.48,1.24-.67a4.4,4.4,0,0,1,1.7-.15c.21.06.18.24.36.36a.76.76,0,0,0,.61.15c.39-.08.4-.67.83-.62.13.17.17.39.46.47a2.41,2.41,0,0,0,1.6-.36c.14-.24-.1-.54,0-.83s.23-.28.31-.41a5.91,5.91,0,0,0,.31-2.88,9.26,9.26,0,0,1-.36-1.7,5.83,5.83,0,0,0,.1-.73c0-.33-.37-.65-.46-.92A9.76,9.76,0,0,1,39.69,85a98.76,98.76,0,0,1-1-10,25.46,25.46,0,0,0-.36-4,13.16,13.16,0,0,0-1.6-3.6c-.47-.83-.85-1.75-1.34-2.53a5.54,5.54,0,0,1-.51-.82c-.09-.19-.06-.54-.21-.72s-.45-.12-.52-.26c.61-1,1.82-1.53,2.73-2.27.71-.57,1.43-1.13,2.12-1.65.23-.17.41-.46.72-.46.31,1.67-.34,2.73-.36,3.91a3.24,3.24,0,0,0,.56,2c.2.29.53.49.78.88a6.68,6.68,0,0,0,.31.67,3.58,3.58,0,0,0,1.39.93c1.1.44,2.34.25,3.76.36s3,.87,4.69,1.23,3.36.59,4.89,1,2.91.89,4.49,1.45c.6.21,1.41.43,2.16.77.26.12.62.34,1,.52s.9.34,1,.51,0,.83,0,1a3.53,3.53,0,0,0,.67.88,6.76,6.76,0,0,1,.67.92c.28.5.47,1.15.72,1.65.1.2.24.35.31.52.49,1.2.07,3.4,1.24,3.76.82.25,1.46-.35,2-.15.2-.14.18-.24.36-.31s.42,0,.56-.11c.31-.22.26-.83.37-1.49s.4-1.15.31-1.6-.47-.42-.37-.72.43-.18.52-.31c.29-.44,0-.89-.15-1.18.37-.06.48-.62.36-1s-.5-.26-.52-.52a.6.6,0,0,0,.41-.41c.19-.69-.35-.82-.46-1.24s.09-.48.1-.82-.13-.42-.1-.57C71.52,70.83,72.13,70.83,72.05,70.28Zm-25.92-47c.48,0,.69.7,1.18.78.16,0,.35-.11.52-.11s.5.17.77.21c1.14.19,2.58-.08,3.61.36-.72,3-.52,6.87-1.5,9.59a8.85,8.85,0,0,1-1.08-2.79A67.51,67.51,0,0,0,46.13,23.23Z"/><path class="cls-11" d="M61,52.84C48.28,60.27,35.18,67,22.15,73a58.94,58.94,0,0,0-1.81-11.44A260.77,260.77,0,0,0,49.19,36.46,101.13,101.13,0,0,1,61,52.84Z"/></g></g></svg>