<svg xmlns="http://www.w3.org/2000/svg" xmlns:xlink="http://www.w3.org/1999/xlink" viewBox="0 0 95.93 136.73"><defs><style>.cls-1{isolation:isolate;}.cls-2,.cls-3,.cls-4{mix-blend-mode:multiply;}.cls-2{fill:url(#linear-gradient);}.cls-3,.cls-5{opacity:0.5;}.cls-3{fill:url(#linear-gradient-2);}.cls-4{fill:url(#linear-gradient-3);}.cls-5,.cls-7{mix-blend-mode:screen;}.cls-5{fill:url(#linear-gradient-4);}.cls-6{fill:#001443;fill-rule:evenodd;}.cls-7{opacity:0.4;fill:url(#linear-gradient-5);}.cls-8{font-size:13.49px;fill:#232323;font-family:Antonio-Bold, Antonio;font-weight:700;letter-spacing:-0.05em;}.cls-9{letter-spacing:-0.04em;}</style><linearGradient id="linear-gradient" x1="4239.88" y1="-2057.89" x2="4280.86" y2="-2057.89" gradientTransform="matrix(-0.34, 0.94, 0.94, 0.34, 3460.25, -3275.52)" gradientUnits="userSpaceOnUse"><stop offset="0.16" stop-color="#e98500"/><stop offset="0.34" stop-color="#ec9200"/><stop offset="0.68" stop-color="#f5b500"/><stop offset="1" stop-color="#fedb00"/></linearGradient><linearGradient id="linear-gradient-2" x1="1900.41" y1="14256.5" x2="1994.89" y2="14256.5" gradientTransform="translate(14369.25 -1185.92) rotate(92.7)" gradientUnits="userSpaceOnUse"><stop offset="0.16" stop-color="#1374ad" stop-opacity="0.8"/><stop offset="1" stop-color="#1173be" stop-opacity="0.9"/></linearGradient><linearGradient id="linear-gradient-3" x1="1942.49" y1="14246.43" x2="2009.48" y2="14246.43" gradientTransform="translate(14369.25 -1185.92) rotate(92.7)" gradientUnits="userSpaceOnUse"><stop offset="0.16" stop-color="#1173be" stop-opacity="0.9"/><stop offset="1" stop-color="#17a8e2" stop-opacity="0.8"/></linearGradient><linearGradient id="linear-gradient-4" x1="-115.06" y1="2747.63" x2="27.84" y2="2747.63" gradientTransform="translate(1340.7 -2397) rotate(26.66)" xlink:href="#linear-gradient-3"/><linearGradient id="linear-gradient-5" x1="1909.32" y1="14227.52" x2="1967.09" y2="14227.52" xlink:href="#linear-gradient-3"/></defs><g class="cls-1"><g id="Layer_1" data-name="Layer 1"><path class="cls-2" d="M55.44,0c13.67,3.69,27.5,6.87,40.49,12.45C91.82,26,87.67,38.67,83.61,50.31a75.82,75.82,0,0,0-25.35-8.17A360.88,360.88,0,0,0,55.44,0Z"/><path class="cls-3" d="M47.47,40.47c.85,14.74.87,29.45.39,43.81a59.27,59.27,0,0,0-11-3.56,232.64,232.64,0,0,0-8.64-35C34.51,44.11,40.48,40.84,47.47,40.47Z"/><path class="cls-4" d="M53.1,86.89q-1.07,6.63-2.2,13a57.75,57.75,0,0,0-10.22-5.07q.43-6.15.76-12.48A60.79,60.79,0,0,1,53.1,86.89Z"/><path class="cls-5" d="M40.66,2.57c2.42,10.84,4.34,20.53,6,29.35A88.69,88.69,0,0,0,24.52,38.8C17,32,8.86,24.8,0,17.28,10.15,10.5,23.44,5.11,40.66,2.57Z"/><path class="cls-6" d="M70.56,28.53a47.65,47.65,0,0,0-4.7-1.91s.89-.2.83-.67a19.29,19.29,0,0,0-1.32-2.66,6.77,6.77,0,0,0,0-2.05,16.56,16.56,0,0,1-.43-1.76c0-.26.55-1.5-3.37-2.9s-6.18-1.52-7.89,1.26a8.63,8.63,0,0,0-1.16,3,3.48,3.48,0,0,1-.83-1.57c-.82-3.32-2.05-6.79-4.2-9.11-7.59-8.24-17.59,5.6-9.86,11.45a8.6,8.6,0,0,0,3.15,1.49c4.25,1.06,7.53-.06,9.4.16a6.66,6.66,0,0,1,1.73.4l-.1.61.19.24.12,0a.66.66,0,0,0,.19.77,1.32,1.32,0,0,0,.72.27,5.94,5.94,0,0,1,.47,1.79,14.19,14.19,0,0,1-.32,2.13,6.76,6.76,0,0,0-1.43-.79c-.26,0-1.19,1.62-1.19,1.62a18.41,18.41,0,0,0-4,1.24c-1.95.89-4.1,4-3.37,6.66S46.44,48.94,46.72,51a28.16,28.16,0,0,1,0,5.29s-.93.65-.85,1.34a7.91,7.91,0,0,0,.32,1.4s-1.33,6-.06,9.84L47,69s3.38,7.75,7.14,12.45c0,0-.57,2,0,2.38s2.19,2.09,2.19,2.09l.24,2.29S51.63,90,50.11,91.35s-7.34,5.9-7.34,5.9.14-.49-.23-.61S37.73,100,37.73,100s-4.34-1.08-6.22-.69-2.36,2.72-1.59,4.26a12.4,12.4,0,0,1,1.5,3.43c0,.73-.26,1.93.15,2.43a4,4,0,0,1,1.09,2.19c.21,1.24.29,3,2.42,3.29s2.27-1.78,2.11-2.49a3.41,3.41,0,0,1,.54-2.84,19.24,19.24,0,0,1,2.44-2.66c.63-.37,1.46-.94,1.42-1.34a1.7,1.7,0,0,1,.63-1.48c.55-.45,3.27-1.73,3.27-2a1.34,1.34,0,0,0-.19-.63s4-1.67,6.52-2.56a50.12,50.12,0,0,0,6.77-3.57l-1.28,3.29s-1.11.93-1.19,1.5a12.63,12.63,0,0,1-.14,2.41,14.47,14.47,0,0,1-1.2,3.21,7,7,0,0,0-1.91,3.71,1.77,1.77,0,0,0-.55,1.34c0,.83,1.28,2,3.19,2s4-.24,5-.14,4.14.28,6,.24,3.18-1.46,2.25-2.72-2.42-.16-4.79-2-1.7-3.4-1.91-3.75-.87-.69-.73-1.3a30.1,30.1,0,0,0,.85-2.9c-.08-.18-.4-.2-.4-.2s3.37-7.55,4-9.21,3.47-7.17,3.3-9a19.55,19.55,0,0,0-1.72-5,7.73,7.73,0,0,0-1.93-3.13s0-7.71-.22-9.47a13.47,13.47,0,0,0-.89-3.37s1.07-3.59.83-4.18-1.08-.93-1-2.17,2-11,2.42-12.76,2.82-2.13,3.47-2.52,1.15-.45,1.5-1.14c0,0,4.26-2.94,4-4.83S73.55,29.89,70.56,28.53Zm-20.3-7c-.59-.1-.86.23-1.37.11s-.4-.34-.4-.34A4.05,4.05,0,0,0,49.94,18c.49.22.53,1.93.72,2.53S50.88,21.61,50.26,21.5Zm16.6,10.41a16.51,16.51,0,0,1-3.09.14c-.43-.14-.75-.65-.92-.63S60.91,31,60.91,31a9.93,9.93,0,0,0,3.43-.32c1.08-.49.92-1.22.92-1.22a3.5,3.5,0,0,0,1.57,1.84,11.12,11.12,0,0,0,3.06.46S67.7,31.83,66.86,31.91Z"/><path class="cls-7" d="M81.87,57.42a77.22,77.22,0,0,0-28.49-7.75c-.23,8.2-.66,16.28-1.23,24.2A73.19,73.19,0,0,1,70,87.67Q75.71,73.73,81.87,57.42Z"/><text class="cls-8" transform="matrix(0.89, 0, -0.45, 0.89, 34.06, 132.43)">P<tspan class="cls-9" x="5.49" y="0">ADEL</tspan></text></g></g></svg>