<svg id="Layer_1" data-name="Layer 1" xmlns="http://www.w3.org/2000/svg" viewBox="0 0 28.72 28.72"><defs><style>.cls-1{fill:#001443;}</style></defs><path class="cls-1" d="M22,5.13a1.69,1.69,0,1,0,1.68,1.68A1.69,1.69,0,0,0,22,5.13Z"/><path class="cls-1" d="M14.48,7.29a7.08,7.08,0,1,0,7.07,7.07A7.08,7.08,0,0,0,14.48,7.29Zm0,11.6A4.53,4.53,0,1,1,19,14.36,4.53,4.53,0,0,1,14.48,18.89Z"/><path class="cls-1" d="M20.1,28.72H8.63A8.64,8.64,0,0,1,0,20.1V8.63A8.64,8.64,0,0,1,8.63,0H20.1a8.64,8.64,0,0,1,8.62,8.63V20.1A8.63,8.63,0,0,1,20.1,28.72ZM8.63,2.7A5.94,5.94,0,0,0,2.7,8.63V20.1A5.93,5.93,0,0,0,8.63,26H20.1A5.93,5.93,0,0,0,26,20.1V8.63A5.93,5.93,0,0,0,20.1,2.7Z"/></svg>