<svg xmlns="http://www.w3.org/2000/svg" xmlns:xlink="http://www.w3.org/1999/xlink" viewBox="0 0 105.11 127.03"><defs><style>.cls-1{isolation:isolate;}.cls-2{fill:url(#linear-gradient);}.cls-3{opacity:0.8;fill:url(#linear-gradient-2);}.cls-4{fill:url(#linear-gradient-3);}.cls-5{opacity:0.2;}.cls-5,.cls-6{mix-blend-mode:multiply;}.cls-6{fill:url(#linear-gradient-4);}.cls-7{font-size:13.49px;fill:#232323;font-family:Antonio-Bold, Antonio;font-weight:700;letter-spacing:-0.04em;}.cls-8{fill:#001443;}.cls-9{opacity:0.4;mix-blend-mode:screen;fill:url(#linear-gradient-5);}</style><linearGradient id="linear-gradient" x1="3371.86" y1="-2560.54" x2="3438.86" y2="-2560.54" gradientTransform="matrix(-0.17, 0.99, 0.99, 0.17, 3136.34, -2812.7)" gradientUnits="userSpaceOnUse"><stop offset="0.16" stop-color="#82bc3f" stop-opacity="0.8"/><stop offset="0.19" stop-color="#78b83f" stop-opacity="0.81"/><stop offset="0.34" stop-color="#4da741" stop-opacity="0.84"/><stop offset="0.5" stop-color="#2b9943" stop-opacity="0.87"/><stop offset="0.66" stop-color="#139044" stop-opacity="0.89"/><stop offset="0.83" stop-color="#058a45" stop-opacity="0.9"/><stop offset="1" stop-color="#008845" stop-opacity="0.9"/></linearGradient><linearGradient id="linear-gradient-2" x1="4525.74" y1="16989.88" x2="4566.72" y2="16989.88" gradientTransform="translate(17614.22 1376.12) rotate(109.38)" xlink:href="#linear-gradient"/><linearGradient id="linear-gradient-3" x1="44.99" y1="63.82" x2="72.39" y2="63.82" gradientTransform="matrix(1, 0, 0, 1, 0, 0)" xlink:href="#linear-gradient"/><linearGradient id="linear-gradient-4" x1="11355.94" y1="-4870.39" x2="11498.85" y2="-4870.39" gradientTransform="matrix(-0.73, 0.68, 0.68, 0.73, 11680.77, -4166.18)" gradientUnits="userSpaceOnUse"><stop offset="0.16" stop-color="#1173be" stop-opacity="0.9"/><stop offset="1" stop-color="#17a8e2" stop-opacity="0.8"/></linearGradient><linearGradient id="linear-gradient-5" x1="3339.55" y1="-2584.54" x2="3397.32" y2="-2584.54" gradientTransform="matrix(-0.17, 0.99, 0.99, 0.17, 3136.34, -2812.7)" xlink:href="#linear-gradient-4"/></defs><g class="cls-1"><g id="Layer_1" data-name="Layer 1"><path class="cls-2" d="M44.48,89.66q-.37,6.7-.61,13.15A57.39,57.39,0,0,1,54.94,100q.89-6.1,1.9-12.35A60.28,60.28,0,0,0,44.48,89.66Z"/><path class="cls-3" d="M105.11,16.24C92.21,10.43,79.5,4.1,65.92.18c-5.43,13.1-10.26,25.51-14.5,37.08A76,76,0,0,1,76.2,47,361.48,361.48,0,0,1,105.11,16.24Z"/><path class="cls-4" d="M51.42,42.46c-4,14.22-3.84,28.59-6.43,42.72A60.45,60.45,0,0,1,56.52,84,232.65,232.65,0,0,1,72.39,51.7C66.57,48.77,62.84,45.25,51.42,42.46Z"/><g class="cls-5"><path class="cls-6" d="M15.54,13c.72,11.07,1.59,20.91,2.5,29.84a88.15,88.15,0,0,1,23.16.4c5.3-8.64,11.1-17.83,17.49-27.54C47.05,12.06,32.78,10.61,15.54,13Z"/></g><text class="cls-7" transform="matrix(0.89, 0, -0.45, 0.89, 18.68, 122.74)">RUGBY</text><path class="cls-8" d="M39.17,50.31a15.68,15.68,0,0,1,2.78.84,5.81,5.81,0,0,0,3,3.65c3.55,1.65,8.33-1.12,10.69-6.18S57,38.11,53.48,36.46a5.68,5.68,0,0,0-4.22-.14l-.6.27c-.1-.24-.29-.1-.67-.05s-.91-.19-1.91-2.28a22.22,22.22,0,0,0-3.91-5.06C41,27.92,40.27,25,40,24s.19-3.48.24-5a6.47,6.47,0,0,0-1.38-3.34,35,35,0,0,1,.71-4.33,10.77,10.77,0,0,0,0-4.2c2.19-1.09,2.66-2.67,1.38-4S35.36.52,35.36.52c-3.19-1.15-6-.15-6.67.66S27.64,2,27.64,2c-1.76.52-.86,3.24-.86,4.43S27,10,27,10c-1.52-.57-1.33,1.91-1.33,1.91-2.42,0-7.18,6.25-7.18,6.25-1.27,1.91-4.13,5.85-5.34,8.71A55.32,55.32,0,0,0,10.25,37a37.22,37.22,0,0,0-.58,6.1c-2.47,3-1.84,8.83-1.84,8.83-1.52.64-1,3.12-1.21,5A1.84,1.84,0,0,0,8,59.15S8.53,63,9.1,65.06s1.08,1.08,1.08,1.08c-.38,1.46.69,4.48.69,4.48a3.33,3.33,0,0,0-2.62,1,5.51,5.51,0,0,1-3,1.48,3.21,3.21,0,0,0-.62-1.71A3,3,0,0,0,.19,72.76a9,9,0,0,0,.29,2.86,18.76,18.76,0,0,1-.1,3.95c-.28.62-.9,2.63.53,5.48S3.43,88.2,4.58,88.3c0,0,2.62.09,2.71-2.24,0,0,.1-4.91.14-5.91a4,4,0,0,1,1.82.19,5.89,5.89,0,0,0,4.28-.24,9.29,9.29,0,0,1,2.72.33c1.1.38,3.34.53,4.29-1.09a4,4,0,0,0,1.76-2.53c.34-1.72.15-1.72.57-3.57L23,66.66s1.52.38,2-.67a11,11,0,0,0,.52-3.24,5.77,5.77,0,0,0,2.77,1.77s2.71,1.33,4,2.09c0,0,3.57,2.24,4.24,3.34a5.17,5.17,0,0,1,1.1,3.62c0,2.1.14,6.34,2.9,9.91a29.37,29.37,0,0,1,1.67,3.91c.38,1.38,2.15,3.91,2.24,5.67A13.28,13.28,0,0,0,45,96.21a10.4,10.4,0,0,0,0,2.66c.19,1.1-.81,3.34,3,2.39a.93.93,0,0,1,1,.76s.58,1,2.82-.91a4.82,4.82,0,0,1,4.05-.42.86.86,0,0,0-.19-1A12.19,12.19,0,0,1,53,97.35c-1.14-1.38-2.76-3.19-2.76-3.19s2.05-2,.05-.38c0,0-.39.42-.77-.24s-.85-.1-.9-2.15-.1-5.76-.29-7.19-.24-4.2-.76-7-1-5.62-3.34-8.43A27.91,27.91,0,0,0,43.27,64c-.71-2.38-.33-5-2.67-8.44a24.18,24.18,0,0,0-4-4.76v-.48A7,7,0,0,1,39.17,50.31ZM35,45l-2.22.06V44l-.89.07.38-3.75c-.19-2.1,1.46-3.75,1.84-5s.77-2.54.77-2.54A24.11,24.11,0,0,0,37.57,36s2.35,2.74,3.43,3.12,3.25,1.1,3.25,1.1a14.61,14.61,0,0,0-1.46,2.47,20.48,20.48,0,0,0-2.87,2.08c-.64.7-1.65-.12-1.65-.12A3.67,3.67,0,0,1,35,45Z"/><path class="cls-9" d="M17.47,54.75A77.2,77.2,0,0,1,47,53.23Q44.68,65.33,43,77.14a73.43,73.43,0,0,0-20.33,9.7C20.91,77,19.15,66.27,17.47,54.75Z"/></g></g></svg>