<svg xmlns="http://www.w3.org/2000/svg" xmlns:xlink="http://www.w3.org/1999/xlink" viewBox="0 0 78.44 155.29"><defs><style>.cls-1{isolation:isolate;}.cls-2{opacity:0.3;fill:url(#linear-gradient);}.cls-2,.cls-6{mix-blend-mode:screen;}.cls-3,.cls-4,.cls-5,.cls-8,.cls-9{mix-blend-mode:multiply;}.cls-3{fill:url(#linear-gradient-2);}.cls-4{fill:url(#linear-gradient-3);}.cls-5,.cls-9{opacity:0.7;}.cls-5{fill:url(#linear-gradient-4);}.cls-6{opacity:0.4;fill:url(#linear-gradient-5);}.cls-7{fill:#001443;}.cls-8{opacity:0.2;fill:url(#linear-gradient-6);}.cls-9{fill:url(#linear-gradient-7);}.cls-10{font-size:13.49px;fill:#232323;font-family:Antonio-Bold, Antonio;font-weight:700;letter-spacing:-0.04em;}</style><linearGradient id="linear-gradient" x1="12344.38" y1="15751.66" x2="12636.89" y2="15751.66" gradientTransform="matrix(0.34, -0.7, -0.9, -0.44, 9884.5, 15730.9)" gradientUnits="userSpaceOnUse"><stop offset="0.16" stop-color="#1374ad" stop-opacity="0.8"/><stop offset="1" stop-color="#1173be" stop-opacity="0.9"/></linearGradient><linearGradient id="linear-gradient-2" x1="13768.87" y1="-1178.55" x2="13809.85" y2="-1178.55" gradientTransform="matrix(0.16, -0.99, 0.99, 0.16, -962.3, 13909.01)" gradientUnits="userSpaceOnUse"><stop offset="0.16" stop-color="#e98500"/><stop offset="0.34" stop-color="#ec9200"/><stop offset="0.68" stop-color="#f5b500"/><stop offset="1" stop-color="#fedb00"/></linearGradient><linearGradient id="linear-gradient-3" x1="11339.54" y1="15777.68" x2="11434.02" y2="15777.68" gradientTransform="matrix(0.44, -0.9, -0.9, -0.44, 9145.24, 17227.13)" xlink:href="#linear-gradient"/><linearGradient id="linear-gradient-4" x1="11376.7" y1="15770.39" x2="11443.69" y2="15770.39" gradientTransform="matrix(0.44, -0.9, -0.9, -0.44, 9145.24, 17227.13)" gradientUnits="userSpaceOnUse"><stop offset="0.16" stop-color="#1173be" stop-opacity="0.9"/><stop offset="1" stop-color="#17a8e2" stop-opacity="0.8"/></linearGradient><linearGradient id="linear-gradient-5" x1="8829.8" y1="15380.97" x2="8965.44" y2="15380.97" gradientTransform="matrix(0.77, -0.64, -0.64, -0.77, 3148.46, 17559.45)" xlink:href="#linear-gradient-4"/><linearGradient id="linear-gradient-6" x1="11834.36" y1="16560.6" x2="11891.34" y2="16560.6" gradientTransform="matrix(0.26, -0.97, -0.97, -0.26, 12982.98, 15766.91)" xlink:href="#linear-gradient"/><linearGradient id="linear-gradient-7" x1="11344.39" y1="15749.46" x2="11402.16" y2="15749.46" xlink:href="#linear-gradient-4"/></defs><g class="cls-1"><g id="Layer_1" data-name="Layer 1"><path class="cls-2" d="M75.84,38.36c1-7.67,1.85-14.89,2.6-21.68-2.6,1.45-5.13,2.72-7.61,3.82-1.53,6.91-3.19,14.18-5,21.78A89.26,89.26,0,0,0,75.84,38.36Z"/><path class="cls-3" d="M7.07,119.61c13.74,3.39,27.38,7.31,41.44,8.73,3-13.86,5.49-26.94,7.58-39.09A75.87,75.87,0,0,1,30,84.12,363.51,363.51,0,0,1,7.07,119.61Z"/><path class="cls-4" d="M30.67,76c7.89-12.48,15-25.34,21.57-38.13a59.22,59.22,0,0,1-11.36-2.23A261.54,261.54,0,0,1,14.73,63.59,101.06,101.06,0,0,0,30.67,76Z"/><path class="cls-5" d="M53.07,41.16q2.28-6.31,4.36-12.41A58.11,58.11,0,0,1,46,28.23C44.3,32,42.51,35.72,40.65,39.51A61,61,0,0,0,53.07,41.16Z"/><path class="cls-6" d="M73.16,95.37C73,84.83,72.69,75.46,72.27,67a84.35,84.35,0,0,1-21.93-1.53q-8.18,11.88-18,25.23C43.25,94.7,56.7,96.78,73.16,95.37Z"/><path class="cls-7" d="M47.43,24.28a12.76,12.76,0,0,0-7,3.71,3.43,3.43,0,0,0,.26-1.06,107.25,107.25,0,0,0-.26-11c-.3-2.15-.3-4.66.82-5.09,0,0,.05-1.12.39-1.46,0,0-.26-1.43.52-2s2.5-2.11,2.37-2.76-1.29.56-1.29.56a1.79,1.79,0,0,0-1.6.82s-.26-1.59.3-2.15a2.91,2.91,0,0,0,.39-2.64C42.07.62,41.16,3.77,41,3.85s-.39.91-.39.91a12.72,12.72,0,0,1,.26-3.06c.3-.69.21-2-.39-1.64s0,1.84-.81,2.25c0,0,.32-2-.33-2.25S39.11,2.64,38.38,3c0,0,.55,6-.1,7.35s-.78,6-1.7,8c-.81,1.68-1.83,9.28-1.47,11.17a40.34,40.34,0,0,0-2,6.43s-.5.46-1.19-.69-3.63-1.84-3.82-1.52c0,0,.37-1.61-1.6-1.15s-2.25,1-2.39,1.47a6.1,6.1,0,0,0-3.63,6.62,6.4,6.4,0,0,0,4.78,5.84,8.45,8.45,0,0,0,.87,2.75s-.78-.23-.64,1.2a16,16,0,0,0-1.8,1.42c-.64.64-.18,1.1-.18,1.1s-1.56.46-1.29,1.84c0,0-2.75,2.53-2.84,3.35s-.83.19-.74.88S16.19,61.82,15.41,62s-2.84,1.42-2.5,3.37a4.34,4.34,0,0,0-1.08,3.62c.44,2.07,2.38,1.55,3.11,1.38s4.83-2.68,5.3-2.89a17.38,17.38,0,0,0,2.08-1.73s0,.48.68-.3,1-1.25,1.34-1.29S24.69,63,25.55,63a3.89,3.89,0,0,0,1.64.77s.65,1.38,1.16,1.56c0,0-.34,1.85.78,2.11A4.6,4.6,0,0,0,29.52,70c.6.9,1,2.33,1.21,2.37,0,0-.09,2.2,0,2.89s-2.2,4.18-.56,9.36,4.44,16.09,4.44,16.09,2.37-.31,2.59,0l2.58.13s-.3.52-.13.56c0,0-2.11.87-4.4,4.32,0,0-2.37,2.24-2.76,2.71s-3.71,3.41-4.22,3.24-.35-.56-1,.09-1,1.25-1.55,1.16c0,0-2.33,3.28-2,3.67a6.11,6.11,0,0,0,1.68.9,8,8,0,0,1-1.46,1.73s0-1.08-.69-.61-2.81,3.15-2.55,4.1c0,0-1.08,1.12-.26,2s8.16,4.22,9.28,4.79,6.9.51,7.5-.22.39-1.94-.73-2.8-3.49.26-5.18-5a5.71,5.71,0,0,0,2.94,1.33c1.38,0,4.44.09,4.22-1.81s-3.19-2.16-3.19-2.16v-.6h-.34s.08-2.07-.39-2.41c0,0,7.07-4.88,8-6.73,0,0,4.1-2.12,5.35-5.22,0,0,4.18-2.33,3.88-3.75,0,0,1.38-.91-.52-6.09,0,0,.34-2-.82-2.11,0,0-1.72-6.25-2.29-6.81,0,0,.95-.91-1.81-4.32a11.79,11.79,0,0,0-.9-3.75s.73-2.16-.22-2.11a3.26,3.26,0,0,0,.22-2s.69-1.38.34-2.07a1.19,1.19,0,0,1,.22-1.51c.34-.34-.26-1-.26-1s1.47-.82,1.34-1.64-1.13-3.24-1.34-4.83a32.18,32.18,0,0,0-1.9-5.39s-.9-5.05-2.5-7.59c-.35-.57-.7-1.19-1-1.85a15.6,15.6,0,0,1,3.31-1A10,10,0,0,0,45,45.93a13.29,13.29,0,0,0,8.47-5.46,13.32,13.32,0,0,0,2.76-9.7,7.38,7.38,0,0,0-8.76-6.49Zm4.81,2.66a3.5,3.5,0,0,1,.3.24l-1,1.51-1.21-.81,1-1.5A5.8,5.8,0,0,1,52.24,26.94Zm-7.47,8.6L44,36.75l-1.21-.81.81-1.21Zm-1-1.11.81-1.21,1.21.81L45,35.24Zm1.31,1.31,1.21.81-.81,1.21L44.26,37Zm.2-.3.81-1.21,1.21.81-.81,1.21Zm1-1.51.81-1.21,1.21.81-.81,1.21Zm2.32-.2,1.21.8L49,35.74l-1.21-.8Zm.2-.3.81-1.22,1.21.81L50,34.23Zm.71-1.72L48.3,30.9l.81-1.21,1.21.81Zm-.2.3-.81,1.21-1.21-.8.81-1.21Zm-2.32.2-1.21-.8.81-1.21,1.21.8Zm-.2.31L46,33.73l-1.21-.81.81-1.21Zm-2.32.2-1.21-.81.81-1.21,1.21.81Zm-.2.3-.81,1.21-1.21-.81.81-1.21Zm-1,1.51-.81,1.21-1.21-.81.81-1.21Zm-.71,1.71,1.21.81L43,38.26l-1.21-.81Zm.2,2.32-.81,1.21L40.73,39l.81-1.21Zm.3.2,1.21.81-.81,1.21L42.24,40Zm.2-.3.81-1.21,1.21.81-.81,1.21Zm2.32-.2,1.21.81L46,40.28l-1.21-.81Zm.2-.3.81-1.21,1.21.81L47,38.77Zm1-1.51.81-1.21,1.21.81L48,37.26Zm2.32-.2,1.21.8-.81,1.21-1.21-.8Zm.2-.3.81-1.21,1.21.8-.81,1.21Zm1-1.52.81-1.21,1.21.81-.81,1.21ZM51,32.72l-1.21-.81.81-1.21,1.21.81Zm-.5-2.52-1.21-.81.81-1.21,1.21.81Zm-1.51-1-1.21-.81.81-1.21,1.21.81Zm-.2.3L48,30.7l-1.21-.8.81-1.22Zm-2.32.2-1.21-.8.8-1.21,1.22.8Zm-.2.3-.81,1.22-1.21-.81.81-1.21ZM44,30.2l-1.21-.81.8-1.21,1.21.81Zm-.21.3L43,31.71l-1.21-.81.8-1.21Zm-1,1.51L42,33.22l-1.21-.81.81-1.21Zm-1,1.51-.81,1.21-1.21-.81.81-1.21ZM41,35.23l1.21.81-.81,1.21-1.21-.81Zm.2,2.32-.81,1.21L39.22,38,40,36.74Zm-.71,1.71,1.21.81-.81,1.21-1.21-.81Zm.5,2.52,1.21.81L41.34,44a6.06,6.06,0,0,1-1.19-.67l-.08-.06Zm.2-.3L42,40.27l1.21.81-.81,1.21Zm2.32-.2,1.21.81L44,43.3l-1.21-.81Zm.2-.3.81-1.21,1.21.81L45,41.79Zm2.32-.2,1.21.81-.81,1.21L45.26,42Zm.2-.3.81-1.21,1.21.81-.81,1.21Zm1-1.51.81-1.21,1.21.81-.81,1.21Zm2.32-.2,1.21.81L50,40.79,48.79,40Zm.2-.3.81-1.21,1.21.8L51,39.27Zm1-1.52.81-1.21,1.21.81L52,37.76Zm1-1.51.81-1.21,1.21.81L53,36.25Zm.71-1.71-1.21-.81.81-1.21,1.21.81Zm-.2-2.32.81-1.21,1.21.81-.81,1.21Zm-.3-.2-1.21-.81.81-1.21,1.21.81Zm-1.05-5-1,1.44-1.21-.81.69-1A6.1,6.1,0,0,1,51,26.24Zm-3.56-.38a7.85,7.85,0,0,1,1.67-.06l-.58.87-1.19-.79ZM48.3,27l-.8,1.21-1.21-.81.8-1.21Zm-1.52-1L46,27.17l-.92-.62A9.87,9.87,0,0,1,46.78,26Zm-2.32.85.21-.11,1.11.74L45,28.68l-1.21-.8Zm-.7.39-.3.45-.19-.14Zm-.81.54.31.21-.81,1.21-.67-.46A10.65,10.65,0,0,1,43,27.77ZM41.51,29l.74.5-.8,1.21-.93-.62A11.44,11.44,0,0,1,41.51,29Zm-1.4,1.61h0l.18-.24,1,.64-.8,1.21-.51-.34C40,31.43,40.06,31,40.11,30.6Zm-.25,1.66.38.25-.66,1C39.68,33.09,39.78,32.67,39.86,32.26Zm-.64,2.42.31-.46,1.21.81-.81,1.21L39,35.65A5.51,5.51,0,0,1,39.22,34.68ZM39,36.06l.72.48-.65,1A8.29,8.29,0,0,1,39,36.06ZM39.4,39s-.08-.23-.17-.61l1,.66-.81,1.21-.67-.45A1.14,1.14,0,0,1,39.4,39Zm-.83,2.48a1.24,1.24,0,0,1,.09-.41,3.9,3.9,0,0,1,0-.87l.55.36-.63,1Zm1-.72,1.21.81L39.79,43a5.62,5.62,0,0,1-1-1.13Zm.41,5.7a18.69,18.69,0,0,1-.76-1.83,6.91,6.91,0,0,0,2.28,1.11C41.15,45.88,40.6,46.14,39.93,46.47Zm3.29-2.06a6.49,6.49,0,0,1-1.54-.33l.86-1.29,1.21.81Zm.41,0,.42-.64.84.56A7.76,7.76,0,0,1,43.63,44.44Zm1.78-.17-1.16-.77.81-1.21,1.21.81-.77,1.15Zm.61-.14.56-.83.62.42A10.31,10.31,0,0,1,46,44.13Zm2.45-1c-.29.16-.58.32-.88.45L46.78,43l.8-1.21,1.21.81Zm-.68-1.6.8-1.21,1.21.81L49,42.3Zm1.55,1,0,0,.81-1.21.41.28A14.87,14.87,0,0,1,49.34,42.52Zm1.45-1.21L50.31,41l.8-1.21.68.45A12.79,12.79,0,0,1,50.79,41.31Zm1.49-1.7c-.08.12-.17.23-.26.34l-.7-.47.8-1.21.74.49C52.68,39.05,52.49,39.33,52.28,39.61Zm.77-1.16L52.33,38l.8-1.21.6.4A11.5,11.5,0,0,1,53.05,38.45Zm.83-1.63-.55-.37.81-1.21.23.16A13.27,13.27,0,0,1,53.88,36.82ZM54.47,35l-.13-.09.22-.32Zm.23-1.28-.66,1-1.21-.81.81-1.21,1.09.73Zm0-2.52h0A9.68,9.68,0,0,1,54.76,33l-.92-.61.81-1.21Zm-.11-.55,0,0-1.21-.81L54,29A7.07,7.07,0,0,1,54.57,30.68ZM53,29.7l-1.21-.81,1-1.47a6.12,6.12,0,0,1,.95,1.2Z"/><path class="cls-8" d="M27.66,64.24A171,171,0,0,1,13.17,82.15,61.93,61.93,0,0,1,0,78.29a90.31,90.31,0,0,0,23.24-15.5C24.69,63.33,26.16,63.81,27.66,64.24Z"/><path class="cls-9" d="M66.14,81a77.25,77.25,0,0,1-28.67-7Q43.13,63,48.13,52.2a73,73,0,0,0,22.26-3.44C69.24,58.75,67.85,69.49,66.14,81Z"/><path class="cls-7" d="M35.06,5.76a2.78,2.78,0,1,0-2.78,2.78A2.78,2.78,0,0,0,35.06,5.76Z"/><text class="cls-10" transform="matrix(0.89, 0, -0.45, 0.89, 16.1, 150.99)">TENNIS</text></g></g></svg>