<svg xmlns="http://www.w3.org/2000/svg" xmlns:xlink="http://www.w3.org/1999/xlink" viewBox="0 0 70.76 155.65"><defs><style>.cls-1{isolation:isolate;}.cls-2{fill:url(#linear-gradient);}.cls-3{fill:#001443;}.cls-4{font-size:13.49px;fill:#232323;font-family:Antonio-Bold, Antonio;font-weight:700;letter-spacing:-0.04em;}.cls-5{opacity:0.3;fill:url(#linear-gradient-2);}.cls-5,.cls-9{mix-blend-mode:screen;}.cls-6,.cls-8{opacity:0.7;mix-blend-mode:multiply;}.cls-6{fill:url(#linear-gradient-3);}.cls-7{fill:url(#linear-gradient-4);}.cls-8{fill:url(#linear-gradient-5);}.cls-9{opacity:0.4;fill:url(#linear-gradient-6);}</style><linearGradient id="linear-gradient" x1="9943.75" y1="17308.91" x2="9984.73" y2="17308.91" gradientTransform="matrix(0.41, -0.91, -0.91, -0.41, 11713.74, 16300.64)" gradientUnits="userSpaceOnUse"><stop offset="0.16" stop-color="#82bc3f" stop-opacity="0.8"/><stop offset="0.19" stop-color="#78b83f" stop-opacity="0.81"/><stop offset="0.34" stop-color="#4da741" stop-opacity="0.84"/><stop offset="0.5" stop-color="#2b9943" stop-opacity="0.87"/><stop offset="0.66" stop-color="#139044" stop-opacity="0.89"/><stop offset="0.83" stop-color="#058a45" stop-opacity="0.9"/><stop offset="1" stop-color="#008845" stop-opacity="0.9"/></linearGradient><linearGradient id="linear-gradient-2" x1="14788.81" y1="-3431.9" x2="15081.32" y2="-3431.9" gradientTransform="matrix(0.09, -0.77, 0.99, 0.12, 2035.96, 11985.63)" gradientUnits="userSpaceOnUse"><stop offset="0.16" stop-color="#1374ad" stop-opacity="0.8"/><stop offset="1" stop-color="#1173be" stop-opacity="0.9"/></linearGradient><linearGradient id="linear-gradient-3" x1="13244.67" y1="-3434.15" x2="13302.44" y2="-3434.15" gradientTransform="translate(1833.65 13641.05) rotate(-83.03)" gradientUnits="userSpaceOnUse"><stop offset="0.16" stop-color="#1173be" stop-opacity="0.9"/><stop offset="1" stop-color="#17a8e2" stop-opacity="0.8"/></linearGradient><linearGradient id="linear-gradient-4" x1="9917.38" y1="-2628.73" x2="9974.35" y2="-2628.73" gradientTransform="translate(-582.55 10355.55) rotate(-71.6)" xlink:href="#linear-gradient"/><linearGradient id="linear-gradient-5" x1="13276.98" y1="-3413.22" x2="13343.97" y2="-3413.22" xlink:href="#linear-gradient-3"/><linearGradient id="linear-gradient-6" x1="13239.82" y1="-3405.93" x2="13334.3" y2="-3405.93" xlink:href="#linear-gradient-3"/></defs><g class="cls-1"><g id="Layer_1" data-name="Layer 1"><path class="cls-2" d="M39.44,130.34c-13.35-4.7-26.91-8.9-39.44-15.42,5.1-13.23,10.18-25.54,15.09-36.85a75.85,75.85,0,0,0,24.68,10A362.14,362.14,0,0,0,39.44,130.34Z"/><path class="cls-3" d="M66.92,102l-.47-.44s0-.64,0-.82a5.27,5.27,0,0,0-.14-.73l-.38-.16s-.75-2.68-2.66-7.52a52.89,52.89,0,0,0-4.92-9.24,1.34,1.34,0,0,0-.11-.25,3,3,0,0,0-.25-.22,1.78,1.78,0,0,1-.06-.36c0-.15-.7-.56-1.5-1.65a14.67,14.67,0,0,1-1.58-3.31c-.22-.55-.41-.81-.66-1.32a4.14,4.14,0,0,1-.29-1.24s-.18-.24-.33-.41a3.89,3.89,0,0,0-.68-.53,2.26,2.26,0,0,1-.65-.82,6.43,6.43,0,0,1-.59-1c-.16-.36-1-.84-1-.84a15.2,15.2,0,0,0-.88-1.42c-.55-.82-1.84-2.69-2-3s-.54-1-.54-1-.42-.78-.67-1.27a16.87,16.87,0,0,0-1.15-1.68s-1.94-2.87-2-3.1-.31-.32-.8-.88-.3-.47-.46-.84a8.94,8.94,0,0,1-.52-1.19,2.22,2.22,0,0,1-.12-.66c0-.21-.16-.17-.47-.31s-.29-.58-.28-2.15.88-2.28,2-6.6S44.9,40.86,45,40,44.87,29.08,45,28.25s.18-.76.84-1.46a3.19,3.19,0,0,0,.72-2c0-.16.62-1.66,1-2.56s.08-1.19,0-1.17a2.76,2.76,0,0,0-.79,1c-.06.28-.47,1.11-.55,1.4s-.38.18-.36.1a6.91,6.91,0,0,0-.31-1.24,5.93,5.93,0,0,1,.18-3c.42-1.68-.36-2.4-.39-1.62a12.45,12.45,0,0,1-.49,2.43c0,.1-.23,1.63-.23,1.63s.07-1.63.08-1.69.17-1.45.17-1.63a1.46,1.46,0,0,0-.33-.72c-.1-.05-.15.1-.2.52S44,20,43.94,20.36s0,1.45-.1,2.14-.43,4-.44,4.32-1.09,4.61-1.8,7.2-1.22,6.17-1.22,6.17A4,4,0,0,1,40,41.7c-.39.93-.77,3.92-1.76,5.12a41.56,41.56,0,0,0-2.74,4.35,1.48,1.48,0,0,0-.25.23.85.85,0,0,0-.14.31,1.21,1.21,0,0,0-.15.38c0,.23-.82,1.2-1,1.55a1.77,1.77,0,0,0-.14.83s-.48.11-.86.24a2.86,2.86,0,0,0-1,.93c-.1.16-.25,0-.42-.15a.63.63,0,0,1-.25-.66c.07-.31,1.63-1.34,1.74-1.6a.84.84,0,0,0-.26-.87c-.22-.19,0-.53,0-.6s-.27-.36-.3-.47a2.1,2.1,0,0,1,.08-.52c0-.1,0-.46-.16-.51a.64.64,0,0,1-.34-.42,8.72,8.72,0,0,0,.18-1.09c0-.28-.38-.4-.83-.41a1.62,1.62,0,0,1-1-.26c-.12-.15.11-.21-.56-.74a7.59,7.59,0,0,0-2.1-.9,1.21,1.21,0,0,0-.58-.33,3.26,3.26,0,0,0-.88-.23,6.33,6.33,0,0,0-1.15.13,3.44,3.44,0,0,0-1.26.28c-.56.29-.93.85-1.45,1.18a1.25,1.25,0,0,0-.55.47c-.13.24-.21.51-.34.75A2.8,2.8,0,0,0,21,50a2.54,2.54,0,0,1-.12.73,3,3,0,0,0-.14.61A2.6,2.6,0,0,0,21,52.66c.12.27.13.42-.05.63v-.06c-.18,0-.32.14-.48.19a1.69,1.69,0,0,0-.49.13,5.8,5.8,0,0,1-.52.34,1.72,1.72,0,0,0-.69.54,2.4,2.4,0,0,1-.8.62,3.3,3.3,0,0,0-.76.69,9,9,0,0,1-.84.9c-.32.23-.78.62-1.2.53,0,.2.4.13.55.11a1.69,1.69,0,0,0,.52-.18c.1-.06.23-.2.34-.23.3-.07.16.5.13.7s-.19.62-.28.94a2.34,2.34,0,0,1-.2.65c-.22.35-.62.57-.8,1a2.71,2.71,0,0,0,0,1.69,1.25,1.25,0,0,1-.11,1c-.21.35-.58.5-.66.94a1.85,1.85,0,0,0,.13,1.19c.07-.25.05-.52.1-.78.09-.47.58-.68.9-1a1.47,1.47,0,0,0,.31-.42c.23.09.59-.13.78-.23s.47-.28.53.13-.17,1,.19,1.25c.21.15.27.06.2-.14a1.81,1.81,0,0,1,.38.59c.07.14.28.36.31.5s-.29.45-.35.65a1.56,1.56,0,0,0,0,.83,1.83,1.83,0,0,0,.33.74,2.07,2.07,0,0,1,.32.49,1.65,1.65,0,0,1,.16.74,15.09,15.09,0,0,0-1.59.2,26.47,26.47,0,0,0-3.57,1.38S13,66.06,13,65.31s0-4.82,0-5.05a8.19,8.19,0,0,1,0-2c.12-.48.07-2.17.22-3.46s.74-1.73,0-1.58S12,54.58,12,54.64s-.41-1.37-.63-1.85S10.28,51.2,10,51.28s.14.67.36,1.31.87,2.38.59,2.41-.9-1.65-1.2-2.25-1-.92-.77-.35,1.24,3.25,1.17,3.34-.82-.94-1.05-1.31-.52-.71-.6-.43a20.42,20.42,0,0,0,1.18,2.6.6.6,0,0,1-.4.66c-.38.18-.89-.26-1.06-.35s-.46-.53-.46-.2.68,1.06,1,1.23.33.52.49.93.79,1.29,1.23,2.05S9.57,69.56,9.55,71s.2,2.54.54,2.69a32.43,32.43,0,0,0,6,.44,15,15,0,0,0,5.54-1.53c.1.21.17.5.26.74a2.52,2.52,0,0,0,.58.93c.19.21.44.4.6.62s-.33.9-.44,1.22a.88.88,0,0,0,0,.71c.07.19.12.42.33.51.05-.34-.08-.72,0-1.08a1.23,1.23,0,0,1,.59-.7,1.46,1.46,0,0,1,0,.9,4,4,0,0,1,.25-.44,3.51,3.51,0,0,0,.13-.66c.08-.44,0-.89.06-1.33s.09-.81.21-1.18a4.79,4.79,0,0,1,.16.84c0,.18,0,.41.14.54a14.74,14.74,0,0,0-.05-1.49c0-.23-.07-.82.19-1a1.1,1.1,0,0,1,0,.54,1.52,1.52,0,0,0,0,.56c0,.18,0,.36.07.54a3.27,3.27,0,0,0,.27.76c0-.49-.12-1.14.15-1.57.07-.11.13-.13.15-.27a2.55,2.55,0,0,0,0-.39c.06.07.27.4.39.35s-.15-.55-.16-.63-.06-.64.12-.78a1.78,1.78,0,0,1,.73-.22.61.61,0,0,1,.42,0c.1,0,.2,0,.29,0s.24.19.43.22c.39.07.93-.12,1.27.13.09.07.15.17.26.21a1.25,1.25,0,0,0,.47,0,.44.44,0,0,1,.3,0c.13.06.14.26.26.33s.56,0,.8.08a1.58,1.58,0,0,1,.8.36c0,.16.31.36.44.44.35.24.78.33,1.14.55a3.08,3.08,0,0,0,.88.5,1.05,1.05,0,0,1,.42.19,7.1,7.1,0,0,1,1,.47c.44.36.84.75,1.28,1.09s.31.93.53,1.44c.1.25.18.25.43.26s.38.07.43.33,0,.5.14.57.19,0,.27,0c.29.11.32.83.34,1a9.3,9.3,0,0,0,.16,1.5,5.64,5.64,0,0,1,.17,1.29c0,.32,0,.87.35,1.07v1s.18.66.32,1.25a9.51,9.51,0,0,1,.2,1.45l0,1.39s.42,1.61.4,1.79.25.21.25.21a59.67,59.67,0,0,0,.68,6.17c.48,2.47.83,4.35.83,4.35s.09.73.1.86-.11,0-.18,0A1.58,1.58,0,0,1,42,101l-.41-.31c-.14-.12-.23-.23-.34-.26a2.64,2.64,0,0,0-.33,0A12.83,12.83,0,0,0,35.65,99c-2.7,0-10,1-10,1a6.1,6.1,0,0,0-.72-2l-.23-.66-.08-.64-.16-.56a2.76,2.76,0,0,1-.08-.37,4.23,4.23,0,0,0-2.76,0c-1.58.4-2.85,2.61-3.47,3.55s-1.61.7-3.18,1.6a6.43,6.43,0,0,0-2.53,4.38c0,.92.22,2.19,1.08,2.24s3.37-1.32,3.44-1.34.49-.06.49-.06L18,106l.59-.08.52,0h.77l1.07,0,.74,0c.09,0,1.15-.43,1.15-.43s4.31-.16,5.58-.11a48.23,48.23,0,0,1,6,1.51s3.78.48,2.51.62-1.68,2.19-1.81,2.43a3.08,3.08,0,0,1-1,2,11.62,11.62,0,0,0-2.57,5.82c-.09,1.83.55,2.36,1.19,2.35s3-3.08,3.18-3.25,0,0,.24-.23.15-.17.39-.26a.8.8,0,0,0,.38-.26l1-.36.45-.11a.65.65,0,0,0,.22-.18c.08-.11.52-.15.52-.15a4.16,4.16,0,0,0,.44-.24.42.42,0,0,1,.45,0l.8-.59.09-.52s1-.59,2.28-1.24a35.78,35.78,0,0,1,6.94-2.07c1.27-.13,8-1.76,8-1.76l.37,0c.2,0,.66,0,1.08,0s.37.28.77.48a6,6,0,0,0,2.91-.12,9.45,9.45,0,0,0,3.69-2.1c.41-.46.34-1.11.37-1.86a8.57,8.57,0,0,1,.25-1.53v-.93ZM17,61.94a1.79,1.79,0,0,1-.57.59,1.28,1.28,0,0,0-.24.11,4.11,4.11,0,0,0,.15-1.2c0-.48,0-1.31.72-1.32a2.82,2.82,0,0,1,.08,1A1.46,1.46,0,0,1,17,61.94Zm36.74,38.91c-.87.07-3.94,1.16-3.79.22s1.24-12,1.24-12S54.83,94.93,55.7,96a27.07,27.07,0,0,1,2.3,4S54.57,100.77,53.69,100.85Z"/><circle class="cls-3" cx="50.91" cy="5.94" r="5.94"/><text class="cls-4" transform="matrix(0.89, 0, -0.45, 0.89, 26.14, 151.36)">VÓLEY</text><path class="cls-5" d="M33.5,28.68q5.05-10.42,9.71-19.55c1.38,2.64,2.8,5.09,4.27,7.37q-3.78,9.93-7.74,21A88.86,88.86,0,0,1,33.5,28.68Z"/><path class="cls-6" d="M18.22,69.66a77.22,77.22,0,0,0,27.83,9.85c.84-8.17,1.87-16.2,3-24.05A73.14,73.14,0,0,1,32.35,40.38C27.83,49.36,23.1,59.09,18.22,69.66Z"/><path class="cls-7" d="M49.72,91.79A171.12,171.12,0,0,0,52,114.71a61.78,61.78,0,0,0,13.12,4A90.61,90.61,0,0,1,54.21,93C52.71,92.66,51.21,92.25,49.72,91.79Z"/><path class="cls-8" d="M51,43.52Q52.56,37,54.16,30.74A57.5,57.5,0,0,0,64,36.56q-.9,6.11-1.69,12.39A61.57,61.57,0,0,1,51,43.52Z"/><path class="cls-9" d="M50.61,85c.25-14.77,1.32-29.43,2.87-43.72A59.54,59.54,0,0,0,64.2,45.61,262.62,262.62,0,0,0,70.76,83.3,101.73,101.73,0,0,1,50.61,85Z"/></g></g></svg>