<svg xmlns="http://www.w3.org/2000/svg" xmlns:xlink="http://www.w3.org/1999/xlink" viewBox="0 0 94.4 93.9"><defs><style>.cls-1{isolation:isolate;}.cls-2,.cls-4{opacity:0.8;}.cls-2{fill:url(#linear-gradient);}.cls-3{mix-blend-mode:multiply;fill:url(#linear-gradient-2);}.cls-4{fill:url(#linear-gradient-3);}.cls-5{fill:#003165;}</style><linearGradient id="linear-gradient" x1="1224.35" y1="-604.21" x2="1723.62" y2="-604.21" gradientTransform="matrix(0.71, 0.32, 0.41, -0.91, -749.34, -945.96)" gradientUnits="userSpaceOnUse"><stop offset="0.16" stop-color="#81bb3f" stop-opacity="0.8"/><stop offset="0.19" stop-color="#78b73f" stop-opacity="0.81"/><stop offset="0.34" stop-color="#4da641" stop-opacity="0.84"/><stop offset="0.5" stop-color="#2b9843" stop-opacity="0.87"/><stop offset="0.66" stop-color="#138f44" stop-opacity="0.89"/><stop offset="0.83" stop-color="#058945" stop-opacity="0.9"/><stop offset="1" stop-color="#008745" stop-opacity="0.9"/></linearGradient><linearGradient id="linear-gradient-2" x1="795.72" y1="1073.81" x2="837.9" y2="1073.81" gradientTransform="translate(-658.21 -1128.7) rotate(6.92)" gradientUnits="userSpaceOnUse"><stop offset="0.16" stop-color="#1173be" stop-opacity="0.9"/><stop offset="1" stop-color="#17a8e2" stop-opacity="0.8"/></linearGradient><linearGradient id="linear-gradient-3" x1="1176.28" y1="-613.39" x2="1235.76" y2="-613.39" gradientTransform="matrix(0.91, 0.41, 0.41, -0.91, -803.82, -970.63)" xlink:href="#linear-gradient"/></defs><g class="cls-1"><g id="Capa_2" data-name="Capa 2"><g id="Capa_1-2" data-name="Capa 1"><path class="cls-2" d="M57.27,90.81Q77,92.66,94.4,93.9c-2.63-4.34-4.94-8.59-7-12.74C75.53,79,63,76.6,50,73.94A155.2,155.2,0,0,0,57.27,90.81Z"/><path class="cls-3" d="M7.44,11.13C4.46,25.4.93,39.58,0,54.09c14.38,2.56,27.92,4.65,40.5,6.34a78.25,78.25,0,0,1,4.3-27.08A370.19,370.19,0,0,1,7.44,11.13Z"/><path class="cls-4" d="M17.37,87.44a79.54,79.54,0,0,1,6.16-29.77c7.64,3.61,15.26,7,22.79,10.15A75.77,75.77,0,0,0,50.69,90.6C40.37,89.79,29.28,88.76,17.37,87.44Z"/><path class="cls-5" d="M47.5,89.24c.46-.36-.38-.64-.38-.64-.45-2.2.86-7.21.86-7.21a21.31,21.31,0,0,1,1.89-4.33c.57-1.19.38-1.21.38-1.21a47.66,47.66,0,0,0,.86-5.64l0-.1c.55.46,3.17-2,4-3a6,6,0,0,0,1-1.5c-.22,1,.17,1,.17,1a.85.85,0,0,0,.31.75c-.36,2.34.74,2.07.74,2.07a.65.65,0,0,0,.38.53A3.27,3.27,0,0,0,60.49,74c1.37.19,3.52-2,3.52-2,1.24,0,3.51-5.06,3.51-5.06,2.77-2.2,3.39-9.36,3.41-9.6s2.6-4.49,3.3-6.54a6.1,6.1,0,0,0,.21-3.54,1.88,1.88,0,0,1-.09-1.6,18.58,18.58,0,0,1,1.21-3.13A7.88,7.88,0,0,0,76,40.14c.43.14.21-1.24.21-1.24.6.21.41-.81.41-.81a1.24,1.24,0,0,0,.93-1.32,11.67,11.67,0,0,1,1-2.15,11.81,11.81,0,0,0,1.34-4.8c0-2.22.31-1.05.31-1.05a5,5,0,0,0,.34,1.08A3.31,3.31,0,0,1,81,31.42l.34-.07c-.05,1.48,2.1,4.83,2.36,5.71S83,41,83.06,43.17a33.57,33.57,0,0,1-.47,4.95c0,.36-.86,2.17-1.17,3.32a9.27,9.27,0,0,0-.34,1.81c-.21,1.77.22,1.7.22,1.7-.15,2.08,1.31,1.22,1.31,1.22C83.21,58.05,84,56,84,56c.59.41,1.24-.29,1.24-.29,0,.93.55.91.83.7s.15-2.73.15-2.73c.07-1.19-.38-1.57-.38-1.57-.7-.36-.17-2.68-.17-2.68a3.69,3.69,0,0,1,.79-1.91c2.17-2.12,1.86-6,1.86-6a30.47,30.47,0,0,0-1.1-11.15c-.12-.26-.4-1.31-.4-1.31a5.07,5.07,0,0,0-.86-2.46A11.08,11.08,0,0,1,85.17,24a5.82,5.82,0,0,0-.46-1.55,13.84,13.84,0,0,1-.86-2.08c-.17-.69-1.07-1.14-2.82-2.48a18.77,18.77,0,0,0-3.91-2.51c-1.25-.57-.93-1.24-.93-1.24,1.24-1.27,1.48-4.06,1.48-4.06.17.33.09-3,.07-3.58v0c0,.16.05.38.26-1.39.26-2.22-.48-2.7-1.17-4A1.23,1.23,0,0,0,75,.38c-1.51-.79-5.66-.1-5.66-.1-2.56.36-2.91,6.19-2.94,8.43a4.68,4.68,0,0,0,1.91,3.58,4.73,4.73,0,0,1-.17,1.13c-.14.43-.83.62-.83.62a14,14,0,0,0-5.23,1.48c-.55.28-1.46.67-2.1.95a4.49,4.49,0,0,0-1.32,1.17,6.66,6.66,0,0,0-2.24,4.21,7.57,7.57,0,0,0-.65,1.6,6.1,6.1,0,0,1-1.24,2.1,5.11,5.11,0,0,0-.86,1.79,4.44,4.44,0,0,0-1.41,2.1,8.55,8.55,0,0,0,.46,4.42c.4.88,1.26.79,1.88.79s2.2-1.27,2.73-1.77a2.38,2.38,0,0,0,.4-1.65,5.81,5.81,0,0,0,.91-1.91c.21.58,1.34,1.27,1.34,1.27a7.43,7.43,0,0,1-.67,3.51c-.05.12-.41.09-.41.09l-.17,1.51-.26.17A3.06,3.06,0,0,1,57.82,38a2.21,2.21,0,0,1-.65.55c-.85-.79-.57-.1-1.79,1.38a6.76,6.76,0,0,0-1.43,3c-2.12.62-4.25,5.68-4.44,6.44s1.14,1.94,1.14,1.94-.11.4-1,2.65a29.21,29.21,0,0,0-1.24,6.23,10.53,10.53,0,0,1-1,3.25,39.26,39.26,0,0,1-2.08,4.85,15.57,15.57,0,0,0-1.14,5.63c0,1-.5,2.78-.67,6.64a48.62,48.62,0,0,1-.36,5,5.19,5.19,0,0,0-.84,2,11.36,11.36,0,0,1-2.43,2.32C38.19,91.7,47.05,89.6,47.5,89.24Zm13-33.53s0,5.93-1.1,6.64c0,0-1.14-1.14-1.1-1.62a7.86,7.86,0,0,0,0-2.72Z"/><circle class="cls-5" cx="61.27" cy="86.45" r="6.25"/></g></g></g></svg>