<svg xmlns="http://www.w3.org/2000/svg" xmlns:xlink="http://www.w3.org/1999/xlink" viewBox="0 0 107.8 90.74"><defs><style>.cls-1{isolation:isolate;}.cls-2,.cls-4{mix-blend-mode:multiply;}.cls-2{fill:url(#linear-gradient);}.cls-3{opacity:0.8;fill:url(#linear-gradient-2);}.cls-4{fill:url(#linear-gradient-3);}.cls-5,.cls-6{fill:#003165;}.cls-6{fill-rule:evenodd;}.cls-7{fill:none;stroke:#003165;stroke-miterlimit:10;}</style><linearGradient id="linear-gradient" x1="-2773.91" y1="-7830.48" x2="-2634.27" y2="-7830.48" gradientTransform="translate(-7561.09 -3147.84) rotate(132.04)" gradientUnits="userSpaceOnUse"><stop offset="0.16" stop-color="#1173be" stop-opacity="0.9"/><stop offset="1" stop-color="#17a8e2" stop-opacity="0.8"/></linearGradient><linearGradient id="linear-gradient-2" x1="-4007.1" y1="-775.6" x2="-3507.83" y2="-775.6" gradientTransform="matrix(0.72, -0.3, -0.38, -0.92, 2448.83, -1752.62)" gradientUnits="userSpaceOnUse"><stop offset="0.16" stop-color="#81bb3f" stop-opacity="0.8"/><stop offset="0.19" stop-color="#78b73f" stop-opacity="0.81"/><stop offset="0.34" stop-color="#4da641" stop-opacity="0.84"/><stop offset="0.5" stop-color="#2b9843" stop-opacity="0.87"/><stop offset="0.66" stop-color="#138f44" stop-opacity="0.89"/><stop offset="0.83" stop-color="#058945" stop-opacity="0.9"/><stop offset="1" stop-color="#008745" stop-opacity="0.9"/></linearGradient><linearGradient id="linear-gradient-3" x1="1535.08" y1="-6558.98" x2="1594.55" y2="-6558.98" gradientTransform="matrix(-0.44, 0.9, -0.9, -0.44, -5127.89, -4253.93)" xlink:href="#linear-gradient"/></defs><g class="cls-1"><g id="Capa_2" data-name="Capa 2"><g id="Capa_1-2" data-name="Capa 1"><path class="cls-2" d="M106.89,70c-10.83-.53-20.46-1.23-29.19-2A87.27,87.27,0,0,0,77,45.36C85.3,40,94.19,34.23,103.57,27.84,107.33,39.16,109,53.07,106.89,70Z"/><path class="cls-3" d="M66.08,82.45c17.59-9.18,21.26-9.63,24.58-19.38L76.6,59.41C68.69,70.18,65.24,74.12,45.65,81.72,51.07,79.62,59.88,80.6,66.08,82.45Z"/><path class="cls-4" d="M100.26,19A79.59,79.59,0,0,0,76.5,0c-3.57,7.66-7.27,15.13-11,22.37A75.43,75.43,0,0,1,76.65,42.68C84.07,35.47,92,27.59,100.26,19Z"/><rect class="cls-5" y="85.6" width="86.8" height="5.15"/><path class="cls-6" d="M48.65,31.68c-1.17,1,2,4.44.35,7.47a12.26,12.26,0,0,1-2.82,3.56,7.73,7.73,0,0,1-4.55,2.21c-1.46-.05,3.62-8.89.21-9.64l-5.17-1.07a1.06,1.06,0,0,0-.94.23,1,1,0,0,0-.36.58l-2.8,12.86s-3.05,2.7-2,4.94l-.22.2c-.64.56-2.32,2.31-1.51,4.21,0,0-4.13,11-7.67,16.79-3.3,5.41-13.82,6.42-10.47,10.22s18.63,3.1,23.46-1.16,25-24.77,28.22-27.95c.69-.67,1.37-1.27,2-1.84l2.45-2.16c2.56-2.26,3.61-3.73,1.06-6.7C64.13,40,58.73,32.85,51.72,31.59c-1.76-.32-2.69-.24-3.07.09Z"/><line class="cls-7" x1="48.91" y1="76.72" x2="87.66" y2="76.72"/><line class="cls-7" x1="53.91" y1="72.72" x2="92.66" y2="72.72"/></g></g></g></svg>