<svg xmlns="http://www.w3.org/2000/svg" xmlns:xlink="http://www.w3.org/1999/xlink" viewBox="0 0 86.89 111.27"><defs><style>.cls-1{isolation:isolate;}.cls-2,.cls-3,.cls-5{mix-blend-mode:multiply;}.cls-2{opacity:0.7;fill:url(#linear-gradient);}.cls-3{fill:url(#linear-gradient-2);}.cls-4{fill:#003165;}.cls-5{fill:url(#linear-gradient-3);}</style><linearGradient id="linear-gradient" x1="1183.66" y1="-210.99" x2="1682.92" y2="-210.99" gradientTransform="matrix(0.71, 0.32, 0.41, -0.91, -894.6, -570.89)" gradientUnits="userSpaceOnUse"><stop offset="0.16" stop-color="#1173be" stop-opacity="0.9"/><stop offset="1" stop-color="#17a8e2" stop-opacity="0.8"/></linearGradient><linearGradient id="linear-gradient-2" x1="778.31" y1="1060.21" x2="820.49" y2="1060.21" gradientTransform="translate(-642.57 -1092.47) rotate(6.92)" gradientUnits="userSpaceOnUse"><stop offset="0.16" stop-color="#e98500"/><stop offset="0.34" stop-color="#ec9200"/><stop offset="0.68" stop-color="#f5b500"/><stop offset="1" stop-color="#fedb00"/></linearGradient><linearGradient id="linear-gradient-3" x1="1092.03" y1="-224.36" x2="1151.5" y2="-224.36" gradientTransform="matrix(0.91, 0.41, 0.41, -0.91, -889.96, -568.98)" xlink:href="#linear-gradient-2"/></defs><g class="cls-1"><g id="Capa_2" data-name="Capa 2"><g id="Capa_1-2" data-name="Capa 1"><path class="cls-2" d="M44.39,94.27C57.53,95.5,69.9,96.5,81.52,97.36c-2.63-4.34-4.94-8.59-7-12.74Q56.7,81.35,37.08,77.39A152.57,152.57,0,0,0,44.39,94.27Z"/><path class="cls-3" d="M7.44,31.76C4.46,46,.93,60.21,0,74.72c14.38,2.56,27.92,4.65,40.5,6.34A78.25,78.25,0,0,1,44.8,54,370.19,370.19,0,0,1,7.44,31.76Z"/><path class="cls-4" d="M57.56,19s3.59-2.75,5.6-2.75c0,0,1,.11,1.16-1.69L64,11.32s-.85.42-1.17-1.48c0,0-.53-3.17.74-2.11l-.31-2.54s-.64-1.06.31-1.38c0,0-.63-1.79.64-1.9,0,0,1.37-1.8,2.22-1.06,0,0,1.06-1.37,1.69-.63,0,0,1.88-.32,2.47.27a.56.56,0,0,1,.17.36C70.88,1.91,71.83.54,71.83,2c0,0,1.9-.85,1.8,1.48,0,0,1.06-.11.63,1.58l-.1,2.75s.63,2.86-1.06,3.7c0,0-1.59,3.39,0,4.65a29.54,29.54,0,0,1,6,2.65,8.22,8.22,0,0,0,1.79,1.05s3.07.53,2.75,9.52a16.93,16.93,0,0,0,1.38,3.17,6.9,6.9,0,0,1,.74,3.17s1.37.74,1,3.39a27.87,27.87,0,0,0,0,3,1.5,1.5,0,0,1-.42,1.37l-1.16,1.38s-1.17,1.16-2.12.1l-5-4.12s-1.69,3.7-.74,10.15a38.76,38.76,0,0,1-.74,17.13,55.54,55.54,0,0,1-1.58,6.66s2.11,3.17.31,5.28A8.44,8.44,0,0,1,72,87.13S68.13,90.3,68.45,84c0,0-1.8-1.16-1.7-5.92,0,0-.1-6.66-.84-8.56l-.42-2a16.35,16.35,0,0,1-2.33,2.22s-.95,1.8-1.48,2.64c0,0-.42,4.66-1.69,6.45,0,0,.95,8.46-.53,10.68,0,0-2.33,7.3-2.54,9.41a11.47,11.47,0,0,0,.32,3.28s.74,1.37.11,2c0,0,1.26,5.28-.64,5.71,0,0-.32.42-2.33.63,0,0-3.91,2-4.22-.42,0,0-.64-2.64,1.58-3.17a7.32,7.32,0,0,1,.74-2.86s0-2.85,1-2.75c0,0-.63-11.41-1-14.38,0,0-1.27-4.86,1-7.92a13.75,13.75,0,0,0,1.06-3.07s-.53-2.64.64-4.34a18.89,18.89,0,0,0-.53-6.13s-1.91-2.64-.22-8.46c0,0,0-6.76,1.8-8.67,0,0-.1-5.39,1.17-7.4l.52-6.66s-4.86,6.13-7.4,7.51c0,0-3.17,2.32-3.8,3.38a3.56,3.56,0,0,1-.85,2.75,5.2,5.2,0,0,0-1.16,2.86s0,1.48-.64,1.26l.22.53s1.26.21.74.85c0,0,.31,1.69-1,.74l-2.11-.32-1.38-1.16L41,49A34.17,34.17,0,0,1,44,43.67s4.13-5.39,5.08-7.61c0,0,2.43-5.29,4.86-6.34l.21-3.28S50.58,18.83,57.56,19Z"/><path class="cls-5" d="M13.91,99.72A79.64,79.64,0,0,1,20.07,70c7.64,3.61,15.26,7,22.79,10.15a75.71,75.71,0,0,0,4.37,22.77C36.92,102.07,25.82,101.05,13.91,99.72Z"/></g></g></g></svg>