<svg xmlns="http://www.w3.org/2000/svg" xmlns:xlink="http://www.w3.org/1999/xlink" viewBox="0 0 105.92 107.47"><defs><style>.cls-1{isolation:isolate;}.cls-2,.cls-3,.cls-4{mix-blend-mode:multiply;}.cls-2{opacity:0.7;fill:url(#linear-gradient);}.cls-3{fill:url(#linear-gradient-2);}.cls-4{fill:url(#linear-gradient-3);}.cls-5{fill:#003165;}</style><linearGradient id="linear-gradient" x1="2799.89" y1="-1039.94" x2="2939.53" y2="-1039.94" gradientTransform="matrix(0.67, 0.74, 0.74, -0.67, -1105.96, -2725.2)" gradientUnits="userSpaceOnUse"><stop offset="0.16" stop-color="#1173be" stop-opacity="0.9"/><stop offset="1" stop-color="#17a8e2" stop-opacity="0.8"/></linearGradient><linearGradient id="linear-gradient-2" x1="-3462.46" y1="263.75" x2="-2963.2" y2="263.75" gradientTransform="matrix(0.77, -0.12, -0.16, -0.99, 2566.74, -44.01)" gradientUnits="userSpaceOnUse"><stop offset="0.16" stop-color="#e98500"/><stop offset="0.34" stop-color="#ec9200"/><stop offset="0.68" stop-color="#f5b500"/><stop offset="1" stop-color="#fedb00"/></linearGradient><linearGradient id="linear-gradient-3" x1="5040.8" y1="1595.82" x2="5100.27" y2="1595.82" gradientTransform="matrix(0.44, 0.9, 0.9, -0.44, -3637.57, -3795.03)" xlink:href="#linear-gradient-2"/></defs><g class="cls-1"><g id="Capa_2" data-name="Capa 2"><g id="Capa_1-2" data-name="Capa 1"><path class="cls-2" d="M1.62,85.15c10.84-.53,20.47-1.23,29.2-2a86.4,86.4,0,0,1,.75-22.62C23.21,55.24,14.32,49.43,4.94,43,1.19,54.35-.45,68.27,1.62,85.15Z"/><path class="cls-3" d="M73.2,100.22c19.24-4.87,27.24-9.11,32.72-17.83L93.09,75.58C82.91,84.24,78.65,87.27,57.82,90.14,63.58,89.34,67.59,97,73.2,100.22Z"/><path class="cls-4" d="M0,44.61a79.51,79.51,0,0,1,23.76-19C27.33,33.31,31,40.78,34.8,48A75.57,75.57,0,0,0,23.6,68.34C16.19,61.12,8.31,53.24,0,44.61Z"/><path class="cls-5" d="M36.31,41.76s1.47-7.14,1.47-10.3a17,17,0,0,1,2.73-7.35s1.26-3.78,2.1-5.88c0,0,2.31-7.35,6.09-7.35l2.73-.21s2.73-2.1,4-.84l1.69.63L57.74,9S55.84.79,61.94.16c0,0,9.45-2.1,9,8.83,0,0,6.3-2.53,7.56,1,0,0,.42,3.15-1,2.52,0,0-4.83,2.94-6.72,2.94a12.11,12.11,0,0,1,6.3,3.78l7.36,7.14a5,5,0,0,0,5.25.42s2.94-1.89,4.2.21c0,0,2.52.42,1.47,1.89l-.21,2.52a2.63,2.63,0,0,1-3.36.21s-4,1-6.09-.63a59.12,59.12,0,0,0-9-4.83s-5.46-2.52-6.72-3.57a35.19,35.19,0,0,0-5.88,5l-.63,2.73L61.1,31.67S58,38.82,58.58,42.6l2.31,2.94s6.3-1,9.45,4.62c0,0,10.09,8.2,10.93,10.3,0,0,.63-1.68,2.1-1.26,0,0,.42-7.78,3.78-7.36,0,0,5.88,2.52,4,8.83,0,0-1.89,4.41-1.68,6.72,0,0,.21,4.62-4,4.83,0,0-2.52-1.26-2.52-2.94,0,0-2.31-1.47-2.52-2.31a13.89,13.89,0,0,0-6.1-2.31,11.08,11.08,0,0,1-6.51-4.83s-2.1-2.53-4-.84c0,0-2.94,2.1-5.88,1.26a18.84,18.84,0,0,0-4.63.63s-4.62.21-6.51-1.89c0,0-3.36,10.29-6.51,13.65,0,0-4.62,6.51-5.25,9,0,0,1.68,1.27,1.89,8A5.92,5.92,0,0,0,39,90.92s2.1,2.1-1.26,6.51a16.18,16.18,0,0,0-2.73,6.93S31.47,110,29.16,106c0,0-.21-4.2.63-6.09,0,0-3.36-6.09,0-4.83L30,93.23a9.48,9.48,0,0,1-2.94-4.83,4.68,4.68,0,0,1-.63-5.46L29,68.86l3.79-13s1.47-8.82,1-11.13Z"/></g></g></g></svg>