<svg xmlns="http://www.w3.org/2000/svg" xmlns:xlink="http://www.w3.org/1999/xlink" viewBox="0 0 94.54 72.19"><defs><style>.cls-1{isolation:isolate;}.cls-2,.cls-4,.cls-5{mix-blend-mode:multiply;}.cls-2{fill:url(#linear-gradient);}.cls-3{fill:#003165;}.cls-4{fill:url(#linear-gradient-2);}.cls-5{opacity:0.7;fill:url(#linear-gradient-3);}</style><linearGradient id="linear-gradient" x1="6945.77" y1="1588.94" x2="7445.04" y2="1588.94" gradientTransform="matrix(-0.71, 0.32, -0.41, -0.91, 5802.06, -797.3)" gradientUnits="userSpaceOnUse"><stop offset="0.16" stop-color="#e98500"/><stop offset="0.34" stop-color="#ec9200"/><stop offset="0.68" stop-color="#f5b500"/><stop offset="1" stop-color="#fedb00"/></linearGradient><linearGradient id="linear-gradient-2" x1="5624.74" y1="446.63" x2="5666.92" y2="446.63" gradientTransform="matrix(-0.99, 0.12, 0.12, 0.99, 5622.16, -1099.03)" xlink:href="#linear-gradient"/><linearGradient id="linear-gradient-3" x1="5575.21" y1="1572.02" x2="5634.69" y2="1572.02" gradientTransform="translate(5807.11 -799.75) rotate(155.79)" gradientUnits="userSpaceOnUse"><stop offset="0.16" stop-color="#1173be" stop-opacity="0.9"/><stop offset="1" stop-color="#17a8e2" stop-opacity="0.8"/></linearGradient></defs><g class="cls-1"><g id="Capa_2" data-name="Capa 2"><g id="Capa_1-2" data-name="Capa 1"><path class="cls-2" d="M37.13,64.37Q17.42,66.2,0,67.46,3.95,61,7,54.71q17.85-3.26,37.47-7.22A150.7,150.7,0,0,1,37.13,64.37Z"/><g id="qTh1b6"><path class="cls-3" d="M50.1,2.74a37.58,37.58,0,0,1,5.06,12.65,31.55,31.55,0,0,1,.42,11.17,25.22,25.22,0,0,1-11.79,18.1A22.77,22.77,0,0,1,33.49,48,33.81,33.81,0,0,1,27,47.92a.59.59,0,0,0-.65.37A16.69,16.69,0,0,0,24.22,54c-.15.85-.43,1.37-1.34,1.55a13.21,13.21,0,0,0-2,.72c-.27.1-.44.1-.37-.28.76-4.16,1.92-8.18,4.44-11.67a9.77,9.77,0,0,1,2.27-2.22A49.16,49.16,0,0,0,42.81,22.76a36.15,36.15,0,0,0,1.85-4.66c-.21.46-.4.92-.62,1.38a54.65,54.65,0,0,1-8.78,12.93,64.9,64.9,0,0,1-9.37,8.47A19.23,19.23,0,0,0,21.26,46c-.35.54-.43.54-.75,0a23.87,23.87,0,0,1-2.93-8.55,21.06,21.06,0,0,1,1-10.35,23.3,23.3,0,0,1,6.61-9.58,42.62,42.62,0,0,1,11.3-7.07C38.37,9.59,40.4,9,42.3,8.05a29.23,29.23,0,0,0,7.59-5.31Z"/></g><path class="cls-4" d="M87.11,0c3,14.26,6.5,28.44,7.43,43-14.37,2.56-27.92,4.65-40.49,6.34a78.24,78.24,0,0,0-4.31-27.08A373.33,373.33,0,0,0,87.11,0Z"/><path class="cls-5" d="M77.76,69A79.54,79.54,0,0,0,71.6,39.26c-7.64,3.62-15.26,7-22.79,10.15a75.41,75.41,0,0,1-4.37,22.78C54.76,71.38,65.85,70.36,77.76,69Z"/></g></g></g></svg>