<svg xmlns="http://www.w3.org/2000/svg" xmlns:xlink="http://www.w3.org/1999/xlink" viewBox="0 0 94.4 125.18"><defs><style>.cls-1{isolation:isolate;}.cls-2,.cls-4{opacity:0.8;}.cls-2{fill:url(#linear-gradient);}.cls-3{mix-blend-mode:multiply;fill:url(#linear-gradient-2);}.cls-4{fill:url(#linear-gradient-3);}.cls-5{fill:#001443;}</style><linearGradient id="linear-gradient" x1="1195.2" y1="-47.81" x2="1694.47" y2="-47.81" gradientTransform="matrix(0.71, 0.32, 0.41, -0.91, -956.82, -397.93)" gradientUnits="userSpaceOnUse"><stop offset="0.16" stop-color="#81bb3f" stop-opacity="0.8"/><stop offset="0.19" stop-color="#78b73f" stop-opacity="0.81"/><stop offset="0.34" stop-color="#4da641" stop-opacity="0.84"/><stop offset="0.5" stop-color="#2b9843" stop-opacity="0.87"/><stop offset="0.66" stop-color="#138f44" stop-opacity="0.89"/><stop offset="0.83" stop-color="#058945" stop-opacity="0.9"/><stop offset="1" stop-color="#008745" stop-opacity="0.9"/></linearGradient><linearGradient id="linear-gradient-2" x1="770.14" y1="1057.67" x2="812.33" y2="1057.67" gradientTransform="translate(-634.77 -1078.32) rotate(6.92)" gradientUnits="userSpaceOnUse"><stop offset="0.16" stop-color="#1173be" stop-opacity="0.9"/><stop offset="1" stop-color="#17a8e2" stop-opacity="0.8"/></linearGradient><linearGradient id="linear-gradient-3" x1="1063.67" y1="-56.99" x2="1123.14" y2="-56.99" gradientTransform="matrix(0.91, 0.41, 0.41, -0.91, -929.27, -385.73)" xlink:href="#linear-gradient"/></defs><g class="cls-1"><g id="Capa_2" data-name="Capa 2"><g id="Capa_1-2" data-name="Capa 1"><path class="cls-2" d="M57.27,122.09Q77,123.92,94.4,125.18c-2.63-4.34-4.94-8.59-7-12.75Q69.58,109.18,50,105.21A154.49,154.49,0,0,0,57.27,122.09Z"/><path class="cls-3" d="M7.44,42.4C4.46,56.67.93,70.85,0,85.36,14.38,87.92,27.92,90,40.5,91.71a78.3,78.3,0,0,1,4.3-27.09A370.19,370.19,0,0,1,7.44,42.4Z"/><path class="cls-4" d="M17.37,118.71A79.45,79.45,0,0,1,23.53,89c7.64,3.61,15.26,7,22.79,10.15a75.71,75.71,0,0,0,4.37,22.77C40.37,121.06,29.28,120,17.37,118.71Z"/><path class="cls-5" d="M85.67,93.1l-.43-.41s0-.58,0-.74a4.64,4.64,0,0,0-.14-.67l-.34-.15s-.68-2.44-2.42-6.85a48.84,48.84,0,0,0-4.49-8.44,1.07,1.07,0,0,0-.11-.22,1.9,1.9,0,0,0-.22-.21,1.36,1.36,0,0,1-.06-.33c0-.13-.64-.5-1.37-1.5a13.24,13.24,0,0,1-1.44-3c-.2-.5-.37-.74-.6-1.2a3.64,3.64,0,0,1-.26-1.13s-.17-.23-.3-.38a5.9,5.9,0,0,0-.63-.49,2,2,0,0,1-.59-.74,6.09,6.09,0,0,1-.54-.94,3.1,3.1,0,0,0-.89-.77s-.3-.55-.8-1.29-1.68-2.46-1.85-2.74-.49-.91-.49-.91-.38-.71-.61-1.16a16.34,16.34,0,0,0-1-1.53s-1.77-2.62-1.85-2.83-.28-.29-.73-.8-.26-.43-.41-.77a7.52,7.52,0,0,1-.48-1.09,1.93,1.93,0,0,1-.1-.59c0-.2-.15-.17-.44-.29s-.26-.53-.25-2,.81-2.08,1.82-6,2-5.66,2.09-6.46-.13-9.93-.06-10.69.17-.7.78-1.34a2.88,2.88,0,0,0,.65-1.8c0-.15.57-1.52.86-2.34s.08-1.08,0-1.07a2.52,2.52,0,0,0-.72.92c-.06.26-.43,1-.5,1.28s-.35.17-.33.09a7.27,7.27,0,0,0-.28-1.13,5.18,5.18,0,0,1,.16-2.72c.39-1.53-.33-2.19-.36-1.47a12.23,12.23,0,0,1-.44,2.21c0,.09-.21,1.49-.21,1.49s.06-1.49.07-1.55.15-1.32.15-1.48a1.35,1.35,0,0,0-.3-.66c-.09,0-.13.09-.17.48s-.17,1.52-.26,1.89,0,1.32-.09,2-.38,3.63-.4,3.94-1,4.21-1.63,6.57-1.12,5.62-1.12,5.62a3.86,3.86,0,0,1-.34,1.39c-.36.85-.7,3.57-1.61,4.67a37.89,37.89,0,0,0-2.5,4,.8.8,0,0,0-.22.21.76.76,0,0,0-.13.28,1.09,1.09,0,0,0-.14.34c0,.21-.74,1.1-.91,1.42a1.54,1.54,0,0,0-.11.75s-.45.11-.79.23a2.64,2.64,0,0,0-.88.84c-.09.15-.22,0-.39-.13a.58.58,0,0,1-.22-.61c.06-.28,1.49-1.22,1.59-1.46a.77.77,0,0,0-.24-.79c-.2-.17,0-.49,0-.55s-.24-.32-.27-.43a1.5,1.5,0,0,1,.08-.47c0-.09,0-.42-.15-.46a.64.64,0,0,1-.32-.39,6.11,6.11,0,0,0,.17-1c0-.25-.34-.35-.76-.37a1.33,1.33,0,0,1-.89-.24c-.11-.13.1-.19-.51-.67A7,7,0,0,0,50,42.37a1.05,1.05,0,0,0-.52-.3,3.22,3.22,0,0,0-.81-.21,6,6,0,0,0-1,.11,3.08,3.08,0,0,0-1.16.27c-.51.25-.84.77-1.32,1.07a1.1,1.1,0,0,0-.5.43c-.12.21-.2.46-.32.68a2.74,2.74,0,0,0-.49,1.17,2.39,2.39,0,0,1-.1.66,2.27,2.27,0,0,0-.13.56A2.33,2.33,0,0,0,43.78,48a.45.45,0,0,1,0,.58v0c-.16,0-.29.12-.44.16a3.17,3.17,0,0,0-.44.12c-.18.1-.3.23-.48.31a1.77,1.77,0,0,0-.63.5,2.1,2.1,0,0,1-.73.56,3.77,3.77,0,0,0-.7.63,7.48,7.48,0,0,1-.76.83c-.3.2-.71.56-1.1.48,0,.18.38.12.5.1a1.38,1.38,0,0,0,.48-.17c.09-.05.21-.18.31-.2.27-.07.15.45.12.63s-.17.57-.25.86a2,2,0,0,1-.19.6c-.2.32-.56.52-.72.88a2.46,2.46,0,0,0,0,1.54,1.1,1.1,0,0,1-.1.9c-.18.31-.53.46-.6.85a1.76,1.76,0,0,0,.12,1.09,5.67,5.67,0,0,0,.09-.72c.08-.42.53-.62.82-.9a1.42,1.42,0,0,0,.29-.38c.21.08.53-.11.71-.21s.43-.25.48.12-.15.92.17,1.14.25.06.19-.13a1.5,1.5,0,0,1,.34.54c.06.12.26.33.28.45s-.26.42-.32.6a1.63,1.63,0,0,0,0,.76,1.84,1.84,0,0,0,.3.67,2,2,0,0,1,.3.45,1.59,1.59,0,0,1,.14.68,12.17,12.17,0,0,0-1.45.18,23.7,23.7,0,0,0-3.25,1.26s-.76-3.48-.8-4.17.05-4.39,0-4.6a7.31,7.31,0,0,1,0-1.81c.11-.44.07-2,.2-3.15s.67-1.59,0-1.45-1,1.23-1.09,1.28S35.2,48.6,35,48.16s-1-1.45-1.26-1.38.13.62.33,1.2.79,2.17.54,2.2-.82-1.51-1.1-2.06-.91-.84-.7-.31,1.13,3,1.07,3-.75-.86-1-1.2-.47-.65-.55-.4a17.78,17.78,0,0,0,1.08,2.38.55.55,0,0,1-.36.6c-.35.16-.82-.23-1-.32s-.43-.49-.43-.18.63,1,.89,1.12.29.48.44.85.73,1.17,1.13,1.87-.79,7.89-.81,9.2.18,2.32.49,2.45a30.15,30.15,0,0,0,5.48.4,13.81,13.81,0,0,0,5.06-1.4c.09.2.14.46.22.68a2.59,2.59,0,0,0,.53.85,6,6,0,0,1,.56.57c.24.33-.3.82-.41,1.11a.79.79,0,0,0,0,.64c.07.18.11.39.3.47,0-.3-.07-.66,0-1a1.05,1.05,0,0,1,.53-.64,1.35,1.35,0,0,1,0,.82,4.1,4.1,0,0,1,.23-.4,3,3,0,0,0,.11-.61c.08-.4,0-.81.06-1.2a9.54,9.54,0,0,1,.2-1.09,5,5,0,0,1,.14.77c0,.17,0,.38.13.5,0-.46,0-.91-.05-1.37,0-.2-.06-.75.18-.87a1,1,0,0,1,0,.5,1.42,1.42,0,0,0,0,.5c0,.17,0,.33.06.5a2.85,2.85,0,0,0,.25.69c0-.45-.12-1,.13-1.44.06-.09.12-.11.14-.24s0-.24,0-.36c.06.07.24.37.35.32s-.13-.5-.14-.57-.06-.58.11-.71a1.83,1.83,0,0,1,.66-.21.65.65,0,0,1,.39,0c.09,0,.18,0,.26,0s.22.16.39.19c.36.06.85-.1,1.16.12.09.06.14.16.24.19a1,1,0,0,0,.43,0,.53.53,0,0,1,.28,0c.11,0,.12.24.23.3s.52,0,.73.07a1.48,1.48,0,0,1,.73.33c0,.15.29.33.4.4.32.22.71.3,1,.5a2.61,2.61,0,0,0,.81.46.89.89,0,0,1,.37.17,6.52,6.52,0,0,1,.88.43c.4.33.77.69,1.18,1s.28.85.47,1.31c.1.23.17.23.4.24s.35.06.39.3,0,.45.13.52.17,0,.24,0c.27.1.29.75.31,1a9,9,0,0,0,.15,1.37,5.15,5.15,0,0,1,.16,1.17c0,.29,0,.8.31,1v.86l.3,1.15a9.39,9.39,0,0,1,.18,1.32l0,1.27s.39,1.47.37,1.63.23.2.23.2a53.89,53.89,0,0,0,.62,5.62c.43,2.26.76,4,.76,4s.07.67.09.79-.11,0-.16,0a1.39,1.39,0,0,1-.27-.09l-.37-.28c-.14-.1-.21-.21-.32-.24a1.66,1.66,0,0,0-.29,0,11.63,11.63,0,0,0-4.79-1.31c-2.47,0-9.15.88-9.15.88a5.42,5.42,0,0,0-.66-1.8l-.2-.61-.08-.58-.15-.51a2.79,2.79,0,0,1-.07-.34,3.8,3.8,0,0,0-2.51,0c-1.45.37-2.61,2.38-3.17,3.24s-1.48.64-2.9,1.46A5.88,5.88,0,0,0,36,96c0,.83.19,2,1,2s3.08-1.21,3.14-1.22.45-.06.45-.06l.5-.11.54-.07.47,0h.7l1,0,.66,0c.09,0,1.06-.39,1.06-.39s3.93-.15,5.09-.11A44.27,44.27,0,0,1,56,97.5s3.45.43,2.29.56-1.54,2-1.65,2.22a2.82,2.82,0,0,1-.91,1.78,10.64,10.64,0,0,0-2.35,5.31c-.08,1.67.5,2.16,1.08,2.15s2.71-2.82,2.9-3,0,0,.23-.21.13-.17.35-.24a.71.71,0,0,0,.35-.24l.87-.33.42-.1a.58.58,0,0,0,.19-.16c.08-.11.48-.14.48-.14a3.46,3.46,0,0,0,.4-.22.39.39,0,0,1,.42,0l.73-.54.07-.47s.89-.54,2.08-1.13a32.39,32.39,0,0,1,6.34-1.89c1.16-.12,7.26-1.61,7.26-1.61l.34,0c.18,0,.6,0,1,0s.34.26.7.43a5.39,5.39,0,0,0,2.66-.1,8.6,8.6,0,0,0,3.36-1.92c.38-.41.32-1,.35-1.69a7.52,7.52,0,0,1,.22-1.4v-.85ZM40.08,56.51a1.47,1.47,0,0,1-.52.53,2.26,2.26,0,0,0-.22.11,3.76,3.76,0,0,0,.14-1.1c0-.43,0-1.19.65-1.2a2.38,2.38,0,0,1,.08.88A1.36,1.36,0,0,1,40.08,56.51ZM73.6,92c-.8.06-3.59,1.06-3.46.2S71.28,81.3,71.28,81.3s3.36,5.31,4.16,6.24a24.7,24.7,0,0,1,2.09,3.67S74.4,91.94,73.6,92Z"/><circle class="cls-5" cx="71.07" cy="5.42" r="5.42"/></g></g></g></svg>