<svg xmlns="http://www.w3.org/2000/svg" xmlns:xlink="http://www.w3.org/1999/xlink" viewBox="0 0 269.71 446.57"><defs><style>.cls-1{isolation:isolate;}.cls-2{opacity:0.3;fill:url(#linear-gradient);}.cls-2,.cls-6{mix-blend-mode:screen;}.cls-3,.cls-4,.cls-5,.cls-8,.cls-9{mix-blend-mode:multiply;}.cls-3{fill:url(#linear-gradient-2);}.cls-4{fill:url(#linear-gradient-3);}.cls-5,.cls-9{opacity:0.7;}.cls-5{fill:url(#linear-gradient-4);}.cls-6{opacity:0.4;fill:url(#linear-gradient-5);}.cls-7{fill:#001443;}.cls-8{opacity:0.2;fill:url(#linear-gradient-6);}.cls-9{fill:url(#linear-gradient-7);}</style><linearGradient id="linear-gradient" x1="1800.79" y1="88.35" x2="2806.57" y2="88.35" gradientTransform="matrix(0.34, -0.7, -0.9, -0.44, -485.67, 1793.89)" gradientUnits="userSpaceOnUse"><stop offset="0.16" stop-color="#1374ad" stop-opacity="0.8"/><stop offset="1" stop-color="#1173be" stop-opacity="0.9"/></linearGradient><linearGradient id="linear-gradient-2" x1="1117.9" y1="1536.69" x2="1258.8" y2="1536.69" gradientTransform="matrix(0.16, -0.99, 0.99, 0.16, -1595.5, 1294.63)" gradientUnits="userSpaceOnUse"><stop offset="0.16" stop-color="#e98500"/><stop offset="0.34" stop-color="#ec9200"/><stop offset="0.68" stop-color="#f5b500"/><stop offset="1" stop-color="#fedb00"/></linearGradient><linearGradient id="linear-gradient-3" x1="1593.89" y1="178.51" x2="1918.75" y2="178.51" gradientTransform="matrix(0.44, -0.9, -0.9, -0.44, -467.26, 1756.25)" xlink:href="#linear-gradient"/><linearGradient id="linear-gradient-4" x1="1721.67" y1="153.43" x2="1952.03" y2="153.43" gradientTransform="matrix(0.44, -0.9, -0.9, -0.44, -467.26, 1756.25)" gradientUnits="userSpaceOnUse"><stop offset="0.16" stop-color="#1173be" stop-opacity="0.9"/><stop offset="1" stop-color="#17a8e2" stop-opacity="0.8"/></linearGradient><linearGradient id="linear-gradient-5" x1="3138.06" y1="-299.19" x2="3604.45" y2="-299.19" gradientTransform="matrix(0.77, -0.64, -0.64, -0.77, -2461.92, 2126.55)" xlink:href="#linear-gradient-4"/><linearGradient id="linear-gradient-6" x1="183.63" y1="1580.32" x2="379.54" y2="1580.32" gradientTransform="matrix(0.26, -0.97, -0.97, -0.26, 1518.3, 864.05)" xlink:href="#linear-gradient"/><linearGradient id="linear-gradient-7" x1="1610.59" y1="81.46" x2="1809.23" y2="81.46" xlink:href="#linear-gradient-4"/></defs><g class="cls-1"><g id="Capa_2" data-name="Capa 2"><g id="Capa_1-2" data-name="Capa 1"><path class="cls-2" d="M260.77,131.89q5.14-39.54,8.94-74.53-13.4,7.47-26.17,13.11-7.87,35.69-17.28,74.89A305.68,305.68,0,0,0,260.77,131.89Z"/><path class="cls-3" d="M24.3,411.25c47.24,11.66,94.15,25.17,142.48,30,10.28-47.67,18.9-92.63,26.09-134.4A261.06,261.06,0,0,1,103,289.23,1244.77,1244.77,0,0,1,24.3,411.25Z"/><path class="cls-4" d="M105.45,261.41c27.12-42.91,51.68-87.11,74.18-131.11a204.33,204.33,0,0,1-39.08-7.64c-28.94,35.46-58.88,67.7-89.9,96A346.51,346.51,0,0,0,105.45,261.41Z"/><path class="cls-5" d="M182.47,141.52q7.83-21.72,15-42.68a198.2,198.2,0,0,1-39.19-1.79q-8.94,19.23-18.5,38.81A208.75,208.75,0,0,0,182.47,141.52Z"/><path class="cls-6" d="M251.56,327.91c-.45-36.23-1.62-68.45-3.06-97.68-28.3,1.5-53.32-.59-75.41-5.26-18.75,27.24-39.23,56.21-61.71,86.75C148.72,325.63,195,332.78,251.56,327.91Z"/><path class="cls-7" d="M163.07,83.49c-8.57,1.28-17,5.83-23.9,12.75a13.38,13.38,0,0,0,.88-3.65c.3-3.26.15-30.25-.89-37.67s-1-16,2.82-17.5c0,0,.15-3.85,1.34-5,0,0-.89-4.9,1.78-6.82s8.6-7.27,8.15-9.49S148.8,18,148.8,18a6.09,6.09,0,0,0-5.48,2.82s-.89-5.49,1-7.41,2.38-6.83,1.34-9-4.15,8.6-4.89,8.9-1.34,3.11-1.34,3.11-.15-8.15.89-10.53S141.09-1,139,.2s0,6.32-2.8,7.76c0,0,1.1-6.95-1.11-7.74s-.63,8.84-3.16,10.11c0,0,1.9,20.53-.31,25.27S129,56.38,125.79,62.93c-2.79,5.78-6.32,31.91-5.05,38.39,0,0-6.16,15.48-7,22.11,0,0-1.73,1.58-4.1-2.37s-12.48-6.32-13.11-5.21c0,0,1.26-5.53-5.53-3.95s-7.74,3.48-8.22,5.06c0,0-14.53,5.37-12.48,22.74s16.43,20.07,16.43,20.07,1.27,7.58,3,9.47c0,0-2.68-.79-2.21,4.11a53.34,53.34,0,0,0-6.16,4.9c-2.21,2.21-.63,3.79-.63,3.79s-5.37,1.58-4.43,6.32c0,0-9.47,8.69-9.79,11.53s-2.84.63-2.53,3S55.67,212.57,53,213s-9.79,4.9-8.6,11.57c0,0-5.19,5.34-3.71,12.46s8.16,5.34,10.68,4.74,16.61-9.19,18.24-9.93,7.12-5.93,7.12-5.93.15,1.63,2.37-1,3.56-4.3,4.6-4.45,1.18-3.71,4.15-3.86c0,0,3,2.37,5.64,2.67,0,0,2.22,4.75,4,5.34,0,0-1.19,6.38,2.67,7.27,0,0-.74,5.78,1.33,8.9s3.42,8,4.16,8.15c0,0-.3,7.57,0,9.94s-7.57,14.38-1.93,32.18S119,346.34,119,346.34s8.15-1,8.89-.15l8.9.44s-1,1.78-.44,1.93c0,0-7.27,3-15.13,14.83,0,0-8.16,7.71-9.49,9.35S99,384.45,97.19,383.86s-1.18-1.93-3.56.29-3.56,4.31-5.33,4c0,0-8,11.27-7,12.6s5.78,3.12,5.78,3.12a27.58,27.58,0,0,1-5,5.93s0-3.71-2.38-2.07-9.64,10.82-8.75,14.08c0,0-3.7,3.86-.89,7s28,14.54,31.89,16.47,23.73,1.77,25.8-.74,1.34-6.68-2.52-9.65-12,.9-17.79-17.05c0,0,5.33,4.6,10.08,4.6s15.28.29,14.53-6.23-11-7.42-11-7.42V406.7h-1.19s.3-7.12-1.33-8.31c0,0,24.32-16.76,27.44-23.13,0,0,14.09-7.27,18.39-17.95,0,0,14.38-8,13.34-12.9,0,0,4.75-3.12-1.78-20.91,0,0,1.19-6.82-2.82-7.27,0,0-5.93-21.5-7.86-23.43,0,0,3.27-3.11-6.22-14.83,0,0-.45-7.42-3.12-12.9,0,0,2.52-7.42-.74-7.27a11.2,11.2,0,0,0,.74-6.82s2.38-4.75,1.19-7.12a4.07,4.07,0,0,1,.74-5.19c1.19-1.19-.89-3.56-.89-3.56s5-2.82,4.6-5.64-3.86-11.12-4.6-16.61-6.53-18.53-6.53-18.53-3.11-17.35-8.6-26.1c-1.21-1.94-2.41-4.09-3.53-6.33a52.49,52.49,0,0,1,11.39-3.61,31.83,31.83,0,0,0,4.91-.36c10.87-1.62,21.49-8.47,29.13-18.79s11.09-22.48,9.47-33.35c-1.14-7.58-4.64-13.74-10.14-17.81S170.65,82.36,163.07,83.49Zm16.56,9.13c.36.26.68.55,1,.83l-3.47,5.2L173,95.87l3.44-5.15A20.1,20.1,0,0,1,179.63,92.62Zm-25.7,29.57-2.78,4.16L147,123.58l2.78-4.17Zm-3.47-3.81,2.78-4.16L157.4,117l-2.78,4.16Zm4.51,4.5,4.16,2.78-2.78,4.16-4.16-2.77Zm.69-1,2.78-4.16,4.16,2.78-2.78,4.16Zm3.47-5.2,2.78-4.16,4.16,2.78-2.78,4.16Zm8-.69,4.17,2.78-2.78,4.16-4.16-2.78Zm.69-1,2.79-4.17,4.16,2.79L172,117.71Zm2.44-5.89-4.16-2.78,2.78-4.16,4.16,2.78Zm-.69,1-2.78,4.17-4.16-2.78,2.78-4.16Zm-8,.7L157.4,108l2.78-4.16,4.16,2.78Zm-.7,1L158.1,116l-4.17-2.78,2.78-4.16Zm-8,.69-4.16-2.78,2.78-4.16,4.16,2.78Zm-.69,1-2.78,4.16-4.16-2.78,2.78-4.16Zm-3.47,5.19L146,122.88l-4.16-2.78,2.78-4.16Zm-2.44,5.89,4.16,2.78-2.78,4.16-4.16-2.78Zm.69,8-2.78,4.16L140.05,134l2.78-4.16Zm1,.69,4.17,2.78-2.78,4.16-4.16-2.78Zm.7-1,2.78-4.16,4.16,2.78L152.88,135Zm8-.69,4.16,2.78-2.78,4.16-4.16-2.78Zm.7-1,2.77-4.16,4.17,2.77-2.79,4.16Zm3.47-5.2,2.78-4.16,4.15,2.78L165,128.1Zm8-.69,4.16,2.78-2.78,4.16-4.16-2.78Zm.69-1,2.78-4.17,4.16,2.78-2.78,4.16Zm3.47-5.2,2.78-4.16,4.16,2.78-2.78,4.16Zm2.44-5.89-4.16-2.78,2.77-4.16,4.17,2.78Zm-1.73-8.67-4.16-2.77,2.78-4.17,4.16,2.78Zm-5.19-3.47-4.16-2.77,2.77-4.17,4.17,2.78Zm-.69,1L165,105.57l-4.17-2.78,2.78-4.16Zm-8,.69-4.16-2.78,2.78-4.16,4.16,2.78Zm-.69,1-2.78,4.17-4.16-2.78,2.78-4.16Zm-8,.69L147,101.05l2.78-4.16L154,99.67Zm-.69,1L147.7,109l-4.16-2.78,2.78-4.16Zm-3.47,5.2-2.78,4.16-4.16-2.78,2.78-4.16Zm-3.47,5.19-2.78,4.16-4.16-2.78,2.78-4.16Zm-2.44,5.89,4.16,2.78-2.77,4.16-4.16-2.78Zm.69,8L139,133.28l-4.15-2.78,2.77-4.16ZM139.36,135l4.16,2.78L140.74,142l-4.16-2.78Zm1.72,8.67,4.16,2.78-3.11,4.67a19.64,19.64,0,0,1-4.09-2.31l-.25-.2Zm.69-1,2.78-4.17,4.16,2.78-2.78,4.17Zm8-.69,4.16,2.78-2.78,4.16L147,146.11Zm.69-1,2.78-4.16,4.16,2.78-2.78,4.16Zm8-.69,4.16,2.78-2.78,4.16-4.16-2.78Zm.69-1,2.78-4.16,4.16,2.78L163.27,142Zm3.47-5.19,2.78-4.17,4.16,2.79-2.78,4.15Zm8-.7,4.16,2.79-2.78,4.16-4.16-2.78Zm.69-1L174,128.1l4.16,2.78L175.41,135Zm3.47-5.2,2.78-4.16,4.16,2.78-2.78,4.17Zm3.47-5.19,2.78-4.16,4.16,2.78-2.78,4.16Zm2.43-5.89-4.16-2.78,2.78-4.16,4.16,2.78Zm-.69-8,2.78-4.16,4.16,2.78-2.77,4.16Zm-1-.69-4.16-2.79,2.78-4.15,4.16,2.77Zm-3.61-17.11-3.32,5-4.15-2.78,2.37-3.55A20.62,20.62,0,0,1,175.29,90.21ZM163,88.93a26,26,0,0,1,5.74-.21l-2,3L162.71,89Zm3.05,3.81-2.78,4.16-4.16-2.78L161.93,90Zm-5.25-3.38-2.73,4.07-3.18-2.13A33.2,33.2,0,0,1,160.84,89.36Zm-8,2.91.73-.35,3.82,2.55-2.78,4.16-4.16-2.78Zm-2.39,1.34-1,1.55-.68-.45C149.34,94.33,149.91,94,150.48,93.61Zm-2.8,1.86,1.08.72L146,100.36l-2.33-1.56A41.85,41.85,0,0,1,147.68,95.47Zm-5,4.21,2.56,1.71-2.78,4.16-3.2-2.13A49,49,0,0,1,142.73,99.68Zm-4.83,5.55h0l.63-.82,3.28,2.19L139,110.75l-1.75-1.17C137.55,108.06,137.75,106.59,137.9,105.23Zm-.86,5.68,1.31.87-2.27,3.39C136.45,113.77,136.77,112.33,137,110.91Zm-2.18,8.33,1-1.57,4.16,2.78-2.78,4.16-3-2A19.67,19.67,0,0,1,134.86,119.24Zm-.72,4.76,2.46,1.65L134.37,129A28.34,28.34,0,0,1,134.14,124Zm1.32,10.12s-.27-.79-.56-2.09l3.42,2.28-2.78,4.17-2.31-1.55A4,4,0,0,1,135.46,134.12Zm-2.86,8.53a6.3,6.3,0,0,1,.33-1.42,13.58,13.58,0,0,1,0-3l1.89,1.26-2.18,3.27A.54.54,0,0,0,132.6,142.65Zm3.29-2.45,4.16,2.78-3.23,4.83a19.48,19.48,0,0,1-3.43-3.88Zm1.39,19.59c-1-2.11-1.87-4.24-2.6-6.3a24.37,24.37,0,0,0,7.83,3.82C141.49,157.77,139.6,158.64,137.28,159.79Zm11.31-7.1a21.84,21.84,0,0,1-5.28-1.11l3-4.44,4.16,2.78Zm1.43.1,1.45-2.18,2.87,1.92A26.63,26.63,0,0,1,150,152.79Zm6.11-.56-4-2.65,2.78-4.17,4.16,2.78-2.65,4Zm2.12-.5,1.89-2.84,2.15,1.43A34,34,0,0,1,158.25,151.73Zm8.4-3.58c-1,.58-2,1.1-3,1.57l-2.81-1.87,2.78-4.16,4.16,2.78Zm-2.34-5.5,2.78-4.16,4.16,2.78-2.78,4.16Zm5.33,3.57-.14-.09,2.78-4.17,1.43,1A44.84,44.84,0,0,1,169.64,146.22Zm5-4.17L173,140.93l2.78-4.16,2.34,1.56A48.86,48.86,0,0,1,174.65,142.05Zm5.12-5.84c-.29.39-.59.77-.9,1.15l-2.43-1.63,2.78-4.16,2.55,1.7C181.14,134.26,180.48,135.25,179.77,136.21Zm2.65-4-2.51-1.67,2.78-4.17,2.06,1.38A44.1,44.1,0,0,1,182.42,132.21Zm2.83-5.62-1.87-1.25,2.78-4.16.8.53A41.64,41.64,0,0,1,185.25,126.59Zm2-6.16-.44-.29.75-1.11C187.51,119.5,187.4,120,187.29,120.43Zm.79-4.37-2.26,3.39-4.16-2.78,2.78-4.16,3.75,2.51C188.16,115.37,188.13,115.71,188.08,116.06Zm-.08-8.69v0a31.67,31.67,0,0,1,.29,6.18l-3.16-2.11,2.78-4.16Zm-.37-1.88-.06.1-4.17-2.78,2.13-3.18A24.09,24.09,0,0,1,187.63,105.49Zm-5.26-3.37-4.16-2.78,3.37-5a20.12,20.12,0,0,1,3.27,4.11Z"/><path class="cls-8" d="M95.11,220.88a589.43,589.43,0,0,1-49.83,61.58A213.82,213.82,0,0,1,0,269.2c25.64-11.74,52.43-28.44,79.92-53.29Q87.36,218.66,95.11,220.88Z"/><path class="cls-9" d="M227.43,278.5a265.5,265.5,0,0,1-98.6-24.16c13-25.06,25.17-50.08,36.65-74.84,23.43.16,48.93-3.29,76.55-11.83C238.07,202,233.3,238.92,227.43,278.5Z"/><path class="cls-7" d="M120.56,19.8A9.56,9.56,0,1,0,111,29.35,9.56,9.56,0,0,0,120.56,19.8Z"/></g></g></g></svg>