<svg xmlns="http://www.w3.org/2000/svg" xmlns:xlink="http://www.w3.org/1999/xlink" viewBox="0 0 285 525"><defs><style>.cls-1{isolation:isolate;}.cls-2{fill:url(#linear-gradient);}.cls-3{fill:#001443;}.cls-4{opacity:0.3;fill:url(#linear-gradient-2);}.cls-4,.cls-8{mix-blend-mode:screen;}.cls-5,.cls-7{opacity:0.7;mix-blend-mode:multiply;}.cls-5{fill:url(#linear-gradient-3);}.cls-6{fill:url(#linear-gradient-4);}.cls-7{fill:url(#linear-gradient-5);}.cls-8{opacity:0.4;fill:url(#linear-gradient-6);}</style><linearGradient id="linear-gradient" x1="62.1" y1="2304.1" x2="227.16" y2="2304.1" gradientTransform="matrix(0.41, -0.91, -0.91, -0.41, 2149.94, 1500.74)" gradientUnits="userSpaceOnUse"><stop offset="0.16" stop-color="#82bc3f" stop-opacity="0.8"/><stop offset="0.19" stop-color="#78b83f" stop-opacity="0.81"/><stop offset="0.34" stop-color="#4da741" stop-opacity="0.84"/><stop offset="0.5" stop-color="#2b9943" stop-opacity="0.87"/><stop offset="0.66" stop-color="#139044" stop-opacity="0.89"/><stop offset="0.83" stop-color="#058a45" stop-opacity="0.9"/><stop offset="1" stop-color="#008845" stop-opacity="0.9"/></linearGradient><linearGradient id="linear-gradient-2" x1="698.14" y1="-1747.32" x2="1876.36" y2="-1747.32" gradientTransform="matrix(0.09, -0.77, 0.99, 0.12, 1768.56, 1357.91)" gradientUnits="userSpaceOnUse"><stop offset="0.16" stop-color="#1374ad" stop-opacity="0.8"/><stop offset="1" stop-color="#1173be" stop-opacity="0.9"/></linearGradient><linearGradient id="linear-gradient-3" x1="972.25" y1="-1755.32" x2="1204.95" y2="-1755.32" gradientTransform="translate(1752.42 1491.24) rotate(-83.03)" gradientUnits="userSpaceOnUse"><stop offset="0.16" stop-color="#1173be" stop-opacity="0.9"/><stop offset="1" stop-color="#17a8e2" stop-opacity="0.8"/></linearGradient><linearGradient id="linear-gradient-4" x1="-807.96" y1="61.47" x2="-578.47" y2="61.47" gradientTransform="translate(414.19 -320.38) rotate(-71.6)" xlink:href="#linear-gradient"/><linearGradient id="linear-gradient-5" x1="1102.37" y1="-1671.01" x2="1372.23" y2="-1671.01" xlink:href="#linear-gradient-3"/><linearGradient id="linear-gradient-6" x1="952.69" y1="-1641.63" x2="1333.24" y2="-1641.63" xlink:href="#linear-gradient-3"/></defs><g class="cls-1"><g id="Capa_2" data-name="Capa 2"><g id="Capa_1-2" data-name="Capa 1"><path class="cls-2" d="M158.87,525C105.1,506.06,50.48,489.16,0,462.88,20.56,409.58,41,360,60.8,314.47a305.83,305.83,0,0,0,99.38,40.44C156.65,410.48,155.78,467.87,158.87,525Z"/><path class="cls-3" d="M269.56,411l-1.91-1.77s-.06-2.56-.06-3.28a20.63,20.63,0,0,0-.59-3l-1.51-.66s-3-10.77-10.71-30.27S235,334.83,235,334.83a5.28,5.28,0,0,0-.46-1,8.74,8.74,0,0,0-1-.92,6.36,6.36,0,0,1-.26-1.45c0-.59-2.83-2.23-6.05-6.63s-5.51-11.1-6.37-13.33a58.47,58.47,0,0,0-2.62-5.32,16,16,0,0,1-1.18-5s-.73-1-1.32-1.64A18.41,18.41,0,0,0,213,297.4c-1.51-1.12-1.64-1.77-2.62-3.28A29.58,29.58,0,0,1,208,290c-.65-1.44-3.94-3.41-3.94-3.41s-1.31-2.43-3.54-5.72-7.42-10.83-8.14-12.08-2.17-4-2.17-4-1.71-3.16-2.69-5.13a70.86,70.86,0,0,0-4.67-6.76s-7.81-11.56-8.14-12.48-1.25-1.31-3.22-3.54-1.18-1.91-1.83-3.42a31.51,31.51,0,0,1-2.11-4.79,9,9,0,0,1-.46-2.63c0-.85-.65-.72-1.9-1.24s-1.18-2.37-1.12-8.67,3.55-9.2,8-26.6,8.79-24.95,9.25-28.5-.59-43.86-.26-47.21.72-3.09,3.42-5.91,2.89-7.29,2.89-7.94,2.49-6.7,3.8-10.31.33-4.8-.13-4.73-2.89,3-3.15,4.07-1.9,4.46-2.23,5.65-1.51.72-1.45.39A26.81,26.81,0,0,0,183,90c-.46-1.12-1-5.25.72-12s-1.45-9.65-1.58-6.5a52.31,52.31,0,0,1-2,9.79c-.19.39-.92,6.56-.92,6.56s.27-6.56.33-6.83.66-5.84.66-6.56a5.8,5.8,0,0,0-1.32-2.89c-.39-.2-.59.39-.78,2.1s-.73,6.7-1.12,8.34-.13,5.84-.39,8.6-1.71,16-1.78,17.4-4.4,18.59-7.22,29-4.92,24.82-4.92,24.82a16.34,16.34,0,0,1-1.52,6.1c-1.57,3.75-3.08,15.76-7.09,20.62s-11,17.54-11,17.54a4.09,4.09,0,0,0-1,.92,3.43,3.43,0,0,0-.6,1.24,4.85,4.85,0,0,0-.59,1.51c-.19.92-3.28,4.86-4,6.24a7,7,0,0,0-.53,3.35s-2,.46-3.48,1-3.48,3.08-3.87,3.74-1-.07-1.71-.59a2.54,2.54,0,0,1-1-2.7c.26-1.24,6.56-5.38,7-6.43a3.41,3.41,0,0,0-1.05-3.48c-.92-.79-.19-2.17-.19-2.43s-1.06-1.44-1.19-1.9a7.75,7.75,0,0,1,.33-2.11c.07-.39.07-1.83-.66-2a2.64,2.64,0,0,1-1.37-1.71,31.2,31.2,0,0,0,.72-4.4c0-1.11-1.51-1.57-3.35-1.64s-3.48-.46-3.94-1,.46-.85-2.23-3-8.47-3.63-8.47-3.63a4.7,4.7,0,0,0-2.33-1.34,13.78,13.78,0,0,0-3.57-.92c-1.59-.16-3,.4-4.6.51a13.46,13.46,0,0,0-5.08,1.16c-2.26,1.14-3.74,3.41-5.87,4.72a5.24,5.24,0,0,0-2.19,1.9c-.54,1-.86,2.06-1.39,3-.94,1.73-2.09,3.11-2.18,5.17a9.78,9.78,0,0,1-.45,2.91,10.45,10.45,0,0,0-.58,2.47,10.75,10.75,0,0,0,1,5.44,2,2,0,0,1-.2,2.55c0-.08,0-.16,0-.24-.73-.08-1.29.54-1.94.73a9.12,9.12,0,0,0-2,.52,22.63,22.63,0,0,1-2.12,1.38,8,8,0,0,0-2.79,2.17,9.46,9.46,0,0,1-3.18,2.5,14.5,14.5,0,0,0-3.09,2.78c-1.21,1.14-2,2.68-3.37,3.64s-3.14,2.48-4.85,2.15c.17.78,1.64.53,2.22.44a6.12,6.12,0,0,0,2.09-.76c.4-.23.92-.79,1.36-.9,1.21-.28.68,2,.54,2.81-.23,1.29-.76,2.52-1.1,3.77a10.44,10.44,0,0,1-.82,2.66c-.89,1.41-2.51,2.29-3.21,3.88a10.83,10.83,0,0,0-.11,6.8,4.94,4.94,0,0,1-.45,4c-.81,1.39-2.33,2-2.63,3.77-.2,1.15-.35,3.86.51,4.8.29-1,.22-2.12.41-3.17.35-1.88,2.32-2.73,3.63-4a5.67,5.67,0,0,0,1.25-1.7c.92.38,2.35-.49,3.12-.92,1.16-.64,1.91-1.11,2.16.51s-.7,4.08.74,5.07c.87.6,1.09.23.82-.6a6.76,6.76,0,0,1,1.51,2.39c.29.55,1.16,1.46,1.25,2,.15.91-1.14,1.83-1.41,2.63a6.84,6.84,0,0,0,.17,3.36,8,8,0,0,0,1.32,2.95,9.19,9.19,0,0,1,1.31,2c.28.69.87,2.5.65,3a59.51,59.51,0,0,0-6.43.79c-3.63.63-14.36,5.58-14.36,5.58s-3.33-15.37-3.49-18.39.2-19.41.06-20.35-.47-6,0-8,.3-8.74.87-13.92,3-7-.07-6.38-4.64,5.41-4.8,5.64-1.62-5.51-2.53-7.46-4.37-6.39-5.54-6.09.53,2.73,1.44,5.28,3.5,9.59,2.39,9.72-3.63-6.66-4.84-9.08-4-3.7-3.13-1.38,5,13.08,4.74,13.45-3.33-3.8-4.23-5.28-2.09-2.85-2.43-1.74,4.64,9.71,4.75,10.49a2.41,2.41,0,0,1-1.58,2.65c-1.55.71-3.6-1-4.28-1.41s-1.88-2.15-1.88-.81,2.76,4.27,3.9,5,1.31,2.11,1.95,3.76,3.21,5.18,5,8.26S38.55,280.2,38.48,286s.79,10.24,2.17,10.83,13.72,1.9,24.16,1.77,22.33-6.17,22.33-6.17c.4.88.66,2,1,3a11.06,11.06,0,0,0,2.34,3.75c.77.85,1.77,1.6,2.45,2.52,1.06,1.43-1.33,3.6-1.79,4.91a3.53,3.53,0,0,0,.11,2.83c.31.76.5,1.71,1.34,2.06.21-1.35-.33-2.91-.07-4.33a4.84,4.84,0,0,1,2.35-2.83,6,6,0,0,1,.05,3.64c.26-.63.66-1.15,1-1.8a10.82,10.82,0,0,0,.52-2.66c.32-1.76-.13-3.57.27-5.33.35-1.56.35-3.28.84-4.77a17.66,17.66,0,0,1,.63,3.38c.08.73-.06,1.67.56,2.19a55,55,0,0,0-.19-6c0-.92-.26-3.31.78-3.86a4.17,4.17,0,0,1,0,2.19,5.81,5.81,0,0,0,.1,2.23c.1.74.13,1.46.27,2.21a12.84,12.84,0,0,0,1.1,3c.12-2-.51-4.59.6-6.34.27-.43.51-.51.6-1.06a12.18,12.18,0,0,0-.08-1.59c.24.28,1.07,1.61,1.55,1.4.64-.27-.59-2.2-.64-2.54-.14-.83-.24-2.54.49-3.13a8.19,8.19,0,0,1,2.94-.89,2.78,2.78,0,0,1,1.71.1c.39.11.79,0,1.14.09.64.16,1,.74,1.73.86,1.59.27,3.75-.47,5.12.52.38.28.61.69,1.07.85a4.79,4.79,0,0,0,1.88-.13,2.07,2.07,0,0,1,1.23,0c.5.24.54,1.05,1,1.33.83.48,2.29.12,3.22.32a6.11,6.11,0,0,1,3.23,1.46c.11.65,1.28,1.45,1.77,1.77,1.41.94,3.14,1.32,4.61,2.19,1.19.72,2.15,1.76,3.55,2a4.46,4.46,0,0,1,1.66.76c1.28.75,2.73,1,3.9,1.92,1.75,1.43,3.39,3,5.16,4.38s1.24,3.75,2.12,5.81c.42,1,.74,1,1.75,1s1.52.29,1.7,1.33c.1.57-.11,2,.58,2.3.32.13.77-.2,1.07-.08,1.17.45,1.29,3.32,1.38,4.24a41.93,41.93,0,0,0,.63,6,22.69,22.69,0,0,1,.71,5.19c0,1.28.21,3.5,1.39,4.31V337s.72,2.69,1.31,5.05a39.35,39.35,0,0,1,.79,5.85l.2,5.58s1.7,6.5,1.64,7.22,1,.86,1,.86.86,14.84,2.76,24.82,3.35,17.53,3.35,17.53l.39,3.48c.07.53-.46-.07-.72-.07a6.19,6.19,0,0,1-1.18-.39s-1.05-.79-1.64-1.25-.92-.92-1.38-1.05a8.67,8.67,0,0,0-1.31-.19s-10.25-5.65-21.15-5.78-40.38,3.87-40.38,3.87c.26-2.1-2.89-7.94-2.89-7.94l-.92-2.7-.33-2.56-.66-2.23a11.34,11.34,0,0,1-.32-1.51c0-.33-4.73-1.77-11.1-.13S75.52,396,73,399.77s-6.5,2.83-12.8,6.44S50,420.19,50,423.87s.85,8.8,4.33,9,13.6-5.32,13.86-5.39,2-.26,2-.26l2.23-.46,2.37-.33,2.1.13H80l4.34.07s2.56-.13,3-.13,4.66-1.71,4.66-1.71,17.34-.66,22.46-.46,24.23,6.11,24.23,6.11,15.24,1.9,10.11,2.49-6.76,8.8-7.29,9.79.6,2.62-4,7.88-10,16.09-10.38,23.44,2.24,9.52,4.8,9.46,11.95-12.41,12.8-13.07,0,0,1-.92.59-.72,1.57-1.05a3.27,3.27,0,0,0,1.51-1l3.88-1.45,1.84-.46a2.63,2.63,0,0,0,.85-.72c.33-.46,2.1-.59,2.1-.59a18.7,18.7,0,0,0,1.78-1,1.71,1.71,0,0,1,1.83-.14l3.22-2.36.33-2.1s3.94-2.36,9.19-5,22.85-7.82,28-8.34,32-7.09,32-7.09l1.51-.13c.79-.07,2.63-.14,4.33-.14s1.52,1.12,3.09,1.91,6.17.72,11.75-.46,13.2-6.63,14.85-8.47,1.37-4.47,1.51-7.49a32.86,32.86,0,0,1,1-6.17V413.5ZM68.26,249.49A6.59,6.59,0,0,1,66,251.84a6.57,6.57,0,0,0-1,.47,16.75,16.75,0,0,0,.59-4.85c.11-1.91.09-5.28,2.89-5.3a10.78,10.78,0,0,1,.33,3.88A5.92,5.92,0,0,1,68.26,249.49Zm148,156.71c-3.53.29-15.88,4.7-15.29.88s5-48.15,5-48.15,14.84,23.44,18.37,27.56,9.26,16.18,9.26,16.18S219.8,405.9,216.27,406.2Z"/><circle class="cls-3" cx="205.06" cy="23.92" r="23.92"/><path class="cls-4" d="M134.91,115.54q20.37-42,39.13-78.75,8.33,15.92,17.21,29.65-15.21,40-31.19,84.47A359.86,359.86,0,0,1,134.91,115.54Z"/><path class="cls-5" d="M73.38,280.57a311,311,0,0,0,112.1,39.68c3.39-32.89,7.52-65.23,12.19-96.86-23-14.89-45.82-34.65-67.39-60.76C112.1,198.81,93.06,238,73.38,280.57Z"/><path class="cls-6" d="M200.27,369.71a690.42,690.42,0,0,0,9.26,92.34,250.08,250.08,0,0,0,52.86,16.11c-17.57-28-33.08-61.55-44-103.55C212.31,373.21,206.28,371.59,200.27,369.71Z"/><path class="cls-7" d="M205.42,175.28q6.29-26.31,12.73-51.45a233,233,0,0,0,39.54,23.43q-3.58,24.57-6.8,49.9A244.9,244.9,0,0,1,205.42,175.28Z"/><path class="cls-8" d="M203.84,342.2c1-59.47,5.35-118.54,11.58-176.09a238.59,238.59,0,0,0,43.19,17.62c5.56,53.33,14.18,104.15,26.39,151.79A406.19,406.19,0,0,1,203.84,342.2Z"/></g></g></g></svg>