<svg xmlns="http://www.w3.org/2000/svg" xmlns:xlink="http://www.w3.org/1999/xlink" viewBox="0 0 498.12 484.52"><defs><style>.cls-1{isolation:isolate;}.cls-2,.cls-8{opacity:0.4;mix-blend-mode:screen;}.cls-2{fill:url(#linear-gradient);}.cls-3{fill:#001443;}.cls-4,.cls-5,.cls-6,.cls-7{mix-blend-mode:multiply;}.cls-5{fill:url(#linear-gradient-2);}.cls-6{opacity:0.7;fill:url(#linear-gradient-3);}.cls-7{fill:url(#linear-gradient-4);}.cls-8{fill:url(#linear-gradient-5);}</style><linearGradient id="linear-gradient" x1="1895.15" y1="-1681.08" x2="2595.13" y2="-1681.08" gradientTransform="matrix(0.97, 0.26, -0.26, 0.97, -2071.17, 1278.99)" gradientUnits="userSpaceOnUse"><stop offset="0.16" stop-color="#1173be" stop-opacity="0.9"/><stop offset="1" stop-color="#17a8e2" stop-opacity="0.8"/></linearGradient><linearGradient id="linear-gradient-2" x1="-134.11" y1="-546.99" x2="353.46" y2="-546.99" gradientTransform="matrix(0.78, 0.62, -0.62, 0.78, -126.37, 776.05)" gradientUnits="userSpaceOnUse"><stop offset="0.16" stop-color="#e98500"/><stop offset="0.34" stop-color="#ec9200"/><stop offset="0.68" stop-color="#f5b500"/><stop offset="1" stop-color="#fedb00"/></linearGradient><linearGradient id="linear-gradient-3" x1="97.47" y1="-580.63" x2="443.21" y2="-580.63" xlink:href="#linear-gradient-2"/><linearGradient id="linear-gradient-4" x1="-746.54" y1="1713.69" x2="-535.06" y2="1713.69" gradientTransform="matrix(0.56, 0.83, 0.83, -0.56, -914.03, 1637.22)" xlink:href="#linear-gradient"/><linearGradient id="linear-gradient-5" x1="-21.33" y1="-697.38" x2="276.8" y2="-697.38" gradientTransform="matrix(0.78, 0.62, -0.62, 0.78, -126.37, 776.05)" xlink:href="#linear-gradient"/></defs><g class="cls-1"><g id="Capa_2" data-name="Capa 2"><g id="Capa_1-2" data-name="Capa 1"><path class="cls-2" d="M357.38,83.76c22.44,49.53,41.37,94.07,58,134.71-39.41,16-72.09,34.75-99.15,55.16-42.82-25.1-89.1-51.44-139.09-78.62C219,152.33,277.34,113.18,357.38,83.76Z"/><path class="cls-3" d="M492,261.87s4,1.73,4.45.08S489.7,253,486,251.32s-11.58-4.87-11.58-4.87,2.21-4.55.91-5.55-5.88,2.07-5.88,2.07a30.14,30.14,0,0,0-15-4.83S440,228.51,434.57,223s-9-13.47-19.35-14.64c0,0-19.89-13.82-20.79-17.09s-1.72-22.37-25-24.75c0,0-18.93-19.59-28.95-23.05,0,0,6.12-17.06,6.48-18.16s4.73-1.62,5.43-6.28,8-22-7.45-32.27c-19.32-12.74-25.35-.72-25.35-.72S308,90,307.15,107.47c0,0-3.34,9-2.72,12s1.55,14.34.89,14.66-9.2.61-12.17.76-8,2.64-8,2.64a51.33,51.33,0,0,0-22.25-9.19c-13.08-1.92-22.21,1.52-22.21,1.52s-27-8.86-33-12.68-20-13.26-30.22-18.53c-.92-.47-1.95-1-3-1.66l0-.12c-6.61-4-19.38-15.69-19.38-15.69a30.21,30.21,0,0,0-8.25-13.43s1.9-5.17.62-6.2-4.68,1.8-5.1,2.14c-.54-.76-1.12-1.5-1.74-2.21-1.67-2.29-4.24-5.78-5.83-7.82-2.51-3.23-11.32-8.56-12.81-7.69s1.13,4.31,1.13,4.31S112,45.68,111.14,47s.72,3,.72,3-3.64-1.12-4.2.05a3.09,3.09,0,0,0,.36,3,29.7,29.7,0,1,0,34.62,44.77c6.26,6.34,14.89,14.82,21.86,20.8C177,129.29,194.57,138.24,200,139.35s16.93,7.74,26.46,11.32,32.13,6,32.13,6,9,12.74,4.63,33.85-9.27,39.62-9.34,41.49-.14,10.9-.14,10.9-8.14-2.44-15,13.05-13,36.41-10,62a30.09,30.09,0,0,0-17.95.84c-9.15,3.56-18.15,6.92-18.15,6.92l-7.1-.8s.34-2-3-2.91-10.94,1-10.94,1-8.69-2.1-11.1,3.35-2.62,9.39-5.1,13.06-18,18.12-16.46,32,8.8,23.28,16.33,20.17,17.67-28.53,21.58-33.28,9.22-6.95,9.81-8,4.58-1.55,6.34-4.08c0,0,6.05,3.37,9.75,3.63,0,0-1.78,11.94,16.66,24.37,0,0-25.61,6.62-30.52,18.9,0,0-22.89,22.53-35.91,23.44,0,0-4.71-2-7.16-2.1s-7-.41-7.57-1.37-2.55-2.7-6.07-.68-7.4,6.66-7.14,12.24.82,11.36-2.36,16-7.15,7.66-8.93,13.36-4.72,26.91,3.16,30,16.46-13.42,20.8-21.12,14.74-18.75,14.74-18.75l.74,7.58,2.2.15,2-6.72s2.11,1.07,7,.66,7.17-4.12,6.69-7.17-9.57-4.42-9.57-4.42l5.95-3.93S188.55,422.53,199,419,226.27,402,226.27,402s14.25-2.16,17.55-6.34c0,0,2.06,1.29,2.65.25a51.14,51.14,0,0,1,13-17.38c8.72-7.3,24.52-24.5,35.07-42.43s18.09-29.86,16.16-42.05c0,0,4.67-12.22,11.39-19s18-16.12,22.72-37.26,12.08-35.45,17.73-39.1,8.4-6.44,12.67-.41,23.29,24.71,23.29,24.71,3.34,9.58,15,15.06,35.4,10.77,35.4,10.77a20.72,20.72,0,0,0,9.12,10.54A109.68,109.68,0,0,0,473,265.89s6.6,8.2,8.49,9.69,3.92,2.42,5.1,1.87,2-1.32-.46-3.64-9-10.87-9-10.87,10.41,10,13,12.49,4.77,2.26,5.78,1.43-.94-4.09-.94-4.09,2,1.15,3.06,0S492,261.87,492,261.87Z"/><g class="cls-4"><path class="cls-5" d="M138.12,230c64.19,41.06,125.7,85.51,184.29,131a306.71,306.71,0,0,0-48.25,35.27C212.24,366.46,151,341.7,90.86,323A519.7,519.7,0,0,1,138.12,230Z"/><path class="cls-6" d="M347.73,371.88q24.47,24.54,47.56,48.47a297.86,297.86,0,0,0-52.13,27.37q-24.41-20.43-49.85-41A313.37,313.37,0,0,1,347.73,371.88Z"/></g><path class="cls-7" d="M0,131.53C56.8,85.6,112,37.39,174.55,0c44.31,58.25,84.65,113.87,121,166.07a391.76,391.76,0,0,0-110.9,81.21C126.4,206.08,64.38,166.56,0,131.53Z"/><path class="cls-8" d="M364.52,180.15a398.5,398.5,0,0,0-118.63,95.61c33.59,25.79,66.09,52,97.45,78.4,31.74-15.13,68.6-26.69,111.57-32.66C427.67,277.35,397.7,230.22,364.52,180.15Z"/></g></g></g></svg>