<svg xmlns="http://www.w3.org/2000/svg" xmlns:xlink="http://www.w3.org/1999/xlink" viewBox="0 0 398.87 348.45"><defs><style>.cls-1{isolation:isolate;}.cls-2,.cls-3,.cls-4,.cls-5,.cls-6,.cls-7{mix-blend-mode:multiply;}.cls-2{fill:url(#linear-gradient);}.cls-3{fill:url(#linear-gradient-2);}.cls-4{opacity:0.7;fill:url(#linear-gradient-3);}.cls-5{fill:url(#linear-gradient-4);}.cls-6{fill:url(#linear-gradient-5);}.cls-7{fill:url(#linear-gradient-6);}.cls-8{fill:#001443;}.cls-9{opacity:0.4;mix-blend-mode:screen;fill:url(#linear-gradient-7);}</style><linearGradient id="linear-gradient" x1="1696.1" y1="-86.88" x2="2731.64" y2="-86.88" gradientTransform="matrix(-0.71, 0.32, -0.41, -0.91, 1630, -475.59)" gradientUnits="userSpaceOnUse"><stop offset="0.16" stop-color="#82bc3f" stop-opacity="0.8"/><stop offset="0.19" stop-color="#78b83f" stop-opacity="0.81"/><stop offset="0.34" stop-color="#4da741" stop-opacity="0.84"/><stop offset="0.5" stop-color="#2b9943" stop-opacity="0.87"/><stop offset="0.66" stop-color="#139044" stop-opacity="0.89"/><stop offset="0.83" stop-color="#058a45" stop-opacity="0.9"/><stop offset="1" stop-color="#008845" stop-opacity="0.9"/></linearGradient><linearGradient id="linear-gradient-2" x1="1212.7" y1="1200.05" x2="1357.77" y2="1200.05" gradientTransform="matrix(-0.99, 0.12, 0.12, 0.99, 1450.14, -1152.5)" gradientUnits="userSpaceOnUse"><stop offset="0.16" stop-color="#1173be" stop-opacity="0.9"/><stop offset="1" stop-color="#17a8e2" stop-opacity="0.8"/></linearGradient><linearGradient id="linear-gradient-3" x1="1685.97" y1="-93.95" x2="1890.49" y2="-93.95" gradientTransform="translate(1727.94 -519.8) rotate(155.79)" xlink:href="#linear-gradient-2"/><linearGradient id="linear-gradient-4" x1="206.34" y1="1510.95" x2="408.05" y2="1510.95" gradientTransform="translate(838.09 1548.56) rotate(167.22)" xlink:href="#linear-gradient-2"/><linearGradient id="linear-gradient-5" x1="1800.34" y1="-19.84" x2="2037.51" y2="-19.84" gradientTransform="translate(1727.94 -519.8) rotate(155.79)" xlink:href="#linear-gradient-2"/><linearGradient id="linear-gradient-6" x1="3702.13" y1="2221.87" x2="4182.32" y2="2221.87" gradientTransform="matrix(-0.86, 0.51, -0.18, -0.3, 3855.47, -956.02)" xlink:href="#linear-gradient"/><linearGradient id="linear-gradient-7" x1="1668.78" y1="5.98" x2="2003.25" y2="5.98" gradientTransform="translate(1727.94 -519.8) rotate(155.79)" xlink:href="#linear-gradient-2"/></defs><g class="cls-1"><g id="Capa_2" data-name="Capa 2"><g id="Capa_1-2" data-name="Capa 1"><path class="cls-2" d="M77,342q-40.87,3.81-77,6.41c5.46-9,10.26-17.82,14.47-26.43q37-6.78,77.7-15A316,316,0,0,1,77,342Z"/><path class="cls-3" d="M373.3,109.18c10.23,49,22.37,97.82,25.57,147.73-49.43,8.8-96,16-139.25,21.81A268.78,268.78,0,0,0,244.8,185.6,1279.58,1279.58,0,0,0,373.3,109.18Z"/><path class="cls-4" d="M229.12,313.22a273.47,273.47,0,0,0-21.18-102.35c-26.26,12.42-52.46,24-78.38,34.91-.71,24.11-5.2,50.22-15,78.31C150,321.31,188.16,317.79,229.12,313.22Z"/><path class="cls-5" d="M238.41,177.24a606.54,606.54,0,0,0,65.22-49,219.93,219.93,0,0,0-11.94-47.09c-13,25.94-31.23,52.88-57.83,80.24Q236.41,169.18,238.41,177.24Z"/><path class="cls-6" d="M89.86,261.84q-22.65,7.25-44.48,13.84A205.36,205.36,0,0,0,45,235.29q20.1-8.49,40.61-17.59A215.33,215.33,0,0,1,89.86,261.84Z"/><path class="cls-7" d="M222.32,327.39c-25.43,3.34-74.18,1.69-94.09,3.74,17-17.11,29.59-31.89,38.72-44.66q44.79-20.93,96.22-45.61C252,261.84,257.63,293,222.32,327.39Z"/><path class="cls-8" d="M77.28,295.51A22,22,0,1,1,47.93,306,22,22,0,0,1,77.28,295.51Z"/><path class="cls-8" d="M62.79,312.63a57,57,0,0,1,9.38-3h0l0,.1a57.9,57.9,0,0,0-9.38,3h0l-.05-.1Z"/><path class="cls-8" d="M78.83,315.93h0l.1,0a38.62,38.62,0,0,1-2.36,9.74h0l-.11,0a38.22,38.22,0,0,0,2.34-9.7Z"/><path class="cls-8" d="M84.86,312.07h0l.08-.09a15.33,15.33,0,0,1,3.89,4.43h0l-.1.06a15.28,15.28,0,0,0-3.87-4.4Z"/><path class="cls-8" d="M68,296.79l.06-.1A14.78,14.78,0,0,1,74.57,302h0l-.09.06A14.88,14.88,0,0,0,68,296.79Z"/><path class="cls-8" d="M59,299.21l.11.05a29.41,29.41,0,0,0-2.43,8.3h-.12A29.84,29.84,0,0,1,59,299.21Z"/><path class="cls-8" d="M46.87,311l.07-.09A12.08,12.08,0,0,0,48.8,312h0a10.27,10.27,0,0,0,2,.68h0l0,.11a10.25,10.25,0,0,1-2-.69h0A11.24,11.24,0,0,1,46.87,311Z"/><path class="cls-8" d="M52.82,321.4l.11.05a14.34,14.34,0,0,0-1.12,6.48h-.12a14.65,14.65,0,0,1,1.13-6.54Z"/><path class="cls-8" d="M60.71,321.57h0l.1-.08a29.94,29.94,0,0,0,7.12,6.68h0l-.07.1a30.37,30.37,0,0,1-7.15-6.7Z"/><path class="cls-8" d="M58.33,334.11q4.94,1.58,8.41-.05h0l0,.11q-3.52,1.63-8.49.05h0l0-.11Z"/><path class="cls-8" d="M80.38,330a17.55,17.55,0,0,0,6.33-4.42h0l.09.09a17.81,17.81,0,0,1-6.38,4.44h0l0-.11Z"/><path class="cls-8" d="M47,308.43a22.43,22.43,0,0,0-1.05,4.91c.32-.87.66-1.68,1-2.43A7.7,7.7,0,0,1,47,308.43Z"/><path class="cls-8" d="M51.81,327.86a7.16,7.16,0,0,1-3.15-1.6A22,22,0,0,0,58,335.14l.34-1A18.59,18.59,0,0,1,51.81,327.86Z"/><path class="cls-8" d="M59,299.32q5.25-2.88,9.21-2.47a20.44,20.44,0,0,0,1.34-3.41A22.12,22.12,0,0,0,55,297.49,7.87,7.87,0,0,1,59,299.32Z"/><path class="cls-8" d="M86.76,325.64l.4.39c.22-.38.41-.78.61-1.17a22.12,22.12,0,0,0,2.12-9.17l-1.16.64C88.48,320.6,87.83,323.7,86.76,325.64Z"/><path class="cls-8" d="M82.36,303.9l.09.07a17.53,17.53,0,0,0,1.19-2.1,11.45,11.45,0,0,0,.52-1.28l-.08-.09a14.29,14.29,0,0,1-.55,1.32A17.7,17.7,0,0,1,82.36,303.9Z"/><path class="cls-8" d="M75.05,335.21l.29.93.12,0-.3-.92Z"/><path class="cls-8" d="M80.54,330a19.22,19.22,0,0,1-5.4,5.24q-3.63,1-8.51-1.1c.49-2,.86-4.06,1.16-6h0c-.3,2-.68,4-1.16,6,3.25,1.38,6.08,1.74,8.51,1.1a19.22,19.22,0,0,0,5.4-5.24Z"/><path class="cls-8" d="M85.09,312.17a21.28,21.28,0,0,0-2.64-8.33,22.19,22.19,0,0,0-7.93-1.8q-1,3.66-2.39,7.64A41.38,41.38,0,0,1,78.86,316Q82.57,313.9,85.09,312.17Z"/><path class="cls-8" d="M56.6,307.45a15,15,0,0,0-5.9,5.25,16.08,16.08,0,0,0,2.15,8.83,67.62,67.62,0,0,0,8,.12c.71-3.56,1.41-6.57,2.08-9A61,61,0,0,0,56.6,307.45Z"/><path class="cls-8" d="M76.6,325.46q1.62,1.74,3.94,4.55h0c-1.55-1.88-2.86-3.39-3.94-4.55a30.35,30.35,0,0,1-8.81,2.65h0A29.83,29.83,0,0,0,76.6,325.46Z"/><path class="cls-8" d="M75.14,335.25a19.22,19.22,0,0,0,5.4-5.24q-2.33-2.81-3.94-4.55a29.83,29.83,0,0,1-8.81,2.65c-.3,2-.67,4-1.16,6Q71.51,336.21,75.14,335.25Z"/><path class="cls-8" d="M75.14,335.25a19.22,19.22,0,0,0,5.4-5.24q-2.33-2.81-3.94-4.55a29.83,29.83,0,0,1-8.81,2.65c-.3,2-.67,4-1.16,6Q71.51,336.21,75.14,335.25Z"/><path class="cls-8" d="M255.06,248.81c-.13-.84-2-1.64-1.83-2.55.09-.5,1.56-.91,1.83-1.65.71-1.9-.22-4.38-.73-5.65-.58-.35-1.81.37-2.55.18s-1.56-1.39-2.2-1.64a18,18,0,0,0-7.66-.55c-1.75.21-3.37,1-5.1.73s-2.28-1.62-3.47-.55c-.43.39-.35.33-.73.37-1.06.12-3.58-.82-5.29-1.46a248,248,0,0,1-23.72-10.4c-1.46-.72-3-1.38-4.55-2.19s-3.21-1.48-4.57-2.37c-1.07-.7-1.93-1.84-2.92-2.56a22.09,22.09,0,0,0-3.46-2.18c-7.49-3.37-14.76-.64-24.45-1.65.9-1.3,1-3,1.71-4.4,1.19-2.37,1.91-1.17,3.86-.52a12.34,12.34,0,0,0,3.12.32,24.11,24.11,0,0,1,3,.76,8.85,8.85,0,0,1,2.4.58c.24-1.73.06-2.56,1.07-4.06a10.65,10.65,0,0,0,1.71-4.1c.74-2.85,1.25-5.73,1.94-8.56s1.93-5.71,2.53-8.66c.3-1.51.48-3.19.73-4.74a29,29,0,0,1,.73-4.92,21.75,21.75,0,0,1,1.64-2.37c1-1.84,1.59-4,2.55-5.66.51-.88,1.37-1.51,1.83-2.37.16-.32.17-1,.36-1.46s.63-.75.73-1.1c1.2-4.1.16-10.23-.55-13.86-.44-2.25-1.54-4.39-1.82-6.39-.23-1.67.1-3.61,0-5.47-.08-1.38-.45-2.75-.55-4-.3-4,.55-6.13,1.28-8.94,2.21-8.54,4.95-15.83,7.29-23.9a71,71,0,0,0,2.56-10c.15-1.11,0-2.43.18-3.65s.55-2.26.55-3.28c0-3.42-2.7-4.78-4.93-6.57-2.79-2.25-5-4.43-8-6.2a96.69,96.69,0,0,0-10.94-5.3c1-2.72-3-3.37-4.92-4.37-5.24-2.66-9.66-6-14-8.58-1.62-.93-3.25-1.7-4.75-2.73s-2.71-2.21-4.37-3.29c-3.22-2.07-6-5.11-8.75-6.38-3.52-1.62-8-1.53-12.41-2.55-1.35-.31-2.71-.72-4-.92-1.61-.24-3.29,0-4.74-.36a19.43,19.43,0,0,1-2.19-1.1,11.09,11.09,0,0,1-4.74-3.1,21.18,21.18,0,0,1-2-2.55c-.69-1-1.06-2.35-1.83-3.28s-1.92-1.53-2.36-2.37l.86,0c-.13-.78.27-1.19.13-2a1.85,1.85,0,0,0,.27.19,1.59,1.59,0,0,0,1.36.08,1.51,1.51,0,0,1-1.5-1,1,1,0,0,0,.2-.77c0-.46-.34-.46-.31-1a2.17,2.17,0,0,0,.08-.3,6.15,6.15,0,0,1,1.08,1.19,4.26,4.26,0,0,0-1.05-1.8c0-.21,0-.42-.07-.64a10.75,10.75,0,0,0,1.4,2.4c-.36-.94-.53-1.9-.86-2.85a8.37,8.37,0,0,0,.79.66,33.56,33.56,0,0,1-2-3.95l1.1.9a9.92,9.92,0,0,0-1.83-2.26c-.17-.29-.35-.57-.55-.85a1.21,1.21,0,0,1,0-.18,17,17,0,0,1-1-1.64,8.07,8.07,0,0,1,.57.59,8.28,8.28,0,0,0-3.19-3.73l-.06-.14c-.66-.3-1.26-.69-1.93-1-.22-.11-.44-.19-.66-.29s-.66-.47-1-.68a15.27,15.27,0,0,0,2.8-.44,32.37,32.37,0,0,1-3.34-.45,16.16,16.16,0,0,1-3.07-1.06l-1.12-.49,0,.1-.08,0L92.57,3a15.54,15.54,0,0,0-2.06-.1h0a.9.9,0,0,0-.75-.38l0,0a1.89,1.89,0,0,0,.57-.92,3.55,3.55,0,0,1-1.66,1.14c-.25,0-.17-.55-.27-.8a1.16,1.16,0,0,0,0-.18A3.15,3.15,0,0,0,88.23,0a2.77,2.77,0,0,1-1.39,2.58c-.14.08-.3.15-.45.22a2.17,2.17,0,0,0,.48-1.26,3.46,3.46,0,0,1-2.7,1.82L84,3.25A1.43,1.43,0,0,0,84.12,3,3.77,3.77,0,0,0,84,1a3.93,3.93,0,0,1-.44,1.77.1.1,0,0,1,0,0,1,1,0,0,0-.2-.11,6.35,6.35,0,0,0-2.68,1.82c-.59.2-1.2.41-1.81.68A7.31,7.31,0,0,0,77.51,6l.13.19-.16,0a5.86,5.86,0,0,1-1.15-.23,5.52,5.52,0,0,0,1-1.78,24.87,24.87,0,0,1-3,2.7,2.42,2.42,0,0,1-.42.24,10,10,0,0,0,1.33-2.31,24.19,24.19,0,0,1-3.55,3.27L71,8.58l.09.11a9.49,9.49,0,0,1-5.89-2.82,6.59,6.59,0,0,0,2.56,3l.07.05a.37.37,0,0,0,0,.11c-1-.51-1.94-1-2.94-1.48A16,16,0,0,0,68.16,10l.21.12c-2.22-.54-4.43-.83-5.82-2.81A4.82,4.82,0,0,0,64.26,9.8a1,1,0,0,0,.33.44,3.79,3.79,0,0,1-1.86-1,3.05,3.05,0,0,0,1.42,1.44c.59.32,1.18.52,1.71.77a.5.5,0,0,1,0,.17c-.48.48-1-.07-1.63-.16a7.22,7.22,0,0,0-1-.21,11,11,0,0,1-1.78-1.38,4,4,0,0,0,.95.94A13.16,13.16,0,0,1,61,9.58a6.49,6.49,0,0,0,1.74,1.65,9.24,9.24,0,0,1-1.61-1.34,6,6,0,0,0,1.4,1.3l-.05,0a12.58,12.58,0,0,1-1.34-1.11,5.65,5.65,0,0,0,1.09,1l-.07,0c-.67-.49-1-.88-1-.85a3.07,3.07,0,0,0,.66.71A4.84,4.84,0,0,1,59.83,9.4a4.17,4.17,0,0,0,2,2.42,12.44,12.44,0,0,0,2.22.85.85.85,0,0,1,.14.36c0,.24-.31.29-.52.39-.77-.27-1.54-.61-2.3-.92a12.66,12.66,0,0,0,2.2,1.63c.45.7,1.4.69,1.78,1.48a4,4,0,0,1,0,2.35.63.63,0,0,0,.12.3A4,4,0,0,1,65,20.09a2.69,2.69,0,0,0,.78-1.19c-.12,1,.52,1.32.57,2.53.33.47.81.73,1,1.44a33.41,33.41,0,0,0,.74,4.4c.36.48.78.9,1.11,1.42.06.43.14.85.21,1.28a1.48,1.48,0,0,1,.38,1.39,2.94,2.94,0,0,1,1,.72l.21-.1a4.65,4.65,0,0,0,2.44,3c-.34.32-.85.49-1.09.91,1,.31,1.48-.82,2-.37-.2,3.13-3.15,9.64,2.38,8.4.12,2.24.29,3.69,2,4.56a2,2,0,0,0,.91,2.18c1.11.59,2-.3,2.92.37.52.38.71,1.67,1.1,2.19a4.26,4.26,0,0,0,5.11,1.46c2.66-1,4.23-4.39,7.29-3.83,1.2.22,2.72,2,3.29,3.28.25.56.14,1.15.36,1.65.52,1.14,1.66,1.83,2,2.91.49,1.51.06,3.76.18,5.66.7,11.35,2.2,23.4,6.38,31.74a55.52,55.52,0,0,0,7.3,10.22,38.22,38.22,0,0,1,3.65,5.1c.88,1.48,3,5,2.92,5.84,0,.53-1.2,1.43-1.83,2.19s-1.25,1.63-1.82,2.37c-3.41,4.46-6.37,6.88-10.22,10.4-.72.66-1.3,1.66-2,2.19s-1.67.74-2.38,1.27c-1.94,1.47-4.36,4.12-6.37,4.93-.63.25-1.41.15-2,.37a19.66,19.66,0,0,0-3.65,2.37c-1.28.83-2.8,1.37-3.84,2.19-.68.54-1.32,1.63-2.18,2.55s-2,1.7-2.19,2.56c-.27,1.33,1.1,2.3,1.46,3.64.18.7-.15,1.49,0,2.19a12.46,12.46,0,0,0,1.1,2.19c1,1.91,1.27,2.47,3.46,2.37.14,1.53.63,2,1.64,2.37s1.12-.26,1.83-.18c.24,0,.54.47.73.55,1,.42,4.28-1,4.73-1.64.68-.91.3-2.72.92-3.65.22-.34,1-.53,1.46-.91a26.84,26.84,0,0,0,5.65-6.21c.59-.93.79-2.18,1.46-3.28.89-1.45,2.89-2.57,4.56-3.83,4.8-3.62,10.12-7.77,15-10.22,1,4.21,2.29,7.18,4.57,9.67a17.81,17.81,0,0,1,2.37,2.56c.48.86.4,2,1.09,2.73h2.37c.39,1.14.61,2.62,1.1,4.38.2.75,1.43,3.73,1.27,4.38-.19.82-3,2.39-4,3.28-4.19,3.6-7.37,8.09-11.31,11.13a23.19,23.19,0,0,0-3.52,3.37l.06-.64a7.07,7.07,0,0,0-2,2.9l-.13.15c-.77.93-1.57,1.83-2.36,2.73-1.39,1.56-4.17,3.11-4.77,5.14-3.13,1,.24,3.65,1.5,4.74.18.17.37.33.57.5-.9,1.08-1.73,2.11-2.35,3-2.56,3.7-4.15,8.13-6.75,11.31-1.19,1.46-2.93,2.54-3.83,3.65a19.81,19.81,0,0,0-4.2,12.22c-.14.66-1.17-.61-1.1.37A13.43,13.43,0,0,0,95.8,230a34.69,34.69,0,0,0,3.83,8.21,39.3,39.3,0,0,1,4,8.21c1,3.19,1.53,6.6,2.38,9.85,3.37,13,8.25,24.39,11.31,37.58.71,3.09,1.89,7.1,2,10.21.07,1.8-.35,5.19-1.27,5.66-.35.17-2.49-.22-3.65,0-1.85.34-3.46,2.64-5.65,3.83a31,31,0,0,1-6,2.74c-.27.06-1.12-.07-1.47,0-1,.19-2.38.88-3.82,1.27C92.34,319,85.28,319,85,324.15c-.14,2.85,2.06,4.84,1.27,6.93a5.23,5.23,0,0,1,1.28,1.65c.3.67.17,1.57.55,2.18,1.22,1.95,5,1.51,8.21,2.19,1.63.35,3.73,1.16,4.92.73,1-.35,1.31-2.36,2.74-1.82.61.23.62,1.6,1.28,2a3.73,3.73,0,0,0,2.73.36c1-.26,1-1.45,2-1.64.21,1.87,2.85,2,4.19,1.28,1.1-.6.85-2,1.83-2.19a3.08,3.08,0,0,0,2,1.09c2.65.26,2.72-1.7,4.38-2.37a15.84,15.84,0,0,1,6-.55c.76.23.66.86,1.27,1.28a2.83,2.83,0,0,0,2.19.55c1.37-.29,1.41-2.37,2.91-2.19.49.58.63,1.37,1.66,1.64,1.66.44,5.28-.64,5.65-1.28.48-.83-.37-1.91-.19-2.92.11-.54.83-1,1.1-1.46,1.23-2.11,1.5-7.32,1.1-10.21-.28-1.88-1.3-3.75-1.29-6,0-.88.48-1.65.37-2.55-.14-1.17-1.3-2.31-1.64-3.29A36.77,36.77,0,0,1,140.5,301,353.25,353.25,0,0,1,137,265.59c-.21-4.71-.29-9.7-1.28-14.22-1.07-4.89-3.53-9-5.65-12.78-1.66-2.91-3-6.19-4.75-8.93a24.67,24.67,0,0,1-1.82-2.92c-.3-.67-.2-1.89-.73-2.56s-1.59-.42-1.83-.91c2.17-3.62,6.43-5.4,9.67-8,2.51-2,5.06-4,7.49-5.84.8-.61,1.44-1.64,2.55-1.64,1.12,5.91-1.19,9.67-1.28,13.87a11.34,11.34,0,0,0,2,6.93c.71,1,1.85,1.73,2.74,3.1a23.89,23.89,0,0,0,1.09,2.37,12.61,12.61,0,0,0,4.92,3.29c3.92,1.57,8.29.88,13.32,1.27,5.44.43,10.58,3.1,16.6,4.38,5.81,1.23,11.89,2.09,17.33,3.65,5.1,1.47,10.29,3.14,15.87,5.11a81,81,0,0,1,7.66,2.73c.91.42,2.19,1.22,3.47,1.83s3.17,1.24,3.46,1.82,0,2.93.19,3.65c.29.95,1.4,1.93,2.37,3.11a21.51,21.51,0,0,1,2.38,3.28c1,1.75,1.67,4,2.55,5.84.33.68.83,1.2,1.09,1.82,1.73,4.25.23,12.05,4.38,13.32,2.91.88,5.18-1.26,7.11-.55.7-.47.63-.82,1.28-1.1s1.48,0,2-.36c1.1-.8.91-3,1.29-5.29s1.43-4.07,1.09-5.66c-.26-1.16-1.65-1.48-1.28-2.55.19-.55,1.52-.65,1.83-1.09,1-1.56,0-3.17-.55-4.2,1.33-.22,1.7-2.19,1.27-3.46-.36-1.1-1.76-.91-1.82-1.83.8-.37,1.27-.74,1.46-1.46.65-2.45-1.25-2.89-1.65-4.38s.34-1.7.37-2.92c0-.72-.47-1.49-.37-2C253.19,250.74,255.35,250.76,255.06,248.81ZM163.3,82.25c1.72.07,2.44,2.47,4.19,2.74.57.09,1.25-.38,1.83-.36a23.77,23.77,0,0,1,2.74.72c4,.68,9.12-.27,12.77,1.28-2.55,10.54-1.85,24.31-5.3,33.93-2.13-2.87-2.82-6.49-3.83-9.85C172.7,100.66,167.4,91.44,163.3,82.25Z"/><path class="cls-9" d="M216.09,187.07C170.92,213.38,124.53,237,78.42,258.49A210,210,0,0,0,72,218c37.58-28.45,71.86-58.05,102.14-88.91A357.89,357.89,0,0,1,216.09,187.07Z"/></g></g></g></svg>