<svg xmlns="http://www.w3.org/2000/svg" xmlns:xlink="http://www.w3.org/1999/xlink" viewBox="0 0 525.57 352.16"><defs><style>.cls-1{isolation:isolate;}.cls-2,.cls-3,.cls-5,.cls-7,.cls-8,.cls-9{mix-blend-mode:multiply;}.cls-2{fill:url(#linear-gradient);}.cls-3{fill:url(#linear-gradient-2);}.cls-4{fill:url(#linear-gradient-3);}.cls-5{fill:url(#linear-gradient-4);}.cls-6{fill:#001443;}.cls-7,.cls-8{opacity:0.7;}.cls-7{fill:url(#linear-gradient-5);}.cls-8{fill:url(#linear-gradient-6);}.cls-9{fill:url(#linear-gradient-7);}</style><linearGradient id="linear-gradient" x1="1229.97" y1="400.59" x2="2594.42" y2="400.59" gradientTransform="matrix(0.71, 0.32, 0.41, -0.91, -1120.49, 56.68)" gradientUnits="userSpaceOnUse"><stop offset="0.16" stop-color="#e98500"/><stop offset="0.34" stop-color="#ec9200"/><stop offset="0.68" stop-color="#f5b500"/><stop offset="1" stop-color="#fedb00"/></linearGradient><linearGradient id="linear-gradient-2" x1="762.19" y1="1093.89" x2="953.34" y2="1093.89" gradientTransform="translate(-614.28 -1041.07) rotate(6.92)" xlink:href="#linear-gradient"/><linearGradient id="linear-gradient-3" x1="1201.94" y1="391.32" x2="1471.42" y2="391.32" gradientTransform="matrix(0.91, 0.41, 0.41, -0.91, -1032.59, 96.02)" xlink:href="#linear-gradient"/><linearGradient id="linear-gradient-4" x1="1179.29" y1="522.99" x2="1620" y2="522.99" gradientTransform="matrix(0.91, 0.41, 0.41, -0.91, -1032.59, 96.02)" gradientUnits="userSpaceOnUse"><stop offset="0.16" stop-color="#1374ad" stop-opacity="0.8"/><stop offset="1" stop-color="#1173be" stop-opacity="0.9"/></linearGradient><linearGradient id="linear-gradient-5" x1="-247.43" y1="1940.31" x2="18.34" y2="1940.31" gradientTransform="matrix(0.98, 0.22, 0.22, -0.98, -61.09, 1998.98)" xlink:href="#linear-gradient"/><linearGradient id="linear-gradient-6" x1="1352.63" y1="488.97" x2="1665.14" y2="488.97" gradientTransform="matrix(0.91, 0.41, 0.41, -0.91, -1032.59, 96.02)" gradientUnits="userSpaceOnUse"><stop offset="0.16" stop-color="#1173be" stop-opacity="0.9"/><stop offset="1" stop-color="#17a8e2" stop-opacity="0.8"/></linearGradient><linearGradient id="linear-gradient-7" x1="2576.96" y1="-94.05" x2="3209.67" y2="-94.05" gradientTransform="matrix(0.67, 0.74, 0.74, -0.67, -1520.86, -1792.48)" xlink:href="#linear-gradient"/></defs><g class="cls-1"><g id="Capa_2" data-name="Capa 2"><g id="Capa_1-2" data-name="Capa 1"><path class="cls-2" d="M424.09,343.71q53.87,5,101.48,8.45-10.79-17.79-19.06-34.83-48.76-8.93-102.39-19.74A416.75,416.75,0,0,0,424.09,343.71Z"/><path class="cls-3" d="M33.7,36.89C20.22,101.52,4.22,165.78,0,231.55c65.14,11.58,126.51,21,183.49,28.73A354.07,354.07,0,0,1,203,137.58C145.83,107.75,88.45,74.2,33.7,36.89Z"/><path class="cls-4" d="M223.68,305.74a360.12,360.12,0,0,1,27.9-134.86c34.61,16.36,69.13,31.66,103.27,46,.94,31.77,6.86,66.18,19.81,103.2C327.91,316.39,277.64,311.75,223.68,305.74Z"/><path class="cls-5" d="M240.84,139.52c59.52,34.66,120.65,65.78,181.4,94.11a277.77,277.77,0,0,1,8.44-53.36C381.18,142.78,336,103.78,296.11,63.12A471,471,0,0,0,240.84,139.52Z"/><path class="cls-6" d="M399.89,70.35l-.5-4.57-3.57,4.07,1-6.11c-1,6.11-6.61.51-6.61.51C382.09,52,364.79,54.07,365.81,51.53l-3,2.54-1.22-2.29v4.33c-10.16-2.54-20,11.71-20,11.71-10.68,12.72-3.69,29.53-3.69,29.53a6.2,6.2,0,0,1-6.35-2C239,47,182.91,103.55,182.91,103.55l-20,15.14c-20.35,30.52-4.61,47.82-4.61,47.82,5.08,5.6,15.24,18.32,15.24,18.32,7.64,15.77,47.31,55.45,47.31,55.45,11.19,8.65-1.53,7.63-1.53,7.63-12.72-4.58-37.14,3.05-37.14,3.05-12.21,5.09-40.7,9.16-40.7,9.16l.51,2-13.23,2a24.41,24.41,0,0,0-8.14-2.54c-8.14,2-20.35-3.56-20.35-3.56-18.32,2.54-3.06,34.08-3.06,34.08,5.6,6.62,3.06,15.27,3.06,15.27,8.65,30.52,23.4,30,23.4,30,15.77,3.05,7.12-8.14,7.12-8.14,0-2.54-3-7.12-3-7.12-4.07-12.21,11.7-24.93,11.7-24.93,7.13-4.57,5.6-8.65,5.6-8.65l20.86-3.05c2,10.68,22.89,23.91,22.89,23.91,7.12,1.53,11.7,17.3,11.7,17.3,10.18,15.77,29,2,29,2-2-12.71-11.7-10.17-11.7-10.17-8.65-23.4,5.6-36.63,5.6-36.63,4.58.51,19.84-.51,19.84-.51l23.4-9.16c6.61-4.07,6.11-19.33,6.11-19.33l28-14.76c.51,18.83,14.24,50.37,14.24,50.37a70.62,70.62,0,0,1,6.62,19.85,13,13,0,0,0,6.1,14.75c7.63,8.65,4.58,17.29,4.58,17.29l3,.51,1.53,2.55c6.61,10.17,4.58-4.07,4.58-4.07-1-15.26,17.81,3.05,17.81,3.05,6.61,5.09,10.68.51,10.68.51,7.63,2,7.63-1.53,7.63-1.53l-14.75-10.68,2-2,12.21.51c4.58-1,.51-3.56.51-3.56-5.09-.51-18.31-13.22-18.31-13.22-4.07-5.6-15.27-13.24-15.27-13.24-7.12-5.08-7.63-33.57-7.63-33.57-2-7.12-1.52-26-1.52-26,1.52-7.63-1.53-24.93-1.53-24.93,3.05-10.17-1-37.14-1-37.14,3.56-7.63,9.16-25.94,9.16-25.94,3.56-6.11-2.55-16.29-2.55-16.29L353.09,134c10.68-1,10.68-3.56,10.68-3.56,5.09-6.11,11.7-1,11.7-1l10.69,2.54c5.6,2,5.6-6.1,5.6-6.1-1-3,3.05-3,3.05-3l1.52-4.07c-1-1.53,1-4.58,1-4.58,8.14,1,2-10.18,2-10.18a9.86,9.86,0,0,1,2.54-10.17C403,90.7,399.39,81,399.39,81,406.51,79.51,403,68.32,399.89,70.35ZM258.46,221l-6.1-14.75s17.8,3.56,20.85,7.12Zm41.72-36.64s-31-22.89-37.14-26.45l4.58-2.54s27,8.65,32.56,7.12C300.18,162.44,297.13,179.23,300.18,184.31Z"/><path class="cls-7" d="M211.43,126.57A801.61,801.61,0,0,1,125.49,62,290.24,290.24,0,0,1,141.23,0c17.18,34.18,41.15,69.68,76.2,105.73Q214.07,115.95,211.43,126.57Z"/><path class="cls-8" d="M407.17,238q29.83,9.56,58.61,18.24a269,269,0,0,1,.49-53.22q-26.5-11.19-53.52-23.18A283.9,283.9,0,0,0,407.17,238Z"/><path class="cls-9" d="M157.89,340.89c49.09-2.4,92.72-5.57,132.27-9-3.42-38.28-1.82-72.31,3.42-102.49-37.86-24.07-78.15-50.41-120.65-79.38C155.92,201.35,148.5,264.39,157.89,340.89Z"/></g></g></g></svg>