<svg xmlns="http://www.w3.org/2000/svg" xmlns:xlink="http://www.w3.org/1999/xlink" viewBox="0 0 360.12 340.91"><defs><style>.cls-1{isolation:isolate;}.cls-2,.cls-3,.cls-6,.cls-8{opacity:0.8;}.cls-2{fill:url(#linear-gradient);}.cls-3{fill:url(#linear-gradient-2);}.cls-4,.cls-5{mix-blend-mode:multiply;}.cls-4{fill:url(#linear-gradient-3);}.cls-5{opacity:0.7;fill:url(#linear-gradient-4);}.cls-6{fill:url(#linear-gradient-5);}.cls-7{fill:#001443;}.cls-8{fill:url(#linear-gradient-6);}.cls-9{opacity:0.4;mix-blend-mode:screen;fill:url(#linear-gradient-7);}</style><linearGradient id="linear-gradient" x1="1266.28" y1="97.93" x2="2201.21" y2="97.93" gradientTransform="matrix(0.71, 0.32, 0.41, -0.91, -995.81, -157.67)" gradientUnits="userSpaceOnUse"><stop offset="0.16" stop-color="#82bc3f" stop-opacity="0.8"/><stop offset="0.19" stop-color="#78b83f" stop-opacity="0.81"/><stop offset="0.34" stop-color="#4da741" stop-opacity="0.84"/><stop offset="0.5" stop-color="#2b9943" stop-opacity="0.87"/><stop offset="0.66" stop-color="#139044" stop-opacity="0.89"/><stop offset="0.83" stop-color="#058a45" stop-opacity="0.9"/><stop offset="1" stop-color="#008845" stop-opacity="0.9"/></linearGradient><linearGradient id="linear-gradient-2" x1="774.67" y1="1192.76" x2="905.65" y2="1192.76" gradientTransform="translate(-618.08 -1084.14) rotate(6.92)" xlink:href="#linear-gradient"/><linearGradient id="linear-gradient-3" x1="-247.43" y1="1667.28" x2="-65.32" y2="1667.28" gradientTransform="matrix(0.98, 0.22, 0.22, -0.98, -40.59, 1815.95)" gradientUnits="userSpaceOnUse"><stop offset="0.16" stop-color="#1173be" stop-opacity="0.9"/><stop offset="1" stop-color="#17a8e2" stop-opacity="0.8"/></linearGradient><linearGradient id="linear-gradient-4" x1="1304.64" y1="158.43" x2="1518.77" y2="158.43" gradientTransform="matrix(0.91, 0.41, 0.41, -0.91, -979.69, -150.61)" xlink:href="#linear-gradient-3"/><linearGradient id="linear-gradient-5" x1="2735.81" y1="-505.04" x2="3169.34" y2="-505.04" gradientTransform="matrix(0.67, 0.74, 0.74, -0.67, -1364.45, -2144.1)" xlink:href="#linear-gradient"/><linearGradient id="linear-gradient-6" x1="1201.39" y1="91.52" x2="1386.04" y2="91.52" gradientTransform="matrix(0.91, 0.41, 0.41, -0.91, -979.69, -150.61)" xlink:href="#linear-gradient"/><linearGradient id="linear-gradient-7" x1="1185.87" y1="181.74" x2="1487.84" y2="181.74" gradientTransform="matrix(0.91, 0.41, 0.41, -0.91, -979.69, -150.61)" xlink:href="#linear-gradient-3"/></defs><g class="cls-1"><g id="Capa_2" data-name="Capa 2"><g id="Capa_1-2" data-name="Capa 1"><path class="cls-2" d="M290.58,335.12q36.92,3.45,69.54,5.79c-4.93-8.13-9.26-16.09-13.06-23.87q-33.42-6.1-70.16-13.52A285.48,285.48,0,0,0,290.58,335.12Z"/><path class="cls-3" d="M23.09,124.89C13.85,169.17,2.89,213.2,0,258.27,44.63,266.2,86.68,272.69,125.73,278a242.71,242.71,0,0,1,13.37-84.08A1156.7,1156.7,0,0,1,23.09,124.89Z"/><path class="cls-4" d="M144.87,186.33A547.75,547.75,0,0,1,86,142.12,198.43,198.43,0,0,1,96.77,99.61C108.54,123,125,147.35,149,172.05Q146.69,179.06,144.87,186.33Z"/><path class="cls-5" d="M279,262.71q20.44,6.54,40.16,12.5a184.94,184.94,0,0,1,.34-36.47q-18.17-7.67-36.67-15.88A194.3,194.3,0,0,0,279,262.71Z"/><path class="cls-6" d="M108.19,333.19c33.64-1.65,63.52-3.82,90.63-6.15-2.35-26.23-1.25-49.55,2.34-70.23-25.94-16.49-53.55-34.54-82.67-54.39C106.83,237.58,101.75,280.77,108.19,333.19Z"/><path class="cls-7" d="M322.36,313.53c-1.33-3.87-6.75-6.78-11.71-7.34-1.27-.14-2.51.29-3.84.18-1.53-.13-3.64-1.13-5.6-1.75a35.58,35.58,0,0,1-5.59-1.92,28.24,28.24,0,0,1-2.62-1.93c-.79-.55-2.37-1.12-2.8-1.74-.54-.8-.74-3.12-.88-4.9a64.59,64.59,0,0,1,.36-9.44c.65-9.06,2.63-17.13,3.32-26.05.47-6.14,1.07-12.45.52-18.7-.26-3-.84-5.83-1-8.74-.35-4.87.93-11.11-.52-15.21-.4-1.13-1.93-2-2.27-3s0-1.79-.18-2.63a12.74,12.74,0,0,0-1.23-3c-1.59-2.87-4.66-5.12-5.76-8.22-.41-1.14-.46-2.54-.88-3.84-.78-2.44-1.49-4.75-2.44-7a15.67,15.67,0,0,1-1.4-3.32c-.1-1,.5-2,.52-2.79a12,12,0,0,0-3.32-7.87c-.74-.77-1.74-1.22-2.45-1.92-1.06-1.07-1.91-2.56-3-3.85s-2.1-2.49-3.15-3.67c-2.64-3-5.85-6.33-9.09-8.22a16.42,16.42,0,0,0,2.1-7.87c.56-.38.94.62,1.93.36,1.29-3.67,3.09-6.64,3.32-10.85a136,136,0,0,1,1-14.33c.7-4.31,1.8-8.44,2.8-12.76,1.49-6.38,3.17-12.74,3.5-19.58.12-2.43.35-4.84.52-7.34a48.61,48.61,0,0,0-2.1-16.61c1.29.55,3.81.64,3.85-1-1.23-1.27-4.48-.53-4.72-2.8,1.27.07,3-.34,5.07-.17,1.54.12,4.92.82,4.19-1.4-.26-.81-2.31-.85-3.49-1a18.92,18.92,0,0,1-3.85-.87c1.26-1.13,3.44-.86,5.6-1,.61-.06,1.2-.35,1.74-.35,1,0,2.06.46,3,.17s1.31-.7,1.57-1.92a10.55,10.55,0,0,0-5.07-.87c.11-.65.86-.66.7-1.58,2.43,0,4.66-.81,4.55-2.8-5.23-.47-8.52,1.5-12.59,1.93-.59.06-1.16-.09-1.75,0s-1.7.77-2.45.52c-1.11-.36-1.6-2.9-2.09-3.67-.38-.59-1.1-1.39-1.75-2.27-.52-.69-1.75-1.72-1.75-2.27s1-1.38,1.4-2.1c.64-1.31,1.1-3.07,1.57-3.85.66-1.09,1.85-1.9,2.45-3a17.73,17.73,0,0,0,.7-1.92c.13-.32.2-1.33.87-1-.48-1.69.46-2.36.88-3.67.11-.38.21-.75.29-1.12a1.76,1.76,0,0,0,.26.44,2.55,2.55,0,0,1-.1-1.08,2.25,2.25,0,0,0,.05-.22,5.36,5.36,0,0,0,1.65.59,6.51,6.51,0,0,1-1.48-1.15l0-.05a2.2,2.2,0,0,0,1,.49,2.59,2.59,0,0,1-.89-.88q.21-.59.39-1.14a3.11,3.11,0,0,0,1.31,1.28,4.55,4.55,0,0,1-1-2.14s0,0,0-.06.05.13.07.2a.22.22,0,0,0,.13.25,3.44,3.44,0,0,0,1.42,1.61,4.49,4.49,0,0,1-.94-2c-.07-.27-.13-.55-.19-.82a.37.37,0,0,1,.23.11l0,0,.26.63a.92.92,0,0,0,.19.49,15.38,15.38,0,0,0,.93,2.08c-.18-1-.24-1.95-.43-2.95a6.59,6.59,0,0,0-.5-1.64v0l.06,0A7.58,7.58,0,0,0,273.67,27a10.34,10.34,0,0,1-.92-2.8,1,1,0,0,1,.19.08,2.89,2.89,0,0,0,1,1.07,6,6,0,0,0,3,.71,8.15,8.15,0,0,1-2.52-1.34,2.21,2.21,0,0,1-.63-1,4.18,4.18,0,0,1-.09-.77l.22.32a4.05,4.05,0,0,0,1.85,1.54,3.51,3.51,0,0,0,2.29,0,3.53,3.53,0,0,1-2-.57,3.61,3.61,0,0,1-1.14-1.53l-.18-.4c-.21-.51-.39-1.05-.6-1.6h0l.46.56a2.25,2.25,0,0,1,.13.51c.15.09.29.19.44.3a12.63,12.63,0,0,0,.73,1.07,2.93,2.93,0,0,0,1.78,1.31,2.91,2.91,0,0,1-1.21-1.64c-.16-.37-.28-.75-.43-1.14a3.4,3.4,0,0,0,.83.62,2.49,2.49,0,0,0,2.31.06,2.28,2.28,0,0,1-1.92-.61,4.36,4.36,0,0,1-1-1.71c-.13-.35-.15-.59-.32-1s-.22-.68-.33-1a6.71,6.71,0,0,0-1.06-2.22,4.88,4.88,0,0,0-.85-.85,8.38,8.38,0,0,1,3.82.35,5.12,5.12,0,0,0-3.4-1.13c-.3-.22-.7-.38-.89-.68l.75.19a3.83,3.83,0,0,0,2.46-.21,4.11,4.11,0,0,1-1.49-.14.16.16,0,0,0,0-.07,9.49,9.49,0,0,1-3.18-1.54c-1.45-1.13,1.38-.34,1.67-.37a.42.42,0,0,0-.12-.23,2.57,2.57,0,0,0,.4-.06,4.28,4.28,0,0,0,1.47-.71,3.22,3.22,0,0,1-2.83-.2c-.76-.49-1.56-1.45-2.88-1.64a2.83,2.83,0,0,0-.41,0,2.42,2.42,0,0,0-.35-.41.55.55,0,0,1,.32-.18l.39,0a3.45,3.45,0,0,1,.94.51c0-.09-.07-.26-.14-.42a8.8,8.8,0,0,0,2.46,0,14.59,14.59,0,0,1-2-.57h0a2.73,2.73,0,0,0,2-.78,2.84,2.84,0,0,1-1.85.22c-.19-.11-.1-.31.05-.54A9.42,9.42,0,0,1,269.68,6a3.92,3.92,0,0,0,2.39-1.13A5,5,0,0,1,268.5,5c-.46-.12-.92-.27-1.37-.43a2.16,2.16,0,0,0-1.06-.74,8.7,8.7,0,0,1-1.35-.38c-.28-.07-.06-.38-.31-.48a9.5,9.5,0,0,1-2.65-1,3.34,3.34,0,0,0-2.16-.9,1.64,1.64,0,0,1-1.07-.13c-.31-.14-.35.22-.59.25a3.8,3.8,0,0,1-1.2-.62l0-.05h0a1.91,1.91,0,0,1-.37-.5,1.75,1.75,0,0,0,.18.53,4.72,4.72,0,0,0-.68.41,1.73,1.73,0,0,0-.93.07,1.46,1.46,0,0,1-.46,0,1.65,1.65,0,0,1-.55-.51,1.73,1.73,0,0,0,.16.37.87.87,0,0,1-.53.48c-.39.16-.73.25-.93.56a4.68,4.68,0,0,0-1.54,0,6.48,6.48,0,0,0-3.66,2.15l-.33.33c-.45.09-.39.29-.83.55-.24.14-.32.2-.33.27-.45.14-.93-.34-1.19-.9a2.14,2.14,0,0,0,.34,1,.93.93,0,0,0,.45.37,14.78,14.78,0,0,0-3.67,6.13,10.67,10.67,0,0,0-.4,1.33c0,.15-.07.3-.11.45a8.29,8.29,0,0,1-.53,1.62,9.41,9.41,0,0,0-.87,2.47,6.27,6.27,0,0,1-.77,2.63l-.08.11A4.76,4.76,0,0,0,237.36,23a5.48,5.48,0,0,0-.52,1.94l.12,0a10.86,10.86,0,0,0-.08,1.58c0,.89.61,1.81.52,2.62-.11,1.06-2,3-2.79,3.5-.49.33-1.1.35-1.58.7-1.17.85-2.13,2.16-3.32,3.15a37.62,37.62,0,0,0-3.49,3.14c-4.31,4.54-9.34,8.47-12.42,13.81a24.65,24.65,0,0,0-2.62,7.34c-.19.88-.23,1.89-.52,2.81-.82,2.52-2.52,3-4.2,4.54-1.37,1.22-2.6,2.94-4,4.37a44.66,44.66,0,0,0-4,4.37c-2.54,3.32-4.09,7.42-6.64,10.31-.81.92-3.15,2.35-3.33,3.15s.37,1.47.35,1.93c-2.22,1.85-3.12,4.25-5.24,5.94-1.88,1.5-4.22,2.44-5.94,4.19a25.4,25.4,0,0,0-1.58,2.1,18.08,18.08,0,0,0-2.62,5.42,16.84,16.84,0,0,0-1.22,5.94,176.74,176.74,0,0,0,1.57,22.91c.3,2.4.67,4.88.87,7.34s.9,5.37.7,7.52c-.16,1.78-1.31,3.67-1.92,5.59a27.23,27.23,0,0,0-1.4,6.12c-.15,2,.37,4.17,0,5.94-.26,1.26-.86,1.17-1.22,2.45a21.32,21.32,0,0,1-.35,2.62c-.37,1.32-3,7.13-.52,7.34,1.88.17,1.7-3.89,2.79-5.07,1.49.9.79,1.86.18,2.8s-1.61,1.91-2.1,2.8c-.85,1.53-1.25,3.3-2.1,4.55a44.72,44.72,0,0,1-3.32,3.66c-2.49,2.78-4.34,4.63-6.65,7.7-.84,1.12-2.35,3.78-3.14,4a9.29,9.29,0,0,1-2.28-.18,22,22,0,0,1-2.44,0c-1.38-.25-2.51-1.17-3.68-1.57a18.51,18.51,0,0,0-4.37-1,19.26,19.26,0,0,0-11.36,2.8c-.92.52-1.5,1.49-2.45,2.09-.71.47-1.81.82-2.61,1.23-6.36,3.2-12.36,6.23-19.41,8.39-2.89-3.51-8-3.41-11.54-1.39-1.57.88-3.12,2.71-4.55,4.19a116.24,116.24,0,0,1-8.74,8.74,32.36,32.36,0,0,1-5.07,3.85c-1,.5-2.32.68-3,1.05-1.75,1-3,3.35-4.37,5.42-1,1.52-3.48,4.2-3.84,5.94a21.61,21.61,0,0,0,.17,3.32c0,1.25-.29,2.4-.17,3.32A10.86,10.86,0,0,0,73.42,259c2.42.79,6.83-.5,8.92-1.4a25.24,25.24,0,0,0,6.12-4,42.9,42.9,0,0,0,8.22-9.45A6.18,6.18,0,0,1,99,241.51c.4-.3.84-.81,1.22-1,.63-.4,1.45-.43,2.1-.87,1.85-1.26,2.79-3.51,3.85-4.2s2.91-.92,4.71-1.4a114.92,114.92,0,0,1,15.39-3.32c5.59-.68,11.93-.57,17-1.57,1.86-.37,3.53-1.11,5.06-1.22,2-.17,3.65.56,5.42.69,6.66.51,12.15-1.89,14.17-6.12a6.22,6.22,0,0,1,2.27-2.62c.56-.46,1.22-.92,1.75-1.39,3.36-3,6.68-6,9.79-9.1s6-6.39,9.09-9.79c.88-1,2.65-3.3,3.14-3.32s2,1.5,2.63,1.93c1,.7,2,1.65,3,1.57,1.77-.15,2.31-2.84,3.14-4.37.94-1.73,2.63-3.19,4-4.9,4-4.82,8.08-10.67,11.72-15,1,2.55,3.17,4.09,4.89,5.94,3.62,3.87,5.75,8.84,8.74,13.11,1.51,2.15,3.6,4.05,4.73,6.3a22,22,0,0,0,.87,2.44c2.58,4,9.73,4.29,15,3.15,1.22-.26,3-1,4-.87s2.23,1.67,3.15,2.79c2.07,2.54,3.73,3.87,5.77,6.13.86,1,2.29,2.75,2.45,3.66.06.38-.36,1.12-.35,1.58,0,1.15.45,2.59.52,4a33.21,33.21,0,0,1-1.57,12.76c-.39,1.3-.65,2.69-1.05,4s-1.12,2.47-1.4,3.67c-1.76,7.67.17,15.13,1.4,21.68,2.1,11.19,4.45,24,3.32,36.89-3-.06-1.75,2.27-2.1,5.07a8.6,8.6,0,0,1-.52,2.1c-.38.9-1.35,1.47-1.75,2.61a29.81,29.81,0,0,0-.7,4.9c-.13.84-.27,1.63-.35,2.45s.12,2,0,2.62-1.11,1.52-.87,2.1c.13.33,1.23.66,1.39.7,1.78.44,3,.37,3.85,1.22.64.67.64,1.86,1.05,2.28.84.84,5.49,1.57,7.35,1,1.52-.42,1.43-2,3.14-1.74,1.3.2.93,1.23,2.27,1.39a2.75,2.75,0,0,0,2.62-.87c.54-.46.63-.68,1.23-.87a18.68,18.68,0,0,1,3.67-.36c1.36-.1,2.75-.47,3.85-.17a3,3,0,0,1,1.05.7,5.1,5.1,0,0,0,4.19.88c.79-.21,1.11-1.19,2.1-1.41a6,6,0,0,1,2.45.18c.46.22.42.74.7,1.05.73.83,3.75,1.3,5.42.87,1-.25,1.52-1.49,2.44-1.57,1.23-.11,1.47,1,2.62.7.93-.21,1-1.7,2.1-2.1.64-.23,1.57.22,2.1,0,.93-.39.79-1.31,1.57-2.1.4-.39,1.08-.44,1.4-.69,1.77-1.38.37-2.15.53-3.68.05-.52.56-.85.69-1.22A9.84,9.84,0,0,0,322.36,313.53ZM272.69,14.16v.34a2.83,2.83,0,0,1-.11-.31Zm-59.94,89.59a61.23,61.23,0,0,1-5.24,14c-1.22,2.28-2.24,4.59-3.32,6.29-.55.87-2.18,2.13-2.1,3s.78.64.88,1.23c-1.89,2.15-2.63,5.39-3.85,8.39-.39,1-1,1.83-1.23,2.79s-.19,2.17-.52,3.15-1.09,1.6-1.4,2.45-.18,1.91-.52,2.79c-1.18,3.08-5,4.92-7.52,6.83a135,135,0,0,1-1.4-33.92c.2-2.09.07-4.41.53-5.77a10,10,0,0,1,2.79-3.32c2.78-2.42,5.45-3.39,8.92-5.59.58-.38,1.33-1.2,1.57-1.23.64-.07,1.47.76,2.1.7,1-.1,2.1-1.71,3-2.79,1.86-2.35,3.59-4.12,5.42-6.13,1.22-1.32,2.09-2.36,3-3.49A14.66,14.66,0,0,1,215,96.24C215.14,98.12,213.4,101.31,212.75,103.75Z"/><path class="cls-8" d="M153.26,309.1a247,247,0,0,1,19.12-92.4c23.72,11.21,47.37,21.69,70.76,31.51.65,21.77,4.71,45.34,13.57,70.71C224.68,316.4,190.24,313.22,153.26,309.1Z"/><path class="cls-7" d="M210.21,306.41a22.28,22.28,0,0,0-5.77-15.25h0l-.09-.1v0A21.93,21.93,0,0,0,197.5,286a22.2,22.2,0,0,0-7.83-2.06v0h-.21a22.05,22.05,0,0,0-3.45,0l-.52,0a22.51,22.51,0,0,0-3.37.64l-.43.13a21.49,21.49,0,0,0-3.3,1.24l-.17.09a21.63,21.63,0,0,0-3,1.79L175,288h0a22.19,22.19,0,0,0-7.17,8.58,22.89,22.89,0,0,0-1,2.55.22.22,0,0,0,0-.08c-.07.21-.11.43-.18.64-.15.51-.29,1-.41,1.52-.07.31-.12.62-.18.93-.08.47-.16.94-.22,1.42,0,.15-.05.3-.06.45l0-.09a22.32,22.32,0,0,0,2.78,13.16l0,0,.1.15a21.76,21.76,0,0,0,1.56,2.35l.39.49a22.61,22.61,0,0,0,1.67,1.86l.37.37a21.7,21.7,0,0,0,2.27,1.87l.49.33a23.1,23.1,0,0,0,2.31,1.38c.1.05.18.12.29.17v0l.4.22a22.16,22.16,0,0,0,17.1.81h0l.11,0h0a22.17,22.17,0,0,0,11.81-10.18l0,0c.21-.39.41-.78.61-1.19a22.83,22.83,0,0,0,.89-2.19c.09-.26.16-.53.24-.79.15-.48.3-1,.41-1.44.07-.3.12-.61.18-.91s.17-.9.23-1.35.06-.63.09-.94.07-.89.08-1.34c0-.1,0-.2,0-.3Z"/><path class="cls-9" d="M165,195.21c40.78,23.75,82.67,45.07,124.3,64.48a190.66,190.66,0,0,1,5.78-36.56c-33.92-25.69-64.88-52.41-92.21-80.27A322.94,322.94,0,0,0,165,195.21Z"/></g></g></g></svg>