<svg xmlns="http://www.w3.org/2000/svg" xmlns:xlink="http://www.w3.org/1999/xlink" viewBox="0 0 290.04 462.15"><defs><style>.cls-1{isolation:isolate;}.cls-2{opacity:0.4;mix-blend-mode:screen;fill:url(#linear-gradient);}.cls-3{fill:#001443;}.cls-4,.cls-5,.cls-6,.cls-7{mix-blend-mode:multiply;}.cls-4{fill:url(#linear-gradient-2);}.cls-5{opacity:0.5;fill:url(#linear-gradient-3);}.cls-6{fill:url(#linear-gradient-4);}.cls-7{opacity:0.7;fill:url(#linear-gradient-5);}</style><linearGradient id="linear-gradient" x1="1500.94" y1="-986.86" x2="1707.66" y2="-986.86" gradientTransform="translate(1015.86 1827.79) rotate(-87.3)" gradientUnits="userSpaceOnUse"><stop offset="0.16" stop-color="#1173be" stop-opacity="0.9"/><stop offset="1" stop-color="#17a8e2" stop-opacity="0.8"/></linearGradient><linearGradient id="linear-gradient-2" x1="715.58" y1="2432.99" x2="862.22" y2="2432.99" gradientTransform="matrix(0.34, -0.94, -0.94, -0.34, 2110.27, 1947.62)" gradientUnits="userSpaceOnUse"><stop offset="0.16" stop-color="#e98500"/><stop offset="0.34" stop-color="#ec9200"/><stop offset="0.68" stop-color="#f5b500"/><stop offset="1" stop-color="#fedb00"/></linearGradient><linearGradient id="linear-gradient-3" x1="1519.26" y1="-912.87" x2="1933.42" y2="-912.87" gradientTransform="translate(1015.86 1827.79) rotate(-87.3)" gradientUnits="userSpaceOnUse"><stop offset="0.16" stop-color="#1374ad" stop-opacity="0.8"/><stop offset="1" stop-color="#1173be" stop-opacity="0.9"/></linearGradient><linearGradient id="linear-gradient-4" x1="1668.94" y1="-970.77" x2="1908.68" y2="-970.77" gradientTransform="matrix(0.13, -0.99, 0.99, 0.13, 913.54, 1840.64)" xlink:href="#linear-gradient"/><linearGradient id="linear-gradient-5" x1="3664.68" y1="-1003.27" x2="4176.06" y2="-1003.27" gradientTransform="translate(3996.68 1161.91) rotate(-153.34)" xlink:href="#linear-gradient-2"/></defs><g class="cls-1"><g id="Capa_2" data-name="Capa 2"><g id="Capa_1-2" data-name="Capa 1"><path class="cls-2" d="M50.3,256.69a276.39,276.39,0,0,0,101.94,27.74c.83-29.36,2.35-58.28,4.4-86.61-21.41-11.68-42.89-27.68-63.71-49.38Q72.34,198.32,50.3,256.69Z"/><path class="cls-3" d="M223.44,380.74c-2.17-3.38-2.95-7.88-2.6-12.38A12.55,12.55,0,0,0,215,356.93c-3.72-2.08-10,.52-10,.52a16,16,0,0,0-5.8.34c-2.77.78-10.48,5.8-10.48,5.8s-26.75-12.12-28.48-13.76-2.08-19.13-1.82-21.73.43-12.9.43-12.9,12.39-13.5,14.55-27.88-7.7-24.76-7.7-24.76c.77-3.72-1.82-9.43-2.26-10.47s2.26-6,4.07-7.62,5.89-8.14,6.41-9.35,2.77-4.93,3.38-5.89,2.42-2.51,2.42-3.81,4.24-.77,6.41-2.85,11.51-17.49,16.19-30S191.84,173,191.84,173l14.54-1.73c5.11-.61,11.26-8,13.59-16s-7.7-22.24-10.56-25-8-2.17-8-2.17a14.57,14.57,0,0,0-6.84-1.12c-3.38.43-9.35,5.1-9.35,5.1s-3.72-.95-4.94-.43-2.08,4.59-2.08,4.59-2.59-.61-3.28-.17-5.37,6.4-7.19,10.73,2.77,11.77,2.77,11.77l-7.88,9.61c-8.83-4.24-15-.34-15-.34-13.51-8.83-29.79-4.85-29.79-4.85s-9.52-4.24-15.23-6.93a22.66,22.66,0,0,0-12-1.64s-9.87-10.65-12.81-14.89-17.23-19.65-20.87-24a15.85,15.85,0,0,1-3.2-11.69,13.87,13.87,0,0,0-.09-6c-.52-2,3.81-6.32,3.81-6.32h0A26.84,26.84,0,1,0,27.61,64.83a26.32,26.32,0,0,0,.27,3.79,8.59,8.59,0,0,0-1.22,3.22c-.09,2.34,2.42,9.7,4.07,11.61S35,94.7,36.44,97.3a69.71,69.71,0,0,1,5.28,12,29.43,29.43,0,0,0,5,9.61c2.17,2.86,7.36,18.27,10.65,24.33s14.29,16,16.28,19.56,7.53,6.67,11.16,7.62,10,5.54,18.1,10.22S124.31,186,124.31,186l-1.38,3.46s-8.23-.18-13-.44-26.4,2.52-30.91,2.17a61.86,61.86,0,0,0-12.72.86c-1,.26-11.52,1.91-15.15,2.69s-10.82,4.5-11.95,5-7.45,8.31-5.71,9,5.54-4,5.54-4-1.3,3.12-1.73,4.76-.87,5.28.6,5.8a1.9,1.9,0,0,0,2.25-.78s-.43,4.5,1,4.42,2-2.51,1.82-4.5,2.42-6.93,4.76-9.79,9.35-2.25,11-.86-1.47,2.77-2.59,4.24-1.13,4.24.6,5.28,5.8-2.08,7-3.55,5.88-6.15,7.53-6.75S86,204.56,93.23,208s20.69,2.77,20.69,2.77-2.51,13-4.24,25.89.95,29.52.95,29.52,1.13,7.36,1,9-4.24,9.09-6.23,13.51-3,12.55-3,12.55-3.2,5.28-4.16,7.27-5.71,21-7,28.83-2,26.67-2.68,29.09,1.55,5.37,1.55,5.37,1,8.05,8.32,11.17c5.44,2.33,32.46.78,38.78.6s23.2-2.68,28.74-3.37,13.59.17,14.81,1.38a66.47,66.47,0,0,0,7.87,6.15,33.06,33.06,0,0,0,4.42,2.25,44.15,44.15,0,0,1-.09,4.59c-.17,1.64,1.91,5.62,3.21,6.66s2.59,1.13,3.63,1.73,3.55,9.09,3.55,10.91,2.43,6.67,5.28,7.28,1.82-5.11,1.82-5.11,3.55,6.66,8.83,6.92c4.52.22,6-4.15,6-4.15,5.72-3.38,6.24-12,5.63-19.65S225.6,384.11,223.44,380.74Z"/><path class="cls-4" d="M144.85,462.15C96,448.93,46.46,437.56,0,417.61,14.69,369,29.53,323.76,44.06,282.12a271.69,271.69,0,0,0,90.71,29.25A1296.78,1296.78,0,0,0,144.85,462.15Z"/><path class="cls-5" d="M139.42,265.48c-3.72-64.62-3.79-129.08-1.69-192A261.41,261.41,0,0,0,186,89.06c10.36,57.43,20.77,102.62,37.88,153.34C196.25,249.53,170.06,263.88,139.42,265.48Z"/><path class="cls-6" d="M141.38,45.66Q147.08,22.31,152.91,0a206.75,206.75,0,0,0,35,21q-3.28,21.83-6.25,44.3A217.65,217.65,0,0,1,141.38,45.66Z"/><path class="cls-7" d="M144.54,430.05c-8.65-38.77-15.53-73.44-21.36-105,30.57-5.54,56.74-14.08,79.14-24.63q40.31,36.51,87.72,77C253.71,401.68,206.17,421,144.54,430.05Z"/></g></g></g></svg>