<svg xmlns="http://www.w3.org/2000/svg" xmlns:xlink="http://www.w3.org/1999/xlink" viewBox="0 0 314.72 377"><defs><style>.cls-1{isolation:isolate;}.cls-2,.cls-3,.cls-4{mix-blend-mode:multiply;}.cls-2{fill:url(#linear-gradient);}.cls-3,.cls-5{opacity:0.5;}.cls-3{fill:url(#linear-gradient-2);}.cls-4{fill:url(#linear-gradient-3);}.cls-5,.cls-7{mix-blend-mode:screen;}.cls-5{fill:url(#linear-gradient-4);}.cls-6{fill:#001443;fill-rule:evenodd;}.cls-7{opacity:0.4;fill:url(#linear-gradient-5);}</style><linearGradient id="linear-gradient" x1="-508.34" y1="1401.93" x2="-373.89" y2="1401.93" gradientTransform="matrix(-0.34, 0.94, 0.94, 0.34, -1239.38, 15.65)" gradientUnits="userSpaceOnUse"><stop offset="0.16" stop-color="#e98500"/><stop offset="0.34" stop-color="#ec9200"/><stop offset="0.68" stop-color="#f5b500"/><stop offset="1" stop-color="#fedb00"/></linearGradient><linearGradient id="linear-gradient-2" x1="-25.22" y1="-218.08" x2="284.75" y2="-218.08" gradientTransform="translate(-90.4 146.42) rotate(92.7)" gradientUnits="userSpaceOnUse"><stop offset="0.16" stop-color="#1374ad" stop-opacity="0.8"/><stop offset="1" stop-color="#1173be" stop-opacity="0.9"/></linearGradient><linearGradient id="linear-gradient-3" x1="112.82" y1="-251.11" x2="332.63" y2="-251.11" gradientTransform="translate(-90.4 146.42) rotate(92.7)" gradientUnits="userSpaceOnUse"><stop offset="0.16" stop-color="#1173be" stop-opacity="0.9"/><stop offset="1" stop-color="#17a8e2" stop-opacity="0.8"/></linearGradient><linearGradient id="linear-gradient-4" x1="1861.97" y1="-1434.43" x2="2330.84" y2="-1434.43" gradientTransform="translate(-2290.53 469.37) rotate(26.66)" xlink:href="#linear-gradient-3"/><linearGradient id="linear-gradient-5" x1="3.99" y1="-313.16" x2="193.53" y2="-313.16" xlink:href="#linear-gradient-3"/></defs><g class="cls-1"><g id="Capa_2" data-name="Capa 2"><g id="Capa_1-2" data-name="Capa 1"><path class="cls-2" d="M181.91,0c44.82,12.12,90.21,22.54,132.81,40.84-13.47,44.54-27.07,86-40.39,124.23a249.08,249.08,0,0,0-83.18-26.83A1185.92,1185.92,0,0,0,181.91,0Z"/><path class="cls-3" d="M155.75,132.79c2.79,48.36,2.84,96.61,1.27,143.73a194.94,194.94,0,0,0-36.15-11.69c-7.76-43-15.55-76.8-28.35-114.77C113.22,144.73,132.82,134,155.75,132.79Z"/><path class="cls-4" d="M174.21,285.07q-3.51,21.75-7.22,42.56A190.27,190.27,0,0,0,133.46,311q1.41-20.17,2.5-40.94A199,199,0,0,1,174.21,285.07Z"/><path class="cls-5" d="M133.4,8.44C141.33,44,147.65,75.79,153,104.71c-28,5.09-52,12.92-72.56,22.59Q43.47,93.84,0,56.71C33.31,34.46,76.9,16.77,133.4,8.44Z"/><path class="cls-6" d="M231.51,93.6a156,156,0,0,0-15.44-6.26s2.93-.66,2.73-2.19-4.33-8.73-4.33-8.73.6-4.32-.07-6.72a52.48,52.48,0,0,1-1.4-5.79C212.94,63,214.8,59,202,54.39s-20.3-5-25.89,4.13a28.85,28.85,0,0,0-3.83,9.9,11.88,11.88,0,0,1-2.71-5.15c-2.7-10.92-6.73-22.28-13.79-29.89C130.85,6.32,98,51.73,123.39,70.94a28.26,28.26,0,0,0,10.35,4.87c13.93,3.49,24.68-.19,30.84.54a21.45,21.45,0,0,1,5.65,1.3l-.33,2,.63.78.4.06a2.16,2.16,0,0,0,.64,2.53,4.35,4.35,0,0,0,2.36.9c.8,2.21,1.57,4.45,1.53,5.88a46.44,46.44,0,0,1-1.06,7s-3.8-2.59-4.66-2.59-3.93,5.32-3.93,5.32a60,60,0,0,0-13,4.06c-6.39,2.93-13.45,13.18-11.05,21.84s10.58,35.15,11.51,41.74-.13,17.37-.13,17.37-3.06,2.13-2.8,4.39a25.79,25.79,0,0,0,1.07,4.6s-4.39,19.77-.2,32.28l2.8.6s11.11,25.43,23.43,40.87c0,0-1.87,6.39,0,7.79s7.19,6.86,7.19,6.86l.8,7.52s-16,5.86-21,10.25-24.1,19.38-24.1,19.38.47-1.6-.73-2S123.8,328,123.8,328s-14.24-3.53-20.43-2.27-7.72,8.92-5.19,14S103,348.55,103.1,351s-.86,6.33.47,8,2.93,3.13,3.59,7.19.93,9.85,7.92,10.78,7.46-5.86,6.93-8.19-.54-6.79,1.79-9.31,5.93-7.53,8-8.72,4.8-3.07,4.66-4.4a5.65,5.65,0,0,1,2.07-4.86c1.79-1.46,10.71-5.66,10.71-6.72a4.6,4.6,0,0,0-.6-2.07s13.25-5.45,21.37-8.38,22.24-11.72,22.24-11.72L188,323.33s-3.66,3.06-3.93,4.92.34,5.73-.46,7.92-2.26,8.59-3.93,10.52-5.59,6.26-6.26,12.18a5.79,5.79,0,0,0-1.79,4.4c.13,2.72,4.19,6.52,10.45,6.59s13-.8,16.51-.47,13.58.93,19.77.8,10.45-4.79,7.39-8.92-7.93-.53-15.71-6.66-5.6-11.18-6.26-12.31S201,340,201.42,338s3.06-8.92,2.8-9.52-1.33-.67-1.33-.67,11.05-24.76,13.24-30.22,11.39-23.5,10.85-29.56-5.65-16.44-5.65-16.44-1.87-6.26-6.33-10.25c0,0-.06-25.3-.73-31.09a44.84,44.84,0,0,0-2.93-11s3.53-11.78,2.73-13.71-3.53-3.06-3.26-7.12,6.39-36.22,7.92-41.87,9.25-7,11.38-8.26,3.8-1.46,4.93-3.73c0,0,14-9.65,13.25-15.84S241.3,98.06,231.51,93.6Zm-66.6-23.06c-1.94-.33-2.83.76-4.5.34s-1.31-1.11-1.31-1.11C164.3,65.9,163.84,59,163.84,59c1.62.72,1.74,6.32,2.38,8.31S166.93,70.91,164.91,70.54Zm54.44,34.15c-2.75.27-8.7.89-10.12.45s-2.48-2.13-3-2-6.39-1.42-6.39-1.42,7.73.53,11.28-1.07,3-4,3-4,1.69,4.61,5.15,6,10,1.51,10,1.51S222.1,104.43,219.35,104.69Z"/><path class="cls-7" d="M268.6,188.38A253.42,253.42,0,0,0,175.13,163c-.75,26.91-2.15,53.43-4,79.41,19.63,10.7,39.32,25.37,58.42,45.28Q248.39,241.9,268.6,188.38Z"/></g></g></g></svg>