<svg xmlns="http://www.w3.org/2000/svg" xmlns:xlink="http://www.w3.org/1999/xlink" viewBox="0 0 354.2 344.66"><defs><style>.cls-1{isolation:isolate;}.cls-2{opacity:0.8;fill:url(#linear-gradient);}.cls-3{fill:url(#linear-gradient-2);}.cls-4{opacity:0.2;}.cls-4,.cls-5{mix-blend-mode:multiply;}.cls-5{fill:url(#linear-gradient-3);}.cls-6{fill:#001443;}.cls-7{opacity:0.4;mix-blend-mode:screen;fill:url(#linear-gradient-4);}</style><linearGradient id="linear-gradient" x1="69.68" y1="1032.95" x2="207.77" y2="1032.95" gradientTransform="translate(1284.94 299.92) rotate(109.38)" gradientUnits="userSpaceOnUse"><stop offset="0.16" stop-color="#82bc3f" stop-opacity="0.8"/><stop offset="0.19" stop-color="#78b83f" stop-opacity="0.81"/><stop offset="0.34" stop-color="#4da741" stop-opacity="0.84"/><stop offset="0.5" stop-color="#2b9943" stop-opacity="0.87"/><stop offset="0.66" stop-color="#139044" stop-opacity="0.89"/><stop offset="0.83" stop-color="#058a45" stop-opacity="0.9"/><stop offset="1" stop-color="#008845" stop-opacity="0.9"/></linearGradient><linearGradient id="linear-gradient-2" x1="151.61" y1="215.06" x2="243.95" y2="215.06" gradientTransform="matrix(1, 0, 0, 1, 0, 0)" xlink:href="#linear-gradient"/><linearGradient id="linear-gradient-3" x1="2106.34" y1="-1166.47" x2="2587.9" y2="-1166.47" gradientTransform="matrix(-0.73, 0.68, 0.68, 0.73, 2507.63, -557.15)" gradientUnits="userSpaceOnUse"><stop offset="0.16" stop-color="#1173be" stop-opacity="0.9"/><stop offset="1" stop-color="#17a8e2" stop-opacity="0.8"/></linearGradient><linearGradient id="linear-gradient-4" x1="601.39" y1="-82.87" x2="796.06" y2="-82.87" gradientTransform="matrix(-0.17, 0.99, 0.99, 0.17, 292.14, -407.92)" xlink:href="#linear-gradient-3"/></defs><g class="cls-1"><g id="Capa_2" data-name="Capa 2"><g id="Capa_1-2" data-name="Capa 1"><path class="cls-2" d="M354.2,54.72C310.71,35.13,267.88,13.83,222.14.6c-18.32,44.14-34.57,86-48.87,125a256,256,0,0,1,83.51,32.9A1217.09,1217.09,0,0,1,354.2,54.72Z"/><path class="cls-3" d="M173.27,143.07c-13.36,47.93-13,96.34-21.66,144a200,200,0,0,1,38.84-3.85c17.16-41.45,32.36-73.69,53.5-109C224.34,164.33,211.74,152.49,173.27,143.07Z"/><g class="cls-4"><path class="cls-5" d="M52.36,43.83c2.43,37.33,5.37,70.49,8.44,100.55,29.09-3.07,55-2.27,78,1.35,17.86-29.1,37.41-60.08,58.94-92.78C158.53,40.63,110.47,35.75,52.36,43.83Z"/></g><path class="cls-6" d="M132,169.55a52.23,52.23,0,0,1,9.34,2.82c1.82,5.6,5.26,10,10.16,12.29,12,5.55,28.08-3.77,36-20.84s4.66-35.4-7.31-41a19.11,19.11,0,0,0-14.19-.47l-2,.91c-.32-.8-1-.32-2.25-.16s-3.05-.64-6.42-7.71-9.32-12.69-13.17-17-6.43-14.13-7.39-17.67.64-11.72.8-16.86-4.65-11.24-4.65-11.24c-.16-2.73,2.41-14.61,2.41-14.61,1.6-5.94-.17-14.13-.17-14.13,7.39-3.69,9-9,4.66-13.49s-18.63-8.67-18.63-8.67C108.39-2.12,99.08,1.26,96.67,4s-3.53,2.89-3.53,2.89C87.2,8.64,90.25,17.8,90.25,21.81s.8,11.88.8,11.88c-5.14-1.92-4.49,6.43-4.49,6.43-8.14.1-24.2,21.09-24.2,21.09-4.28,6.42-13.92,19.7-18,29.33s-7.93,23.77-9.85,34a127,127,0,0,0-1.93,20.56c-8.35,10.06-6.21,29.76-6.21,29.76-5.14,2.14-3.21,10.49-4.07,16.91s4.5,7.5,4.5,7.5,1.93,13.06,3.85,19.91,3.64,3.64,3.64,3.64C33,227.78,36.61,238,36.61,238a11.32,11.32,0,0,0-8.83,3.54c-3.53,4-10,5-10,5s-.32-4.18-2.09-5.79-11.08-4.81-15.1,4.5c0,0-.48,1.77,1,9.64,0,0,.64,11.24-.32,13.32s-3,8.84,1.76,18.47,8.51,10.6,12.37,10.92c0,0,8.83.32,9.15-7.55,0,0,.32-16.54.48-19.91a13.77,13.77,0,0,1,6.11.64c3.69,1.13,10,1.77,14.45-.8,0,0,5.46-.16,9.15,1.12S66,272.8,69.21,267.34a13.35,13.35,0,0,0,5.94-8.51c1.13-5.78.49-5.78,1.93-12l.48-22.16s5.14,1.28,6.75-2.25,1.76-10.92,1.76-10.92,2.25,3.37,9.32,5.94c0,0,9.15,4.5,13.49,7.07,0,0,12,7.54,14.29,11.24s3.69,5.14,3.69,12.2.48,21.36,9.8,33.4c0,0,4.33,8.51,5.62,13.17s7.22,13.17,7.54,19.11a43.69,43.69,0,0,0,1.93,10.6,34.76,34.76,0,0,0-.16,9c.64,3.69-2.73,11.24,10.28,8,0,0,2.57-.48,3.53,2.57,0,0,1.93,3.37,9.48-3,0,0,6.9-4.34,13.65-1.45a2.87,2.87,0,0,0-.65-3.53c-1.76-1.45-5.46-3.05-9.31-7.71s-9.31-10.76-9.31-10.76,6.9-6.74.16-1.28c0,0-1.29,1.44-2.57-.8s-2.89-.33-3-7.23-.33-19.43-1-24.25-.8-14.13-2.57-23.61-3.21-18.94-11.24-28.42a96.72,96.72,0,0,0-3.21-15.9c-2.41-8-1.12-16.86-9-28.42s-13.33-16.06-13.33-16.06v-1.6A23,23,0,0,1,132,169.55Zm-14.18-17.77-7.5.21v-3.64l-3,.21,1.28-12.63c-.64-7.06,4.92-12.63,6.21-16.91s2.57-8.57,2.57-8.57a83.83,83.83,0,0,0,9.2,10.71s7.93,9.2,11.57,10.49,11,3.72,11,3.72a47,47,0,0,0-4.93,8.33s-7.53,4.65-9.67,7-5.57-.43-5.57-.43C123.81,154.13,117.82,151.78,117.82,151.78Z"/><path class="cls-7" d="M58.87,184.5a260,260,0,0,1,99.35-5.13c-5.12,27.18-9.5,54.1-13.29,80.58-22,6.46-45,16.88-68.51,32.69C70.45,259.29,64.52,223.31,58.87,184.5Z"/></g></g></g></svg>