<svg xmlns="http://www.w3.org/2000/svg" xmlns:xlink="http://www.w3.org/1999/xlink" viewBox="0 0 432.63 377"><defs><style>.cls-1{isolation:isolate;}.cls-2{opacity:0.5;fill:url(#linear-gradient);}.cls-2,.cls-3,.cls-4,.cls-5,.cls-8{mix-blend-mode:multiply;}.cls-3{fill:url(#linear-gradient-2);}.cls-4{opacity:0.2;fill:url(#linear-gradient-3);}.cls-5{opacity:0.7;fill:url(#linear-gradient-4);}.cls-6{opacity:0.4;mix-blend-mode:screen;fill:url(#linear-gradient-5);}.cls-7{fill:#001443;}.cls-8{fill:url(#linear-gradient-6);}</style><linearGradient id="linear-gradient" x1="681.63" y1="-159.48" x2="1833.15" y2="-159.48" gradientTransform="matrix(-0.67, 0.39, -0.51, -0.86, 918.72, -317.63)" gradientUnits="userSpaceOnUse"><stop offset="0.16" stop-color="#1173be" stop-opacity="0.9"/><stop offset="1" stop-color="#17a8e2" stop-opacity="0.8"/></linearGradient><linearGradient id="linear-gradient-2" x1="871.48" y1="-60.25" x2="1243.41" y2="-60.25" gradientTransform="translate(938.39 -329.39) rotate(149.54)" gradientUnits="userSpaceOnUse"><stop offset="0.16" stop-color="#e98500"/><stop offset="0.34" stop-color="#ec9200"/><stop offset="0.68" stop-color="#f5b500"/><stop offset="1" stop-color="#fedb00"/></linearGradient><linearGradient id="linear-gradient-3" x1="-648.62" y1="1562.61" x2="-271.54" y2="1562.61" gradientTransform="translate(236.15 1759.8) rotate(160.97)" xlink:href="#linear-gradient-2"/><linearGradient id="linear-gradient-4" x1="1017.77" y1="-88.97" x2="1281.51" y2="-88.97" xlink:href="#linear-gradient-2"/><linearGradient id="linear-gradient-5" x1="2553.16" y1="-950.71" x2="3087.13" y2="-950.71" gradientTransform="translate(1049.95 -2405.36) rotate(125.79)" xlink:href="#linear-gradient"/><linearGradient id="linear-gradient-6" x1="388.13" y1="1260.65" x2="549.45" y2="1260.65" gradientTransform="matrix(-0.97, 0.23, 0.23, 0.97, 505.77, -1146.91)" xlink:href="#linear-gradient"/></defs><g class="cls-1"><g id="Capa_2" data-name="Capa 2"><g id="Capa_1-2" data-name="Capa 1"><path class="cls-2" d="M140.48,353.42q-44.73,9.15-84.36,16.4,7.41-15.92,12.79-31,40.1-12,84.08-26A349.39,349.39,0,0,1,140.48,353.42Z"/><path class="cls-3" d="M235.05,193.75C188.3,228.3,139.87,260,91.51,289.36a234.46,234.46,0,0,0-12-44c38.08-36,72.4-72.87,102.13-110.65A397.51,397.51,0,0,1,235.05,193.75Z"/><path class="cls-4" d="M231.92,189.35A1134.32,1134.32,0,0,0,343.16,85.07,411.33,411.33,0,0,0,311.39,0c-19,50.86-47.28,104.63-91.14,160.89Q226.55,174.78,231.92,189.35Z"/><path class="cls-5" d="M104.56,291.67q-24.15,10.75-47.5,20.69a226.62,226.62,0,0,0-5.3-44.6Q73,255.94,94.53,243.39A239.53,239.53,0,0,1,104.56,291.67Z"/><path class="cls-6" d="M323.14,355.07c-41.41,2.49-78.3,3.84-111.79,4.62-.65-32.43-5.12-60.83-12.29-85.67q44.33-35.5,93.92-77.68C312,237.82,324,290,323.14,355.07Z"/><path class="cls-7" d="M200.8,54.76a10.76,10.76,0,0,0,3.29-1.5S202.82,53.89,200.8,54.76Zm76.85,266.38c-18,2.78-34-22.2-34-22.2-9-21.52-27.76-25-27.76-25l35.39-40.25a24.55,24.55,0,0,1,17.35-11.1c-2.78-9.72,16.66-9,16.66-9-3.47-31.93-27.77-59.69-27.77-59.69-9-7.63-25.67-43-25.67-43C220.05,87.27,187.43,88,187.43,88c4.14-18.61-4.82-26-9.66-28.64,6.86,1.73,17.64-2.25,23-4.56-9,2.33-16.14-9.83-16.14-9.83-10.41-16.65-20.13-12.49-20.13-12.49-13.19,0-3.47,19.43-3.47,19.43-6.25,0-16,12.5-16,12.5-7.64,15.26,3.47,18,3.47,18L152,89.35c2.08,11.1,6.94,13.88,6.94,13.88-9,2.08-7.64,16.66-7.64,16.66,1.39,14.57,1.39,44.41,1.39,44.41-4.16,2.78-10.41,30.54-10.41,30.54-4.86,1.39-8.33,6.94-8.33,6.94L15.32,164.3c-6.94-1.39-2.77-5.55-2.77-5.55,16.65-15.27-6.94-10.41-6.94-10.41-17.35,19.43,11.1,27.07,11.1,27.07l113.12,34.7c1.39,9,16,7.63,16,7.63,16.66,17.35,27.76,5.55,27.76,5.55l16,4.17-6.94,43c-2.77,15.27,9,20.13,9,20.13l-3.47,45.11c-8.33,18.74-31.93,19.43-31.93,19.43-11.79,2.78-6.94,11.1-6.94,11.1,12.49,14.58,36.09.7,36.09.7,9-.7,16.66-6.25,16.66-6.25,9-3.47,2.08-19.43,2.08-19.43,5.55-6.94,13.88-32.62,13.88-32.62,22.21,10.41,35.39,29.84,35.39,29.84-.69,9,6.94,17.35,6.94,17.35L258.22,369c-2.08,10.41,6.94,7.63,6.94,7.63,13.19-5.55,12.49-27.06,12.49-27.06C293.61,320.45,277.65,321.14,277.65,321.14Zm-86-101.32L179.1,217l-.69-8.32,16.66-11.8ZM186,184.43s-10.41,11.8-18.74,16l-13.87,6.25-.7-6.94s18-18,15.27-31.23l1.39-30.54s11.1,12.49,21.51,16.66l10.41,11.79ZM99.17,347.68a9.82,9.82,0,1,1-9.82-9.82A9.83,9.83,0,0,1,99.17,347.68Z"/><path class="cls-8" d="M386.48,87.42c17.25,53,36.57,105.41,46.15,160.2-53.58,15.7-104.19,29.29-151.29,41a298.81,298.81,0,0,0-27.65-101.15C298.92,157.16,344,123.74,386.48,87.42Z"/></g></g></g></svg>