<svg xmlns="http://www.w3.org/2000/svg" xmlns:xlink="http://www.w3.org/1999/xlink" viewBox="0 0 112.06 72.18"><defs><style>.cls-1{isolation:isolate;}.cls-2,.cls-6{mix-blend-mode:screen;opacity:0.3;}.cls-2{fill:url(#linear-gradient);}.cls-3{mix-blend-mode:multiply;opacity:0.7;fill:url(#linear-gradient-2);}.cls-4{fill:#003165;}.cls-4,.cls-5{fill-rule:evenodd;}.cls-5{fill:none;stroke:#003165;stroke-linecap:round;stroke-linejoin:round;stroke-width:1.6px;}.cls-6{fill:url(#linear-gradient-3);}</style><linearGradient id="linear-gradient" x1="1150.11" y1="-109.88" x2="1649.38" y2="-109.88" gradientTransform="matrix(0.71, 0.32, 0.41, -0.91, -912.26, -499.74)" gradientUnits="userSpaceOnUse"><stop offset="0.16" stop-color="#1374ad" stop-opacity="0.8"/><stop offset="1" stop-color="#1173be" stop-opacity="0.9"/></linearGradient><linearGradient id="linear-gradient-2" x1="770.14" y1="1027.63" x2="812.32" y2="1027.63" gradientTransform="translate(-638.38 -1090.91) rotate(6.92)" gradientUnits="userSpaceOnUse"><stop offset="0.16" stop-color="#e98500"/><stop offset="0.34" stop-color="#ec9200"/><stop offset="0.68" stop-color="#f5b500"/><stop offset="1" stop-color="#fedb00"/></linearGradient><linearGradient id="linear-gradient-3" x1="1063.53" y1="-123.25" x2="1123.01" y2="-123.25" gradientTransform="matrix(0.91, 0.41, 0.41, -0.91, -905.43, -496.85)" xlink:href="#linear-gradient"/></defs><g class="cls-1"><g id="Capa_2" data-name="Capa 2"><g id="Capa_1-2" data-name="Capa 1"><path class="cls-2" d="M44.39,62.51Q64.1,64.34,81.52,65.6c-2.63-4.34-4.94-8.59-7-12.75Q56.7,49.6,37.08,45.63A152.57,152.57,0,0,0,44.39,62.51Z"/><path class="cls-3" d="M7.44,0C4.46,14.26.93,28.44,0,43c14.38,2.56,27.92,4.65,40.5,6.34a78.25,78.25,0,0,1,4.3-27.08A372.07,372.07,0,0,1,7.44,0Z"/><path class="cls-4" d="M97.47,61.26c-.56,0-1.16,0-1.81,0-.91,0-1.71,0-2.52,0L94,65.78c0,.2.2.3.4.3h4a.4.4,0,0,0,.41-.3l.9-4.52H97.47Zm-.4-28.87c-1.56,0-1.41,4.68-4.68,5.84a12.69,12.69,0,0,1-4.48.8A7.75,7.75,0,0,1,83,37.67c-1.06-1,8.59-4.27,6.53-7.09L86.4,26.36a1,1,0,0,0-.85-.45,1,1,0,0,0-.65.2L74.29,33.9s-4.07,0-4.78,2.37h-.3c-.85,0-3.27.2-3.92,2.16,0,0-10.06,2-16,5.23s-15.14,3-15.14,8.09,8.1,8.55,14.53,8.55,38.67-1,43.2-1.25c1,0,1.86,0,2.71,0h3.27c3.42,0,5.18-.41,5.23-4.33.1-5.78.8-14.73-3.62-20.32-1.11-1.4-1.86-2-2.36-2ZM42.41,61.61l.9,4.88c0,.15.2.3.36.3h4c.15,0,.35-.15.35-.3l.85-4a24.77,24.77,0,0,1-6.38-1.15.37.37,0,0,0-.1.3Zm10,4.88a.45.45,0,0,0,.41.3h4a.44.44,0,0,0,.4-.3L58,62.36c-2.52,0-4.68.1-6.29.15Zm30.93-.66a.38.38,0,0,0,.35.35h4c.15,0,.3-.15.36-.35l.9-4.37c-1.76,0-4,.15-6.39.2Z"/><path class="cls-5" d="M30.57,64.22s7.16,1.29,7.16,7.16"/><path class="cls-5" d="M38.56,69.82s8-4.31,8,1.56"/><path class="cls-5" d="M49,70.62s4-5.11,4,.76"/><path class="cls-5" d="M55.34,70.62s4-5.11,4,.76"/><path class="cls-5" d="M62.53,64.22s2.37,1.29,2.37,7.16"/><path class="cls-5" d="M70.52,64.22s0,1.29,0,7.16"/><path class="cls-5" d="M78.51,64.22s-3.23,1.29-3.23,7.16"/><path class="cls-5" d="M92.62,69.32s-3.76-3.81-3.76,2.06"/><path class="cls-5" d="M85.43,69.32s-3.76-3.81-3.76,2.06"/><path class="cls-5" d="M101.4,69.32s-6.15-3.81-6.15,2.06"/><path class="cls-5" d="M111.26,64.22s-8,1.29-8,7.16"/><path class="cls-6" d="M13.91,68a79.74,79.74,0,0,1,6.16-29.77c7.64,3.62,15.26,7,22.79,10.15a75.72,75.72,0,0,0,4.37,22.78C36.92,70.31,25.82,69.29,13.91,68Z"/></g></g></g></svg>