<svg xmlns="http://www.w3.org/2000/svg" xmlns:xlink="http://www.w3.org/1999/xlink" viewBox="0 0 147.11 75.44"><defs><style>.cls-1{isolation:isolate;}.cls-2,.cls-6{mix-blend-mode:screen;opacity:0.3;}.cls-2{fill:url(#linear-gradient);}.cls-3{mix-blend-mode:multiply;opacity:0.7;fill:url(#linear-gradient-2);}.cls-4,.cls-7{fill:none;stroke:#003165;stroke-linecap:round;stroke-linejoin:round;stroke-width:1.6px;}.cls-4{fill-rule:evenodd;}.cls-5{fill:#001443;}.cls-6{fill:url(#linear-gradient-3);}</style><linearGradient id="linear-gradient" x1="1179.69" y1="-180.46" x2="1678.96" y2="-180.46" gradientTransform="matrix(0.71, 0.32, 0.41, -0.91, -904.3, -570.29)" gradientUnits="userSpaceOnUse"><stop offset="0.16" stop-color="#1374ad" stop-opacity="0.8"/><stop offset="1" stop-color="#1173be" stop-opacity="0.9"/></linearGradient><linearGradient id="linear-gradient-2" x1="775.39" y1="1026.67" x2="817.57" y2="1026.67" gradientTransform="translate(-643.71 -1087.33) rotate(6.92)" gradientUnits="userSpaceOnUse"><stop offset="0.16" stop-color="#e98500"/><stop offset="0.34" stop-color="#ec9200"/><stop offset="0.68" stop-color="#f5b500"/><stop offset="1" stop-color="#fedb00"/></linearGradient><linearGradient id="linear-gradient-3" x1="1079.37" y1="-193.83" x2="1138.84" y2="-193.83" gradientTransform="matrix(0.91, 0.41, 0.41, -0.91, -890.93, -564.46)" xlink:href="#linear-gradient"/></defs><g class="cls-1"><g id="Capa_2" data-name="Capa 2"><g id="Capa_1-2" data-name="Capa 1"><path class="cls-2" d="M44.39,65.77Q64.1,67.6,81.52,68.86c-2.63-4.34-4.94-8.59-7-12.75Q56.7,52.86,37.08,48.89A152.57,152.57,0,0,0,44.39,65.77Z"/><path class="cls-3" d="M7.44,3.26C4.46,17.52.93,31.7,0,46.22c14.38,2.56,27.92,4.65,40.5,6.34a78.25,78.25,0,0,1,4.3-27.08A372.07,372.07,0,0,1,7.44,3.26Z"/><path class="cls-4" d="M30.57,67.48s7.16,1.29,7.16,7.16"/><path class="cls-4" d="M38.56,69.08s8-.31,8,5.56"/><path class="cls-4" d="M49,69.88s4-1.11,4,4.76"/><path class="cls-4" d="M55.34,69.88s4-1.11,4,4.76"/><path class="cls-4" d="M62.53,67.48s2.37,1.29,2.37,7.16"/><path class="cls-4" d="M70.52,67.48s0,1.29,0,7.16"/><path class="cls-4" d="M78.51,67.48s-3.23,1.29-3.23,7.16"/><path class="cls-4" d="M92.62,69.58s-3.76-.81-3.76,5.06"/><path class="cls-4" d="M85.43,69.58s-3.76-.81-3.76,5.06"/><path class="cls-4" d="M101.4,69.58s-6.15-.81-6.15,5.06"/><path class="cls-5" d="M111.26,0,71.46,50.92c-3.73,5.16-5.58.2-5.58.2,1-6.56-7.34-8.31-9.3-3.78a10.86,10.86,0,0,0,1.51,11.19c9.59,11.61,23-4.6,23-4.6L116.53,6.52"/><path class="cls-4" d="M111.26,67.48s-8,1.29-8,7.16"/><path class="cls-6" d="M13.91,71.22a79.74,79.74,0,0,1,6.16-29.77c7.64,3.62,15.26,7,22.79,10.15a75.72,75.72,0,0,0,4.37,22.78C36.92,73.57,25.82,72.55,13.91,71.22Z"/><line class="cls-7" x1="84.52" y1="60.72" x2="125.31" y2="60.72"/><line class="cls-7" x1="95.52" y1="51.72" x2="136.31" y2="51.72"/><line class="cls-7" x1="105.52" y1="40.72" x2="146.31" y2="40.72"/></g></g></g></svg>