<svg xmlns="http://www.w3.org/2000/svg" xmlns:xlink="http://www.w3.org/1999/xlink" viewBox="0 0 117.89 80.55"><defs><style>.cls-1{isolation:isolate;}.cls-2,.cls-5{mix-blend-mode:multiply;opacity:0.7;}.cls-2{fill:url(#linear-gradient);}.cls-3{mix-blend-mode:screen;opacity:0.3;fill:url(#linear-gradient-2);}.cls-4,.cls-6{fill:none;stroke:#003165;stroke-linecap:round;stroke-linejoin:round;}.cls-4{stroke-width:2px;fill-rule:evenodd;}.cls-5{fill:url(#linear-gradient-3);}.cls-6{stroke-width:1.6px;}.cls-7{fill:#001443;}</style><linearGradient id="linear-gradient" x1="-11794.33" y1="4628.25" x2="-11654.69" y2="4628.25" gradientTransform="matrix(-1, -0.08, -0.08, 1, -11303.71, -5501.06)" gradientUnits="userSpaceOnUse"><stop offset="0.16" stop-color="#e98500"/><stop offset="0.34" stop-color="#ec9200"/><stop offset="0.68" stop-color="#f5b500"/><stop offset="1" stop-color="#fedb00"/></linearGradient><linearGradient id="linear-gradient-2" x1="-15139.05" y1="14455.54" x2="-14469.83" y2="14455.54" gradientTransform="matrix(-0.76, 0.16, 0.21, 0.98, -14238.18, -11668.97)" gradientUnits="userSpaceOnUse"><stop offset="0.16" stop-color="#1374ad" stop-opacity="0.8"/><stop offset="1" stop-color="#1173be" stop-opacity="0.9"/></linearGradient><linearGradient id="linear-gradient-3" x1="-10530.09" y1="3058.52" x2="-10470.62" y2="3058.52" gradientTransform="matrix(-0.94, -0.35, -0.35, 0.94, -8702.44, -6491.65)" xlink:href="#linear-gradient"/></defs><g class="cls-1"><g id="Capa_2" data-name="Capa 2"><g id="Capa_1-2" data-name="Capa 1"><path class="cls-2" d="M71.58,0c-7.48,7.85-14,15-19.79,21.55a87,87,0,0,1,15,16.91c9.71-1.9,20.16-3.82,31.36-5.64C93.12,22,84.72,10.81,71.58,0Z"/><path class="cls-3" d="M42.53,26.61C17.13,34.49,6.72,40.73,0,52.79L17.66,61c13-12.31,18.51-16.67,46.17-22C56.18,40.49,50.27,30.53,42.53,26.61Z"/><path class="cls-4" d="M64,71.86s-2,.35-2,7.69"/><path class="cls-4" d="M70,71.86s-2,.35-2,7.69"/><path class="cls-4" d="M76,70.59s-2,1.62-2,9"/><path class="cls-4" d="M82,70.59s-2,1.62-2,9"/><path class="cls-4" d="M88,70.59s-2,1.62-2,9"/><path class="cls-4" d="M94,70.59s-2,1.62-2,9"/><path class="cls-4" d="M34,70.59s-2,1.62-2,9"/><path class="cls-4" d="M40,70.59s-2,1.62-2,9"/><path class="cls-4" d="M46,70.59s-2,1.62-2,9"/><path class="cls-4" d="M52,70.59s-2,1.62-2,9"/><path class="cls-4" d="M58,71.86s-2,.35-2,7.69"/><path class="cls-5" d="M100.69,28.27a79.63,79.63,0,0,1-4.16,30.11c-7.86-3.1-15.69-6-23.42-8.62a75.16,75.16,0,0,0-5.88-22.43C77.58,27.45,88.72,27.74,100.69,28.27Z"/><line class="cls-6" x1="65.3" y1="61.51" x2="106.09" y2="61.51"/><line class="cls-6" x1="76.3" y1="52.51" x2="117.09" y2="52.51"/><line class="cls-6" x1="74.3" y1="41.51" x2="115.09" y2="41.51"/><circle class="cls-7" cx="47.4" cy="47" r="17.89"/></g></g></g></svg>