<svg xmlns="http://www.w3.org/2000/svg" xmlns:xlink="http://www.w3.org/1999/xlink" viewBox="0 0 94.54 75.61"><defs><style>.cls-1{isolation:isolate;}.cls-2,.cls-5{mix-blend-mode:screen;opacity:0.3;}.cls-2{fill:url(#linear-gradient);}.cls-3{fill:#003165;}.cls-4{mix-blend-mode:multiply;opacity:0.7;fill:url(#linear-gradient-2);}.cls-5{fill:url(#linear-gradient-3);}</style><linearGradient id="linear-gradient" x1="6660.59" y1="1728.58" x2="7159.85" y2="1728.58" gradientTransform="matrix(-0.71, 0.32, -0.41, -0.91, 5657, -575.55)" gradientUnits="userSpaceOnUse"><stop offset="0.16" stop-color="#1374ad" stop-opacity="0.8"/><stop offset="1" stop-color="#1173be" stop-opacity="0.9"/></linearGradient><linearGradient id="linear-gradient-2" x1="5397.46" y1="463.79" x2="5439.65" y2="463.79" gradientTransform="matrix(-0.99, 0.12, 0.12, 0.99, 5394.48, -1085.27)" gradientUnits="userSpaceOnUse"><stop offset="0.16" stop-color="#e98500"/><stop offset="0.34" stop-color="#ec9200"/><stop offset="0.68" stop-color="#f5b500"/><stop offset="1" stop-color="#fedb00"/></linearGradient><linearGradient id="linear-gradient-3" x1="5329.31" y1="1711.66" x2="5388.78" y2="1711.66" gradientTransform="translate(5640.1 -568.13) rotate(155.79)" xlink:href="#linear-gradient"/></defs><g class="cls-1"><g id="Capa_2" data-name="Capa 2"><g id="Capa_1-2" data-name="Capa 1"><path class="cls-2" d="M37.13,67.78Q17.42,69.63,0,70.87q3.95-6.51,7-12.74c11.9-2.18,24.39-4.56,37.47-7.22A151.38,151.38,0,0,1,37.13,67.78Z"/><path class="cls-3" d="M10.9,17.41a6.88,6.88,0,0,0,1.8,4.66,11.62,11.62,0,0,1,4-2,14.26,14.26,0,0,1,4.47-8.31l.35-.3a6.89,6.89,0,0,0-3.66-1A7,7,0,0,0,10.9,17.41Z"/><path class="cls-3" d="M54.74,24.32a1.39,1.39,0,0,1-.49-.72,10.45,10.45,0,0,0-10-7.5,10.57,10.57,0,0,0-2.51.3,1.4,1.4,0,0,1-1.49-.56,11.49,11.49,0,0,0-20.9,5.4,1.41,1.41,0,0,1-.79,1.13,3.17,3.17,0,0,0-.41.21,1.74,1.74,0,0,1-.38.14,8.88,8.88,0,0,0-5,3.07,8.68,8.68,0,0,0-2,5.56,8.88,8.88,0,0,0,8.89,8.84h29.6a8.88,8.88,0,0,0,8.9-8.84A8.78,8.78,0,0,0,54.74,24.32Z"/><path class="cls-3" d="M23.68,54.81A1.4,1.4,0,0,0,25,53l-1.68-5.49a1.4,1.4,0,0,0-1.75-.92,1.38,1.38,0,0,0-.92,1.74l1.68,5.49A1.4,1.4,0,0,0,23.68,54.81Z"/><path class="cls-3" d="M35.38,54.81A1.4,1.4,0,0,0,36.72,53L35,47.51a1.4,1.4,0,0,0-1.75-.92,1.38,1.38,0,0,0-.92,1.74l1.68,5.49A1.4,1.4,0,0,0,35.38,54.81Z"/><path class="cls-3" d="M47.08,54.81A1.4,1.4,0,0,0,48.42,53l-1.68-5.49A1.4,1.4,0,0,0,45,46.59a1.38,1.38,0,0,0-.92,1.74l1.68,5.49A1.4,1.4,0,0,0,47.08,54.81Z"/><path class="cls-3" d="M16.45,1.4V5.33a1.4,1.4,0,1,0,2.8,0V1.4a1.4,1.4,0,1,0-2.8,0Z"/><path class="cls-3" d="M11.81,8.34a1.46,1.46,0,0,0,.7-.18A1.39,1.39,0,0,0,13,6.25l-2-3.41a1.4,1.4,0,0,0-2.42,1.4l2,3.41A1.41,1.41,0,0,0,11.81,8.34Z"/><path class="cls-3" d="M8.09,10.16l-3.41-2a1.4,1.4,0,1,0-1.39,2.42l3.4,2a1.47,1.47,0,0,0,.7.19,1.42,1.42,0,0,0,1.21-.7A1.4,1.4,0,0,0,8.09,10.16Z"/><path class="cls-3" d="M7.17,17.41A1.4,1.4,0,0,0,5.77,16H1.84a1.4,1.4,0,1,0,0,2.79H5.77A1.4,1.4,0,0,0,7.17,17.41Z"/><path class="cls-3" d="M8.09,24.66a1.4,1.4,0,0,0-1.4-2.42l-3.4,2A1.4,1.4,0,0,0,4,26.81a1.36,1.36,0,0,0,.69-.19Z"/><path class="cls-3" d="M23.19,8.16a1.46,1.46,0,0,0,.7.18,1.41,1.41,0,0,0,1.21-.69l2-3.41a1.39,1.39,0,0,0-.51-1.91,1.41,1.41,0,0,0-1.91.51l-2,3.41A1.39,1.39,0,0,0,23.19,8.16Z"/><path class="cls-4" d="M87.11,3.42c3,14.26,6.5,28.44,7.43,43C80.17,48.93,66.62,51,54.05,52.72a78.24,78.24,0,0,0-4.31-27.08A373.33,373.33,0,0,0,87.11,3.42Z"/><path class="cls-5" d="M77.76,72.44A79.49,79.49,0,0,0,71.6,42.68c-7.64,3.61-15.26,7-22.79,10.15a75.47,75.47,0,0,1-4.37,22.78C54.76,74.8,65.85,73.77,77.76,72.44Z"/></g></g></g></svg>