<svg xmlns="http://www.w3.org/2000/svg" xmlns:xlink="http://www.w3.org/1999/xlink" viewBox="0 0 137.85 101.62"><defs><style>.cls-1{isolation:isolate;}.cls-2{fill:url(#linear-gradient);}.cls-3{mix-blend-mode:multiply;fill:url(#linear-gradient-2);}.cls-4{fill:url(#linear-gradient-3);}.cls-5{fill:#003165;}.cls-6,.cls-7,.cls-8{fill:none;stroke:#003165;stroke-miterlimit:10;}.cls-7{stroke-dasharray:4.96 4.96;}.cls-8{stroke-dasharray:5.51 5.51;}</style><linearGradient id="linear-gradient" x1="1208.22" y1="-737.09" x2="1707.48" y2="-737.09" gradientTransform="matrix(0.71, 0.32, 0.41, -0.91, -683.4, -1054.28)" gradientUnits="userSpaceOnUse"><stop offset="0.16" stop-color="#e88400"/><stop offset="0.34" stop-color="#eb9100"/><stop offset="0.67" stop-color="#f4b400"/><stop offset="1" stop-color="#fedb00"/></linearGradient><linearGradient id="linear-gradient-2" x1="801.01" y1="1104.45" x2="843.2" y2="1104.45" gradientTransform="translate(-659.77 -1152.04) rotate(6.92)" gradientUnits="userSpaceOnUse"><stop offset="0.16" stop-color="#1173be" stop-opacity="0.9"/><stop offset="1" stop-color="#17a8e2" stop-opacity="0.8"/></linearGradient><linearGradient id="linear-gradient-3" x1="1206.43" y1="-746.26" x2="1265.91" y2="-746.26" gradientTransform="matrix(0.91, 0.41, 0.41, -0.91, -776.83, -1096.46)" xlink:href="#linear-gradient"/></defs><g class="cls-1"><g id="Capa_2" data-name="Capa 2"><g id="Capa_1-2" data-name="Capa 1"><path class="cls-2" d="M57.27,98.53Q77,100.38,94.4,101.62c-2.63-4.34-4.94-8.59-7-12.74Q69.58,85.61,50,81.65A154.49,154.49,0,0,0,57.27,98.53Z"/><path class="cls-3" d="M7.44,18.85C4.46,33.11.93,47.29,0,61.81c14.38,2.55,27.92,4.64,40.5,6.34a78.25,78.25,0,0,1,4.3-27.08A372.07,372.07,0,0,1,7.44,18.85Z"/><path class="cls-4" d="M17.37,95.15a79.45,79.45,0,0,1,6.16-29.76c7.64,3.61,15.26,7,22.79,10.15a75.77,75.77,0,0,0,4.37,22.78C40.37,97.5,29.28,96.48,17.37,95.15Z"/><circle class="cls-5" cx="111.67" cy="26.18" r="26.18"/><path class="cls-6" d="M31,79.31c0-.84,0-1.67,0-2.5"/><path class="cls-7" d="M31.23,71.85C32.53,48.69,39.78,31,48.52,31,57.58,31,65,50,65.93,74.33"/><path class="cls-6" d="M66,76.81c0,.83,0,1.66,0,2.5"/><path class="cls-6" d="M66.4,79.31c0-.84,0-1.67,0-2.5"/><path class="cls-8" d="M66.63,71.3c1.12-18.49,6-33.43,12.45-38.49"/><path class="cls-6" d="M81.45,31.43A6.7,6.7,0,0,1,83.89,31"/></g></g></g></svg>