<svg xmlns="http://www.w3.org/2000/svg" xmlns:xlink="http://www.w3.org/1999/xlink" viewBox="0 0 113.89 64.46"><defs><style>.cls-1{isolation:isolate;}.cls-2{fill:url(#linear-gradient);}.cls-3,.cls-5{mix-blend-mode:multiply;}.cls-3{fill:url(#linear-gradient-2);}.cls-4{fill:url(#linear-gradient-3);}.cls-5{fill:url(#linear-gradient-4);}.cls-6,.cls-7{fill:#003165;}.cls-7{fill-rule:evenodd;}</style><linearGradient id="linear-gradient" x1="4742.58" y1="5204.79" x2="4773.64" y2="5204.79" gradientTransform="matrix(0.89, -0.16, -0.1, 0.95, -3709.13, -4146.94)" gradientUnits="userSpaceOnUse"><stop offset="0.16" stop-color="#e88400"/><stop offset="0.34" stop-color="#eb9100"/><stop offset="0.67" stop-color="#f4b400"/><stop offset="1" stop-color="#fedb00"/></linearGradient><linearGradient id="linear-gradient-2" x1="6225.52" y1="-3803.36" x2="6269.3" y2="-3803.36" gradientTransform="matrix(0.82, 0.13, 0.36, -0.96, -3737.5, -4380.75)" gradientUnits="userSpaceOnUse"><stop offset="0.16" stop-color="#1173be" stop-opacity="0.9"/><stop offset="1" stop-color="#17a8e2" stop-opacity="0.8"/></linearGradient><linearGradient id="linear-gradient-3" x1="2422.62" y1="5493.82" x2="2450.91" y2="5493.82" gradientTransform="matrix(-0.89, 0.38, 0.12, 0.88, 1625.49, -5774.26)" xlink:href="#linear-gradient"/><linearGradient id="linear-gradient-4" x1="4099.63" y1="-4763.31" x2="4139.51" y2="-4763.31" gradientTransform="matrix(-0.82, 0.63, -0.38, -0.73, 1648.79, -6023.84)" xlink:href="#linear-gradient-2"/></defs><g class="cls-1"><g id="Capa_2" data-name="Capa 2"><g id="Capa_1-2" data-name="Capa 1"><path class="cls-2" d="M22.87,18.11c-1.86,10.3-4.1,20.66-4.62,30.72C27.8,47.66,36.79,46.35,45.13,45a62.11,62.11,0,0,1,2.66-19.29A179.18,179.18,0,0,1,22.87,18.11Z"/><path class="cls-3" d="M27.65,63a65,65,0,0,1,3.87-21.49c5.09.92,10.16,1.67,15.18,2.3a44.43,44.43,0,0,0,3,14.61C42.91,60,35.55,61.52,27.65,63Z"/><path class="cls-4" d="M109.12,0c1.89,8.29,4.11,16.43,4.77,25.25-8.66,4.23-16.82,8-24.4,11.39a43.24,43.24,0,0,0-2.78-16C94.29,14.25,101.88,7.33,109.12,0Z"/><path class="cls-5" d="M100.14,43.39a42.18,42.18,0,0,0-3.91-17.31q-6.89,5.46-13.7,10.49A55.28,55.28,0,0,1,80,51.49C86.27,49.08,93,46.41,100.14,43.39Z"/><path class="cls-6" d="M103.43,60.4,67.64,63.64a200.51,200.51,0,0,1-38.81-.25L0,60.4V54l30.64,3.07a200.75,200.75,0,0,0,38.68.12L103.43,54Z"/><path class="cls-7" d="M73.24,2.6c-1.17,1,2,4.44.35,7.47a12.9,12.9,0,0,1-2.82,3.56,7.77,7.77,0,0,1-4.56,2.21c-1.46-.06,3.62-8.89.21-9.64L61.25,5.13a1.06,1.06,0,0,0-.94.22,1,1,0,0,0-.36.59L57.15,18.8s-3,2.69-2,4.93l-.23.2c-.64.57-2.32,2.32-1.51,4.22,0,0-5,8.73-8.57,14.53-3.3,5.41-12.92,8.67-9.56,12.48s15.3,4.66,20.12.4S83.72,29.22,87,26c.68-.67,1.36-1.27,2-1.83l2.45-2.16C94,19.78,95,18.32,92.46,15.34,88.71,10.94,83.32,3.76,76.3,2.51c-1.76-.33-2.69-.24-3.06.09Z"/></g></g></g></svg>