<svg xmlns="http://www.w3.org/2000/svg" xmlns:xlink="http://www.w3.org/1999/xlink" viewBox="0 0 103.99 69.01"><defs><style>.cls-1{isolation:isolate;}.cls-2{fill:url(#linear-gradient);}.cls-3{fill:url(#linear-gradient-2);}.cls-4,.cls-5{fill:#003165;}.cls-4{fill-rule:evenodd;}.cls-6{mix-blend-mode:multiply;fill:url(#linear-gradient-3);}</style><linearGradient id="linear-gradient" x1="1365.71" y1="-976.49" x2="1864.97" y2="-976.49" gradientTransform="matrix(0.71, 0.32, 0.41, -0.91, -711.05, -1355.48)" gradientUnits="userSpaceOnUse"><stop offset="0.16" stop-color="#e88400"/><stop offset="0.34" stop-color="#eb9100"/><stop offset="0.67" stop-color="#f4b400"/><stop offset="1" stop-color="#fedb00"/></linearGradient><linearGradient id="linear-gradient-2" x1="1239.43" y1="-986.38" x2="1298.9" y2="-986.38" gradientTransform="matrix(0.91, 0.41, 0.41, -0.91, -720.35, -1359.84)" xlink:href="#linear-gradient"/><linearGradient id="linear-gradient-3" x1="823.04" y1="1034.06" x2="865.23" y2="1034.06" gradientTransform="translate(-690.13 -1103.66) rotate(6.92)" gradientUnits="userSpaceOnUse"><stop offset="0.16" stop-color="#1173be" stop-opacity="0.9"/><stop offset="1" stop-color="#17a8e2" stop-opacity="0.8"/></linearGradient></defs><g class="cls-1"><g id="Capa_2" data-name="Capa 2"><g id="Capa_1-2" data-name="Capa 1"><path class="cls-2" d="M43.18,65.92Q62.89,67.77,80.31,69q-3.94-6.51-7-12.74Q55.49,53,35.87,49A152.57,152.57,0,0,0,43.18,65.92Z"/><path class="cls-3" d="M5.48,64.3a79.49,79.49,0,0,1,6.16-29.76c7.64,3.61,15.26,7,22.79,10.15A75.77,75.77,0,0,0,38.8,67.47C28.48,66.66,17.39,65.63,5.48,64.3Z"/><path class="cls-4" d="M89,28.89c-1.56,0-1.53,4.64-4.83,5.71a12.52,12.52,0,0,1-4.49.69,7.79,7.79,0,0,1-4.84-1.48c-1-1,8.7-4.05,6.71-6.92l-3-4.3a1.07,1.07,0,0,0-.85-.48,1,1,0,0,0-.65.18L66.2,29.81s-4.07-.1-4.84,2.24h-.3c-.85,0-3.27.12-4,2.06,0,0-10.1,1.75-16.17,4.81S25.7,41.54,25.57,46.62s7.87,8.75,14.31,8.92,38.68,0,43.21-.14c1,0,1.86,0,2.72,0l3.26.08c3.42.09,5.19-.26,5.34-4.18.25-5.78,1.19-14.71-3.09-20.41-1.07-1.43-1.81-2-2.31-2Z"/><rect class="cls-5" x="17.18" y="55.13" width="86.8" height="5.15"/><path class="cls-6" d="M7.44,0C4.46,14.26.93,28.44,0,43c14.38,2.56,27.92,4.65,40.5,6.34a78.25,78.25,0,0,1,4.3-27.08A372.07,372.07,0,0,1,7.44,0Z"/></g></g></g></svg>