<svg xmlns="http://www.w3.org/2000/svg" xmlns:xlink="http://www.w3.org/1999/xlink" viewBox="0 0 143.55 83.91"><defs><style>.cls-1{isolation:isolate;}.cls-2,.cls-5{opacity:0.8;}.cls-2{fill:url(#linear-gradient);}.cls-3{mix-blend-mode:multiply;fill:url(#linear-gradient-2);}.cls-4{fill:#003165;}.cls-5{fill:url(#linear-gradient-3);}</style><linearGradient id="linear-gradient" x1="1200.49" y1="-250.58" x2="1699.75" y2="-250.58" gradientTransform="matrix(0.71, 0.32, 0.41, -0.91, -890.3, -632.83)" gradientUnits="userSpaceOnUse"><stop offset="0.16" stop-color="#82bc3f" stop-opacity="0.8"/><stop offset="0.19" stop-color="#78b83f" stop-opacity="0.81"/><stop offset="0.34" stop-color="#4da741" stop-opacity="0.84"/><stop offset="0.5" stop-color="#2b9943" stop-opacity="0.87"/><stop offset="0.66" stop-color="#139044" stop-opacity="0.89"/><stop offset="0.83" stop-color="#058a45" stop-opacity="0.9"/><stop offset="1" stop-color="#008845" stop-opacity="0.9"/></linearGradient><linearGradient id="linear-gradient-2" x1="780.26" y1="1034.73" x2="822.45" y2="1034.73" gradientTransform="translate(-647.58 -1087.88) rotate(6.92)" gradientUnits="userSpaceOnUse"><stop offset="0.16" stop-color="#1173be" stop-opacity="0.9"/><stop offset="1" stop-color="#17a8e2" stop-opacity="0.8"/></linearGradient><linearGradient id="linear-gradient-3" x1="1096.13" y1="-263.95" x2="1155.6" y2="-263.95" gradientTransform="matrix(0.91, 0.41, 0.41, -0.91, -877.47, -627.24)" xlink:href="#linear-gradient"/></defs><g class="cls-1"><g id="Capa_2" data-name="Capa 2"><g id="Capa_1-2" data-name="Capa 1"><path class="cls-2" d="M44.39,73.8q19.71,1.83,37.13,3.09c-2.63-4.34-4.94-8.59-7-12.75Q56.7,60.89,37.08,56.92A152.57,152.57,0,0,0,44.39,73.8Z"/><path class="cls-3" d="M7.44,11.29C4.46,25.55.93,39.74,0,54.25c14.38,2.56,27.92,4.65,40.5,6.34a78.25,78.25,0,0,1,4.3-27.08A372.07,372.07,0,0,1,7.44,11.29Z"/><path class="cls-4" d="M143.52,35.65a8.68,8.68,0,0,0-1-2.69c-1.26-2.57-2.59-4.47-3.92-7-.45-.86-.71-1.75-1.07-2.58a15.94,15.94,0,0,0-2.29-3.14c-.56-.72-1-1.43-1.57-2.13s-.83-1.29-1.52-1.51c-.51-.16-.84.06-1.4.17s-1,0-1.29.28a4.22,4.22,0,0,0-.28,1.9c.08.23,0,.64.06.84a3.6,3.6,0,0,0,.34.62A2.47,2.47,0,0,0,130,21c.21.12.5.06.73.16a6.93,6.93,0,0,1,1.17.9c.19.15.36.37.56.51a4.59,4.59,0,0,1,.68.38c.34.35.56.95,1,1.3a3.31,3.31,0,0,0,.95.5c.44,1.76,1.16,3.24,1.46,5.15-.38-.42-.87-.56-1.29-.95a14.19,14.19,0,0,1-1.29-1.68,12.1,12.1,0,0,0-3.81-3.76c-.41-.21-.81-.31-.95-.56a7.25,7.25,0,0,1-.28-1.34c-.12-.49-.28-1-.34-1.34a14.51,14.51,0,0,0-.17-1.46c-.2-.89-.5-1.72-.72-2.52-.13-.47-.14-1-.29-1.4-.07-.25-.26-.43-.33-.67s-.15-.79-.23-1.18c-.13-.74,0-1.45-.16-2.24a1.72,1.72,0,0,0-.16-.43c0-.12,0-.24,0-.35a2.19,2.19,0,0,1,.18-.94l0-.1a5.52,5.52,0,0,0,.28-.54,6,6,0,0,0,.39-1.56,6.28,6.28,0,0,0-.26-2.48.56.56,0,0,0,.22-.21.75.75,0,0,1-.25.13,4.3,4.3,0,0,0-1.14-1.76h0a4.09,4.09,0,0,0-.66-.5,1.1,1.1,0,0,0-.14-.18.36.36,0,0,1-.09-.24.48.48,0,0,0,.11-.09.47.47,0,0,1-.25.07.28.28,0,0,1-.13-.09.57.57,0,0,0-.27-.16,1.88,1.88,0,0,0-.14-.24.44.44,0,0,0,.13-.14.5.5,0,0,1-.19.1h0a1.85,1.85,0,0,1-.47,0c-.06-.05,0-.17-.14-.18a.48.48,0,0,1-.34-.13,1.15,1.15,0,0,0-.8-.06,3.17,3.17,0,0,1-1-.1c-.09,0-.07.12-.17.1a3.94,3.94,0,0,1-.47-.1.66.66,0,0,0-.44.06L120,.62A1.67,1.67,0,0,1,118.9,0a1.36,1.36,0,0,0,.54.73A2.85,2.85,0,0,1,119,.6c0,.1,0,.18-.08.18a1,1,0,0,1-.52-.37.93.93,0,0,0,.49.57h0a4.25,4.25,0,0,1-.71-.14,3.31,3.31,0,0,0,.75.38s-.1.08-.11.11a1.48,1.48,0,0,1,.37,0l.12.05a.16.16,0,0,1,.07.11l-.17.07-.13-.05a2.21,2.21,0,0,0-1.13,0,1,1,0,0,1-.89-.39,1.35,1.35,0,0,0,.33.46l.11.08a.15.15,0,0,0-.07.05c.08.05,1.07.26.45.38a3.08,3.08,0,0,1-1.21,0v0a1.31,1.31,0,0,1-.47-.2,1.23,1.23,0,0,0,.71.46,1.1,1.1,0,0,0,.26.06,1,1,0,0,1-.38.07,1.72,1.72,0,0,0-1.21-.19,2.74,2.74,0,0,1,1.21.5,2,2,0,0,0-.39.13,2.45,2.45,0,0,0-.68.52l-.26.27c-.12.11-.17.18-.26.27a1.53,1.53,0,0,1-.58.36.77.77,0,0,1-.68-.12.82.82,0,0,0,.71.36,1.36,1.36,0,0,0,.35-.07c-.11.1-.2.2-.31.29a1,1,0,0,1-.63.31,1,1,0,0,0,.75-.12,3.58,3.58,0,0,0,.39-.21l.18,0a.71.71,0,0,1,.12-.13l.23-.1h0l-.44.4a.52.52,0,0,0-.11.1,1.42,1.42,0,0,1-.59.29,1.22,1.22,0,0,1-.69-.15,1.13,1.13,0,0,0,.68.38,1.35,1.35,0,0,0,.81-.18.41.41,0,0,0,.11-.07,1,1,0,0,1-.14.23.81.81,0,0,1-.36.22,2.62,2.62,0,0,1-1,0,1.94,1.94,0,0,0,1,.26.94.94,0,0,0,.47-.18h.07a3.83,3.83,0,0,1-.73.72,1.85,1.85,0,0,0,.79-.46s0,0,0,.08l-.07.08c-.21.28-.39.57-.6.85a6.75,6.75,0,0,0,.59-.47c0,.07,0,.14,0,.2a.89.89,0,0,1-.31.19.75.75,0,0,0,.29-.06l0,.16-.1,0h.09a.83.83,0,0,1,0,.15c0,.2-.24.41-.28.62-.07.43.22.75-.28,1,.15.13.34.1.45.28,0,0,0,.23,0,.28.11.36.23,1.32,0,1.51s-.87,0-1.18.11A5.46,5.46,0,0,0,112,12.28c-.77.66-1.21,1.61-2,1.85-.23.08-.59,0-.89.12s-.72.48-.9.5-.34-.12-.5-.17a16.11,16.11,0,0,0-3.14-.67c-.51-.05-1-.13-1.51-.22a43.11,43.11,0,0,1-5.83-1.24,12.56,12.56,0,0,0-2.69-.84c-.66,0-1.33.05-2,0s-1.24-.24-1.85-.33a9.56,9.56,0,0,0-2-.23c-.84,0-1,.62-1.39,1.23a3,3,0,0,0-.62,1.35c0,.19.13.3.22.56s.06.41.17.56a3.35,3.35,0,0,0,1.68.84c.44,0,.69-.57,1.12-.73.14,0,1.13-.22,1.12-.22a4.49,4.49,0,0,1,.62.17,6.24,6.24,0,0,0,1.85.11c.53-.07,1-.57,1.34-.56s.85.42,1.23.61c3,1.54,5.56,3,8.58,4.38-.8,1.27-.87,2.52-1.57,3.69-1.07,1.78-3.33,2.52-5,3.75a25.7,25.7,0,0,0-2.35,2,11.7,11.7,0,0,0-2,2.41A13.16,13.16,0,0,0,93,33.35c-.1.29-.43.68-.39,1.06s.46.48.67.84c-.4.42-.55,1.08-1.12,1.46a11.43,11.43,0,0,1-1.4.67,9.62,9.62,0,0,1-1.57.51,46.44,46.44,0,0,0-6,2.24,21.22,21.22,0,0,1-2.18.95c-.29.09-.6.07-.9.17-.71.25-.92.51-.84,1.29,0,.22.13.63.11.67l-.61.45c-.67.43-1.58.87-2.13,1.17-2.07,1.16-3.25,2.45-5.32,3.42a8,8,0,0,0-2.69,1.68,4.61,4.61,0,0,0-1,2.19c-.06.3,0,.61-.11,1a5.12,5.12,0,0,0-.28.84A4.65,4.65,0,0,0,68.06,57c.71,1.13,1.85,1.91,2.63,3.08-1.81,1.3-4.22,2.11-5.94,3.37-.93.68-1.75,1.41-2.63,2.12a33.11,33.11,0,0,1-8.18,4.49c-1,.42-2.3.79-3.53,1.17a6.39,6.39,0,0,1-1.23.39c-.2,0-.37-.25-.51-.33a1.61,1.61,0,0,0-.61-.28,15.36,15.36,0,0,0-2.81.5A7.35,7.35,0,0,1,43,71.33c-.55-.08-1.12-.12-1.68-.16-1.65-.15-3.49-.54-4.65,0-.55.28-.58.72-1,1.29-.2.32-.45.46-.5.67s0,.64-.06.9-.25.52-.28.78c-.12,1.22.67,1.64,1.18,2.36.38.54.56,1.09.89,1.29s.54.1.79.22.59.63.89.84.6.22.9.39a2.11,2.11,0,0,0,.9.39A7,7,0,0,0,42,80a8,8,0,0,1,1.74-.17c1.16,0,2.28.48,3.31.56a5.19,5.19,0,0,0,4.65-1.85c.17-.21.24-.58.5-.78s.5-.13.67-.28.22-.51.45-.73a5.3,5.3,0,0,1,1.35-.62c1.4-.61,3-1.22,4.31-1.68,2.05-.75,4-1.37,6-2a29.68,29.68,0,0,0,5.71-2.29A17,17,0,0,0,73,68.48a19.84,19.84,0,0,1,2.18-1.85,70.86,70.86,0,0,1,6.11,9.8c-.46,0-.84.58-1.35.73-.31.09-.66,0-1,.11-.7.13-1.48.51-2.24.73a6.89,6.89,0,0,0-2.08.9,2,2,0,0,0-.84,1.18c-.12,1,.51,1.38,1,1.9-.07.52.32.57.62.78s.31.36.45.39.53-.11.84-.05.66.43,1,.45.5-.19.73-.17.47.25.73.28c.64.08,1.08-.37,1.57-.34.21,0,.16.08.33.17a1.47,1.47,0,0,0,1.18,0,4.31,4.31,0,0,1,.61-.28,8.64,8.64,0,0,1,2,0c.25.08.27.29.44.39.41.24.64-.16.79-.22.41-.16.48.17.61.28a1.88,1.88,0,0,0,2-.06c.21-.2.2-.52.39-.78a3.57,3.57,0,0,1,.39-.39,2.36,2.36,0,0,1,1.06-.73c0-.23-.26-.4-.28-.62a2.79,2.79,0,0,1,.12-.39,2.45,2.45,0,0,0,0-1,10.7,10.7,0,0,0-1.07-2.58,7.3,7.3,0,0,1-.56-1c-.06-.25,0-.49,0-.68s-.49-.29-.68-.5-.25-.54-.39-.78a92.14,92.14,0,0,1-5.66-12.33c2-1.12,4.21-2.36,6.44-3.36a4.23,4.23,0,0,1,1-.39c.16,0,.57.66.73.89.29.42.43.85.79.9.59.09,1.31-.67,1.79-1,.89-.52,1.86-.88,2.8-1.35A30.17,30.17,0,0,0,98,56c1.65-1,3.29-2.26,5.1-3.19.27-.14.53-.2.78-.34a7.8,7.8,0,0,0,.9-.67,6.93,6.93,0,0,0,2-2.19,24.24,24.24,0,0,0,1.85-4.87,10.28,10.28,0,0,1,.28-1.07c.15-.19.53-.17.67-.39s.09-.67.17-1.12c.05-.29.26-.76.39-1.23s.13-1,.34-1.29.76-.23,1.23-.39a11.6,11.6,0,0,0,1.57-.9c.53-.3,1.08-.61,1.57-1,1-.69,1.94-1.48,2.91-2.13s2-1.19,3.08-1.9c.42-.29.93-.72,1.46-1.07a6.19,6.19,0,0,1,1.57-1,2.71,2.71,0,0,1,2,.56c.35.19.7.47,1,.67.74.47,1.51.9,2.07,1.35s1.17.94,1.85,1.51c.51.42,1.38,1.41,2,1.45s.6-.29.9-.27.47.3.73.44c.83.47,1.65.9,2.29,1.29a9.18,9.18,0,0,0,3.2,1.57,5.87,5.87,0,0,0,1.85-.11c.78-.1,1.24-.19,1.51-.73A10.53,10.53,0,0,0,143.52,35.65ZM77.58,55.59a11,11,0,0,0-2.8-2c.43-.37,1.18-.23,2-.27,1.56-.1,2.86-.82,4.65-.62A26.08,26.08,0,0,0,77.58,55.59ZM117.23,2.78l0,0-.08.08Z"/><path class="cls-5" d="M13.91,79.25a79.74,79.74,0,0,1,6.16-29.77c7.64,3.62,15.26,7,22.79,10.16a75.71,75.71,0,0,0,4.37,22.77C36.92,81.6,25.82,80.58,13.91,79.25Z"/><circle class="cls-4" cx="22.14" cy="74.18" r="8.23"/></g></g></g></svg>