<svg xmlns="http://www.w3.org/2000/svg" xmlns:xlink="http://www.w3.org/1999/xlink" viewBox="0 0 83.13 83.62"><defs><style>.cls-1{isolation:isolate;}.cls-2{opacity:0.8;fill:url(#linear-gradient);}.cls-3,.cls-4{mix-blend-mode:multiply;}.cls-3{fill:url(#linear-gradient-2);}.cls-4{fill:url(#linear-gradient-3);}.cls-5{fill:#003165;}</style><linearGradient id="linear-gradient" x1="2972.83" y1="-1511.03" x2="2999.55" y2="-1511.03" gradientTransform="matrix(0.83, 0.57, -0.57, 0.83, -3293.77, -422.08)" gradientUnits="userSpaceOnUse"><stop offset="0.16" stop-color="#82bc3f" stop-opacity="0.8"/><stop offset="0.19" stop-color="#78b83f" stop-opacity="0.81"/><stop offset="0.34" stop-color="#4da741" stop-opacity="0.84"/><stop offset="0.5" stop-color="#2b9943" stop-opacity="0.87"/><stop offset="0.66" stop-color="#139044" stop-opacity="0.89"/><stop offset="0.83" stop-color="#058a45" stop-opacity="0.9"/><stop offset="1" stop-color="#008845" stop-opacity="0.9"/></linearGradient><linearGradient id="linear-gradient-2" x1="2398" y1="2972.28" x2="2437.89" y2="2972.28" gradientTransform="matrix(0.6, 0.8, 0.8, -0.6, -3803.19, -116.07)" gradientUnits="userSpaceOnUse"><stop offset="0.16" stop-color="#1173be" stop-opacity="0.9"/><stop offset="1" stop-color="#17a8e2" stop-opacity="0.8"/></linearGradient><linearGradient id="linear-gradient-3" x1="544.42" y1="3448.45" x2="584.31" y2="3448.45" gradientTransform="matrix(-0.96, -0.28, 0.28, -0.96, -381.24, 3536.74)" xlink:href="#linear-gradient-2"/></defs><g class="cls-1"><g id="Capa_2" data-name="Capa 2"><g id="Capa_1-2" data-name="Capa 1"><path class="cls-2" d="M22.12,0c-5.84,7.14-12,14.08-16.74,22,7.33,5.64,14.33,10.77,20.9,15.4a49.8,49.8,0,0,1,10.34-14A233.57,233.57,0,0,1,22.12,0Z"/><path class="cls-3" d="M7.68,37.79A53.32,53.32,0,0,1,21,22.35C24.29,27,27.66,31.41,31,35.72A50.53,50.53,0,0,0,26.19,50.5C20.4,46.66,14.23,42.45,7.68,37.79Z"/><path class="cls-4" d="M65.84,83.62a53.55,53.55,0,0,0,9.87-17.84c-5.46-1.5-10.82-3.11-16-4.79A50.92,50.92,0,0,1,47.5,70.67C53.11,74.76,59.2,79.09,65.84,83.62Z"/><path class="cls-5" d="M46.28,29.29l-5.14-7.06L36,29.29C23.6,46.3,21.48,58,29.69,64.15,34.18,67.5,40,67.67,41.1,67.67h.06c1.12,0,6.94-.17,11.43-3.52C60.81,58,58.69,46.3,46.28,29.29ZM34.64,62.74c-4.64-1.67-6.44-6.23-6-10.43.15-1.41,2.65-1.42,2.5,0-.32,3.07.61,7,4.16,8.3A1.12,1.12,0,1,1,34.64,62.74Z"/><path class="cls-5" d="M83.13,46.28c0-4.29-2.41-8.71-7.79-8.91H66.65a.46.46,0,0,0-.45.46v4.34a.44.44,0,0,0,.45.45c1.32,0,5.8,0,6.66.08,2,.25,4.39,1.07,4.39,3.59s-2.19,3.24-4,3.53a39.8,39.8,0,0,1-4,.14h-.84a.32.32,0,0,1-.24-.14.26.26,0,0,1,0-.27l1-2a.45.45,0,0,0-.16-.59l-1.1-.69a.47.47,0,0,0-.61.13l-4.08,6a.47.47,0,0,0,0,.51l4.08,6a.43.43,0,0,0,.37.2.42.42,0,0,0,.24-.07l1.1-.69a.45.45,0,0,0,.16-.59l-1-2a.29.29,0,0,1,0-.27.27.27,0,0,1,.24-.14h5.69A8.93,8.93,0,0,0,83.13,46.28Z"/><path class="cls-5" d="M0,49.19c0,4.28,2.41,8.7,7.79,8.91h8.68a.46.46,0,0,0,.46-.45V53.3a.45.45,0,0,0-.14-.32.46.46,0,0,0-.32-.13c-1.32,0-5.79,0-6.65-.08-2-.25-4.39-1.07-4.39-3.58s2.19-3.25,4-3.54a39.7,39.7,0,0,1,4-.14h.85a.28.28,0,0,1,.24.13.31.31,0,0,1,0,.28l-1,2a.47.47,0,0,0,.16.59l1.1.69a.46.46,0,0,0,.62-.13l4.07-6a.42.42,0,0,0,0-.5l-4.07-6a.45.45,0,0,0-.37-.2.48.48,0,0,0-.24.07l-1.11.69a.47.47,0,0,0-.16.59l1,2a.24.24,0,0,1,0,.27.27.27,0,0,1-.23.14H8.65A8.91,8.91,0,0,0,0,49.19Z"/></g></g></g></svg>