<svg xmlns="http://www.w3.org/2000/svg" xmlns:xlink="http://www.w3.org/1999/xlink" viewBox="0 0 78.33 90.6"><defs><style>.cls-1{isolation:isolate;}.cls-2,.cls-3{mix-blend-mode:multiply;}.cls-2{fill:url(#linear-gradient);}.cls-3{fill:url(#linear-gradient-2);}.cls-4{fill:#003165;}.cls-5{opacity:0.8;fill:url(#linear-gradient-3);}</style><linearGradient id="linear-gradient" x1="2709.49" y1="-845.16" x2="2849.13" y2="-845.16" gradientTransform="matrix(0.67, 0.74, 0.74, -0.67, -1190.09, -2536.07)" gradientUnits="userSpaceOnUse"><stop offset="0.16" stop-color="#1173be" stop-opacity="0.9"/><stop offset="1" stop-color="#17a8e2" stop-opacity="0.8"/></linearGradient><linearGradient id="linear-gradient-2" x1="-3449.31" y1="373.25" x2="-2950.04" y2="373.25" gradientTransform="matrix(0.77, -0.12, -0.16, -0.99, 2546.41, 53.59)" xlink:href="#linear-gradient"/><linearGradient id="linear-gradient-3" x1="4911.08" y1="1795.24" x2="4970.55" y2="1795.24" gradientTransform="matrix(0.44, 0.9, 0.9, -0.44, -3759.72, -3599.32)" gradientUnits="userSpaceOnUse"><stop offset="0.16" stop-color="#82bc3f" stop-opacity="0.8"/><stop offset="0.19" stop-color="#78b83f" stop-opacity="0.81"/><stop offset="0.34" stop-color="#4da741" stop-opacity="0.84"/><stop offset="0.5" stop-color="#2b9943" stop-opacity="0.87"/><stop offset="0.66" stop-color="#139044" stop-opacity="0.89"/><stop offset="0.83" stop-color="#058a45" stop-opacity="0.9"/><stop offset="1" stop-color="#008845" stop-opacity="0.9"/></linearGradient></defs><g class="cls-1"><g id="Capa_2" data-name="Capa 2"><g id="Capa_1-2" data-name="Capa 1"><path class="cls-2" d="M1.62,76.72c10.84-.53,20.47-1.23,29.2-2a86.4,86.4,0,0,1,.75-22.62Q19,44.16,4.94,34.6C1.19,45.92-.45,59.83,1.62,76.72Z"/><path class="cls-3" d="M45.6,88.08C64.84,83.21,72.85,79,78.33,70.25L65.49,63.44C55.31,72.09,51.05,75.13,30.23,78,36,77.2,40,84.85,45.6,88.08Z"/><path class="cls-4" d="M31.07,89.24c.45-.36-.38-.64-.38-.64-.45-2.2.86-7.21.86-7.21a21.31,21.31,0,0,1,1.89-4.33c.57-1.19.38-1.21.38-1.21a47.66,47.66,0,0,0,.86-5.64l0-.1c.54.46,3.17-2,4-3a6,6,0,0,0,1-1.5c-.22,1,.16,1,.16,1a.88.88,0,0,0,.31.75c-.35,2.34.74,2.07.74,2.07a.65.65,0,0,0,.39.53A3.27,3.27,0,0,0,44.06,74c1.36.19,3.51-2,3.51-2,1.25,0,3.51-5.06,3.51-5.06,2.77-2.2,3.4-9.36,3.42-9.6s2.6-4.49,3.3-6.54A6.1,6.1,0,0,0,58,47.21a1.88,1.88,0,0,1-.09-1.6,17.76,17.76,0,0,1,1.21-3.13,7.88,7.88,0,0,0,.39-2.34c.42.14.21-1.24.21-1.24.6.21.41-.81.41-.81a1.25,1.25,0,0,0,.93-1.32,11.67,11.67,0,0,1,1-2.15,11.81,11.81,0,0,0,1.34-4.8c0-2.22.31-1.05.31-1.05A4.7,4.7,0,0,0,64,29.85a3.26,3.26,0,0,1,.6,1.57l.34-.07c0,1.48,2.1,4.83,2.36,5.71s-.69,3.89-.67,6.11a31.69,31.69,0,0,1-.48,4.95c0,.36-.86,2.17-1.17,3.32a8.67,8.67,0,0,0-.33,1.81c-.22,1.77.21,1.7.21,1.7-.14,2.08,1.32,1.22,1.32,1.22.6,1.88,1.34-.17,1.34-.17.59.41,1.24-.29,1.24-.29,0,.93.55.91.83.7s.15-2.73.15-2.73c.07-1.19-.39-1.57-.39-1.57-.69-.36-.16-2.68-.16-2.68A3.69,3.69,0,0,1,70,47.52c2.17-2.12,1.86-6,1.86-6a30.71,30.71,0,0,0-1.1-11.15c-.12-.26-.41-1.31-.41-1.31a4.94,4.94,0,0,0-.86-2.46A12.14,12.14,0,0,1,68.73,24a5.74,5.74,0,0,0-.45-1.55,13.84,13.84,0,0,1-.86-2.08c-.17-.69-1.07-1.14-2.82-2.48a18.77,18.77,0,0,0-3.91-2.51c-1.25-.57-.94-1.24-.94-1.24,1.25-1.27,1.48-4.06,1.48-4.06.18.33.09-3,.08-3.58v0c0,.16,0,.38.26-1.39.26-2.22-.48-2.7-1.17-4A1.23,1.23,0,0,0,58.61.38C57.1-.41,53,.28,53,.28,50.39.64,50,6.47,50,8.71a4.68,4.68,0,0,0,1.91,3.58,4.73,4.73,0,0,1-.17,1.13c-.14.43-.83.62-.83.62a14,14,0,0,0-5.23,1.48c-.55.28-1.46.67-2.1.95a4.49,4.49,0,0,0-1.32,1.17A6.66,6.66,0,0,0,40,21.85a7.57,7.57,0,0,0-.65,1.6,6.1,6.1,0,0,1-1.24,2.1,5.11,5.11,0,0,0-.86,1.79,4.33,4.33,0,0,0-1.41,2.1,8.45,8.45,0,0,0,.46,4.42c.4.88,1.26.79,1.88.79s2.2-1.27,2.72-1.77a2.35,2.35,0,0,0,.41-1.65,6,6,0,0,0,.91-1.91c.21.58,1.34,1.27,1.34,1.27a7.56,7.56,0,0,1-.67,3.51c-.05.12-.41.09-.41.09l-.17,1.51-.26.17A3.06,3.06,0,0,1,41.39,38a2.21,2.21,0,0,1-.65.55c-.86-.79-.57-.1-1.79,1.38a6.62,6.62,0,0,0-1.43,3c-2.13.62-4.25,5.68-4.44,6.44s1.14,1.94,1.14,1.94-.12.4-1,2.65A29.21,29.21,0,0,0,32,60.2a10.53,10.53,0,0,1-1,3.25,39.26,39.26,0,0,1-2.08,4.85,15.57,15.57,0,0,0-1.14,5.63c0,1-.51,2.78-.67,6.64a48.62,48.62,0,0,1-.36,5,5.19,5.19,0,0,0-.84,2,11.36,11.36,0,0,1-2.43,2.32C21.76,91.7,30.62,89.6,31.07,89.24ZM44,55.71s0,5.93-1.1,6.64c0,0-1.15-1.14-1.1-1.62A7.74,7.74,0,0,0,41.79,58Z"/><path class="cls-5" d="M0,36.17a79.47,79.47,0,0,1,23.76-19c3.57,7.66,7.27,15.13,11,22.37A75.88,75.88,0,0,0,23.6,59.9C16.19,52.69,8.31,44.81,0,36.17Z"/></g></g></g></svg>