<svg xmlns="http://www.w3.org/2000/svg" xmlns:xlink="http://www.w3.org/1999/xlink" viewBox="0 0 113.01 75.15"><defs><style>.cls-1{isolation:isolate;}.cls-2,.cls-5{mix-blend-mode:screen;opacity:0.4;}.cls-2{fill:url(#linear-gradient);}.cls-3{mix-blend-mode:multiply;fill:url(#linear-gradient-2);}.cls-4{fill:none;stroke:#003165;stroke-linecap:round;stroke-linejoin:round;stroke-width:1.6px;fill-rule:evenodd;}.cls-5{fill:url(#linear-gradient-3);}.cls-6{fill:#003165;}</style><linearGradient id="linear-gradient" x1="1002.52" y1="179.8" x2="1501.79" y2="179.8" gradientTransform="matrix(0.71, 0.32, 0.41, -0.91, -926.35, -185.48)" gradientUnits="userSpaceOnUse"><stop offset="0.16" stop-color="#1173be" stop-opacity="0.9"/><stop offset="1" stop-color="#17a8e2" stop-opacity="0.8"/></linearGradient><linearGradient id="linear-gradient-2" x1="747.62" y1="1060.99" x2="789.8" y2="1060.99" gradientTransform="translate(-612.01 -1118.34) rotate(6.92)" gradientUnits="userSpaceOnUse"><stop offset="0.16" stop-color="#e98500"/><stop offset="0.34" stop-color="#ec9200"/><stop offset="0.68" stop-color="#f5b500"/><stop offset="1" stop-color="#fedb00"/></linearGradient><linearGradient id="linear-gradient-3" x1="1002.04" y1="166.44" x2="1061.51" y2="166.44" gradientTransform="matrix(0.91, 0.41, 0.41, -0.91, -968.14, -204.45)" xlink:href="#linear-gradient"/></defs><g class="cls-1"><g id="Capa_2" data-name="Capa 2"><g id="Capa_1-2" data-name="Capa 1"><path class="cls-2" d="M44.39,65.48q19.71,1.84,37.13,3.09c-2.63-4.34-4.94-8.59-7-12.74-11.9-2.18-24.39-4.56-37.47-7.23A152.57,152.57,0,0,0,44.39,65.48Z"/><path class="cls-3" d="M7.44,3C4.46,17.24.93,31.42,0,45.93c14.38,2.56,27.92,4.65,40.5,6.35a78.3,78.3,0,0,1,4.3-27.09A370.19,370.19,0,0,1,7.44,3Z"/><path class="cls-4" d="M30.57,67.19s7.16,1.3,7.16,7.16"/><path class="cls-4" d="M38.56,68.79s8-.3,8,5.56"/><path class="cls-4" d="M49,69.59s4-1.1,4,4.76"/><path class="cls-4" d="M55.34,69.59s4-1.1,4,4.76"/><path class="cls-4" d="M62.53,67.19s2.37,1.3,2.37,7.16"/><path class="cls-4" d="M70.52,67.19s0,1.3,0,7.16"/><path class="cls-4" d="M78.51,67.19s-3.23,1.3-3.23,7.16"/><path class="cls-4" d="M92.62,69.29s-3.76-.8-3.76,5.06"/><path class="cls-4" d="M85.43,69.29s-3.76-.8-3.76,5.06"/><path class="cls-4" d="M101.4,69.29s-6.15-.8-6.15,5.06"/><path class="cls-4" d="M111.26,67.19s-8,1.3-8,7.16"/><path class="cls-5" d="M13.91,70.93a79.64,79.64,0,0,1,6.16-29.76c7.64,3.61,15.26,7,22.79,10.15a75.71,75.71,0,0,0,4.37,22.77C36.92,73.28,25.82,72.26,13.91,70.93Z"/><g id="YmnNql"><path class="cls-6" d="M95.46,12h.42c.05.21.11.41.16.61,1.57,7.73,6.24,12.8,13.47,15.66a24.52,24.52,0,0,0,3.5.87v.42c0,.18-.07.36-.1.54a15.64,15.64,0,0,1-7.14,10.87,16.37,16.37,0,0,1-6.55,2.37H98.8c-.08-.4-.16-.81-.26-1.22C96.88,35,92.53,30.21,86,27.32a22.66,22.66,0,0,0-4.29-1.16v-.42l.12-.61a15.6,15.6,0,0,1,7.13-10.8A16.7,16.7,0,0,1,95.46,12Z"/><path class="cls-6" d="M113,25.74v1.4a4,4,0,0,1-1.57-.22,19.12,19.12,0,0,1-12.8-11.54A8.8,8.8,0,0,1,97.83,12h1.39l.34.09a15.55,15.55,0,0,1,10.08,5.74A16.13,16.13,0,0,1,113,25.74Z"/><path class="cls-6" d="M96.85,43.29H95.46l-.33-.08a15.49,15.49,0,0,1-10.08-5.74,16.05,16.05,0,0,1-3.38-8v-1.4a3.8,3.8,0,0,1,1.5.22A19.05,19.05,0,0,1,95.49,38.6,11,11,0,0,1,96.85,43.29Z"/></g><path class="cls-4" d="M19.72.8S47.23,9,63.71,57.63c0,0,2.86-10,14.8-18.13"/></g></g></g></svg>