<svg xmlns="http://www.w3.org/2000/svg" xmlns:xlink="http://www.w3.org/1999/xlink" viewBox="0 0 93.43 60.37"><defs><style>.cls-1{isolation:isolate;}.cls-2{fill:#003165;fill-rule:evenodd;}.cls-3,.cls-5{mix-blend-mode:screen;opacity:0.4;}.cls-3{fill:url(#linear-gradient);}.cls-4,.cls-6{mix-blend-mode:multiply;}.cls-4{fill:url(#linear-gradient-2);}.cls-5{fill:url(#linear-gradient-3);}.cls-6{fill:url(#linear-gradient-4);}</style><linearGradient id="linear-gradient" x1="749.38" y1="1048.54" x2="777.67" y2="1048.54" gradientTransform="translate(-616.02 -1116.42) rotate(6.92)" gradientUnits="userSpaceOnUse"><stop offset="0.16" stop-color="#1173be" stop-opacity="0.9"/><stop offset="1" stop-color="#17a8e2" stop-opacity="0.8"/></linearGradient><linearGradient id="linear-gradient-2" x1="1001.29" y1="128.43" x2="1041.18" y2="128.43" gradientTransform="matrix(0.91, 0.41, 0.41, -0.91, -956.48, -258.8)" gradientUnits="userSpaceOnUse"><stop offset="0.16" stop-color="#e98500"/><stop offset="0.34" stop-color="#ec9200"/><stop offset="0.68" stop-color="#f5b500"/><stop offset="1" stop-color="#fedb00"/></linearGradient><linearGradient id="linear-gradient-3" x1="5443.1" y1="480.2" x2="5471.4" y2="480.2" gradientTransform="matrix(-0.99, 0.12, 0.12, 0.99, 5437.46, -1116.42)" xlink:href="#linear-gradient"/><linearGradient id="linear-gradient-4" x1="5314.07" y1="2066.12" x2="5353.96" y2="2066.12" gradientTransform="translate(5777.93 -258.8) rotate(155.79)" xlink:href="#linear-gradient-2"/></defs><g class="cls-1"><g id="Capa_2" data-name="Capa 2"><g id="Capa_1-2" data-name="Capa 1"><path class="cls-2" d="M46.59,8.27A17.12,17.12,0,0,0,35.17,38.16V60.37L46.59,48.94,58,60.37V38.16A17.13,17.13,0,0,0,46.59,8.27ZM44.48,19.54c-.44.05-1,.15-1.73.24v1.78h2.59v7.1a3,3,0,0,1-.1.87l-.28.28a3.63,3.63,0,0,1-.87.05H42.8v1.78h7.86V29.86H49.37a1.5,1.5,0,0,1-.77-.1l-.29-.28a3.66,3.66,0,0,1,0-.82v-10h-.92a7.62,7.62,0,0,1-1.05.39c-.63.19-1.25.33-1.82.47Zm-8.4,4.61a4.51,4.51,0,0,0-.91-5.95,3.88,3.88,0,0,0-.63,3.17,3.88,3.88,0,0,0,1.54,2.78Zm.14,3.74a4.42,4.42,0,0,0-2.68-5.32,3.65,3.65,0,0,0,.38,3.16,3.77,3.77,0,0,0,2.3,2.16Zm1.35,3.46a4.35,4.35,0,0,0-4.27-4.13,4,4,0,0,0,1.39,2.93,3.79,3.79,0,0,0,2.88,1.2Zm2.35,2.83a4.28,4.28,0,0,0-5.33-2.45A3.57,3.57,0,0,0,36.8,34a3.44,3.44,0,0,0,3.12.19Zm-2.69,1.39A3.65,3.65,0,0,0,40,37a3.69,3.69,0,0,0,3-.86,4.17,4.17,0,0,0-5.81-.53Zm9.31,2.21a2.24,2.24,0,0,0-1.39,2.63,1.88,1.88,0,0,0,1.2-1l.19-.62.24.62a1.89,1.89,0,0,0,1.15,1,2.2,2.2,0,0,0-1.39-2.63Zm-5.62.52a3.45,3.45,0,0,0,3.08.34,3.57,3.57,0,0,0,2.54-1.82,3.63,3.63,0,0,0,2.59,1.82,3.43,3.43,0,0,0,3.07-.34,4.16,4.16,0,0,0-5.66-1.48,4.13,4.13,0,0,0-5.62,1.48ZM58.58,21.37A4.07,4.07,0,0,0,58,18.2a4.45,4.45,0,0,0-.91,5.95,3.87,3.87,0,0,0,1.53-2.78Zm-1.73,6.52a3.8,3.8,0,0,0,2.35-2.16,3.68,3.68,0,0,0,.39-3.16,4.51,4.51,0,0,0-2.74,5.32Zm2.93-.67a4.33,4.33,0,0,0-4.22,4.13,3.8,3.8,0,0,0,2.88-1.2,4,4,0,0,0,1.34-2.93ZM56.28,34a3.63,3.63,0,0,0,2.25-2.26,4.27,4.27,0,0,0-5.32,2.45A3.34,3.34,0,0,0,56.28,34Zm-3.17,3a3.72,3.72,0,0,0,2.78-1.39,4.15,4.15,0,0,0-5.8.53,3.58,3.58,0,0,0,3,.86Zm3,18.8-9.5-9.5-9.5,9.5V39.65a15.91,15.91,0,0,0,9.5,2.88,17.33,17.33,0,0,0,9.5-2.88Zm-9.5-15.15A15.21,15.21,0,1,1,61.79,25.4a15.24,15.24,0,0,1-15.2,15.21Z"/><path class="cls-3" d="M5,0C3,9.57.62,19.08,0,28.81c9.64,1.72,18.73,3.12,27.16,4.26A52.65,52.65,0,0,1,30.05,14.9,249.16,249.16,0,0,1,5,0Z"/><path class="cls-4" d="M9.33,45.58a53.34,53.34,0,0,1,4.13-20c5.12,2.42,10.23,4.68,15.29,6.8A50.49,50.49,0,0,0,31.68,47.7C24.76,47.16,17.32,46.47,9.33,45.58Z"/><path class="cls-5" d="M88.45,1.31c2,9.57,4.36,19.08,5,28.81-9.64,1.72-18.72,3.12-27.16,4.26a52.14,52.14,0,0,0-2.89-18.17A249.3,249.3,0,0,0,88.45,1.31Z"/><path class="cls-6" d="M84.1,46.89a53.14,53.14,0,0,0-4.13-20c-5.12,2.42-10.23,4.68-15.29,6.8A50.19,50.19,0,0,1,61.75,49C68.67,48.46,76.11,47.78,84.1,46.89Z"/></g></g></g></svg>