<svg xmlns="http://www.w3.org/2000/svg" xmlns:xlink="http://www.w3.org/1999/xlink" viewBox="0 0 108.32 75.61"><defs><style>.cls-1{isolation:isolate;}.cls-2,.cls-3{mix-blend-mode:screen;opacity:0.4;}.cls-2{fill:url(#linear-gradient);}.cls-3{fill:url(#linear-gradient-2);}.cls-4{mix-blend-mode:multiply;fill:url(#linear-gradient-3);}.cls-5{fill:#003165;}</style><linearGradient id="linear-gradient" x1="2599.8" y1="-614.76" x2="2739.44" y2="-614.76" gradientTransform="matrix(0.67, 0.74, 0.74, -0.67, -1287.75, -2316.49)" gradientUnits="userSpaceOnUse"><stop offset="0.16" stop-color="#1173be" stop-opacity="0.9"/><stop offset="1" stop-color="#17a8e2" stop-opacity="0.8"/></linearGradient><linearGradient id="linear-gradient-2" x1="-3437.03" y1="946.86" x2="-2937.76" y2="946.86" gradientTransform="matrix(0.77, -0.12, -0.16, -0.99, 2655.58, 608.97)" xlink:href="#linear-gradient"/><linearGradient id="linear-gradient-3" x1="4825.41" y1="1916.3" x2="4884.89" y2="1916.3" gradientTransform="matrix(0.44, 0.9, 0.9, -0.44, -3830.84, -3485.36)" gradientUnits="userSpaceOnUse"><stop offset="0.16" stop-color="#e98500"/><stop offset="0.34" stop-color="#ec9200"/><stop offset="0.68" stop-color="#f5b500"/><stop offset="1" stop-color="#fedb00"/></linearGradient></defs><g class="cls-1"><g id="Capa_2" data-name="Capa 2"><g id="Capa_1-2" data-name="Capa 1"><path class="cls-2" d="M1.62,60.54c10.84-.53,20.47-1.23,29.2-2a86.4,86.4,0,0,1,.75-22.62C23.21,30.63,14.32,24.82,4.94,18.42,1.19,29.75-.45,43.66,1.62,60.54Z"/><path class="cls-3" d="M73.2,75.61c19.24-4.87,27.24-9.1,32.72-17.82L93.09,51C82.91,59.63,78.65,62.66,57.82,65.53,63.58,64.74,67.59,72.39,73.2,75.61Z"/><path class="cls-4" d="M0,20A79.31,79.31,0,0,1,23.76,1.05c3.57,7.66,7.27,15.12,11,22.37A75.72,75.72,0,0,0,23.6,43.73C16.19,36.51,8.31,28.63,0,20Z"/><path class="cls-5" d="M106.7,32.15a8.45,8.45,0,0,0-.48-2.61c-.66-1.82-1.71-3-2.15-2.74s-3,2-3.36,2.3a.76.76,0,0,0-.1,1.3A9.85,9.85,0,0,1,97.46,32c-1.7.46-7,2.28-8.42,3.23s-3.83,2.54-3.83,2.54a27.14,27.14,0,0,1-1.48-3.35c-.32-1.1-.86-3.26-1.28-3.5s-.59-2.21-.59-2.21,1.61-3.53.49-5.75-4.23-5.87-7.88-7a3.69,3.69,0,0,0-1.61-1.08,2.5,2.5,0,0,0-1.14.06S68,13.71,66.55,13.27a44.68,44.68,0,0,0-4.71-.91s3.73-1.84,5-3.3A14.43,14.43,0,0,1,71,8c2.93-.4,5.69-2.4,10.22-2.81A6.93,6.93,0,0,0,84.88,6.6c2,0,3.05-.27,3.07-.68s-.36-.54-.89-.48-1.55.11-1.55.11a7.71,7.71,0,0,1,2.39-.69c1.12-.08,2-.53,2-.93s-.42-.44-.89-.41-1.85.07-1.85.07.93-.19,1.88-.45S90.56,2.26,90.47,2s-.37-.41-.75-.3a4.4,4.4,0,0,1-.81.12s.86-.32.83-.62-.32-.51-.91-.39-1.62.36-2.11.45a5.26,5.26,0,0,1,1-.41c.42-.09.42-.27.39-.51S87.54,0,87.05,0s-2.11.25-3,.34c-2,.21-3.08,1.36-4,1.66a36.88,36.88,0,0,1-6.75.79C66.56,3.25,59.46,6.9,59.46,6.9s-.26-.34-1.37.08A31.07,31.07,0,0,0,55,8.44c-.46.25-2,.34-2.34.49a5.78,5.78,0,0,0-1.11,1,3.5,3.5,0,0,0-2.09.68,2.73,2.73,0,0,0-.81,1.86,4.64,4.64,0,0,0-2.47,1.31c-.75,1-1.7,2-2.21,1.89a7.1,7.1,0,0,0-.51-3.58,4.55,4.55,0,0,0-3-2.36,7.83,7.83,0,0,1-2.18-.49A3.38,3.38,0,0,0,35.69,9a7.7,7.7,0,0,0-3.38,3,7.53,7.53,0,0,0-1.17,4.27A2.25,2.25,0,0,0,32.68,18a4.79,4.79,0,0,0,.26,1.08c.15.27.77.81.84,1.52A3.13,3.13,0,0,0,35.23,23c1.17.84,2.82,1.79,3.29,2.51s1,1.22,1.55,1.15a3.7,3.7,0,0,0,.63,2.07,28.33,28.33,0,0,0-1.14,3.76c-.32,1.59-.71,4.27-.71,4.27s-.81,1.32-1.32,2.4A5.15,5.15,0,0,1,36,41.46a23,23,0,0,0-3.46,3.94A40.69,40.69,0,0,0,30,50.09a.49.49,0,0,0-.79.2c-.32.6-1.73,2.6-1.84,2.79S27,54,27,54a2.33,2.33,0,0,1-1.13.12,5.19,5.19,0,0,0-2,.26l-.53-.27.05-.16a3.51,3.51,0,0,1-.6-1.56c-.4-3.22-1.17-6.61-2.93-9C13.69,34.81,2.76,46.68,9.36,53a8.14,8.14,0,0,0,2.8,1.75C16,56.26,19.23,55.57,21,56a8.21,8.21,0,0,1,.89.27c-.18.64,0,1.44.38,1.53a1.84,1.84,0,0,0,.88-.09s-.15,1.37.82,1.11c0,0,.07.33.61.29,0,0-.1.72.77.67,0,0,.28.52,1.2,0l.46-.3.13.11-.12.14.82.7,1.47-1.74-.53-.45a2,2,0,0,0,.51-1.46.71.71,0,0,0,.85-.22c.41-.45,2.21-2.2,2.45-2.39a1,1,0,0,0,.28-1L36.37,50a44.31,44.31,0,0,0,4.94-6.79c.77-1.29,2.32-4.14,2.91-4.92a20.19,20.19,0,0,0,1.45-2.79s1.72-2.79,2.79-3.16a26.91,26.91,0,0,1,8-1c4.12,0,8.22.24,8.22.24a30.36,30.36,0,0,0-1.67,3c-.22.67-2.3,3.55-2.49,4.2s-1.61,2.42-1.45,3.43a54.58,54.58,0,0,1,.73,7,32.11,32.11,0,0,0-.64,5.93c.06,2.77-.54,7.33-1.3,8.6,0,0-.27-.4-.64-.3a12.85,12.85,0,0,0-1.83,2.06,5.92,5.92,0,0,0-1.16-.09,16.85,16.85,0,0,1-3.33.29c-.64-.18-1.42-.89-2.42-.74s-1.82,1-1.27,1.84a28.76,28.76,0,0,0,7.85,5.9,52.13,52.13,0,0,0,5,1.91A18.68,18.68,0,0,0,61,72.27c.24-.93.76-1.63.72-2.14s-.26-1.91-.26-1.91,3.24-7.73,4.26-10.45A25.68,25.68,0,0,0,66.89,48c-.26-2.76-.14-3.72.52-4.53s4.77-3.94,4.77-3.94l1.31,3s.74.22,2.88-.94c0,0,3.77,3.17,4.71,4a3.17,3.17,0,0,0,4.27.16c1.65-1.34,5.31-4.21,6.92-5.39S96.3,37,97,36.72s2.52-1.48,2.52-1.48a1.05,1.05,0,0,0,1,1.18,1.29,1.29,0,0,0,1.42-.68l3.33,1.6s.34,1.68,1.26,2.06,1.78-.19,1.78-1.8C108.32,35.22,106.88,32.69,106.7,32.15ZM20,54.29c-.48-.16-.34-.37-.34-.37A3.82,3.82,0,0,0,21.34,51c.44.26.28,1.87.4,2.46s.08,1-.48.87S20.42,54.46,20,54.29Z"/></g></g></g></svg>