<svg xmlns="http://www.w3.org/2000/svg" xmlns:xlink="http://www.w3.org/1999/xlink" viewBox="0 0 170.15 56.47"><defs><style>.cls-1{fill:url(#linear-gradient);}.cls-2{fill:url(#linear-gradient-2);}.cls-3{fill:url(#linear-gradient-3);}</style><linearGradient id="linear-gradient" x1="-31.85" y1="813.26" x2="116.31" y2="813.26" gradientTransform="matrix(0.75, -0.66, -0.66, -0.75, 593.87, 655.73)" gradientUnits="userSpaceOnUse"><stop offset="0.16" stop-color="#1374ae" stop-opacity="0.8"/><stop offset="1" stop-color="#1173be" stop-opacity="0.9"/></linearGradient><linearGradient id="linear-gradient-2" x1="-170.94" y1="717.45" x2="-36.2" y2="717.45" gradientTransform="matrix(0.71, -0.71, -0.71, -0.71, 710.03, 440.17)" gradientUnits="userSpaceOnUse"><stop offset="0.16" stop-color="#1173be" stop-opacity="0.9"/><stop offset="1" stop-color="#17a8e2" stop-opacity="0.8"/></linearGradient><linearGradient id="linear-gradient-3" x1="-172.02" y1="748.98" x2="-81.92" y2="748.98" xlink:href="#linear-gradient-2"/></defs><g id="Capa_2" data-name="Capa 2"><g id="Capa_1-2" data-name="Capa 1"><path class="cls-1" d="M154.3,30.73c-15.67,7.87-39.44,17.09-76.87,25.74C40.69,45.31,16.63,33.76,0,23.8a640,640,0,0,0,122.16-.35C131.47,25.93,142.12,28.41,154.3,30.73Z"/><path class="cls-2" d="M74.76,6.2c24.42,2.28,47.84,6.18,68.3,5.57,7.5,2.69,16.37,5.51,27.09,8.3-25.5,4.76-60.12,8.82-101.81,9.26C72.43,22.65,74,12.76,74.76,6.2Z"/><path class="cls-3" d="M62.13,5.29a10.42,10.42,0,0,0-1-5.29C70.41,1.56,80,3.12,89.9,4.6c5.18,2.28,11.16,4.91,18.56,7.8-15-.65-30.7-1.91-46.67-3.94A28.17,28.17,0,0,0,62.13,5.29Z"/></g></g></svg>