<svg xmlns="http://www.w3.org/2000/svg" xmlns:xlink="http://www.w3.org/1999/xlink" viewBox="0 0 100.95 76.69"><defs><style>.cls-1{isolation:isolate;}.cls-2,.cls-4,.cls-5{mix-blend-mode:multiply;}.cls-2{fill:url(#linear-gradient);}.cls-3{fill:url(#linear-gradient-2);}.cls-4{fill:url(#linear-gradient-3);}.cls-5{fill:url(#linear-gradient-4);}.cls-6{fill:url(#linear-gradient-5);}</style><linearGradient id="linear-gradient" x1="739.93" y1="604.44" x2="871.68" y2="604.44" gradientTransform="translate(895.16 554.66) rotate(174.84)" gradientUnits="userSpaceOnUse"><stop offset="0.16" stop-color="#4592e9"/><stop offset="1" stop-color="#fff"/></linearGradient><linearGradient id="linear-gradient-2" x1="747.34" y1="565.81" x2="882.05" y2="565.81" gradientTransform="translate(895.16 554.67) rotate(174.84)" gradientUnits="userSpaceOnUse"><stop offset="0.16" stop-color="#82bc3f" stop-opacity="0.8"/><stop offset="0.19" stop-color="#78b83f" stop-opacity="0.81"/><stop offset="0.34" stop-color="#4da741" stop-opacity="0.84"/><stop offset="0.5" stop-color="#2b9943" stop-opacity="0.87"/><stop offset="0.66" stop-color="#139044" stop-opacity="0.89"/><stop offset="0.83" stop-color="#058a45" stop-opacity="0.9"/><stop offset="1" stop-color="#008845" stop-opacity="0.9"/></linearGradient><linearGradient id="linear-gradient-3" x1="765.87" y1="579.44" x2="820.23" y2="579.44" gradientTransform="translate(895.16 554.67) rotate(174.84)" xlink:href="#linear-gradient"/><linearGradient id="linear-gradient-4" x1="816.96" y1="581.86" x2="896" y2="581.86" gradientTransform="translate(895.16 554.67) rotate(174.84)" gradientUnits="userSpaceOnUse"><stop offset="0.16" stop-color="#1374ae" stop-opacity="0.8"/><stop offset="1" stop-color="#1173be" stop-opacity="0.9"/></linearGradient><linearGradient id="linear-gradient-5" x1="816.95" y1="560.76" x2="907.32" y2="560.76" xlink:href="#linear-gradient-2"/></defs><g class="cls-1"><g id="Capa_2" data-name="Capa 2"><g id="Capa_1-2" data-name="Capa 1"><path class="cls-2" d="M43,0Q62.7,3.95,82.38,7.49C73.3,21.88,60.56,36.73,35.71,50a56.46,56.46,0,0,0-5-16.19C38.21,22,41.05,10.59,43,0Z"/><path class="cls-3" d="M101,68.69c-20.79,1.38-41.79,1.92-62.45,2a38.66,38.66,0,0,0,1.78-11.22A435.67,435.67,0,0,0,90.45,48.69,97.19,97.19,0,0,1,101,68.69Z"/><path class="cls-4" d="M80.55,48.8c-8.59,2.61-17.73,5-27.35,7.08A47.93,47.93,0,0,0,52.39,48q13.42-3.87,25.14-8.42A69.2,69.2,0,0,1,80.55,48.8Z"/><path class="cls-5" d="M1.46,61.51a249.24,249.24,0,0,0,28.1-9.24,48.87,48.87,0,0,0-3.69-13.83C19.83,44.76,11.65,51,0,56.83.56,58.37,1.05,59.94,1.46,61.51Z"/><path class="cls-6" d="M27.67,76.69q-9.8-.84-19.19-1.75a38.39,38.39,0,0,0,4.17-10.48q8.93.23,18.06.32A40,40,0,0,1,27.67,76.69Z"/></g></g></g></svg>